<svg width="40" height="40" viewBox="0 0 40 40" fill="none" xmlns="http://www.w3.org/2000/svg">
<rect width="40" height="40" rx="20" fill="#9757D7"/>
<path d="M25.8328 17.9169C25.8328 22.2829 22.283 25.8327 17.917 25.8327C15.1084 25.8327 12.6423 24.3665 11.2337 22.1579C10.9249 21.6742 10.6675 21.1492 10.475 20.608C10.1662 19.7668 10 18.8581 10 17.9169C10 13.551 13.5498 10.0012 17.9158 10.0012C20.3494 10.0012 22.5242 11.1011 23.9741 12.826L22.7492 13.9672C21.608 12.5585 19.8656 11.6673 17.9158 11.6673C14.466 11.6673 11.6661 14.4672 11.6661 17.9169V17.9507C11.6661 18.4669 11.7324 18.9594 11.8574 19.4343C11.9986 20.0181 12.2236 20.5593 12.5236 21.0592C12.7398 21.4255 12.9823 21.7679 13.2573 22.0754C14.3985 23.3591 16.0659 24.1665 17.9158 24.1665C21.2156 24.1665 23.9241 21.6005 24.1404 18.3582L24.8991 17.6495L25.7578 16.8583C25.8078 17.2082 25.8328 17.5582 25.8328 17.9169Z" fill="white"/>
<path d="M29.1659 30.0005C28.9522 30.0005 28.7397 29.9192 28.5772 29.7567L22.4226 23.6021C22.0976 23.2771 22.0976 22.7497 22.4226 22.4234C22.7475 22.0972 23.275 22.0985 23.6012 22.4234L29.7559 28.578C30.0809 28.903 30.0809 29.4305 29.7559 29.7567C29.5921 29.9192 29.3784 30.0005 29.1659 30.0005Z" fill="white"/>
<path d="M29.732 11.4429L25.4323 15.4514L24.0486 16.735L20.5651 19.9848C20.2564 20.2761 19.7739 20.2848 19.4489 20.0011L16.6579 17.56L12.5244 21.0598C12.2244 20.5598 11.9994 20.0186 11.8582 19.4349L16.1241 15.8264C16.4404 15.5601 16.9078 15.5601 17.2153 15.8351L19.9814 18.2512L23.4474 15.0264L24.7136 13.8427L28.5971 10.2267C28.9308 9.91047 29.4633 9.92672 29.772 10.2679C30.0908 10.6017 30.0733 11.1266 29.732 11.4429Z" fill="#CAAAEB"/>
<path d="M29.1659 14.584C28.9485 14.584 28.736 14.499 28.5772 14.3402L25.6612 11.4242C25.4224 11.1854 25.3512 10.8279 25.4799 10.5155C25.6087 10.2042 25.9124 10.0017 26.2499 10.0017H29.1659C29.6259 10.0017 29.9996 10.3755 29.9996 10.8354V13.7515C29.9996 14.089 29.7972 14.3927 29.4859 14.5215C29.3809 14.564 29.2734 14.584 29.1659 14.584Z" fill="#CAAAEB"/>
</svg>
