<svg width="1345" height="650" viewBox="0 0 1345 650" fill="none" xmlns="http://www.w3.org/2000/svg">
<g opacity="0.7">
<path opacity="0.2" d="M528 2.59937L246.5 154.599L694 340.599L528 2.59937Z" stroke="#9757D7"/>
<circle cx="528.5" cy="2.09937" r="1.5" fill="#9757D7"/>
<circle cx="695.5" cy="341.099" r="1.5" fill="#9757D7"/>
<circle cx="245.5" cy="155.099" r="1.5" fill="#9757D7"/>
</g>
<circle opacity="0.15" cx="1196" cy="165.599" r="24" fill="#9757D7"/>
<path d="M1203.62 160.841C1203.05 161.095 1202.44 161.261 1201.82 161.335C1202.48 160.943 1202.97 160.326 1203.2 159.599C1202.58 159.965 1201.91 160.222 1201.21 160.361C1200.74 159.855 1200.11 159.521 1199.43 159.408C1198.75 159.295 1198.05 159.411 1197.44 159.737C1196.83 160.063 1196.34 160.582 1196.06 161.212C1195.77 161.842 1195.71 162.548 1195.86 163.221C1194.62 163.159 1193.4 162.834 1192.28 162.27C1191.17 161.705 1190.19 160.913 1189.4 159.944C1189.12 160.422 1188.97 160.967 1188.97 161.521C1188.97 162.608 1189.53 163.569 1190.37 164.132C1189.87 164.116 1189.38 163.981 1188.95 163.739V163.778C1188.95 164.503 1189.2 165.205 1189.66 165.765C1190.12 166.326 1190.75 166.71 1191.46 166.854C1191 166.979 1190.52 166.998 1190.05 166.908C1190.25 167.531 1190.64 168.077 1191.16 168.467C1191.69 168.858 1192.32 169.075 1192.98 169.087C1192.33 169.598 1191.58 169.976 1190.79 170.198C1189.99 170.421 1189.16 170.485 1188.33 170.386C1189.77 171.308 1191.44 171.797 1193.14 171.796C1198.91 171.796 1202.07 167.016 1202.07 162.871C1202.07 162.736 1202.06 162.599 1202.06 162.466C1202.67 162.022 1203.2 161.472 1203.62 160.842L1203.62 160.841Z" fill="#9757D7"/>
<circle opacity="0.15" r="24" transform="matrix(-1 0 0 1 144 165.599)" fill="#45B26B"/>
<path d="M146.766 165.119C147.498 165.275 148.086 165.641 148.53 166.217C148.974 166.781 149.196 167.429 149.196 168.161C149.196 169.217 148.824 170.057 148.08 170.681C147.348 171.293 146.322 171.599 145.002 171.599H139.116V158.963H144.804C146.088 158.963 147.09 159.257 147.81 159.845C148.542 160.433 148.908 161.231 148.908 162.239C148.908 162.983 148.71 163.601 148.314 164.093C147.93 164.585 147.414 164.927 146.766 165.119ZM142.194 164.075H144.21C144.714 164.075 145.098 163.967 145.362 163.751C145.638 163.523 145.776 163.193 145.776 162.761C145.776 162.329 145.638 161.999 145.362 161.771C145.098 161.543 144.714 161.429 144.21 161.429H142.194V164.075ZM144.462 169.115C144.978 169.115 145.374 169.001 145.65 168.773C145.938 168.533 146.082 168.191 146.082 167.747C146.082 167.303 145.932 166.955 145.632 166.703C145.344 166.451 144.942 166.325 144.426 166.325H142.194V169.115H144.462Z" fill="#45B26B"/>
<circle opacity="0.15" r="24" transform="matrix(4.37114e-08 -1 -1 -4.37114e-08 424 55.5994)" fill="#EF466F"/>
<path d="M431.157 51.4729C431.5 52.8094 431.5 55.5994 431.5 55.5994C431.5 55.5994 431.5 58.3894 431.157 59.7259C430.967 60.4646 430.41 61.0459 429.704 61.2424C428.422 61.5994 424 61.5994 424 61.5994C424 61.5994 419.58 61.5994 418.296 61.2424C417.588 61.0429 417.031 60.4624 416.843 59.7259C416.5 58.3894 416.5 55.5994 416.5 55.5994C416.5 55.5994 416.5 52.8094 416.843 51.4729C417.033 50.7341 417.591 50.1529 418.296 49.9564C419.58 49.5994 424 49.5994 424 49.5994C424 49.5994 428.422 49.5994 429.704 49.9564C430.413 50.1559 430.969 50.7364 431.157 51.4729ZM422.5 58.2244L427 55.5994L422.5 52.9744V58.2244Z" fill="#EF466F"/>
<circle opacity="0.15" cx="1316" cy="325.599" r="24" fill="#45B26B"/>
<path d="M1322.75 318.849V327.654L1319.23 331.176H1316.29L1314.47 332.937H1312.18V331.176H1309.25V321.197L1310.17 318.849H1322.75ZM1321.58 320.023H1311.6V328.828H1313.95V330.588L1315.71 328.827H1319.23L1321.58 326.48V320.023H1321.58ZM1319.23 322.371V325.893H1318.05V322.371H1319.23L1319.23 322.371ZM1316.29 322.371V325.893H1315.12V322.371H1316.29V322.371Z" fill="#45B26B"/>
<circle opacity="0.15" r="24" transform="matrix(-1 0 0 1 24 325.599)" fill="#9757D7"/>
<path d="M18 318.849H30C30.1989 318.849 30.3897 318.928 30.5303 319.069C30.671 319.21 30.75 319.4 30.75 319.599V331.599C30.75 331.798 30.671 331.989 30.5303 332.13C30.3897 332.27 30.1989 332.349 30 332.349H18C17.8011 332.349 17.6103 332.27 17.4697 332.13C17.329 331.989 17.25 331.798 17.25 331.599V319.599C17.25 319.4 17.329 319.21 17.4697 319.069C17.6103 318.928 17.8011 318.849 18 318.849ZM27.975 328.554C27.9 328.517 27.8625 328.404 27.8625 328.329V322.604C27.8625 322.529 27.9 322.416 27.975 322.341L28.6912 321.512V321.474H26.13L24.21 326.333L22.0245 321.474H19.389V321.512L20.0663 322.454C20.217 322.604 20.2545 322.83 20.2545 323.019V327.161C20.292 327.387 20.2545 327.651 20.142 327.876L19.125 329.27V329.307H21.837V329.27L20.82 327.915C20.7075 327.688 20.6693 327.462 20.7075 327.199V323.432C20.745 323.507 20.7825 323.507 20.82 323.658L23.3805 329.382H23.418L25.905 323.169C25.8675 323.394 25.8675 323.658 25.8675 323.847V328.291C25.8675 328.404 25.83 328.479 25.755 328.554L25.0013 329.27V329.307H28.692V329.27L27.9765 328.554H27.975Z" fill="#9757D7"/>
<circle opacity="0.15" r="24" transform="matrix(4.37114e-08 -1 -1 -4.37114e-08 916 55.5994)" fill="#3772FF"/>
<path d="M916 48.0994C918.038 48.0994 918.292 48.1069 919.091 48.1444C919.89 48.1819 920.434 48.3071 920.912 48.4931C921.407 48.6836 921.824 48.9416 922.241 49.3579C922.623 49.7328 922.918 50.1863 923.106 50.6869C923.291 51.1646 923.417 51.7091 923.455 52.5079C923.49 53.3074 923.5 53.5616 923.5 55.5994C923.5 57.6371 923.492 57.8914 923.455 58.6909C923.417 59.4896 923.291 60.0334 923.106 60.5119C922.919 61.0127 922.623 61.4663 922.241 61.8409C921.866 62.2221 921.413 62.5172 920.912 62.7056C920.435 62.8909 919.89 63.0169 919.091 63.0544C918.292 63.0896 918.038 63.0994 916 63.0994C913.962 63.0994 913.708 63.0919 912.908 63.0544C912.11 63.0169 911.566 62.8909 911.087 62.7056C910.587 62.5177 910.133 62.2226 909.758 61.8409C909.377 61.466 909.082 61.0125 908.894 60.5119C908.708 60.0341 908.582 59.4896 908.545 58.6909C908.51 57.8914 908.5 57.6371 908.5 55.5994C908.5 53.5616 908.507 53.3074 908.545 52.5079C908.582 51.7084 908.708 51.1654 908.894 50.6869C909.081 50.186 909.377 49.7324 909.758 49.3579C910.133 48.9763 910.587 48.6812 911.087 48.4931C911.566 48.3071 912.109 48.1819 912.908 48.1444C913.708 48.1091 913.962 48.0994 916 48.0994ZM916 51.8494C915.005 51.8494 914.052 52.2445 913.348 52.9477C912.645 53.651 912.25 54.6048 912.25 55.5994C912.25 56.5939 912.645 57.5478 913.348 58.251C914.052 58.9543 915.005 59.3494 916 59.3494C916.995 59.3494 917.948 58.9543 918.652 58.251C919.355 57.5478 919.75 56.5939 919.75 55.5994C919.75 54.6048 919.355 53.651 918.652 52.9477C917.948 52.2445 916.995 51.8494 916 51.8494ZM920.875 51.6619C920.875 51.4132 920.776 51.1748 920.6 50.999C920.425 50.8231 920.186 50.7244 919.937 50.7244C919.689 50.7244 919.45 50.8231 919.275 50.999C919.099 51.1748 919 51.4132 919 51.6619C919 51.9105 919.099 52.149 919.275 52.3248C919.45 52.5006 919.689 52.5994 919.937 52.5994C920.186 52.5994 920.425 52.5006 920.6 52.3248C920.776 52.149 920.875 51.9105 920.875 51.6619ZM916 53.3494C916.597 53.3494 917.169 53.5864 917.591 54.0084C918.013 54.4303 918.25 55.0026 918.25 55.5994C918.25 56.1961 918.013 56.7684 917.591 57.1904C917.169 57.6123 916.597 57.8494 916 57.8494C915.403 57.8494 914.831 57.6123 914.409 57.1904C913.987 56.7684 913.75 56.1961 913.75 55.5994C913.75 55.0026 913.987 54.4303 914.409 54.0084C914.831 53.5864 915.403 53.3494 916 53.3494Z" fill="#3772FF"/>
<circle opacity="0.15" cx="1126" cy="435.599" r="24" fill="#EF466F"/>
<path d="M1127.03 428.17C1125.23 427.923 1123.41 428.334 1121.89 429.326C1120.38 430.319 1119.27 431.826 1118.78 433.57C1118.29 435.314 1118.45 437.176 1119.22 438.813C1120 440.45 1121.34 441.752 1123 442.477C1122.96 441.901 1123 441.321 1123.12 440.757C1123.26 440.128 1124.1 436.66 1124.1 436.66C1123.93 436.288 1123.85 435.884 1123.85 435.477C1123.85 434.363 1124.5 433.532 1125.3 433.532C1125.44 433.53 1125.58 433.559 1125.71 433.617C1125.84 433.675 1125.96 433.76 1126.06 433.868C1126.15 433.975 1126.22 434.102 1126.27 434.239C1126.31 434.376 1126.32 434.521 1126.3 434.663C1126.3 435.338 1125.87 436.36 1125.64 437.318C1125.6 437.494 1125.59 437.678 1125.63 437.855C1125.67 438.032 1125.75 438.198 1125.87 438.338C1125.98 438.478 1126.13 438.59 1126.29 438.663C1126.46 438.736 1126.64 438.77 1126.82 438.761C1128.25 438.761 1129.2 436.937 1129.2 434.785C1129.2 433.135 1128.11 431.899 1126.09 431.899C1125.61 431.88 1125.13 431.96 1124.68 432.132C1124.23 432.305 1123.82 432.568 1123.47 432.904C1123.13 433.24 1122.85 433.643 1122.67 434.088C1122.48 434.534 1122.39 435.012 1122.4 435.494C1122.37 436.029 1122.55 436.554 1122.88 436.972C1122.94 437.019 1122.99 437.084 1123.01 437.159C1123.03 437.234 1123.03 437.314 1123 437.387C1122.97 437.525 1122.88 437.855 1122.85 437.975C1122.84 438.016 1122.82 438.055 1122.8 438.088C1122.77 438.122 1122.74 438.149 1122.7 438.167C1122.67 438.186 1122.63 438.195 1122.58 438.195C1122.54 438.195 1122.5 438.185 1122.46 438.166C1121.43 437.75 1120.94 436.608 1120.94 435.304C1120.94 433.169 1122.73 430.613 1126.3 430.613C1129.15 430.613 1131.04 432.695 1131.04 434.923C1131.04 437.855 1129.41 440.059 1127 440.059C1126.64 440.07 1126.28 439.991 1125.96 439.827C1125.64 439.664 1125.36 439.422 1125.16 439.124C1125.16 439.124 1124.72 440.861 1124.64 441.19C1124.46 441.757 1124.21 442.296 1123.87 442.788C1124.57 442.998 1125.29 443.103 1126.01 443.1C1126.99 443.101 1127.97 442.907 1128.88 442.531C1129.79 442.154 1130.62 441.601 1131.31 440.904C1132.01 440.207 1132.56 439.38 1132.94 438.469C1133.31 437.559 1133.51 436.583 1133.51 435.598C1133.5 433.787 1132.85 432.037 1131.66 430.672C1130.47 429.307 1128.82 428.418 1127.03 428.171L1127.03 428.17Z" fill="#EF466F"/>
<circle opacity="0.15" r="24" transform="matrix(-1 0 0 1 214 435.599)" fill="#3772FF"/>
<path d="M210.205 430.349C210.205 430.747 210.047 431.129 209.765 431.41C209.484 431.691 209.102 431.849 208.704 431.849C208.306 431.848 207.925 431.69 207.644 431.409C207.363 431.127 207.205 430.746 207.205 430.348C207.205 429.95 207.363 429.569 207.645 429.287C207.926 429.006 208.308 428.848 208.706 428.849C209.104 428.849 209.485 429.007 209.766 429.289C210.047 429.57 210.205 429.952 210.205 430.349ZM210.25 432.959H207.25V442.349H210.25V432.959ZM214.99 432.959H212.005V442.349H214.96V437.422C214.96 434.677 218.537 434.422 218.537 437.422V442.349H221.5V436.402C221.5 431.774 216.205 431.947 214.96 434.219L214.99 432.959Z" fill="#3772FF"/>
<circle opacity="0.15" r="24" transform="matrix(4.37114e-08 -1 -1 -4.37114e-08 669 95.5994)" fill="#FF592C"/>
<path d="M670.5 96.7244H672.375L673.125 93.7244H670.5V92.2244C670.5 91.4519 670.5 90.7244 672 90.7244H673.125V88.2044C672.88 88.1721 671.957 88.0994 670.982 88.0994C668.946 88.0994 667.5 89.3421 667.5 91.6244V93.7244H665.25V96.7244H667.5V103.099H670.5V96.7244Z" fill="#FF592C"/>
<g opacity="0.7">
<path opacity="0.2" d="M214.666 647.599L110 586.109L306 509.599L214.666 647.599Z" stroke="#3772FF"/>
<circle cx="306" cy="509.599" r="2" fill="#3772FF"/>
<circle cx="215" cy="647.599" r="2" fill="#3772FF"/>
<circle cx="110" cy="586.599" r="2" fill="#3772FF"/>
</g>
<g opacity="0.7">
<path opacity="0.2" d="M1320.15 477.268L1319.78 527.081L1252.37 473.124L1320.15 477.268Z" stroke="#EF466F"/>
<circle cx="1251.73" cy="472.526" r="2" transform="rotate(-120 1251.73 472.526)" fill="#EF466F"/>
<circle cx="1319.73" cy="477.526" r="2" transform="rotate(-120 1319.73 477.526)" fill="#EF466F"/>
<circle cx="1319.73" cy="527.526" r="2" transform="rotate(-120 1319.73 527.526)" fill="#EF466F"/>
</g>
<g opacity="0.7">
<path opacity="0.2" d="M1080.92 145.648L1251.09 47.3984" stroke="#45B36B"/>
<circle cx="1080.05" cy="146.148" r="1.5" transform="rotate(-30 1080.05 146.148)" fill="#45B36B"/>
<circle cx="1252.39" cy="46.6484" r="1.5" transform="rotate(-30 1252.39 46.6484)" fill="#45B36B"/>
</g>
</svg>
