<svg width="40" height="40" viewBox="0 0 40 40" fill="none" xmlns="http://www.w3.org/2000/svg">
<rect width="40" height="40" rx="20" fill="#3772FF"/>
<path opacity="0.7" d="M24.5 11.7813L29 13.6556L24.5 15.531L20 13.6556L24.5 11.7813Z" fill="white"/>
<path opacity="0.7" d="M23.7496 16.4377L20 14.8751V18.906C20 19.0635 20.099 19.2041 20.2464 19.2581L23.7496 20.5316V16.4377Z" fill="white"/>
<path opacity="0.7" d="M25.2504 16.4377V20.5327L28.7536 19.2592C28.901 19.2041 29 19.0635 29 18.906V14.8751L25.2504 16.4377Z" fill="white"/>
<path d="M11.4595 19.0018C11.2045 19.0054 11 19.183 11 19.4015V26.7996C11 26.91 11.1051 27 11.2339 27H13.4487C13.6574 27 13.8409 26.8812 13.8983 26.7096L15.9645 20.4707C16.0976 20.0675 15.8455 19.6439 15.386 19.5011C14.5399 19.237 13.2413 18.9754 11.4595 19.0018Z" fill="white"/>
<path d="M27.5468 23.529C26.0924 23.529 23.1827 25.2699 21.7283 25.2699C20.274 25.2699 18.6364 24.2169 18.6364 24.2169C18.6364 24.2169 20.5959 24.5603 21.7272 24.5603C22.8586 24.5603 23.1816 24.1952 23.1816 23.7012C23.1816 22.4976 21.0192 22.3109 19.926 22.1541C18.8524 21.5889 18.2949 21.1423 16.5165 21C16.5056 21.098 16.4892 21.1949 16.4609 21.2929L15 26.161C16.6551 26.8727 19.5037 28 20.9995 28C23.1816 28 29 25.2493 29 24.5624C29.0011 23.8724 28.2734 23.529 27.5468 23.529Z" fill="white"/>
</svg>
