<svg width="557" height="528" viewBox="0 0 557 528" fill="none" xmlns="http://www.w3.org/2000/svg">
<g clip-path="url(#clip0)">
<path d="M475.182 495.787H462.7V496.217H475.182V495.787Z" fill="#E0E7EC"/>
<path d="M137.304 480.898H75.3232V481.327H137.304V480.898Z" fill="#E0E7EC"/>
<path d="M159.112 480.898H150.073V481.327H159.112V480.898Z" fill="#E0E7EC"/>
<path d="M323.101 487.054H188.667V487.484H323.101V487.054Z" fill="#E0E7EC"/>
<path d="M340.031 404.876H62.9846C58.5369 404.876 54.8066 401.154 54.8066 396.716V8.16052C54.8066 3.72234 58.5369 0 62.9846 0H340.031C344.478 0 348.209 3.72234 348.209 8.16052V396.716C348.209 401.297 344.622 404.876 340.031 404.876ZM62.9846 0.429501C58.6804 0.429501 55.0936 3.86551 55.0936 8.30369V396.859C55.0936 401.154 58.5369 404.733 62.9846 404.733H340.031C344.335 404.733 347.922 401.297 347.922 396.859V8.16052C347.922 3.86551 344.478 0.286334 340.031 0.286334H62.9846V0.429501Z" fill="#E0E7EC"/>
<path d="M650.363 404.876H373.317C368.869 404.876 365.139 401.154 365.139 396.716V8.16052C365.139 3.72234 368.869 0 373.317 0H650.363C654.811 0 658.541 3.72234 658.541 8.16052V396.716C658.541 401.297 654.954 404.876 650.363 404.876ZM373.317 0.429501C369.012 0.429501 365.426 3.86551 365.426 8.30369V396.859C365.426 401.154 368.869 404.733 373.317 404.733H650.363C654.667 404.733 658.254 401.297 658.254 396.859V8.16052C658.254 3.86551 654.811 0.286334 650.363 0.286334H373.317V0.429501Z" fill="#E0E7EC"/>
<path d="M717.365 468.729H0V469.158H717.365V468.729Z" fill="#E0E7EC"/>
<path d="M193.42 341.453H37.6089V399.865H193.42V341.453Z" fill="#E0E7EC"/>
<path d="M193.42 399.865H37.6089V458.277H193.42V399.865Z" fill="#E0E7EC"/>
<path d="M96.7198 399.865L116.089 341.453H86.2463L66.8774 399.865H96.7198Z" fill="#E0E7EC"/>
<path d="M130.579 341.453H123.98L104.611 399.865H111.211L130.579 341.453Z" fill="#E0E7EC"/>
<path d="M77.3507 458.134L96.7195 399.865H66.8771L47.5083 458.134H77.3507Z" fill="#E0E7EC"/>
<path d="M111.21 399.865H104.611L85.2417 458.134H91.8415L111.21 399.865Z" fill="#E0E7EC"/>
<path d="M193.367 350.411V344.541L37.5555 344.541V350.411H193.367Z" fill="#E0E7EC"/>
<path d="M193.271 408.296V402.427L37.4589 402.427V408.296H193.271Z" fill="#E0E7EC"/>
<path d="M119.388 378.104C120.679 378.104 121.684 376.959 121.684 375.527C121.684 374.095 120.679 372.95 119.388 372.95C118.671 372.95 112.071 372.95 111.354 372.95C110.062 372.95 109.058 374.095 109.058 375.527C109.058 376.959 110.062 378.104 111.354 378.104C112.215 378.104 118.671 378.104 119.388 378.104Z" fill="#E0E7EC"/>
<path d="M119.388 377.245C120.679 377.245 121.684 376.1 121.684 374.668C121.684 373.236 120.679 372.091 119.388 372.091C118.671 372.091 112.071 372.091 111.354 372.091C110.062 372.091 109.058 373.236 109.058 374.668C109.058 376.1 110.062 377.245 111.354 377.245C112.215 377.245 118.671 377.245 119.388 377.245Z" fill="white"/>
<path d="M119.388 431.935C120.679 431.935 121.684 430.79 121.684 429.358C121.684 427.926 120.679 426.781 119.388 426.781C118.671 426.781 112.071 426.781 111.354 426.781C110.062 426.781 109.058 427.926 109.058 429.358C109.058 430.79 110.062 431.935 111.354 431.935C112.215 431.935 118.671 431.935 119.388 431.935Z" fill="#E0E7EC"/>
<path d="M119.388 431.076C120.679 431.076 121.684 429.931 121.684 428.499C121.684 427.067 120.679 425.922 119.388 425.922C118.671 425.922 112.071 425.922 111.354 425.922C110.062 425.922 109.058 427.067 109.058 428.499C109.058 429.931 110.062 431.076 111.354 431.076C112.215 431.076 118.671 431.076 119.388 431.076Z" fill="white"/>
<path d="M34.8828 338.876V460.711H37.6088H40.3348H190.694H193.42H196.146V338.876H34.8828ZM190.551 454.841H40.3348V402.872H190.694V454.841H190.551ZM190.551 397.002H40.3348V345.032H190.694V397.002H190.551Z" fill="white"/>
<path d="M354.541 341.453H198.729V399.865H354.541V341.453Z" fill="#E0E7EC"/>
<path d="M354.541 399.865H198.729V458.277H354.541V399.865Z" fill="#E0E7EC"/>
<path d="M319.533 399.865L338.902 341.453H309.06L289.691 399.865H319.533Z" fill="#E0E7EC"/>
<path d="M353.393 341.453H346.793L327.424 399.865H334.024L353.393 341.453Z" fill="#E0E7EC"/>
<path d="M300.164 458.134L319.533 399.865H289.691L270.322 458.134H300.164Z" fill="#E0E7EC"/>
<path d="M334.024 399.865H327.424L308.055 458.134H314.655L334.024 399.865Z" fill="#E0E7EC"/>
<path d="M354.594 350.448V344.578L198.782 344.578V350.448H354.594Z" fill="#E0E7EC"/>
<path d="M354.497 408.334V402.464L198.685 402.464V408.334H354.497Z" fill="#E0E7EC"/>
<path d="M280.652 378.104C281.943 378.104 282.947 376.959 282.947 375.527C282.947 374.095 281.943 372.95 280.652 372.95C279.934 372.95 273.335 372.95 272.617 372.95C271.326 372.95 270.322 374.095 270.322 375.527C270.322 376.959 271.326 378.104 272.617 378.104C273.335 378.104 279.934 378.104 280.652 378.104Z" fill="#E0E7EC"/>
<path d="M280.652 377.245C281.943 377.245 282.947 376.1 282.947 374.668C282.947 373.236 281.943 372.091 280.652 372.091C279.934 372.091 273.335 372.091 272.617 372.091C271.326 372.091 270.322 373.236 270.322 374.668C270.322 376.1 271.326 377.245 272.617 377.245C273.335 377.245 279.934 377.245 280.652 377.245Z" fill="white"/>
<path d="M280.652 431.935C281.943 431.935 282.947 430.79 282.947 429.358C282.947 427.926 281.943 426.781 280.652 426.781C279.934 426.781 273.335 426.781 272.617 426.781C271.326 426.781 270.322 427.926 270.322 429.358C270.322 430.79 271.326 431.935 272.617 431.935C273.335 431.935 279.934 431.935 280.652 431.935Z" fill="#E0E7EC"/>
<path d="M280.652 431.076C281.943 431.076 282.947 429.931 282.947 428.499C282.947 427.067 281.943 425.922 280.652 425.922C279.934 425.922 273.335 425.922 272.617 425.922C271.326 425.922 270.322 427.067 270.322 428.499C270.322 429.931 271.326 431.076 272.617 431.076C273.335 431.076 279.934 431.076 280.652 431.076Z" fill="white"/>
<path d="M196.003 338.876V460.711H198.729H201.455H351.815H354.541H357.267V338.876H196.003ZM351.815 454.841H201.455V402.872H351.815V454.841ZM351.815 397.002H201.455V345.032H351.815V397.002Z" fill="white"/>
<path d="M515.804 341.453H359.993V399.865H515.804V341.453Z" fill="#E0E7EC"/>
<path d="M515.804 399.865H359.993V458.277H515.804V399.865Z" fill="#E0E7EC"/>
<path d="M458.702 399.865L478.071 341.453H448.229L428.86 399.865H458.702Z" fill="#E0E7EC"/>
<path d="M492.418 341.453H485.962L466.593 399.865H473.05L492.418 341.453Z" fill="#E0E7EC"/>
<path d="M439.333 458.134L458.702 399.865H428.86L409.491 458.134H439.333Z" fill="#E0E7EC"/>
<path d="M473.049 399.865H466.593L447.224 458.134H453.68L473.049 399.865Z" fill="#E0E7EC"/>
<path d="M515.818 350.344V344.474L360.007 344.474V350.344H515.818Z" fill="#E0E7EC"/>
<path d="M515.722 408.229V402.36L359.91 402.36V408.229H515.722Z" fill="#E0E7EC"/>
<path d="M441.915 378.104C443.207 378.104 444.211 376.959 444.211 375.527C444.211 374.095 443.207 372.95 441.915 372.95C441.198 372.95 434.598 372.95 433.881 372.95C432.59 372.95 431.585 374.095 431.585 375.527C431.585 376.959 432.59 378.104 433.881 378.104C434.598 378.104 441.198 378.104 441.915 378.104Z" fill="#E0E7EC"/>
<path d="M441.915 377.245C443.207 377.245 444.211 376.1 444.211 374.668C444.211 373.236 443.207 372.091 441.915 372.091C441.198 372.091 434.598 372.091 433.881 372.091C432.59 372.091 431.585 373.236 431.585 374.668C431.585 376.1 432.59 377.245 433.881 377.245C434.598 377.245 441.198 377.245 441.915 377.245Z" fill="white"/>
<path d="M441.915 431.935C443.207 431.935 444.211 430.79 444.211 429.358C444.211 427.926 443.207 426.781 441.915 426.781C441.198 426.781 434.598 426.781 433.881 426.781C432.59 426.781 431.585 427.926 431.585 429.358C431.585 430.79 432.59 431.935 433.881 431.935C434.598 431.935 441.198 431.935 441.915 431.935Z" fill="#E0E7EC"/>
<path d="M441.915 431.076C443.207 431.076 444.211 429.931 444.211 428.499C444.211 427.067 443.207 425.922 441.915 425.922C441.198 425.922 434.598 425.922 433.881 425.922C432.59 425.922 431.585 427.067 431.585 428.499C431.585 429.931 432.59 431.076 433.881 431.076C434.598 431.076 441.198 431.076 441.915 431.076Z" fill="white"/>
<path d="M357.267 338.876V460.711H359.993H362.719H513.078H515.804H518.53V338.876H357.267ZM513.078 454.841H362.719V402.872H513.078V454.841ZM513.078 397.002H362.719V345.032H513.078V397.002Z" fill="white"/>
<path d="M502.892 469.445H50.3781L48.0825 460.711H505.331L502.892 469.445Z" fill="#E0E7EC"/>
<path d="M395.293 212.017L394.761 313.236L512.266 313.851L512.798 212.632L395.293 212.017Z" fill="#E0E7EC"/>
<path d="M395.327 211.958L512.831 212.573L512.93 193.675L395.426 193.06L395.327 211.958Z" fill="#E0E7EC"/>
<path d="M391.27 310.386L508.918 310.959L512.792 212.603L395.287 212.03L391.27 310.386Z" fill="white"/>
<path d="M421.399 236.369L479.649 236.655L480.367 219.332L422.117 219.046L421.399 236.369Z" fill="#E0E7EC"/>
<path d="M488.544 258.989L504.04 259.132L504.614 243.67L489.118 243.527L488.544 258.989Z" fill="#E0E7EC"/>
<path d="M466.45 258.846L481.945 258.989L482.662 243.527L467.024 243.384L466.45 258.846Z" fill="#E0E7EC"/>
<path d="M487.684 279.891L503.179 280.035L503.753 264.573L488.258 264.429L487.684 279.891Z" fill="#E0E7EC"/>
<path d="M486.823 300.794L502.318 300.937L503.036 285.475L487.397 285.332L486.823 300.794Z" fill="#E0E7EC"/>
<path d="M465.589 279.892H481.084L481.801 264.429L466.163 264.286L465.589 279.892Z" fill="#E0E7EC"/>
<path d="M443.494 279.748H459.133L459.707 264.286L444.212 264.143L443.494 279.748Z" fill="#E0E7EC"/>
<path d="M421.543 279.605L437.038 279.748L437.612 264.143H422.117L421.543 279.605Z" fill="#E0E7EC"/>
<path d="M399.448 279.462L414.943 279.605L415.661 264H400.022L399.448 279.462Z" fill="#E0E7EC"/>
<path d="M464.728 300.794H480.367L480.94 285.332L465.445 285.189L464.728 300.794Z" fill="#E0E7EC"/>
<path d="M442.777 300.651H458.272L458.846 285.189H443.351L442.777 300.651Z" fill="#E0E7EC"/>
<path d="M420.682 300.508L436.177 300.651L436.894 285.046H421.256L420.682 300.508Z" fill="#E0E7EC"/>
<path d="M444.355 258.846H459.994L460.567 243.384L445.072 243.241L444.355 258.846Z" fill="#E0E7EC"/>
<path d="M422.404 258.703H437.899L438.473 243.241H422.978L422.404 258.703Z" fill="#E0E7EC"/>
<path d="M400.309 258.56L415.804 258.703L416.521 243.098H400.882L400.309 258.56Z" fill="#E0E7EC"/>
<path d="M398.587 300.364L414.082 300.508L414.8 285.046L399.161 284.902L398.587 300.364Z" fill="#E0E7EC"/>
<path d="M453.824 188.265C450.094 188.265 447.081 191.271 447.081 194.993C447.081 198.716 450.094 201.722 453.824 201.722C457.555 201.722 460.567 198.716 460.567 194.993C460.567 191.271 457.555 188.265 453.824 188.265ZM453.824 200.148C450.955 200.148 448.659 197.857 448.659 194.993C448.659 192.13 450.955 189.839 453.824 189.839C456.694 189.839 458.989 192.13 458.989 194.993C458.989 197.857 456.55 200.148 453.824 200.148Z" fill="#E0E7EC"/>
<path d="M278.5 527.857C432.142 527.857 556.694 520.614 556.694 511.679C556.694 502.744 432.142 495.501 278.5 495.501C124.857 495.501 0.305664 502.744 0.305664 511.679C0.305664 520.614 124.857 527.857 278.5 527.857Z" fill="white"/>
<path d="M492.274 130.712L462.719 124.555L489.979 114.39L490.409 107.375C483.666 97.3536 469.606 90.6248 452.963 90.6248C429.003 90.6248 408.917 104.655 408.056 121.978C408.056 122.408 408.056 122.981 408.056 123.41C408.056 123.84 407.769 128.564 407.769 128.994C406.908 146.317 425.56 160.347 449.376 160.347C469.032 160.347 486.105 150.898 491.988 138.013L492.274 130.712Z" fill="#0ec2f3"/>
<path opacity="0.7" d="M449.805 121.835L490.264 107.375C483.521 97.3536 469.461 90.6248 452.818 90.6248C428.858 90.6248 408.772 104.655 407.911 121.978C407.05 139.302 425.702 153.332 449.518 153.332C469.174 153.332 486.247 143.883 492.13 130.998L449.805 121.835Z" fill="white"/>
<path d="M476.062 124.985L517.095 133.861C518.386 130.998 519.247 127.991 519.391 124.985C519.391 124.126 519.391 123.267 519.391 122.408C519.534 121.549 519.678 120.69 519.678 119.688C519.965 114.39 518.386 109.523 515.517 105.228L476.349 119.688L476.062 124.985Z" fill="#0ec2f3"/>
<path opacity="0.3" d="M517.382 128.564C518.674 125.701 519.535 122.694 519.678 119.688C519.965 114.39 518.387 109.523 515.517 105.228L476.349 119.688L517.382 128.564Z" fill="white"/>
<path d="M330.437 249.397V247.25H314.368V231.072H312.216V247.25H296.721V231.072H294.569V247.25H279.361V231.072H277.209V247.25H262.144V231.072H259.992V247.25H244.497V231.072H242.345V247.25H226.419V249.397H242.345V264.573H226.419V266.72H242.345V281.896H226.419V284.043H242.345V300.221H244.497V284.043H259.992V300.221H262.144V284.043H277.209V300.221H279.361V284.043H294.569V300.221H296.721V284.043H312.216V300.221H314.368V284.043H330.437V281.896H314.368V266.72H330.437V264.573H314.368V249.397H330.437ZM294.713 249.397V264.573H279.504V249.397H294.713ZM277.496 249.397V264.573H262.431V249.397H277.496ZM244.784 249.397H260.279V264.573H244.784V249.397ZM244.784 281.896V266.72H260.279V281.896H244.784ZM262.431 281.896V266.72H277.496V281.896H262.431ZM279.504 281.896V266.72H294.713V281.896H279.504ZM312.36 281.896H296.865V266.72H312.36V281.896ZM312.36 264.573H296.865V249.397H312.36V264.573Z" fill="#0ec2f3"/>
<path opacity="0.7" d="M330.437 249.397V247.25H314.368V231.072H312.216V247.25H296.721V231.072H294.569V247.25H279.361V231.072H277.209V247.25H262.144V231.072H259.992V247.25H244.497V231.072H242.345V247.25H226.419V249.397H242.345V264.573H226.419V266.72H242.345V281.896H226.419V284.043H242.345V300.221H244.497V284.043H259.992V300.221H262.144V284.043H277.209V300.221H279.361V284.043H294.569V300.221H296.721V284.043H312.216V300.221H314.368V284.043H330.437V281.896H314.368V266.72H330.437V264.573H314.368V249.397H330.437ZM294.713 249.397V264.573H279.504V249.397H294.713ZM277.496 249.397V264.573H262.431V249.397H277.496ZM244.784 249.397H260.279V264.573H244.784V249.397ZM244.784 281.896V266.72H260.279V281.896H244.784ZM262.431 281.896V266.72H277.496V281.896H262.431ZM279.504 281.896V266.72H294.713V281.896H279.504ZM312.36 281.896H296.865V266.72H312.36V281.896ZM312.36 264.573H296.865V249.397H312.36V264.573Z" fill="white"/>
<path d="M325.272 302.226H231.871C227.854 302.226 224.554 298.933 224.554 294.924V236.512C224.554 232.503 227.854 229.21 231.871 229.21H325.272C329.289 229.21 332.589 232.503 332.589 236.512V294.924C332.589 298.933 329.289 302.226 325.272 302.226ZM231.728 233.219C230.006 233.219 228.571 234.651 228.571 236.369V294.924C228.571 296.642 230.006 298.074 231.728 298.074H325.129C326.85 298.074 328.285 296.642 328.285 294.924V236.512C328.285 234.794 326.85 233.362 325.129 233.362H231.728V233.219Z" fill="#0ec2f3"/>
<g opacity="0.8">
<path opacity="0.8" d="M325.272 302.226H231.871C227.854 302.226 224.554 298.933 224.554 294.924V236.512C224.554 232.503 227.854 229.21 231.871 229.21H325.272C329.289 229.21 332.589 232.503 332.589 236.512V294.924C332.589 298.933 329.289 302.226 325.272 302.226ZM231.728 233.219C230.006 233.219 228.571 234.651 228.571 236.369V294.924C228.571 296.642 230.006 298.074 231.728 298.074H325.129C326.85 298.074 328.285 296.642 328.285 294.924V236.512C328.285 234.794 326.85 233.362 325.129 233.362H231.728V233.219Z" fill="white"/>
</g>
<path d="M314.512 244.959H305.186L295.86 254.265L278.213 262.998H259.848L241.627 281.18H228.571V284.33H242.919L261.14 266.147H279.074L297.725 256.842L306.477 248.108H315.372L328.428 241.523V237.944L314.512 244.959Z" fill="#0ec2f3"/>
<g opacity="0.6">
<path opacity="0.6" d="M314.512 244.959H305.186L295.86 254.265L278.213 262.998H259.848L241.627 281.18H228.571V284.33H242.919L261.14 266.147H279.074L297.725 256.842L306.477 248.108H315.372L328.428 241.523V237.944L314.512 244.959Z" fill="white"/>
</g>
<path d="M313.938 263.284L278.213 281.18H260.135L241.914 290.2H228.571V293.349H242.632L260.853 284.33H279.074L315.803 265.861L328.428 253.406V248.967L313.938 263.284Z" fill="#0ec2f3"/>
<path d="M314.512 253.978L296.434 262.998H278.213L260.135 272.017H228.571V275.167H260.853L279.074 266.147H297.151L315.372 257.128H328.428V253.978H314.512Z" fill="#0ec2f3"/>
<g opacity="0.3">
<path opacity="0.3" d="M314.512 253.978L296.434 262.998H278.213L260.135 272.017H228.571V275.167H260.853L279.074 266.147H297.151L315.372 257.128H328.428V253.978H314.512Z" fill="white"/>
</g>
<path d="M236.175 119.831H224.698L224.554 151.041H236.032L236.175 119.831Z" fill="#0ec2f3"/>
<path opacity="0.6" d="M236.175 119.831H224.698L224.554 151.041H236.032L236.175 119.831Z" fill="white"/>
<path d="M332.446 65.8569H320.825V151.184H332.446V65.8569Z" fill="#0ec2f3"/>
<g opacity="0.1">
<path opacity="0.1" d="M332.446 65.8569H320.825V151.184H332.446V65.8569Z" fill="white"/>
</g>
<path d="M255.832 119.115H244.354L243.78 151.041H255.258L255.832 119.115Z" fill="#0ec2f3"/>
<path opacity="0.7" d="M255.832 119.115H244.354L243.78 151.041H255.258L255.832 119.115Z" fill="white"/>
<path d="M313.22 84.4686H301.599V151.041H313.077L313.22 84.4686Z" fill="#0ec2f3"/>
<path opacity="0.3" d="M313.22 84.4686H301.599V151.041H313.077L313.22 84.4686Z" fill="white"/>
<path d="M293.565 87.1888H281.943L282.23 151.041H293.852L293.565 87.1888Z" fill="#0ec2f3"/>
<path opacity="0.4" d="M293.565 87.1888H281.943L282.23 151.041H293.852L293.565 87.1888Z" fill="white"/>
<path d="M273.909 88.6205H262.431L263.005 151.041H274.626L273.909 88.6205Z" fill="#0ec2f3"/>
<g opacity="0.3">
<path opacity="0.3" d="M273.909 88.6205H262.431L263.005 151.041H274.626L273.909 88.6205Z" fill="white"/>
</g>
<g opacity="0.1">
<path opacity="0.1" d="M224.698 122.122L244.64 141.306L264.296 101.935L279.217 87.1888L296.865 104.942L329.29 72.5858L332.446 75.7355V64.2821H321.112L324.268 67.4318L296.865 94.6335L279.217 76.8808L258.414 97.64L242.632 129.137L224.841 112.1L224.698 122.122Z" fill="black"/>
</g>
<path d="M224.841 118.542L243.923 136.868L263.722 97.4968L278.5 82.6074L296.291 100.36L320.251 76.4513L323.407 79.6009L331.872 59.8439L311.929 68.1476L315.229 71.2972L296.291 90.1953L278.5 72.4426L257.697 93.2018L241.915 124.699L224.841 108.521V118.542Z" fill="#263238"/>
<path d="M71.8984 163.067V171.657C77.4939 172.087 82.5154 174.378 86.5327 177.67L92.702 171.514C87.1066 166.647 79.7894 163.497 71.8984 163.067Z" fill="#0ec2f3"/>
<path opacity="0.3" d="M71.8984 163.067V171.657C77.4939 172.087 82.5154 174.378 86.5327 177.67L92.702 171.514C87.1066 166.647 79.7894 163.497 71.8984 163.067Z" fill="white"/>
<path d="M67.7379 223.198C55.1123 222.195 45.0692 212.174 43.9214 199.432H35.313C36.3173 216.755 50.2342 230.785 67.7379 231.788V223.198Z" fill="#0ec2f3"/>
<path opacity="0.7" d="M67.7379 223.198C55.1123 222.195 45.0692 212.174 43.9214 199.432H35.313C36.3173 216.755 50.2342 230.785 67.7379 231.788V223.198Z" fill="white"/>
<path d="M43.9214 195.423C44.9257 182.824 54.9688 172.803 67.7379 171.657V163.067C50.3777 164.07 36.3173 177.957 35.313 195.423H43.9214Z" fill="#0ec2f3"/>
<path opacity="0.2" d="M43.9214 195.423C44.9257 182.824 54.9688 172.803 67.7379 171.657V163.067C50.3777 164.07 36.3173 177.957 35.313 195.423H43.9214Z" fill="black"/>
<path d="M95.715 174.521L89.5456 180.677C93.4194 185.258 95.715 190.985 95.715 197.427C95.715 211.028 85.2414 222.195 71.8984 223.198V231.788C89.976 230.642 104.323 215.753 104.323 197.284C104.323 188.694 101.023 180.677 95.715 174.521Z" fill="#0ec2f3"/>
<path d="M299.16 453.983H293.421C293.421 450.833 291.556 448.542 289.978 448.542H266.879C265.3 448.542 263.435 450.833 263.435 453.983H257.696C257.696 447.827 261.857 442.816 266.879 442.816H289.978C294.999 442.816 299.16 447.827 299.16 453.983Z" fill="#263238"/>
<path d="M323.551 517.978L233.736 518.408C229.289 518.408 225.702 514.829 225.702 510.391L225.415 456.989C225.415 454.412 227.424 452.408 230.006 452.265L326.563 451.835C329.146 451.835 331.155 453.84 331.298 456.417L331.585 509.818C331.585 514.399 327.998 517.978 323.551 517.978Z" fill="#263238"/>
<path opacity="0.2" d="M331.585 509.961C331.585 514.399 327.998 517.978 323.551 517.978L243.923 518.408C239.476 518.408 235.889 514.829 235.889 510.391L235.745 468.586H238.471C237.324 467.011 236.606 465.15 236.176 463.145C235.458 460.282 234.598 457.419 233.306 454.699L232.732 453.553C233.593 452.837 234.598 452.265 235.889 452.265L326.851 451.835C329.433 451.835 331.585 453.84 331.585 456.417V509.961Z" fill="white"/>
<path d="M286.821 517.835H284.526L284.956 472.738H287.252L286.821 517.835Z" fill="#263238"/>
<path opacity="0.2" d="M325.846 451.835L230.724 452.265C227.711 452.265 225.415 454.412 225.415 457.132V464.291C225.415 471.735 232.302 477.748 240.623 477.605L316.233 477.319C324.555 477.319 331.298 471.163 331.298 463.861V456.703C331.298 453.983 328.859 451.835 325.846 451.835Z" fill="black"/>
<path d="M326.42 451.979L240.479 452.408C237.753 452.408 231.871 452.408 231.871 452.408L233.162 454.842C234.597 457.562 235.458 460.425 236.032 463.289C237.467 469.874 242.919 474.742 249.375 474.599L317.668 474.312C325.129 474.312 331.298 467.441 331.298 459.137V457.132C331.298 454.269 329.146 451.979 326.42 451.979Z" fill="#263238"/>
<path opacity="0.3" d="M326.42 451.979L240.479 452.408C237.753 452.408 231.871 452.408 231.871 452.408L233.162 454.842C234.597 457.562 235.458 460.425 236.032 463.289C237.467 469.874 242.919 474.742 249.375 474.599L317.668 474.312C325.129 474.312 331.298 467.441 331.298 459.137V457.132C331.298 454.269 329.146 451.979 326.42 451.979Z" fill="white"/>
<path d="M265.014 482.902H260.423C258.844 482.902 257.553 481.614 257.553 480.182V469.445C257.553 467.87 258.844 466.581 260.279 466.581H264.87C266.449 466.581 267.74 467.87 267.74 469.301V480.039C267.74 481.614 266.592 482.902 265.014 482.902Z" fill="white"/>
<path d="M309.777 482.759H305.186C303.608 482.759 302.316 481.471 302.316 480.039V469.302C302.316 467.727 303.608 466.438 305.042 466.438H309.634C311.212 466.438 312.503 467.727 312.503 469.158V479.896C312.646 481.614 311.355 482.759 309.777 482.759Z" fill="white"/>
<path opacity="0.2" d="M238.471 468.586H225.702V467.727V465.722V456.989C225.702 456.273 225.846 455.414 226.276 454.842C226.42 454.699 226.42 454.555 226.563 454.269C227.137 453.41 228.141 452.837 229.289 452.408C229.576 452.265 230.006 452.265 230.437 452.265H232.158L232.732 453.553L233.306 454.699C234.741 457.419 235.602 460.282 236.176 463.145C236.606 465.293 237.323 467.011 238.471 468.586Z" fill="black"/>
<path d="M357.697 313.393L351.958 410.603L353.536 489.488L363.292 490.49C363.292 490.49 370.753 462.286 372.475 434.083C372.905 427.497 371.327 419.909 372.044 414.755C372.618 410.174 374.483 407.454 377.066 397.145C380.079 384.833 383.235 368.226 382.518 355.341C382.518 355.341 395.861 341.454 392.417 322.699L357.697 313.393Z" fill="#FFC3BD"/>
<path d="M352.962 504.664L360.28 504.378L363.006 492.781L365.014 481.901L354.254 479.896L353.536 493.068L352.962 504.664Z" fill="#FFC3BD"/>
<path d="M341.915 518.694C343.063 517.835 344.497 517.12 345.932 516.69C345.932 516.69 350.236 512.681 352.819 500.369L358.414 499.224C360.28 498.794 362.288 499.653 363.292 501.371C363.436 501.658 363.579 501.801 363.579 502.087C363.866 503.376 364.01 504.807 364.01 506.096C364.153 510.677 364.01 515.258 363.579 519.84H362.575V511.25C362.575 508.386 360.136 511.679 359.419 514.829C358.701 517.979 357.123 521.271 350.667 521.128C343.063 520.842 339.906 520.412 341.915 518.694Z" fill="#263238"/>
<path d="M353.823 495.931C353.823 495.931 352.388 501.657 350.38 507.814C349.519 511.106 347.941 514.113 345.932 516.69C345.932 516.69 350.667 517.692 352.962 514.542C355.114 511.393 358.414 500.512 363.292 501.228C363.005 500.369 362.432 499.653 362.001 498.937C360.997 497.792 353.823 495.931 353.823 495.931Z" fill="#FFC3BD"/>
<path d="M377.209 317.688L399.591 412.464L423.695 487.627L433.307 485.766C433.307 485.766 432.447 456.703 425.847 429.072C424.412 422.772 420.682 415.9 419.964 410.746C419.247 406.165 420.251 403.015 419.677 392.564C419.104 379.822 417.382 363.072 412.934 350.902C412.934 350.902 421.686 333.866 413.078 316.686L377.209 317.688Z" fill="#FFC3BD"/>
<path d="M427.281 502.373L434.312 499.939L433.594 488.057L432.446 477.033L421.542 478.321L424.555 491.063L427.281 502.373Z" fill="#FFC3BD"/>
<path d="M420.825 518.98C421.686 517.835 422.834 516.833 423.982 515.974C423.982 515.974 426.995 510.963 425.847 498.364L430.869 495.644C432.59 494.785 434.742 494.928 436.177 496.36C436.32 496.503 436.607 496.79 436.751 496.933C437.325 498.078 437.899 499.367 438.329 500.655C439.764 504.95 440.912 509.388 441.772 513.97L440.768 514.256L438.186 505.952C437.325 503.089 436.034 507.098 436.177 510.247C436.32 513.397 435.89 517.119 429.577 518.837C422.547 520.698 419.391 521.128 420.825 518.98Z" fill="#263238"/>
<path d="M425.703 493.64C425.703 493.64 425.99 499.51 425.703 506.096C425.703 509.388 425.129 512.824 423.981 515.974C423.981 515.974 428.859 515.545 430.007 511.965C431.155 508.243 431.298 496.933 436.177 496.217C435.603 495.501 435.029 494.929 434.311 494.356C433.164 493.497 425.703 493.64 425.703 493.64Z" fill="#FFC3BD"/>
<path d="M305.043 238.803L309.921 243.67C314.225 244.386 314.942 250.542 314.942 250.542C315.947 251.115 323.12 257.128 325.272 258.56L321.112 263.284C318.529 260.278 312.216 255.124 312.216 255.124C312.216 255.124 301.312 250.256 299.447 248.252C297.582 246.247 299.447 239.375 299.447 239.375L305.043 238.803Z" fill="#FFC3BD"/>
<path d="M319.247 252.117C326.42 256.412 337.181 263.141 337.181 263.141C337.181 263.141 342.059 256.412 352.676 244.816C356.98 240.091 360.997 237.085 364.441 235.224V255.84C359.419 260.994 343.781 276.312 337.181 276.312C331.729 276.312 320.538 265.575 314.225 258.846L319.247 252.117Z" fill="#0ec2f3"/>
<path opacity="0.4" d="M353.25 266.291C356.262 259.991 360.423 246.82 360.423 246.82L363.293 251.974L362.145 257.987C359.849 260.278 356.693 263.284 353.25 266.291Z" fill="black"/>
<path d="M414.656 243.67C413.939 253.406 412.073 273.449 406.622 299.505C406.622 299.505 425.99 326.707 419.247 386.694C419.247 386.694 404.039 392.85 352.532 385.406L359.132 299.219C359.132 299.219 356.98 243.527 362.862 237.228C368.171 231.644 390.983 224.486 408.487 233.076C412.647 234.937 415.086 239.232 414.656 243.67Z" fill="#263238"/>
<path d="M390.409 297.644C390.409 297.644 375.057 300.221 364.297 297.644V304.23C364.297 304.23 372.331 305.375 390.409 304.23V297.644Z" fill="#0ec2f3"/>
<path opacity="0.5" d="M390.409 297.644C390.409 297.644 375.057 300.221 364.297 297.644V304.23C364.297 304.23 372.331 305.375 390.409 304.23V297.644Z" fill="black"/>
<path d="M380.079 299.219C380.079 299.219 380.079 296.785 377.353 296.213C375.488 295.783 370.323 295.926 370.179 299.935C370.036 303.944 369.318 306.807 373.192 306.95C377.066 307.236 380.079 307.523 380.079 304.516H373.049L373.192 298.646L380.079 299.219Z" fill="white"/>
<path d="M399.305 209.167C397.296 214.894 394.57 225.059 396.866 230.928C397.439 232.36 396.866 233.935 395.574 234.794C391.127 237.944 383.953 240.521 378.644 239.948C371.758 239.232 373.479 234.365 375.345 231.644C375.775 230.928 376.492 229.926 377.353 229.783C384.096 228.638 385.388 223.484 384.957 218.33L399.305 209.167Z" fill="#FFC3BD"/>
<path opacity="0.2" d="M393.422 212.89L384.813 218.187C384.957 219.475 384.957 220.764 384.813 221.909C387.683 221.909 391.844 220.048 393.422 217.041C394.426 215.323 394.139 213.176 393.422 212.89Z" fill="black"/>
<path d="M387.826 185.831C385.961 189.983 384.096 194.135 381.083 197.571C378.07 201.007 373.622 203.44 369.175 203.011C371.327 201.436 373.766 199.432 374.053 196.855C374.196 194.707 372.905 192.703 372.331 190.555C371.327 186.69 373.192 182.252 376.492 179.961C378.214 178.816 380.366 178.243 382.374 178.673C384.383 179.102 386.105 180.82 386.248 182.968C386.822 183.683 387.252 184.972 387.826 185.831Z" fill="#263238"/>
<path d="M402.03 199.718C399.591 208.594 398.587 213.892 392.992 217.471C384.67 222.911 374.484 216.469 374.197 207.02C374.053 198.43 378.07 185.401 387.683 183.826C394.57 182.538 401.026 187.119 402.317 193.991C402.604 195.853 402.604 197.857 402.03 199.718Z" fill="#FFC3BD"/>
<path d="M381.227 178.673C380.796 179.245 380.509 179.961 380.509 180.82C380.366 183.54 382.661 186.117 385.387 186.547C386.392 186.69 387.683 186.69 388.113 187.692C388.257 188.265 387.97 188.694 387.97 189.267C387.683 190.842 388.831 192.417 390.265 193.276C391.7 194.135 393.422 194.278 395 194.421C393.996 193.419 394.283 191.414 394.57 189.983C394.857 188.551 395.287 187.119 395.431 185.688C395.717 182.968 396.578 179.245 394.283 177.814C391.7 176.239 384.383 174.521 381.227 178.673Z" fill="#263238"/>
<path d="M382.231 198.573C380.796 200.577 379.075 202.295 377.209 203.87C378.214 205.445 380.509 205.445 380.509 205.445L382.231 198.573Z" fill="#ED847E"/>
<path d="M390.983 196.568C391.126 196.568 391.126 196.568 391.27 196.568C391.413 196.425 391.557 196.139 391.413 195.996C390.84 194.707 389.692 193.705 388.257 193.419C387.97 193.419 387.827 193.562 387.683 193.848C387.683 194.135 387.827 194.278 388.114 194.421C389.261 194.707 390.122 195.423 390.553 196.425C390.696 196.425 390.839 196.568 390.983 196.568Z" fill="#263238"/>
<path d="M376.923 192.273C377.066 192.273 377.21 192.273 377.353 192.273C378.357 191.701 379.505 191.558 380.509 191.987C380.796 192.13 380.94 191.987 381.083 191.844C381.227 191.558 381.083 191.414 380.94 191.271C379.649 190.699 378.07 190.842 376.923 191.558C376.779 191.701 376.636 191.987 376.779 192.13C376.779 192.273 376.779 192.273 376.923 192.273Z" fill="#263238"/>
<path d="M396.435 227.922L380.222 239.375L378.787 229.067L376.061 229.783C375.488 229.926 374.914 230.356 374.77 231.072C374.196 233.506 372.331 239.519 372.475 244.816C372.475 244.816 376.205 237.371 379.648 243.241C379.648 243.241 386.535 237.228 390.122 246.391C390.122 246.391 394.426 240.234 396.291 235.939C398.156 231.644 399.448 229.211 399.448 229.211L396.435 227.922Z" fill="white"/>
<path d="M397.726 228.351C397.726 228.351 390.84 256.842 388.831 285.618C386.822 314.538 386.392 323.128 397.87 321.983C409.348 320.694 418.673 319.262 416.952 315.111C415.23 310.959 409.061 301.653 409.491 296.785C409.922 292.061 413.795 254.837 414.369 249.254C414.656 243.67 418.1 231.931 397.726 228.351Z" fill="#0ec2f3"/>
<path opacity="0.3" d="M388.83 285.618C388.974 283.041 389.261 280.464 389.404 278.03L410.638 284.33C410.351 287.479 410.064 290.343 409.778 292.633L395.574 288.768L395.717 287.766L388.687 286.764C388.687 286.191 388.83 285.905 388.83 285.618Z" fill="black"/>
<path d="M377.64 229.354C377.64 229.354 368.314 246.963 367.597 276.312C367.023 305.662 368.314 321.267 362.862 322.126C357.41 322.985 356.262 319.263 356.262 319.263C356.262 319.263 357.84 303.371 357.84 299.505C357.84 295.64 356.119 272.161 357.84 255.267C359.562 238.516 357.84 239.518 360.71 237.657C363.436 235.653 370.036 230.928 377.64 229.354Z" fill="#0ec2f3"/>
<path opacity="0.4" d="M411.069 281.037L405.474 248.824C405.474 248.824 410.065 253.549 413.508 257.128C412.791 263.714 411.93 273.02 411.069 281.037Z" fill="black"/>
<path d="M382.518 268.009C384.527 268.438 395 275.167 395 275.167C395 275.167 400.739 276.885 403.321 277.458L400.452 283.9C398.156 282.898 393.135 281.466 393.135 281.466C393.135 281.466 388.974 281.323 387.54 281.037C387.54 281.037 383.379 282.182 381.083 280.607C378.644 279.033 377.209 275.31 377.209 275.31C377.209 275.31 380.509 267.579 382.518 268.009Z" fill="#FFC3BD"/>
<path d="M400.883 276.026C406.478 277.028 413.508 277.171 413.508 276.312C413.508 274.881 408.2 257.271 405.187 250.829C403.322 246.677 397.583 236.369 403.895 232.79C407.339 230.928 417.956 232.217 422.834 254.122C427.856 276.026 425.56 284.043 420.682 287.479C415.66 291.059 404.182 286.764 397.87 284.043L400.883 276.026Z" fill="#0ec2f3"/>
<path d="M387.683 198.716C387.539 199.432 386.965 200.004 386.535 199.861C386.105 199.718 385.818 199.145 385.961 198.286C386.105 197.57 386.679 196.998 387.109 197.141C387.539 197.284 387.826 198 387.683 198.716Z" fill="#263238"/>
<path d="M379.362 196.998C379.218 197.714 378.644 198.286 378.214 198.143C377.783 198 377.496 197.427 377.64 196.568C377.783 195.852 378.357 195.28 378.788 195.423C379.218 195.709 379.505 196.282 379.362 196.998Z" fill="#263238"/>
<path d="M378.931 195.566L377.209 194.707C377.209 194.707 377.927 196.282 378.931 195.566Z" fill="#263238"/>
<path d="M387.252 197.284L385.531 196.425C385.674 196.425 386.248 198 387.252 197.284Z" fill="#263238"/>
<path d="M382.805 209.74C382.231 209.74 381.801 209.883 381.227 209.74C381.083 209.74 380.94 209.597 380.94 209.453C380.94 209.31 381.083 209.167 381.227 209.167C383.522 209.31 385.961 208.451 387.396 206.59C387.54 206.447 387.683 206.447 387.827 206.59C387.97 206.733 387.97 206.877 387.827 207.02C386.535 208.594 384.814 209.597 382.805 209.74Z" fill="#263238"/>
<path d="M391.413 178.816C389.405 184.686 396.004 201.007 396.865 202.868C397.726 204.729 398.013 206.876 397.152 208.738C397.439 207.735 398.73 207.449 399.735 207.735C399.735 208.594 399.591 209.453 399.591 210.312C397.869 212.174 396.865 215.18 397.152 217.757C402.461 216.325 406.478 213.033 410.495 209.453C411.786 208.308 413.078 207.163 413.938 205.731C414.799 204.299 415.23 202.438 414.656 200.863C413.795 201.579 412.504 201.866 411.643 201.15C410.782 200.434 410.495 199.289 410.495 198.286C410.352 197.141 410.495 196.139 410.495 194.994C410.495 190.842 407.913 185.401 404.326 183.54C400.452 181.536 391.413 178.816 391.413 178.816Z" fill="#263238"/>
<path d="M404.613 209.167C403.035 210.885 400.739 211.744 398.444 211.744C395.431 211.744 394.57 208.881 396.148 206.304C397.583 204.013 400.739 201.436 403.609 202.581C406.335 203.727 406.622 207.02 404.613 209.167Z" fill="#FFC3BD"/>
<path opacity="0.1" d="M334.753 163.041C365.345 132.514 365.345 83.0204 334.753 52.4938C304.161 21.9671 254.562 21.9671 223.97 52.4938C193.378 83.0204 193.378 132.514 223.97 163.041C254.562 193.567 304.161 193.567 334.753 163.041Z" fill="black"/>
<path d="M210.207 237.8C200.594 242.668 176.06 221.622 163.721 210.026C159.848 206.447 160.135 200.147 164.295 196.855C167.882 194.134 172.904 194.564 175.917 197.857C182.803 205.301 194.712 216.898 199.59 214.75C204.611 212.603 202.746 193.275 202.746 193.275L205.759 193.991L213.363 195.996L215.085 196.425C214.941 196.568 219.389 233.076 210.207 237.8Z" fill="#263238"/>
<path d="M244.641 470.447L254.684 492.924L265.731 488.343L255.545 464.004L244.641 470.447Z" fill="#7F3E3B"/>
<path d="M183.521 273.449C183.521 273.449 218.098 352.191 228.285 377.675C237.61 400.868 260.997 472.165 260.997 472.165L246.649 478.75C246.649 478.75 223.263 435.228 216.95 420.195C213.794 412.75 209.346 397.002 205.903 389.701C196.864 371.089 172.043 337.874 162.718 319.406C159.274 312.677 148.514 280.035 148.514 280.035L183.521 273.449Z" fill="#0ec2f3"/>
<path d="M267.309 488.343C267.165 488.343 267.022 488.343 267.022 488.199C267.022 488.056 267.022 487.913 267.022 487.913C267.165 487.77 270.035 484.048 272.044 483.761C272.474 483.761 272.761 483.904 273.048 484.048C273.478 484.334 273.622 484.763 273.478 485.193C273.191 485.909 272.044 486.768 270.609 487.34C269.604 487.913 268.457 488.199 267.309 488.343ZM267.883 487.77C269.891 487.197 272.617 486.195 272.904 485.193C272.904 485.05 272.904 484.907 272.617 484.62C272.474 484.477 272.187 484.334 272.044 484.477C271.9 484.477 271.757 484.477 271.47 484.62C270.178 485.336 268.887 486.338 267.883 487.77Z" fill="#0ec2f3"/>
<path d="M267.166 488.486C267.022 488.486 267.022 488.343 267.022 488.343C267.022 488.2 266.161 485.05 267.166 483.189C267.453 482.616 267.883 482.33 268.457 482.187C269.174 482.043 269.461 482.33 269.605 482.616C270.322 483.761 268.6 487.341 267.596 488.486C267.596 488.486 267.596 488.486 267.453 488.486C267.309 488.343 267.166 488.486 267.166 488.486ZM268.313 482.759C268.026 482.902 267.739 483.189 267.596 483.475C267.166 484.764 267.022 486.195 267.453 487.484C268.457 486.195 269.461 483.475 269.174 482.759C269.031 482.616 268.887 482.473 268.313 482.759Z" fill="#0ec2f3"/>
<path d="M265.444 486.911L253.823 491.492C253.392 491.636 253.105 492.208 253.249 492.638L254.683 503.662C254.827 504.664 255.688 505.38 256.549 505.236C256.692 505.236 256.836 505.236 256.836 505.093C260.996 503.375 264.727 501.657 269.892 499.653C276.061 497.219 274.77 498.651 282.087 495.931C286.534 494.213 285.387 488.629 283.522 489.059C274.626 491.206 272.761 488.772 268.313 486.768C267.453 486.482 266.448 486.482 265.444 486.911Z" fill="#263238"/>
<path opacity="0.2" d="M188.112 360.351C184.669 342.026 174.769 323.557 174.769 323.557L167.596 328.282C173.191 337.731 180.795 349.184 188.112 360.351Z" fill="black"/>
<path d="M139.618 475.887L136.031 500.369L147.653 503.375L152.244 477.462L139.618 475.887Z" fill="#7F3E3B"/>
<path d="M177.782 278.317C177.782 278.317 179.504 374.382 174.482 406.165C171.182 427.497 151.814 490.347 151.814 490.347L135.745 485.909C135.745 485.909 139.762 436.087 142.775 419.623C143.636 414.755 146.218 405.449 146.792 400.581C148.801 383.974 148.37 350.187 146.075 333.579C145.214 326.85 140.91 313.679 139.905 306.95C139.044 301.08 138.327 283.184 138.327 283.184L177.782 278.317Z" fill="#0ec2f3"/>
<path d="M148.944 505.952C148.801 505.952 148.801 505.809 148.801 505.666C148.801 505.523 148.944 505.38 148.944 505.38C149.088 505.38 153.535 504.091 155.257 505.236C155.544 505.38 155.831 505.809 155.974 506.095C156.118 506.525 155.974 506.954 155.687 507.384C155.114 507.813 153.535 507.67 152.244 507.384C151.096 506.954 150.092 506.525 148.944 505.952ZM149.949 505.809C151.957 506.668 154.683 507.527 155.401 506.811C155.544 506.668 155.544 506.525 155.544 506.239C155.544 505.952 155.401 505.809 155.114 505.666C154.97 505.523 154.827 505.523 154.683 505.38C153.105 505.236 151.527 505.38 149.949 505.809Z" fill="#0ec2f3"/>
<path d="M148.801 505.809C148.801 505.666 148.657 505.666 148.801 505.523C148.801 505.38 149.948 502.23 151.67 501.514C152.1 501.228 152.674 501.228 153.248 501.514C153.966 501.8 154.109 502.23 153.966 502.516C153.822 503.948 150.522 505.666 149.088 505.952H148.944C148.944 505.952 148.944 505.952 148.801 505.809ZM152.961 501.944C152.674 501.8 152.244 501.8 151.957 502.087C150.953 502.803 150.092 503.948 149.661 505.236C151.24 504.807 153.535 503.232 153.535 502.516C153.535 502.373 153.535 502.23 153.105 502.087L152.961 501.944Z" fill="#0ec2f3"/>
<path d="M148.37 503.519L136.318 499.939C135.888 499.796 135.458 500.082 135.171 500.512L130.436 510.39C130.006 511.249 130.293 512.395 131.153 512.824C131.297 512.824 131.297 512.967 131.44 512.967C135.745 514.113 139.762 515.115 145.07 516.69C151.383 518.551 149.661 518.98 157.122 521.271C161.57 522.703 163.865 517.406 162 516.547C153.535 512.824 153.248 509.675 150.809 505.38C150.235 504.377 149.374 503.805 148.37 503.519Z" fill="#263238"/>
<path d="M158.844 282.469L140.192 286.477L140.91 291.202L159.848 287.05L158.844 282.469Z" fill="#263238"/>
<path d="M182.947 277.314L175.2 278.889L176.347 283.471L185.099 281.609L182.947 277.314Z" fill="#263238"/>
<path d="M171.9 279.748L162.718 281.609L163.722 286.191L172.904 284.186L171.9 279.748Z" fill="white"/>
<path d="M132.731 157.627C132.731 157.627 140.479 153.618 139.331 163.354L132.875 162.351L132.731 157.627Z" fill="#263238"/>
<path d="M126.849 186.26C130.149 191.414 134.884 200.72 134.166 206.876C134.023 208.308 134.884 209.74 136.175 210.312C141.196 212.46 146.792 212.603 151.957 210.885C158.557 208.594 157.696 205.015 155.4 202.724C154.826 202.152 153.966 201.865 153.105 201.865C146.218 202.295 143.635 196.998 143.062 191.987L126.849 186.26Z" fill="#7F3E3B"/>
<path opacity="0.2" d="M133.449 188.551L143.061 191.844C143.205 193.132 143.492 194.278 143.922 195.566C141.053 196.282 136.749 195.28 134.453 192.703C133.018 191.271 132.875 189.124 133.449 188.551Z" fill="black"/>
<path d="M120.967 178.1C125.414 186.117 127.566 191.128 133.736 193.419C143.062 196.855 151.67 188.265 149.805 179.102C148.083 170.798 141.196 158.915 131.44 159.488C124.41 159.774 119.102 165.644 119.389 172.516C119.532 174.521 119.962 176.382 120.967 178.1Z" fill="#7F3E3B"/>
<path d="M135.027 173.518C135.314 174.234 136.032 174.521 136.462 174.377C136.892 174.234 137.036 173.518 136.749 172.803C136.462 172.087 135.745 171.8 135.314 171.944C134.884 172.23 134.74 172.946 135.027 173.518Z" fill="#263238"/>
<path d="M142.344 169.366C142.631 170.082 143.349 170.369 143.779 170.225C144.209 170.082 144.353 169.366 144.066 168.651C143.779 167.935 143.062 167.648 142.631 167.792C142.057 167.935 142.057 168.651 142.344 169.366Z" fill="#263238"/>
<path d="M140.049 171.657C142.201 172.946 144.496 173.805 146.792 174.521C146.505 176.382 144.353 177.241 144.353 177.241L140.049 171.657Z" fill="#630F0F"/>
<path d="M132.588 172.803C132.588 172.803 132.444 172.803 132.301 172.803C132.014 172.803 131.871 172.516 131.871 172.23C132.014 170.798 132.875 169.653 134.166 168.937C134.453 168.794 134.597 168.937 134.74 169.223C134.884 169.51 134.74 169.653 134.453 169.796C133.449 170.369 132.731 171.371 132.588 172.373C132.875 172.659 132.731 172.803 132.588 172.803Z" fill="#263238"/>
<path d="M144.353 166.074C144.209 166.217 144.066 166.217 143.922 166.074C142.918 165.644 141.77 165.787 140.766 166.36C140.622 166.503 140.335 166.503 140.192 166.217C140.048 166.074 140.048 165.787 140.335 165.644C141.483 164.928 143.061 164.785 144.353 165.215C144.64 165.358 144.64 165.501 144.64 165.787C144.496 165.931 144.496 166.074 144.353 166.074Z" fill="#263238"/>
<path d="M113.506 223.627L137.896 285.189L183.521 273.306L174.482 200.577C173.765 196.568 169.604 194.278 165.874 195.852L117.093 216.039C114.08 217.327 112.502 220.62 113.506 223.627Z" fill="#263238"/>
<path d="M142.344 210.312L144.783 207.163L149.087 206.733L150.809 211.458L151.24 214.894L153.679 217.184L165.73 256.698L163.291 263.714L155.544 259.848L147.796 220.191V216.325L142.488 212.03L142.344 210.312Z" fill="#0ec2f3"/>
<path d="M132.588 205.874L128.427 211.314L139.905 215.896L145.07 208.022L157.696 207.449L154.539 200.434L150.379 199.718L143.492 205.158L132.588 205.874Z" fill="#263238"/>
<path opacity="0.2" d="M132.588 205.874L128.427 211.314L139.905 215.896L145.07 208.022L157.696 207.449L154.539 200.434L150.379 199.718L143.492 205.158L132.588 205.874Z" fill="white"/>
<path d="M139.331 182.252C138.901 182.108 138.47 181.965 138.04 181.822C137.896 181.822 137.896 181.679 137.896 181.536C137.896 181.393 138.183 181.393 138.327 181.393C140.479 182.395 143.062 182.252 145.07 181.106C145.214 180.963 145.357 181.106 145.501 181.249C145.644 181.393 145.501 181.536 145.357 181.679C143.635 182.538 141.483 182.824 139.331 182.252Z" fill="#263238"/>
<path d="M121.684 186.26C121.684 186.26 130.866 184.113 122.688 173.948C122.688 173.948 122.401 172.373 121.971 167.505C121.971 167.505 140.192 157.484 134.453 152.33C128.714 147.176 125.558 155.766 125.558 155.766C125.558 155.766 117.523 152.187 116.949 162.065C116.949 162.065 108.915 165.501 113.793 172.516C113.793 172.516 111.497 177.67 116.662 181.393C116.806 181.393 117.81 186.117 121.684 186.26Z" fill="#263238"/>
<path d="M120.106 187.119C121.828 188.694 124.123 189.553 126.419 189.41C129.432 189.267 130.149 186.26 128.427 183.97C126.993 181.822 123.549 179.245 120.823 180.534C118.097 181.822 117.954 185.115 120.106 187.119Z" fill="#7F3E3B"/>
<path d="M220.737 154.251L51.4751 314.242L61.0457 324.324L230.308 164.333L220.737 154.251Z" fill="#0ec2f3"/>
<path opacity="0.5" d="M220.737 154.251L51.4751 314.242L61.0457 324.324L230.308 164.333L220.737 154.251Z" fill="black"/>
<path d="M157.409 246.247L75.6293 323.557C71.1817 327.709 64.295 327.566 60.1343 323.128L52.5302 315.254C48.3695 310.816 48.513 303.944 52.9606 299.792L134.74 222.482C139.618 217.9 147.366 218.043 152.1 222.911L157.839 229.067C162.574 233.792 162.287 241.666 157.409 246.247Z" fill="#0ec2f3"/>
<path opacity="0.5" d="M157.409 246.247L75.6293 323.557C71.1817 327.709 64.295 327.566 60.1343 323.128L52.5302 315.254C48.3695 310.816 48.513 303.944 52.9606 299.792L134.74 222.482C139.618 217.9 147.366 218.043 152.1 222.911L157.839 229.067C162.574 233.792 162.287 241.666 157.409 246.247Z" fill="white"/>
<path d="M278.787 192.56C277.926 192.56 277.209 192.56 276.348 192.56C253.536 191.987 232.302 182.538 216.663 165.931C184.238 131.857 185.673 77.7396 219.963 45.3839C236.463 29.7787 258.27 21.475 281.083 22.0477C303.895 22.6203 325.129 32.0694 340.767 48.6767C373.192 82.7505 371.758 136.868 337.467 169.223C321.399 184.256 300.595 192.56 278.787 192.56ZM278.5 36.3644C260.279 36.3644 243.062 43.2364 229.719 55.8351C201.312 82.7505 200.02 127.705 226.993 156.052C240.049 169.796 257.697 177.67 276.635 178.243C295.573 178.816 313.651 171.944 327.424 158.915C355.832 132 357.123 87.0455 330.15 58.6984C317.094 44.9544 299.447 37.0802 280.509 36.5075C279.791 36.3644 279.217 36.3644 278.5 36.3644Z" fill="#0ec2f3"/>
<path d="M124.84 261.28L132.014 261.137L137.753 253.692L140.909 254.408C143.061 254.98 144.496 256.698 144.783 258.846C144.927 260.564 144.209 262.282 142.918 263.284L136.749 268.152C135.601 269.154 134.023 269.44 132.588 269.154L131.727 269.011L123.262 268.581L124.84 261.28Z" fill="#7F3E3B"/>
<path d="M125.558 219.905C122.258 215.609 115.945 215.323 112.358 219.189C100.737 231.501 79.5032 255.839 84.2378 265.432C88.8289 274.737 125.558 270.442 125.558 270.442L128.858 258.273C128.858 258.273 109.489 259.848 107.337 254.98C105.185 250.113 116.95 238.373 124.41 231.501C127.854 228.495 128.284 223.484 125.558 219.905Z" fill="#263238"/>
<path opacity="0.5" d="M266.735 41.6617C240.336 47.3883 211.355 77.8829 211.498 110.382C212.646 117.397 213.507 121.835 214.798 127.562C215.228 129.28 217.524 129.28 218.098 127.705C230.723 91.7701 252.962 64.4252 285.53 44.3818C286.965 43.5228 286.391 41.2322 284.669 41.2322C278.644 41.089 274.052 41.2322 266.735 41.6617Z" fill="white"/>
<g opacity="0.5">
<g opacity="0.5">
<path opacity="0.5" d="M343.637 87.4751C328.572 121.978 302.747 153.046 272.187 174.807C271.9 174.95 271.613 175.093 271.183 175.093C267.883 175.093 265.588 175.236 263.005 175.236C261.57 175.236 260.853 173.375 262.001 172.373C291.7 146.317 318.242 114.391 337.467 79.7441C338.759 77.5966 341.915 78.0261 342.632 80.4599C343.063 82.0348 343.35 83.6096 343.924 85.6139C343.924 86.1866 343.924 86.9024 343.637 87.4751Z" fill="white"/>
</g>
</g>
<path d="M213.507 189.983L213.363 190.842L213.22 196.282L205.616 194.278L205.472 190.412L197.868 184.829L198.586 181.679C199.159 179.531 200.881 178.1 203.033 177.813C203.177 177.813 203.32 177.813 203.464 177.813C205.042 177.813 206.477 178.529 207.481 179.675L212.359 185.831C213.507 186.976 213.937 188.551 213.507 189.983Z" fill="#7F3E3B"/>
</g>
<defs>
<clipPath id="clip0">
<rect width="557" height="528" fill="white"/>
</clipPath>
</defs>
</svg>
