<svg xmlns="http://www.w3.org/2000/svg" data-name="Layer 1" viewBox="0 0 64 64"><path d="M57,24H55v5.586l-2,2V26H51v7.586l-.432.432A15.986,15.986,0,1,0,32.271,60H5a1,1,0,0,1-1-1V5A1,1,0,0,1,5,4H37V9a3,3,0,0,0,3,3h5V29h2V11h-.009a.991.991,0,0,0-.284-.707l-8-8A.991.991,0,0,0,38,2.009V2H5A3,3,0,0,0,2,5V59a3,3,0,0,0,3,3H40A15.974,15.974,0,0,0,51.982,35.432L52.414,35H60V33H54.414l2-2H62V29H57ZM39,5.414,43.586,10H40a1,1,0,0,1-1-1ZM54,46a14.046,14.046,0,1,1-4.846-10.568l-2.12,2.12a11.017,11.017,0,1,0,1.414,1.414l2.12-2.12A13.922,13.922,0,0,1,54,46Zm-13.293.707,2.726-2.726A3.947,3.947,0,0,1,44,46a4,4,0,1,1-4-4,3.947,3.947,0,0,1,2.019.567l-2.726,2.726Zm2.764-5.592a6.019,6.019,0,1,0,1.414,1.414l2.14-2.14a9.023,9.023,0,1,1-1.414-1.414Z"/><path d="M11.219 57.625A1 1 0 0 0 12 58h7V56H14.081l2.7-3.375-.012-.01A.98.98 0 0 0 17 52V12A5 5 0 0 0 7 12V52a.98.98 0 0 0 .231.615l-.012.01zM12 55.4L10.081 53h3.838zM15 51H13V20h2zM9 12a3 3 0 0 1 6 0v2H9zm0 4h6v2H9zm0 4h2V51H9zM40 14H22a3 3 0 0 0 0 6H40a3 3 0 0 0 0-6zm0 4H22a1 1 0 0 1 0-2H40a1 1 0 0 1 0 2zM43 25a3 3 0 0 0-3-3H22a3 3 0 0 0 0 6H40A3 3 0 0 0 43 25zM21 25a1 1 0 0 1 1-1H40a1 1 0 0 1 0 2H22A1 1 0 0 1 21 25zM22 12H32a3 3 0 0 0 0-6H22a3 3 0 0 0 0 6zm0-4H32a1 1 0 0 1 0 2H22a1 1 0 0 1 0-2z"/><rect width="2" height="2" x="21" y="56"/><rect width="2" height="2" x="25" y="56"/></svg>