<svg width="40" height="40" viewBox="0 0 40 40" fill="none" xmlns="http://www.w3.org/2000/svg">
<circle cx="20" cy="20" r="20" fill="#9757D7"/>
<path opacity="0.7" d="M27.6832 26.7555L26.0166 25.0885C26.3601 24.5696 26.5629 23.9493 26.5629 23.2817C26.5629 21.472 25.0913 20 23.282 20C21.4717 19.999 20 21.471 20 23.2808C20 25.0905 21.4717 26.5625 23.281 26.5625C23.9484 26.5625 24.5686 26.3597 25.0873 26.016L26.7539 27.683C27.0098 27.939 27.4253 27.939 27.6822 27.683C27.9391 27.427 27.9391 27.0115 27.6832 26.7555ZM23.281 25.25C22.1952 25.25 21.3122 24.3668 21.3122 23.2808C21.3122 22.1947 22.1952 21.3115 23.281 21.3115C24.3668 21.3115 25.2498 22.1947 25.2498 23.2808C25.2498 24.3668 24.3668 25.25 23.281 25.25Z" fill="white"/>
<path d="M12.7815 27.8751C12.4182 27.8751 12.1249 27.5818 12.1249 27.2185V22.6244C12.1249 22.2631 12.4182 21.9688 12.7815 21.9688C13.1447 21.9688 13.4381 22.2631 13.4381 22.6254V27.2195C13.4371 27.5818 13.1437 27.8751 12.7815 27.8751Z" fill="white"/>
<path d="M16.719 27.8751C16.3557 27.8751 16.0624 27.5818 16.0624 27.2185V20C16.0624 19.6377 16.3557 19.3434 16.719 19.3434C17.0822 19.3434 17.3756 19.6377 17.3756 20V27.2185C17.3746 27.5818 17.0812 27.8751 16.719 27.8751Z" fill="white"/>
<path d="M21.3122 16.0625V19.1338C20.82 19.3631 20.3741 19.685 20 20.0719V16.0625C20 15.7012 20.2953 15.4059 20.6566 15.4059C21.0179 15.4059 21.3122 15.7012 21.3122 16.0625Z" fill="white"/>
<path d="M25.2497 12.7815V19.1337C24.8431 18.9369 24.4031 18.7991 23.9375 18.74V12.7815C23.9375 12.4202 24.2328 12.1249 24.5941 12.1249C24.9544 12.1249 25.2497 12.4202 25.2497 12.7815Z" fill="white"/>
</svg>
