<svg width="15" height="11" viewBox="0 0 15 11" fill="none" xmlns="http://www.w3.org/2000/svg">
<path d="M14.5417 2.04172L5.70835 10.8751C5.63012 10.9539 5.52362 10.9983 5.41252 10.9983C5.30142 10.9983 5.19492 10.9539 5.11669 10.8751L0.625019 6.38339C0.546139 6.30515 0.50177 6.19866 0.50177 6.08756C0.50177 5.97646 0.546139 5.86996 0.625019 5.79172L1.20835 5.20839C1.28659 5.12951 1.39309 5.08514 1.50419 5.08514C1.61528 5.08514 1.72178 5.12951 1.80002 5.20839L5.40835 8.81672L13.3667 0.85839C13.5315 0.698571 13.7935 0.698571 13.9584 0.85839L14.5417 1.45006C14.6206 1.52829 14.6649 1.63479 14.6649 1.74589C14.6649 1.85699 14.6206 1.96349 14.5417 2.04172Z" fill="#0ec2f3"/>
</svg>