<svg xmlns="http://www.w3.org/2000/svg" width="32" height="32" enable-background="new 0 0 32 32" viewBox="0 0 32 32"><path fill="#263238" d="M6.674,20.2c-0.115,0-0.23-0.039-0.324-0.12c-0.21-0.179-0.235-0.495-0.057-0.705l0.248-0.291
						c2.065-2.067,5.139-2.525,7.676-1.163c0.243,0.13,0.335,0.433,0.204,0.677c-0.13,0.244-0.435,0.334-0.677,0.204
						c-2.145-1.15-4.745-0.764-6.469,0.96l-0.221,0.262C6.955,20.14,6.815,20.2,6.674,20.2z"/><path fill="#263238" d="M21.403,22h-7.395c-0.276,0-0.5-0.224-0.5-0.5s0.224-0.5,0.5-0.5h6.861
						c-0.04-0.273-0.13-0.607-0.329-0.918C20.08,19.364,19.184,19,17.876,19c-0.001,0-0.002,0-0.004,0H14.14
						c-0.276,0-0.5-0.224-0.5-0.5s0.224-0.5,0.5-0.5h3.732c0.001,0,0.003,0,0.005,0c1.67,0,2.85,0.519,3.506,1.542
						c0.521,0.812,0.521,1.675,0.521,1.958C21.903,21.776,21.68,22,21.403,22z"/><path fill="#263238" d="M29.066,18.249c-0.972-0.532-2.37-0.419-3.961,0.326l-2.779,1.443l-1.153,0.208
					c0.151,0.369,0.205,0.722,0.222,0.976l1.184-0.214c0.05-0.009,0.097-0.025,0.142-0.048l2.828-1.469
					c1.257-0.588,2.364-0.714,3.038-0.346c0.37,0.203,0.618,0.558,0.742,1.058l-5.186,3.056L18.8,24.742
					C18.191,24.913,17.563,25,16.93,25h-4.948c-0.662,0-1.488,0.296-1.998,0.711l-0.715,0.336c-0.021,0.009-0.033,0.026-0.052,0.038
					l0.742,0.743l0.509-0.239c0.042-0.02,0.081-0.045,0.116-0.076C10.902,26.235,11.542,26,11.981,26h4.948
					c0.724,0,1.444-0.1,2.142-0.295l5.405-1.521c0.041-0.012,0.081-0.029,0.118-0.051l5.542-3.266
					c0.173-0.102,0.268-0.297,0.242-0.496C30.215,19.121,29.575,18.527,29.066,18.249z"/><path fill="#263238" d="M8.217 30.854c-.194.194-.512.195-.707 0l0 0c-.195-.196-.194-.513 0-.707l2.882-2.887-5.657-5.657-2.881 2.886c-.195.195-.512.195-.707 0l0 0c-.195-.194-.195-.512 0-.707l3.187-3.191c.195-.195.575-.229.771-.033l6.364 6.364c.195.195.133.544-.063.739L8.217 30.854zM17.578 29h-1.097c-.276 0-.5-.224-.5-.5s.224-.5.5-.5h1.097c4.016 0 7.954-1.382 11.091-3.891.217-.171.531-.136.703.078.172.216.138.53-.078.703C25.98 27.541 21.82 29 17.578 29z"/><circle cx="14.481" cy="28.5" r=".5" fill="#263238"/><path fill="#263238" d="M19,17.002c-2.194,0-4.244-0.876-5.771-2.468c-0.127-0.132-0.171-0.324-0.115-0.499
			c0.244-0.762,0.84-1.368,1.557-1.583l2.632-1.136c0.14-0.06,0.304-0.053,0.438,0.021l0.535,0.294c0.443,0.243,1.006,0.245,1.447,0
			l0.536-0.296c0.134-0.074,0.296-0.083,0.438-0.021l2.746,1.18c0.617,0.177,1.206,0.791,1.443,1.543
			c0.056,0.174,0.011,0.365-0.116,0.497C23.244,16.125,21.194,17.002,19,17.002z M14.184,14.073
			c1.308,1.247,3.006,1.929,4.816,1.929c1.812,0,3.51-0.683,4.819-1.931c-0.169-0.31-0.438-0.557-0.714-0.638l-2.578-1.104
			l-0.322,0.178c-0.736,0.406-1.673,0.405-2.411,0l-0.32-0.176l-2.462,1.059C14.659,13.499,14.362,13.754,14.184,14.073z"/><path fill="#263238" d="M12.253,12.75c-0.187,0-0.364-0.104-0.45-0.283C11.27,11.363,11,10.197,11,9
									c0-4.411,3.589-8,8-8s8,3.589,8,8c0,1.215-0.266,2.381-0.787,3.467c-0.121,0.249-0.418,0.354-0.668,0.233
									c-0.249-0.12-0.354-0.419-0.234-0.667C25.768,11.083,26,10.063,26,9c0-3.859-3.141-7-7-7s-7,3.141-7,7
									c0,1.046,0.236,2.066,0.703,3.033c0.119,0.248,0.016,0.547-0.233,0.667C12.4,12.734,12.326,12.75,12.253,12.75z"/><path fill="#263238" d="M20.5,12.29c-0.276,0-0.5-0.224-0.5-0.5v-0.8c0-0.157,0.073-0.304,0.198-0.398
									C20.708,10.206,21,9.626,21,9.001v-1c0-1.55-0.097-2.5-2-2.5s-2,0.95-2,2.5v1c0,0.625,0.292,1.205,0.802,1.591
									C17.927,10.686,18,10.833,18,10.99v0.8c0,0.276-0.224,0.5-0.5,0.5s-0.5-0.224-0.5-0.5v-0.564c-0.639-0.571-1-1.369-1-2.225
									v-1c0-1.309,0-3.5,3-3.5s3,2.191,3,3.5v1c0,0.856-0.361,1.653-1,2.225v0.564C21,12.066,20.776,12.29,20.5,12.29z"/></svg>