<svg width="672" height="500" viewBox="0 0 672 500" fill="none" xmlns="http://www.w3.org/2000/svg">
<g clip-path="url(#clip0)">
<path d="M318.528 379.495H59.0016C54.8352 379.495 51.3408 376.006 51.3408 371.846V7.64895C51.3408 3.489 54.8352 0 59.0016 0H318.528C322.694 0 326.189 3.489 326.189 7.64895V371.846C326.189 376.141 322.829 379.495 318.528 379.495ZM59.0016 0.402577C54.9696 0.402577 51.6096 3.62319 51.6096 7.78315V371.981C51.6096 376.006 54.8352 379.361 59.0016 379.361H318.528C322.56 379.361 325.92 376.141 325.92 371.981V7.64895C325.92 3.62319 322.694 0.268384 318.528 0.268384H59.0016V0.402577Z" fill="#C6C6C6"/>
<path d="M609.235 379.495H349.709C345.542 379.495 342.048 376.006 342.048 371.846V7.64895C342.048 3.489 345.542 0 349.709 0H609.235C613.401 0 616.896 3.489 616.896 7.64895V371.846C616.896 376.141 613.536 379.495 609.235 379.495ZM349.709 0.402577C345.677 0.402577 342.317 3.62319 342.317 7.78315V371.981C342.317 376.006 345.542 379.361 349.709 379.361H609.235C613.267 379.361 616.627 376.141 616.627 371.981V7.64895C616.627 3.62319 613.401 0.268384 609.235 0.268384H349.709V0.402577Z" fill="#C6C6C6"/>
<path d="M413.28 222.356H90.9888C82.3872 222.356 75.3984 215.379 75.3984 206.79V38.9158C75.3984 30.3275 82.3872 23.3495 90.9888 23.3495H413.28C421.882 23.3495 428.87 30.3275 428.87 38.9158V206.924C428.87 215.379 421.747 222.356 413.28 222.356Z" fill="#F0F0F0"/>
<path d="M90.9887 218.465C84.5375 218.465 79.2959 213.231 79.2959 206.79V38.9158C79.2959 32.4746 84.5375 27.2411 90.9887 27.2411H413.28C419.731 27.2411 424.973 32.4746 424.973 38.9158V206.924C424.973 213.366 419.731 218.599 413.28 218.599H90.9887V218.465Z" fill="#FAFAFA"/>
<path d="M104.025 45.7595C106.623 45.7595 108.729 43.6567 108.729 41.0628C108.729 38.4689 106.623 36.3661 104.025 36.3661C101.427 36.3661 99.3213 38.4689 99.3213 41.0628C99.3213 43.6567 101.427 45.7595 104.025 45.7595Z" fill="#EBEBEB"/>
<path d="M122.438 45.7595C125.036 45.7595 127.142 43.6567 127.142 41.0628C127.142 38.4689 125.036 36.3661 122.438 36.3661C119.84 36.3661 117.734 38.4689 117.734 41.0628C117.734 43.6567 119.84 45.7595 122.438 45.7595Z" fill="#EBEBEB"/>
<path d="M140.851 45.7595C143.449 45.7595 145.555 43.6567 145.555 41.0628C145.555 38.4689 143.449 36.3661 140.851 36.3661C138.254 36.3661 136.147 38.4689 136.147 41.0628C136.147 43.6567 138.254 45.7595 140.851 45.7595Z" fill="#EBEBEB"/>
<path d="M568.378 209.206H383.175C371.482 209.206 361.806 199.544 361.806 187.869V74.0741C361.806 62.3994 371.482 52.7375 383.175 52.7375H568.513C580.206 52.7375 589.882 62.3994 589.882 74.0741V187.869C589.748 199.544 580.206 209.206 568.378 209.206Z" fill="white"/>
<path d="M568.378 210.011H383.175C370.944 210.011 360.864 200.081 360.864 187.735V74.0741C360.864 61.8626 370.81 51.7982 383.175 51.7982H568.512C580.743 51.7982 590.823 61.7284 590.823 74.0741V187.869C590.688 200.081 580.743 210.011 568.378 210.011ZM383.175 53.5427C371.885 53.5427 362.746 62.6678 362.746 73.9399V187.869C362.746 199.141 371.885 208.266 383.175 208.266H568.512C579.802 208.266 588.941 199.141 588.941 187.869V74.0741C588.941 62.802 579.802 53.6769 568.512 53.6769H383.175V53.5427Z" fill="#E0E0E0"/>
<path d="M451.181 189.614C440.832 185.319 431.827 178.341 425.107 169.485L432.365 163.983C447.015 183.172 473.223 190.955 496.608 181.428C510.586 175.658 520.935 164.922 526.311 152.04L534.643 155.529C521.069 187.735 483.437 203.167 451.181 189.614Z" fill="#E0E0E0"/>
<path d="M534.644 155.529L526.311 152.04C531.687 139.157 532.225 124.262 526.445 110.306C520.666 96.35 509.914 86.0172 497.012 80.6495L500.506 72.1954C516.097 78.7709 528.461 91.1165 534.913 106.817C541.229 122.383 541.095 139.962 534.644 155.529Z" fill="#EBEBEB"/>
<path d="M425.108 169.485C411.399 151.369 408.308 127.348 417.044 106.414C430.484 74.2083 468.25 58.7762 500.506 72.1954L497.012 80.6495C484.109 75.2819 469.191 74.7451 455.213 80.5153C427.258 91.9217 413.953 123.859 425.377 151.637C427.258 156.2 429.677 160.36 432.5 163.983L425.108 169.485Z" fill="#F5F5F5"/>
<path d="M336 500C479.926 500 596.602 493.211 596.602 484.836C596.602 476.462 479.926 469.673 336 469.673C192.074 469.673 75.3984 476.462 75.3984 484.836C75.3984 493.211 192.074 500 336 500Z" fill="white"/>
<g opacity="0.3">
<path opacity="0.3" d="M547.68 406.602H126.336C119.347 406.602 113.702 400.966 113.702 393.988V73.8057C113.702 66.8277 119.347 61.1917 126.336 61.1917H547.68C554.668 61.1917 560.313 66.8277 560.313 73.8057V394.122C560.313 400.966 554.668 406.602 547.68 406.602Z" fill="white"/>
<path opacity="0.4" d="M547.68 406.602H126.336C119.347 406.602 113.702 400.966 113.702 393.988V73.8057C113.702 66.8277 119.347 61.1917 126.336 61.1917H547.68C554.668 61.1917 560.313 66.8277 560.313 73.8057V394.122C560.313 400.966 554.668 406.602 547.68 406.602Z" fill="#0ec2f3"/>
</g>
<path opacity="0.1" d="M541.095 233.897H132.922C131.712 233.897 130.771 232.958 130.771 231.75V97.9603C130.771 96.7526 131.712 95.8132 132.922 95.8132H541.095C542.304 95.8132 543.245 96.7526 543.245 97.9603V231.75C543.38 232.958 542.304 233.897 541.095 233.897Z" fill="#0ec2f3"/>
<path d="M538.003 230.676H136.147C134.938 230.676 133.997 229.737 133.997 228.529V94.8739C133.997 93.6661 134.938 92.7268 136.147 92.7268H538.003C539.213 92.7268 540.154 93.6661 540.154 94.8739V228.529C540.154 229.737 539.213 230.676 538.003 230.676Z" fill="white"/>
<path opacity="0.1" d="M166.657 99.7048H163.969V223.564H166.657V99.7048Z" fill="#0ec2f3"/>
<path opacity="0.1" d="M200.928 99.7048H198.24V223.564H200.928V99.7048Z" fill="#0ec2f3"/>
<path opacity="0.1" d="M235.335 99.7048H232.647V223.564H235.335V99.7048Z" fill="#0ec2f3"/>
<path opacity="0.1" d="M269.607 99.7048H266.919V223.564H269.607V99.7048Z" fill="#0ec2f3"/>
<path opacity="0.1" d="M304.013 99.7048H301.325V223.564H304.013V99.7048Z" fill="#0ec2f3"/>
<path opacity="0.1" d="M338.419 99.7048H335.731V223.564H338.419V99.7048Z" fill="#0ec2f3"/>
<path opacity="0.1" d="M372.692 99.7048H370.004V223.564H372.692V99.7048Z" fill="#0ec2f3"/>
<path opacity="0.1" d="M407.098 99.7048H404.41V223.564H407.098V99.7048Z" fill="#0ec2f3"/>
<path opacity="0.1" d="M441.371 99.7048H438.683V223.564H441.371V99.7048Z" fill="#0ec2f3"/>
<path opacity="0.1" d="M475.777 99.7048H473.089V223.564H475.777V99.7048Z" fill="#0ec2f3"/>
<path opacity="0.1" d="M510.183 99.7048H507.495V223.564H510.183V99.7048Z" fill="#0ec2f3"/>
<path d="M383.309 194.579C383.175 194.579 382.906 194.579 382.771 194.445L315.975 133.119L245.818 168.68C245.683 168.814 245.415 168.814 245.28 168.68L219.341 158.615L145.421 186.661C145.018 186.796 144.614 186.661 144.48 186.259C144.346 185.856 144.48 185.454 144.883 185.319L219.072 157.273C219.206 157.273 219.475 157.273 219.61 157.273L245.415 167.204L315.84 131.508C316.109 131.374 316.378 131.374 316.647 131.643L383.578 193.103L464.755 173.645L528.327 117.821C528.595 117.552 529.133 117.552 529.267 117.821C529.536 118.089 529.536 118.626 529.267 118.76L465.562 174.584C465.427 174.718 465.427 174.718 465.293 174.718L383.578 194.579C383.443 194.579 383.443 194.579 383.309 194.579Z" fill="#E0E0E0"/>
<path d="M145.152 203.435C145.017 203.435 144.883 203.435 144.749 203.301C144.48 203.033 144.345 202.63 144.614 202.362L177.408 158.347C177.542 158.078 177.946 157.944 178.214 158.078L256.032 187.198L361.939 140.499C362.208 140.365 362.342 140.365 362.611 140.499L401.99 164.922L429.408 146.269C429.542 146.269 429.677 146.135 429.677 146.135L528.729 136.339C529.133 136.339 529.402 136.608 529.536 137.01C529.536 137.413 529.267 137.681 528.864 137.815L429.945 147.611L402.259 166.398C401.99 166.532 401.721 166.532 401.453 166.398L361.939 141.975L256.166 188.674C256.032 188.808 255.763 188.808 255.629 188.674L178.214 159.689L145.824 203.167C145.689 203.301 145.421 203.435 145.152 203.435Z" fill="#0ec2f3"/>
<path opacity="0.2" d="M525.773 384.058H416.506C406.829 384.058 398.899 376.275 398.899 366.479V271.336C398.899 261.675 406.695 253.757 416.506 253.757H525.773C535.45 253.757 543.379 261.54 543.379 271.336V366.479C543.379 376.141 535.45 384.058 525.773 384.058Z" fill="#0ec2f3"/>
<path opacity="0.4" d="M291.11 367.418L272.294 366.076L269.74 406.602H291.11V367.418Z" fill="#0ec2f3"/>
<path d="M406.963 480.139H297.695C288.019 480.139 279.551 472.356 278.879 462.56L272.159 367.418C271.487 357.756 278.745 349.839 288.422 349.839H397.823C407.5 349.839 415.967 357.622 416.639 367.418L423.359 462.56C424.031 472.356 416.639 480.139 406.963 480.139Z" fill="#0ec2f3"/>
<path opacity="0.8" d="M397.824 349.974H288.556C278.88 349.974 271.622 357.757 272.294 367.553L277.67 444.579H422.016L416.64 367.553C415.968 357.757 407.5 349.974 397.824 349.974Z" fill="white"/>
<path d="M349.037 433.306C329.146 433.306 311.808 417.069 310.33 397.209C309.658 387.547 312.749 378.422 319.2 371.578C325.517 364.734 334.387 360.977 344.064 360.977C363.955 360.977 381.293 377.214 382.771 397.075C383.443 406.736 380.352 415.861 373.901 422.705C367.584 429.549 358.714 433.306 349.037 433.306ZM344.064 362.453C334.79 362.453 326.323 366.076 320.275 372.517C314.227 379.093 311.136 387.815 311.808 397.075C313.152 416.264 329.818 431.83 349.037 431.83C358.31 431.83 366.778 428.207 372.826 421.766C378.874 415.19 381.965 406.468 381.293 397.209C379.949 378.153 363.283 362.453 344.064 362.453Z" fill="white"/>
<path d="M366.105 397.209L333.849 379.361L336.402 415.056L366.105 397.209Z" fill="#0ec2f3"/>
<path d="M484.243 474.906H473.491L473.626 450.08H484.378L484.243 474.906Z" fill="#B55B52"/>
<path d="M548.486 474.906H537.868L533.567 450.08H544.319L548.486 474.906Z" fill="#B55B52"/>
<path d="M537.197 473.698H549.293C549.696 473.698 550.099 473.967 550.234 474.369L551.846 483.897C551.981 484.836 551.174 485.775 550.234 485.775C546.067 485.641 544.051 485.507 538.675 485.507C535.45 485.507 526.579 485.91 522.144 485.91C517.709 485.91 517.306 481.481 519.187 481.079C527.52 479.334 532.762 476.785 535.584 474.369C535.853 473.832 536.525 473.698 537.197 473.698Z" fill="#263238"/>
<path d="M473.625 473.698H485.318C485.721 473.698 486.124 473.967 486.259 474.369L487.871 483.897C488.006 484.836 487.199 485.775 486.259 485.775C482.092 485.641 475.91 485.507 470.668 485.507C464.486 485.507 460.992 485.91 453.734 485.91C449.299 485.91 448.358 481.481 450.24 481.079C458.707 479.2 463.545 479.066 471.071 474.638C471.743 473.967 472.684 473.698 473.625 473.698Z" fill="#263238"/>
<path d="M483.167 141.707L468.518 137.413C468.518 137.413 452.927 176.328 449.164 180.354C443.923 185.856 438.681 197.531 430.214 207.193C430.751 208.937 433.574 212.829 435.187 213.365C446.611 205.582 460.723 192.566 463.679 186.259C470.131 171.9 483.167 141.707 483.167 141.707Z" fill="#B55B52"/>
<path d="M487.603 134.997C491.769 144.256 479.404 163.849 479.404 163.849L457.497 154.321C457.497 154.321 461.529 139.694 468.249 127.885C474.969 115.808 483.033 124.799 487.603 134.997Z" fill="#0ec2f3"/>
<path opacity="0.4" d="M487.603 134.997C491.769 144.256 479.404 163.849 479.404 163.849L457.497 154.321C457.497 154.321 461.529 139.694 468.249 127.885C474.969 115.808 483.033 124.799 487.603 134.997Z" fill="white"/>
<path d="M433.574 204.375L422.554 209.876L431.424 220.478C431.424 220.478 433.978 218.733 436.934 211.487L433.574 204.375Z" fill="#B55B52"/>
<path d="M418.387 222.49L420.671 224.369C422.284 225.711 424.569 225.711 426.047 224.503L431.423 220.343L422.553 209.742L417.58 216.586C416.236 218.465 416.639 221.014 418.387 222.49Z" fill="#B55B52"/>
<path d="M436.665 309.044L332.102 340.445C322.829 343.263 313.017 338.03 310.195 328.771L282.643 237.654C279.821 228.395 285.062 218.599 294.336 215.781L398.899 184.38C408.173 181.562 417.984 186.795 420.806 196.055L448.358 287.171C451.181 296.43 445.939 306.226 436.665 309.044Z" fill="white"/>
<path opacity="0.5" d="M436.665 309.044L332.102 340.445C322.829 343.263 313.017 338.03 310.195 328.771L282.643 237.654C279.821 228.395 285.062 218.599 294.336 215.781L398.899 184.38C408.173 181.562 417.984 186.795 420.806 196.055L448.358 287.171C451.181 296.43 445.939 306.226 436.665 309.044Z" fill="#0ec2f3"/>
<path d="M365.567 262.48L322.559 282.474C314.092 264.493 317.99 243.022 331.967 228.932C348.23 212.695 373.9 210.547 392.716 223.564L365.567 262.48Z" fill="#0ec2f3"/>
<path d="M393.388 227.456C394.732 228.529 395.942 229.603 397.152 230.81C405.484 239.13 410.188 250.402 410.188 262.346C410.188 274.289 405.619 285.561 397.152 293.881C388.819 302.201 377.529 306.897 365.568 306.897C353.606 306.897 342.316 302.335 333.984 293.881C330.892 290.794 328.339 287.305 326.323 283.548L366.777 264.761L367.449 264.493L367.852 263.956L393.388 227.456ZM392.851 223.698L365.568 262.48L322.56 282.474C324.844 287.44 328.07 292.002 331.968 295.894C341.107 305.019 353.337 309.715 365.568 309.715C377.798 309.715 389.894 305.153 399.168 295.894C417.58 277.509 417.58 247.316 399.168 228.932C397.286 227.053 395.136 225.174 392.851 223.698Z" fill="white"/>
<path opacity="0.2" d="M473.626 450.08L473.491 462.829H484.243L484.378 450.08H473.626Z" fill="black"/>
<path opacity="0.2" d="M544.32 450.08H533.568L535.853 462.829H546.471L544.32 450.08Z" fill="black"/>
<path d="M474.028 122.383C474.028 122.383 459.782 159.152 468.921 219.27C486.259 219.27 517.843 219.27 526.176 219.27C526.982 210.547 523.622 163.178 534.105 121.712C534.105 121.712 524.428 119.699 515.02 119.297C507.763 118.894 497.145 118.76 490.694 119.297C482.092 120.102 474.028 122.383 474.028 122.383Z" fill="#0ec2f3"/>
<path opacity="0.4" d="M474.028 122.383C474.028 122.383 459.782 159.152 468.921 219.27C486.259 219.27 517.843 219.27 526.176 219.27C526.982 210.547 523.622 163.178 534.105 121.712C534.105 121.712 524.428 119.699 515.02 119.297C507.763 118.894 497.145 118.76 490.694 119.297C482.092 120.102 474.028 122.383 474.028 122.383Z" fill="white"/>
<path opacity="0.2" d="M521.068 132.045C519.724 138.889 521.203 155.126 526.713 174.047C527.385 159.554 529.132 142.78 533.03 126.006V125.872C529.267 125.47 522.278 125.604 521.068 132.045Z" fill="black"/>
<path d="M512.87 96.6183C510.989 104.401 509.779 114.197 515.021 119.431C515.021 119.431 511.526 127.348 496.877 127.348C483.571 127.348 490.56 119.431 490.56 119.431C499.43 117.284 499.43 106.549 498.221 100.51L512.87 96.6183Z" fill="#B55B52"/>
<path d="M496.877 127.348C505.479 129.227 507.226 132.716 507.226 132.716C507.226 132.716 517.978 128.422 517.575 119.028C517.575 119.028 515.021 117.552 513.408 116.21C513.408 116.21 512.467 123.591 496.877 127.348Z" fill="white"/>
<path d="M496.876 127.348C489.888 127.751 486.662 130.972 486.662 130.972C486.662 130.972 484.915 128.69 487.872 119.431C487.872 119.431 490.291 118.492 492.576 117.955C492.576 117.821 491.232 125.335 496.876 127.348Z" fill="white"/>
<path opacity="0.2" d="M498.221 100.376C498.893 103.999 499.296 109.098 497.549 113.258C498.893 113.124 500.237 112.721 501.446 112.05C506.554 109.769 509.107 106.012 511.93 100.644C512.198 99.3021 512.467 97.9602 512.871 96.6183L498.221 100.376Z" fill="black"/>
<path d="M486.124 91.7874C486.93 94.4713 488.946 96.4841 491.097 97.4235C494.188 98.8996 496.473 96.0816 496.204 92.8609C495.935 89.9087 494.054 85.4804 490.559 85.3462C487.199 85.3462 485.183 88.701 486.124 91.7874Z" fill="#B55B52"/>
<path opacity="0.2" d="M486.124 91.7874C486.93 94.4713 488.946 96.4841 491.097 97.4235C494.188 98.8996 496.473 96.0816 496.204 92.8609C495.935 89.9087 494.054 85.4804 490.559 85.3462C487.199 85.3462 485.183 88.701 486.124 91.7874Z" fill="black"/>
<path d="M497.415 69.9141C493.114 68.3038 486.125 84.1385 495.802 85.0778C505.344 86.0171 503.866 72.1953 497.415 69.9141Z" fill="#263238"/>
<path d="M519.725 87.0907C516.365 97.2893 514.886 103.462 508.435 107.756C498.624 114.063 487.2 106.549 487.469 95.679C487.737 85.8829 493.113 70.7192 504.269 68.8405C515.021 66.8277 523.085 76.7579 519.725 87.0907Z" fill="#B55B52"/>
<path d="M496.877 75.4159C488.544 69.1089 493.248 56.2265 499.834 55.2871C508.839 54.2136 513.946 71.9269 524.429 72.8663C534.912 73.6714 530.343 90.3113 516.768 94.8738C511.795 96.6183 510.989 90.3113 515.962 81.4546C512.871 82.2597 501.716 79.1733 496.877 75.4159Z" fill="#263238"/>
<path d="M496.743 97.9602C500.103 98.2286 502.253 96.2157 502.388 96.2157C502.522 96.0815 502.522 95.9474 502.388 95.8132C502.253 95.679 502.119 95.679 501.984 95.8132C501.984 95.8132 499.565 98.0944 495.802 97.2893C495.668 97.2893 495.533 97.2893 495.533 97.4235C495.533 97.5577 495.533 97.6919 495.668 97.6919C496.205 97.8261 496.474 97.9602 496.743 97.9602Z" fill="#263238"/>
<path d="M521.338 99.5705C519.322 101.583 516.499 102.657 514.08 102.657C510.586 102.657 509.914 99.3021 511.795 96.3499C513.542 93.8003 517.44 90.7138 520.531 92.0558C523.622 93.3977 523.757 97.1551 521.338 99.5705Z" fill="#B55B52"/>
<path d="M506.554 219.27C506.554 219.27 505.075 232.689 503.194 250.939C501.043 271.605 498.355 298.443 496.742 318.841C496.742 318.975 496.742 318.975 496.742 319.109C496.474 323 496.07 326.624 495.936 329.978C493.517 363.258 487.872 460.413 487.872 460.413H469.728C469.728 460.413 462.874 361.379 463.277 327.429C463.68 294.82 468.922 219.27 468.922 219.27H506.554Z" fill="#0ec2f3"/>
<path d="M489.35 453.301C489.484 453.301 489.081 460.816 489.081 460.816H468.115L467.577 452.63L489.35 453.301Z" fill="#263238"/>
<path opacity="0.2" d="M503.193 250.939C501.043 271.605 498.355 298.443 496.742 318.84C496.742 318.975 496.742 318.975 496.742 319.109C492.71 299.785 491.5 275.631 493.113 235.91L503.193 250.939Z" fill="black"/>
<path d="M489.216 219.27C489.216 219.27 497.549 296.565 502.79 327.16C508.435 360.708 531.014 460.279 531.014 460.279H550.637C550.637 460.279 537.465 363.392 534.777 330.113C531.955 294.015 526.176 219.136 526.176 219.136H489.216V219.27Z" fill="#0ec2f3"/>
<path d="M550.771 453.704C550.905 453.704 551.443 460.682 551.443 460.682H529.804L528.191 452.898L550.771 453.704Z" fill="#263238"/>
<path d="M503.462 86.5539C503.193 87.3591 502.655 88.03 502.118 87.8958C501.58 87.7616 501.311 86.9565 501.58 86.1513C501.849 85.3462 502.387 84.6752 502.924 84.8094C503.327 84.9436 503.596 85.7488 503.462 86.5539Z" fill="#263238"/>
<path d="M493.92 84.541C493.651 85.3461 493.113 86.0171 492.576 85.8829C492.038 85.7487 491.769 84.9436 492.038 84.1384C492.307 83.3332 492.844 82.6623 493.382 82.7965C493.92 82.9307 494.188 83.7358 493.92 84.541Z" fill="#263238"/>
<path d="M496.877 85.6145C496.877 85.6145 493.651 90.0428 490.963 91.9215C492.038 93.666 494.726 93.5318 494.726 93.5318L496.877 85.6145Z" fill="#A02724"/>
<path d="M506.688 85.3462C506.553 85.3462 506.419 85.212 506.419 85.0778C505.747 82.9307 503.865 82.5281 503.865 82.5281C503.596 82.5281 503.462 82.2597 503.462 81.8572C503.596 81.5888 503.865 81.4546 504.134 81.4546C504.268 81.4546 506.553 81.9914 507.36 84.6752C507.494 84.9436 507.36 85.212 507.091 85.3462C506.822 85.3462 506.822 85.3462 506.688 85.3462Z" fill="#263238"/>
<path d="M527.252 77.2946C527.252 77.0262 527.52 76.892 527.655 76.892C530.611 75.8185 531.149 73.2688 531.149 73.2688C531.149 72.8662 531.552 72.5979 531.955 72.7321C532.359 72.8662 532.627 73.2688 532.493 73.5372C532.493 73.6714 531.821 76.892 528.058 78.2339C527.655 78.3681 527.252 78.2339 527.117 77.8314C527.252 77.6972 527.252 77.4288 527.252 77.2946Z" fill="#263238"/>
<path d="M533.434 79.7101C533.165 79.7101 533.031 79.7101 532.762 79.5759C530.208 77.563 527.789 78.5024 527.789 78.5024C527.386 78.6366 526.983 78.5024 526.848 78.0998C526.714 77.6972 526.848 77.2946 527.251 77.1605C527.386 77.1605 530.477 75.9527 533.568 78.3682C533.837 78.6366 533.971 79.0391 533.703 79.4417C533.703 79.5759 533.568 79.7101 533.434 79.7101Z" fill="#263238"/>
<path d="M490.694 80.7836C490.559 80.7836 490.559 80.7836 490.559 80.6494C490.425 80.5152 490.291 80.1126 490.559 79.9784C492.576 77.8313 494.86 78.2339 494.86 78.2339C495.129 78.2339 495.264 78.5023 495.264 78.7707C495.264 79.0391 494.995 79.1733 494.726 79.1733C494.592 79.1733 492.844 78.9049 491.231 80.6494C490.963 80.7836 490.828 80.7836 490.694 80.7836Z" fill="#263238"/>
<path d="M540.422 136.339L526.848 144.525C526.848 144.525 543.782 177.536 541.9 182.77C539.347 189.748 535.449 205.18 531.014 212.963C531.417 214.707 533.971 218.599 535.449 219.404C546.201 212.023 558.029 188.271 558.029 181.562C557.894 166.13 540.422 136.339 540.422 136.339Z" fill="#B55B52"/>
<path d="M534.105 121.846C544.185 123.323 554.131 158.347 554.131 158.347L532.224 170.29C532.224 170.29 523.622 153.65 519.59 141.17C515.289 128.288 523.219 120.236 534.105 121.846Z" fill="#0ec2f3"/>
<path opacity="0.4" d="M534.105 121.846C544.185 123.323 554.131 158.347 554.131 158.347L532.224 170.29C532.224 170.29 523.622 153.65 519.59 141.17C515.289 128.288 523.219 120.236 534.105 121.846Z" fill="white"/>
<path d="M533.433 475.443C532.627 475.443 531.821 475.309 531.417 474.906C531.014 474.638 530.88 474.101 531.014 473.564C531.014 473.162 531.283 472.893 531.417 472.893C532.627 472.222 535.987 474.369 536.39 474.638C536.525 474.638 536.525 474.772 536.525 474.906C536.525 475.04 536.39 475.04 536.39 475.174C535.584 475.309 534.509 475.443 533.433 475.443ZM531.955 473.296C531.821 473.296 531.686 473.296 531.686 473.296C531.552 473.296 531.552 473.43 531.552 473.564C531.552 473.967 531.552 474.235 531.821 474.503C532.358 475.04 533.837 475.04 535.584 474.638C534.374 474.101 532.896 473.296 531.955 473.296Z" fill="#0ec2f3"/>
<path d="M536.256 475.174C536.256 475.174 536.121 475.174 536.256 475.174C535.046 474.503 533.03 472.222 533.299 471.014C533.299 470.746 533.568 470.478 534.105 470.344C534.508 470.344 534.912 470.344 535.18 470.612C536.39 471.685 536.524 474.772 536.524 474.906C536.524 475.04 536.524 475.04 536.39 475.174H536.256ZM534.24 470.746C533.836 470.746 533.702 470.88 533.702 471.014C533.568 471.685 534.777 473.43 535.852 474.369C535.718 473.43 535.449 471.685 534.777 471.014C534.643 470.88 534.508 470.746 534.24 470.746Z" fill="#0ec2f3"/>
<path d="M469.056 475.443C467.981 475.443 467.04 475.309 466.502 474.772C466.099 474.503 465.965 474.101 466.099 473.564C466.099 473.296 466.234 473.027 466.502 472.893C467.846 472.222 472.013 474.369 472.551 474.638C472.685 474.638 472.685 474.772 472.685 474.906C472.685 475.04 472.551 475.04 472.416 475.174C471.61 475.309 470.266 475.443 469.056 475.443ZM467.174 473.296C467.04 473.296 466.771 473.296 466.637 473.43C466.502 473.43 466.502 473.564 466.502 473.698C466.502 474.101 466.502 474.369 466.771 474.503C467.443 475.04 469.19 475.174 471.61 474.772C470.131 474.101 468.25 473.296 467.174 473.296Z" fill="#0ec2f3"/>
<path d="M472.415 475.174C472.415 475.174 472.281 475.174 472.415 475.174C471.071 474.638 468.652 472.222 468.787 471.014C468.787 470.746 469.055 470.344 469.727 470.344C470.265 470.344 470.668 470.478 471.071 470.746C472.415 471.82 472.55 474.772 472.55 474.906C472.55 475.04 472.55 475.04 472.415 475.174C472.55 475.174 472.415 475.174 472.415 475.174ZM469.996 470.746H469.862C469.459 470.746 469.324 471.014 469.324 471.014C469.19 471.685 470.803 473.564 472.147 474.369C472.012 473.564 471.743 471.82 470.937 471.014C470.668 470.88 470.265 470.746 469.996 470.746Z" fill="#0ec2f3"/>
<path d="M532.761 212.56L522.547 211.755L527.385 223.027C527.385 223.027 536.256 223.43 538.137 216.586L532.761 212.56Z" fill="#B55B52"/>
<path d="M515.423 219.538L517.708 224.101C518.515 225.711 520.396 226.382 521.875 225.577L527.519 223.027L522.681 211.755L516.633 215.378C515.155 216.183 514.617 218.062 515.423 219.538Z" fill="#B55B52"/>
<path d="M426.182 207.998C423.494 209.071 417.581 210.279 415.565 210.279C415.161 210.279 414.893 210.682 414.893 211.084C415.161 212.024 415.968 212.829 416.909 213.097C417.984 213.365 420.941 213.902 421.613 214.036C421.747 214.036 421.747 214.036 421.881 214.171C422.419 214.573 425.241 216.586 428.064 216.586C430.617 216.586 428.064 210.279 427.123 208.4C426.854 207.998 426.585 207.864 426.182 207.998Z" fill="#B55B52"/>
<path d="M201.868 114.868C203.078 121.981 204.018 134.863 198.911 139.426C198.911 139.426 203.615 148.148 215.711 151.369C226.866 145.733 220.953 140.097 220.953 140.097C213.158 137.949 213.561 132.179 215.039 126.677L201.868 114.868Z" fill="#FFC3BD"/>
<path d="M185.875 157.273C185.069 164.117 183.994 170.692 182.65 177.402C181.306 184.112 179.827 190.687 177.946 197.262C177.005 200.617 175.795 203.972 174.586 207.058C173.376 210.279 172.167 213.365 170.823 216.452C168.269 222.625 165.581 228.798 162.624 234.836L156.979 232.823C158.458 226.248 160.205 219.807 161.952 213.365C163.699 206.924 165.581 200.617 167.059 194.444C168.538 188.137 169.613 181.696 170.823 175.255C171.898 168.814 172.973 162.238 173.914 155.797L185.875 157.273Z" fill="#FFC3BD"/>
<path d="M178.348 141.573C173.644 143.317 168.94 162.507 168.94 162.507L187.756 176.731C187.756 176.731 194.476 158.078 192.057 152.04C189.504 145.733 183.859 139.56 178.348 141.573Z" fill="#0ec2f3"/>
<path d="M158.054 230.542L149.452 240.07L161.548 240.472C161.548 240.472 165.446 233.897 162.892 229.737L158.054 230.542Z" fill="#FFC3BD"/>
<path opacity="0.2" d="M217.862 368.223L109.67 383.387C100.128 384.729 91.2573 378.019 89.9133 368.492L76.6077 274.289C75.2637 264.761 81.9837 255.904 91.5261 254.563L199.718 239.399C209.261 238.057 218.131 244.766 219.475 254.294L232.781 348.497C234.125 358.025 227.405 366.881 217.862 368.223Z" fill="#0ec2f3"/>
<path d="M113.299 371.041C107.654 371.041 102.681 366.881 101.875 361.111L90.0477 278.046C89.6445 274.96 90.4509 271.873 92.3325 269.458C94.2141 267.042 96.9021 265.432 99.9933 264.895L194.476 251.61C200.793 250.671 206.707 255.099 207.513 261.406L219.206 344.471C219.609 347.558 218.803 350.644 216.921 353.06C215.04 355.475 212.352 357.085 209.26 357.622L114.777 370.907C114.374 371.041 113.837 371.041 113.299 371.041ZM196.089 252.281C195.552 252.281 195.014 252.281 194.611 252.415L100.128 265.7C97.3053 266.103 94.7517 267.579 93.0045 269.86C91.2573 272.142 90.4509 275.094 90.8541 277.912L102.547 360.977C103.353 366.881 108.864 371.041 114.777 370.236L209.26 356.951C212.083 356.548 214.636 355.072 216.384 352.791C218.131 350.51 218.937 347.558 218.534 344.74L206.841 261.675C206.169 256.173 201.465 252.281 196.089 252.281Z" fill="white"/>
<path d="M148.915 250.134L158.995 249.866L161.683 240.472L149.587 240.07L148.915 250.134Z" fill="#FFC3BD"/>
<path d="M242.054 149.356C242.323 156.871 240.979 174.45 233.049 215.244L184.8 213.768C186.144 194.176 186.547 182.099 178.349 141.438C178.349 141.438 188.563 139.56 198.912 139.291C207.11 139.157 213.696 139.023 220.819 139.962C226.464 140.633 232.377 141.841 236.409 142.646C239.635 143.451 241.92 146.135 242.054 149.356Z" fill="#0ec2f3"/>
<path d="M241.382 151.637C243.667 158.078 245.683 164.52 247.564 171.095C249.446 177.536 251.193 184.112 252.806 190.821L253.344 193.371L253.612 194.579L253.747 195.25V195.115C253.612 194.981 253.747 195.384 254.15 195.786C254.419 196.189 254.822 196.591 255.36 197.128C257.376 199.007 259.929 200.886 262.617 202.63C267.993 206.119 273.907 209.474 279.686 212.694L277.401 218.331C270.681 216.318 264.364 213.902 258.048 210.816C254.822 209.206 251.731 207.595 248.64 205.046C247.833 204.375 247.027 203.704 246.22 202.898C245.414 201.959 244.608 201.02 243.801 199.409C243.667 199.007 243.398 198.47 243.264 198.068L243.129 197.531L242.726 196.323L242.054 193.908C240.172 187.601 238.156 181.159 236.14 174.852L229.958 155.797L241.382 151.637Z" fill="#FFC3BD"/>
<path d="M236.813 142.915C245.683 144.793 248.64 163.58 248.64 163.58L233.318 177.536C233.318 177.536 220.819 156.334 223.776 150.429C226.867 144.257 229.555 141.304 236.813 142.915Z" fill="#0ec2f3"/>
<path d="M276.863 211.353L288.959 215.915L279.148 222.356C279.148 222.356 273.369 218.867 273.772 214.171L276.863 211.353Z" fill="#FFC3BD"/>
<path d="M293.663 222.222L286.271 226.919L279.014 222.356L288.825 215.915L293.663 222.222Z" fill="#FFC3BD"/>
<path d="M228.614 101.986C228.749 102.925 229.286 103.731 229.824 103.596C230.496 103.596 230.899 102.791 230.765 101.718C230.63 100.778 230.093 99.9731 229.555 100.107C229.017 100.242 228.614 101.047 228.614 101.986Z" fill="#263238"/>
<path d="M229.42 100.242L231.705 99.4364C231.57 99.4364 230.63 101.315 229.42 100.242Z" fill="#263238"/>
<path d="M229.689 104.133C229.689 104.133 231.705 108.159 233.587 109.903C232.377 111.245 230.227 110.843 230.227 110.843L229.689 104.133Z" fill="#ED847E"/>
<path d="M224.985 99.839C225.254 99.839 225.388 99.7048 225.522 99.4364C226.463 97.0209 229.823 96.2158 229.823 96.2158C230.092 96.0816 230.361 95.8132 230.226 95.5448C230.092 95.2764 229.823 95.0081 229.554 95.1423C229.42 95.1423 225.657 96.0816 224.447 99.0338C224.313 99.3022 224.447 99.7048 224.716 99.7048C224.85 99.839 224.85 99.839 224.985 99.839Z" fill="#263238"/>
<path d="M195.955 101.181C197.702 112.856 198.105 117.821 204.557 123.323C214.233 131.642 228.211 127.08 230.093 115.137C231.705 104.401 228.749 87.0906 216.787 83.3333C205.094 79.7101 194.342 89.5061 195.955 101.181Z" fill="#FFC3BD"/>
<path d="M215.443 80.1127C210.201 73.6715 185.606 74.074 192.595 90.5797C182.246 92.0558 182.38 102.12 183.321 109.635C184.262 117.15 175.391 115.808 173.779 125.067C172.3 134.326 176.198 135.266 169.612 142.512C163.161 149.893 172.435 164.922 184.799 161.031C197.164 157.139 206.975 164.788 222.297 161.702C237.619 158.615 239.097 146.269 235.737 139.426C232.646 132.984 228.211 132.045 229.151 125.872C230.495 116.747 224.582 108.025 219.206 105.207C225.791 99.0338 244.876 80.5153 215.443 80.1127Z" fill="#263238"/>
<path d="M220.013 106.683C220.954 108.561 222.432 109.635 223.911 110.038C226.061 110.574 227.136 108.159 226.464 105.743C225.927 103.596 224.045 100.644 221.895 101.181C219.61 101.852 218.938 104.536 220.013 106.683Z" fill="#FFC3BD"/>
<path d="M135.072 471.82C133.862 471.685 132.787 471.417 132.25 470.746C131.846 470.343 131.712 469.941 131.846 469.27C131.846 469.001 132.115 468.733 132.384 468.599C133.862 467.928 138.432 470.88 138.835 471.149C138.97 471.149 138.97 471.283 138.97 471.417C138.97 471.551 138.835 471.551 138.701 471.685C137.76 471.82 136.282 471.954 135.072 471.82ZM133.19 469.136C132.921 469.136 132.787 469.136 132.653 469.136C132.518 469.136 132.518 469.27 132.384 469.404C132.25 469.807 132.384 470.075 132.653 470.343C133.325 471.014 135.206 471.417 137.894 471.149C136.416 470.343 134.266 469.27 133.19 469.136Z" fill="#0ec2f3"/>
<path d="M138.701 471.685C137.222 470.88 134.669 468.062 135.072 466.72C135.206 466.452 135.475 466.049 136.147 466.049C136.685 466.049 137.222 466.318 137.626 466.72C138.97 468.062 138.97 471.283 138.97 471.417C138.97 471.551 138.97 471.551 138.835 471.685C138.835 471.685 138.835 471.685 138.701 471.685ZM136.416 466.72H136.282C135.744 466.72 135.744 466.854 135.744 466.989C135.475 467.794 137.222 469.941 138.566 471.014C138.566 470.075 138.298 468.062 137.491 467.257C137.088 466.854 136.819 466.72 136.416 466.72Z" fill="#0ec2f3"/>
<path d="M137.895 473.698H149.856L156.039 446.189H144.077L137.895 473.698Z" fill="#FFC3BD"/>
<path d="M138.028 471.014L151.334 469.136C151.871 469.136 152.14 469.404 152.275 469.807L153.081 480.408C153.215 481.481 152.14 482.689 151.065 482.823C146.495 483.36 144.211 483.36 138.431 484.165C134.803 484.702 128.889 485.776 123.916 485.776C119.078 485.776 119.615 480.81 121.766 480.408C131.443 478.395 132.787 475.174 136.012 471.954C136.55 471.417 137.222 471.149 138.028 471.014Z" fill="#263238"/>
<g opacity="0.2">
<path opacity="0.2" d="M155.903 446.189L152.812 460.279H140.851L144.076 446.189H155.903Z" fill="black"/>
</g>
<path d="M184.8 213.902C171.763 232.287 164.237 299.785 159.533 336.017C154.694 373.591 140.313 457.73 140.313 457.73H156.441C156.441 457.73 178.617 372.517 187.085 335.883C196.358 295.357 215.712 214.037 215.712 214.037C215.712 214.037 197.702 213.902 184.8 213.902Z" fill="#263238"/>
<path opacity="0.2" d="M198.239 245.169C190.31 268.921 190.041 298.846 190.982 318.975C195.82 298.175 201.868 272.678 206.707 252.013L198.239 245.169Z" fill="black"/>
<path d="M217.055 473.162C218.265 473.162 219.34 473.027 219.878 472.491C220.281 472.088 220.415 471.685 220.415 471.149C220.415 470.88 220.281 470.612 219.878 470.343C218.399 469.538 213.695 471.954 213.158 472.222C213.023 472.222 213.023 472.356 213.023 472.491C213.023 472.625 213.158 472.759 213.292 472.759C214.367 472.893 215.711 473.162 217.055 473.162ZM219.206 470.612C219.475 470.612 219.609 470.612 219.743 470.746C219.878 470.746 219.878 470.88 219.878 471.014C219.878 471.417 219.743 471.685 219.609 471.954C218.937 472.625 216.921 472.759 214.233 472.222C215.846 471.551 217.996 470.612 219.206 470.612Z" fill="#0ec2f3"/>
<path d="M213.427 472.759C213.427 472.759 213.427 472.625 213.427 472.759C214.905 472.088 217.728 469.538 217.593 468.197C217.593 467.928 217.325 467.526 216.518 467.391C215.981 467.391 215.443 467.526 214.905 467.928C213.427 469.136 213.158 472.356 213.158 472.491C213.158 472.625 213.158 472.625 213.293 472.759C213.293 472.625 213.293 472.759 213.427 472.759ZM216.249 467.928H216.384C216.921 467.928 216.921 468.197 216.921 468.197C217.056 469.002 215.174 471.015 213.696 471.954C213.83 471.015 214.233 469.136 215.174 468.331C215.577 468.062 215.846 467.928 216.249 467.928Z" fill="#0ec2f3"/>
<path d="M201.465 473.698H213.427L212.889 446.189H200.928L201.465 473.698Z" fill="#FFC3BD"/>
<path d="M214.637 472.356H201.331C200.794 472.356 200.391 472.759 200.391 473.162L198.912 483.763C198.778 484.836 199.719 485.91 200.794 485.91C205.498 485.776 207.648 485.507 213.562 485.507C217.191 485.507 227.539 485.91 232.512 485.91C237.351 485.91 237.754 480.945 235.738 480.542C226.464 478.529 219.879 475.711 216.653 473.162C215.981 472.491 215.309 472.356 214.637 472.356Z" fill="#263238"/>
<g opacity="0.2">
<path opacity="0.2" d="M212.889 446.189L213.158 460.279H201.197L200.928 446.189H212.889Z" fill="black"/>
</g>
<path d="M233.183 215.244C233.183 215.244 228.211 304.616 224.851 340.714C221.356 378.288 215.443 457.461 215.443 457.461H199.315C199.315 457.461 195.82 376.812 198.374 339.775C201.196 299.517 190.713 243.559 197.702 214.036C204.287 214.171 233.183 215.244 233.183 215.244Z" fill="#263238"/>
<path d="M197.97 458.132H216.786L217.727 450.751L197.164 452.228L197.97 458.132Z" fill="#0ec2f3"/>
<path d="M139.239 458.132H158.055L159.936 450.349L138.97 452.228L139.239 458.132Z" fill="#0ec2f3"/>
<path d="M184.128 210.95L182.784 215.244C182.649 215.513 183.053 215.915 183.59 215.915L233.318 217.391C233.721 217.391 234.125 217.257 234.125 216.989L234.662 212.695C234.662 212.426 234.393 212.158 233.856 212.158L184.934 210.682C184.665 210.682 184.262 210.816 184.128 210.95Z" fill="#0ec2f3"/>
<path d="M190.579 216.586H189.235C188.966 216.586 188.832 216.452 188.832 216.318L189.638 210.682C189.638 210.548 189.907 210.413 190.176 210.413H191.52C191.789 210.413 191.923 210.548 191.923 210.682L191.117 216.318C191.117 216.586 190.848 216.72 190.579 216.586Z" fill="#263238"/>
<path d="M229.555 217.794H228.211C227.942 217.794 227.808 217.66 227.808 217.526L228.614 211.889C228.614 211.755 228.883 211.621 229.152 211.621H230.496C230.764 211.621 230.899 211.755 230.899 211.889L230.092 217.526C230.092 217.66 229.824 217.794 229.555 217.794Z" fill="#263238"/>
<path d="M210.068 217.257H208.724C208.455 217.257 208.32 217.123 208.32 216.989L209.127 211.353C209.127 211.219 209.396 211.084 209.664 211.084H211.008C211.277 211.084 211.412 211.219 211.412 211.353L210.605 216.989C210.605 217.123 210.336 217.257 210.068 217.257Z" fill="#263238"/>
</g>
<defs>
<clipPath id="clip0">
<rect width="672" height="500" fill="white"/>
</clipPath>
</defs>
</svg>
