<svg width="40" height="40" viewBox="0 0 40 40" fill="none" xmlns="http://www.w3.org/2000/svg">
<rect width="40" height="40" rx="20" fill="#45B26B"/>
<path opacity="0.7" d="M17.9163 17.4999C18.8365 17.4999 19.5825 16.7539 19.5825 15.8337C19.5825 14.9134 18.8365 14.1674 17.9163 14.1674C16.996 14.1674 16.25 14.9134 16.25 15.8337C16.25 16.7539 16.996 17.4999 17.9163 17.4999Z" fill="white"/>
<path opacity="0.7" d="M18.9587 18.3337H16.875C15.6112 18.3337 14.5837 19.3612 14.5837 20.6249V21.0412C14.5837 21.3862 14.8637 21.6662 15.2087 21.6662H20.625C20.97 21.6662 21.25 21.3862 21.25 21.0412V20.6249C21.25 19.3612 20.2225 18.3337 18.9587 18.3337Z" fill="white"/>
<path d="M29.7563 28.5775L24.0687 22.89C25.17 21.53 25.8337 19.8 25.8337 17.9175C25.8337 13.5525 22.2825 10.0013 17.9175 10.0013C13.5525 10.0013 10 13.5513 10 17.9163C10 22.2813 13.5512 25.8325 17.9163 25.8325C19.8 25.8325 21.5288 25.1688 22.89 24.0675L28.5775 29.755C28.9025 30.08 29.43 30.08 29.7563 29.755C30.0813 29.43 30.0813 28.9025 29.7563 28.5775ZM11.6663 17.9163C11.6663 14.47 14.47 11.6663 17.9163 11.6663C21.3625 11.6663 24.1663 14.47 24.1663 17.9163C24.1663 21.3625 21.3625 24.1663 17.9163 24.1663C14.47 24.1663 11.6663 21.3625 11.6663 17.9163Z" fill="white"/>
</svg>
