<svg width="640" height="344" viewBox="0 0 640 344" fill="none" xmlns="http://www.w3.org/2000/svg">
<path d="M210.609 45.6668V95.8873C210.609 99.4917 213.531 102.413 217.135 102.413C306.501 98.8011 301.213 120.269 300.471 55.0549L210.609 45.6668" fill="#A4C4FF"/>
<path d="M327.436 54.2482V65.0607C327.436 67.3317 329.276 69.1719 331.547 69.1719H384.926C390.476 68.9299 389.784 63.4252 389.734 59.439L327.436 54.2482" fill="#A4C4FF"/>
<path d="M470.377 298.182C469.086 295.129 467.487 292.249 465.604 289.56L474.593 280.572L460.66 266.642L451.174 276.128C446.799 273.512 441.923 271.589 436.947 270.532V256.822H417.245V270.532C412.269 271.589 407.39 273.512 403.015 276.128L393.532 266.642L379.6 280.572L388.588 289.56C385.479 293.987 383.117 299.046 381.716 304.283H369.776V323.981H380.716C381.415 328.318 382.732 332.576 384.634 336.566H400.437C383.718 315.562 400.191 282.38 427.098 283.086C453.995 282.378 470.48 315.567 453.759 336.566H469.555C471.461 332.576 472.777 328.318 473.476 323.981H484.416V304.283H472.476C471.92 302.211 471.221 300.175 470.377 298.182" fill="#A4C4FF"/>
<path d="M468.359 255.05C448.616 254.457 448.619 225.773 468.359 225.18C488.106 225.776 488.1 254.46 468.359 255.05ZM489.111 243.478H494.006V234.666H488.663C488.037 232.321 486.979 230.059 485.589 228.077L489.612 224.058L483.379 217.825L479.132 222.069C477.179 220.9 474.998 220.039 472.767 219.565V213.433H463.955V219.565C461.728 220.039 459.547 220.9 457.59 222.069L453.344 217.825L447.111 224.058L451.133 228.077C449.739 230.059 448.685 232.321 448.056 234.666H442.716V243.478H447.611C448.026 246.077 448.959 248.625 450.313 250.887L447.111 254.086L453.344 260.319L456.318 257.342C458.595 258.938 461.234 260.09 463.955 260.668V264.712H472.767V260.668C475.485 260.09 478.127 258.938 480.401 257.342L483.379 260.319L489.612 254.086L486.41 250.887C487.764 248.625 488.696 246.077 489.111 243.478" fill="#A4C4FF"/>
<path d="M199.998 198.969C202.078 160.801 256.933 166.26 252.662 204.211H199.998V198.969ZM270.796 204.211H258.441C262.077 154.905 190.571 154.935 194.219 204.211H178.342L159.93 337.255H294.304L270.796 204.211" fill="#A4C4FF"/>
<path d="M147.252 324.567C209.004 285.372 224.266 273.51 235.084 198.873H276.929L285.212 344L151.199 343.563L147.252 324.567" fill="#739BFD"/>
<path d="M441.18 337.125H388.485C389.596 337.125 390.661 336.927 391.647 336.566H400.435C399.096 334.885 397.97 333.123 397.045 331.307C397.46 330.26 397.689 329.116 397.689 327.918V301.129C403.053 290.799 413.42 283.073 426.255 283.073C426.535 283.073 426.813 283.078 427.097 283.085C427.378 283.078 427.661 283.073 427.942 283.073C433.041 283.073 437.75 284.293 441.912 286.414C440.612 293.323 437.85 300.571 432.181 304.795L454.423 319.41C454.423 319.41 443.929 330.163 435.18 332.037L441.18 337.125V337.125ZM403.017 276.128L397.689 270.801V259.343L412.782 246.011C412.782 246.011 415.479 259.687 413.929 271.367C410.115 272.482 406.413 274.095 403.017 276.128ZM442.977 272.252C441.003 271.542 438.983 270.964 436.947 270.532V269.768L442.785 268.558C442.785 268.558 442.925 269.966 442.977 272.252" fill="#D5E5FD"/>
<path d="M400.436 336.566H391.646C394.109 335.666 396.083 333.74 397.046 331.307C397.97 333.123 399.094 334.885 400.436 336.566V336.566ZM397.69 301.13V270.8L403.015 276.128C406.415 274.095 410.115 272.482 413.929 271.367C413.78 272.487 413.595 273.588 413.362 274.656L436.949 269.768V270.532C438.982 270.964 441.004 271.543 442.978 272.253C443.058 275.625 442.945 280.911 441.91 286.414C437.748 284.294 433.039 283.073 427.941 283.073C427.663 283.073 427.377 283.078 427.097 283.086C426.813 283.078 426.536 283.073 426.253 283.073C413.419 283.073 403.054 290.799 397.69 301.13" fill="#A4C4FF"/>
<path d="M505.205 135.711L493.013 159.661L511.202 161.538L505.205 135.711" fill="#DF4930"/>
<path d="M484.26 108.436L500.618 146.646L487.685 149.104L479.345 117.468L484.26 108.436" fill="#FFB6A6"/>
<path d="M480.924 128.033C480.924 128.033 488.741 139.535 498.887 139.07L503.352 148.623L484.369 146.468L480.924 128.033Z" fill="#FF8370"/>
<path d="M477.521 104.142L472.946 115.929C472.625 116.762 473.109 117.69 473.978 117.901L478.783 119.069C479.503 119.245 480.243 118.857 480.512 118.164L485.839 104.328L477.521 104.142" fill="#38385C"/>
<path d="M456.645 74.8443L488.071 96.4593C489.556 97.4686 490.263 99.2953 489.837 101.042C489.383 102.905 487.754 104.244 485.84 104.328L448.336 105.969L456.645 74.8443" fill="#FF8370"/>
<path d="M452.619 90.2737C453.279 87.0801 457.834 86.3238 459.527 89.0482C462.455 69.4494 448.082 69.6416 443.772 88.1226C439.112 106.517 451.791 113.291 458.191 94.5342C455.437 96.178 451.738 93.4129 452.619 90.2737" fill="#38385C"/>
<path d="M459.526 89.0485C457.833 86.3245 453.28 87.0804 452.617 90.274C451.739 93.4136 455.435 96.1783 458.191 94.5345C458.774 92.7992 459.245 90.8576 459.526 89.0485" fill="#F85C3D"/>
<path d="M470.817 84.5897C470.817 84.5897 473.702 93.2849 465.802 105.205L469.862 105.027C469.862 105.027 476.075 98.9494 474.925 87.4158L470.817 84.5897Z" fill="#38385C"/>
<path d="M487.287 115.514C487.287 115.514 486.178 107.351 484.87 106.561C480.8 104.105 477.742 104.892 478.263 106.115C478.5 106.673 481.741 108.906 481.741 108.906C481.741 108.906 481.578 115.38 481.409 115.837C481.002 116.932 487.287 115.514 487.287 115.514Z" fill="#FFB6A6"/>
<path d="M476.493 106.519C476.493 106.519 480.514 107.69 480.514 108.285C480.514 108.881 478.08 113.807 477.376 113.97C476.67 114.132 473.962 113.782 473.805 113.445C472.796 111.924 475.205 107.215 476.493 106.519Z" fill="#FFB6A6"/>
<path d="M581.094 312.009C581.094 312.009 576.583 318.159 569.178 313.402L557.564 329.35C555.945 331.695 555.973 334.807 557.63 337.125L584.655 321.021C585.606 320.455 586.363 319.132 586.363 317.985C586.606 316.597 581.786 312.975 581.094 312.009" fill="#38385C"/>
<path d="M566.788 306.074L570.272 314.037C570.272 314.037 576.681 317.558 581.092 312.009L576.524 300.447L566.788 306.074" fill="#FFB6A6"/>
<path d="M569.178 313.402L580.002 306.816L577.82 300.959L565.872 307.792L569.178 313.402Z" fill="#FF8370"/>
<path d="M556.219 234.298C566.066 188.021 547.978 180.992 547.978 180.992H515.744L494.979 313.432L512.197 314.82C513.093 313.054 530.434 241.438 533.2 243.093L565.483 309.398L581.529 304.241L556.219 234.298Z" fill="#38385C"/>
<path d="M533.199 243.093L520.505 212.164C520.505 212.164 520.515 239.41 530.098 247.905L533.199 243.093" fill="#1A1A35"/>
<path d="M515.076 87.5119C526.936 75.6711 544.268 115.414 545.206 116.569C586.335 136.63 544.515 155.47 515.087 144.41C507.296 142.42 501.621 135.71 500.991 127.695C499.837 112.935 500.536 90.3655 515.076 87.5119" fill="#38385C"/>
<path d="M507.583 105.238C510.627 76.5932 538.626 95.1093 526.387 115.269L529.317 129.667L518.448 131.573L517.017 119.806C511.69 118.857 507.583 112.699 507.583 105.238Z" fill="#FFB6A6"/>
<path d="M530.956 106.359C530.956 106.359 522.893 104.284 520.231 102.016L522.921 104.676C522.921 104.676 514.646 102.715 512.817 97.6548C512.817 97.6548 509.547 101.754 509.241 105.156C508.708 100.996 506.787 92.0998 514.738 90.9823L530.222 103.404L530.956 106.359Z" fill="#FF8370"/>
<path d="M526.386 115.269C526.386 115.269 523.66 118.964 518.449 119.672C518.449 119.672 524.378 121.352 528.184 119.406L526.386 115.269Z" fill="#FF8370"/>
<path d="M514.453 114.345C514.453 114.345 518.083 114.13 519.369 112.196C519.369 112.196 518.8 115.662 516.675 115.989C514.639 116.303 514.453 114.345 514.453 114.345" fill="white"/>
<path d="M516.519 89.3012C516.519 89.3012 515.981 104.058 529.314 104.443C529.314 104.443 529.827 87.3045 516.519 89.3012Z" fill="#38385C"/>
<path d="M516.966 90.6751C516.966 90.6751 516.617 99.9122 520.506 103.402C520.506 103.402 513.447 99.6833 514.574 91.501C514.574 91.501 514.913 90.6506 516.966 90.6751Z" fill="#38385C"/>
<path d="M515.694 90.5013C515.694 90.5013 509.867 98.3276 509.514 103.403C509.514 103.403 509.305 95.2641 511.831 90.6758L515.694 90.5013" fill="#38385C"/>
<path d="M514.45 185.207C514.45 185.207 503.576 149.258 503.957 140.296C504.339 131.335 517.146 124.268 517.146 124.268L528.013 122.362C528.013 122.362 546.895 123.252 550.957 135.877C555.014 148.501 554.49 185.207 554.49 185.207H514.45Z" fill="#F85C3D"/>
<path d="M505.105 164.258C505.105 164.258 541.161 178.047 559.885 177.793V187.786H511.205L505.105 164.258Z" fill="#DF4930"/>
<path d="M533.194 143.34L527.647 137.798L529.231 143.34H533.194Z" fill="#DF4930"/>
<path d="M569.724 143.34H488.655V127.809C488.655 125.177 485.761 123.571 483.524 124.964L433.474 156.156C431.365 157.469 431.365 160.537 433.474 161.85L483.524 193.042C485.761 194.436 488.655 192.828 488.655 190.197V174.666H569.724V143.34" fill="#3875FF"/>
<path d="M520.971 170.534C520.971 170.534 516.451 169.746 516.628 168.84C516.852 167.696 525.283 168.208 525.283 168.208C528.709 166.305 560.936 147.094 563.636 146.469C568.319 150.767 573.55 155.491 567.721 161.592C566.9 162.322 565.924 162.866 564.873 163.183L528.645 174.06C528.645 174.06 522.76 178.414 521.935 178.494C517.029 178.973 514.174 175.288 513.621 174.668C513.069 174.048 520.971 170.534 520.971 170.534" fill="#FFB6A6"/>
<path d="M570.666 149.336C570.666 149.336 567.622 153.299 549.419 152.223L565.349 142.368L570.666 149.336" fill="#FF8370"/>
<path d="M545.128 128.034L564.947 145.851L546.179 155.867C530.492 139.669 524.697 144.192 545.128 128.034" fill="#F85C3D"/>
<path d="M533.188 143.34C533.188 143.34 545.126 151.827 553.497 151.962C561.869 152.093 553.497 151.962 553.497 151.962L546.039 157.182C546.039 157.182 534.495 146.722 533.188 143.34Z" fill="#DF4930"/>
<path d="M507.475 327.115C507.475 327.115 500.491 330.185 496.461 322.363L478.424 330.358C475.846 331.58 474.313 334.287 474.591 337.125L506.047 336.7C507.153 336.686 508.469 335.919 509.042 334.926C509.948 333.845 507.587 328.298 507.475 327.115" fill="#38385C"/>
<path d="M497.71 313.651L497.086 323.459C497.086 323.459 500.873 329.714 507.475 327.115L509.699 314.618L497.71 313.651Z" fill="#FFB6A6"/>
<path d="M495.752 316.506L509.891 320.545C509.891 320.545 511.767 312.413 511.048 312.008C510.326 311.601 497.085 312.008 497.085 312.008L495.752 316.506" fill="#FF8370"/>
<path d="M516.931 185.207C516.931 185.207 542.287 195.272 556.713 192.673C556.713 192.673 555.87 188.773 552.846 185.207H516.931" fill="#1A1A35"/>
<path d="M454.423 319.41C442.305 308.765 428.826 307.462 419.995 308.116C439.907 300.204 442.855 267.906 442.855 267.906C417.841 272.411 408.958 279.281 406.19 282.221C415.061 269.961 412.781 246.011 412.781 246.011C391.808 261.429 386.248 275.53 386.248 275.53L388.482 337.125H436.175C436.175 337.125 431.823 334.638 425.607 331.448C443.013 326.265 454.423 319.41 454.423 319.41" fill="#A7BD37"/>
<path d="M403.507 253.575L403.249 329.098C402.594 341.617 390.342 339.862 381.385 339.528L382.99 255.123L403.507 253.575Z" fill="#3E5409"/>
<path d="M389.975 285.256C402.299 276.483 412.518 247.791 412.437 245.912C412.549 245.475 413.269 245.654 413.129 246.11C412.155 253.028 398.254 283.645 389.975 285.256" fill="#3E5409"/>
<path d="M390.795 308.154C390.416 308.159 390.288 307.581 390.676 307.454C409.397 301.085 441.891 267.41 443.108 267.654C443.332 268.855 409.203 301.375 390.795 308.154Z" fill="#3E5409"/>
<path d="M390.796 322.722C390.423 322.735 390.286 322.154 390.668 322.027C410.729 314.94 454.197 318.34 454.78 319.445C453.971 320.387 410.741 314.991 390.796 322.722Z" fill="#3E5409"/>
<path d="M261.094 337.125H193.338C193.338 337.125 207.113 330.692 215.503 329.299C215.503 329.299 192.225 324.352 182.768 309.078C182.768 309.078 213.69 301.222 221.579 299.624C221.579 299.624 203.448 292.522 200.673 277.961H231.653C231.653 277.961 218.505 261.774 218.39 250.894C218.39 250.894 236.449 251.934 251.728 266.171L261.094 337.125" fill="#3875FF"/>
<path d="M254.769 269.329C254.769 269.329 243.719 255.519 219.2 251.375C219.2 251.375 224.735 273.614 238.65 277.961C238.65 277.961 221.545 272.455 200.673 277.961C200.673 277.961 210.529 298.252 238.069 300.859C238.069 300.859 201.542 298.54 184.438 308.397C184.438 308.397 210.82 329.931 239.228 329.743C239.228 329.743 214.007 331.07 202.122 337.125H258.722L254.769 269.329" fill="#A7BD37"/>
<path d="M245.425 258.575L244.746 329.009C245.166 339.219 253.888 340.176 262.109 339.6L259.786 263.143L245.425 258.575Z" fill="#3E5409"/>
<path d="M252.687 277.241C236.417 270.549 218.577 252.205 218.958 251.109C220.125 250.858 236.18 270.217 252.821 276.545C253.179 276.67 253.075 277.258 252.687 277.241Z" fill="#3E5409"/>
<path d="M252.181 294.609C249.426 295.558 203.44 280.606 200.337 277.831C201.239 277.068 240.187 293.24 252.208 293.889C252.645 293.911 252.64 294.621 252.181 294.609" fill="#3E5409"/>
<path d="M249.517 320.782C227.939 312.624 184.712 309.447 184.08 308.363C183.7 307.79 231.407 311.955 249.517 320.782Z" fill="#3E5409"/>
<path d="M573.029 52.9095L568.152 3.68302C567.929 1.43736 565.929 -0.199644 563.684 0.0196297L514.449 4.90038C512.204 5.11965 510.563 7.12334 510.786 9.36522L515.663 58.5936C515.886 60.8381 517.886 62.4778 520.132 62.2551L531.167 61.1622L532.297 69.1289C532.607 71.333 535.363 72.153 536.83 70.4786L546.308 59.6616L569.366 57.377C571.612 57.1547 573.252 55.1548 573.029 52.9095Z" fill="#E3EEFD"/>
<path d="M556.013 41.282C556.304 40.5683 556.453 39.3522 556.471 37.6338C556.322 35.3928 556.717 33.3822 554.67 33.2456C551.982 33.7456 552.652 39.7293 553.158 41.5347C553.709 42.9761 555.559 42.6344 556.013 41.282ZM562.614 40.8978C561.206 45.7044 555.63 48.3753 550.966 46.9864C545.966 45.5584 545.11 39.1039 546.599 34.7864C548.162 29.0376 556.747 26.15 560.987 30.2925C563.418 32.4438 563.801 37.6197 562.614 40.8978V40.8978ZM550.47 12.3734L555.332 11.8634L535.442 49.287L530.677 49.7881L550.47 12.3734ZM532.766 27.1581C533.212 25.6508 534.121 18.9635 531.422 19.1455C528.742 19.6462 529.393 25.5946 529.911 27.4343C530.465 28.8831 532.315 28.5332 532.766 27.1581ZM537.616 29.9854C534.955 33.45 527.997 34.5567 524.93 31.3199C521.684 28.3303 522.071 20.7533 525.049 17.5739C527.711 14.1119 534.668 13.0025 537.739 16.2412C540.985 19.2304 540.594 26.8074 537.616 29.9854" fill="#739BFD"/>
<path d="M222.592 322.363L218.199 312.733L206.192 315.137L212.442 327.4C216.918 329.182 223.582 330.592 222.592 322.363Z" fill="#FFB6A6"/>
<path d="M223.793 315.137L206.193 322.363L201.674 312.734L218.432 310.589L223.793 315.137Z" fill="#FF8370"/>
<path d="M211.578 327.115C211.578 327.115 218.563 330.185 222.592 322.363L240.628 330.358C243.206 331.58 244.738 334.287 244.46 337.125C244.399 337.123 212.989 336.7 212.945 336.698C211.83 336.654 210.529 335.88 209.977 334.87C209.123 333.821 211.476 328.259 211.578 327.115Z" fill="#38385C"/>
<path d="M113.63 162.697L112.131 175.119L93.7158 201.641L105.175 203.171L123.054 182.935L125.625 162.697H113.63Z" fill="#FFB6A6"/>
<path d="M111.706 164.391L121.542 169.201L121.263 160.948L112.61 160.762L111.706 164.391Z" fill="#FF8370"/>
<path d="M119.875 179.345C119.39 179.96 97.4658 201.978 97.4658 201.978C97.4658 201.978 118.711 193.829 119.875 189.854C121.039 185.876 119.875 179.345 119.875 179.345Z" fill="#FF8370"/>
<path d="M121.602 162.697H111.705L115.146 141.483L123.484 135.856L121.602 162.697" fill="#F85C3D"/>
<path d="M127.366 96.6441L121.167 115.638C120.049 119.064 122.304 122.668 125.875 123.161L135.712 124.518L138.943 140.52H154.558L143.06 96.6441H127.366" fill="#FFB6A6"/>
<path d="M120.878 120.313C120.878 120.313 128.562 122.307 137.261 119.471C137.261 119.471 135.359 122.775 135.895 125.426C136.43 128.076 135.895 125.426 135.895 125.426C135.895 125.426 122.086 125.086 120.878 120.313Z" fill="#FF8370"/>
<path d="M123.528 100.078C123.528 100.078 125.494 107.777 140.5 107.186C155.506 106.596 140.5 107.186 140.5 107.186L128.123 94.8625L123.528 100.078Z" fill="#FF8370"/>
<path d="M128.043 96.6439C128.043 96.6439 134.943 106.283 140.501 107.186L141.592 103.706C141.592 103.706 145.88 107.238 142.334 111.081C142.334 111.081 143.765 116.496 148.73 118.28C149.264 114.781 156.706 90.3233 147.973 85.4255L148.562 89.2959C146.939 85.8282 139.217 84.0345 131.416 83.9588L134.509 86.0991C128.516 84.5104 118.218 87.7122 119.025 96.6439L122.98 92.6612C122.98 92.6612 120.372 96.9538 122.56 102.506C122.56 102.506 127.383 99.2795 128.043 96.6439Z" fill="#38385C"/>
<path d="M119.141 204.354L101.942 251.473C97.7991 253.464 122.205 311.63 122.564 315.137H138.821L131.403 254.843L141.71 235.112L177.112 273.69L204.382 317.043L221.992 313.39L202.645 261.554L167.485 204.378L119.141 204.354" fill="#38385C"/>
<path d="M141.947 204.367C141.947 204.367 129.861 222.589 111.084 226.425C111.084 226.425 141.015 226.826 149.512 204.355L141.947 204.367Z" fill="#1A1A35"/>
<path d="M115.147 204.398H169.52L163.252 140.636C161.396 126.348 148.223 126.756 136.995 127.217C129.41 127.217 123.039 132.922 122.206 140.461L115.147 204.398Z" fill="#F85C3D"/>
<path d="M130.907 215.533C154.775 196.24 158.015 158.148 137.748 135.104L107.975 99.8011L85.7142 118.568C100.06 138.41 140.869 167.873 112.135 193.275C82.2737 217.317 60.031 172.058 42.951 154.622L20.6904 173.391L50.4642 208.693C69.7597 232.557 107.859 235.796 130.907 215.533Z" fill="#38385C"/>
<path d="M92.0641 113.214L124.403 152.628C124.403 152.628 140.83 174.331 117.95 198.673C117.95 198.673 104.99 213.042 82.45 204.833C71.4312 202.478 45.0371 166.965 36.9678 159.666C36.9678 159.666 83.4842 116.621 92.0641 113.214" fill="#1A1A35"/>
<path d="M85.7144 118.568L107.975 99.8019L95.9903 85.5916L73.7295 104.358L85.7144 118.568Z" fill="#F85C3D"/>
<path d="M92.0655 113.214L80.0789 99.0063L73.7295 104.358L85.7144 118.568L92.0655 113.214" fill="#DF4930"/>
<path d="M20.69 173.392L42.9506 154.623L30.9657 140.412L8.70508 159.181L20.69 173.392Z" fill="#F85C3D"/>
<path d="M36.9695 159.666L24.8418 145.575L30.9666 140.411L42.9516 154.622L36.9695 159.666Z" fill="#DF4930"/>
<path d="M159.93 132.635L183.59 165.807L162.942 179.346L159.93 132.635Z" fill="#F85C3D"/>
<path d="M123.858 201.397C123.672 200.618 133.856 196.835 133.856 196.835L177.092 170.067C179.801 174.816 185.159 180.995 181.934 186.127C180.735 188.524 178.684 190.383 176.183 191.345L139.438 205.321C133.528 211.758 133.169 214.77 123.869 210.521C123.656 210.201 126.637 206.172 129.396 202.568C126.587 202.922 124.015 202.058 123.858 201.397" fill="#FFB6A6"/>
<path d="M161.475 179.346C161.475 179.346 178.867 177.835 180.28 173.799L175.941 167.444L161.475 179.346" fill="#FF8370"/>
<path d="M161.864 179.497L147.252 150.978C147.252 150.978 154.576 167.17 149.058 187.423L161.864 179.497Z" fill="#DF4930"/>
<path d="M137.063 327.115L134.712 315.137H123.673L126.718 324.723C126.718 324.723 131.783 330.414 137.063 327.115" fill="#FFB6A6"/>
<path d="M137.062 320.466L123.487 317.501L122.606 314.258L135.718 313.84L137.062 320.466Z" fill="#FF8370"/>
<path d="M137.063 327.115C137.063 327.115 130.078 330.185 126.05 322.363L108.013 330.358C105.436 331.58 103.903 334.287 104.181 337.125L135.637 336.7C136.743 336.686 138.06 335.919 138.633 334.926C139.539 333.845 137.178 328.298 137.063 327.115" fill="#38385C"/>
<path d="M58.9492 55.0546C59.2811 74.4921 88.1995 74.4897 88.5287 55.0546C88.1968 35.617 59.2784 35.6194 58.9492 55.0546Z" fill="#E3EEFD"/>
<path d="M68.8448 55.9191C64.7628 51.9218 67.9299 44.298 73.7397 44.5006C79.5475 44.298 82.7178 51.9218 78.6338 55.9191C92.0371 60.9267 88.2835 81.8603 73.7387 81.6577C59.1958 81.8603 55.4405 60.9219 68.8448 55.9191Z" fill="#739BFD"/>
<path d="M57.9505 103.786C63.4738 120.298 88.1718 112.503 83.2137 95.8138C77.6906 79.3022 52.9926 87.0992 57.9505 103.786Z" fill="#E3EEFD"/>
<path d="M66.6353 101.856C62.0714 99.5424 62.7215 92.1773 67.7379 90.7839C72.644 89.0463 77.4067 94.7056 74.9961 99.2178C87.7934 99.884 90.2308 118.775 77.7537 122.521C65.3871 126.613 56.5361 109.743 66.6353 101.856Z" fill="#739BFD"/>
<path d="M4.10156 144.467C4.32949 157.821 24.1951 157.818 24.4213 144.467C24.1932 131.113 4.32754 131.116 4.10156 144.467Z" fill="#E3EEFD"/>
<path d="M10.8988 145.06C8.09477 142.315 10.2704 137.078 14.2614 137.217C18.2511 137.078 20.4289 142.315 17.6235 145.06C26.831 148.499 24.2525 162.882 14.2606 162.743C4.27046 162.88 1.69075 148.499 10.8988 145.06" fill="#739BFD"/>
<path d="M0.697523 105.454C7.90712 131.28 46.5033 121.214 40.1769 95.1579C32.9675 69.3314 -5.62865 79.398 0.697523 105.454" fill="#E3EEFD"/>
<path d="M14.2053 103.163C7.36569 99.2485 8.939 87.9715 16.7636 86.2193C24.4451 83.9278 31.3304 93.0011 27.2708 99.7561C46.9031 101.774 49.1812 131.022 29.6978 135.815C10.3576 141.145 -1.9431 114.506 14.2053 103.163" fill="#739BFD"/>
<path d="M639.8 338.25H35.9658V335.998H639.8V338.25Z" fill="#38385C"/>
<path d="M383.242 65.1377H334.895C333.196 65.1377 331.818 63.7602 331.818 62.0615V16.7114C331.818 15.0153 333.196 13.6379 334.895 13.6379H383.242C384.938 13.6379 386.315 15.0153 386.315 16.7114V62.0615C386.315 63.7602 384.938 65.1377 383.242 65.1377Z" fill="#E3EEFD"/>
<path d="M346.874 28.5466C346.874 28.5466 349.565 41.8545 367.363 39.6107L376.951 46.8359C378.037 47.6089 378.383 48.9557 378.28 50.2275H359.755C358.119 50.2275 356.555 49.558 355.425 48.3715L346.874 39.3884V50.2275H343.436C343.436 50.2275 344.178 41.7046 341.562 38.5663C341.562 38.5663 340.295 33.7814 346.874 28.5466Z" fill="#739BFD"/>
<path d="M449.479 204.07C449.364 210.788 439.37 210.788 439.255 204.068C439.37 197.349 449.367 197.349 449.479 204.07Z" fill="#D1DAF7"/>
<path d="M426.101 119.48C426.087 123.25 420.351 123.25 420.334 119.48C420.351 115.71 426.087 115.71 426.101 119.48Z" fill="#D1DAF7"/>
<path d="M590.507 243.334C590.344 252.967 576.015 252.964 575.852 243.334C576.015 233.705 590.344 233.705 590.507 243.334Z" fill="#D1DAF7"/>
<path d="M226.33 139.253C226.311 143.694 219.556 143.694 219.536 139.253C219.556 134.811 226.311 134.811 226.33 139.253Z" fill="#D1DAF7"/>
<path d="M168.207 72.0912C168.114 77.5308 160.022 77.5308 159.93 72.0912C160.023 66.6516 168.115 66.654 168.207 72.0912Z" fill="#D1DAF7"/>
<path d="M91.5477 291.803C91.3744 301.946 76.287 301.943 76.1152 291.803C76.2885 281.664 91.3759 281.666 91.5477 291.803Z" fill="#D1DAF7"/>
<path d="M258.719 337.126H388.481C393.564 337.126 397.687 333.004 397.687 327.918V83.245C397.687 78.1624 393.564 74.0396 388.481 74.0396H258.719C253.637 74.0396 249.514 78.1624 249.514 83.245V327.918C249.514 333.004 253.637 337.126 258.719 337.126Z" fill="#38385C"/>
<path d="M386.112 317.778H261.093V93.3853H386.112V317.778Z" fill="#B9D4FD"/>
<path d="M296.274 172.134H273.464C271.427 172.134 269.774 170.482 269.774 168.446V145.639C269.774 143.601 271.427 141.951 273.464 141.951H296.274C298.312 141.951 299.964 143.601 299.964 145.639V168.446C299.964 170.482 298.312 172.134 296.274 172.134Z" fill="#E3EEFD"/>
<path d="M335.008 172.134H312.198C310.16 172.134 308.508 170.482 308.508 168.446V145.639C308.508 143.601 310.16 141.951 312.198 141.951H335.008C337.046 141.951 338.698 143.601 338.698 145.639V168.446C338.698 170.482 337.046 172.134 335.008 172.134Z" fill="#E3EEFD"/>
<path d="M373.741 172.134H350.93C348.89 172.134 347.242 170.482 347.242 168.446V145.639C347.242 143.602 348.89 141.95 350.93 141.95H373.741C375.776 141.95 377.429 143.602 377.429 145.639V168.446C377.429 170.482 375.776 172.134 373.741 172.134Z" fill="#E3EEFD"/>
<path d="M296.274 214.887H273.464C271.427 214.887 269.774 213.235 269.774 211.199V188.392C269.774 186.354 271.427 184.704 273.464 184.704H296.274C298.312 184.704 299.964 186.354 299.964 188.392V211.199C299.964 213.235 298.312 214.887 296.274 214.887" fill="#E3EEFD"/>
<path d="M335.008 214.887H312.198C310.16 214.887 308.508 213.235 308.508 211.199V188.392C308.508 186.354 310.16 184.704 312.198 184.704H335.008C337.046 184.704 338.698 186.354 338.698 188.392V211.199C338.698 213.235 337.046 214.887 335.008 214.887" fill="#E3EEFD"/>
<path d="M373.741 214.887H350.93C348.89 214.887 347.242 213.234 347.242 211.199V188.392C347.242 186.354 348.89 184.704 350.93 184.704H373.741C375.776 184.704 377.429 186.354 377.429 188.392V211.199C377.429 213.234 375.776 214.887 373.741 214.887Z" fill="#E3EEFD"/>
<path d="M296.274 257.64H273.464C271.427 257.64 269.774 255.99 269.774 253.952V231.144C269.774 229.109 271.427 227.457 273.464 227.457H296.274C298.312 227.457 299.964 229.109 299.964 231.144V253.952C299.964 255.99 298.312 257.64 296.274 257.64Z" fill="#E3EEFD"/>
<path d="M335.008 257.64H312.198C310.16 257.64 308.508 255.99 308.508 253.952V231.144C308.508 229.109 310.16 227.457 312.198 227.457H335.008C337.046 227.457 338.698 229.109 338.698 231.144V253.952C338.698 255.99 337.046 257.64 335.008 257.64Z" fill="#E3EEFD"/>
<path d="M373.741 257.64H350.93C348.89 257.64 347.242 255.99 347.242 253.952V231.145C347.242 229.11 348.89 227.457 350.93 227.457H373.741C375.776 227.457 377.429 229.11 377.429 231.145V253.952C377.429 255.99 375.776 257.64 373.741 257.64Z" fill="#E3EEFD"/>
<path d="M373.741 172.134H362.364L377.429 157.199V168.446C377.429 170.482 375.776 172.134 373.741 172.134Z" fill="#E9F1FD"/>
<path d="M335.008 214.888H319.243L338.698 195.601V211.2C338.698 213.236 337.046 214.888 335.008 214.888Z" fill="#E9F1FD"/>
<path d="M373.74 214.887H350.929C348.889 214.887 347.241 213.234 347.241 211.199V188.392C347.241 187.801 347.38 187.242 347.626 186.747L349.31 185.075C349.797 184.838 350.347 184.704 350.929 184.704H373.74C375.775 184.704 377.428 186.354 377.428 188.392V211.199C377.428 213.234 375.775 214.887 373.74 214.887" fill="#E9F1FD"/>
<path d="M296.274 257.641H276.119L299.964 234.001V253.953C299.964 255.991 298.312 257.641 296.274 257.641" fill="#E9F1FD"/>
<path d="M335.008 257.641H312.198C310.16 257.641 308.508 255.991 308.508 253.953V231.146C308.508 229.11 310.16 227.458 312.198 227.458H335.008C337.046 227.458 338.698 229.11 338.698 231.146V253.953C338.698 255.991 337.046 257.641 335.008 257.641Z" fill="#E9F1FD"/>
<path d="M373.74 257.64H350.929C348.889 257.64 347.241 255.99 347.241 253.952V231.145C347.241 229.109 348.889 227.457 350.929 227.457H373.74C375.775 227.457 377.428 229.109 377.428 231.145V253.952C377.428 255.99 375.775 257.64 373.74 257.64Z" fill="#E9F1FD"/>
<path d="M389.897 93.3871L267.379 99.005L263.224 317.134H256.074V89.5645L389.897 93.3871Z" fill="#739BFD"/>
<path d="M257.824 118.92C257.824 118.92 272.915 124.388 281.952 115.545C286.175 122.537 299.348 120.513 302.81 114.6C306.93 121.382 319.443 121.471 323.6 114.708C327.733 121.65 340.583 120.645 344.529 114.49C349.868 121.526 360.73 120.505 365.39 113.61C372.445 122.406 384.761 118.212 388.32 109.222V99.897H256.537L257.824 118.92" fill="#739BFD"/>
<path d="M334.609 85.7568H310.96C309.822 85.7568 308.902 84.8344 308.902 83.6972C308.902 82.56 309.822 81.6399 310.96 81.6399H334.609C335.746 81.6399 336.669 82.56 336.669 83.6972C336.669 84.8344 335.746 85.7568 334.609 85.7568Z" fill="white"/>
<path d="M271.524 115.544C259.075 115.088 261.101 102.068 261.094 93.378C261.028 91.3013 263.143 89.6077 264.818 89.7248C265.152 89.7248 281.954 89.7248 281.954 89.7248C281.527 98.6175 285.197 115.268 271.524 115.544" fill="#F85C3D"/>
<path d="M292.381 115.544C278.708 115.276 282.378 98.5956 281.953 89.7248H302.811C302.384 98.6175 306.057 115.268 292.381 115.544" fill="white"/>
<path d="M313.242 115.544C299.566 115.276 303.239 98.5956 302.812 89.7248H323.672C323.245 98.6175 326.918 115.268 313.242 115.544Z" fill="#F85C3D"/>
<path d="M334.099 115.544C320.426 115.276 324.096 98.5956 323.671 89.7248H344.529C344.102 98.6175 347.775 115.268 334.099 115.544" fill="white"/>
<path d="M354.961 115.542C341.289 115.274 344.959 98.5949 344.532 89.7236H365.393C364.966 98.6176 368.638 115.267 354.961 115.542Z" fill="#F85C3D"/>
<path d="M375.821 115.544C362.144 115.277 365.813 98.5968 365.39 89.7264H382.53C384.583 89.7264 386.247 91.3904 386.247 93.4433C386.249 102.113 388.236 115.097 375.821 115.544Z" fill="white"/>
<path d="M374.733 304.256H329.25C328.018 304.256 327.019 303.258 327.019 302.025V273.72C327.019 272.487 328.018 271.489 329.25 271.489H374.733C375.967 271.489 376.964 272.487 376.964 273.72V302.025C376.964 303.258 375.967 304.256 374.733 304.256Z" fill="#E3EEFD"/>
<path d="M351.902 283.337H347.556V286.48H351.902V283.337Z" fill="#A4C4FF"/>
<path d="M352.915 294.849H356.939V291.517H352.915V294.849Z" fill="#A4C4FF"/>
<path d="M351.902 287.493H347.556V290.504H351.902V287.493Z" fill="#A4C4FF"/>
<path d="M356.939 287.493H352.915V290.505H356.939V287.493Z" fill="#A4C4FF"/>
<path d="M357.95 286.48H362.697L363.383 283.337H357.95V286.48Z" fill="#A4C4FF"/>
<path d="M346.543 287.493H341.675L342.451 290.504H346.543V287.493Z" fill="#A4C4FF"/>
<path d="M346.543 294.849V291.517H342.712L343.573 294.849H346.543Z" fill="#A4C4FF"/>
<path d="M347.556 294.849H351.902V291.517H347.556V294.849Z" fill="#A4C4FF"/>
<path d="M346.543 295.862H343.834L344.542 298.604H346.543V295.862Z" fill="#A4C4FF"/>
<path d="M346.543 286.48V283.337H340.601L341.413 286.48H346.543Z" fill="#A4C4FF"/>
<path d="M357.95 295.862V298.604H360.057L360.654 295.862H357.95Z" fill="#A4C4FF"/>
<path d="M357.953 287.493V290.505H361.824L362.48 287.493H357.953Z" fill="#A4C4FF"/>
<path d="M351.902 298.604V295.862H347.556V298.604H351.902Z" fill="#A4C4FF"/>
<path d="M356.939 295.861H352.915V298.604H356.939V295.861Z" fill="#A4C4FF"/>
<path d="M361.601 291.519H357.95V294.85H360.874L361.601 291.519" fill="#A4C4FF"/>
<path d="M352.915 283.337V286.48H356.939V283.337H352.915Z" fill="#A4C4FF"/>
<path d="M359.065 282.096H358.105C358.658 274.75 355.798 276.06 350.068 275.96C346.624 276.056 346.964 279.631 347.026 282.096H346.066C345.526 274.26 348.701 274.945 355.063 274.999C359.213 275.218 359.223 278.886 359.065 282.096" fill="#A4C4FF"/>
<path d="M317.305 304.256H271.824C270.591 304.256 269.591 303.258 269.591 302.025V273.719C269.591 272.487 270.591 271.489 271.824 271.489H317.305C318.537 271.489 319.538 272.487 319.538 273.719V302.025C319.538 303.258 318.537 304.256 317.305 304.256Z" fill="#E3EEFD"/>
<path d="M283.267 295.251C285.617 295.456 284.792 292.369 284.931 291C284.98 289.424 284.343 288.85 282.842 289.033V295.227C283.02 295.244 283.162 295.251 283.267 295.251ZM282.842 285.692C284.155 285.817 284.697 285.556 284.653 284.126V281.976C284.731 280.797 283.633 280.926 282.842 280.943V285.692ZM278.664 299.017V277.639C282.874 277.91 289.27 276.014 288.916 282.522C288.994 284.426 288.779 286.62 286.73 287.125C290.322 287.898 289.616 296.345 287.362 298.155C285.939 299.61 280.572 298.831 278.664 299.017" fill="#A4C4FF"/>
<path d="M295.512 299.211C291.745 299.206 290.332 296.968 290.314 293.295V277.638H294.468C294.919 278.773 293.345 295.87 295.512 295.275C297.665 296.038 296.115 278.626 296.557 277.638H300.713V293.295C300.693 296.968 299.283 299.208 295.512 299.211" fill="#A4C4FF"/>
<path d="M304.939 299.016V291.982L301.525 277.638H305.767L306.958 284.876L308.146 277.638H312.375L308.973 291.982V299.016H304.939" fill="#A4C4FF"/>
<path d="M289.946 96.793H221.401C218.994 96.793 217.042 94.8407 217.042 92.432V28.1379C217.042 25.7317 218.994 23.7794 221.401 23.7794H289.946C292.352 23.7794 294.304 25.7317 294.304 28.1379V92.432C294.304 94.8407 292.352 96.793 289.946 96.793Z" fill="#E3EEFD"/>
<path d="M283.919 44.1609L272.185 37.3865V37.2986H265.43C265.372 50.213 245.742 50.2057 245.685 37.2986H238.93V37.5256L238.799 37.2986L226.914 44.1609L234.56 57.4024L238.93 54.879V81.6426H272.185V55.0425L276.273 57.4024L283.919 44.1609" fill="#739BFD"/>
</svg>
