<svg width="40" height="40" viewBox="0 0 40 40" fill="none" xmlns="http://www.w3.org/2000/svg">
<rect width="40" height="40" rx="20" fill="#EF466F"/>
<path opacity="0.7" d="M26.8775 20C25.9925 20 25.1687 20.3712 24.5887 20.995C24.0087 20.3712 23.185 20 22.3 20C20.5787 20 19.1775 21.3975 19.1775 23.115C19.1775 26.0425 23.7 29.4925 24.2162 29.8762C24.4362 30.0412 24.7412 30.0412 24.9625 29.8762C25.4775 29.4925 30 26.0425 30 23.115C30 21.3975 28.6 20 26.8775 20Z" fill="white"/>
<path d="M19.2463 20H13.125C11.4013 20 10 21.4013 10 23.125V26.0413C10 26.3863 10.28 26.6663 10.625 26.6663H19.25C17.6488 24.3438 17.33 21.8713 19.2463 20Z" fill="white"/>
<path d="M20.9913 14.2656C20.9913 16.4747 19.2005 18.2656 16.9913 18.2656C14.7822 18.2656 12.9913 16.4747 12.9913 14.2656C12.9913 12.0564 14.7822 10.2656 16.9913 10.2656C19.2005 10.2656 20.9913 12.0564 20.9913 14.2656Z" fill="white"/>
</svg>
