<svg width="650" height="461" viewBox="0 0 650 461" fill="none" xmlns="http://www.w3.org/2000/svg">
<g clip-path="url(#clip0_8148_1843)">
<path d="M412.613 13.3506C461.444 28.5099 514.515 53.3841 543.184 96.3696C581.081 153.193 607.877 238.057 582.95 312.493C557.807 387.563 463.325 444.425 384.94 440.898C324.307 438.17 278.314 399.535 219.523 425.089C193.763 436.285 191.488 448.53 175.993 448.762C120.63 449.588 30.8877 295.019 72.7316 167.728C117.849 30.4752 276.846 -28.7923 412.613 13.3506Z" fill="#D2E5FA"/>
<path d="M194.449 405.247C206.545 395.96 221.605 400.067 226.49 400.574C234.859 401.444 236.578 407.505 243.095 406.805C253.201 405.718 253.666 390.632 265.047 387.279C274.683 384.441 277.588 394.299 291.364 393.114C302.023 392.197 304.358 385.943 316.764 385.703C321.424 385.612 328.551 385.473 332.025 390.106C336.935 396.656 333.112 410.835 325.094 415.657C315.69 421.314 306.84 410.297 296.403 415.74C286.41 420.952 289.416 433.721 280.027 437.932C270.476 442.214 263.069 430.927 250.255 432.429C237.467 433.924 237.335 447.906 223.66 455.242C205.223 465.135 176.562 457.049 173.741 445.093C171.483 435.503 176.796 418.801 194.449 405.247Z" fill="#79E069"/>
<path d="M183.213 402.467C185.572 385.198 201.378 376.041 205.829 372.422C213.453 366.219 219.855 369.581 224.658 363.665C232.108 354.49 220.098 342.228 226.74 330.222C232.362 320.056 242.861 325.431 253.261 313.161C261.309 303.666 258.098 296.821 268.143 286.422C271.916 282.516 277.687 276.541 284.363 277.332C293.799 278.451 302.296 292.762 299.639 303.155C296.524 315.348 280.163 313.953 276.019 326.828C272.051 339.158 285.025 346.74 280.733 357.783C276.365 369.017 260.974 366.22 251.629 377.948C242.303 389.651 253.68 400.771 248.417 417.802C241.322 440.771 211.014 457.982 198.861 450.886C189.112 445.197 179.775 427.67 183.213 402.467Z" fill="#79E069"/>
<path d="M199.847 440.882C197.358 433.862 194.623 422.105 198.722 409.597C202.528 397.993 210.596 390.665 217.38 384.504C230.835 372.281 236.069 374.731 240.864 366.168C247.486 354.344 239.22 346.637 246.333 335.606C251.656 327.351 258.14 328.79 265.632 320.166C272.813 311.9 274.553 301.721 274.961 294.75" stroke="#5AA64E" stroke-width="0.649326" stroke-miterlimit="10" stroke-linecap="round"/>
<path d="M180.721 443.928C183.32 437.713 188.637 428.175 198.986 422.288C208.587 416.829 218.448 416.827 226.737 416.825C243.183 416.825 245.197 421.64 253.614 418.82C265.238 414.926 264.387 404.74 275.857 401.675C284.439 399.382 287.909 404.288 298.172 403.067C308.007 401.896 315.36 396.135 319.87 391.717" stroke="#5AA64E" stroke-width="0.649326" stroke-miterlimit="10" stroke-linecap="round"/>
<path d="M79.9618 425.393C78.5021 413.176 67.6429 406.798 64.5972 404.265C59.3769 399.925 54.9082 402.351 51.6396 398.194C46.5715 391.746 55.0142 382.972 50.5346 374.516C46.7414 367.353 39.4132 371.235 32.3323 362.614C26.8538 355.945 29.1465 351.073 22.2926 343.776C19.7103 341.036 15.7798 336.844 11.148 337.449C4.59991 338.308 -1.43176 348.505 0.303805 355.853C2.34245 364.468 13.6882 363.366 16.4295 372.458C19.0539 381.164 9.99008 386.628 12.8523 394.42C15.7649 402.349 26.4555 400.264 32.812 408.503C39.1685 416.741 31.1607 424.684 34.6346 436.713C39.3248 452.933 60.1421 464.917 68.6324 459.813C75.4442 455.705 82.0901 443.223 79.9618 425.393Z" fill="#79E069"/>
<path d="M56.6491 435.808C59.1776 430.018 59.726 423.556 58.2093 417.422C56.3066 410.483 51.7618 405.937 47.9454 402.115C40.3712 394.534 37.2235 395.825 34.6467 390.647C31.0858 383.495 36.1743 379.195 32.3036 372.497C29.4073 367.485 25.5475 368.148 21.3832 362.848C18.1622 358.435 16.4899 353.081 16.6264 347.619" stroke="#5AA64E" stroke-width="0.649326" stroke-miterlimit="10" stroke-linecap="round"/>
<path d="M223.704 142.212L41.0825 142.422L41.4202 435.553L224.042 435.343L223.704 142.212Z" fill="white"/>
<path d="M124.805 283.743H53.6348V354.914H124.805V283.743Z" fill="#D9D9D9"/>
<path d="M204.671 283.743H133.501V354.914H204.671V283.743Z" fill="#D9D9D9"/>
<path d="M124.805 363.609H53.6348V434.78H124.805V363.609Z" fill="#D9D9D9"/>
<path d="M204.671 363.609H133.501V434.78H204.671V363.609Z" fill="#D9D9D9"/>
<path d="M67.9487 268.46C75.8061 268.46 82.1757 262.091 82.1757 254.233C82.1757 246.376 75.8061 240.006 67.9487 240.006C60.0913 240.006 53.7217 246.376 53.7217 254.233C53.7217 262.091 60.0913 268.46 67.9487 268.46Z" fill="#D9D9D9"/>
<path d="M67.9503 266.085C65.6063 266.085 63.3148 265.39 61.3657 264.088C59.4166 262.786 57.8974 260.935 57.0002 258.77C56.103 256.604 55.8681 254.221 56.3252 251.922C56.7823 249.623 57.911 247.512 59.5683 245.854C61.2257 244.196 63.3374 243.068 65.6364 242.61C67.9354 242.153 70.3183 242.387 72.484 243.284C74.6496 244.181 76.5006 245.7 77.8029 247.649C79.1052 249.598 79.8003 251.89 79.8003 254.234C79.7967 257.375 78.5471 260.388 76.3256 262.609C74.1042 264.831 71.0922 266.081 67.9503 266.085ZM67.9503 243.722C65.8714 243.722 63.839 244.338 62.1102 245.493C60.3815 246.648 59.034 248.29 58.2382 250.21C57.4425 252.131 57.2341 254.244 57.6395 256.283C58.045 258.323 59.046 260.196 60.5159 261.666C61.9859 263.136 63.8588 264.137 65.8978 264.543C67.9369 264.949 70.0504 264.74 71.9711 263.945C73.8919 263.149 75.5336 261.802 76.6887 260.074C77.8437 258.345 78.4602 256.313 78.4602 254.234C78.4588 251.446 77.3513 248.773 75.3808 246.801C73.4103 244.829 70.7379 243.72 67.9503 243.717V243.722Z" fill="white"/>
<path d="M108.751 268.46C116.609 268.46 122.978 262.091 122.978 254.233C122.978 246.376 116.609 240.006 108.751 240.006C100.894 240.006 94.5244 246.376 94.5244 254.233C94.5244 262.091 100.894 268.46 108.751 268.46Z" fill="#D9D9D9"/>
<path d="M108.751 266.085C106.407 266.085 104.116 265.39 102.167 264.088C100.218 262.785 98.699 260.934 97.802 258.769C96.905 256.603 96.6703 254.221 97.1276 251.922C97.5849 249.623 98.7136 247.511 100.371 245.854C102.029 244.196 104.14 243.067 106.439 242.61C108.738 242.153 111.121 242.387 113.287 243.284C115.452 244.181 117.303 245.7 118.605 247.649C119.907 249.598 120.603 251.89 120.603 254.234C120.599 257.376 119.349 260.388 117.127 262.61C114.906 264.832 111.893 266.081 108.751 266.085ZM108.751 243.722C106.672 243.722 104.64 244.339 102.911 245.494C101.183 246.649 99.8357 248.29 99.0401 250.211C98.2445 252.132 98.0364 254.245 98.4419 256.284C98.8475 258.323 99.8486 260.196 101.319 261.666C102.789 263.136 104.662 264.137 106.701 264.543C108.74 264.949 110.853 264.74 112.774 263.945C114.694 263.149 116.336 261.802 117.491 260.073C118.646 258.345 119.262 256.313 119.262 254.234C119.261 251.446 118.153 248.773 116.183 246.801C114.212 244.829 111.539 243.72 108.751 243.717V243.722Z" fill="white"/>
<path d="M149.554 268.46C157.412 268.46 163.781 262.091 163.781 254.233C163.781 246.376 157.412 240.006 149.554 240.006C141.697 240.006 135.327 246.376 135.327 254.233C135.327 262.091 141.697 268.46 149.554 268.46Z" fill="#D9D9D9"/>
<path d="M149.548 266.085C147.204 266.085 144.912 265.39 142.963 264.088C141.014 262.785 139.495 260.934 138.598 258.769C137.701 256.603 137.467 254.221 137.924 251.922C138.381 249.623 139.51 247.511 141.167 245.854C142.825 244.196 144.937 243.067 147.236 242.61C149.534 242.153 151.917 242.387 154.083 243.284C156.248 244.181 158.099 245.7 159.402 247.649C160.704 249.598 161.399 251.89 161.399 254.234C161.395 257.376 160.146 260.388 157.924 262.61C155.702 264.832 152.69 266.081 149.548 266.085ZM149.548 243.722C147.469 243.722 145.436 244.339 143.708 245.494C141.979 246.649 140.632 248.29 139.836 250.211C139.041 252.132 138.833 254.245 139.238 256.284C139.644 258.323 140.645 260.196 142.115 261.666C143.585 263.136 145.458 264.137 147.497 264.543C149.536 264.949 151.649 264.74 153.57 263.945C155.491 263.149 157.132 261.802 158.287 260.073C159.442 258.345 160.059 256.313 160.059 254.234C160.057 251.446 158.95 248.773 156.979 246.801C155.008 244.829 152.335 243.72 149.548 243.717V243.722Z" fill="white"/>
<path d="M190.357 268.46C198.215 268.46 204.584 262.091 204.584 254.233C204.584 246.376 198.215 240.006 190.357 240.006C182.5 240.006 176.13 246.376 176.13 254.233C176.13 262.091 182.5 268.46 190.357 268.46Z" fill="#D9D9D9"/>
<path d="M190.357 266.085C188.013 266.085 185.722 265.39 183.773 264.088C181.824 262.785 180.305 260.934 179.408 258.769C178.511 256.603 178.276 254.221 178.734 251.922C179.191 249.623 180.32 247.511 181.977 245.854C183.634 244.196 185.746 243.067 188.045 242.61C190.344 242.153 192.727 242.387 194.892 243.284C197.058 244.181 198.909 245.7 200.211 247.649C201.513 249.598 202.209 251.89 202.209 254.234C202.205 257.376 200.955 260.388 198.733 262.61C196.512 264.832 193.499 266.081 190.357 266.085ZM190.357 243.722C188.278 243.722 186.246 244.338 184.517 245.493C182.788 246.648 181.441 248.29 180.645 250.21C179.849 252.131 179.641 254.244 180.046 256.283C180.452 258.323 181.453 260.196 182.923 261.666C184.393 263.136 186.266 264.137 188.305 264.543C190.344 264.949 192.457 264.74 194.378 263.945C196.299 263.149 197.94 261.802 199.096 260.074C200.251 258.345 200.867 256.313 200.867 254.234C200.866 251.446 199.758 248.773 197.788 246.801C195.817 244.829 193.145 243.72 190.357 243.717V243.722Z" fill="white"/>
<path d="M64.98 249.696V258.783L71.3256 254.24L64.98 249.696Z" fill="white"/>
<path d="M113.155 253.266H104.104V259.557H113.155V253.266Z" fill="white"/>
<path d="M114.57 253.774H102.688L104.862 249.415H112.396L114.57 253.774Z" fill="white"/>
<path d="M109.793 259.556H107.463V256.527C107.463 256.218 107.586 255.922 107.805 255.703C108.023 255.485 108.319 255.362 108.628 255.362C108.937 255.362 109.233 255.485 109.452 255.703C109.67 255.922 109.793 256.218 109.793 256.527V259.556Z" fill="#D9D9D9"/>
<path d="M170.766 223.811L166.198 219.462C165.992 219.202 165.839 218.904 165.749 218.585C165.659 218.266 165.634 217.932 165.675 217.603C165.715 217.274 165.821 216.957 165.986 216.669C166.15 216.381 166.371 216.129 166.634 215.928C166.897 215.726 167.198 215.579 167.519 215.495C167.839 215.411 168.174 215.392 168.502 215.438C168.83 215.485 169.146 215.597 169.431 215.767C169.715 215.937 169.963 216.162 170.16 216.428L170.805 217.271L171.361 216.532C171.558 216.27 171.805 216.049 172.087 215.883C172.37 215.717 172.682 215.607 173.007 215.562C173.331 215.516 173.662 215.534 173.979 215.616C174.296 215.698 174.594 215.842 174.856 216.039C175.118 216.236 175.338 216.483 175.505 216.765C175.671 217.048 175.781 217.36 175.826 217.685C175.872 218.009 175.853 218.339 175.771 218.657C175.69 218.974 175.546 219.272 175.349 219.534L170.766 223.811Z" fill="#F7204B"/>
<path d="M149.547 255.91L143.799 251.59V258.692H155.295V251.59L149.547 255.91Z" fill="white"/>
<path d="M154.954 250.176H144.156L149.547 254.233L154.954 250.176Z" fill="white"/>
<path d="M82.1757 224.385C74.6292 224.385 67.3918 221.387 62.0557 216.051C56.7195 210.715 53.7217 203.478 53.7217 195.931C53.7211 192.194 54.4567 188.494 55.8864 185.041C57.3161 181.588 59.4119 178.451 62.0541 175.808C64.6964 173.165 67.8333 171.069 71.2858 169.638C74.7383 168.208 78.4387 167.472 82.1757 167.472C85.9128 167.472 89.6133 168.208 93.0659 169.638C96.5184 171.068 99.6554 173.165 102.298 175.808C104.94 178.45 107.036 181.588 108.465 185.041C109.895 188.493 110.63 192.194 110.63 195.931C110.63 203.478 107.632 210.715 102.296 216.051C96.9596 221.387 89.7222 224.385 82.1757 224.385Z" fill="#D9D9D9"/>
<path d="M94.5246 212.473C94.5246 209.198 93.2236 206.057 90.9078 203.741C88.5919 201.425 85.451 200.124 82.1759 200.124C78.9008 200.124 75.7598 201.425 73.444 203.741C71.1282 206.057 69.8271 209.198 69.8271 212.473H94.5246Z" fill="white"/>
<path d="M82.1762 201.365C79.9439 201.365 77.803 200.478 76.2245 198.9C74.6461 197.321 73.7593 195.18 73.7593 192.948V185.311C73.7593 183.079 74.6461 180.938 76.2245 179.36C77.803 177.781 79.9439 176.895 82.1762 176.895C84.4085 176.895 86.5493 177.781 88.1278 179.36C89.7063 180.938 90.593 183.079 90.593 185.311V192.948C90.593 195.18 89.7063 197.321 88.1278 198.9C86.5493 200.478 84.4085 201.365 82.1762 201.365Z" fill="white"/>
<path d="M77.7871 192.43C77.8074 193.582 78.2791 194.68 79.1008 195.487C79.9225 196.294 81.0284 196.747 82.1804 196.747C83.3324 196.747 84.4383 196.294 85.26 195.487C86.0816 194.68 86.5534 193.582 86.5737 192.43H77.7871Z" fill="#D9D9D9"/>
<path d="M116.389 216.223C117.363 210.225 113.289 204.573 107.291 203.599C101.292 202.626 95.6404 206.699 94.6669 212.698C93.6935 218.696 97.767 224.348 103.765 225.322C109.764 226.295 115.416 222.222 116.389 216.223Z" fill="#79E069"/>
<path d="M104.383 219.972L99.1818 214.496C99.0605 214.368 98.9656 214.218 98.9024 214.054C98.8392 213.889 98.8089 213.714 98.8134 213.538C98.8179 213.362 98.857 213.189 98.9285 213.028C99 212.867 99.1025 212.722 99.2301 212.601C99.3577 212.479 99.5079 212.384 99.6722 212.321C99.8366 212.258 100.012 212.228 100.188 212.232C100.364 212.237 100.537 212.276 100.698 212.347C100.859 212.419 101.004 212.521 101.125 212.649L104.369 216.064L109.795 210.277C110.038 210.018 110.374 209.866 110.73 209.854C111.085 209.843 111.43 209.973 111.69 210.216C111.949 210.459 112.101 210.795 112.113 211.151C112.124 211.506 111.994 211.851 111.751 212.111L104.383 219.972Z" fill="white"/>
<path d="M154.131 178.234H130.89C130.535 178.234 130.194 178.093 129.943 177.841C129.691 177.59 129.55 177.249 129.55 176.894C129.55 176.538 129.691 176.198 129.943 175.946C130.194 175.695 130.535 175.554 130.89 175.554H154.131C154.486 175.554 154.827 175.695 155.078 175.946C155.33 176.198 155.471 176.538 155.471 176.894C155.471 177.249 155.33 177.59 155.078 177.841C154.827 178.093 154.486 178.234 154.131 178.234Z" fill="#D9D9D9"/>
<path d="M180.704 186.752H130.885C130.529 186.752 130.188 186.611 129.937 186.36C129.686 186.109 129.544 185.768 129.544 185.412C129.544 185.057 129.686 184.716 129.937 184.465C130.188 184.213 130.529 184.072 130.885 184.072H180.704C181.059 184.072 181.4 184.213 181.651 184.465C181.902 184.716 182.044 185.057 182.044 185.412C182.044 185.768 181.902 186.109 181.651 186.36C181.4 186.611 181.059 186.752 180.704 186.752Z" fill="#D9D9D9"/>
<path d="M165.409 195.271H130.888C130.533 195.271 130.192 195.13 129.941 194.879C129.69 194.628 129.548 194.287 129.548 193.931C129.548 193.576 129.69 193.235 129.941 192.984C130.192 192.733 130.533 192.591 130.888 192.591H165.409C165.765 192.591 166.106 192.733 166.357 192.984C166.608 193.235 166.75 193.576 166.75 193.931C166.75 194.287 166.608 194.628 166.357 194.879C166.106 195.13 165.765 195.271 165.409 195.271Z" fill="#D9D9D9"/>
<path d="M180.704 203.79H130.885C130.529 203.79 130.188 203.649 129.937 203.398C129.686 203.146 129.544 202.805 129.544 202.45C129.544 202.095 129.686 201.754 129.937 201.502C130.188 201.251 130.529 201.11 130.885 201.11H180.704C181.059 201.11 181.4 201.251 181.651 201.502C181.902 201.754 182.044 202.095 182.044 202.45C182.044 202.805 181.902 203.146 181.651 203.398C181.4 203.649 181.059 203.79 180.704 203.79Z" fill="#D9D9D9"/>
<path d="M191.577 221.401H179.546C179.19 221.401 178.849 221.26 178.598 221.009C178.346 220.757 178.205 220.416 178.205 220.06C178.205 219.705 178.346 219.364 178.598 219.112C178.849 218.861 179.19 218.72 179.546 218.72H191.577C191.932 218.72 192.273 218.861 192.525 219.112C192.776 219.364 192.917 219.705 192.917 220.06C192.917 220.416 192.776 220.757 192.525 221.009C192.273 221.26 191.932 221.401 191.577 221.401Z" fill="#D9D9D9"/>
<path d="M183.856 369.003C183.494 376.577 179.334 432.236 179.066 434.974C178.856 437.139 163.844 437.572 163.768 436.614C163.323 431.269 157.942 372.674 157.589 368.844C156.993 362.377 162.786 345.306 165.14 335.649L190.621 340.62C189.69 348.191 183.856 369.003 183.856 369.003Z" fill="#FAAF78"/>
<path d="M163.379 432.803L137.479 447.481C136.886 447.817 136.423 448.341 136.164 448.971C135.905 449.6 135.864 450.299 136.048 450.954C136.232 451.61 136.631 452.184 137.18 452.587C137.73 452.989 138.398 453.195 139.079 453.173L181.334 452.033C184.532 451.829 179.608 430.101 179.608 430.101L178.021 432.016C177.141 433.076 176.052 433.942 174.822 434.561C173.592 435.179 172.247 435.537 170.871 435.61C169.496 435.684 168.121 435.472 166.831 434.989C165.542 434.505 164.367 433.76 163.379 432.8V432.803Z" fill="#F7204B"/>
<path d="M134.543 449.789L134.62 452.9C134.64 453.743 135.34 454.409 136.183 454.388L182.124 453.252C182.967 453.232 183.633 452.532 183.612 451.689L183.535 448.578C183.514 447.735 182.814 447.069 181.972 447.089L136.031 448.225C135.188 448.246 134.522 448.946 134.543 449.789Z" fill="#FF9B21"/>
<path d="M162.908 439.798C163.149 439.794 163.383 439.723 163.586 439.594C163.79 439.466 163.953 439.283 164.06 439.068C164.167 438.852 164.212 438.612 164.192 438.372C164.171 438.132 164.085 437.903 163.942 437.709L161.027 433.739C160.818 433.467 160.511 433.288 160.171 433.24C159.831 433.192 159.486 433.279 159.21 433.482C158.933 433.685 158.747 433.988 158.691 434.326C158.636 434.665 158.714 435.012 158.911 435.293L161.828 439.263C161.952 439.432 162.114 439.569 162.302 439.662C162.491 439.755 162.698 439.802 162.908 439.798Z" fill="#FF9B21"/>
<path d="M158.622 442.415C158.863 442.411 159.097 442.34 159.301 442.212C159.504 442.083 159.668 441.901 159.774 441.685C159.881 441.47 159.927 441.229 159.906 440.989C159.885 440.75 159.799 440.521 159.657 440.327L156.74 436.357C156.638 436.218 156.51 436.1 156.362 436.011C156.215 435.922 156.051 435.862 155.881 435.836C155.711 435.81 155.537 435.818 155.37 435.859C155.202 435.9 155.045 435.974 154.906 436.076C154.767 436.178 154.65 436.306 154.56 436.454C154.471 436.601 154.412 436.765 154.386 436.935C154.36 437.105 154.367 437.279 154.408 437.446C154.45 437.614 154.523 437.771 154.625 437.91L157.54 441.88C157.665 442.049 157.828 442.186 158.016 442.279C158.204 442.373 158.412 442.419 158.622 442.415Z" fill="#FF9B21"/>
<path d="M154.006 445.114C154.247 445.11 154.482 445.04 154.685 444.911C154.889 444.783 155.053 444.6 155.16 444.385C155.266 444.169 155.312 443.928 155.291 443.688C155.27 443.448 155.183 443.219 155.04 443.025L152.124 439.054C151.918 438.773 151.609 438.586 151.265 438.534C150.921 438.481 150.57 438.567 150.29 438.773C150.009 438.979 149.822 439.288 149.769 439.632C149.717 439.976 149.803 440.327 150.009 440.607L152.926 444.579C153.05 444.748 153.212 444.885 153.4 444.978C153.589 445.071 153.796 445.118 154.006 445.114Z" fill="#FF9B21"/>
<path d="M178.329 277.373L215.865 269.792C215.865 269.792 220.407 307.93 201.165 323.523C196.272 327.483 190.823 343.889 188.134 355.922L155.294 350.915C162.334 327.862 178.329 277.373 178.329 277.373Z" fill="#3D5D99"/>
<path d="M216.112 120.33L48.5914 120.522C44.8112 120.527 41.1877 122.033 38.5177 124.709C35.8478 127.385 34.3499 131.012 34.3535 134.792L34.7042 445.454C34.7089 449.235 36.2149 452.858 38.8911 455.529C41.5672 458.199 45.1943 459.696 48.9747 459.692L216.494 459.499C220.275 459.495 223.898 457.989 226.568 455.312C229.238 452.636 230.736 449.009 230.732 445.229L230.38 134.571C230.376 130.79 228.871 127.166 226.195 124.496C223.519 121.825 219.893 120.327 216.112 120.33ZM223.995 435.344L41.3733 435.553L41.0797 142.422L223.701 142.213L223.995 435.344Z" fill="#7A7371"/>
<path d="M152.253 451.168L114.152 451.217C113.242 451.218 112.369 450.858 111.725 450.216C111.081 449.573 110.719 448.702 110.717 447.792C110.717 447.341 110.805 446.895 110.976 446.479C111.148 446.062 111.4 445.684 111.718 445.365C112.036 445.046 112.414 444.792 112.83 444.619C113.246 444.446 113.692 444.357 114.142 444.356L152.244 444.309C152.695 444.308 153.141 444.396 153.557 444.568C153.973 444.74 154.352 444.992 154.67 445.31C154.989 445.628 155.242 446.006 155.415 446.422C155.588 446.837 155.677 447.283 155.678 447.734C155.678 448.184 155.59 448.63 155.418 449.046C155.247 449.463 154.995 449.841 154.677 450.16C154.359 450.479 153.981 450.732 153.565 450.905C153.149 451.078 152.703 451.167 152.253 451.168Z" fill="#99908E"/>
<path d="M138.132 131.863C138.133 132.896 137.828 133.906 137.256 134.765C136.683 135.625 135.868 136.295 134.915 136.692C133.961 137.088 132.911 137.193 131.898 136.993C130.885 136.793 129.954 136.296 129.223 135.567C128.491 134.838 127.993 133.908 127.79 132.895C127.587 131.883 127.689 130.833 128.083 129.878C128.477 128.923 129.146 128.107 130.003 127.532C130.861 126.957 131.871 126.65 132.903 126.648C133.589 126.648 134.268 126.782 134.902 127.043C135.536 127.305 136.112 127.689 136.598 128.173C137.083 128.657 137.468 129.232 137.732 129.866C137.995 130.499 138.131 131.178 138.132 131.863Z" fill="#99908E"/>
<path d="M223.716 142.213H41.4058V152.145H223.716V142.213Z" fill="#474342"/>
<path d="M193.582 172.339C183.628 178.808 178.632 197.235 180.228 210.051C185.233 250.098 215.59 279.94 236.753 276.662C253.177 274.118 274.86 251.699 268.077 239.654C261.135 227.329 251.618 222.771 240.979 207.287C233.896 196.978 236.591 187.716 232.185 181.226C225.495 171.379 211.522 160.677 193.582 172.339Z" fill="#512566"/>
<path d="M303.305 274.866L303.544 263.01L262.79 250.97L231.438 220.003L215.659 238.973L250.642 267.442L303.305 274.866Z" fill="#FAAF78"/>
<path d="M311.667 271.034L307.609 263.876L302.021 263.214C302.021 263.214 296.194 268.922 303.901 277.798C304.436 278.409 305.133 278.856 305.911 279.088L311.667 271.034Z" fill="#FAAF78"/>
<path d="M309.864 266.436L308.86 264.176C308.452 263.131 309.326 262.514 310.016 261.626L312.533 259.157C312.608 259.084 312.664 258.994 312.695 258.895C312.726 258.795 312.732 258.69 312.712 258.587C312.692 258.485 312.647 258.389 312.58 258.309C312.514 258.229 312.429 258.166 312.332 258.127C311.672 257.78 310.925 257.632 310.182 257.7C309.439 257.767 308.732 258.048 308.145 258.509L301.303 263.401L309.864 266.436Z" fill="#FAAF78"/>
<path d="M146.267 305.782L157.955 307.784L175.933 269.279L201.141 228L187.3 212.419L161.453 254.815L146.267 305.782Z" fill="#FAAF78"/>
<path d="M144.715 313.958L142.696 324.041C142.636 324.345 142.496 324.626 142.289 324.857C141.67 325.536 140.333 326.878 139.988 326.039C139.534 324.937 141.506 313.991 141.506 313.991" fill="#FAAF78"/>
<path d="M156.48 311.672L154.186 313.926C153.78 314.325 153.448 314.793 153.206 315.308L149.808 323.87C149.808 323.87 148.015 325.999 147.279 324.911C146.542 323.824 148.389 314.174 148.389 314.174L146.055 325.823C146.007 326.067 145.896 326.294 145.732 326.481C145.089 327.207 143.413 328.961 142.997 327.952C142.481 326.694 144.729 314.21 144.729 314.21" fill="#FAAF78"/>
<path d="M139.052 323.389C139.626 322.912 140.082 322.307 140.382 321.622L141.278 314.793L148.803 314.623L156.479 311.672L157.966 306.246C157.966 306.246 153.186 299.632 143.265 305.933C142.581 306.37 142.035 306.992 141.69 307.727L138.74 313.979C138.701 314.112 138.676 314.248 138.666 314.387C138.568 315.755 137.46 322.859 137.667 323.357C137.792 323.65 138.653 323.643 139.052 323.389Z" fill="#FAAF78"/>
<path d="M153.625 313.526L156.01 312.869C157.104 312.619 157.584 313.577 158.357 314.391L160.42 317.244C160.481 317.329 160.562 317.397 160.655 317.443C160.749 317.489 160.852 317.511 160.957 317.506C161.061 317.502 161.162 317.471 161.251 317.418C161.341 317.364 161.415 317.289 161.468 317.199C161.909 316.598 162.167 315.881 162.211 315.137C162.255 314.392 162.083 313.65 161.716 313.001L157.902 305.508L153.625 313.526Z" fill="#FAAF78"/>
<path d="M217.414 199.274L216.945 200.177C217.628 200.533 218.212 201.052 218.646 201.687C219.08 202.323 219.351 203.056 219.435 203.821C219.518 204.586 219.412 205.36 219.126 206.075C218.839 206.789 218.381 207.422 217.791 207.917C217.202 208.412 216.5 208.754 215.747 208.914C214.994 209.073 214.213 209.044 213.473 208.83C212.734 208.615 212.059 208.222 211.508 207.685C210.957 207.148 210.546 206.483 210.313 205.749C210.01 204.813 210.013 203.804 210.321 202.869C210.63 201.934 211.227 201.122 212.028 200.549C211.82 200.281 211.638 199.993 211.485 199.69C210.469 200.41 209.716 201.442 209.341 202.629C208.966 203.816 208.99 205.093 209.408 206.265C209.826 207.438 210.616 208.441 211.657 209.123C212.698 209.805 213.934 210.128 215.176 210.043C216.418 209.958 217.598 209.469 218.536 208.65C219.474 207.832 220.119 206.73 220.373 205.511C220.626 204.293 220.475 203.025 219.941 201.9C219.407 200.776 218.52 199.856 217.416 199.283L217.414 199.274Z" fill="white"/>
<path d="M253.383 393.218C257.794 399.386 264.481 411.37 265.809 413.778C266.858 415.681 254.744 424.863 254.138 424.118C250.747 419.961 241.538 408.553 239.081 405.593C234.934 400.597 205.821 361.77 201.162 355.442L227.754 340.651C231.262 347.416 251.079 389.997 253.383 393.218Z" fill="#FAAF78"/>
<path d="M251.666 421.199L238.602 447.952C238.303 448.564 238.217 449.258 238.359 449.924C238.501 450.59 238.863 451.189 239.385 451.626C239.908 452.063 240.562 452.311 241.243 452.332C241.923 452.353 242.591 452.146 243.14 451.742L277.349 426.912C279.872 424.935 263.527 409.798 263.527 409.798L263.298 412.274C263.172 413.645 262.764 414.976 262.099 416.182C261.434 417.388 260.527 418.443 259.434 419.281C258.342 420.119 257.088 420.723 255.751 421.053C254.414 421.383 253.023 421.433 251.666 421.199Z" fill="#F7204B"/>
<path d="M237.484 451.513L239.306 454.036C239.8 454.72 240.754 454.873 241.437 454.38L278.689 427.469C279.373 426.976 279.526 426.022 279.033 425.338L277.21 422.815C276.717 422.132 275.763 421.978 275.079 422.472L237.827 449.382C237.144 449.876 236.99 450.83 237.484 451.513Z" fill="#FF9B21"/>
<path d="M254.494 427.48C254.802 427.474 255.099 427.36 255.331 427.158C255.564 426.956 255.718 426.678 255.766 426.374C255.815 426.07 255.755 425.758 255.597 425.494C255.439 425.229 255.193 425.029 254.902 424.927L250.253 423.296C250.09 423.239 249.917 423.215 249.745 423.225C249.573 423.234 249.404 423.278 249.249 423.353C249.094 423.428 248.955 423.532 248.84 423.661C248.725 423.789 248.636 423.939 248.58 424.102C248.523 424.265 248.498 424.437 248.508 424.61C248.518 424.782 248.561 424.95 248.636 425.106C248.711 425.261 248.816 425.4 248.944 425.515C249.073 425.63 249.223 425.718 249.385 425.775L254.035 427.406C254.182 427.458 254.338 427.483 254.494 427.48Z" fill="#FF9B21"/>
<path d="M252.442 432.065C252.749 432.059 253.044 431.944 253.276 431.742C253.508 431.54 253.661 431.263 253.71 430.96C253.758 430.656 253.699 430.345 253.542 430.081C253.384 429.817 253.139 429.616 252.849 429.514L248.2 427.883C247.874 427.778 247.52 427.804 247.213 427.957C246.906 428.109 246.671 428.376 246.558 428.699C246.444 429.022 246.462 429.377 246.607 429.688C246.752 429.998 247.012 430.24 247.333 430.361L251.984 431.992C252.131 432.044 252.286 432.068 252.442 432.065Z" fill="#FF9B21"/>
<path d="M250.156 436.896C250.463 436.889 250.759 436.775 250.99 436.573C251.222 436.371 251.376 436.094 251.424 435.79C251.473 435.487 251.413 435.176 251.256 434.911C251.099 434.647 250.854 434.447 250.564 434.345L245.914 432.714C245.75 432.652 245.576 432.623 245.401 432.63C245.226 432.636 245.054 432.678 244.895 432.752C244.736 432.826 244.594 432.931 244.477 433.061C244.359 433.191 244.269 433.343 244.211 433.508C244.153 433.673 244.129 433.849 244.14 434.023C244.151 434.198 244.196 434.369 244.274 434.526C244.352 434.683 244.461 434.822 244.593 434.937C244.726 435.051 244.88 435.138 245.047 435.191L249.698 436.822C249.845 436.874 250 436.899 250.156 436.896Z" fill="#FF9B21"/>
<path d="M187.467 279.063L220.736 267.918C220.736 267.918 235.887 293.838 231.635 318.236C229.839 328.537 235.072 341.52 237.649 350.719L198.568 360.264C191.342 337.262 187.467 279.063 187.467 279.063Z" fill="#3D5D99"/>
<path d="M175.964 285.973C177.421 280.695 178.329 277.374 178.329 277.374L214.03 270.163L220.736 267.917C224.259 274.328 227.067 281.107 229.11 288.132C226.684 288.663 224.038 289.158 221.184 289.563C208.698 291.326 195.994 290.769 183.71 287.92C181.097 287.401 178.512 286.751 175.964 285.973Z" fill="#FAAF78"/>
<path d="M194.583 209.615L217.329 212.914C219.442 213.221 230.737 217.987 231.437 220.003C231.698 220.753 230.468 232.493 228.958 239.147L222.193 266.465L228.095 281.415C216.964 283.563 205.627 284.448 194.297 284.053C186.182 283.671 181.995 281.661 174.817 277.43L178.507 254.79C175.972 248.145 175.267 240.941 176.467 233.931C177.666 226.921 180.726 220.361 185.326 214.937C186.491 213.642 188.888 209.926 190.239 209.474C191.671 209.104 193.178 209.153 194.583 209.615Z" fill="#F7204B"/>
<path d="M216.179 191.97L217.009 212.586C216.828 214.811 211.709 221.277 205.23 221.318C201.677 221.341 198.671 218.896 199.22 215.386L201.681 199.636L216.179 191.97Z" fill="#FAAF78"/>
<path d="M199.793 211.742L201.339 201.512L213.644 198.919L213.167 201.765C213.167 201.765 211.346 206.478 199.793 211.742Z" fill="#E69361"/>
<path d="M198.769 196.873C198.724 198.191 198.957 199.503 199.452 200.724C199.947 201.945 200.694 203.048 201.644 203.962C202.594 204.876 203.726 205.579 204.965 206.027C206.205 206.474 207.525 206.656 208.84 206.56L219.075 205.809C220.468 205.713 221.815 205.267 222.99 204.511C224.164 203.755 225.129 202.715 225.794 201.486C226.767 199.561 226.942 197.331 226.281 195.278L222.667 178.057L199.675 170.302L198.769 196.873Z" fill="#FAAF78"/>
<path d="M222.667 178.057C223.293 179.116 206.168 175.214 200.07 197.129L196.927 197.798C196.927 197.798 182.113 188.828 192.702 173.943C198.794 165.383 216.288 167.256 222.667 178.057Z" fill="#512566"/>
<path d="M196.902 199.207C197.589 199.975 198.488 200.522 199.486 200.779C200.484 201.035 201.535 200.99 202.508 200.649C203.48 200.308 204.329 199.687 204.948 198.863C205.567 198.039 205.928 197.05 205.985 196.022C206.042 194.993 205.793 193.97 205.269 193.083C204.744 192.196 203.969 191.484 203.04 191.038C202.112 190.592 201.072 190.431 200.051 190.576C199.031 190.72 198.077 191.165 197.309 191.852C196.28 192.773 195.659 194.066 195.582 195.445C195.506 196.824 195.98 198.178 196.902 199.207Z" fill="#FAAF78"/>
<path d="M200.786 198.031L199.894 198.523C200.265 199.198 200.464 199.953 200.474 200.723C200.484 201.493 200.303 202.253 199.949 202.937C199.595 203.62 199.078 204.206 198.443 204.642C197.809 205.078 197.077 205.351 196.312 205.437C195.546 205.523 194.772 205.419 194.057 205.134C193.341 204.849 192.707 204.393 192.211 203.804C191.714 203.216 191.37 202.515 191.209 201.762C191.047 201.009 191.074 200.228 191.287 199.488C191.555 198.541 192.116 197.703 192.891 197.095C193.665 196.488 194.613 196.142 195.597 196.108C195.571 195.769 195.578 195.429 195.617 195.091C194.373 195.129 193.175 195.572 192.206 196.353C191.236 197.135 190.549 198.211 190.249 199.419C189.948 200.627 190.051 201.901 190.541 203.045C191.032 204.189 191.883 205.142 192.965 205.758C194.046 206.374 195.3 206.619 196.534 206.456C197.768 206.294 198.916 205.732 199.801 204.857C200.686 203.981 201.261 202.841 201.438 201.609C201.616 200.376 201.385 199.12 200.782 198.031H200.786Z" fill="white"/>
<path d="M202.046 196.641L199.481 194.431L199.719 194.192L202.283 196.402L202.046 196.641Z" fill="#371945"/>
<path d="M199.87 196.68L199.599 196.451L201.886 194.155L202.158 194.385L199.87 196.68Z" fill="#371945"/>
<path d="M220.316 186.888C220.327 187.042 220.383 187.188 220.477 187.31C220.571 187.431 220.699 187.522 220.845 187.571C220.991 187.62 221.148 187.624 221.296 187.584C221.444 187.543 221.577 187.46 221.678 187.344C221.779 187.227 221.843 187.084 221.863 186.932C221.882 186.779 221.856 186.624 221.787 186.487C221.719 186.349 221.611 186.235 221.477 186.159C221.344 186.082 221.191 186.047 221.038 186.058C220.936 186.065 220.836 186.092 220.745 186.138C220.653 186.183 220.572 186.246 220.505 186.324C220.438 186.401 220.386 186.49 220.354 186.587C220.322 186.684 220.309 186.787 220.316 186.888Z" fill="#371945"/>
<path d="M223.696 183.531L226.996 187.762C227.203 188.027 227.306 188.358 227.288 188.693C227.27 189.029 227.131 189.346 226.897 189.587L225.31 191.218L223.696 183.531Z" fill="#FAAF78"/>
<g style="mix-blend-mode:multiply" opacity="0.43">
<path d="M190.95 345.224C190.228 341.133 190.976 314.508 191.47 316.361C192.759 321.205 192.378 332.459 193.667 337.12C192.604 340.501 191.883 341.345 190.95 345.224Z" fill="#430F82"/>
</g>
<path d="M217.334 192.043C219.747 193.089 222.393 193.482 225.005 193.181C225.005 193.181 220.099 199.845 217.334 192.043Z" fill="white"/>
<path d="M206.022 222.154C213.713 222.018 217.468 215.048 218.368 213.099C218.023 213.034 217.678 212.963 217.328 212.913L216.989 212.864C215.832 215.292 211.575 222.541 202.694 220.411C201.817 220.166 201.071 219.587 200.616 218.798C199.814 217.546 199.121 215.063 200.118 210.418L198.771 210.222C197.897 214.328 198.133 217.487 199.509 219.584C200.16 220.654 201.203 221.427 202.416 221.739C203.596 222.028 204.808 222.168 206.022 222.154Z" fill="#512566"/>
<path d="M349.356 283.81L370.541 297.754L370.784 290.187L388.52 295.724L365.459 277.063L365.168 286.12L349.356 283.81Z" fill="#FF9B21"/>
<path d="M343.253 256.046L340.593 268.497L354.805 271.534L357.465 259.083L343.253 256.046Z" fill="white"/>
<path d="M333.356 302.343L323.6 300.258C317.461 298.946 312.094 295.248 308.681 289.979C305.268 284.709 304.088 278.3 305.401 272.16C306.713 266.021 310.411 260.654 315.68 257.241C320.95 253.828 327.359 252.648 333.499 253.961L343.254 256.046L340.593 268.496L330.838 266.414C329.429 266.105 327.973 266.077 326.554 266.332C325.135 266.588 323.78 267.121 322.568 267.902C321.355 268.682 320.309 269.695 319.489 270.881C318.669 272.067 318.092 273.404 317.791 274.814C317.489 276.224 317.469 277.68 317.733 279.098C317.996 280.516 318.536 281.868 319.324 283.076C320.111 284.284 321.129 285.325 322.32 286.138C323.511 286.951 324.851 287.521 326.263 287.814L336.018 289.899L333.356 302.343Z" fill="#F7204B"/>
<path d="M336.017 289.894L333.357 302.343L347.569 305.38L350.229 292.931L336.017 289.894Z" fill="white"/>
<path d="M318.054 275.947L316.397 271.054C316.24 270.678 316.185 270.266 316.237 269.861C316.393 268.619 316.836 266.081 317.807 266.651C319.083 267.4 321.415 273.143 321.415 273.143" fill="#FAAF78"/>
<path d="M315.765 278.625L314.108 273.733C313.95 273.356 313.895 272.944 313.948 272.539C314.103 271.297 314.546 268.76 315.518 269.329C316.794 270.078 319.125 275.822 319.125 275.822" fill="#FAAF78"/>
<path d="M313.469 281.305L311.813 276.412C311.656 276.035 311.6 275.623 311.652 275.218C311.809 273.976 312.25 271.439 313.222 272.008C314.498 272.757 316.829 278.501 316.829 278.501" fill="#FAAF78"/>
<path d="M313.998 280.559C313.998 280.559 312.208 275.436 310.932 274.687C309.96 274.118 309.517 276.655 309.361 277.897C309.308 278.303 309.364 278.714 309.523 279.091L310.45 281.828C310.547 282.136 310.705 282.42 310.915 282.665C311.124 282.911 311.381 283.111 311.67 283.255C311.959 283.399 312.274 283.483 312.596 283.503C312.918 283.522 313.24 283.477 313.544 283.369C315.766 282.626 318.415 278.998 320.781 275.929C324.644 270.923 322.259 268.183 322.259 268.183L319.909 270.099L313.998 280.559Z" fill="#FAAF78"/>
<path d="M201.13 227.322L203.673 235.333L211.714 237.779L204.882 242.672L205.039 251.075L198.274 246.089L190.331 248.835L192.983 240.86L187.916 234.154L196.321 234.212L201.13 227.322Z" fill="#FF9B21"/>
<path d="M158.131 221.4H146.1C145.744 221.4 145.403 221.259 145.152 221.008C144.901 220.756 144.759 220.415 144.759 220.059C144.759 219.704 144.901 219.363 145.152 219.111C145.403 218.86 145.744 218.719 146.1 218.719H158.131C158.486 218.719 158.827 218.86 159.079 219.111C159.33 219.363 159.471 219.704 159.471 220.059C159.471 220.415 159.33 220.756 159.079 221.008C158.827 221.259 158.486 221.4 158.131 221.4Z" fill="#D9D9D9"/>
<path d="M141.484 217.138V217.106C141.484 216.853 141.384 216.611 141.206 216.433C141.027 216.254 140.785 216.154 140.533 216.154H138.014C138.437 215.272 138.589 214.284 138.451 213.315C138.375 212.917 138.328 212.138 137.588 212.138C137.385 212.133 137.186 212.197 137.025 212.321C136.864 212.445 136.751 212.62 136.704 212.818L136.644 213.528C136.634 213.653 136.584 213.77 136.5 213.863L134.043 216.604C134.001 216.642 133.967 216.687 133.944 216.739C133.921 216.79 133.908 216.845 133.907 216.902V223.118C133.907 223.261 133.958 223.399 134.051 223.507C134.143 223.616 134.272 223.687 134.413 223.709V223.716H140.529C140.781 223.716 141.023 223.616 141.201 223.438C141.38 223.259 141.48 223.017 141.48 222.765V222.732C141.277 222.678 141.098 222.559 140.97 222.393C140.843 222.226 140.773 222.022 140.773 221.813C140.773 221.603 140.843 221.399 140.97 221.233C141.098 221.067 141.277 220.947 141.48 220.893V220.862C141.277 220.808 141.098 220.689 140.97 220.523C140.843 220.356 140.773 220.152 140.773 219.943C140.773 219.733 140.843 219.529 140.97 219.363C141.098 219.196 141.277 219.077 141.48 219.023V218.981C141.277 218.927 141.098 218.808 140.97 218.642C140.843 218.475 140.773 218.271 140.773 218.062C140.773 217.852 140.843 217.648 140.97 217.482C141.098 217.315 141.277 217.196 141.48 217.142L141.484 217.138Z" fill="#3D5D99"/>
<path d="M132.784 216.672H130.45C130.206 216.672 130.008 216.87 130.008 217.114V223.264C130.008 223.508 130.206 223.706 130.45 223.706H132.784C133.028 223.706 133.226 223.508 133.226 223.264V217.114C133.226 216.87 133.028 216.672 132.784 216.672Z" fill="#3D5D99"/>
<path d="M497.059 302.672L510.757 304.936L529.506 276.395L552.552 228.884L531.134 216.877L511.189 267.487L497.059 302.672Z" fill="#BF7A47"/>
<path d="M549.285 214.768L545.901 212.677C543.501 211.195 540.61 210.726 537.865 211.375C535.12 212.024 532.745 213.736 531.262 216.136L515.744 245.209L537.038 258.783L552.742 229.409C553.477 228.22 553.97 226.899 554.193 225.52C554.417 224.141 554.367 222.732 554.046 221.372C553.725 220.013 553.139 218.73 552.322 217.597C551.505 216.464 550.473 215.503 549.285 214.768Z" fill="#FF9B21"/>
<path d="M618.446 390.691C623.611 397.136 633.089 410.986 634.678 413.524C635.935 415.533 621.831 425.033 621.125 424.261C617.184 419.942 606.482 408.088 603.631 405.011C598.82 399.823 593.211 393.458 587.755 386.853L607.008 372.877C610.491 379.021 614.309 384.968 618.446 390.691Z" fill="#BF7A47"/>
<path d="M618.256 421.231L605.651 451.115C605.362 451.799 605.311 452.559 605.506 453.275C605.7 453.991 606.129 454.621 606.724 455.065C607.319 455.508 608.045 455.74 608.786 455.722C609.528 455.704 610.242 455.438 610.815 454.967L646.542 425.904C649.168 423.602 630.476 408.115 630.476 408.115L630.377 410.823C630.323 412.323 629.959 413.795 629.308 415.148C628.657 416.5 627.733 417.702 626.594 418.68C625.456 419.658 624.127 420.389 622.692 420.828C621.257 421.267 619.747 421.405 618.256 421.231Z" fill="#F7204B"/>
<path d="M604.565 454.958L606.871 457.806C607.401 458.461 608.362 458.562 609.016 458.032L648.137 426.363C648.792 425.833 648.893 424.872 648.363 424.218L646.057 421.369C645.527 420.714 644.566 420.613 643.911 421.144L604.791 452.812C604.136 453.342 604.035 454.303 604.565 454.958Z" fill="#512566"/>
<path d="M621.71 427.893C622.045 427.869 622.361 427.728 622.602 427.495C622.843 427.262 622.995 426.951 623.03 426.617C623.065 426.283 622.982 425.948 622.794 425.669C622.607 425.391 622.327 425.187 622.005 425.094L616.84 423.599C616.66 423.546 616.471 423.53 616.284 423.551C616.098 423.572 615.917 423.63 615.752 423.72C615.588 423.811 615.443 423.933 615.326 424.08C615.209 424.227 615.121 424.395 615.069 424.576C615.017 424.756 615.001 424.945 615.022 425.132C615.043 425.319 615.1 425.499 615.191 425.664C615.282 425.828 615.404 425.973 615.551 426.09C615.698 426.207 615.866 426.295 616.047 426.347L621.203 427.842C621.367 427.889 621.539 427.907 621.71 427.893Z" fill="#512566"/>
<path d="M619.752 433.008C620.087 432.983 620.402 432.841 620.643 432.608C620.884 432.374 621.035 432.064 621.07 431.73C621.105 431.397 621.022 431.061 620.835 430.783C620.648 430.504 620.369 430.3 620.047 430.206L614.883 428.711C614.702 428.659 614.513 428.643 614.327 428.664C614.14 428.685 613.959 428.743 613.795 428.833C613.463 429.017 613.217 429.324 613.112 429.689C613.007 430.053 613.05 430.444 613.234 430.776C613.417 431.109 613.725 431.354 614.089 431.46L619.245 432.955C619.41 433.002 619.582 433.02 619.752 433.008Z" fill="#512566"/>
<path d="M617.556 438.4C617.891 438.375 618.205 438.233 618.446 437.999C618.687 437.766 618.838 437.455 618.873 437.122C618.908 436.788 618.824 436.453 618.637 436.175C618.45 435.896 618.172 435.692 617.85 435.599L612.693 434.104C612.513 434.051 612.324 434.035 612.137 434.056C611.951 434.077 611.77 434.135 611.605 434.225C611.441 434.316 611.296 434.438 611.179 434.585C611.062 434.732 610.974 434.9 610.922 435.081C610.87 435.261 610.854 435.45 610.875 435.637C610.896 435.823 610.953 436.004 611.044 436.169C611.135 436.333 611.257 436.478 611.404 436.595C611.551 436.712 611.719 436.799 611.9 436.852L617.056 438.347C617.218 438.394 617.388 438.412 617.556 438.4Z" fill="#512566"/>
<path d="M546.105 304.82L577.917 276.394C577.917 276.394 598.815 303.608 593.283 326.847C589.538 342.586 606.331 368.058 619.127 378.02L585.039 402.905C578.396 394.582 573.079 385.283 569.273 375.337C561.082 353.575 546.105 304.82 546.105 304.82Z" fill="#3D5D99"/>
<path d="M545.715 409.094C545.741 417.531 544.492 434.619 544.138 437.658C543.866 440.063 526.554 438.671 526.484 437.604C526.089 431.65 525.089 415.368 524.77 411.102C524.226 403.898 523.801 395.248 523.65 386.502L547.918 387.6C546.788 394.719 546.053 401.894 545.715 409.094Z" fill="#BF7A47"/>
<path d="M526.124 433.359L497.039 449.2C496.373 449.562 495.848 450.137 495.548 450.832C495.247 451.527 495.189 452.304 495.381 453.036C495.574 453.769 496.006 454.416 496.61 454.874C497.214 455.332 497.953 455.574 498.711 455.562L545.735 455.092C549.296 454.925 544.23 430.662 544.23 430.662L542.427 432.762C541.429 433.924 540.201 434.868 538.821 435.532C537.441 436.197 535.938 436.569 534.407 436.626C532.876 436.682 531.349 436.42 529.924 435.858C528.499 435.296 527.206 434.445 526.125 433.359H526.124Z" fill="#F7204B"/>
<path d="M493.723 451.538L493.752 455.345C493.759 456.188 494.447 456.866 495.29 456.859L546.762 456.459C547.605 456.452 548.283 455.763 548.276 454.92L548.247 451.114C548.24 450.271 547.551 449.593 546.708 449.599L495.237 450C494.394 450.007 493.716 450.695 493.723 451.538Z" fill="#512566"/>
<path d="M525.473 441.131C525.742 441.132 526.005 441.058 526.235 440.918C526.464 440.778 526.651 440.578 526.774 440.339C526.897 440.101 526.952 439.833 526.932 439.565C526.913 439.297 526.82 439.039 526.664 438.821L523.494 434.349C523.271 434.033 522.93 433.819 522.549 433.754C522.167 433.689 521.775 433.778 521.459 434.002C521.143 434.226 520.929 434.566 520.864 434.948C520.799 435.329 520.888 435.721 521.112 436.037L524.28 440.509C524.414 440.701 524.593 440.858 524.801 440.966C525.008 441.074 525.239 441.131 525.473 441.131Z" fill="#512566"/>
<path d="M520.651 443.969C520.919 443.969 521.182 443.895 521.412 443.756C521.641 443.616 521.827 443.416 521.95 443.177C522.073 442.938 522.128 442.67 522.108 442.402C522.089 442.134 521.996 441.877 521.84 441.659L518.672 437.187C518.445 436.877 518.106 436.669 517.727 436.607C517.348 436.545 516.96 436.635 516.647 436.857C516.334 437.079 516.121 437.415 516.053 437.793C515.986 438.171 516.07 438.56 516.288 438.877L519.457 443.347C519.591 443.539 519.77 443.696 519.978 443.804C520.185 443.912 520.416 443.969 520.651 443.969Z" fill="#512566"/>
<path d="M515.464 446.876C515.732 446.876 515.996 446.803 516.225 446.663C516.455 446.523 516.641 446.323 516.764 446.084C516.887 445.845 516.942 445.577 516.923 445.309C516.903 445.041 516.811 444.784 516.654 444.565L513.484 440.091C513.26 439.775 512.919 439.561 512.537 439.496C512.156 439.431 511.764 439.521 511.448 439.745C511.132 439.969 510.918 440.309 510.853 440.691C510.788 441.073 510.877 441.465 511.101 441.781L514.272 446.253C514.406 446.445 514.584 446.602 514.792 446.71C514.999 446.819 515.23 446.876 515.464 446.876Z" fill="#512566"/>
<path d="M536.482 294.978L577.84 288.282C577.84 288.282 588.567 325.612 569.756 340.335C557.017 350.305 551.112 388.815 554.902 404.578L512.736 402.788C512.536 391.157 518.661 364.598 521.116 357.018C528.282 334.903 536.482 294.978 536.482 294.978Z" fill="#3D5D99"/>
<g style="mix-blend-mode:multiply" opacity="0.43">
<path d="M558.305 361.398C557.676 357.442 557.415 336.381 557.862 338.182C559.025 342.875 560.215 348.174 561.382 352.691C560.302 355.935 559.043 358.098 558.305 361.398Z" fill="#430F82"/>
</g>
<path d="M540.297 211.087L574.31 211.879C589.068 213.295 593.771 221.981 593.692 230.058L593.071 268.417L599.595 308.274L528.786 312.342L526.944 243.526C525.058 233.894 527.488 224.203 532.348 215.68C533.094 214.32 534.176 213.173 535.492 212.349C536.936 211.468 538.606 211.029 540.297 211.087Z" fill="#FF9B21"/>
<path d="M560.786 193.468L563.054 211.177C563.367 213.538 558.716 220.475 552.748 222.94C551.931 223.271 551.047 223.403 550.169 223.324C549.292 223.245 548.445 222.957 547.701 222.485C546.957 222.013 546.336 221.37 545.89 220.61C545.444 219.85 545.186 218.994 545.137 218.114L544.145 201.142L560.786 193.468Z" fill="#BF7A47"/>
<path d="M544.578 208.455L544.141 200.806L556.118 191.961L556.265 195.036C556.265 195.036 555.431 200.362 544.578 208.455Z" fill="#996239"/>
<path d="M561.49 198.946L540.424 203.727C538.973 204.068 537.46 204.036 536.025 203.636C534.59 203.235 533.279 202.478 532.215 201.436C530.619 199.78 529.74 197.562 529.768 195.263L530.895 175.475L558.445 169.016L561.49 198.946Z" fill="#BF7A47"/>
<path d="M527.266 170.885C529.806 184.635 550.633 172.211 551.037 178.206C552.068 193.538 560.578 190.03 560.578 190.03C560.578 190.03 571.502 167.11 557.915 166.802C544.328 166.493 523.51 150.561 527.266 170.885Z" fill="#371945"/>
<path d="M564.615 184.713C564.874 185.816 564.8 186.971 564.402 188.031C564.004 189.092 563.301 190.011 562.381 190.672C561.461 191.332 560.366 191.706 559.234 191.744C558.102 191.783 556.984 191.484 556.021 190.887C555.058 190.291 554.294 189.422 553.825 188.39C553.357 187.359 553.204 186.212 553.387 185.094C553.57 183.977 554.081 182.938 554.854 182.11C555.627 181.283 556.629 180.703 557.732 180.444C558.464 180.273 559.223 180.247 559.965 180.368C560.707 180.49 561.418 180.757 562.058 181.153C562.697 181.549 563.252 182.068 563.691 182.679C564.129 183.29 564.444 183.981 564.615 184.713Z" fill="#BF7A47"/>
<path d="M531.667 179.568L527.306 187.145C526.657 188.274 527.61 189.455 529.083 189.344L532.103 188.967L531.667 179.568Z" fill="#BF7A47"/>
<path d="M558.15 187.821L557.824 187.619L559.93 184.222L560.256 184.423L558.15 187.821Z" fill="#371945"/>
<path d="M560.636 187.238L557.239 185.13L557.443 184.805L560.84 186.913L560.636 187.238Z" fill="#371945"/>
<path d="M536.062 183.735C536.1 183.895 536.089 184.063 536.031 184.216C535.974 184.37 535.872 184.504 535.739 184.6C535.605 184.695 535.446 184.75 535.282 184.755C535.118 184.761 534.956 184.718 534.816 184.631C534.677 184.545 534.566 184.419 534.498 184.269C534.43 184.12 534.408 183.953 534.434 183.791C534.461 183.629 534.535 183.478 534.647 183.358C534.759 183.238 534.905 183.154 535.065 183.117C535.171 183.092 535.281 183.088 535.388 183.106C535.496 183.123 535.599 183.162 535.692 183.219C535.784 183.277 535.865 183.352 535.928 183.44C535.992 183.529 536.037 183.629 536.062 183.735Z" fill="#371945"/>
<path d="M573.251 224.485L576.222 221.811C580.609 217.87 583.833 214.736 587.775 219.123L626.654 262.342L624.586 302.13C625.358 307.947 628.439 317.18 626.422 319.973C625.11 321.788 624.655 320.438 622.773 321.135C621.703 321.674 620.482 321.834 619.31 321.591C617.229 321.517 615.796 323.129 614.478 322.032C613.16 320.936 612.914 320.999 610.718 320.446C608.573 319.903 610.31 314.798 610.568 310.95L608.079 314.363C606.82 315.479 606.056 314.803 605.878 313.908C605.724 313.197 605.718 312.462 605.857 311.748C606.463 308.686 608.023 305.894 610.314 303.773L611.98 302.209L608.092 270.649L571.275 234.22C567.334 229.833 568.865 228.43 573.251 224.485Z" fill="#BF7A47"/>
<path d="M572.906 216.099L569.993 218.808C567.928 220.729 566.71 223.393 566.609 226.212C566.507 229.031 567.529 231.775 569.45 233.841L591.603 258.11L610.333 241.173L601.864 231.613L587.939 216.643C586.988 215.62 585.844 214.795 584.574 214.214C583.303 213.633 581.931 213.308 580.535 213.257C579.139 213.207 577.747 213.432 576.438 213.92C575.129 214.407 573.929 215.148 572.906 216.099Z" fill="#FF9B21"/>
<path d="M536.346 192.017C537.259 191.41 538.002 190.578 538.502 189.602C538.523 189.562 538.528 189.515 538.515 189.472C538.503 189.428 538.473 189.392 538.434 189.37C538.414 189.359 538.393 189.352 538.37 189.35C538.348 189.347 538.326 189.349 538.304 189.356C538.283 189.362 538.263 189.372 538.245 189.386C538.228 189.4 538.214 189.418 538.203 189.438C536.099 193.262 532.996 192.349 532.866 192.309C532.823 192.296 532.776 192.3 532.736 192.321C532.696 192.342 532.666 192.378 532.652 192.421C532.639 192.464 532.643 192.51 532.664 192.551C532.685 192.591 532.721 192.621 532.764 192.634C533.372 192.779 534.003 192.799 534.618 192.693C535.234 192.587 535.822 192.357 536.346 192.017Z" fill="#371945"/>
<path d="M533.53 188.823C532.384 188.222 531.483 187.238 530.987 186.042C530.49 184.847 530.428 183.514 530.812 182.278C531.151 181.195 531.814 180.243 532.713 179.55C533.612 178.857 534.702 178.458 535.835 178.407C536.969 178.356 538.09 178.654 539.048 179.263C540.006 179.871 540.753 180.76 541.188 181.808C541.623 182.855 541.725 184.012 541.48 185.12C541.235 186.227 540.654 187.233 539.818 187.999C538.981 188.766 537.929 189.256 536.804 189.404C535.679 189.551 534.536 189.349 533.53 188.825V188.823ZM531.866 182.605C531.605 183.44 531.597 184.333 531.844 185.172C532.091 186.011 532.581 186.758 533.252 187.319C533.924 187.879 534.746 188.228 535.616 188.321C536.486 188.413 537.363 188.246 538.138 187.84C538.913 187.434 539.549 186.808 539.968 186.04C540.386 185.272 540.567 184.397 540.488 183.526C540.41 182.655 540.074 181.827 539.525 181.146C538.975 180.466 538.236 179.964 537.401 179.704C536.282 179.358 535.072 179.469 534.035 180.013C532.998 180.557 532.218 181.489 531.866 182.605Z" fill="white"/>
<path d="M540.986 184.119L540.835 183.074C544.84 182.53 548.887 182.361 552.924 182.568L552.838 183.62C548.881 183.414 544.912 183.581 540.986 184.119Z" fill="white"/>
<path d="M516.169 126.281C516.185 119.928 514.09 113.749 510.213 108.716C506.335 103.684 500.895 100.082 494.748 98.4776C488.6 96.8733 482.094 97.3572 476.252 99.8533C470.409 102.349 465.562 106.716 462.472 112.267C459.381 117.818 458.223 124.239 459.18 130.52C460.136 136.801 463.152 142.586 467.754 146.966C472.356 151.346 478.284 154.072 484.604 154.717C490.925 155.361 497.28 153.887 502.672 150.526C506.794 151.804 511.114 152.322 515.421 152.055L509.849 144.182C513.943 139.115 516.174 132.796 516.169 126.281Z" fill="white"/>
<path d="M501.573 120.532V120.447C501.573 119.766 501.303 119.113 500.821 118.631C500.34 118.15 499.687 117.879 499.006 117.879H492.236C493.69 115.943 493.614 111.32 493.409 110.248C493.204 109.176 493.079 107.085 491.089 107.085C490.546 107.07 490.014 107.242 489.582 107.572C489.15 107.901 488.845 108.369 488.716 108.897L488.556 110.8C488.527 111.134 488.391 111.45 488.167 111.7L481.565 119.066C481.454 119.168 481.366 119.291 481.306 119.429C481.246 119.566 481.215 119.715 481.215 119.865V136.568C481.216 136.952 481.353 137.322 481.602 137.613C481.851 137.905 482.196 138.097 482.574 138.157V138.176H499.005C499.686 138.176 500.339 137.905 500.82 137.423C501.301 136.942 501.572 136.288 501.572 135.607V135.533C501.572 134.973 501.389 134.429 501.051 133.983C500.713 133.537 500.239 133.213 499.7 133.062C500.239 132.91 500.713 132.586 501.051 132.14C501.388 131.694 501.571 131.15 501.572 130.591V130.504C501.572 129.944 501.389 129.4 501.051 128.954C500.713 128.508 500.239 128.185 499.7 128.033C500.239 127.881 500.713 127.558 501.051 127.112C501.388 126.666 501.571 126.122 501.572 125.562V125.475C501.572 124.916 501.389 124.372 501.051 123.926C500.713 123.48 500.239 123.156 499.7 123.004C500.239 122.853 500.714 122.529 501.052 122.083C501.39 121.637 501.573 121.092 501.573 120.532Z" fill="#3D5D99"/>
<path d="M471.918 119.279H478.194C478.509 119.279 478.811 119.404 479.033 119.626C479.256 119.849 479.381 120.151 479.381 120.465V136.995C479.381 137.309 479.256 137.611 479.033 137.834C478.811 138.056 478.509 138.181 478.194 138.181H471.919C471.605 138.181 471.303 138.056 471.08 137.834C470.858 137.611 470.733 137.309 470.733 136.995V120.464C470.733 120.15 470.858 119.848 471.08 119.626C471.302 119.404 471.604 119.279 471.918 119.279V119.279Z" fill="#3D5D99"/>
<path d="M497.059 302.672L494.622 316.355C494.543 316.799 494.569 317.254 494.698 317.686L498.425 330.088C498.602 330.68 498.966 331.199 499.462 331.568C499.958 331.937 500.559 332.136 501.177 332.136C501.824 332.136 502.452 331.917 502.96 331.516C503.468 331.115 503.825 330.554 503.974 329.924L506.502 319.277L510.914 304.489L497.059 302.672Z" fill="#BF7A47"/>
<path d="M509.519 305.404L511.829 317.762C511.857 317.906 511.845 318.056 511.793 318.193C511.742 318.331 511.653 318.452 511.537 318.543C511.421 318.633 511.283 318.69 511.137 318.707C510.99 318.723 510.843 318.699 510.709 318.637C509.583 318.086 507.934 316.667 506.496 313.036C504.048 306.804 509.519 305.404 509.519 305.404Z" fill="#BF7A47"/>
<path d="M271 165.592C272.399 165.592 273.533 164.458 273.533 163.059C273.533 161.66 272.399 160.525 271 160.525C269.601 160.525 268.467 161.66 268.467 163.059C268.467 164.458 269.601 165.592 271 165.592Z" fill="#D9D9D9"/>
<path d="M254.397 163.058C254.382 157.008 256.378 151.126 260.07 146.334C263.763 141.542 268.943 138.113 274.796 136.586C280.65 135.059 286.845 135.52 292.407 137.897C297.97 140.274 302.585 144.432 305.528 149.718C308.47 155.004 309.573 161.117 308.662 167.098C307.751 173.078 304.879 178.586 300.497 182.757C296.115 186.927 290.472 189.523 284.453 190.137C278.435 190.751 272.384 189.348 267.25 186.147C263.324 187.364 259.21 187.857 255.108 187.603L260.408 180.105C256.512 175.278 254.39 169.261 254.397 163.058Z" fill="white"/>
<path d="M273.197 162.645C273.197 163.217 273.027 163.777 272.709 164.253C272.391 164.729 271.939 165.1 271.41 165.32C270.881 165.539 270.298 165.596 269.737 165.484C269.175 165.372 268.659 165.096 268.255 164.691C267.85 164.286 267.574 163.77 267.463 163.209C267.351 162.647 267.409 162.065 267.628 161.536C267.847 161.007 268.219 160.555 268.695 160.237C269.171 159.919 269.731 159.75 270.303 159.75C271.071 159.75 271.807 160.056 272.35 160.598C272.892 161.141 273.197 161.877 273.197 162.645Z" fill="#3D5D99"/>
<path d="M284.505 162.645C284.505 163.217 284.335 163.777 284.017 164.253C283.699 164.729 283.247 165.1 282.718 165.319C282.189 165.538 281.607 165.596 281.045 165.484C280.483 165.372 279.968 165.097 279.563 164.692C279.158 164.287 278.882 163.771 278.77 163.21C278.659 162.648 278.716 162.066 278.935 161.537C279.154 161.008 279.525 160.556 280.001 160.238C280.477 159.92 281.037 159.75 281.61 159.75C282.377 159.75 283.114 160.055 283.657 160.598C284.2 161.141 284.505 161.877 284.505 162.645Z" fill="#3D5D99"/>
<path d="M295.824 162.645C295.824 163.217 295.655 163.777 295.337 164.253C295.018 164.729 294.566 165.1 294.037 165.319C293.508 165.538 292.926 165.596 292.365 165.484C291.803 165.372 291.287 165.097 290.883 164.692C290.478 164.287 290.202 163.771 290.09 163.21C289.979 162.648 290.036 162.066 290.255 161.537C290.474 161.008 290.845 160.556 291.321 160.238C291.797 159.92 292.357 159.75 292.93 159.75C293.697 159.75 294.434 160.055 294.977 160.598C295.519 161.141 295.824 161.877 295.824 162.645Z" fill="#3D5D99"/>
<path d="M412.211 147.179C412.228 140.825 410.133 134.647 406.255 129.614C402.378 124.581 396.938 120.979 390.79 119.375C384.643 117.771 378.137 118.255 372.294 120.751C366.452 123.247 361.604 127.614 358.514 133.165C355.424 138.716 354.266 145.136 355.222 151.417C356.178 157.698 359.194 163.483 363.797 167.863C368.399 172.243 374.326 174.97 380.647 175.614C386.967 176.259 393.323 174.785 398.714 171.424C402.837 172.702 407.157 173.22 411.465 172.953L405.893 165.079C409.987 160.012 412.217 153.693 412.211 147.179Z" fill="white"/>
<path d="M383.552 157.958L371.837 146.991C371.324 146.334 370.946 145.582 370.724 144.779C370.502 143.976 370.441 143.137 370.543 142.31C370.646 141.483 370.91 140.684 371.321 139.959C371.732 139.234 372.282 138.598 372.939 138.085C373.596 137.573 374.348 137.195 375.151 136.973C375.954 136.751 376.793 136.689 377.62 136.792C378.447 136.894 379.246 137.158 379.971 137.569C380.696 137.98 381.333 138.53 381.845 139.187L383.504 141.316L384.902 139.424C385.397 138.754 386.019 138.188 386.734 137.758C387.448 137.328 388.239 137.044 389.064 136.92C389.888 136.796 390.728 136.836 391.537 137.038C392.346 137.239 393.107 137.597 393.777 138.093C394.447 138.588 395.013 139.21 395.443 139.925C395.873 140.639 396.157 141.43 396.281 142.255C396.405 143.079 396.365 143.919 396.163 144.728C395.962 145.537 395.604 146.298 395.108 146.968L383.552 157.958Z" fill="#F7204B"/>
<path d="M460.632 313.081L449.743 308.557L444.482 263.215L430.112 225.024L454.584 220.376L468.41 270.018L460.632 313.081Z" fill="#FAAF78"/>
<path d="M457.591 320.776L453.934 330.325C453.823 330.612 453.792 330.923 453.844 331.225C453.999 332.13 454.414 333.964 455.151 333.442C456.117 332.755 460.273 322.507 460.273 322.507" fill="#FAAF78"/>
<path d="M448.91 312.608L449.641 315.721C449.771 316.272 449.801 316.842 449.731 317.403L448.04 326.4C448.04 326.4 448.415 329.142 449.614 328.619C450.813 328.095 454.384 318.999 454.384 318.999L450.159 330.032C450.07 330.263 450.044 330.512 450.083 330.756C450.236 331.708 450.713 334.073 451.6 333.445C452.702 332.663 457.444 320.974 457.444 320.974" fill="#FAAF78"/>
<path d="M457.346 331.715C457.116 331.008 457.054 330.256 457.165 329.521L460.039 323.306L453.804 319.166L448.911 312.609L450.542 307.256C450.542 307.256 458.073 304.235 463.067 314.801C463.409 315.532 463.538 316.344 463.438 317.145L462.594 323.972C462.559 324.103 462.508 324.23 462.444 324.35C461.801 325.553 458.958 332.113 458.517 332.426C458.266 332.601 457.545 332.14 457.346 331.715Z" fill="#FAAF78"/>
<path d="M450.332 315.684L448.677 313.865C447.889 313.073 446.977 313.625 445.893 313.898L442.638 315.201C442.542 315.24 442.438 315.255 442.335 315.244C442.232 315.232 442.134 315.196 442.048 315.137C441.963 315.078 441.894 314.998 441.847 314.906C441.8 314.814 441.777 314.711 441.779 314.607C441.729 313.867 441.893 313.128 442.252 312.479C442.611 311.83 443.15 311.298 443.803 310.947L450.989 306.673L450.332 315.684Z" fill="#FAAF78"/>
<path d="M473.268 375.787C477.55 381.992 497.802 412.779 499.081 415.201C500.092 417.111 487.894 426.035 487.303 425.285C484.003 421.095 458.584 390.492 456.192 387.502C452.153 382.464 434.642 339.934 430.111 333.556L460.275 322.516C463.651 329.296 471.026 372.541 473.268 375.787Z" fill="#FAAF78"/>
<path d="M484.89 422.33L471.451 448.709C471.143 449.312 471.046 450.001 471.176 450.666C471.306 451.33 471.655 451.932 472.167 452.375C472.679 452.818 473.325 453.076 474.002 453.109C474.678 453.141 475.346 452.946 475.898 452.554L510.329 428.444C512.871 426.522 496.874 411.195 496.874 411.195L496.603 413.654C496.455 415.015 496.027 416.332 495.345 417.52C494.664 418.708 493.744 419.742 492.643 420.557C491.543 421.372 490.285 421.95 488.95 422.255C487.615 422.561 486.231 422.586 484.886 422.33H484.89Z" fill="#3D5D99"/>
<path d="M470.283 452.238L472.042 454.763C472.524 455.455 473.476 455.625 474.167 455.143L511.646 429.027C512.338 428.545 512.507 427.593 512.026 426.902L510.266 424.376C509.784 423.685 508.832 423.515 508.141 423.997L470.662 450.113C469.971 450.595 469.801 451.546 470.283 452.238Z" fill="#FF9B21"/>
<path d="M487.596 428.623C487.902 428.623 488.198 428.514 488.433 428.318C488.667 428.121 488.825 427.848 488.879 427.547C488.933 427.245 488.879 426.935 488.727 426.669C488.575 426.403 488.334 426.199 488.047 426.093L483.452 424.397C483.133 424.299 482.789 424.327 482.49 424.475C482.191 424.623 481.96 424.88 481.845 425.193C481.729 425.506 481.738 425.851 481.868 426.158C481.999 426.465 482.243 426.71 482.548 426.843L487.145 428.539C487.289 428.594 487.442 428.622 487.596 428.623Z" fill="#FF9B21"/>
<path d="M485.478 433.148C485.785 433.148 486.082 433.04 486.317 432.844C486.552 432.647 486.71 432.374 486.764 432.072C486.818 431.771 486.764 431.46 486.611 431.194C486.459 430.928 486.217 430.724 485.93 430.619L481.335 428.924C481.013 428.817 480.663 428.84 480.358 428.986C480.053 429.133 479.817 429.393 479.7 429.71C479.583 430.027 479.593 430.378 479.73 430.688C479.866 430.998 480.117 431.242 480.431 431.37L485.027 433.065C485.171 433.12 485.324 433.148 485.478 433.148Z" fill="#FF9B21"/>
<path d="M483.125 437.911C483.431 437.912 483.728 437.804 483.963 437.607C484.198 437.411 484.356 437.138 484.41 436.836C484.464 436.534 484.41 436.223 484.257 435.957C484.105 435.692 483.864 435.488 483.576 435.382L478.98 433.687C478.817 433.62 478.643 433.587 478.468 433.588C478.292 433.59 478.119 433.627 477.958 433.698C477.797 433.768 477.652 433.87 477.531 433.998C477.411 434.126 477.318 434.277 477.257 434.442C477.196 434.606 477.169 434.782 477.178 434.957C477.186 435.132 477.23 435.304 477.307 435.462C477.383 435.62 477.491 435.761 477.624 435.876C477.756 435.992 477.91 436.079 478.077 436.134L482.672 437.828C482.817 437.883 482.97 437.911 483.125 437.911Z" fill="#FF9B21"/>
<path d="M420.543 376.124C420.568 383.666 412.788 432.086 412.477 434.803C412.23 436.952 397.303 437.13 397.239 436.176C396.885 430.854 397.058 377.574 396.771 373.759C396.289 367.321 407.372 330.404 407.236 322.589L438.449 324.44C437.395 331.947 420.531 372.181 420.543 376.124Z" fill="#FAAF78"/>
<path d="M396.915 432.38L370.916 446.539C370.321 446.863 369.853 447.376 369.585 447.998C369.316 448.619 369.264 449.313 369.436 449.967C369.609 450.622 369.995 451.2 370.534 451.609C371.073 452.018 371.734 452.235 372.411 452.225L414.442 451.805C417.625 451.656 413.097 429.971 413.097 429.971L411.485 431.847C410.593 432.886 409.496 433.73 408.262 434.325C407.029 434.919 405.685 435.252 404.317 435.302C402.948 435.352 401.584 435.118 400.31 434.615C399.036 434.112 397.88 433.351 396.915 432.38Z" fill="#3D5D99"/>
<path d="M367.958 448.791L367.982 451.869C367.989 452.712 368.677 453.39 369.52 453.384L415.2 453.029C416.042 453.022 416.72 452.334 416.714 451.491L416.69 448.413C416.683 447.57 415.995 446.892 415.152 446.898L369.473 447.253C368.63 447.26 367.952 447.948 367.958 448.791Z" fill="#FF9B21"/>
<path d="M396.328 439.327C396.598 439.328 396.862 439.244 397.081 439.087C397.364 438.887 397.555 438.583 397.613 438.242C397.672 437.901 397.592 437.551 397.393 437.268L394.56 433.271C394.36 432.989 394.056 432.798 393.715 432.739C393.374 432.681 393.024 432.761 392.741 432.961C392.459 433.161 392.267 433.465 392.209 433.806C392.151 434.147 392.23 434.498 392.431 434.78L395.263 438.777C395.383 438.947 395.543 439.086 395.728 439.182C395.914 439.278 396.12 439.328 396.328 439.327Z" fill="#FF9B21"/>
<path d="M392.023 441.864C392.293 441.864 392.556 441.78 392.776 441.623C393.058 441.423 393.249 441.119 393.308 440.778C393.366 440.437 393.287 440.087 393.087 439.805L390.255 435.807C390.055 435.525 389.75 435.334 389.409 435.275C389.068 435.217 388.718 435.297 388.435 435.497C388.153 435.697 387.962 436.001 387.903 436.342C387.845 436.683 387.925 437.034 388.125 437.316L390.957 441.313C391.078 441.484 391.237 441.623 391.423 441.718C391.608 441.814 391.814 441.864 392.023 441.864Z" fill="#FF9B21"/>
<path d="M387.388 444.455C387.658 444.455 387.921 444.371 388.141 444.214C388.423 444.014 388.615 443.71 388.673 443.369C388.731 443.028 388.652 442.678 388.452 442.396L385.618 438.397C385.519 438.257 385.394 438.139 385.249 438.047C385.104 437.956 384.942 437.894 384.773 437.865C384.432 437.807 384.082 437.887 383.799 438.087C383.517 438.287 383.325 438.591 383.267 438.932C383.209 439.273 383.289 439.624 383.489 439.906L386.322 443.911C386.444 444.08 386.604 444.218 386.789 444.313C386.974 444.407 387.18 444.456 387.388 444.455Z" fill="#FF9B21"/>
<path d="M431.705 211.001L454.266 214.67C456.366 214.997 458.405 215.638 460.314 216.573C470.551 221.681 471.259 235.512 469.647 242.102L460.276 279.238L463.809 298.616L453.229 301.9C445.439 304.362 437.257 305.34 429.106 304.783C421.05 304.187 416.917 302.2 409.851 297.869L413.994 263.376C404.496 244.765 417.279 220.192 423.508 213.491C424.521 212.361 425.82 211.524 427.269 211.07C428.712 210.632 430.249 210.608 431.705 211.001Z" fill="#512566"/>
<path d="M417.217 218.123C417.217 218.123 429.028 236.537 475.302 232.854" stroke="#3D5D99" stroke-width="1.29865" stroke-miterlimit="10"/>
<path d="M420.075 210.233C420.075 210.233 431.885 228.647 478.16 224.964" stroke="#3D5D99" stroke-width="1.29865" stroke-miterlimit="10"/>
<path d="M413.468 227.079C413.468 227.079 425.278 245.493 471.553 241.81" stroke="#3D5D99" stroke-width="1.29865" stroke-miterlimit="10"/>
<path d="M409.718 236.035C409.718 236.035 421.528 254.45 467.801 250.766" stroke="#3D5D99" stroke-width="1.29865" stroke-miterlimit="10"/>
<path d="M406.876 245.802C406.876 245.802 418.687 264.217 464.961 260.532" stroke="#3D5D99" stroke-width="1.29865" stroke-miterlimit="10"/>
<path d="M405.892 255.961C405.892 255.961 417.703 274.375 463.976 270.692" stroke="#3D5D99" stroke-width="1.29865" stroke-miterlimit="10"/>
<path d="M406.924 268.962C406.924 268.962 420.609 286.029 466.238 277.492" stroke="#3D5D99" stroke-width="1.29865" stroke-miterlimit="10"/>
<path d="M411.321 285.649C422.27 288.166 433.657 288.078 444.566 285.391L460.677 281.422C460.677 281.422 466.585 300.493 473.267 342.989L435.018 349.774C421.835 351.075 409.136 346.193 396.771 341.424C404.16 318.624 411.321 285.649 411.321 285.649Z" fill="#FF9B21"/>
<path d="M451.832 193.822L452.31 214.333C452.093 216.543 446.394 221.849 440.452 222.817C439.641 222.942 438.811 222.873 438.032 222.614C437.253 222.355 436.546 221.913 435.972 221.327C435.397 220.74 434.971 220.025 434.728 219.24C434.485 218.456 434.433 217.625 434.576 216.816L437.294 201.199L451.832 193.822Z" fill="#FAAF78"/>
<path d="M435.208 213.203L436.44 206.166L449.195 200.688L448.673 203.509C448.673 203.509 446.781 208.169 435.208 213.203Z" fill="#E69361"/>
<path d="M452.064 207.055L431.465 206.919C430.075 206.915 428.709 206.561 427.493 205.889C426.278 205.216 425.251 204.248 424.51 203.073C423.419 201.227 423.098 199.025 423.619 196.944L426.065 179.619L451.291 181.689L452.064 207.055Z" fill="#FAAF78"/>
<path d="M426.065 179.619C425.341 180.604 444.82 198.695 449.744 197.051L452.907 197.507C452.907 197.507 467.017 187.634 455.524 173.559C448.918 165.468 432.103 171.387 426.065 179.619Z" fill="#F7204B"/>
<path d="M428.977 188.226C428.976 188.379 428.93 188.528 428.845 188.654C428.759 188.781 428.639 188.879 428.497 188.937C428.356 188.994 428.201 189.009 428.051 188.979C427.902 188.948 427.765 188.874 427.657 188.766C427.55 188.658 427.477 188.52 427.447 188.37C427.418 188.221 427.434 188.066 427.493 187.925C427.551 187.784 427.651 187.664 427.778 187.579C427.905 187.495 428.054 187.45 428.206 187.45C428.308 187.45 428.409 187.471 428.502 187.51C428.596 187.549 428.681 187.606 428.753 187.678C428.824 187.75 428.881 187.836 428.92 187.93C428.958 188.024 428.978 188.125 428.977 188.226Z" fill="#371945"/>
<path d="M428.365 196.616C429.462 196.287 430.456 195.685 431.255 194.865C431.288 194.831 431.306 194.786 431.306 194.739C431.306 194.691 431.288 194.646 431.255 194.612C431.238 194.596 431.219 194.582 431.197 194.573C431.175 194.564 431.152 194.56 431.128 194.56C431.105 194.56 431.082 194.564 431.06 194.573C431.038 194.582 431.019 194.596 431.002 194.612C427.74 197.783 424.92 195.924 424.802 195.844C424.763 195.818 424.715 195.808 424.668 195.816C424.622 195.825 424.581 195.851 424.553 195.89C424.526 195.929 424.516 195.977 424.525 196.024C424.534 196.07 424.56 196.112 424.599 196.138C425.162 196.468 425.786 196.68 426.434 196.762C427.081 196.844 427.738 196.794 428.365 196.616Z" fill="#371945"/>
<path d="M425.408 185.118L422.418 189.535C422.231 189.811 422.15 190.146 422.19 190.478C422.23 190.81 422.389 191.116 422.637 191.34L424.321 192.856L425.408 185.118Z" fill="#FAAF78"/>
<path d="M402.123 320.913L397.001 310.292L423.232 272.936L437.91 234.862L459.275 247.67L436.578 293.934L402.123 320.913Z" fill="#FAAF78"/>
<path d="M395.58 325.091L387.116 330.835C386.861 331.006 386.658 331.244 386.527 331.521C386.139 332.352 385.431 334.094 386.333 334.086C387.518 334.075 396.786 328.041 396.786 328.041" fill="#FAAF78"/>
<path d="M393.126 313.425L391.948 316.396C391.739 316.922 391.438 317.407 391.06 317.829L384.537 324.245C384.537 324.245 383.278 326.709 384.56 326.963C385.841 327.217 393.973 321.799 393.973 321.799L384.199 328.437C383.995 328.575 383.83 328.766 383.722 328.988C383.304 329.857 382.344 332.071 383.432 332.061C384.783 332.049 395.352 325.167 395.352 325.167" fill="#FAAF78"/>
<path d="M389.128 333.924C389.344 333.213 389.723 332.561 390.234 332.022L396.146 328.564L393.394 321.603L393.122 313.425L397.52 309.965C397.52 309.965 405.426 311.791 403.486 323.315C403.349 324.111 402.99 324.851 402.451 325.452L397.857 330.57C397.753 330.658 397.639 330.733 397.517 330.794C396.302 331.414 390.22 335.172 389.679 335.177C389.375 335.184 389.049 334.388 389.128 333.924Z" fill="#FAAF78"/>
<path d="M392.537 316.76L392.216 314.322C392.021 313.222 390.959 313.153 389.913 312.759L386.497 311.968C386.396 311.945 386.302 311.897 386.224 311.829C386.146 311.761 386.086 311.674 386.05 311.577C386.014 311.48 386.002 311.375 386.017 311.273C386.031 311.17 386.071 311.073 386.132 310.989C386.514 310.353 387.071 309.84 387.736 309.512C388.402 309.185 389.148 309.056 389.885 309.142L398.223 309.742L392.537 316.76Z" fill="#FAAF78"/>
<path d="M457.892 173.237C457.892 173.509 457.811 173.775 457.66 174.001C457.509 174.228 457.294 174.404 457.043 174.508C456.792 174.612 456.515 174.639 456.248 174.586C455.981 174.533 455.736 174.402 455.544 174.21C455.352 174.017 455.221 173.772 455.168 173.506C455.114 173.239 455.142 172.962 455.246 172.711C455.35 172.46 455.526 172.245 455.752 172.094C455.979 171.942 456.244 171.862 456.517 171.862C456.881 171.862 457.231 172.007 457.489 172.265C457.747 172.523 457.892 172.872 457.892 173.237Z" fill="#512566"/>
<path d="M430.673 171.406L458.806 192.934C458.806 192.934 469.321 161.251 430.673 171.406Z" fill="#512566"/>
<path d="M440.258 178.743C440.258 178.743 420.324 166.057 428.621 166.307C439.703 166.641 440.258 178.743 440.258 178.743Z" fill="#512566"/>
<path d="M447.256 192.857C447.256 192.857 465.514 196.97 462.915 213.972C460.317 230.975 438.432 229.881 433.345 230.994C428.258 232.107 423.794 238.893 425.231 243.633C425.231 243.633 412.213 236.358 421.304 221.585C430.395 206.811 451.476 207.45 448.197 200.809C444.919 194.169 447.256 192.857 447.256 192.857Z" fill="#F7204B"/>
<path d="M453.033 198.904C452.402 199.711 451.546 200.313 450.573 200.634C449.599 200.955 448.553 200.979 447.565 200.705C446.578 200.431 445.694 199.87 445.025 199.093C444.357 198.316 443.934 197.359 443.809 196.342C443.685 195.325 443.865 194.293 444.327 193.378C444.789 192.464 445.511 191.706 446.404 191.202C447.296 190.698 448.318 190.47 449.339 190.547C450.361 190.623 451.338 191.001 452.145 191.633C452.68 192.052 453.128 192.572 453.463 193.165C453.798 193.757 454.012 194.409 454.095 195.084C454.178 195.76 454.126 196.444 453.944 197.1C453.762 197.755 453.453 198.368 453.033 198.904Z" fill="#FAAF78"/>
<path d="M447.869 196.964L450.268 194.602L450.016 194.38L447.618 196.742L447.869 196.964Z" fill="#371945"/>
<path d="M450.032 196.863L450.282 196.619L447.86 194.492L447.61 194.736L450.032 196.863Z" fill="#371945"/>
</g>
<defs>
<clipPath id="clip0_8148_1843">
<rect width="649.326" height="461" fill="white"/>
</clipPath>
</defs>
</svg>
