<svg width="250" height="266" viewBox="0 0 250 266" fill="none" xmlns="http://www.w3.org/2000/svg">
<g clip-path="url(#clip0_8345_3017)">
<path d="M128.772 218.375V255.133H179.032V218.375H128.772ZM159.684 253.012H148.12V235H159.681L159.684 253.012Z" fill="#D9E6FF"/>
<path d="M136.562 215.159H125.001V220.204H136.562V215.159Z" fill="#C75F5F"/>
<path d="M148.123 215.159H136.562V220.204H148.123V215.159Z" fill="#EBE6E6"/>
<path d="M159.684 215.159H148.123V220.204H159.684V215.159Z" fill="#C75F5F"/>
<path d="M171.246 215.159H159.685V220.204H171.246V215.159Z" fill="#EBE6E6"/>
<path d="M182.807 215.159H171.246V220.204H182.807V215.159Z" fill="#C75F5F"/>
<path d="M131.581 209.801H140.51L136.562 215.163H125.001L131.581 209.801Z" fill="#FF7F7A"/>
<path d="M140.51 209.801H149.439L148.123 215.163H136.562L140.51 209.801Z" fill="#FFFAFA"/>
<path d="M149.439 209.801H158.371L159.688 215.163H148.12L149.439 209.801Z" fill="#FF7F7A"/>
<path d="M158.372 209.801H167.298L171.246 215.163H159.685L158.372 209.801Z" fill="#FFFAFA"/>
<path d="M167.298 209.801H176.227L182.807 215.163H171.246L167.298 209.801Z" fill="#FF7F7A"/>
<path d="M136.562 220.023C136.562 223.478 133.974 226.279 130.781 226.279C127.588 226.279 125.001 223.478 125.001 220.023" fill="#C75F5F"/>
<path d="M148.12 220.023C148.12 223.478 145.532 226.279 142.339 226.279C139.146 226.279 136.559 223.478 136.559 220.023" fill="#EBE6E6"/>
<path d="M159.684 220.023C159.684 223.478 157.096 226.279 153.904 226.279C150.712 226.279 148.123 223.478 148.123 220.023" fill="#C75F5F"/>
<path d="M171.247 220.023C171.247 223.478 168.658 226.279 165.466 226.279C162.273 226.279 159.685 223.478 159.685 220.023" fill="#EBE6E6"/>
<path d="M182.807 220.023C182.807 223.478 180.219 226.279 177.026 226.279C173.833 226.279 171.246 223.478 171.246 220.023" fill="#C75F5F"/>
<path d="M155.012 184.071C152.914 184.092 150.902 184.91 149.385 186.36C147.868 187.81 146.959 189.782 146.843 191.878C146.843 196.122 154.529 203.612 154.529 203.612L155.012 203.492C155.012 203.492 162.698 196 162.698 191.757C162.698 189.718 161.888 187.763 160.447 186.322C159.005 184.881 157.05 184.071 155.012 184.071ZM155.634 195.153C154.974 195.374 154.26 195.38 153.596 195.17C152.932 194.959 152.352 194.544 151.939 193.983C151.526 193.422 151.302 192.745 151.298 192.048C151.294 191.352 151.512 190.672 151.919 190.107C152.326 189.542 152.902 189.12 153.563 188.903C154.225 188.686 154.939 188.684 155.602 188.898C156.264 189.112 156.842 189.531 157.252 190.094C157.662 190.657 157.883 191.336 157.882 192.032C157.881 192.722 157.663 193.394 157.26 193.954C156.857 194.514 156.288 194.933 155.634 195.153Z" fill="#C75F5F"/>
<path d="M155.059 184.021C153.021 184.021 151.066 184.831 149.624 186.272C148.183 187.714 147.373 189.669 147.373 191.707C147.373 195.952 155.059 203.441 155.059 203.441C155.059 203.441 162.745 195.95 162.745 191.707C162.745 189.669 161.936 187.714 160.494 186.272C159.053 184.831 157.098 184.021 155.059 184.021ZM155.119 195.154C154.468 195.154 153.831 194.961 153.29 194.599C152.748 194.237 152.326 193.722 152.077 193.121C151.828 192.519 151.763 191.857 151.89 191.218C152.017 190.579 152.331 189.993 152.792 189.532C153.252 189.072 153.839 188.758 154.478 188.631C155.116 188.504 155.779 188.569 156.38 188.819C156.982 189.068 157.496 189.49 157.858 190.031C158.22 190.573 158.413 191.21 158.413 191.861C158.413 192.734 158.066 193.572 157.449 194.189C156.831 194.807 155.994 195.154 155.121 195.154H155.119Z" fill="#FF7F7A"/>
<path d="M154.864 188.581C154.78 188.574 154.695 188.568 154.608 188.568C153.735 188.568 152.897 188.915 152.279 189.532C151.662 190.15 151.315 190.988 151.315 191.861C151.315 192.734 151.662 193.572 152.279 194.189C152.897 194.807 153.735 195.154 154.608 195.154C154.695 195.154 154.78 195.148 154.864 195.141C154.038 195.077 153.267 194.704 152.704 194.096C152.141 193.488 151.829 192.69 151.829 191.861C151.829 191.033 152.141 190.235 152.704 189.627C153.267 189.019 154.038 188.645 154.864 188.581Z" fill="#E09E9B"/>
<path d="M155.059 184.021C154.973 184.021 154.888 184.021 154.803 184.027C156.796 184.093 158.685 184.931 160.072 186.364C161.459 187.797 162.235 189.713 162.235 191.707C162.235 195.492 156.131 201.849 154.805 203.185C154.963 203.349 155.061 203.441 155.061 203.441C155.061 203.441 162.748 195.95 162.748 191.707C162.748 190.698 162.549 189.698 162.162 188.765C161.776 187.833 161.209 186.985 160.495 186.271C159.781 185.558 158.934 184.992 158.001 184.605C157.068 184.219 156.069 184.021 155.059 184.021Z" fill="#E09E9B"/>
<path d="M174.383 262.111L164.462 260.538V246.363L174.383 247.936V262.111Z" fill="#BD9A7B"/>
<path d="M174.383 247.938L164.462 246.365L172.92 244.788L182.84 246.361L174.383 247.938Z" fill="#EBC9AA"/>
<path d="M174.383 262.111L182.841 260.538V246.363L174.383 247.936V262.111Z" fill="#D6B392"/>
<path d="M176.46 248.371L168.364 247.087V235.52L176.46 236.803V248.371Z" fill="#BD9A7B"/>
<path d="M176.46 236.804L168.364 235.524L175.266 234.238L183.361 235.522L176.46 236.804Z" fill="#EBC9AA"/>
<path d="M176.459 248.371L183.361 247.087V235.52L176.459 236.803V248.371Z" fill="#D6B392"/>
<path d="M186.708 265.1L178.612 263.816V252.249L186.708 253.533V265.1Z" fill="#BD9A7B"/>
<path d="M186.708 253.535L178.612 252.251L185.514 250.965L193.609 252.249L186.708 253.535Z" fill="#EBC9AA"/>
<path d="M186.708 265.1L193.609 263.816V252.249L186.708 253.533V265.1Z" fill="#D6B392"/>
<path d="M75.4394 14.9841C71.122 16.9997 8.54634 47.2584 0.789232 102.096C-5.40809 145.914 25.7804 188.563 63.1646 191.339C97.1084 193.863 106.199 172.103 147.516 176.593C176.197 179.708 202.449 177.973 214.555 171.102C240.62 156.31 250.193 123.098 249.998 95.9956C249.841 74.374 241.933 32.674 192.989 9.95385C140.527 -14.4049 78.805 13.4133 75.4394 14.9841Z" fill="#D9E6FF"/>
<path d="M204.222 31.7412H38.6748C34.9817 31.7412 31.9878 34.7351 31.9878 38.4282V156.004C31.9878 159.697 34.9817 162.691 38.6748 162.691H204.222C207.915 162.691 210.909 159.697 210.909 156.004V38.4282C210.909 34.7351 207.915 31.7412 204.222 31.7412Z" fill="white"/>
<path d="M204.649 31.7412H38.249C36.5884 31.7412 34.9958 32.4009 33.8216 33.5751C32.6474 34.7493 31.9878 36.3418 31.9878 38.0024V44.5988H210.907V38.0024C210.907 36.3423 210.248 34.7501 209.074 33.576C207.901 32.4018 206.309 31.7418 204.649 31.7412Z" fill="#A0C4FA"/>
<path d="M194.347 37.8999C194.347 38.1211 194.282 38.3373 194.159 38.5211C194.036 38.705 193.861 38.8484 193.657 38.933C193.453 39.0176 193.228 39.0398 193.011 38.9966C192.794 38.9535 192.595 38.847 192.438 38.6906C192.282 38.5342 192.175 38.335 192.132 38.1181C192.089 37.9012 192.111 37.6763 192.196 37.472C192.281 37.2677 192.424 37.0931 192.608 36.9702C192.792 36.8473 193.008 36.7817 193.229 36.7817C193.376 36.7816 193.521 36.8105 193.657 36.8667C193.793 36.9228 193.916 37.0052 194.02 37.109C194.124 37.2129 194.206 37.3362 194.262 37.4719C194.318 37.6076 194.347 37.753 194.347 37.8999Z" fill="white"/>
<path d="M199.709 37.8999C199.709 38.1209 199.644 38.3368 199.521 38.5205C199.398 38.7041 199.223 38.8472 199.019 38.9317C198.815 39.0161 198.59 39.0382 198.374 38.995C198.157 38.9518 197.958 38.8453 197.802 38.689C197.645 38.5327 197.539 38.3336 197.496 38.1168C197.453 37.9001 197.475 37.6755 197.56 37.4713C197.644 37.2672 197.788 37.0927 197.971 36.97C198.155 36.8473 198.371 36.7817 198.592 36.7817C198.739 36.7816 198.884 36.8105 199.02 36.8667C199.156 36.9228 199.279 37.0052 199.383 37.1091C199.486 37.2129 199.569 37.3362 199.625 37.4719C199.681 37.6077 199.71 37.7531 199.709 37.8999Z" fill="white"/>
<path d="M205.076 37.8999C205.076 38.1211 205.01 38.3373 204.887 38.5211C204.764 38.705 204.59 38.8484 204.385 38.933C204.181 39.0176 203.956 39.0398 203.739 38.9966C203.522 38.9535 203.323 38.847 203.167 38.6906C203.011 38.5342 202.904 38.335 202.861 38.1181C202.818 37.9012 202.84 37.6763 202.924 37.472C203.009 37.2677 203.152 37.0931 203.336 36.9702C203.52 36.8473 203.736 36.7817 203.958 36.7817C204.104 36.7816 204.25 36.8105 204.386 36.8667C204.521 36.9228 204.645 37.0052 204.748 37.109C204.852 37.2129 204.935 37.3362 204.991 37.4719C205.047 37.6076 205.076 37.753 205.076 37.8999Z" fill="white"/>
<path d="M200.529 153.738C205.1 149.167 205.1 141.756 200.529 137.185C195.958 132.615 188.547 132.615 183.976 137.185C179.405 141.756 179.405 149.167 183.976 153.738C188.547 158.309 195.958 158.309 200.529 153.738Z" fill="#A0C4FA"/>
<path d="M191.337 151.03C191.337 151.221 191.281 151.408 191.174 151.567C191.068 151.725 190.917 151.849 190.741 151.922C190.564 151.996 190.37 152.015 190.183 151.977C189.995 151.94 189.823 151.848 189.688 151.713C189.553 151.578 189.461 151.406 189.424 151.218C189.387 151.031 189.406 150.837 189.479 150.66C189.552 150.484 189.676 150.333 189.835 150.227C189.993 150.121 190.18 150.064 190.371 150.064C190.498 150.064 190.624 150.089 190.741 150.137C190.858 150.186 190.965 150.257 191.054 150.347C191.144 150.437 191.215 150.543 191.264 150.66C191.312 150.777 191.337 150.903 191.337 151.03V151.03Z" stroke="white" stroke-miterlimit="10"/>
<path d="M195.416 151.03C195.416 151.221 195.359 151.407 195.253 151.566C195.147 151.725 194.996 151.848 194.82 151.921C194.644 151.994 194.45 152.013 194.263 151.976C194.075 151.939 193.903 151.847 193.769 151.712C193.634 151.577 193.542 151.405 193.504 151.218C193.467 151.03 193.486 150.836 193.559 150.66C193.632 150.484 193.756 150.333 193.914 150.227C194.073 150.121 194.259 150.064 194.45 150.064C194.577 150.064 194.703 150.089 194.82 150.137C194.937 150.186 195.044 150.257 195.134 150.347C195.223 150.436 195.294 150.543 195.343 150.66C195.391 150.777 195.416 150.903 195.416 151.03Z" stroke="white" stroke-miterlimit="10"/>
<path d="M190.152 141.925H197.501C197.609 141.93 197.714 141.96 197.808 142.012C197.902 142.064 197.984 142.137 198.046 142.225C198.107 142.314 198.148 142.415 198.166 142.521C198.183 142.627 198.175 142.736 198.144 142.839L195.391 147.844C195.374 147.917 195.333 147.983 195.275 148.03C195.217 148.078 195.144 148.104 195.069 148.106H189.3C189.191 148.103 189.087 148.059 189.008 147.983C188.929 147.908 188.88 147.806 188.872 147.697L187.931 140.097H186.338" stroke="white" stroke-miterlimit="10" stroke-linecap="round"/>
<path d="M194.452 148.108H196.574" stroke="white" stroke-miterlimit="10" stroke-linecap="round"/>
<path d="M194.518 150.063H189.068C188.506 150.063 187.722 150.146 187.722 149.092C187.722 147.988 188.506 148.105 189.068 148.105H193.386" stroke="white" stroke-miterlimit="10" stroke-linecap="round"/>
<path d="M212.472 50.9333L209.599 55.6876L210.476 58.9554L227.553 69.2659L233.185 59.811L216.111 49.5005L212.472 50.9333ZM214.429 55.2893C214.341 55.4365 214.211 55.5541 214.055 55.6273C213.9 55.7004 213.726 55.7258 213.557 55.7002C213.387 55.6746 213.228 55.5992 213.102 55.4835C212.975 55.3678 212.885 55.2171 212.844 55.0504C212.803 54.8836 212.812 54.7085 212.87 54.547C212.929 54.3856 213.034 54.2451 213.172 54.1434C213.311 54.0418 213.476 53.9835 213.648 53.9759C213.819 53.9683 213.989 54.0119 214.136 54.101C214.332 54.22 214.473 54.4119 214.528 54.6346C214.583 54.8573 214.548 55.0927 214.429 55.2893Z" fill="#FF7F7A"/>
<path d="M172.494 31.6371C176.279 30.6641 181.568 30.0032 185.868 32.6852C191.23 36.0302 190.77 41.8979 195.55 47.2531C198.449 50.4996 203.73 54.0679 214.189 54.802" stroke="#2A2E54" stroke-width="0.5" stroke-miterlimit="10"/>
<path d="M71.0454 101.485L53.145 98.6459V73.0728L71.0454 75.9116V101.485Z" fill="#BD9A7B"/>
<path d="M71.0454 75.914L53.145 73.0752L68.4029 70.2363L86.3033 73.0752L71.0454 75.914Z" fill="#EBC9AA"/>
<path d="M71.0454 101.485L86.3041 98.6459V73.0728L71.0454 75.9116V101.485Z" fill="#D6B392"/>
<path d="M86.3043 86.1062C88.7824 86.1062 90.7912 84.0973 90.7912 81.6192C90.7912 79.1412 88.7824 77.1323 86.3043 77.1323C83.8262 77.1323 81.8174 79.1412 81.8174 81.6192C81.8174 84.0973 83.8262 86.1062 86.3043 86.1062Z" fill="#FF7F7A"/>
<path d="M88.1593 83.5625C88.1593 82.7809 87.4652 82.5942 86.8061 82.4367V80.891C87.1444 80.9085 87.5177 81.0193 87.8444 81.2293L87.9902 80.8851C87.681 80.6693 87.2436 80.541 86.8061 80.5235V79.8585H86.5144V80.5293C85.622 80.5993 85.2195 81.0835 85.2195 81.6434C85.2195 82.4134 85.8728 82.6117 86.5144 82.7692V84.3033C86.0245 84.2741 85.5578 84.0758 85.2895 83.8133L85.1203 84.1458C85.4062 84.4374 85.9428 84.6474 86.5144 84.6766V85.3416H86.8061V84.6708C87.7335 84.6183 88.1593 84.1283 88.1593 83.5625ZM85.6453 81.6318C85.6453 81.2643 85.9136 80.9551 86.5144 80.9026V82.3609C86.0361 82.2384 85.6453 82.0751 85.6453 81.6318ZM86.8061 84.3033V82.845C87.3077 82.9675 87.7335 83.125 87.7335 83.5858C87.7335 83.9591 87.4477 84.2566 86.8061 84.3033Z" fill="white"/>
<path d="M97.5451 52.0791H45.9817C43.6387 52.0791 41.7393 53.9785 41.7393 56.3216V138.111C41.7393 140.454 43.6387 142.353 45.9817 142.353H97.5451C99.8882 142.353 101.788 140.454 101.788 138.111V56.3216C101.788 53.9785 99.8882 52.0791 97.5451 52.0791Z" stroke="#D9E6FF" stroke-miterlimit="10"/>
<path d="M49.5498 116.617H74.5165" stroke="#D9E6FF" stroke-miterlimit="10"/>
<path d="M49.5498 121.608H74.5165" stroke="#D9E6FF" stroke-miterlimit="10"/>
<path d="M49.5498 126.6H74.5165" stroke="#D9E6FF" stroke-miterlimit="10"/>
<path d="M63.6028 72.9258L58.3589 73.902L62.5801 74.5699L67.8201 73.5945L63.6028 72.9258Z" fill="#FF7F7A"/>
<path d="M62.5835 79.0511V74.5712L58.3623 73.9033V78.2136L62.5835 79.0511Z" fill="#C75F5F"/>
<path d="M162.876 52.0791H111.313C108.97 52.0791 107.07 53.9785 107.07 56.3216V138.111C107.07 140.454 108.97 142.353 111.313 142.353H162.876C165.219 142.353 167.119 140.454 167.119 138.111V56.3216C167.119 53.9785 165.219 52.0791 162.876 52.0791Z" stroke="#D9E6FF" stroke-miterlimit="10"/>
<path d="M190.478 91.0005H201.889" stroke="#D9E6FF" stroke-miterlimit="10"/>
<path d="M190.478 95.0488H201.889" stroke="#D9E6FF" stroke-miterlimit="10"/>
<path d="M190.478 99.0977H201.889" stroke="#D9E6FF" stroke-miterlimit="10"/>
<path d="M186.905 90.0576H176.922V100.041H186.905V90.0576Z" fill="#D9E6FF"/>
<path d="M201.889 72.4253H176.922V82.4085H201.889V72.4253Z" fill="#D9E6FF"/>
<path d="M190.478 107.626H201.889" stroke="#D9E6FF" stroke-miterlimit="10"/>
<path d="M190.478 111.675H201.889" stroke="#D9E6FF" stroke-miterlimit="10"/>
<path d="M190.478 115.724H201.889" stroke="#D9E6FF" stroke-miterlimit="10"/>
<path d="M186.905 106.683H176.922V116.666H186.905V106.683Z" fill="#D9E6FF"/>
<path d="M59.9541 235.139C59.9541 235.139 70.4318 216.093 68.3555 208.437C68.3555 208.437 60.1489 222.629 59.9541 235.139Z" fill="#80BD82"/>
<path d="M62.3485 228.899C62.3485 228.899 57.4468 238.493 56.1094 246.63" stroke="#80BD82" stroke-miterlimit="10"/>
<path d="M53.832 225.943C53.832 225.943 59.3283 235.902 58.8788 246.59" stroke="#80BD82" stroke-miterlimit="10"/>
<path d="M58.7832 223.312L57.8921 246.872" stroke="#80BD82" stroke-miterlimit="10"/>
<path d="M58.7831 225.986C58.7831 225.986 60.2688 196.232 52.544 187.002C52.544 187 50.9069 209.347 58.7831 225.986Z" fill="#80BD82"/>
<path d="M58.8873 230.366C58.8873 230.366 67.6632 201.465 62.3672 191.153C62.3672 191.153 55.2685 212.773 58.8873 230.366Z" fill="#47A68B"/>
<path d="M56.8212 234.529C56.8212 234.529 51.7847 205.037 42.1689 197.083C42.1666 197.083 45.4391 219.308 56.8212 234.529Z" fill="#47A68B"/>
<path d="M51.8975 238.548H64.1683L62.7434 252.64H53.3224L51.8975 238.548Z" fill="#A0C4FA"/>
<path d="M104.559 114.46C104.559 114.46 81.3016 119.234 80.6763 120.234C80.051 121.235 89.468 125.712 89.468 125.712C89.468 125.712 103.626 123.798 108.157 120.63C112.688 117.463 104.559 114.46 104.559 114.46Z" fill="#FCC1AB"/>
<path d="M101.841 116.046C103.739 111.487 108.797 99.5376 108.797 99.5376L112.36 99.853C112.36 99.853 111.74 116.451 109.436 119.593C107.132 122.736 100.419 119.461 101.841 116.046Z" fill="#FCC1AB"/>
<g style="mix-blend-mode:multiply">
<path d="M62.5923 257.3C62.5923 259.429 74.7456 261.15 89.737 261.15C104.728 261.15 116.883 259.426 116.883 257.3C116.883 255.174 104.729 253.45 89.737 253.45C74.7448 253.45 62.5923 255.174 62.5923 257.3Z" fill="#E2E2E2"/>
</g>
<path d="M90.2004 147.602L80.214 206.333L63.5083 246.314L69.1347 248.901L92.4762 209.927L108.612 154.361L90.2004 147.602Z" fill="#FCC1AB"/>
<path d="M64.2765 244.632C64.2765 244.632 67.9528 248.038 70.5913 246.536C70.5913 246.536 71.3144 247.68 72.7882 250.143C72.7882 250.143 78.3082 254.047 79.1157 257.299C72.5653 256.607 66.1527 254.954 60.0845 252.392C60.0845 252.392 61.7594 246.974 64.2765 244.632Z" fill="#22264D"/>
<path d="M107.991 153.017L92.1247 157.159L92.6766 160.393C93.8327 167.154 87.8664 164.906 90.3496 171.3L111.835 207.495L110.591 245.798L109.882 254.102L116.697 256.424L125.578 206.243L107.991 153.017Z" fill="#FCC1AB"/>
<path d="M110.037 252.639C110.037 252.639 112.144 255.903 117.377 252.66C117.377 252.66 117.541 253.278 120.917 256.144C120.917 256.144 128.529 257.441 130.695 260.402C130.695 260.402 119.199 262.827 108.191 261.634C108.188 261.634 108.452 256.049 110.037 252.639Z" fill="#22264D"/>
<path d="M88.6702 119.529C88.6702 119.529 89.5005 112.014 89.1481 111.373C88.7956 110.732 83.5974 105.174 83.7961 100.527C83.9948 95.8803 88.9635 91.5354 95.067 92.7127C101.06 93.8695 102.542 97.1744 102.819 100.418C102.898 101.332 102.139 102.519 102.634 105.023C103.437 109.075 102.153 110.64 100.488 114.565C100.401 114.701 100.282 114.813 100.14 114.89C99.9986 114.967 99.8398 115.008 99.6785 115.007C98.6534 115.129 96.7333 114.992 95.6758 113.975L96.6378 117.99C96.6378 117.99 92.2787 120.649 88.6702 119.529Z" fill="#FCC1AB"/>
<path d="M101.228 97.2792C99.7723 100.401 97.6001 103.134 94.8882 105.257C94.8882 105.257 93.095 103.186 91.7576 105.12C90.197 107.376 94.4947 109.157 94.4947 109.157L89.272 111.643C89.272 111.643 83.6172 106.821 83.3578 102.108C83.1539 99.5856 83.9117 97.0797 85.479 95.0933C87.0463 93.1068 89.307 91.7867 91.8072 91.3981C98.4785 90.2579 104.599 95.6146 102.705 99.5203C102.705 99.5188 102.673 98.5228 101.228 97.2792Z" fill="#22264D"/>
<path d="M101.883 103.039C101.883 103.039 103.46 105.499 104.131 106.53C104.66 107.343 102.79 108.31 102.184 108.195C101.579 108.08 101.883 103.039 101.883 103.039Z" fill="#FCC1AB"/>
<path d="M80.9516 120.09C82.9783 118.528 85.7619 119.192 88.8822 116.847L96.536 116.797C98.7139 118.169 101.242 118.881 103.816 118.847C107.24 118.868 108.804 125.331 108.804 125.331C107.662 124.91 104.23 137.791 104.23 137.791L107.009 145.644L98.4972 152.711C88.9169 151.691 88.1315 147.073 88.1315 147.073L81.1283 130.29C79.7475 127.662 78.556 121.934 80.9516 120.09Z" fill="#FF6766"/>
<path d="M129.803 119.09L111.213 115.834V86.4995L129.803 89.7555V119.09Z" fill="#BD9A7B"/>
<path d="M129.803 89.7563L111.213 86.5003L127.063 83.2412L145.653 86.4972L129.803 89.7563Z" fill="#EBC9AA"/>
<path d="M129.803 119.09L145.653 115.834V86.4995L129.803 89.7555V119.09Z" fill="#D6B392"/>
<path d="M123.895 121.587C123.895 121.587 106.337 119.259 105.267 119.756C104.196 120.252 103.409 128.17 103.409 128.17C103.409 128.17 116.914 128.822 122.441 128.643C127.968 128.464 123.895 121.587 123.895 121.587Z" fill="#FCC1AB"/>
<path d="M139.736 111.853C139.736 111.853 140.855 108.763 142.048 108.658C144.619 108.431 145.689 106.981 145.65 107.685C145.565 109.163 144.383 109.855 142.621 110.005L139.736 111.853Z" fill="#FCC1AB"/>
<path d="M141.412 109.988C141.412 109.988 145.916 109.473 146.634 109.578C147.693 109.735 147.538 110.964 147.135 111.405C146.838 111.733 147.795 112.233 147.05 113.365C146.585 114.075 147.135 114.109 146.893 114.816C146.699 115.368 145.852 115.5 145.867 116.094C145.899 117.188 144.953 117.119 144.319 117.424C143.415 117.638 142.474 117.643 141.567 117.44C140.66 117.237 139.811 116.83 139.085 116.25C136.387 114.157 141.412 109.988 141.412 109.988Z" fill="#FCC1AB"/>
<path d="M121.578 121.375C126.119 119.434 138.703 113.785 138.703 113.785L141.033 116.499C141.033 116.499 127.43 127.836 123.586 128.479C119.742 129.121 118.177 122.829 121.578 121.375Z" fill="#FCC1AB"/>
<path d="M97.0104 117.834C102.611 118.247 108.172 119.078 113.649 120.318C113.649 120.318 113.828 128.152 113.426 129.86C113.424 129.86 88.0799 129.141 97.0104 117.834Z" fill="#FF6766"/>
<path d="M108.879 99.2633C108.879 99.2633 109.938 96.3046 110.422 95.0949C110.906 93.8853 114.759 93.2024 116.046 92.4745C117.333 91.7467 116.107 94.7724 113.385 95.4379C113.385 95.4379 112.418 101.344 108.547 100.457" fill="#FCC1AB"/>
<path d="M100.925 104.708C101.082 104.708 101.209 104.457 101.209 104.148C101.209 103.839 101.082 103.588 100.925 103.588C100.768 103.588 100.64 103.839 100.64 104.148C100.64 104.457 100.768 104.708 100.925 104.708Z" fill="#2A2C41"/>
<path d="M100.375 108.945C100.645 109.173 100.96 109.342 101.298 109.442C101.637 109.542 101.993 109.571 102.343 109.526" stroke="#2A2C41" stroke-width="0.5" stroke-miterlimit="10"/>
<path d="M92.4438 105.846C92.4438 105.846 93.0984 104.767 94.1637 105.781C94.1637 105.781 92.6993 106.935 94.4421 107.376" stroke="#2A2C41" stroke-width="0.5" stroke-miterlimit="10"/>
<path d="M86.5564 94.2848C86.5564 94.2848 80.6462 97.581 80.6462 112.264C80.6462 126.56 77.0755 128.076 76.7617 136.951C76.4478 145.826 93.1969 148.622 96.292 137.785C100.167 124.217 94.4421 118.665 94.4941 109.156L89.7367 108.202L88.7534 93.1816" fill="#22264D"/>
<path d="M88.1275 147.069C88.1275 147.069 92.8304 150.037 107.005 145.64L121.335 185.504C121.335 185.504 107.005 204.72 79.5802 192.48C79.5778 192.48 75.7021 167.134 88.1275 147.069Z" fill="#22264D"/>
<path d="M104.593 126.209C104.593 126.209 111.059 132.919 105.255 138.022C100.429 142.269 104.593 126.209 104.593 126.209Z" fill="#FF6766"/>
<path d="M150.137 95.2233C150.137 96.1107 149.874 96.9782 149.381 97.7161C148.888 98.4539 148.187 99.029 147.368 99.3686C146.548 99.7083 145.646 99.7971 144.775 99.624C143.905 99.4509 143.105 99.0235 142.478 98.396C141.85 97.7685 141.423 96.969 141.25 96.0986C141.077 95.2282 141.166 94.3261 141.505 93.5062C141.845 92.6863 142.42 91.9855 143.158 91.4925C143.896 90.9995 144.763 90.7363 145.651 90.7363C146.84 90.7365 147.982 91.2093 148.823 92.0508C149.664 92.8922 150.137 94.0333 150.137 95.2233Z" fill="#FF7F7A"/>
<path d="M147.505 97.1665C147.505 96.3849 146.811 96.1982 146.152 96.0407V94.495C146.49 94.5125 146.863 94.6233 147.19 94.8333L147.336 94.4892C147.027 94.2733 146.589 94.145 146.152 94.1275V93.4625H145.86V94.1333C144.968 94.2033 144.565 94.6875 144.565 95.2474C144.565 96.0174 145.219 96.2157 145.86 96.3732V97.9073C145.37 97.8781 144.904 97.6798 144.635 97.4173L144.466 97.7498C144.752 98.0415 145.288 98.2514 145.86 98.2806V98.9456H146.152V98.2748C147.079 98.2223 147.505 97.7323 147.505 97.1665ZM144.991 95.2358C144.991 94.8683 145.259 94.5591 145.86 94.5067V95.9649C145.382 95.8424 144.991 95.6791 144.991 95.2358ZM146.152 97.9073V96.449C146.653 96.5715 147.079 96.729 147.079 97.1898C147.079 97.5631 146.793 97.8606 146.152 97.9073Z" fill="white"/>
<path d="M122.746 86.6826L117.658 87.6289L121.701 88.3386L126.964 87.3521L122.746 86.6826Z" fill="#FF7F7A"/>
<path d="M121.702 92.9103V88.3367L117.66 87.627L117.604 91.9988L121.702 92.9103Z" fill="#C75F5F"/>
</g>
<defs>
<clipPath id="clip0_8345_3017">
<rect width="250" height="265.1" fill="white"/>
</clipPath>
</defs>
</svg>
