<svg width="545" height="406" viewBox="0 0 545 406" fill="none" xmlns="http://www.w3.org/2000/svg">
<path d="M545 356.748H0V357.075H545V356.748Z" fill="#EBEBEB"/>
<path d="M468.373 364.267H361.989V364.594H468.373V364.267Z" fill="#EBEBEB"/>
<path d="M365.913 370.478H315.01V370.805H365.913V370.478Z" fill="#EBEBEB"/>
<path d="M490.391 374.292H469.463V374.618H490.391V374.292Z" fill="#EBEBEB"/>
<path d="M238.71 370.696H137.885V371.023H238.71V370.696Z" fill="#EBEBEB"/>
<path d="M128.184 370.696H106.493V371.023H128.184V370.696Z" fill="#EBEBEB"/>
<path d="M98.8629 366.01H63.002V366.337H98.8629V366.01Z" fill="#EBEBEB"/>
<path d="M258.33 308.15H47.8512C44.4722 308.15 41.6382 305.317 41.6382 301.939V6.21095C41.6382 2.83306 44.4722 0 47.8512 0H258.33C261.709 0 264.543 2.83306 264.543 6.21095V301.939C264.543 305.426 261.818 308.15 258.33 308.15ZM47.8512 0.326892C44.5812 0.326892 41.8562 2.94203 41.8562 6.31991V302.048C41.8562 305.317 44.4722 308.041 47.8512 308.041H258.33C261.6 308.041 264.325 305.426 264.325 302.048V6.21095C264.325 2.94203 261.709 0.217928 258.33 0.217928H47.8512V0.326892Z" fill="#EBEBEB"/>
<path d="M494.097 308.15H283.618C280.239 308.15 277.405 305.317 277.405 301.939V6.21095C277.405 2.83306 280.239 0 283.618 0H494.097C497.476 0 500.31 2.83306 500.31 6.21095V301.939C500.31 305.426 497.585 308.15 494.097 308.15ZM283.618 0.326892C280.348 0.326892 277.623 2.94203 277.623 6.31991V302.048C277.623 305.317 280.239 308.041 283.618 308.041H494.097C497.367 308.041 500.092 305.426 500.092 302.048V6.21095C500.092 2.94203 497.476 0.217928 494.097 0.217928H283.618V0.326892Z" fill="#EBEBEB"/>
<path d="M426.299 346.724H97.0096L77.3896 123.565H406.679L426.299 346.724Z" fill="#F0F0F0"/>
<path d="M91.2328 353.915L97.0098 346.724L77.3898 123.565L71.6128 130.757L91.2328 353.915Z" fill="#E0E0E0"/>
<path d="M101.37 338.333L83.2758 132.609C83.0578 130.43 84.8018 128.578 86.9818 128.578H398.613C400.575 128.578 402.101 129.994 402.319 131.955L420.413 337.571C420.631 339.75 418.887 341.602 416.707 341.602H105.076C103.223 341.711 101.588 340.186 101.37 338.333Z" fill="#FAFAFA"/>
<path d="M143.335 346.724H93.7399L90.252 356.748H139.847L143.335 346.724Z" fill="#E0E0E0"/>
<path d="M143.335 346.724H469.463L465.975 356.748H139.847L143.335 346.724Z" fill="#F5F5F5"/>
<path d="M277.623 346.724H340.189L339.426 353.37H276.969L277.623 346.724Z" fill="#E0E0E0"/>
<path d="M372.344 108.855H451.369C457.909 152.223 427.607 187.854 384.334 187.854C370.491 187.854 356.321 184.258 343.241 177.284L372.344 108.855Z" fill="#E0E0E0"/>
<path d="M372.344 108.855L413.982 48.38C423.901 55.7896 432.403 65.0515 438.943 75.5121C445.374 85.9726 449.625 97.3049 451.369 108.855H372.344Z" fill="#EBEBEB"/>
<path d="M372.344 108.855L360.463 29.8561C369.728 29.8561 379.102 31.4906 388.149 34.6506C397.305 37.8105 406.025 42.496 413.982 48.38L372.344 108.855Z" fill="#E6E6E6"/>
<path d="M372.344 108.855L343.132 177.284C316.645 163.228 297.57 137.077 293.319 108.855C286.779 65.4874 317.081 29.8561 360.354 29.8561L372.344 108.855Z" fill="#F0F0F0"/>
<path d="M274.897 249.746H344.984C345.856 255.848 346.074 261.95 345.311 267.834C344.657 273.718 343.131 279.384 340.842 284.723L274.897 249.746Z" fill="#EBEBEB"/>
<path d="M274.897 249.746L276.641 180.771C293.318 183.604 309.232 192.104 321.767 204.743C334.302 217.383 342.477 233.292 344.984 249.746H274.897Z" fill="#E0E0E0"/>
<path d="M274.898 249.746L212.659 273.718C208.735 266.09 206.01 257.918 204.811 249.746C199.034 211.281 225.848 179.682 264.325 179.682C268.358 179.682 272.5 180.009 276.642 180.771L274.898 249.746Z" fill="#F0F0F0"/>
<path d="M274.898 249.746L340.843 284.723C331.578 306.407 310.432 319.7 285.471 319.7C256.041 319.7 226.938 301.177 212.659 273.609L274.898 249.746Z" fill="white"/>
<path d="M272.5 406C389.226 406 483.851 400.487 483.851 393.687C483.851 386.887 389.226 381.374 272.5 381.374C155.774 381.374 61.1489 386.887 61.1489 393.687C61.1489 400.487 155.774 406 272.5 406Z" fill="#F5F5F5"/>
<path d="M262.254 200.93H164.045C157.832 200.93 152.273 195.808 151.837 189.597L146.932 129.231C146.387 123.02 151.074 117.899 157.287 117.899H255.496C261.709 117.899 267.268 123.02 267.704 129.231L272.609 189.597C273.154 195.917 268.467 200.93 262.254 200.93Z" fill="white"/>
<path d="M262.254 201.475H164.045C157.505 201.475 151.837 196.244 151.292 189.706L146.387 129.34C146.169 126.18 147.15 123.238 149.221 120.95C151.292 118.662 154.126 117.463 157.287 117.463H255.496C262.036 117.463 267.704 122.694 268.249 129.231L273.154 189.597C273.372 192.757 272.391 195.699 270.32 197.988C268.249 200.167 265.415 201.475 262.254 201.475ZM157.287 118.444C154.453 118.444 151.837 119.534 149.875 121.604C148.022 123.674 147.041 126.398 147.259 129.231L152.164 189.597C152.6 195.59 157.941 200.494 163.936 200.494H262.145C264.979 200.494 267.595 199.404 269.557 197.334C271.41 195.264 272.391 192.539 272.173 189.706L267.268 129.34C266.832 123.347 261.491 118.444 255.496 118.444H157.287Z" fill="#0ec2f3"/>
<path d="M235.549 183.386C231.734 187.527 226.72 190.578 221.161 192.104L219.526 187.418C231.625 184.149 239.8 172.817 238.71 159.414C238.056 151.46 234.241 144.159 228.573 138.929L231.734 135.551C245.904 148.736 247.648 170.202 235.549 183.386Z" fill="#E0E0E0"/>
<path d="M231.734 135.551L228.573 138.929C222.905 133.699 215.384 130.43 207.427 130.43C199.47 130.43 192.494 133.699 187.698 138.929L183.992 135.551C189.769 129.231 198.162 125.636 207.1 125.636C215.929 125.745 224.867 129.231 231.734 135.551Z" fill="#263238"/>
<path d="M221.161 192.104C209.825 195.264 197.072 191.886 187.807 183.386C173.637 170.311 171.893 148.736 183.883 135.66L187.589 139.038C182.793 144.268 180.177 151.46 180.831 159.523C182.139 175.541 196.2 188.508 212.114 188.508C214.73 188.508 217.237 188.181 219.526 187.527L221.161 192.104Z" fill="#0ec2f3"/>
<path d="M128.511 20.3763H120.663V21.357H128.511V20.3763Z" fill="#0ec2f3"/>
<path d="M112.924 20.3763H95.0479V21.357H112.924V20.3763Z" fill="#0ec2f3"/>
<path d="M196.309 107.112H98.2088C91.9958 107.112 86.4369 101.99 86.0009 95.7794L81.0959 35.4133C80.5509 29.2024 85.2379 24.0811 91.4508 24.0811H189.66C195.873 24.0811 201.432 29.2024 201.868 35.4133L206.773 95.7794C207.318 102.099 202.631 107.112 196.309 107.112Z" fill="white"/>
<path d="M196.309 107.656H98.2088C91.6688 107.656 86.0008 102.426 85.4558 95.8884L80.5508 35.5223C80.3328 32.3623 81.3138 29.4203 83.3848 27.1321C85.4558 24.8438 88.2898 23.6452 91.4508 23.6452H189.66C196.2 23.6452 201.868 28.8755 202.413 35.4133L207.318 95.7794C207.536 98.9393 206.555 101.881 204.484 104.17C202.413 106.349 199.47 107.656 196.309 107.656ZM91.4508 24.6259C88.6168 24.6259 86.0008 25.7155 84.0388 27.7858C82.1858 29.8562 81.2048 32.5803 81.4228 35.4133L86.3278 95.7794C86.7638 101.772 92.1048 106.676 98.0998 106.676H196.309C199.143 106.676 201.759 105.586 203.721 103.516C205.574 101.446 206.555 98.7214 206.337 95.8884L201.432 35.5223C200.996 29.5293 195.655 24.6259 189.66 24.6259H91.4508Z" fill="#0ec2f3"/>
<path d="M89.9248 41.5153H141.918L141.482 36.285H89.4888L89.9248 41.5153Z" fill="#E0E0E0"/>
<path d="M193.911 41.5153H141.918L141.482 36.285H193.475L193.911 41.5153Z" fill="#0ec2f3"/>
<path d="M91.0146 54.8089H105.839L105.403 49.6876H90.5786L91.0146 54.8089Z" fill="#E0E0E0"/>
<path d="M195.001 54.8089H105.839L105.403 49.6876H194.565L195.001 54.8089Z" fill="#0ec2f3"/>
<path d="M92.1049 68.2115H138.43L137.994 63.0902H91.6689L92.1049 68.2115Z" fill="#E0E0E0"/>
<path d="M196.091 68.2115H138.43L137.994 63.0902H195.655L196.091 68.2115Z" fill="#0ec2f3"/>
<path d="M93.1948 81.6141H172.22L171.784 76.4928H92.7588L93.1948 81.6141Z" fill="#E0E0E0"/>
<path d="M197.181 81.6141H172.22L171.784 76.4928H196.745L197.181 81.6141Z" fill="#0ec2f3"/>
<path d="M94.2846 95.0166H130.8L130.364 89.7864H93.8486L94.2846 95.0166Z" fill="#E0E0E0"/>
<path d="M198.271 95.0166H130.8L130.364 89.7864H197.835L198.271 95.0166Z" fill="#0ec2f3"/>
<path d="M330.597 107.112H232.388C226.175 107.112 220.616 101.99 220.18 95.7794L215.275 35.4133C214.73 29.2024 219.417 24.0811 225.63 24.0811H323.839C330.052 24.0811 335.611 29.2024 336.047 35.4133L340.952 95.7794C341.497 102.099 336.81 107.112 330.597 107.112Z" fill="white"/>
<path d="M330.597 107.656H232.388C225.848 107.656 220.18 102.426 219.635 95.8884L214.73 35.5223C214.512 32.3623 215.493 29.4203 217.564 27.1321C219.635 24.8438 222.469 23.6452 225.63 23.6452H323.839C330.379 23.6452 336.047 28.8755 336.592 35.4133L341.497 95.7794C341.715 98.9393 340.734 101.881 338.663 104.17C336.592 106.349 333.758 107.656 330.597 107.656ZM225.63 24.6259C222.796 24.6259 220.18 25.7155 218.218 27.7858C216.365 29.8562 215.384 32.5803 215.602 35.4133L220.507 95.7794C220.943 101.772 226.284 106.676 232.279 106.676H330.488C333.322 106.676 335.938 105.586 337.9 103.516C339.753 101.446 340.734 98.7214 340.516 95.8884L335.611 35.5223C335.175 29.5293 329.834 24.6259 323.839 24.6259H225.63Z" fill="#0ec2f3"/>
<path d="M281.329 95.0166H279.585L274.898 36.285H276.533L281.329 95.0166Z" fill="#E0E0E0"/>
<path d="M283.945 70.6087H273.045L271.192 47.7263H282.092L283.945 70.6087Z" fill="#0ec2f3"/>
<path d="M259.856 95.0166H258.112L253.316 36.285H255.06L259.856 95.0166Z" fill="#E0E0E0"/>
<path d="M262.908 75.73H251.899L250.264 55.5717H261.273L262.908 75.73Z" fill="#0ec2f3"/>
<path d="M238.274 95.0166H236.639L231.843 36.285H233.587L238.274 95.0166Z" fill="#E0E0E0"/>
<path d="M240.018 59.1675H229.118L227.919 45.438H238.928L240.018 59.1675Z" fill="#263238"/>
<path d="M302.911 95.0166H301.167L296.371 36.285H298.115L302.911 95.0166Z" fill="#E0E0E0"/>
<path d="M306.508 83.5754H295.608L292.665 47.7263H303.674L306.508 83.5754Z" fill="#263238"/>
<path d="M324.384 95.0166H322.64L317.844 36.285H319.588L324.384 95.0166Z" fill="#E0E0E0"/>
<path d="M328.417 87.934H317.517L315.119 59.1675H326.128L328.417 87.934Z" fill="#0ec2f3"/>
<path d="M225.521 293.985H127.312C121.099 293.985 115.54 288.864 115.104 282.653L110.199 222.287C109.654 216.076 114.341 210.954 120.554 210.954H218.763C224.976 210.954 230.535 216.076 230.971 222.287L235.876 282.653C236.421 288.864 231.734 293.985 225.521 293.985Z" fill="white"/>
<path d="M225.521 294.53H127.312C120.772 294.53 115.104 289.3 114.559 282.762L109.654 222.396C109.436 219.236 110.417 216.294 112.488 214.005C114.559 211.717 117.393 210.519 120.554 210.519H218.763C225.303 210.519 230.971 215.749 231.516 222.287L236.421 282.653C236.639 285.813 235.658 288.755 233.587 291.043C231.516 293.222 228.682 294.53 225.521 294.53ZM120.554 211.499C117.72 211.499 115.104 212.589 113.142 214.659C111.289 216.73 110.308 219.454 110.526 222.287L115.431 282.653C115.867 288.646 121.208 293.549 127.203 293.549H225.412C228.246 293.549 230.862 292.459 232.824 290.389C234.677 288.319 235.658 285.595 235.44 282.762L230.535 222.396C230.099 216.403 224.758 211.499 218.763 211.499H120.554Z" fill="#0ec2f3"/>
<path d="M133.852 251.053L154.998 275.461L179.305 238.086L194.238 257.373L197.944 251.816L222.469 281.127H128.293L133.852 251.053Z" fill="#0ec2f3"/>
<path d="M204.484 252.579L194.674 273.609L163.282 223.812L148.567 255.412L143.771 248.002L128.293 281.127H222.469L204.484 252.579Z" fill="#E0E0E0"/>
<path d="M406.461 113.432C409.077 118.335 411.366 123.238 413.437 128.251C415.508 133.372 417.47 138.493 418.887 143.942C419.323 145.249 419.65 146.666 419.868 148.082C419.977 148.518 420.304 150.043 420.304 151.024C420.304 152.114 420.304 153.094 420.086 153.966C419.541 157.562 418.233 160.395 416.816 163.01C413.982 168.24 410.603 172.49 406.679 176.522C405.48 177.72 403.518 177.72 402.319 176.631C401.338 175.65 401.12 174.233 401.774 173.035L401.883 172.926C404.172 168.458 406.57 163.664 408.096 159.087C408.859 156.799 409.404 154.511 409.404 152.877C409.404 152.441 409.404 152.114 409.295 151.896C409.295 151.787 409.295 151.678 409.186 151.569L408.968 150.915C408.641 149.717 408.205 148.518 407.769 147.428C406.134 142.743 404.063 137.948 401.992 133.263C399.921 128.578 397.632 123.783 395.343 119.207V119.098C393.817 116.047 395.125 112.342 398.177 110.816C401.229 109.291 404.826 110.49 406.461 113.432Z" fill="#0ec2f3"/>
<path d="M403.082 172.49L397.85 174.125L403.954 181.316C403.954 181.316 406.352 179.246 407.115 176.195C407.442 175.214 407.006 174.125 406.134 173.471L405.262 172.817C404.608 172.381 403.845 172.163 403.082 172.49Z" fill="#7F3E3B"/>
<path d="M390.656 178.483L397.196 183.713L403.954 181.207L397.85 174.125L390.656 178.483Z" fill="#7F3E3B"/>
<path d="M368.311 77.0376C368.202 77.6914 367.766 78.1272 367.33 78.0183C366.894 77.9093 366.676 77.3645 366.785 76.7107C366.894 76.0569 367.33 75.621 367.766 75.73C368.202 75.73 368.42 76.3838 368.311 77.0376Z" fill="#263238"/>
<path d="M367.766 78.1272C367.766 78.1272 365.586 81.5051 363.515 83.0306C364.387 84.3382 366.458 84.2292 366.458 84.2292L367.766 78.1272Z" fill="#630F0F"/>
<path d="M371.363 73.8776C371.472 73.8776 371.581 73.8776 371.581 73.7687C371.69 73.6597 371.799 73.3328 371.581 73.2239C370.164 71.6983 368.42 71.9163 368.311 71.9163C368.093 71.9163 367.984 72.1342 367.984 72.3521C367.984 72.5701 368.202 72.679 368.42 72.679C368.529 72.679 369.837 72.4611 371.036 73.7687C371.145 73.8776 371.254 73.8776 371.363 73.8776Z" fill="#263238"/>
<path d="M386.187 88.6967C384.988 94.6897 384.334 102.971 388.476 106.894C388.476 106.894 386.841 112.996 375.723 112.996C363.515 112.996 369.837 107.656 369.837 107.656C374.851 106.131 374.851 100.356 373.652 95.6704L386.187 88.6967Z" fill="#7F3E3B"/>
<path d="M367.766 106.785C367.766 106.785 369.51 102.535 371.363 101.881C373.216 101.119 384.77 99.2662 387.386 100.901C390.002 102.535 391.855 107.983 391.855 107.983L367.766 106.785Z" fill="#0ec2f3"/>
<path d="M379.974 385.733C378.884 385.733 377.903 385.624 377.576 385.079C377.467 384.861 377.358 384.643 377.576 384.207C377.685 383.989 377.903 383.88 378.23 383.771C379.538 383.444 382.481 385.079 382.59 385.079C382.699 385.079 382.699 385.188 382.699 385.297C382.699 385.406 382.59 385.406 382.59 385.406C381.936 385.624 380.955 385.733 379.974 385.733ZM378.666 384.207C378.557 384.207 378.448 384.207 378.339 384.207C378.121 384.207 378.012 384.316 378.012 384.425C377.903 384.643 377.903 384.752 378.012 384.861C378.339 385.406 380.41 385.406 381.936 385.188C381.064 384.861 379.647 384.207 378.666 384.207Z" fill="#0ec2f3"/>
<path d="M382.372 385.515C381.282 385.079 379.32 383.335 379.538 382.355C379.538 382.137 379.756 381.919 380.301 381.81C380.737 381.81 381.064 381.919 381.391 382.137C382.481 383.009 382.699 385.188 382.699 385.297C382.699 385.406 382.699 385.406 382.59 385.515C382.481 385.515 382.481 385.515 382.372 385.515ZM380.41 382.246H380.301C379.974 382.246 379.974 382.464 379.974 382.464C379.865 383.009 381.173 384.425 382.263 384.97C382.154 384.316 381.827 383.009 381.173 382.464C380.955 382.355 380.628 382.246 380.41 382.246Z" fill="#0ec2f3"/>
<path d="M391.419 385.297H383.244L382.372 366.446H390.547L391.419 385.297Z" fill="#7F3E3B"/>
<path d="M383.244 384.425H392.182C392.509 384.425 392.836 384.643 392.836 384.97L394.471 392.27C394.689 393.033 394.035 393.687 393.272 393.687C390.111 393.578 385.424 393.469 381.391 393.469C376.704 393.469 376.05 393.687 370.6 393.687C367.221 393.687 366.349 390.309 367.766 389.982C374.197 388.566 375.832 388.457 381.391 385.079C381.936 384.643 382.59 384.425 383.244 384.425Z" fill="#263238"/>
<path d="M403.082 107.003C410.712 108.746 415.726 129.34 415.726 129.34L402.973 138.929C402.973 138.929 395.997 134.571 393.49 124.873C390.874 114.63 395.234 105.15 403.082 107.003Z" fill="#263238"/>
<path opacity="0.2" d="M396.542 121.277C400.684 125.418 403.409 131.846 403.736 138.384L403.082 138.929C403.082 138.929 396.106 134.571 393.599 124.873C393.49 124.219 393.272 123.674 393.163 123.02L396.542 121.277Z" fill="black"/>
<path d="M430.537 137.715L368.592 162.462L386.997 208.501L448.942 183.754L430.537 137.715Z" fill="#0ec2f3"/>
<path opacity="0.5" d="M429.668 137.983L368.634 162.367L387.038 208.405L448.073 184.022L429.668 137.983Z" fill="white"/>
<g opacity="0.5">
<path opacity="0.5" d="M379.807 162.669L374.038 164.973L375.656 169.021L381.425 166.716L379.807 162.669Z" fill="#0ec2f3"/>
<path opacity="0.5" d="M389.294 158.876L383.524 161.181L385.142 165.229L390.912 162.924L389.294 158.876Z" fill="#0ec2f3"/>
<path opacity="0.5" d="M398.882 155.044L393.112 157.349L394.73 161.396L400.5 159.091L398.882 155.044Z" fill="#0ec2f3"/>
<path opacity="0.5" d="M408.368 151.252L402.599 153.556L404.217 157.604L409.986 155.299L408.368 151.252Z" fill="#0ec2f3"/>
<path opacity="0.5" d="M417.956 147.419L412.187 149.724L413.805 153.771L419.574 151.466L417.956 147.419Z" fill="#0ec2f3"/>
<path opacity="0.5" d="M427.544 143.594L421.774 145.899L423.392 149.946L429.162 147.641L427.544 143.594Z" fill="#0ec2f3"/>
<path opacity="0.5" d="M382.529 169.414L376.76 171.719L378.378 175.766L384.147 173.461L382.529 169.414Z" fill="#0ec2f3"/>
<path opacity="0.5" d="M392.016 165.624L386.246 167.929L387.864 171.977L393.634 169.672L392.016 165.624Z" fill="#0ec2f3"/>
<path opacity="0.5" d="M401.603 161.792L395.834 164.096L397.452 168.144L403.221 165.839L401.603 161.792Z" fill="#0ec2f3"/>
<path opacity="0.5" d="M411.09 157.999L405.32 160.304L406.938 164.352L412.708 162.047L411.09 157.999Z" fill="#0ec2f3"/>
<path opacity="0.5" d="M420.677 154.167L414.908 156.472L416.526 160.519L422.295 158.214L420.677 154.167Z" fill="#0ec2f3"/>
<path opacity="0.5" d="M430.164 150.375L424.395 152.68L426.013 156.727L431.782 154.422L430.164 150.375Z" fill="#0ec2f3"/>
<path opacity="0.5" d="M385.149 176.205L379.38 178.51L380.998 182.557L386.767 180.252L385.149 176.205Z" fill="#0ec2f3"/>
<path opacity="0.5" d="M394.737 172.369L388.968 174.674L390.586 178.722L396.355 176.417L394.737 172.369Z" fill="#0ec2f3"/>
<path opacity="0.5" d="M404.325 168.54L398.556 170.845L400.174 174.892L405.943 172.587L404.325 168.54Z" fill="#0ec2f3"/>
<path opacity="0.5" d="M413.811 164.748L408.042 167.052L409.66 171.1L415.429 168.795L413.811 164.748Z" fill="#0ec2f3"/>
<path opacity="0.5" d="M423.399 160.922L417.629 163.227L419.247 167.274L425.017 164.97L423.399 160.922Z" fill="#0ec2f3"/>
<path opacity="0.5" d="M432.886 157.13L427.116 159.435L428.734 163.482L434.504 161.178L432.886 157.13Z" fill="#0ec2f3"/>
<path opacity="0.5" d="M387.871 182.953L382.102 185.258L383.72 189.305L389.489 187L387.871 182.953Z" fill="#0ec2f3"/>
<path opacity="0.5" d="M397.459 179.12L391.689 181.425L393.307 185.472L399.077 183.167L397.459 179.12Z" fill="#0ec2f3"/>
<path opacity="0.5" d="M406.945 175.325L401.176 177.63L402.794 181.677L408.563 179.372L406.945 175.325Z" fill="#0ec2f3"/>
<path opacity="0.5" d="M416.533 171.495L410.764 173.8L412.382 177.848L418.151 175.543L416.533 171.495Z" fill="#0ec2f3"/>
<path opacity="0.5" d="M426.019 167.703L420.25 170.008L421.868 174.056L427.637 171.751L426.019 167.703Z" fill="#0ec2f3"/>
<path opacity="0.5" d="M435.607 163.871L429.837 166.176L431.455 170.223L437.225 167.918L435.607 163.871Z" fill="#0ec2f3"/>
<path opacity="0.5" d="M390.593 189.698L384.824 192.003L386.442 196.05L392.211 193.745L390.593 189.698Z" fill="#0ec2f3"/>
<path opacity="0.5" d="M400.181 185.868L394.411 188.173L396.029 192.22L401.799 189.915L400.181 185.868Z" fill="#0ec2f3"/>
<path opacity="0.5" d="M409.667 182.076L403.897 184.381L405.515 188.428L411.285 186.123L409.667 182.076Z" fill="#0ec2f3"/>
<path opacity="0.5" d="M419.254 178.248L413.485 180.553L415.103 184.6L420.872 182.295L419.254 178.248Z" fill="#0ec2f3"/>
<path opacity="0.5" d="M428.741 174.459L422.972 176.764L424.59 180.811L430.359 178.506L428.741 174.459Z" fill="#0ec2f3"/>
<path opacity="0.5" d="M438.329 170.619L432.559 172.923L434.177 176.971L439.947 174.666L438.329 170.619Z" fill="#0ec2f3"/>
<path opacity="0.5" d="M393.314 196.449L387.545 198.753L389.163 202.801L394.932 200.496L393.314 196.449Z" fill="#0ec2f3"/>
<path opacity="0.5" d="M402.801 192.656L397.031 194.961L398.649 199.009L404.419 196.704L402.801 192.656Z" fill="#0ec2f3"/>
<path opacity="0.5" d="M412.389 188.824L406.619 191.129L408.237 195.176L414.007 192.871L412.389 188.824Z" fill="#0ec2f3"/>
<path opacity="0.5" d="M421.875 185.032L416.105 187.336L417.723 191.384L423.493 189.079L421.875 185.032Z" fill="#0ec2f3"/>
<path opacity="0.5" d="M431.463 181.196L425.693 183.501L427.311 187.548L433.081 185.243L431.463 181.196Z" fill="#0ec2f3"/>
<path opacity="0.5" d="M441.05 177.366L435.281 179.671L436.899 183.719L442.668 181.414L441.05 177.366Z" fill="#0ec2f3"/>
</g>
<path d="M425.427 152.223C425.1 151.351 425.536 150.37 426.408 149.935C427.28 149.608 428.261 150.043 428.697 150.915C429.024 151.787 428.588 152.768 427.716 153.203C426.844 153.639 425.754 153.203 425.427 152.223Z" fill="white"/>
<path d="M424.01 176.413C423.683 175.541 424.119 174.56 424.991 174.125C425.863 173.798 426.844 174.233 427.28 175.105C427.607 175.977 427.171 176.958 426.299 177.393C425.318 177.72 424.337 177.284 424.01 176.413Z" fill="white"/>
<path d="M402.21 177.284C401.883 176.413 402.319 175.432 403.191 174.996C404.063 174.669 405.044 175.105 405.48 175.977C405.807 176.849 405.371 177.829 404.499 178.265C403.627 178.592 402.537 178.156 402.21 177.284Z" fill="white"/>
<path d="M388.585 198.424C388.258 197.552 388.694 196.571 389.566 196.135C390.438 195.808 391.419 196.244 391.855 197.116C392.182 197.988 391.746 198.968 390.874 199.404C389.893 199.731 388.912 199.295 388.585 198.424Z" fill="white"/>
<path d="M390.111 198.424C390.002 198.424 389.893 198.424 389.784 198.315C389.457 198.097 389.348 197.77 389.566 197.443L403.191 176.304C403.3 176.086 403.518 175.977 403.736 175.977L424.991 175.105L426.408 151.569C426.408 151.242 426.735 150.915 427.062 150.915C427.389 150.915 427.716 151.242 427.716 151.569L426.299 175.65C426.299 175.977 425.972 176.195 425.645 176.304L404.172 177.176L390.656 197.988C390.547 198.315 390.329 198.424 390.111 198.424Z" fill="white"/>
<path d="M354.795 115.175C353.16 124.001 352.07 142.089 356.975 177.938H400.575C399.812 171.727 396.651 138.602 403.082 107.003C403.082 107.003 395.561 105.477 388.476 105.15C382.917 104.932 374.851 104.714 369.946 105.15C367.875 105.368 365.913 105.586 364.06 105.913C359.373 106.785 355.667 110.49 354.795 115.175Z" fill="#263238"/>
<path opacity="0.2" d="M361.662 128.687L353.487 129.34C353.16 139.91 353.923 155.383 356.975 177.829H357.411C362.207 161.703 368.747 138.602 361.662 128.687Z" fill="black"/>
<path opacity="0.2" d="M382.481 366.446L382.808 376.144H390.983L390.547 366.446H382.481Z" fill="black"/>
<path d="M390.002 79.9796C387.931 87.825 387.059 92.5105 382.263 95.7794C374.96 100.683 365.913 95.0167 365.695 86.7354C365.477 79.3258 368.965 67.7756 377.358 66.1412C385.642 64.6157 392.182 72.1342 390.002 79.9796Z" fill="#7F3E3B"/>
<path d="M371.69 80.0886L367.439 81.1782L371.363 70.9356C370.927 70.1728 369.837 66.577 371.036 63.0902C371.363 62.1095 372.235 61.5647 373.216 61.4557C382.045 61.2378 391.201 66.2501 395.779 69.9549C396.651 70.7177 396.869 71.9163 396.324 72.8969C395.343 74.5314 394.035 75.839 392.291 77.4734C392.182 80.3065 387.495 93.2732 384.988 94.6898C382.372 96.1063 377.467 95.5615 376.159 93.1643C374.851 90.876 370.382 87.7161 371.69 80.0886Z" fill="#263238"/>
<path d="M375.614 80.1975C375.178 82.2678 373.87 84.0113 372.453 85.1009C370.382 86.7354 368.747 85.2099 368.856 82.8127C368.965 80.6334 370.055 77.1465 372.453 76.4928C374.742 75.839 376.159 77.8003 375.614 80.1975Z" fill="#7F3E3B"/>
<path d="M450.279 382.9C450.279 381.81 450.388 380.829 450.824 380.502C451.042 380.393 451.26 380.284 451.696 380.502C451.914 380.611 452.023 380.829 452.132 381.156C452.459 382.464 450.933 385.406 450.824 385.515C450.824 385.624 450.715 385.624 450.606 385.624C450.497 385.624 450.497 385.515 450.497 385.515C450.388 384.97 450.279 383.88 450.279 382.9ZM451.805 381.592C451.805 381.483 451.805 381.374 451.805 381.265C451.805 381.047 451.696 380.938 451.478 380.938C451.26 380.829 451.151 380.829 451.042 380.938C450.497 381.374 450.497 383.335 450.715 384.861C451.151 384.098 451.805 382.573 451.805 381.592Z" fill="#0ec2f3"/>
<path d="M450.497 385.406C450.933 384.316 452.677 382.355 453.658 382.573C453.876 382.573 454.094 382.791 454.203 383.335C454.203 383.771 454.094 384.098 453.876 384.425C453.004 385.515 450.824 385.733 450.715 385.733C450.606 385.733 450.606 385.733 450.497 385.624C450.497 385.515 450.497 385.406 450.497 385.406ZM453.767 383.444V383.335C453.767 383.009 453.549 383.009 453.549 383.009C453.004 382.9 451.587 384.207 451.042 385.297C451.696 385.188 453.004 384.861 453.549 384.207C453.767 383.88 453.767 383.662 453.767 383.444Z" fill="#0ec2f3"/>
<path d="M450.606 385.515L442.649 386.06L438.18 366.991L446.137 366.446L450.606 385.515Z" fill="#7F3E3B"/>
<path d="M450.606 383.662L441.777 382.9C441.45 382.9 441.123 383.118 441.014 383.444L438.725 390.527C438.507 391.29 439.052 392.053 439.815 392.053C442.976 392.271 447.663 392.488 451.696 392.815C456.383 393.251 453.331 393.251 458.89 393.687C462.269 394.014 463.468 390.745 462.051 390.309C455.838 388.348 454.639 387.04 452.568 384.534C452.023 383.88 451.26 383.662 450.606 383.662Z" fill="#263238"/>
<path opacity="0.2" d="M438.18 366.991L440.469 376.798L448.426 376.253L446.137 366.446L438.18 366.991Z" fill="black"/>
<path d="M372.344 177.938C372.344 177.938 391.092 240.593 398.177 263.802C406.025 289.3 435.673 373.747 435.673 373.747L450.061 370.587C450.061 370.587 429.787 298.017 421.285 262.494C414.854 235.253 400.466 177.938 400.466 177.938H372.344Z" fill="#0ec2f3"/>
<path d="M433.166 369.279C433.057 369.279 434.583 374.945 434.583 374.945L451.914 373.093L451.805 367.972L433.166 369.279Z" fill="#263238"/>
<path opacity="0.3" d="M382.808 206.923C393.163 208.339 397.305 244.515 398.831 265.654C398.613 265.001 398.395 264.347 398.286 263.693C394.362 250.944 387.059 226.536 381.173 206.923C381.609 206.923 382.154 206.814 382.808 206.923Z" fill="black"/>
<path d="M356.866 177.938C356.866 177.938 363.188 238.958 365.913 263.802C368.747 289.626 379.32 374.4 379.32 374.4H393.163C393.163 374.4 391.528 291.152 390.983 265.763C390.329 238.086 385.642 177.938 385.642 177.938H356.866Z" fill="#0ec2f3"/>
<path d="M377.14 368.843C377.031 368.843 377.903 374.618 377.903 374.618H394.689L395.125 369.497L377.14 368.843Z" fill="#263238"/>
<path d="M297.897 235.253C305.091 246.695 320.242 250.072 331.578 242.881C343.023 235.689 346.402 220.543 339.208 209.211C332.014 197.77 316.863 194.392 305.527 201.583C294.082 208.775 290.703 223.812 297.897 235.253ZM335.938 211.281C342.042 220.87 339.099 233.619 329.507 239.612C319.915 245.714 307.162 242.772 301.058 233.183C294.954 223.594 297.897 210.845 307.489 204.743C317.19 198.75 329.943 201.692 335.938 211.281Z" fill="#263238"/>
<path opacity="0.2" d="M336.919 226.427C334.63 236.561 324.493 242.99 314.356 240.702C304.219 238.413 297.788 228.28 300.077 218.146C302.366 208.012 312.503 201.583 322.64 203.872C332.886 206.16 339.208 216.294 336.919 226.427Z" fill="#0ec2f3"/>
<path d="M339.862 206.269L342.151 209.865C342.478 210.41 342.369 211.172 341.824 211.499C341.279 211.826 340.516 211.717 340.189 211.172L337.9 207.576C337.573 207.032 337.682 206.269 338.227 205.942C338.881 205.506 339.535 205.724 339.862 206.269Z" fill="#263238"/>
<path d="M354.795 195.917C352.179 197.77 349.563 199.622 346.947 201.474C344.331 203.327 341.824 205.288 339.317 207.359C338.772 207.794 338.554 208.666 338.881 209.32C339.208 210.083 340.189 210.518 341.061 210.083C344.004 208.666 346.838 207.25 349.672 205.724C352.506 204.199 355.34 202.673 358.065 201.039C360.463 199.622 362.752 198.315 365.15 196.789C365.804 196.353 366.022 195.481 365.586 194.828L363.733 191.886C363.297 191.232 362.425 191.014 361.771 191.45C359.264 192.866 356.975 194.392 354.795 195.917Z" fill="#263238"/>
<path d="M366.894 118.226C365.586 124.764 364.169 131.302 362.643 137.84L358.174 157.344C356.757 163.664 355.449 170.093 354.359 176.631L350.98 196.244C350.653 197.879 349.127 199.077 347.383 198.75C345.966 198.532 344.876 197.225 344.876 195.808C344.658 188.944 344.767 182.297 345.094 175.432C345.53 168.676 346.075 161.812 347.274 155.056C348.364 148.409 349.563 141.762 350.762 135.224C352.07 128.687 353.378 122.04 354.904 115.611C355.667 112.233 359.046 110.163 362.316 110.925C365.477 111.688 367.548 114.957 366.894 118.226Z" fill="#0ec2f3"/>
<path d="M349.89 194.392C349.345 193.847 348.473 193.52 347.71 193.738L345.966 194.174C345.094 194.392 344.331 195.155 344.222 196.026L343.677 199.949C343.568 201.039 343.786 202.237 344.331 203.218L346.729 207.25C347.383 208.121 348.473 208.448 349.454 208.23L351.961 207.685C353.596 207.359 354.468 205.724 354.032 204.199L353.378 202.128C353.487 202.128 353.487 198.097 349.89 194.392Z" fill="#7F3E3B"/>
<path d="M375.396 114.412C379.32 124.982 365.695 139.91 365.695 139.91L348.364 134.135C348.364 134.135 349.672 119.751 355.667 111.688C363.079 101.772 372.344 106.458 375.396 114.412Z" fill="#263238"/>
</svg>
