<svg width="545" height="404" viewBox="0 0 545 404" fill="none" xmlns="http://www.w3.org/2000/svg">
<path d="M490.391 375.166H454.312V375.494H490.391V375.166Z" fill="#EBEBEB"/>
<path d="M361.008 378.224H351.525V378.552H361.008V378.224Z" fill="#EBEBEB"/>
<path d="M453.222 365.118H432.294V365.446H453.222V365.118Z" fill="#EBEBEB"/>
<path d="M104.313 366.866H57.2251V367.193H104.313V366.866Z" fill="#EBEBEB"/>
<path d="M120.881 366.866H114.014V367.193H120.881V366.866Z" fill="#EBEBEB"/>
<path d="M245.468 371.562H143.335V371.89H245.468V371.562Z" fill="#EBEBEB"/>
<path d="M258.33 308.871H47.8512C44.4722 308.871 41.6382 306.031 41.6382 302.645V6.22547C41.6382 2.83969 44.4722 0 47.8512 0H258.33C261.709 0 264.543 2.83969 264.543 6.22547V302.645C264.543 306.14 261.818 308.871 258.33 308.871ZM47.8512 0.327656C44.5812 0.327656 41.8562 2.94891 41.8562 6.33469V302.754C41.8562 306.031 44.4722 308.761 47.8512 308.761H258.33C261.6 308.761 264.325 306.14 264.325 302.754V6.22547C264.325 2.94891 261.709 0.218437 258.33 0.218437H47.8512V0.327656Z" fill="#EBEBEB"/>
<path d="M494.097 308.871H283.618C280.239 308.871 277.405 306.031 277.405 302.645V6.22547C277.405 2.83969 280.239 0 283.618 0H494.097C497.476 0 500.31 2.83969 500.31 6.22547V302.645C500.31 306.14 497.585 308.871 494.097 308.871ZM283.618 0.327656C280.348 0.327656 277.623 2.94891 277.623 6.33469V302.754C277.623 306.031 280.239 308.761 283.618 308.761H494.097C497.367 308.761 500.092 306.14 500.092 302.754V6.22547C500.092 2.94891 497.476 0.218437 494.097 0.218437H283.618V0.327656Z" fill="#EBEBEB"/>
<path d="M545 357.582H0V357.91H545V357.582Z" fill="#EBEBEB"/>
<path d="M490.391 375.166H454.312V375.494H490.391V375.166Z" fill="#EBEBEB"/>
<path d="M361.008 378.224H351.525V378.552H361.008V378.224Z" fill="#EBEBEB"/>
<path d="M453.222 365.118H432.294V365.446H453.222V365.118Z" fill="#EBEBEB"/>
<path d="M104.313 366.866H57.2251V367.193H104.313V366.866Z" fill="#EBEBEB"/>
<path d="M120.881 366.866H114.014V367.193H120.881V366.866Z" fill="#EBEBEB"/>
<path d="M245.468 371.562H143.335V371.89H245.468V371.562Z" fill="#EBEBEB"/>
<path d="M258.33 308.871H47.8512C44.4722 308.871 41.6382 306.031 41.6382 302.645V6.22547C41.6382 2.83969 44.4722 0 47.8512 0H258.33C261.709 0 264.543 2.83969 264.543 6.22547V302.645C264.543 306.14 261.818 308.871 258.33 308.871ZM47.8512 0.327656C44.5812 0.327656 41.8562 2.94891 41.8562 6.33469V302.754C41.8562 306.031 44.4722 308.761 47.8512 308.761H258.33C261.6 308.761 264.325 306.14 264.325 302.754V6.22547C264.325 2.94891 261.709 0.218437 258.33 0.218437H47.8512V0.327656Z" fill="#EBEBEB"/>
<path d="M494.097 308.871H283.618C280.239 308.871 277.405 306.031 277.405 302.645V6.22547C277.405 2.83969 280.239 0 283.618 0H494.097C497.476 0 500.31 2.83969 500.31 6.22547V302.645C500.31 306.14 497.585 308.871 494.097 308.871ZM283.618 0.327656C280.348 0.327656 277.623 2.94891 277.623 6.33469V302.754C277.623 306.031 280.239 308.761 283.618 308.761H494.097C497.367 308.761 500.092 306.14 500.092 302.754V6.22547C500.092 2.94891 497.476 0.218437 494.097 0.218437H283.618V0.327656Z" fill="#EBEBEB"/>
<path d="M545 357.582H0V357.91H545V357.582Z" fill="#EBEBEB"/>
<path d="M479.251 68.6197C488.999 58.8524 488.999 43.0164 479.251 33.2491C469.503 23.4817 453.699 23.4817 443.951 33.2491C434.203 43.0164 434.203 58.8524 443.951 68.6197C453.699 78.3871 469.503 78.3871 479.251 68.6197Z" fill="#F0F0F0"/>
<path d="M461.724 76.4531C447.663 76.4531 436.218 64.9852 436.218 50.8959C436.218 36.8067 447.663 25.3388 461.724 25.3388V26.4309C448.317 26.4309 437.308 37.3528 437.308 50.8959C437.308 64.3298 448.208 75.3609 461.724 75.3609V76.4531Z" fill="white"/>
<path d="M461.724 76.4531V75.3609C475.131 75.3609 486.14 64.4391 486.14 50.8959C486.14 37.462 475.24 26.4309 461.724 26.4309V25.3388C475.785 25.3388 487.23 36.8067 487.23 50.8959C487.23 64.9852 475.785 76.4531 461.724 76.4531Z" fill="white"/>
<path d="M474.803 50.8959H473.713C473.713 42.5953 469.462 31.455 461.505 26.3217L462.159 25.3388C470.443 30.7997 474.803 42.3769 474.803 50.8959Z" fill="white"/>
<path d="M462.05 75.6886L461.396 74.7056C469.462 69.5723 473.604 58.432 473.604 50.1314H474.694C474.803 58.7597 470.443 70.2277 462.05 75.6886Z" fill="white"/>
<path d="M449.842 50.8959H448.752C448.752 42.2676 453.112 30.7997 461.505 25.448L462.159 26.4309C453.984 31.5642 449.842 42.5953 449.842 50.8959Z" fill="white"/>
<path d="M461.397 75.6886C453.004 70.3369 448.644 58.7597 448.644 50.2406H449.734C449.734 58.5412 453.985 69.6815 461.942 74.8148L461.397 75.6886Z" fill="white"/>
<path d="M462.269 25.8849H461.179V75.907H462.269V25.8849Z" fill="white"/>
<path d="M482.87 37.0252H440.578V38.1173H482.87V37.0252Z" fill="white"/>
<path d="M486.685 50.7867H436.763V51.8789H486.685V50.7867Z" fill="white"/>
<path d="M482.325 64.5483H441.123V65.6405H482.325V64.5483Z" fill="white"/>
<path d="M261.927 357.145C259.856 357.145 258.112 355.398 258.112 353.323V276.323H265.742V353.323C265.742 355.507 263.998 357.145 261.927 357.145Z" fill="#F0F0F0"/>
<path d="M468.264 266.275H450.606V264.746C450.606 261.688 453.222 259.176 456.274 259.394L463.141 259.722C465.975 259.831 468.155 262.234 468.155 265.074V266.275H468.264Z" fill="#F0F0F0"/>
<path d="M438.18 229.796C438.071 228.376 436.981 227.284 435.564 227.284H417.797C416.38 227.284 415.29 228.376 415.181 229.796L419.432 266.931H446.028L438.18 229.796Z" fill="#E0E0E0"/>
<path d="M486.576 172.784H479.927L472.515 242.902H479.164C480.254 242.902 481.235 242.029 481.344 240.936L488.32 174.75C488.429 173.658 487.666 172.784 486.576 172.784Z" fill="#E0E0E0"/>
<path d="M476.221 242.902H376.922C375.832 242.902 375.069 242.029 375.178 240.936L382.154 174.75C382.263 173.658 383.244 172.784 384.334 172.784H483.633C484.723 172.784 485.486 173.658 485.377 174.75L478.401 240.936C478.401 242.029 477.42 242.902 476.221 242.902Z" fill="#F5F5F5"/>
<path d="M474.368 236.458H380.628C379.647 236.458 378.993 235.694 379.102 234.711L385.206 176.934C385.315 175.951 386.187 175.187 387.168 175.187H480.908C481.889 175.187 482.543 175.951 482.434 176.934L476.33 234.711C476.221 235.585 475.349 236.458 474.368 236.458Z" fill="#EBEBEB"/>
<path d="M447.336 264.091H413.873C413.328 264.091 412.783 264.528 412.783 265.183V265.948C412.783 266.494 413.219 267.04 413.873 267.04H447.336C447.881 267.04 448.426 266.603 448.426 265.948V265.183C448.426 264.528 447.99 264.091 447.336 264.091Z" fill="#E0E0E0"/>
<path d="M380.41 236.458L408.205 212.212C410.821 209.918 414.2 209.918 415.726 212.212L431.858 236.458H380.41Z" fill="#E6E6E6"/>
<path d="M408.205 212.212L380.41 236.458H407.115C404.499 235.148 398.177 234.383 398.94 231.325C399.921 227.284 412.347 228.704 413.219 224.881C414.091 221.059 405.262 222.26 406.352 217.673C406.897 215.27 409.186 212.649 411.257 210.683C410.276 210.792 409.186 211.338 408.205 212.212Z" fill="#F5F5F5"/>
<path d="M421.394 236.458L433.711 224.226C434.91 223.025 436.436 223.025 437.09 224.226L444.284 236.458H421.394Z" fill="#E6E6E6"/>
<path d="M433.711 224.226L421.394 236.458H433.275C432.076 235.803 429.351 235.366 429.678 233.837C430.114 231.762 435.564 232.527 436 230.561C436.436 228.595 432.512 229.25 432.948 226.956C433.166 225.755 434.256 224.444 435.128 223.461C434.583 223.461 434.147 223.789 433.711 224.226Z" fill="#F5F5F5"/>
<path d="M442.431 236.458L459.762 224.226C461.397 223.025 463.468 223.025 464.449 224.226L474.477 236.458H442.431Z" fill="#F0F0F0"/>
<path d="M459.762 224.226L442.431 236.458H458.999C457.364 235.803 453.44 235.366 453.876 233.837C454.53 231.762 462.16 232.527 462.814 230.561C463.359 228.595 457.909 229.25 458.563 226.956C458.89 225.755 460.307 224.444 461.615 223.461C461.07 223.461 460.307 223.789 459.762 224.226Z" fill="#FAFAFA"/>
<path d="M464.122 199.761C462.814 205.877 456.819 210.901 450.606 210.901C444.502 210.901 440.578 205.877 441.886 199.761C443.194 193.645 449.189 188.621 455.402 188.621C461.615 188.621 465.43 193.645 464.122 199.761Z" fill="#F0F0F0"/>
<path opacity="0.8" d="M464.122 199.761C462.814 205.877 456.819 210.901 450.606 210.901C444.502 210.901 440.578 205.877 441.886 199.761C443.194 193.645 449.189 188.621 455.402 188.621C461.615 188.621 465.43 193.645 464.122 199.761Z" fill="#FAFAFA"/>
<path d="M369.292 263.982H366.785C366.567 263.982 366.349 263.763 366.349 263.545V260.924C366.349 260.705 366.567 260.487 366.785 260.487H368.529C368.747 260.487 368.965 260.596 368.965 260.814L369.619 263.436C369.837 263.654 369.619 263.982 369.292 263.982Z" fill="#F5F5F5"/>
<path d="M372.671 263.982H370.164C369.946 263.982 369.728 263.763 369.728 263.545V260.924C369.728 260.705 369.946 260.487 370.164 260.487H371.908C372.126 260.487 372.344 260.596 372.344 260.814L372.998 263.436C373.216 263.654 372.997 263.982 372.671 263.982Z" fill="#F5F5F5"/>
<path d="M376.049 263.982H373.542C373.324 263.982 373.106 263.763 373.106 263.545V260.924C373.106 260.705 373.324 260.487 373.542 260.487H375.286C375.504 260.487 375.722 260.596 375.722 260.814L376.376 263.436C376.594 263.654 376.376 263.982 376.049 263.982Z" fill="#F5F5F5"/>
<path d="M379.538 263.982H377.031C376.813 263.982 376.595 263.763 376.595 263.545V260.924C376.595 260.705 376.813 260.487 377.031 260.487H378.775C378.993 260.487 379.211 260.596 379.211 260.814L379.865 263.436C380.083 263.654 379.865 263.982 379.538 263.982Z" fill="#F5F5F5"/>
<path d="M382.917 263.982H380.41C380.192 263.982 379.974 263.763 379.974 263.545V260.924C379.974 260.705 380.192 260.487 380.41 260.487H382.154C382.372 260.487 382.59 260.596 382.59 260.814L383.244 263.436C383.462 263.654 383.244 263.982 382.917 263.982Z" fill="#F5F5F5"/>
<path d="M386.404 263.982H383.897C383.679 263.982 383.461 263.763 383.461 263.545V260.924C383.461 260.705 383.679 260.487 383.897 260.487H385.641C385.859 260.487 386.077 260.596 386.077 260.814L386.731 263.436C386.949 263.654 386.731 263.982 386.404 263.982Z" fill="#F5F5F5"/>
<path d="M389.784 263.982H387.277C387.059 263.982 386.841 263.763 386.841 263.545V260.924C386.841 260.705 387.059 260.487 387.277 260.487H389.021C389.239 260.487 389.457 260.596 389.457 260.814L390.111 263.436C390.329 263.654 390.111 263.982 389.784 263.982Z" fill="#F5F5F5"/>
<path d="M393.272 263.982H390.765C390.547 263.982 390.329 263.763 390.329 263.545V260.924C390.329 260.705 390.547 260.487 390.765 260.487H392.509C392.727 260.487 392.945 260.596 392.945 260.814L393.599 263.436C393.708 263.654 393.49 263.982 393.272 263.982Z" fill="#F5F5F5"/>
<path d="M396.651 263.982H394.144C393.926 263.982 393.708 263.763 393.708 263.545V260.924C393.708 260.705 393.926 260.487 394.144 260.487H395.888C396.106 260.487 396.324 260.596 396.324 260.814L396.978 263.436C397.196 263.654 396.978 263.982 396.651 263.982Z" fill="#F5F5F5"/>
<path d="M400.029 263.982H397.522C397.304 263.982 397.086 263.763 397.086 263.545V260.924C397.086 260.705 397.304 260.487 397.522 260.487H399.266C399.484 260.487 399.702 260.596 399.702 260.814L400.356 263.436C400.574 263.654 400.356 263.982 400.029 263.982Z" fill="#F5F5F5"/>
<path d="M403.518 263.982H401.011C400.793 263.982 400.575 263.763 400.575 263.545V260.924C400.575 260.705 400.793 260.487 401.011 260.487H402.755C402.973 260.487 403.191 260.596 403.191 260.814L403.845 263.436C404.063 263.654 403.845 263.982 403.518 263.982Z" fill="#F5F5F5"/>
<path d="M406.897 263.982H404.39C404.172 263.982 403.954 263.763 403.954 263.545V260.924C403.954 260.705 404.172 260.487 404.39 260.487H406.134C406.352 260.487 406.57 260.596 406.57 260.814L407.224 263.436C407.442 263.654 407.224 263.982 406.897 263.982Z" fill="#F5F5F5"/>
<path d="M410.384 263.982H407.877C407.659 263.982 407.441 263.763 407.441 263.545V260.924C407.441 260.705 407.659 260.487 407.877 260.487H409.621C409.839 260.487 410.057 260.596 410.057 260.814L410.711 263.436C410.929 263.654 410.602 263.982 410.384 263.982Z" fill="#F5F5F5"/>
<path d="M413.764 263.982H411.257C411.039 263.982 410.821 263.763 410.821 263.545V260.924C410.821 260.705 411.039 260.487 411.257 260.487H413.001C413.219 260.487 413.437 260.596 413.437 260.814L414.091 263.436C414.309 263.654 414.091 263.982 413.764 263.982Z" fill="#F5F5F5"/>
<path d="M417.143 263.982H414.636C414.418 263.982 414.2 263.763 414.2 263.545V260.924C414.2 260.705 414.418 260.487 414.636 260.487H416.38C416.598 260.487 416.816 260.596 416.816 260.814L417.47 263.436C417.688 263.654 417.47 263.982 417.143 263.982Z" fill="#F5F5F5"/>
<path d="M419.65 262.125H364.278V266.275H419.65V262.125Z" fill="#EBEBEB"/>
<path d="M489.083 266.275H422.702V276.323H489.083V266.275Z" fill="#E6E6E6"/>
<path d="M303.347 357.145C301.276 357.145 299.532 355.398 299.532 353.323V276.323H307.162V353.323C307.162 355.507 305.418 357.145 303.347 357.145Z" fill="#E6E6E6"/>
<path d="M480.799 357.145C478.728 357.145 476.984 355.398 476.984 353.323V276.323H484.614V353.323C484.614 355.507 482.979 357.145 480.799 357.145Z" fill="#E6E6E6"/>
<path d="M441.668 266.275H253.643V276.323H441.668V266.275Z" fill="#F0F0F0"/>
<path d="M435.455 357.145H336.483C328.09 357.145 321.223 350.264 321.223 341.855C321.223 333.445 328.09 326.564 336.483 326.564H435.455C443.848 326.564 450.715 333.445 450.715 341.855C450.715 350.374 443.848 357.145 435.455 357.145Z" fill="#EBEBEB"/>
<path d="M433.384 357.145C431.313 357.145 429.569 355.398 429.569 353.323V276.323H437.199V353.323C437.199 355.507 435.564 357.145 433.384 357.145Z" fill="#F0F0F0"/>
<path d="M354.795 357.473C353.705 357.8 352.506 357.91 351.307 357.91H291.139C282.964 357.91 275.661 351.247 275.007 343.056L264.107 218.11C263.344 209.918 269.448 203.147 277.732 203.147H337.9C339.099 203.147 340.298 203.256 341.497 203.584C348.146 205.113 353.487 211.011 354.141 218.11L365.041 343.056C365.477 350.046 361.226 355.944 354.795 357.473Z" fill="#EBEBEB"/>
<path d="M354.795 357.473C348.146 355.835 342.805 350.046 342.151 342.947L331.251 218.001C330.597 211.011 334.957 205.113 341.388 203.474C348.037 205.004 353.378 210.901 354.032 218.001L364.932 342.947C365.477 350.046 361.226 355.944 354.795 357.473Z" fill="#F5F5F5"/>
<path d="M247.43 44.9981H153.254V52.9711H247.43V44.9981Z" fill="#FAFAFA"/>
<path d="M251.79 293.689H157.614V301.662H251.79V293.689Z" fill="#FAFAFA"/>
<path d="M150.202 52.9711V215.379C152.055 214.178 154.126 212.976 156.306 211.884C156.742 211.666 157.178 211.447 157.614 211.229V211.447C157.614 211.557 157.614 211.775 157.614 211.993C157.614 212.103 157.614 212.321 157.614 212.43V212.54C157.614 212.649 157.614 212.867 157.723 212.976C157.723 213.086 157.832 213.304 157.832 213.413V52.8619H150.202V52.9711ZM252.226 308.543V37.2436H150.202V308.543H252.226ZM244.378 44.9981V300.788H157.832V44.9981H244.378ZM150.202 52.9711V215.379C152.055 214.178 154.126 212.976 156.306 211.884C156.742 211.666 157.178 211.447 157.614 211.229V211.447C157.614 211.557 157.614 211.775 157.614 211.993C157.614 212.103 157.614 212.321 157.614 212.43V212.54C157.614 212.649 157.614 212.867 157.723 212.976C157.723 213.086 157.832 213.304 157.832 213.413V52.8619H150.202V52.9711Z" fill="#F0F0F0"/>
<path d="M154.126 44.9981H59.9502V52.9711H154.126V44.9981Z" fill="#FAFAFA"/>
<path d="M150.856 293.689H56.6802V301.662H150.856V293.689Z" fill="#FAFAFA"/>
<path d="M55.917 37.2436V308.543H157.941V37.2436H55.917ZM65.073 301.771V45.9811L150.093 44.8889H150.202V300.679H150.093L117.175 301.116H116.194L68.67 301.771H65.073Z" fill="#EBEBEB"/>
<path d="M267.268 404C383.994 404 478.619 398.474 478.619 391.658C478.619 384.842 383.994 379.317 267.268 379.317C150.542 379.317 55.917 384.842 55.917 391.658C55.917 398.474 150.542 404 267.268 404Z" fill="#F5F5F5"/>
<path d="M435.346 21.8438H107.147V245.087H435.346V21.8438Z" fill="#0ec2f3"/>
<path opacity="0.5" d="M435.346 21.8438H107.147V245.087H435.346V21.8438Z" fill="white"/>
<path d="M107.147 21.8438V37.2436H154.671V31.3458C154.671 28.3969 157.069 25.9941 160.012 25.9941H203.939C206.882 25.9941 209.28 28.3969 209.28 31.3458V37.2436H435.346V21.8438H107.147Z" fill="#0ec2f3"/>
<path opacity="0.7" d="M120.881 29.4891C120.881 31.455 119.355 32.9841 117.393 32.9841C115.431 32.9841 113.905 31.455 113.905 29.4891C113.905 27.5231 115.431 25.9941 117.393 25.9941C119.355 25.9941 120.881 27.5231 120.881 29.4891Z" fill="white"/>
<path opacity="0.7" d="M127.857 32.9841C129.784 32.9841 131.345 31.4193 131.345 29.4891C131.345 27.5588 129.784 25.9941 127.857 25.9941C125.931 25.9941 124.369 27.5588 124.369 29.4891C124.369 31.4193 125.931 32.9841 127.857 32.9841Z" fill="white"/>
<path opacity="0.7" d="M142.027 29.4891C142.027 31.455 140.501 32.9841 138.539 32.9841C136.577 32.9841 135.051 31.455 135.051 29.4891C135.051 27.5231 136.577 25.9941 138.539 25.9941C140.392 25.9941 142.027 27.5231 142.027 29.4891Z" fill="white"/>
<path opacity="0.7" d="M168.514 33.0933C168.514 35.0592 166.988 36.5883 165.026 36.5883C163.064 36.5883 161.538 35.0592 161.538 33.0933C161.538 31.1273 163.064 29.5983 165.026 29.5983C166.988 29.4891 168.514 31.1273 168.514 33.0933Z" fill="white"/>
<path opacity="0.2" d="M435.346 67.2787H107.147V245.087H435.346V67.2787Z" fill="white"/>
<path d="M208.735 15.2906C203.503 15.2906 178.215 15.2906 172.983 15.2906C172.22 15.2906 172.111 16.492 172.874 16.492C178.106 16.492 203.394 16.492 208.626 16.492C209.389 16.492 209.498 15.2906 208.735 15.2906Z" fill="#0ec2f3"/>
<path d="M167.315 15.2906C165.789 15.2906 164.263 15.2906 162.846 15.2906C162.083 15.2906 161.974 16.492 162.737 16.492C164.263 16.492 165.789 16.492 167.206 16.492C167.969 16.492 168.078 15.2906 167.315 15.2906Z" fill="#0ec2f3"/>
<path d="M383.026 59.415H168.732C165.026 59.415 162.083 56.4661 162.083 52.7526C162.083 49.0392 165.026 46.0903 168.732 46.0903H383.026C386.732 46.0903 389.675 49.0392 389.675 52.7526C389.675 56.4661 386.732 59.415 383.026 59.415Z" fill="white"/>
<path d="M155.216 88.2487H120.554C116.739 88.2487 113.687 85.1906 113.687 81.3679C113.687 77.5453 116.739 74.4872 120.554 74.4872H155.216C159.031 74.4872 162.083 77.5453 162.083 81.3679C162.083 85.1906 159.031 88.2487 155.216 88.2487Z" fill="#263238"/>
<path d="M377.903 97.7507H187.153C180.722 97.7507 175.599 92.5082 175.599 86.1736C175.599 79.7297 180.831 74.5964 187.153 74.5964H377.903C384.334 74.5964 389.457 79.8389 389.457 86.1736C389.457 92.6175 384.225 97.7507 377.903 97.7507Z" fill="white"/>
<path d="M407.987 125.274H376.268V157.057H407.987V125.274Z" fill="white"/>
<path d="M369.183 125.274H337.464V157.057H369.183V125.274Z" fill="white"/>
<path d="M274.026 148.537H175.054V157.166H274.026V148.537Z" fill="#0ec2f3"/>
<path opacity="0.1" d="M274.026 148.537H175.054V157.166H274.026V148.537Z" fill="black"/>
<path d="M411.911 171.91H332.777V180.539H411.911V171.91Z" fill="#0ec2f3"/>
<path opacity="0.1" d="M411.911 171.91H332.777V180.539H411.911V171.91Z" fill="black"/>
<path d="M303.892 165.357H175.054V168.088H303.892V165.357Z" fill="#263238"/>
<path d="M201.541 31.6734H175.054V34.4039H201.541V31.6734Z" fill="#263238"/>
<path d="M283.618 176.388H175.054V179.119H283.618V176.388Z" fill="#263238"/>
<path d="M274.026 201.727H175.054V210.355H274.026V201.727Z" fill="#0ec2f3"/>
<path opacity="0.1" d="M274.026 201.727H175.054V210.355H274.026V201.727Z" fill="black"/>
<path d="M303.892 218.656H175.054V221.386H303.892V218.656Z" fill="#263238"/>
<path d="M283.618 229.578H175.054V232.308H283.618V229.578Z" fill="#263238"/>
<path d="M411.911 188.73H332.777V191.46H411.911V188.73Z" fill="#263238"/>
<path d="M397.305 199.761H332.777V202.491H397.305V199.761Z" fill="#263238"/>
<path d="M419.323 117.082H325.801V232.527H419.323V117.082Z" stroke="#0ec2f3" stroke-width="1.5" stroke-miterlimit="10"/>
<path d="M370.164 89.9962C368.529 89.9962 367.003 89.3409 365.913 88.2487C364.823 87.1565 364.169 85.6275 364.169 83.9892C364.169 82.3509 364.823 80.8218 365.913 79.7297C367.003 78.6375 368.529 77.9822 370.164 77.9822C371.799 77.9822 373.325 78.6375 374.415 79.7297C375.505 80.8218 376.159 82.3509 376.159 83.9892C376.159 85.6275 375.505 87.1565 374.415 88.2487C373.325 89.3409 371.799 89.9962 370.164 89.9962ZM370.164 78.9651C368.856 78.9651 367.548 79.5112 366.676 80.385C365.695 81.3679 365.259 82.5693 365.259 83.88C365.259 85.1906 365.804 86.5012 366.676 87.375C367.657 88.3579 368.856 88.7948 370.164 88.7948C371.472 88.7948 372.78 88.2487 373.652 87.375C374.633 86.392 375.069 85.1906 375.069 83.88C375.069 82.5693 374.524 81.2587 373.652 80.385C372.78 79.5112 371.581 78.9651 370.164 78.9651Z" fill="#0ec2f3"/>
<path d="M375.826 88.9742L375.133 89.6693L380.066 94.6119L380.759 93.9168L375.826 88.9742Z" fill="#0ec2f3"/>
<path d="M374.606 87.768L373.912 88.4631L375.685 90.2393L376.378 89.5443L374.606 87.768Z" fill="#0ec2f3"/>
<path d="M178.542 112.058C177.779 112.058 177.125 111.731 176.58 111.185C175.49 110.092 175.49 108.236 176.58 107.144C177.125 106.597 177.779 106.27 178.542 106.27C179.305 106.27 179.959 106.597 180.504 107.144C181.594 108.236 181.594 110.092 180.504 111.185C180.068 111.731 179.305 112.058 178.542 112.058ZM178.542 106.925C177.997 106.925 177.343 107.144 177.016 107.58C176.144 108.454 176.144 109.874 177.016 110.748C177.452 111.185 177.997 111.403 178.542 111.403C179.087 111.403 179.741 111.185 180.068 110.748C180.94 109.874 180.94 108.454 180.068 107.58C179.741 107.144 179.196 106.925 178.542 106.925Z" fill="#0ec2f3"/>
<path d="M181.252 111.424L180.79 111.887L183.025 114.127L183.488 113.664L181.252 111.424Z" fill="#0ec2f3"/>
<path d="M180.558 110.911L180.25 111.22L181.098 112.07L181.406 111.761L180.558 110.911Z" fill="#0ec2f3"/>
<path d="M187.262 87.7026L187.48 87.375C187.916 87.8118 188.57 88.1395 189.333 88.1395C190.532 88.1395 190.968 87.5934 190.968 87.0473C190.968 85.2998 187.371 86.392 187.371 84.2076C187.371 83.4431 188.025 82.6786 189.442 82.6786C190.096 82.6786 190.75 82.897 191.186 83.2247L191.077 83.5523C190.641 83.2247 189.987 83.1154 189.551 83.1154C188.461 83.1154 187.916 83.6615 187.916 84.3168C187.916 86.0643 191.513 84.9722 191.513 87.1565C191.513 87.9211 190.859 88.6856 189.442 88.6856C188.57 88.5764 187.698 88.2487 187.262 87.7026Z" fill="#263238"/>
<path d="M196.418 86.392H192.712C192.712 87.375 193.475 88.1395 194.565 88.1395C195.11 88.1395 195.655 87.9211 195.982 87.4842L196.2 87.7026C195.873 88.1395 195.219 88.3579 194.565 88.3579C193.257 88.3579 192.385 87.4842 192.385 86.1736C192.385 84.8629 193.257 83.9892 194.456 83.9892C195.655 83.9892 196.527 84.8629 196.527 86.1736C196.418 86.392 196.418 86.392 196.418 86.392ZM192.712 86.0644H195.982C195.873 85.0814 195.219 84.4261 194.347 84.4261C193.475 84.5353 192.712 85.1906 192.712 86.0644Z" fill="#263238"/>
<path d="M200.669 85.7367V88.4672H200.233V87.7026C200.015 88.2487 199.47 88.4672 198.707 88.4672C197.726 88.4672 197.181 87.9211 197.181 87.2658C197.181 86.6104 197.617 86.0644 198.816 86.0644H200.342V85.7367C200.342 84.9722 199.906 84.5353 199.034 84.5353C198.489 84.5353 197.944 84.7537 197.508 85.0814L197.29 84.7537C197.726 84.4261 198.38 84.0984 199.034 84.0984C200.015 84.2076 200.669 84.7537 200.669 85.7367ZM200.233 87.2658V86.5012H198.816C197.944 86.5012 197.617 86.8289 197.617 87.375C197.617 87.9211 198.053 88.2487 198.816 88.2487C199.47 88.1395 200.015 87.8119 200.233 87.2658Z" fill="#263238"/>
<path d="M204.375 84.2076V84.6445H204.266C203.285 84.6445 202.74 85.2998 202.74 86.392V88.4672H202.304V84.2076H202.74V85.1906C202.958 84.5353 203.612 84.2076 204.375 84.2076Z" fill="#263238"/>
<path d="M205.029 86.392C205.029 85.0814 205.901 84.2076 207.209 84.2076C207.863 84.2076 208.517 84.4261 208.844 84.9722L208.517 85.1906C208.19 84.7537 207.754 84.5353 207.209 84.5353C206.228 84.5353 205.465 85.2998 205.465 86.392C205.465 87.4842 206.228 88.2487 207.209 88.2487C207.754 88.2487 208.19 88.0303 208.517 87.5934L208.844 87.8118C208.517 88.3579 207.863 88.5764 207.209 88.5764C205.901 88.5764 205.029 87.5934 205.029 86.392Z" fill="#263238"/>
<path d="M213.858 85.9551V88.4672H213.422V85.9551C213.422 84.9722 212.877 84.4261 212.005 84.4261C211.024 84.4261 210.37 85.0814 210.37 86.0643V88.4672H209.934V82.3509H210.37V85.0814C210.697 84.5353 211.242 84.0984 212.005 84.0984C213.095 84.2076 213.858 84.7537 213.858 85.9551Z" fill="#263238"/>
<path d="M175.49 52.7526V55.2647H175.054V52.7526C175.054 51.7697 174.509 51.2236 173.637 51.2236C172.656 51.2236 172.002 51.8789 172.002 52.8619V55.1555H171.566V49.1484H172.002V51.8789C172.329 51.3328 172.874 50.8959 173.637 50.8959C174.836 50.8959 175.49 51.5512 175.49 52.7526Z" fill="#263238"/>
<path d="M179.305 54.937C179.087 55.1554 178.76 55.2647 178.433 55.2647C177.67 55.2647 177.234 54.8278 177.234 54.0633V51.3328H176.471V51.0051H177.234V50.0222H177.67V51.0051H179.087V51.3328H177.67V54.0633C177.67 54.6094 177.888 54.937 178.433 54.937C178.651 54.937 178.978 54.8278 179.087 54.7186L179.305 54.937Z" fill="#263238"/>
<path d="M182.466 54.937C182.248 55.1554 181.921 55.2647 181.594 55.2647C180.831 55.2647 180.395 54.8278 180.395 54.0633V51.3328H179.632V51.0051H180.395V50.0222H180.831V51.0051H182.248V51.3328H180.831V54.0633C180.831 54.6094 181.049 54.937 181.594 54.937C181.812 54.937 182.139 54.8278 182.248 54.7186L182.466 54.937Z" fill="#263238"/>
<path d="M187.916 53.0803C187.916 54.3909 187.044 55.2647 185.845 55.2647C185.082 55.2647 184.428 54.937 184.101 54.2817V56.903H183.665V51.0051H184.101V51.9881C184.428 51.3328 185.082 50.8959 185.845 50.8959C187.044 50.8959 187.916 51.7697 187.916 53.0803ZM187.48 53.0803C187.48 51.9881 186.717 51.2236 185.736 51.2236C184.755 51.2236 183.992 51.9881 183.992 53.0803C183.992 54.1725 184.755 54.937 185.736 54.937C186.717 54.937 187.48 54.1725 187.48 53.0803Z" fill="#263238"/>
<path d="M188.57 54.7186L188.788 54.3909C189.115 54.7186 189.66 54.937 190.314 54.937C191.186 54.937 191.622 54.6094 191.622 54.1725C191.622 52.9711 188.788 53.8448 188.788 52.2065C188.788 51.5512 189.333 51.0051 190.423 51.0051C190.968 51.0051 191.513 51.2236 191.949 51.442L191.731 51.7697C191.404 51.5512 190.859 51.3328 190.423 51.3328C189.551 51.3328 189.224 51.6605 189.224 52.0973C189.224 53.408 192.058 52.425 192.058 54.1725C192.058 54.8278 191.404 55.3739 190.314 55.3739C189.551 55.2647 188.897 55.0462 188.57 54.7186Z" fill="#263238"/>
<path d="M192.712 51.2236C192.712 51.0051 192.821 50.8959 193.039 50.8959C193.257 50.8959 193.366 51.0051 193.366 51.2236C193.366 51.442 193.257 51.5512 193.039 51.5512C192.93 51.6605 192.712 51.442 192.712 51.2236ZM192.712 54.937C192.712 54.7186 192.821 54.6094 193.039 54.6094C193.257 54.6094 193.366 54.7186 193.366 54.937C193.366 55.1555 193.257 55.2647 193.039 55.2647C192.93 55.2647 192.712 55.1555 192.712 54.937Z" fill="#263238"/>
<path d="M196.854 48.2747H197.181L194.456 56.0292H194.129L196.854 48.2747Z" fill="#263238"/>
<path d="M198.925 48.2747H199.252L196.527 56.0292H196.2L198.925 48.2747Z" fill="#263238"/>
<path opacity="0.7" d="M201.977 109.437C201.977 111.403 200.451 112.932 198.489 112.932C196.527 112.932 195.001 111.403 195.001 109.437C195.001 107.471 196.527 105.942 198.489 105.942C200.342 105.833 201.977 107.471 201.977 109.437Z" fill="#0ec2f3"/>
<path opacity="0.7" d="M219.962 109.437C219.962 111.403 218.436 112.932 216.474 112.932C214.512 112.932 212.986 111.403 212.986 109.437C212.986 107.471 214.512 105.942 216.474 105.942C218.436 105.833 219.962 107.471 219.962 109.437Z" fill="#0ec2f3"/>
<path opacity="0.7" d="M238.056 109.437C238.056 111.403 236.53 112.932 234.568 112.932C232.606 112.932 231.08 111.403 231.08 109.437C231.08 107.471 232.606 105.942 234.568 105.942C236.421 105.833 238.056 107.471 238.056 109.437Z" fill="#0ec2f3"/>
<path opacity="0.7" d="M256.041 109.437C256.041 111.403 254.515 112.932 252.553 112.932C250.591 112.932 249.065 111.403 249.065 109.437C249.065 107.471 250.591 105.942 252.553 105.942C254.406 105.833 256.041 107.471 256.041 109.437Z" fill="#0ec2f3"/>
<path opacity="0.7" d="M274.026 109.437C274.026 111.403 272.5 112.932 270.538 112.932C268.576 112.932 267.05 111.403 267.05 109.437C267.05 107.471 268.576 105.942 270.538 105.942C272.5 105.833 274.026 107.471 274.026 109.437Z" fill="#0ec2f3"/>
<path d="M111.943 317.608C108.346 313.13 101.37 310.181 93.7398 308.761C94.2848 310.946 93.8488 312.912 92.6498 313.458C91.2328 314.004 89.2708 312.475 88.2898 309.963C88.0718 309.307 87.8538 308.543 87.8538 307.888C80.1148 307.232 72.4848 308.106 67.3618 310.618C67.3618 310.618 72.3758 315.205 78.0438 327.11C78.2618 327.11 78.3708 327.11 78.5888 327.11C82.2948 327.11 85.2378 328.967 85.2378 331.042C85.2378 332.571 83.6028 333.991 81.3138 334.537C81.6408 335.301 81.8588 336.066 82.1858 336.83C87.6358 351.575 102.024 340.872 101.915 330.823C101.915 331.042 120.009 327.547 111.943 317.608Z" fill="#0ec2f3"/>
<path d="M73.4658 312.693C73.2478 312.584 73.0298 312.584 73.0298 312.584C73.2478 312.584 73.3568 312.584 73.4658 312.693Z" fill="#263238"/>
<path d="M124.369 363.371C124.042 362.606 123.606 361.405 122.952 359.985C120.009 353.65 113.578 341.745 102.46 330.933C100.389 328.967 98.3178 327.11 95.9198 325.253C95.8108 323.397 95.9198 318.591 100.389 315.751C100.389 315.751 95.3748 316.516 94.7208 324.27C88.7258 319.683 81.6408 315.642 73.4658 312.693C75.7548 313.567 87.4178 318.373 99.4078 329.622C99.1898 329.622 92.9768 329.841 90.2518 336.066C90.4698 335.738 94.2848 330.496 100.607 330.823C100.934 331.151 101.37 331.588 101.697 331.916C108.564 338.906 115.213 347.971 120.227 359.876C120.772 361.295 121.426 362.715 121.862 364.135C122.08 364.79 122.843 365.118 123.497 364.9C123.933 364.681 124.26 364.244 124.26 363.808C124.478 363.698 124.478 363.48 124.369 363.371Z" fill="#263238"/>
<path d="M132.762 317.717C135.16 312.584 141.264 307.997 148.24 304.72C148.131 307.014 149.112 308.87 150.529 308.98C152.055 309.198 153.581 307.232 153.908 304.611C154.017 303.846 154.017 303.191 153.908 302.536C161.211 300.024 168.95 299.041 174.509 300.242C174.509 300.242 170.694 305.812 168.078 318.809C167.86 318.809 167.751 318.919 167.533 318.919C163.936 319.792 161.538 322.304 162.083 324.38C162.519 325.909 164.372 326.782 166.77 326.892C166.661 327.656 166.552 328.53 166.443 329.404C164.699 345.022 148.131 338.141 145.842 328.311C145.733 328.311 127.312 329.294 132.762 317.717Z" fill="#0ec2f3"/>
<path d="M168.95 303.628C169.168 303.519 169.277 303.41 169.277 303.41C169.168 303.519 169.059 303.519 168.95 303.628Z" fill="#F5F5F5"/>
<path d="M148.567 325.144C156.524 313.239 165.135 306.358 168.187 304.174C161.32 308.871 155.652 314.331 151.074 320.011C150.42 318.045 149.548 316.516 148.567 315.533C148.567 315.533 148.567 315.424 148.458 315.424C146.06 312.802 143.444 313.021 143.444 313.021C145.951 313.785 147.477 315.314 148.458 316.953C148.458 316.953 148.458 317.062 148.567 317.062C149.548 318.7 149.984 320.229 150.093 321.212C149.548 321.868 149.003 322.632 148.567 323.287C148.567 323.287 148.567 323.397 148.458 323.397C147.259 325.035 146.169 326.673 145.188 328.311C143.88 330.387 142.681 332.571 141.591 334.646C141.591 334.646 141.591 334.755 141.482 334.755C136.359 344.694 133.743 354.087 132.544 359.985C132.108 362.278 131.781 364.026 131.672 365.118C131.563 365.773 132.108 366.429 132.762 366.538H132.871C133.525 366.538 134.07 366.101 134.07 365.446C134.288 363.589 134.506 361.732 134.833 359.985C136.25 351.684 138.648 344.257 141.591 337.813C141.591 337.813 141.591 337.704 141.7 337.704C143.008 334.755 144.534 331.916 146.06 329.294C146.278 328.858 146.605 328.311 146.932 327.875C147.477 327.656 148.022 327.547 148.567 327.547H148.676C154.017 326.892 158.05 330.277 158.268 330.496C154.998 326.236 150.529 326.127 148.676 326.345C148.676 326.345 148.676 326.345 148.567 326.345C148.131 326.345 147.913 326.455 147.804 326.455C148.022 326.018 148.24 325.581 148.567 325.144C148.567 325.253 148.567 325.144 148.567 325.144Z" fill="#263238"/>
<path d="M137.994 316.079C136.795 310.509 131.999 304.611 125.895 299.805C125.459 301.99 124.042 303.628 122.734 303.41C121.208 303.191 120.227 301.007 120.554 298.386C120.663 297.621 120.772 296.966 121.099 296.31C114.559 292.16 107.365 289.43 101.697 289.211C101.697 289.211 104.095 295.546 103.659 308.761C103.768 308.871 103.986 308.87 104.095 308.98C107.365 310.727 109.109 313.676 108.128 315.533C107.365 316.953 105.294 317.39 103.005 316.843C102.896 317.608 102.787 318.482 102.678 319.355C100.716 334.865 118.483 332.134 122.952 323.178C122.843 323.397 140.501 328.639 137.994 316.079Z" fill="#0ec2f3"/>
<path opacity="0.2" d="M137.994 316.079C136.795 310.509 131.999 304.611 125.895 299.805C125.459 301.99 124.042 303.628 122.734 303.41C121.208 303.191 120.227 301.007 120.554 298.386C120.663 297.621 120.772 296.966 121.099 296.31C114.559 292.16 107.365 289.43 101.697 289.211C101.697 289.211 104.095 295.546 103.659 308.761C103.768 308.871 103.986 308.87 104.095 308.98C107.365 310.727 109.109 313.676 108.128 315.533C107.365 316.953 105.294 317.39 103.005 316.843C102.896 317.608 102.787 318.482 102.678 319.355C100.716 334.865 118.483 332.134 122.952 323.178C122.843 323.397 140.501 328.639 137.994 316.079Z" fill="white"/>
<path d="M106.057 294.017C105.839 293.798 105.73 293.689 105.73 293.689C105.948 293.798 105.948 293.908 106.057 294.017Z" fill="#263238"/>
<path d="M120.227 315.424C120.99 313.785 123.279 309.526 128.62 309.089C128.62 309.089 123.933 307.451 119.682 314.113C116.521 307.451 112.27 300.679 106.493 294.454C108.782 297.075 116.194 306.468 121.317 321.103C121.208 321.103 117.72 319.356 113.687 320.666C112.597 320.994 111.398 321.649 110.308 322.523C110.526 322.414 111.943 321.758 113.905 321.431C116.085 320.994 119.028 321.103 121.862 322.741C122.08 323.287 122.189 323.724 122.298 324.27C125.35 334.1 127.094 346.114 125.677 359.876C125.568 360.64 125.459 361.405 125.459 362.169C125.35 362.825 125.895 363.48 126.549 363.589H126.658C127.312 363.589 127.857 363.152 127.857 362.497C127.966 361.842 127.966 360.968 128.075 359.876C128.511 353.323 128.511 339.124 123.279 323.506C122.516 320.885 121.426 318.154 120.227 315.424Z" fill="#263238"/>
<path d="M144.425 363.371V363.698L144.316 365.009L142.79 389.037C142.681 390.457 141.482 391.549 140.065 391.549H114.341C112.924 391.549 111.725 390.457 111.616 389.037L110.09 365.009L109.981 363.698V363.371C109.981 363.043 109.981 362.715 110.09 362.388V362.278C110.09 362.169 110.199 362.06 110.199 361.951C110.199 361.842 110.308 361.732 110.417 361.623V361.514C110.417 361.405 110.526 361.405 110.526 361.295C110.526 361.295 110.526 361.186 110.635 361.186C110.744 361.077 110.744 361.077 110.853 360.968C110.962 360.859 111.071 360.749 111.289 360.64C111.398 360.64 111.398 360.531 111.507 360.531C111.943 360.203 112.379 360.094 112.924 359.985C113.033 359.985 113.142 359.985 113.251 359.985H141.373C141.482 359.985 141.591 359.985 141.7 359.985C142.463 360.094 143.117 360.422 143.553 360.968C143.662 361.077 143.662 361.077 143.771 361.186C143.771 361.186 143.771 361.295 143.88 361.295C143.88 361.405 143.989 361.405 143.989 361.514C143.989 361.514 143.989 361.514 143.989 361.623C144.098 361.732 144.098 361.842 144.207 361.951C144.207 362.06 144.316 362.169 144.316 362.278V362.388C144.425 362.715 144.425 363.043 144.425 363.371Z" fill="#263238"/>
<path d="M144.316 362.388C143.989 360.968 142.681 359.985 141.264 359.985H113.142C111.616 359.985 110.417 361.077 110.09 362.388L109.981 363.698L110.09 365.009C110.417 366.429 111.725 367.412 113.142 367.412H141.264C142.79 367.412 143.989 366.32 144.316 365.009L144.425 363.698L144.316 362.388Z" fill="#263238"/>
<path d="M144.97 365.883H109.218L108.564 359.876H145.624L144.97 365.883Z" fill="#263238"/>
<path d="M247.648 185.344L250.046 189.713C250.155 189.822 250.155 190.041 250.155 190.15L250.7 196.157C250.7 196.484 250.591 196.812 250.373 197.031L248.956 198.778C248.738 199.106 240.89 198.887 240.89 198.887C240.236 198.887 239.691 198.232 239.691 197.577L240.236 189.931C240.236 189.822 240.236 189.604 240.345 189.494L242.416 185.016C242.634 184.58 243.07 184.252 243.615 184.361L246.558 184.58C246.994 184.798 247.43 185.016 247.648 185.344Z" fill="#FF8B7B"/>
<path d="M231.734 326.673C218.654 342.073 202.631 359.111 202.631 359.111L192.494 358.783C192.494 358.783 205.138 335.411 217.237 316.079L231.734 326.673Z" fill="#FF8B7B"/>
<path d="M275.443 244.541C275.443 244.541 262.472 276.542 259.42 282.658C253.534 294.454 252.335 296.966 247.212 306.358C245.25 309.853 241.217 315.314 236.203 321.431C234.786 323.178 233.26 324.926 231.734 326.782L217.128 316.188C218.327 314.331 219.417 312.475 220.616 310.727C225.63 303.082 230.317 296.638 233.696 293.471C233.696 293.471 244.705 237.223 252.335 213.959C254.188 208.499 259.856 199.433 260.946 197.577C260.946 197.577 279.476 229.905 280.675 231.544C281.874 233.182 275.443 244.541 275.443 244.541Z" fill="#0ec2f3"/>
<path opacity="0.3" d="M279.694 235.912C279.694 235.912 276.315 244.65 271.628 253.824C271.628 253.824 270.865 240.936 257.567 218.874C278.168 220.622 279.694 235.912 279.694 235.912Z" fill="black"/>
<path d="M195.982 353.104L191.186 360.968L197.617 366.101L203.503 357.91L195.982 353.104Z" fill="#FF8B7B"/>
<path opacity="0.2" d="M215.384 319.465L229.336 329.513L233.369 324.707L217.346 316.188L215.384 319.465Z" fill="black"/>
<path d="M198.925 367.63C198.816 367.521 198.816 367.412 198.925 367.412C198.925 367.302 199.034 367.302 199.143 367.302C199.361 367.302 203.067 367.739 204.157 368.941C204.375 369.159 204.484 369.487 204.375 369.815C204.375 370.142 204.157 370.47 203.83 370.579C203.176 370.798 202.086 370.251 201.105 369.596C200.342 368.941 199.579 368.285 198.925 367.63ZM199.688 367.849C200.996 369.05 202.958 370.47 203.721 370.142C203.83 370.142 203.939 370.033 203.939 369.705C203.939 369.487 203.939 369.378 203.721 369.159C203.612 369.05 203.503 368.941 203.394 368.832C202.304 368.285 200.996 367.958 199.688 367.849Z" fill="#0ec2f3"/>
<path d="M198.816 367.521C198.816 367.412 198.816 367.412 198.816 367.302C198.925 367.193 200.56 365.227 202.195 365.118C202.631 365.118 203.067 365.227 203.394 365.555C203.83 365.992 203.83 366.32 203.721 366.538C203.285 367.521 200.233 367.849 199.034 367.63H198.925C198.925 367.63 198.816 367.63 198.816 367.521ZM203.067 365.883C202.849 365.664 202.522 365.664 202.304 365.664C201.214 365.883 200.342 366.538 199.579 367.302C200.996 367.412 203.067 366.975 203.394 366.429C203.394 366.32 203.503 366.21 203.176 365.992L203.067 365.883Z" fill="#0ec2f3"/>
<path d="M198.925 365.992L190.423 359.985C190.096 359.766 189.66 359.766 189.333 360.094L182.902 365.883C182.357 366.429 182.248 367.303 182.793 367.849C182.902 367.958 182.902 367.958 183.011 368.067C186.063 370.142 188.897 371.999 192.712 374.729C197.181 377.897 195.655 377.678 200.887 381.501C204.048 383.795 207.209 380.627 206.01 379.426C200.451 374.293 201.105 371.89 200.233 368.067C200.015 367.084 199.579 366.429 198.925 365.992Z" fill="#263238"/>
<path d="M307.38 101.573C307.489 102.229 307.162 102.775 306.835 102.775C306.399 102.775 305.963 102.338 305.963 101.683C305.854 101.027 306.181 100.481 306.508 100.481C306.944 100.481 307.38 100.918 307.38 101.573Z" fill="#263238"/>
<path d="M306.181 100.481C306.726 100.481 307.271 100.263 307.598 99.4982C307.489 99.8259 307.489 100.263 307.271 100.481C307.053 100.809 306.617 100.918 306.399 100.809L306.181 100.481Z" fill="#263238"/>
<path d="M305.854 103.321L309.56 107.144C309.56 107.144 308.034 108.454 305.745 107.799L305.854 103.321Z" fill="#BA4D3C"/>
<path d="M283.618 126.366C283.618 126.366 288.959 125.602 288.523 115.663C288.523 115.663 293.428 113.26 296.698 115.99C300.077 118.83 294.191 125.82 298.224 128.55C302.366 131.39 283.618 126.366 283.618 126.366Z" fill="#FF8B7B"/>
<path opacity="0.2" d="M297.788 119.376L294.082 119.594C294.082 119.594 294.954 122.653 296.916 123.854C297.243 122.325 297.679 120.796 297.788 119.376Z" fill="black"/>
<path d="M283.073 102.119C283.836 110.529 283.945 114.024 288.196 118.284C294.736 124.619 304.873 121.888 306.617 113.478C308.252 105.942 306.835 93.4912 298.551 90.3239C292.665 88.0303 286.016 90.9792 283.727 96.877C283.182 98.5153 282.964 100.263 283.073 102.119Z" fill="#FF8B7B"/>
<path d="M307.162 97.3139C307.162 97.4231 307.053 97.4231 306.944 97.5323C306.072 97.5323 305.309 98.0784 304.873 98.7337C304.764 98.8429 304.546 98.9522 304.437 98.8429C304.328 98.7337 304.219 98.5153 304.328 98.4061C304.873 97.5323 305.854 96.877 306.835 96.877C307.053 96.877 307.162 96.9862 307.162 97.2047C307.271 97.0954 307.162 97.2047 307.162 97.3139Z" fill="#263238"/>
<path d="M281.547 127.021L282.746 124.619C283.291 123.636 284.381 122.98 285.58 123.199C289.94 123.963 300.404 126.038 301.821 127.786C303.674 129.97 303.456 132.264 303.456 132.264L281.547 127.021Z" fill="#0ec2f3"/>
<g opacity="0.7">
<path opacity="0.5" d="M281.547 127.021L282.746 124.619C283.291 123.636 284.381 122.98 285.58 123.199C289.94 123.963 300.404 126.038 301.821 127.786C303.674 129.97 303.456 132.264 303.456 132.264L281.547 127.021Z" fill="white"/>
</g>
<path d="M269.448 147.882L259.638 152.469C255.278 154.763 252.771 157.712 251.027 166.777C249.174 176.279 247.648 185.344 247.648 185.344C244.923 187.529 241.108 185.126 241.108 185.126C241.108 185.126 238.71 171.255 242.089 154.108C244.16 143.841 264.761 129.861 275.443 126.584C277.078 126.038 278.931 125.82 280.784 125.711L282.637 125.929L270.211 148.537L269.448 147.882Z" fill="#0ec2f3"/>
<path opacity="0.6" d="M269.448 147.882L259.638 152.469C255.278 154.763 252.771 157.712 251.027 166.777C249.174 176.279 247.648 185.344 247.648 185.344C244.923 187.529 241.108 185.126 241.108 185.126C241.108 185.126 238.71 171.255 242.089 154.108C244.16 143.841 264.761 129.861 275.443 126.584C277.078 126.038 278.931 125.82 280.784 125.711L282.637 125.929L270.211 148.537L269.448 147.882Z" fill="black"/>
<path d="M309.996 163.719C313.375 154.108 313.92 153.78 313.157 149.411C312.83 147.445 312.285 144.606 311.849 143.186C307.707 129.315 296.48 128.66 284.163 126.257C271.737 123.745 270.211 129.97 269.666 145.916C269.012 161.971 268.249 187.747 268.249 187.747C276.533 192.443 285.907 194.846 295.39 194.846H304.001C304.001 194.846 304.219 187.638 305.745 181.303C309.996 163.719 307.271 171.583 309.996 163.719Z" fill="#0ec2f3"/>
<g opacity="0.6">
<path opacity="0.6" d="M309.996 163.719C313.375 154.108 313.92 153.78 313.157 149.411C312.83 147.445 312.285 144.606 311.849 143.186C307.707 129.315 296.48 128.66 284.163 126.257C271.737 123.745 270.211 129.97 269.666 145.916C269.012 161.971 268.249 187.747 268.249 187.747C276.533 192.443 285.907 194.846 295.39 194.846H304.001C304.001 194.846 304.219 187.638 305.745 181.303C309.996 163.719 307.271 171.583 309.996 163.719Z" fill="black"/>
</g>
<path d="M301.385 107.144C301.385 107.144 311.195 90.3239 303.347 86.6104C290.703 80.6034 277.95 82.3509 270.647 95.0203C264.652 105.396 267.486 116.427 279.912 123.089C296.589 131.936 299.205 116.973 298.442 109.983C298.442 109.874 300.077 109.874 301.385 107.144Z" fill="#263238"/>
<path d="M300.077 103.539C301.385 104.632 302.257 106.27 302.366 107.908C302.584 110.202 300.404 110.857 298.442 109.874C296.698 109 294.518 106.707 295.281 104.632C296.044 102.556 298.442 102.119 300.077 103.539Z" fill="#FF8B7B"/>
<path d="M301.494 307.123C299.968 317.28 296.807 326.236 294.518 335.083C293.973 337.377 293.319 339.561 292.774 341.745L273.154 339.998C273.481 337.923 273.917 335.738 274.244 333.554C275.988 323.506 278.168 313.458 280.457 305.376C280.457 305.376 276.86 270.316 275.879 256.118C275.879 256.009 275.879 256.009 275.879 255.899C275.007 243.885 274.244 234.274 274.244 234.274C274.244 234.274 265.088 230.67 259.856 223.352C258.439 221.386 257.349 219.093 256.804 216.581C256.586 215.489 256.368 214.396 256.368 213.195C255.932 199.433 268.14 188.293 268.14 188.293C272.5 190.259 277.078 191.788 281.765 192.771C286.452 193.863 291.139 194.519 296.044 194.628L303.892 194.955C303.892 194.846 307.489 267.586 301.494 307.123Z" fill="#0ec2f3"/>
<path d="M348.582 97.6415C348.364 97.3139 355.231 87.7026 355.231 87.7026L357.52 97.2047L356.648 98.5153C355.776 99.8259 354.468 100.918 353.051 101.027C353.16 100.918 348.691 97.7508 348.582 97.6415Z" fill="#FF8B7B"/>
<path d="M355.231 87.7026L362.861 85.8459L362.752 91.6345C362.752 93.6004 361.553 95.3479 359.809 96.1125L357.629 97.2047C357.629 97.2047 353.269 92.399 355.231 87.7026Z" fill="#FF8B7B"/>
<path d="M364.932 85.2998C365.804 85.0814 366.458 85.7367 366.131 86.7197C366.022 87.1565 365.695 87.4842 365.259 87.4842L360.027 88.4672L359.264 86.7197L364.932 85.2998Z" fill="#FF8B7B"/>
<path d="M337.791 129.533C345.857 121.67 354.686 101.246 354.686 101.246C354.795 99.389 350.435 97.86 348.582 97.6415C347.165 97.5323 348.582 97.6415 348.582 97.6415C342.805 103.867 332.886 119.376 331.251 121.014C330.924 121.233 330.706 121.451 330.379 121.67C330.27 121.779 330.161 121.779 330.052 121.779L329.398 122.107C328.199 122.653 327 123.199 325.692 123.636C320.678 125.602 325.038 124.072 319.697 125.711C314.356 127.24 308.906 128.878 303.674 130.189L303.565 130.298C299.968 131.172 297.788 136.414 298.66 140.128C299.532 143.841 303.129 146.244 306.726 145.37C306.835 145.37 334.848 136.414 337.791 129.533Z" fill="#0ec2f3"/>
<path opacity="0.6" d="M337.791 129.533C345.857 121.67 354.686 101.246 354.686 101.246C354.795 99.389 350.435 97.86 348.582 97.6415C347.165 97.5323 348.582 97.6415 348.582 97.6415C342.805 103.867 332.886 119.376 331.251 121.014C330.924 121.233 330.706 121.451 330.379 121.67C330.27 121.779 330.161 121.779 330.052 121.779L329.398 122.107C328.199 122.653 327 123.199 325.692 123.636C320.678 125.602 325.038 124.072 319.697 125.711C314.356 127.24 308.906 128.878 303.674 130.189L303.565 130.298C299.968 131.172 297.788 136.414 298.66 140.128C299.532 143.841 303.129 146.244 306.726 145.37C306.835 145.37 334.848 136.414 337.791 129.533Z" fill="black"/>
<path d="M267.922 109.328C267.922 113.369 265.197 116.973 262.145 119.594C259.093 122.216 255.496 124.4 252.662 127.349C241.217 139.145 241.435 147.445 242.852 151.159C243.179 148.101 251.463 140.018 251.463 140.018C249.61 142.53 248.411 145.042 246.776 147.664C243.833 152.579 241.653 164.593 246.558 169.18C246.558 169.18 250.7 159.678 258.33 157.057C271.628 152.469 257.785 154.544 261.6 165.794C263.344 161.425 274.026 158.586 277.95 155.964C284.272 151.814 286.234 145.152 285.035 137.725C287.215 141.111 287.106 147.336 285.362 150.94C288.087 149.411 295.935 150.394 294.409 125.711C294.409 125.711 294.736 128.004 296.916 129.861C299.423 132.155 304.219 131.062 306.072 129.424C301.276 127.677 298.769 121.997 298.115 109.765C290.158 104.195 277.187 105.396 267.922 109.328Z" fill="#263238"/>
<path d="M291.357 341.636C285.689 361.951 276.642 386.962 276.642 386.962L268.685 384.887C268.685 384.887 271.083 358.237 274.026 339.998L291.357 341.636Z" fill="#FF8B7B"/>
<path d="M278.822 387.945C278.713 387.945 278.713 387.836 278.713 387.726C278.713 387.617 278.713 387.508 278.822 387.508C278.931 387.399 282.528 386.088 284.054 386.743C284.381 386.853 284.599 387.071 284.708 387.399C284.926 387.726 284.817 388.163 284.599 388.382C284.163 388.819 282.855 388.819 281.765 388.709C280.675 388.491 279.803 388.273 278.822 387.945ZM279.585 387.726C281.329 388.163 283.727 388.6 284.163 388.054C284.272 387.945 284.272 387.836 284.163 387.508C284.054 387.29 283.945 387.18 283.727 387.18C283.618 387.071 283.4 387.071 283.291 387.071C282.092 386.962 280.784 387.29 279.585 387.726Z" fill="#0ec2f3"/>
<path d="M278.713 387.945C278.604 387.945 278.604 387.836 278.604 387.726C278.604 387.617 279.258 385.105 280.566 384.341C281.002 384.122 281.438 384.013 281.874 384.122C282.528 384.231 282.637 384.668 282.637 384.887C282.637 385.979 280.13 387.726 278.931 388.054H278.822C278.822 387.945 278.713 387.945 278.713 387.945ZM281.765 384.45C281.438 384.45 281.22 384.45 281.002 384.668C280.129 385.324 279.584 386.307 279.366 387.399C280.675 386.853 282.31 385.542 282.419 384.887C282.419 384.777 282.419 384.668 281.983 384.559L281.765 384.45Z" fill="#0ec2f3"/>
<path d="M278.059 386.416L267.813 384.887C267.377 384.778 267.05 384.996 266.941 385.433L263.78 393.515C263.453 394.28 263.889 395.044 264.543 395.372C264.652 395.372 264.761 395.481 264.87 395.481C268.576 396.027 271.955 396.245 276.533 397.01C281.983 397.884 280.457 398.321 286.888 399.304C290.703 399.959 292.12 395.699 290.485 395.153C283.182 393.078 282.746 390.675 280.239 387.617C279.585 386.962 278.931 386.525 278.059 386.416Z" fill="#263238"/>
<path opacity="0.2" d="M273.481 343.93C273.481 343.821 290.267 345.568 290.267 345.568L291.466 341.527L274.135 339.889L273.481 343.93Z" fill="black"/>
</svg>
