<svg width="545" height="406" viewBox="0 0 545 406" fill="none" xmlns="http://www.w3.org/2000/svg">
<path d="M545 356.748H0V357.075H545V356.748Z" fill="#EBEBEB"/>
<path d="M474.913 374.292H454.312V374.618H474.913V374.292Z" fill="#EBEBEB"/>
<path d="M351.634 372.439H319.479V372.766H351.634V372.439Z" fill="#EBEBEB"/>
<path d="M453.222 364.267H401.883V364.594H453.222V364.267Z" fill="#EBEBEB"/>
<path d="M69.2151 366.01H57.2251V366.337H69.2151V366.01Z" fill="#EBEBEB"/>
<path d="M120.881 366.01H78.8071V366.337H120.881V366.01Z" fill="#EBEBEB"/>
<path d="M245.359 370.696H186.39V371.023H245.359V370.696Z" fill="#EBEBEB"/>
<path d="M258.33 308.15H47.8512C44.4722 308.15 41.6382 305.317 41.6382 301.939V6.21095C41.6382 2.83306 44.4722 0 47.8512 0H258.33C261.709 0 264.543 2.83306 264.543 6.21095V301.939C264.543 305.426 261.818 308.15 258.33 308.15ZM47.8512 0.326892C44.5812 0.326892 41.8562 2.94203 41.8562 6.31991V302.048C41.8562 305.317 44.4722 308.041 47.8512 308.041H258.33C261.6 308.041 264.325 305.426 264.325 302.048V6.21095C264.325 2.94203 261.709 0.217928 258.33 0.217928H47.8512V0.326892Z" fill="#EBEBEB"/>
<path d="M494.097 308.15H283.618C280.239 308.15 277.405 305.317 277.405 301.939V6.21095C277.405 2.83306 280.239 0 283.618 0H494.097C497.476 0 500.31 2.83306 500.31 6.21095V301.939C500.31 305.426 497.585 308.15 494.097 308.15ZM283.618 0.326892C280.348 0.326892 277.623 2.94203 277.623 6.31991V302.048C277.623 305.317 280.239 308.041 283.618 308.041H494.097C497.367 308.041 500.092 305.426 500.092 302.048V6.21095C500.092 2.94203 497.476 0.217928 494.097 0.217928H283.618V0.326892Z" fill="#EBEBEB"/>
<path d="M474.913 374.292H454.312V374.618H474.913V374.292Z" fill="#EBEBEB"/>
<path d="M351.634 372.439H319.479V372.766H351.634V372.439Z" fill="#EBEBEB"/>
<path d="M453.222 364.267H401.883V364.594H453.222V364.267Z" fill="#EBEBEB"/>
<path d="M69.2151 366.01H57.2251V366.337H69.2151V366.01Z" fill="#EBEBEB"/>
<path d="M120.881 366.01H78.8071V366.337H120.881V366.01Z" fill="#EBEBEB"/>
<path d="M245.359 370.696H186.39V371.022H245.359V370.696Z" fill="#EBEBEB"/>
<path d="M214.73 33.452H149.984V180.553H214.73V33.452Z" fill="#E6E6E6"/>
<path d="M218.654 33.452H153.908V180.553H218.654V33.452Z" fill="#F5F5F5"/>
<path d="M211.528 173.918L211.528 40.001L160.952 40.001L160.952 173.918H211.528Z" fill="white"/>
<path d="M211.536 173.91L211.536 39.9934H208.593L208.593 173.91H211.536Z" fill="#E6E6E6"/>
<path d="M215.711 134.135H156.851V143.07H215.711V134.135Z" fill="#F5F5F5"/>
<path d="M215.711 51.7579H156.851V60.693H215.711V51.7579Z" fill="#F5F5F5"/>
<path d="M301.93 33.452H237.184V180.553H301.93V33.452Z" fill="#E6E6E6"/>
<path d="M305.853 33.452H241.107V180.553H305.853V33.452Z" fill="#F5F5F5"/>
<path d="M298.792 173.963V40.0457L248.216 40.0457L248.216 173.963H298.792Z" fill="white"/>
<path d="M298.799 173.955V40.038H295.856V173.955H298.799Z" fill="#E6E6E6"/>
<path d="M302.911 134.135H244.051V143.07H302.911V134.135Z" fill="#F5F5F5"/>
<path d="M302.911 51.7579H244.051V60.693H302.911V51.7579Z" fill="#F5F5F5"/>
<path d="M127.421 33.452H62.6748V180.553H127.421V33.452Z" fill="#E6E6E6"/>
<path d="M131.345 33.452H66.5986V180.553H131.345V33.452Z" fill="#F5F5F5"/>
<path d="M124.263 173.982L124.263 40.0654L73.6872 40.0654L73.6872 173.982H124.263Z" fill="white"/>
<path d="M124.271 173.975L124.271 40.0578H121.328L121.328 173.975H124.271Z" fill="#E6E6E6"/>
<path d="M128.402 134.135H69.542V143.07H128.402V134.135Z" fill="#F5F5F5"/>
<path d="M128.402 51.7579H69.542V60.693H128.402V51.7579Z" fill="#F5F5F5"/>
<path d="M358.828 209.865H348.255V356.857H358.828V209.865Z" fill="#E6E6E6"/>
<path d="M361.662 209.865H355.449V356.857H361.662V209.865Z" fill="#F0F0F0"/>
<path d="M213.308 220.786L363.619 220.786V209.781L213.308 209.781V220.786Z" fill="#F0F0F0"/>
<path d="M70.9587 209.865H60.3857V356.857H70.9587V209.865Z" fill="#E6E6E6"/>
<path d="M72.921 209.865H66.708V356.857H72.921V209.865Z" fill="#F0F0F0"/>
<path d="M58.4463 220.786L208.757 220.786V209.781L58.4463 209.781V220.786Z" fill="#E6E6E6"/>
<path d="M212.441 209.865H201.868V356.857H212.441V209.865Z" fill="#E6E6E6"/>
<path d="M215.275 209.865H209.062V356.857H215.275V209.865Z" fill="#F0F0F0"/>
<path d="M185.518 160.94H263.998L270.102 207.25H191.622L185.518 160.94Z" fill="#E6E6E6"/>
<path d="M191.622 207.25L191.949 209.865H270.429L270.102 207.25H191.622Z" fill="#E6E6E6"/>
<path d="M187.916 160.94H266.396L272.5 207.25H194.02L187.916 160.94Z" fill="#F0F0F0"/>
<path d="M195.982 205.179L190.314 163.01H264.434L270.102 205.179H195.982Z" fill="white"/>
<path d="M214.512 207.25L214.839 209.865H301.276L300.949 207.25H214.512Z" fill="#F0F0F0"/>
<path d="M356.321 169.984H317.517C303.674 169.984 292.229 179.9 290.485 193.52L284.817 236.343L263.671 236.234H263.562C253.534 236.234 245.686 243.426 244.814 253.232L243.615 267.943C239.473 268.596 236.094 271.756 235.549 276.115H339.753C353.596 276.115 364.932 266.199 366.785 252.579L374.96 191.014C376.377 180.118 367.548 169.984 356.321 169.984ZM264.761 267.943H249.174L250.373 254.431C251.027 247.13 256.804 241.9 264.216 241.9H264.325L284.163 242.009L282.746 252.47C281.438 261.405 273.917 267.943 264.761 267.943Z" fill="#E0E0E0"/>
<path d="M259.638 276.224H254.188L241.544 356.748H246.885L259.638 276.224Z" fill="#F0F0F0"/>
<path d="M279.912 276.224H274.462L261.818 356.748H267.268L279.912 276.224Z" fill="#F0F0F0"/>
<path d="M327.545 276.224H332.886L345.639 356.748H340.189L327.545 276.224Z" fill="#F0F0F0"/>
<path d="M307.271 276.224H312.612L325.256 356.748H319.915L307.271 276.224Z" fill="#F0F0F0"/>
<path d="M479.164 35.9581H373.761V256.065H479.164V35.9581Z" fill="#E6E6E6"/>
<path d="M486.467 35.9581H375.723V256.065H486.467V35.9581Z" fill="#F0F0F0"/>
<path d="M477.268 246.828L477.268 45.2446L385.054 45.2446L385.054 246.828L477.268 246.828Z" fill="#FAFAFA"/>
<path d="M417.688 246.804L429.132 45.2201H444.501L433.056 246.804H417.688Z" fill="white"/>
<path d="M436 246.804L447.445 45.2201H462.814L451.478 246.804H436Z" fill="white"/>
<path d="M272.5 406C389.226 406 483.851 400.487 483.851 393.687C483.851 386.887 389.226 381.374 272.5 381.374C155.774 381.374 61.1489 386.887 61.1489 393.687C61.1489 400.487 155.774 406 272.5 406Z" fill="#F5F5F5"/>
<path d="M262.472 72.5701L245.577 319.374H451.696L470.335 46.7456H290.158L262.472 72.5701Z" fill="#0ec2f3"/>
<path opacity="0.8" d="M262.472 72.5701L245.577 319.374H451.696L470.335 46.7456H290.158L262.472 72.5701Z" fill="white"/>
<path d="M434.821 130.109C448.717 116.686 449.808 95.2792 437.258 82.2968C424.709 69.3143 403.27 69.672 389.374 83.0958C375.479 96.5195 374.387 117.926 386.937 130.908C399.487 143.891 420.925 143.533 434.821 130.109Z" fill="#0ec2f3"/>
<path d="M412.129 137.513C430.429 137.513 445.265 123.658 445.265 106.567C445.265 89.4759 430.429 75.621 412.129 75.621C393.828 75.621 378.993 89.4759 378.993 106.567C378.993 123.658 393.828 137.513 412.129 137.513Z" fill="white"/>
<path d="M403.736 117.79L397.414 117.354C397.414 117.354 394.471 132.391 392.618 133.699C390.111 135.442 384.988 139.801 381.609 141.326C381.282 141.98 381.064 143.941 381.391 144.486C386.623 144.486 396.324 139.256 397.959 136.968C401.883 131.846 403.736 117.79 403.736 117.79Z" fill="#FFC3BD"/>
<path d="M406.788 108.31C408.641 111.906 402.755 124.655 402.755 124.655L394.58 122.04C394.58 122.04 394.907 115.611 397.305 110.599C399.376 106.458 404.608 104.388 406.788 108.31Z" fill="#263238"/>
<path opacity="0.2" d="M400.575 114.848C401.665 117.463 400.248 123.674 399.158 127.597C396.324 122.803 395.997 118.444 400.575 114.848Z" fill="black"/>
<path d="M400.575 108.855C399.376 113.432 396.869 125.309 398.94 144.05H420.195C420.74 140.455 420.086 123.129 425.1 106.349C425.1 106.349 421.176 105.586 417.361 105.368C414.418 105.259 410.167 105.15 407.442 105.368C405.807 105.477 404.39 105.804 403.3 106.131C401.992 106.458 400.902 107.548 400.575 108.855Z" fill="#263238"/>
<path opacity="0.2" d="M419.541 110.49C418.887 113.214 419.105 119.86 421.067 127.488C421.612 121.604 422.593 114.739 424.446 107.983C423.029 107.874 420.195 107.874 419.541 110.49Z" fill="black"/>
<path d="M416.925 96.1063C416.053 99.2663 415.29 103.189 417.361 105.368C417.361 105.368 415.835 108.637 409.84 108.637C404.39 108.637 407.442 105.368 407.442 105.368C411.039 104.497 411.257 100.138 410.93 97.6318L416.925 96.1063Z" fill="#FFC3BD"/>
<path d="M409.84 108.637C410.821 110.272 410.712 111.688 410.712 111.688C410.712 111.688 418.342 109.073 418.342 105.259C418.342 105.259 417.361 104.605 416.707 104.17C416.707 104.061 416.162 107.112 409.84 108.637Z" fill="white"/>
<path d="M409.622 108.637C408.423 110.272 408.096 111.47 408.096 111.47C408.096 111.47 404.935 109.182 406.352 105.477C406.352 105.477 407.333 105.041 408.314 104.823C408.314 104.823 407.333 107.765 409.622 108.637Z" fill="white"/>
<path opacity="0.2" d="M410.93 97.6317C411.148 99.0483 411.148 101.228 410.385 102.862C410.93 102.753 411.475 102.644 412.02 102.426C414.091 101.445 415.181 100.029 416.489 97.8497C416.598 97.3049 416.816 96.76 416.925 96.2152L410.93 97.6317Z" fill="black"/>
<path d="M405.698 94.6898C406.025 95.7794 406.897 96.5422 407.66 96.8691C408.968 97.4139 409.84 96.2153 409.731 94.9077C409.622 93.7091 408.859 91.9657 407.442 91.9657C406.134 92.0747 405.371 93.4912 405.698 94.6898Z" fill="#FFC3BD"/>
<path opacity="0.2" d="M405.698 94.6898C406.025 95.7794 406.897 96.5422 407.66 96.8691C408.968 97.4139 409.84 96.2153 409.731 94.9077C409.622 93.7091 408.859 91.9657 407.442 91.9657C406.134 92.0747 405.371 93.4912 405.698 94.6898Z" fill="black"/>
<path d="M411.475 85.8637C411.039 83.3575 407.333 87.716 408.096 90.1132C408.859 92.5105 411.911 88.6967 411.475 85.8637Z" fill="#263238"/>
<path d="M419.432 92.1836C418.015 96.4332 417.47 98.9394 414.854 100.683C410.821 103.407 406.243 100.574 406.352 96.1063C406.461 92.0747 408.641 85.8637 413.219 84.883C417.579 84.1203 420.74 88.043 419.432 92.1836Z" fill="#FFC3BD"/>
<path d="M418.124 89.6774C413.546 89.0236 406.897 88.1519 409.295 84.4471C411.584 80.8513 420.631 81.5051 417.906 83.1396C421.503 83.3575 425.972 85.1009 422.593 86.1905C425.318 88.1519 424.228 93.3822 418.996 95.2346C417.579 93.0553 416.38 92.0746 418.124 89.6774Z" fill="#263238"/>
<path d="M420.086 97.1959C419.214 98.0677 418.124 98.5035 417.143 98.5035C415.726 98.6125 415.399 97.1959 416.162 95.9973C416.816 94.9077 418.451 93.6001 419.65 94.145C420.958 94.6898 421.067 96.2153 420.086 97.1959Z" fill="#FFC3BD"/>
<path d="M412.783 92.2926C412.674 92.6195 412.456 92.8374 412.238 92.8374C412.02 92.8374 411.911 92.5105 412.02 92.1836C412.129 91.8567 412.347 91.6388 412.565 91.6388C412.783 91.6388 412.892 91.9657 412.783 92.2926Z" fill="#263238"/>
<path d="M408.968 91.6388C408.859 91.9657 408.641 92.1836 408.423 92.1836C408.205 92.1836 408.096 91.8567 408.205 91.5298C408.314 91.2029 408.532 90.985 408.75 90.985C408.968 90.985 409.077 91.3119 408.968 91.6388Z" fill="#263238"/>
<path d="M410.167 92.0746C410.167 92.0746 408.859 93.927 407.769 94.7987C408.205 95.4525 409.295 95.3435 409.295 95.3435L410.167 92.0746Z" fill="#ED847E"/>
<path d="M410.058 96.4331C409.949 96.4331 409.949 96.3242 409.949 96.3242C409.949 96.2152 410.058 96.2152 410.058 96.2152C411.584 96.4331 412.565 95.5614 412.565 95.5614H412.674V95.6704C412.674 95.6704 411.584 96.76 410.058 96.4331Z" fill="#263238"/>
<path d="M414.309 91.2029C414.2 91.2029 414.2 91.2029 414.2 91.0939C413.873 90.2222 413.11 90.2222 413.11 90.2222C413.001 90.2222 412.892 90.1133 413.001 90.0043C413.001 89.8953 413.11 89.7864 413.219 89.7864C413.219 89.7864 414.2 89.8953 414.636 90.876C414.636 90.985 414.636 91.0939 414.527 91.2029C414.418 91.2029 414.309 91.2029 414.309 91.2029Z" fill="#263238"/>
<path d="M407.66 89.8953C407.551 89.8953 407.551 89.8953 407.66 89.8953C407.551 89.7863 407.551 89.6773 407.551 89.5684C408.314 88.6967 409.295 88.8056 409.295 88.8056C409.404 88.8056 409.513 88.9146 409.404 89.0236C409.404 89.1325 409.295 89.2415 409.186 89.2415C409.186 89.2415 408.423 89.1325 407.769 89.8953C407.769 89.8953 407.66 90.0042 407.66 89.8953Z" fill="#263238"/>
<path d="M426.844 112.233L421.067 115.284C421.067 115.284 426.626 129.013 425.645 131.084C424.337 133.917 422.157 140.128 420.086 143.179C420.195 143.832 421.067 145.576 421.612 145.903C426.19 143.07 431.967 133.699 432.185 130.975C432.839 124.655 426.844 112.233 426.844 112.233Z" fill="#FFC3BD"/>
<path d="M424.991 106.349C429.024 107.112 431.967 121.386 431.967 121.386L422.048 124.219C422.048 124.219 419.868 119.098 418.56 114.085C417.252 108.746 420.74 105.586 424.991 106.349Z" fill="#263238"/>
<path d="M422.266 142.525L418.124 142.198L419.868 146.774C419.868 146.774 423.465 146.883 424.337 144.159L422.266 142.525Z" fill="#FFC3BD"/>
<path d="M414.636 144.377L416.489 148.409L419.977 146.883L418.124 142.307L414.636 144.377Z" fill="#FFC3BD"/>
<path d="M423.94 290.336C437.835 276.913 438.927 255.506 426.377 242.524C413.827 229.541 392.389 229.899 378.493 243.323C364.597 256.747 363.506 278.153 376.056 291.135C388.605 304.118 410.044 303.76 423.94 290.336Z" fill="#0ec2f3"/>
<path d="M401.229 297.799C419.529 297.799 434.365 283.944 434.365 266.853C434.365 249.762 419.529 235.907 401.229 235.907C382.928 235.907 368.093 249.762 368.093 266.853C368.093 283.944 382.928 297.799 401.229 297.799Z" fill="white"/>
<path d="M390.002 278.294L384.116 276.333C384.116 276.333 377.685 290.498 375.614 291.37C372.78 292.459 366.894 295.51 363.297 296.273C362.861 296.818 362.207 298.67 362.316 299.324C367.33 300.632 377.794 297.799 379.974 295.946C384.77 291.806 390.002 278.294 390.002 278.294Z" fill="#FFB573"/>
<path d="M395.234 269.686C396.215 273.609 387.386 284.941 387.386 284.941L380.301 280.473C380.301 280.473 382.154 274.262 385.642 269.904C388.585 266.09 394.144 265.327 395.234 269.686Z" fill="#0ec2f3"/>
<path opacity="0.3" d="M395.234 269.686C396.215 273.609 387.386 284.941 387.386 284.941L380.301 280.473C380.301 280.473 382.154 274.262 385.642 269.904C388.585 266.09 394.144 265.327 395.234 269.686Z" fill="black"/>
<path opacity="0.2" d="M389.675 274.589C390.329 277.313 389.784 281.672 387.931 285.486C386.405 283.089 384.552 277.422 389.675 274.589Z" fill="black"/>
<path d="M389.566 269.141C388.367 273.718 385.86 285.595 387.931 304.337H409.186C409.731 300.741 409.077 283.416 414.091 266.635C414.091 266.635 410.167 265.872 406.352 265.654C403.409 265.545 399.158 265.436 396.433 265.654C394.798 265.763 393.381 266.09 392.291 266.417C390.983 266.744 389.893 267.834 389.566 269.141Z" fill="#0ec2f3"/>
<path opacity="0.3" d="M389.566 269.141C388.367 273.718 385.86 285.595 387.931 304.337H409.186C409.731 300.741 409.077 283.416 414.091 266.635C414.091 266.635 410.167 265.872 406.352 265.654C403.409 265.545 399.158 265.436 396.433 265.654C394.798 265.763 393.381 266.09 392.291 266.417C390.983 266.744 389.893 267.834 389.566 269.141Z" fill="black"/>
<path opacity="0.2" d="M408.641 274.263C407.987 276.987 407.442 283.633 410.058 287.665C410.603 281.781 411.584 274.916 413.437 268.161C412.02 268.052 409.295 271.756 408.641 274.263Z" fill="black"/>
<g opacity="0.95">
<path opacity="0.95" d="M398.613 274.154L397.414 274.698L396.542 273.936C393.599 271.212 393.599 268.052 394.253 265.981C394.907 265.872 395.67 265.763 396.433 265.654C399.049 265.436 403.3 265.545 406.352 265.654C407.115 265.654 407.878 265.763 408.641 265.872L407.878 266.853C407.66 266.962 403.845 271.865 398.613 274.154Z" fill="white"/>
</g>
<path d="M405.916 256.392C405.044 259.552 404.281 263.475 406.352 265.654C406.352 265.654 402.755 270.34 397.959 272.41C394.362 269.141 396.542 265.654 396.542 265.654C400.139 264.783 400.357 260.424 400.03 257.918L405.916 256.392Z" fill="#FFB573"/>
<path opacity="0.2" d="M399.921 257.918C400.139 259.334 400.139 261.514 399.376 263.148C399.921 263.039 400.466 262.93 401.011 262.712C403.082 261.732 404.172 260.315 405.48 258.136C405.589 257.591 405.807 257.046 405.916 256.501L399.921 257.918Z" fill="black"/>
<path d="M394.798 254.976C395.125 256.065 395.997 256.828 396.76 257.155C398.068 257.7 398.94 256.501 398.831 255.194C398.722 253.995 397.959 252.252 396.542 252.252C395.234 252.361 394.362 253.777 394.798 254.976Z" fill="#FFB573"/>
<path opacity="0.2" d="M394.798 254.976C395.125 256.065 395.997 256.828 396.76 257.155C398.068 257.7 398.94 256.501 398.831 255.194C398.722 253.995 397.959 252.252 396.542 252.252C395.234 252.361 394.362 253.777 394.798 254.976Z" fill="black"/>
<path d="M399.812 247.566C399.376 244.733 396.215 248.002 395.888 250.072C395.561 252.143 397.305 254.213 398.504 252.143C399.594 250.072 400.03 249.092 399.812 247.566Z" fill="#263238"/>
<path d="M408.423 252.47C407.006 256.719 406.461 259.225 403.845 260.969C399.812 263.693 395.234 260.86 395.343 256.392C395.452 252.361 397.632 246.15 402.21 245.169C406.57 244.297 409.84 248.22 408.423 252.47Z" fill="#FFB573"/>
<path d="M406.352 256.828C404.717 255.739 404.39 255.303 405.262 254.322C406.679 252.688 404.608 252.47 405.698 250.508C407.224 247.784 402.319 249.746 402.21 247.675C402.101 246.041 397.85 248.983 397.414 247.13C396.76 244.297 400.902 244.842 401.665 243.426C402.428 242.009 406.57 241.9 407.333 243.862C407.987 245.823 410.167 244.297 411.475 246.695C412.892 249.092 409.949 249.31 411.366 251.707C412.456 253.559 410.385 254.976 408.859 256.501C407.878 257.591 407.333 257.591 406.352 256.828Z" fill="#263238"/>
<path d="M409.404 256.937C408.641 257.918 407.551 258.463 406.57 258.572C405.153 258.79 404.717 257.482 405.371 256.174C406.025 255.085 407.442 253.559 408.75 253.995C410.058 254.322 410.276 255.848 409.404 256.937Z" fill="#FFB573"/>
<path d="M401.774 252.579C401.665 252.905 401.447 253.123 401.229 253.123C401.011 253.123 400.902 252.797 401.011 252.47C401.12 252.143 401.338 251.925 401.556 251.925C401.774 251.925 401.883 252.143 401.774 252.579Z" fill="#263238"/>
<path d="M397.959 251.816C397.85 252.143 397.632 252.361 397.414 252.361C397.196 252.361 397.087 252.034 397.196 251.707C397.305 251.38 397.523 251.162 397.741 251.162C397.959 251.162 398.068 251.489 397.959 251.816Z" fill="#263238"/>
<path d="M399.158 252.252C399.158 252.252 397.85 254.104 396.76 254.976C397.196 255.63 398.286 255.521 398.286 255.521L399.158 252.252Z" fill="#ED893E"/>
<path d="M399.049 256.61C398.94 256.61 398.94 256.501 398.94 256.501C398.94 256.392 399.049 256.392 399.049 256.392C400.575 256.61 401.556 255.739 401.556 255.739H401.665V255.847C401.665 255.956 400.684 256.937 399.049 256.61Z" fill="#263238"/>
<path d="M403.3 251.489C403.191 251.489 403.191 251.489 403.191 251.38C402.864 250.508 402.101 250.508 402.101 250.508C401.992 250.508 401.883 250.399 401.992 250.29C401.992 250.181 402.101 250.073 402.21 250.073C402.21 250.073 403.191 250.181 403.627 251.162C403.627 251.271 403.627 251.38 403.518 251.489C403.409 251.489 403.3 251.489 403.3 251.489Z" fill="#263238"/>
<path d="M396.651 250.181C396.651 250.181 396.542 250.181 396.651 250.181C396.542 250.072 396.542 249.963 396.542 249.855C397.305 248.983 398.286 249.092 398.286 249.092C398.395 249.092 398.504 249.201 398.395 249.31C398.395 249.419 398.286 249.528 398.177 249.528C398.177 249.528 397.414 249.419 396.76 250.181C396.76 250.181 396.76 250.181 396.651 250.181Z" fill="#263238"/>
<path d="M416.38 272.955L410.276 275.243C410.276 275.243 413.982 289.735 412.783 291.588C411.148 294.203 408.205 300.196 405.807 302.92C405.807 303.683 406.461 305.426 407.006 305.753C411.911 303.574 418.669 294.857 419.323 292.133C420.631 286.139 416.38 272.955 416.38 272.955Z" fill="#FFB573"/>
<path d="M415.29 266.853C419.105 268.052 420.195 282.871 420.195 282.871L410.058 284.396C410.058 284.396 408.532 279.057 407.987 273.718C407.333 268.269 411.148 265.545 415.29 266.853Z" fill="#0ec2f3"/>
<path opacity="0.3" d="M415.29 266.853C419.105 268.052 420.195 282.871 420.195 282.871L410.058 284.396C410.058 284.396 408.532 279.057 407.987 273.718C407.333 268.269 411.148 265.545 415.29 266.853Z" fill="black"/>
<path d="M407.878 302.702L403.845 301.83L405.044 306.625C405.044 306.625 408.532 307.278 409.731 304.554L407.878 302.702Z" fill="#FFB573"/>
<path d="M400.139 303.574L401.447 307.823L405.044 306.734L403.845 301.939L400.139 303.574Z" fill="#FFB573"/>
<path d="M328.602 210.281C342.498 196.858 343.589 175.451 331.04 162.469C318.49 149.486 297.052 149.844 283.156 163.268C269.26 176.692 268.169 198.098 280.718 211.08C293.268 224.063 314.706 223.705 328.602 210.281Z" fill="#0ec2f3"/>
<path d="M305.854 217.71C324.154 217.71 338.99 203.855 338.99 186.764C338.99 169.673 324.154 155.818 305.854 155.818C287.553 155.818 272.718 169.673 272.718 186.764C272.718 203.855 287.553 217.71 305.854 217.71Z" fill="white"/>
<path d="M319.261 194.283C319.479 196.898 319.588 199.513 319.697 202.128L320.024 209.865V210.845L320.133 211.717C320.242 212.262 320.242 212.916 320.351 213.46C320.569 214.659 320.896 215.858 321.223 217.056C321.877 219.454 322.64 221.96 323.403 224.466L321.114 225.556C319.697 223.267 318.607 220.87 317.517 218.364C316.972 217.165 316.536 215.858 316.1 214.55C315.882 213.896 315.664 213.243 315.555 212.48L315.337 211.39L315.228 210.41C314.683 205.179 314.247 199.949 314.029 194.719L319.261 194.283Z" fill="#FF8B7B"/>
<path d="M318.062 188.617C320.024 189.162 320.896 197.443 320.896 197.443L312.83 202.673C312.83 202.673 310.323 192.757 312.067 190.578C313.811 188.29 315.119 187.854 318.062 188.617Z" fill="#0ec2f3"/>
<path opacity="0.2" d="M317.735 190.469L318.716 198.859L315.446 200.93L317.735 190.469Z" fill="black"/>
<path d="M323.512 223.812L325.801 228.389L321.55 228.497C321.55 228.497 320.351 225.229 321.659 223.594L323.512 223.812Z" fill="#FFB573"/>
<path d="M295.935 167.042C292.556 167.478 285.362 183.822 297.025 191.45C308.688 199.077 317.299 190.469 317.299 190.469C317.299 190.469 310.214 182.079 311.195 176.522C312.176 171.073 316.645 164.1 307.598 161.812C301.167 160.177 292.556 161.703 295.935 167.042Z" fill="#263238"/>
<path d="M325.91 230.786L322.204 230.459L321.441 228.607L325.692 228.498L325.91 230.786Z" fill="#FFB573"/>
<path d="M318.062 188.617C318.062 188.617 320.351 189.488 313.702 218.255C305.745 218.255 297.57 218.255 293.755 218.255C294.627 210.083 294.954 205.07 292.229 188.399C292.229 188.399 296.48 187.527 300.84 187.309C304.219 187.2 306.944 187.091 309.887 187.309C313.702 187.636 318.062 188.617 318.062 188.617Z" fill="#0ec2f3"/>
<path opacity="0.2" d="M293.428 195.046C295.172 195.481 296.698 197.443 296.262 201.148C296.044 203.327 294.845 204.961 294.3 205.724C294.191 202.891 293.864 199.731 293.319 195.481L293.428 195.046Z" fill="black"/>
<path d="M308.361 193.738C308.361 193.738 304.873 196.462 304.655 199.295C302.039 197.334 298.769 191.886 298.66 188.399C298.66 187.854 299.096 187.309 299.75 187.309C300.077 187.309 300.295 187.2 300.513 187.2C300.731 187.2 300.949 187.2 301.058 187.309L308.361 193.738Z" fill="#FAFAFA"/>
<path d="M308.361 193.738C308.361 193.738 311.195 195.263 311.522 199.077C314.465 197.007 313.375 191.014 312.067 188.072C311.849 187.636 311.413 187.309 310.868 187.2C310.432 187.2 310.214 187.091 309.996 187.091C309.887 187.091 309.669 187.2 309.669 187.309L308.361 193.738Z" fill="#FAFAFA"/>
<path d="M302.366 177.067C302.693 180.009 302.911 185.348 300.731 187.309C300.731 187.309 303.129 190.905 308.361 193.738C312.612 190.469 309.887 187.309 309.887 187.309C306.726 186.546 306.944 184.149 307.707 181.861L302.366 177.067Z" fill="#FF8B7B"/>
<path opacity="0.2" d="M304.546 179.028L307.598 181.861C307.38 182.406 307.271 182.951 307.162 183.495C305.963 183.277 304.001 182.297 303.892 180.88C303.892 180.226 304.328 179.355 304.546 179.028Z" fill="black"/>
<path d="M297.788 172.381C298.769 177.066 299.096 179.137 301.93 180.989C306.181 183.822 311.849 181.207 312.285 176.195C312.612 171.727 310.868 164.754 305.854 163.882C300.949 163.119 296.807 167.696 297.788 172.381Z" fill="#FF8B7B"/>
<path d="M299.096 176.631C302.148 173.798 302.257 170.202 301.494 169.112C304.11 168.894 310.759 167.26 309.778 164.754C308.688 162.247 298.224 160.94 296.807 167.26C293.319 170.202 295.499 175.977 299.096 176.631Z" fill="#263238"/>
<path d="M305.745 171.945C305.854 172.381 306.072 172.599 306.29 172.49C306.508 172.381 306.726 172.054 306.617 171.727C306.508 171.291 306.29 171.073 306.072 171.182C305.745 171.291 305.636 171.618 305.745 171.945Z" fill="#263238"/>
<path d="M310.105 170.964C310.214 171.4 310.432 171.618 310.65 171.509C310.868 171.4 311.086 171.073 310.977 170.747C310.868 170.311 310.65 170.093 310.432 170.202C310.214 170.311 310.105 170.638 310.105 170.964Z" fill="#263238"/>
<path d="M310.432 170.311L311.304 169.875C311.304 169.766 310.868 170.638 310.432 170.311Z" fill="#263238"/>
<path d="M308.906 172.054C308.906 172.054 309.778 173.58 310.65 174.233C310.214 174.778 309.342 174.778 309.342 174.778L308.906 172.054Z" fill="#FF5652"/>
<path d="M307.38 176.74C307.598 176.74 307.707 176.74 307.925 176.631C308.034 176.631 308.034 176.522 308.034 176.522C308.034 176.413 307.925 176.413 307.925 176.413C306.181 176.74 305.2 175.759 305.2 175.759C305.2 175.759 305.091 175.759 304.982 175.759C304.982 175.759 304.982 175.868 304.982 175.977C305.091 175.977 305.854 176.849 307.38 176.74Z" fill="#263238"/>
<path d="M297.134 177.067C297.679 177.938 298.551 178.374 299.314 178.592C300.513 178.81 301.058 177.72 300.731 176.631C300.404 175.65 299.423 174.342 298.224 174.56C297.025 174.778 296.589 176.086 297.134 177.067Z" fill="#FF8B7B"/>
<path d="M303.565 171.182C303.674 171.182 303.783 171.074 303.783 170.965C304.001 169.875 305.309 169.33 305.309 169.33C305.418 169.33 305.527 169.112 305.418 169.003C305.418 168.894 305.2 168.785 305.091 168.894C304.982 168.894 303.565 169.548 303.238 170.856C303.347 170.965 303.456 171.074 303.565 171.182Z" fill="#263238"/>
<path d="M311.195 167.914C311.304 167.914 311.304 167.914 311.413 167.805C311.522 167.696 311.522 167.587 311.413 167.478C310.432 166.715 309.342 167.151 309.342 167.151C309.233 167.151 309.124 167.369 309.233 167.478C309.233 167.587 309.451 167.696 309.56 167.587C309.56 167.587 310.432 167.26 311.195 167.805C311.086 167.914 311.195 167.914 311.195 167.914Z" fill="#263238"/>
<path d="M305.963 171.182L306.835 170.747C306.835 170.747 306.508 171.618 305.963 171.182Z" fill="#263238"/>
<path d="M293.537 217.056L292.883 218.8C292.774 218.909 292.992 219.127 293.21 219.127H313.811C314.029 219.127 314.138 219.018 314.138 218.909L314.465 217.165C314.465 217.056 314.356 216.947 314.138 216.947H293.864C293.646 216.947 293.537 216.947 293.537 217.056Z" fill="#0ec2f3"/>
<path opacity="0.2" d="M293.537 217.056L292.883 218.8C292.774 218.909 292.992 219.127 293.21 219.127H313.811C314.029 219.127 314.138 219.018 314.138 218.909L314.465 217.165C314.465 217.056 314.356 216.947 314.138 216.947H293.864C293.646 216.947 293.537 216.947 293.537 217.056Z" fill="white"/>
<path d="M296.153 219.345H295.608C295.499 219.345 295.39 219.236 295.39 219.236L295.826 216.947C295.826 216.838 295.935 216.838 296.044 216.838H296.589C296.698 216.838 296.807 216.947 296.807 216.947L296.371 219.236C296.371 219.236 296.262 219.345 296.153 219.345Z" fill="#0ec2f3"/>
<path opacity="0.4" d="M296.153 219.345H295.608C295.499 219.345 295.39 219.236 295.39 219.236L295.826 216.947C295.826 216.838 295.935 216.838 296.044 216.838H296.589C296.698 216.838 296.807 216.947 296.807 216.947L296.371 219.236C296.371 219.236 296.262 219.345 296.153 219.345Z" fill="black"/>
<path d="M312.176 219.345H311.631C311.522 219.345 311.413 219.236 311.413 219.236L311.849 216.947C311.849 216.838 311.958 216.838 312.067 216.838H312.612C312.721 216.838 312.83 216.947 312.83 216.947L312.394 219.236C312.394 219.236 312.285 219.345 312.176 219.345Z" fill="#0ec2f3"/>
<path opacity="0.4" d="M312.176 219.345H311.631C311.522 219.345 311.413 219.236 311.413 219.236L311.849 216.947C311.849 216.838 311.958 216.838 312.067 216.838H312.612C312.721 216.838 312.83 216.947 312.83 216.947L312.394 219.236C312.394 219.236 312.285 219.345 312.176 219.345Z" fill="black"/>
<path d="M304.219 219.345H303.674C303.565 219.345 303.456 219.236 303.456 219.236L303.892 216.947C303.892 216.838 304.001 216.838 304.11 216.838H304.655C304.764 216.838 304.873 216.947 304.873 216.947L304.437 219.236C304.437 219.236 304.328 219.345 304.219 219.345Z" fill="#0ec2f3"/>
<path opacity="0.4" d="M304.219 219.345H303.674C303.565 219.345 303.456 219.236 303.456 219.236L303.892 216.947C303.892 216.838 304.001 216.838 304.11 216.838H304.655C304.764 216.838 304.873 216.947 304.873 216.947L304.437 219.236C304.437 219.236 304.328 219.345 304.219 219.345Z" fill="black"/>
<path d="M305.418 222.287L310.432 220.107L308.688 224.902C308.688 224.902 305.527 225.556 304.328 224.03L305.418 222.287Z" fill="#FFB573"/>
<path d="M294.409 195.046C293.864 198.423 293.21 201.692 292.556 204.961C292.229 206.596 291.902 208.23 291.575 209.974L291.03 212.48L290.812 213.569C290.812 213.678 290.812 213.678 290.812 213.787C290.921 214.005 291.139 214.55 291.684 214.986C292.12 215.422 292.774 215.858 293.319 216.294C294.627 217.165 296.044 217.819 297.461 218.582C298.878 219.236 300.513 219.889 302.039 220.434C303.565 221.088 305.2 221.524 306.726 222.069L306.181 224.466C302.802 223.921 299.423 223.049 296.153 221.96C294.518 221.415 292.883 220.652 291.248 219.78C290.485 219.345 289.613 218.8 288.85 218.146C288.087 217.492 287.215 216.62 286.67 215.313C286.452 214.659 286.234 213.896 286.343 213.025C286.343 212.589 286.452 212.48 286.452 212.262L286.561 211.608L286.997 209.102C287.215 207.467 287.542 205.724 287.76 204.09C288.305 200.712 288.85 197.443 289.504 194.174L294.409 195.046Z" fill="#FF8B7B"/>
<path d="M292.229 188.399C290.158 189.053 287.324 195.917 287.324 195.917L293.864 203.109C293.864 203.109 298.006 195.699 297.352 193.084C296.589 190.469 294.518 187.745 292.229 188.399Z" fill="#0ec2f3"/>
<path d="M314.356 221.088L312.721 225.011L308.688 224.902L310.432 220.107L314.356 221.088Z" fill="#FFB573"/>
<path opacity="0.3" d="M280.457 103.407H358.61C360.136 103.407 361.335 102.208 361.444 100.683C361.553 99.1573 360.463 97.9587 358.937 97.9587H280.784C279.258 97.9587 278.059 99.1573 277.95 100.683C277.841 102.208 279.04 103.407 280.457 103.407Z" fill="#0ec2f3"/>
<path opacity="0.3" d="M302.039 115.175H357.738C359.264 115.175 360.463 113.976 360.572 112.451C360.681 110.925 359.591 109.727 358.065 109.727H302.366C300.84 109.727 299.641 110.925 299.532 112.451C299.423 113.976 300.622 115.175 302.039 115.175Z" fill="#0ec2f3"/>
<path d="M315.119 91.6388H359.482C361.008 91.6388 362.207 90.4402 362.316 88.9147C362.425 87.3892 361.335 86.1906 359.809 86.1906H315.446C313.92 86.1906 312.721 87.3892 312.612 88.9147C312.503 90.3312 313.593 91.6388 315.119 91.6388Z" fill="white"/>
<path opacity="0.3" d="M315.119 276.006H346.729C348.255 276.006 349.345 277.204 349.236 278.73C349.127 280.255 347.819 281.454 346.402 281.454H314.792C313.266 281.454 312.176 280.255 312.285 278.73C312.394 277.204 313.702 276.006 315.119 276.006Z" fill="#0ec2f3"/>
<path opacity="0.3" d="M272.391 276.006H304.001C305.527 276.006 306.617 277.204 306.508 278.73C306.399 280.255 305.091 281.454 303.674 281.454H272.064C270.538 281.454 269.448 280.255 269.557 278.73C269.557 277.204 270.865 276.006 272.391 276.006Z" fill="#0ec2f3"/>
<path opacity="0.3" d="M291.902 264.129H347.601C349.127 264.129 350.217 265.327 350.108 266.853C349.999 268.378 348.691 269.577 347.274 269.577H291.575C290.049 269.577 288.959 268.378 289.068 266.853C289.068 265.327 290.376 264.129 291.902 264.129Z" fill="#0ec2f3"/>
<path d="M284.49 252.361H348.364C349.89 252.361 350.98 253.559 350.871 255.085C350.762 256.61 349.454 257.809 348.037 257.809H284.163C282.637 257.809 281.547 256.61 281.656 255.085C281.765 253.559 283.073 252.361 284.49 252.361Z" fill="white"/>
<path opacity="0.3" d="M417.252 195.917H359.046C357.52 195.917 356.321 197.116 356.212 198.641C356.103 200.167 357.193 201.366 358.719 201.366H416.925C418.451 201.366 419.65 200.167 419.759 198.641C419.868 197.116 418.778 195.917 417.252 195.917Z" fill="#0ec2f3"/>
<path opacity="0.3" d="M387.277 184.04H359.809C358.283 184.04 357.084 185.239 356.975 186.764C356.866 188.29 357.956 189.488 359.482 189.488H386.95C388.476 189.488 389.675 188.29 389.784 186.764C389.893 185.239 388.803 184.04 387.277 184.04Z" fill="#0ec2f3"/>
<path d="M403.409 172.272H360.681C359.155 172.272 357.956 173.471 357.847 174.996C357.738 176.522 358.828 177.72 360.354 177.72H403.082C404.608 177.72 405.807 176.522 405.916 174.996C406.025 173.471 404.935 172.272 403.409 172.272Z" fill="white"/>
<path opacity="0.3" d="M437.962 184.04H398.94C397.414 184.04 396.215 185.239 396.106 186.764C395.997 188.29 397.087 189.488 398.613 189.488H437.635C439.161 189.488 440.36 188.29 440.469 186.764C440.578 185.239 439.488 184.04 437.962 184.04Z" fill="#0ec2f3"/>
<path opacity="0.3" d="M262.472 72.5701H291.684L290.158 46.7456L262.472 72.5701Z" fill="#0ec2f3"/>
<path d="M262.472 72.5701L293.755 68.8653L290.158 46.7456L262.472 72.5701Z" fill="#0ec2f3"/>
<path d="M144.752 149.281C143.771 151.46 142.79 153.857 141.918 156.254C141.046 158.652 140.065 160.94 139.302 163.337C137.558 168.023 136.141 172.817 135.051 177.502C134.942 178.047 134.833 178.701 134.724 179.246L134.615 180.118L134.506 180.771C134.397 181.534 134.397 182.624 134.397 183.713C134.506 185.893 134.942 188.399 135.378 190.796C136.359 195.699 137.558 200.712 138.757 205.724L133.198 208.012C130.473 203.327 128.184 198.423 126.222 193.193C125.241 190.578 124.478 187.854 123.933 184.912C123.606 183.386 123.497 181.861 123.497 180.009V179.355C123.497 179.137 123.497 179.028 123.497 178.81L123.606 177.72C123.715 176.958 123.715 176.304 123.824 175.541C124.587 169.875 126.004 164.536 127.639 159.305C128.511 156.69 129.383 154.184 130.364 151.569C131.345 149.063 132.326 146.557 133.634 144.05L144.752 149.281Z" fill="#7F3E3B"/>
<path d="M138.539 204.307L142.79 208.448L133.525 212.807C133.525 212.807 131.236 208.884 132.871 205.288L138.539 204.307Z" fill="#7F3E3B"/>
<path d="M146.169 214.659L138.321 217.819L133.525 212.698L142.79 208.448L146.169 214.659Z" fill="#7F3E3B"/>
<path d="M348.598 190.747C360.854 161.169 346.803 127.258 317.214 115.005C287.626 102.753 253.704 116.799 241.447 146.378C229.191 175.957 243.242 209.868 272.83 222.12C302.419 234.372 336.341 220.326 348.598 190.747Z" fill="#0ec2f3"/>
<path d="M295.063 223.485C325.403 223.485 349.999 198.898 349.999 168.567C349.999 138.237 325.403 113.649 295.063 113.649C264.723 113.649 240.127 138.237 240.127 168.567C240.127 198.898 264.723 223.485 295.063 223.485Z" fill="white"/>
<path d="M318.825 181.207C319.479 185.675 319.915 190.251 320.46 194.719L321.986 208.121L322.204 209.756L322.422 211.172L322.749 212.698L323.185 214.223C323.73 216.294 324.384 218.364 325.147 220.434C326.564 224.575 328.199 228.824 329.834 232.965L326.019 234.926C323.403 231.004 321.114 227.081 319.043 222.831C318.062 220.761 317.081 218.582 316.209 216.294L315.555 214.55L315.01 212.807C314.901 212.153 314.683 211.499 314.574 210.954L314.247 209.211C313.375 204.634 312.721 200.167 312.067 195.699C311.413 191.232 310.868 186.655 310.323 182.188L318.825 181.207Z" fill="#FF8B7B"/>
<path d="M316.209 171.727C319.697 172.599 322.095 186.873 322.095 186.873L308.797 195.917C308.797 195.917 303.347 178.919 305.963 175.105C308.797 171.182 311.086 170.42 316.209 171.727Z" fill="#0ec2f3"/>
<path opacity="0.2" d="M315.882 174.887L318.498 189.379L313.157 192.975L315.882 174.887Z" fill="black"/>
<path d="M329.616 232.202L333.976 240.157L326.564 240.375C326.564 240.375 324.057 234.708 326.128 231.875L329.616 232.202Z" fill="#FFB573"/>
<path d="M275.661 134.897C269.884 135.769 259.529 163.664 280.457 176.74C301.385 189.815 315.01 174.996 315.01 174.996C315.01 174.996 301.821 160.504 303.02 151.133C304.11 141.762 310.868 129.885 295.063 125.853C283.836 123.02 269.339 125.744 275.661 134.897Z" fill="#263238"/>
<path d="M334.521 244.079L328.199 243.643L326.673 240.375L333.976 240.157L334.521 244.079Z" fill="#FFB573"/>
<path d="M316.209 171.727C316.209 171.727 320.242 173.144 312.176 222.613C298.551 222.613 284.49 222.613 277.95 222.613C278.495 208.666 278.495 200.058 271.846 171.509C271.846 171.509 279.04 169.984 286.343 169.548C292.12 169.221 296.807 169.112 301.93 169.548C308.579 170.202 316.209 171.727 316.209 171.727Z" fill="#0ec2f3"/>
<path opacity="0.2" d="M274.68 182.842C277.732 183.604 280.675 186.982 280.348 193.193C280.13 196.898 278.386 199.731 277.514 201.039C276.969 196.244 276.097 190.687 274.571 183.604L274.68 182.842Z" fill="black"/>
<path d="M300.077 180.553C300.077 180.553 294.409 185.13 294.409 190.142C289.722 186.764 283.509 177.393 282.746 171.509C282.637 170.529 283.4 169.657 284.49 169.548C285.035 169.548 285.471 169.439 285.689 169.439C286.016 169.33 286.452 169.439 286.67 169.657L300.077 180.553Z" fill="#FAFAFA"/>
<path d="M300.077 180.553C300.077 180.553 305.2 183.168 306.181 189.706C310.868 186.219 308.47 175.868 305.854 170.856C305.418 170.093 304.655 169.548 303.783 169.439C303.129 169.33 302.584 169.221 302.257 169.221C302.039 169.221 301.712 169.33 301.712 169.657L300.077 180.553Z" fill="#FAFAFA"/>
<path d="M287.869 152.114C288.85 157.126 289.831 166.279 286.343 169.657C286.343 169.657 290.921 175.868 300.077 180.662C307.053 175.105 301.93 169.657 301.93 169.657C296.371 168.349 296.48 164.209 297.461 160.286L287.869 152.114Z" fill="#FF8B7B"/>
<path opacity="0.2" d="M291.793 155.383L297.461 160.177C297.243 161.049 297.025 162.029 297.025 162.901C294.845 162.574 291.575 160.831 291.03 158.434C290.812 157.453 291.575 155.928 291.793 155.383Z" fill="black"/>
<path d="M279.476 144.05C281.765 152.114 282.637 155.492 287.651 158.87C295.281 163.773 304.655 159.196 304.764 150.588C304.873 142.852 301.058 130.975 292.338 129.558C283.836 128.033 277.187 135.987 279.476 144.05Z" fill="#FF8B7B"/>
<path d="M282.31 151.242C287.106 146.339 286.888 140.237 285.471 138.275C289.94 137.948 301.167 135.115 299.096 130.866C296.916 126.616 278.822 124.219 277.187 135.224C271.519 140.237 275.988 150.152 282.31 151.242Z" fill="#263238"/>
<path d="M292.992 143.288C293.101 143.941 293.646 144.377 294.082 144.268C294.518 144.159 294.736 143.506 294.627 142.852C294.518 142.198 293.973 141.762 293.537 141.871C293.101 142.089 292.883 142.634 292.992 143.288Z" fill="#263238"/>
<path d="M300.513 141.653C300.622 142.307 301.167 142.743 301.603 142.634C302.039 142.525 302.257 141.871 302.148 141.217C302.039 140.564 301.494 140.128 301.058 140.237C300.622 140.346 300.295 140.999 300.513 141.653Z" fill="#263238"/>
<path d="M300.84 140.346L302.366 139.583C302.366 139.583 301.821 140.999 300.84 140.346Z" fill="#263238"/>
<path d="M298.442 143.397C298.442 143.397 300.186 146.012 301.712 147.101C301.058 148.082 299.423 148.082 299.423 148.082L298.442 143.397Z" fill="#FF5652"/>
<path d="M296.48 151.46C296.807 151.46 297.134 151.351 297.461 151.351C297.57 151.351 297.679 151.242 297.57 151.133C297.57 151.024 297.461 150.915 297.352 151.024C294.409 151.678 292.665 149.935 292.556 149.935C292.447 149.826 292.338 149.826 292.229 149.935C292.12 150.043 292.12 150.152 292.229 150.261C292.447 150.152 293.864 151.569 296.48 151.46Z" fill="#263238"/>
<path d="M278.931 152.114C279.912 153.53 281.438 154.402 282.855 154.729C284.926 155.165 285.798 153.203 285.035 151.242C284.381 149.499 282.419 147.319 280.457 147.755C278.495 148.191 277.841 150.37 278.931 152.114Z" fill="#FF8B7B"/>
<path d="M289.286 141.871C289.504 141.871 289.613 141.762 289.613 141.544C289.94 139.692 292.12 138.711 292.12 138.711C292.338 138.602 292.447 138.384 292.338 138.166C292.229 137.948 292.011 137.839 291.793 137.948C291.684 137.948 289.286 139.147 288.85 141.326C288.85 141.544 288.959 141.762 289.177 141.762C289.177 141.871 289.286 141.871 289.286 141.871Z" fill="#263238"/>
<path d="M301.93 136.314C302.039 136.314 302.148 136.205 302.257 136.096C302.366 135.878 302.366 135.66 302.148 135.551C300.295 134.353 298.551 135.006 298.551 135.115C298.333 135.224 298.224 135.442 298.333 135.66C298.442 135.878 298.66 135.987 298.878 135.878C298.987 135.878 300.295 135.333 301.712 136.314C301.821 136.314 301.93 136.314 301.93 136.314Z" fill="#263238"/>
<path d="M293.319 141.98L294.845 141.217C294.845 141.217 294.3 142.634 293.319 141.98Z" fill="#263238"/>
<path d="M277.405 220.652L276.533 223.703C276.424 223.921 276.642 224.139 277.078 224.139H312.285C312.612 224.139 312.83 224.03 312.83 223.812L313.157 220.761C313.157 220.543 312.939 220.325 312.612 220.325H277.95C277.623 220.325 277.405 220.434 277.405 220.652Z" fill="#0ec2f3"/>
<path opacity="0.2" d="M277.405 220.652L276.533 223.703C276.424 223.921 276.642 224.139 277.078 224.139H312.285C312.612 224.139 312.83 224.03 312.83 223.812L313.157 220.761C313.157 220.543 312.939 220.325 312.612 220.325H277.95C277.623 220.325 277.405 220.434 277.405 220.652Z" fill="white"/>
<path d="M282.092 224.466H281.22C281.002 224.466 280.893 224.357 280.893 224.248L281.329 220.216C281.329 220.107 281.547 219.998 281.656 219.998H282.637C282.855 219.998 282.964 220.107 282.964 220.216L282.528 224.248C282.528 224.357 282.31 224.466 282.092 224.466Z" fill="#0ec2f3"/>
<path opacity="0.4" d="M282.092 224.466H281.22C281.002 224.466 280.893 224.357 280.893 224.248L281.329 220.216C281.329 220.107 281.547 219.998 281.656 219.998H282.637C282.855 219.998 282.964 220.107 282.964 220.216L282.528 224.248C282.528 224.357 282.31 224.466 282.092 224.466Z" fill="black"/>
<path d="M309.669 224.466H308.688C308.47 224.466 308.361 224.357 308.361 224.248L308.797 220.216C308.797 220.107 309.015 219.998 309.124 219.998H310.105C310.323 219.998 310.432 220.107 310.432 220.216L309.996 224.248C309.996 224.357 309.887 224.466 309.669 224.466Z" fill="#0ec2f3"/>
<path opacity="0.4" d="M309.669 224.466H308.688C308.47 224.466 308.361 224.357 308.361 224.248L308.797 220.216C308.797 220.107 309.015 219.998 309.124 219.998H310.105C310.323 219.998 310.432 220.107 310.432 220.216L309.996 224.248C309.996 224.357 309.887 224.466 309.669 224.466Z" fill="black"/>
<path d="M295.935 224.466H294.954C294.736 224.466 294.627 224.357 294.627 224.248L295.063 220.216C295.063 220.107 295.281 219.998 295.39 219.998H296.371C296.589 219.998 296.698 220.107 296.698 220.216L296.262 224.248C296.262 224.357 296.153 224.466 295.935 224.466Z" fill="#0ec2f3"/>
<path opacity="0.4" d="M295.935 224.466H294.954C294.736 224.466 294.627 224.357 294.627 224.248L295.063 220.216C295.063 220.107 295.281 219.998 295.39 219.998H296.371C296.589 219.998 296.698 220.107 296.698 220.216L296.262 224.248C296.262 224.357 296.153 224.466 295.935 224.466Z" fill="black"/>
<path d="M298.442 229.478L306.726 225.773L304.328 234.055C304.328 234.055 299.096 235.253 296.698 232.638L298.442 229.478Z" fill="#FFB573"/>
<path d="M276.424 182.624C276.097 185.566 275.77 188.399 275.443 191.341L274.353 200.058C274.026 203 273.59 205.833 273.154 208.775L272.5 213.134L272.282 214.55C272.282 214.659 272.282 214.877 272.5 215.204C272.718 215.749 273.481 216.62 274.353 217.383C275.225 218.146 276.315 218.909 277.405 219.562C279.694 220.979 282.201 222.178 284.708 223.376C287.324 224.575 289.94 225.555 292.665 226.536C295.281 227.517 298.115 228.497 300.731 229.369L299.75 233.51C293.864 232.529 288.087 231.113 282.31 229.26C279.476 228.28 276.642 227.19 273.808 225.664C272.391 224.902 270.974 224.03 269.666 223.049C268.249 221.96 266.832 220.761 265.742 218.8C265.197 217.819 264.761 216.62 264.543 215.313C264.543 214.986 264.543 214.659 264.543 214.332C264.543 214.005 264.543 213.569 264.543 213.46L264.652 212.371L264.979 208.012C265.197 205.07 265.415 202.237 265.742 199.295L266.614 190.578C266.941 187.636 267.268 184.803 267.595 181.861L276.424 182.624Z" fill="#FF8B7B"/>
<path d="M271.846 171.509C268.467 172.599 264.325 184.367 264.325 184.367L276.315 196.68C276.315 196.68 282.528 183.931 281.002 179.573C279.476 174.996 275.77 170.311 271.846 171.509Z" fill="#0ec2f3"/>
<path d="M313.702 227.517L311.304 234.273L304.437 233.946L306.726 225.773L313.702 227.517Z" fill="#FFB573"/>
<path opacity="0.2" d="M242.525 182.733C234.677 153.748 251.899 123.892 280.893 116.156C309.887 108.31 339.753 125.526 347.492 154.511C355.34 183.495 338.118 213.351 309.124 221.088C280.239 228.933 250.373 211.717 242.525 182.733Z" fill="#0ec2f3"/>
<path opacity="0.2" d="M334.412 131.193L289.613 222.722C293.428 223.049 297.243 223.049 301.167 222.614L341.388 140.346C339.426 136.968 337.137 133.917 334.412 131.193ZM347.492 154.402C347.383 154.075 347.274 153.639 347.165 153.312L315.01 219.018C340.407 209.102 354.795 181.425 347.492 154.402ZM280.893 116.156C251.899 124.001 234.786 153.748 242.525 182.733C245.359 193.411 251.354 202.564 259.093 209.429L305.2 115.284C297.352 113.758 289.068 113.867 280.893 116.156Z" fill="white"/>
<path d="M233.914 162.683L232.824 162.574C233.042 160.722 233.26 158.87 233.587 157.017L234.677 157.235C234.35 158.978 234.023 160.831 233.914 162.683ZM235.985 151.678L234.895 151.351C236.312 146.557 238.274 141.871 240.781 137.404L241.762 137.948C239.364 142.307 237.402 146.883 235.985 151.678Z" fill="#0ec2f3"/>
<path d="M351.743 153.312C343.35 122.04 311.086 103.516 279.803 111.906C248.52 120.296 229.99 152.55 238.383 183.822C246.776 215.095 279.04 233.619 310.323 225.229C341.606 216.838 360.136 184.585 351.743 153.312ZM242.525 182.733C234.677 153.748 251.899 123.892 280.893 116.156C309.887 108.31 339.753 125.527 347.492 154.511C355.34 183.495 338.118 213.352 309.124 221.088C280.239 228.933 250.373 211.717 242.525 182.733Z" fill="#0ec2f3"/>
<path d="M243.397 191.777C243.397 194.283 242.743 194.61 242.089 194.719L240.127 195.263L236.203 196.353L228.246 198.423L212.441 202.455C201.868 205.07 191.295 207.685 180.613 210.191L148.785 217.819L132.871 221.633C127.53 222.94 122.298 224.139 117.066 225.664C114.777 226.318 112.488 225.011 111.834 222.831C111.18 220.543 112.488 218.255 114.668 217.601C114.668 217.601 114.777 217.601 114.886 217.601C120.227 216.293 125.35 214.659 130.582 213.134L146.278 208.448L177.67 198.968C188.134 195.808 198.598 192.757 209.062 189.706L224.867 185.239L232.715 183.059L236.639 181.97L238.601 181.425C239.255 181.207 239.909 181.098 241.217 183.277C242.743 185.893 243.397 188.835 243.397 191.777Z" fill="#0ec2f3"/>
<path d="M174.836 110.38C174.836 111.034 175.163 111.579 175.599 111.579C176.035 111.579 176.362 111.034 176.362 110.38C176.362 109.727 176.035 109.182 175.599 109.182C175.163 109.291 174.836 109.836 174.836 110.38Z" fill="#263238"/>
<path d="M175.163 111.579C175.163 111.579 176.58 115.284 178.215 117.136C177.125 118.226 175.163 117.681 175.163 117.681V111.579Z" fill="#630F0F"/>
<path d="M172.547 106.894C172.438 106.894 172.329 106.785 172.22 106.785C172.111 106.567 172.111 106.349 172.329 106.24C174.073 105.041 175.708 105.586 175.708 105.695C175.926 105.804 176.035 106.022 175.926 106.24C175.817 106.458 175.599 106.567 175.49 106.458C175.49 106.458 174.182 106.022 172.765 107.003C172.656 106.785 172.656 106.894 172.547 106.894Z" fill="#263238"/>
<path d="M154.017 114.63C154.562 120.95 154.671 132.391 150.202 136.205C150.202 136.205 151.183 142.634 162.083 143.615C173.964 144.704 168.405 137.839 168.405 137.839C162.083 135.551 162.737 130.43 164.263 125.744L154.017 114.63Z" fill="#7F3E3B"/>
<path d="M136.577 373.093C135.596 373.529 133.525 372.548 132.762 372.112C132.653 372.112 132.653 372.003 132.653 371.894C132.653 371.785 132.762 371.785 132.762 371.785C132.871 371.785 135.378 370.914 136.468 371.567C136.686 371.676 136.904 371.894 136.904 372.112C137.013 372.548 136.795 372.875 136.686 372.984C136.686 372.984 136.686 372.984 136.577 373.093ZM133.416 372.003C134.506 372.548 136.032 372.984 136.577 372.657C136.577 372.657 136.795 372.548 136.686 372.221C136.686 372.112 136.577 372.003 136.468 371.894C135.814 371.458 134.288 371.785 133.416 372.003Z" fill="#0ec2f3"/>
<path d="M133.525 371.894C133.307 372.003 133.089 372.003 132.98 372.112C132.871 372.112 132.871 372.112 132.762 372.003C132.762 372.003 132.653 371.894 132.762 371.785C132.762 371.676 133.634 369.497 134.724 369.061C135.051 368.952 135.269 368.952 135.596 369.061C136.032 369.279 136.032 369.497 136.032 369.715C135.923 370.587 134.506 371.458 133.525 371.894ZM133.307 371.676C134.288 371.349 135.596 370.369 135.705 369.824C135.705 369.824 135.705 369.715 135.487 369.606C135.269 369.497 135.16 369.497 134.942 369.606C134.179 369.824 133.525 371.023 133.307 371.676Z" fill="#0ec2f3"/>
<path d="M186.172 385.951C185.191 385.951 184.21 385.842 183.665 385.733C183.556 385.733 183.556 385.624 183.556 385.624C183.556 385.515 183.556 385.515 183.665 385.406C183.774 385.297 186.608 383.771 187.916 384.098C188.243 384.207 188.352 384.316 188.57 384.534C188.788 384.97 188.679 385.188 188.57 385.406C188.134 385.733 187.153 385.951 186.172 385.951ZM184.319 385.406C185.845 385.624 187.807 385.624 188.243 385.079C188.243 384.97 188.352 384.861 188.243 384.643C188.134 384.534 188.025 384.425 187.916 384.425C186.935 384.207 185.3 384.861 184.319 385.406Z" fill="#0ec2f3"/>
<path d="M183.665 385.733H183.556C183.447 385.733 183.447 385.624 183.447 385.515C183.447 385.406 183.665 383.226 184.646 382.464C184.973 382.246 185.3 382.137 185.736 382.137C186.281 382.137 186.39 382.464 186.39 382.682C186.717 383.553 184.755 385.188 183.665 385.733C183.774 385.733 183.774 385.733 183.665 385.733ZM185.627 382.464C185.409 382.464 185.191 382.573 184.973 382.682C184.319 383.226 183.992 384.534 183.883 385.188C184.864 384.643 186.172 383.226 186.063 382.682C186.063 382.682 186.063 382.464 185.736 382.464C185.736 382.464 185.736 382.464 185.627 382.464Z" fill="#0ec2f3"/>
<path d="M174.945 385.515H182.902L183.665 366.991H175.708L174.945 385.515Z" fill="#7F3E3B"/>
<path d="M123.933 370.151L131.781 371.676L140.61 354.46L132.762 353.043L123.933 370.151Z" fill="#7F3E3B"/>
<path d="M132.653 370.914L124.042 368.298C123.715 368.189 123.388 368.298 123.279 368.625L119.682 374.945C119.355 375.599 119.682 376.471 120.445 376.689C123.497 377.56 125.023 377.778 128.729 378.977C131.018 379.631 137.231 382.246 140.392 383.227C143.553 384.207 144.97 381.156 143.771 380.502C138.212 377.451 135.16 374.074 133.743 371.894C133.525 371.349 133.089 371.023 132.653 370.914Z" fill="#263238"/>
<path d="M182.902 384.534H174.182C173.855 384.534 173.528 384.752 173.528 385.079L171.893 392.162C171.675 392.924 172.329 393.578 173.092 393.578C176.253 393.578 180.831 393.36 184.755 393.36C189.442 393.36 193.366 393.578 198.816 393.578C202.086 393.578 203.067 390.309 201.65 389.982C195.437 388.566 190.314 388.457 184.864 385.079C184.21 384.861 183.556 384.534 182.902 384.534Z" fill="#263238"/>
<path d="M135.16 138.166C128.184 141.435 125.35 163.882 125.35 163.882L141.373 170.093C141.373 170.093 145.188 161.049 147.368 151.351C149.657 141.326 142.354 134.788 135.16 138.166Z" fill="#0ec2f3"/>
<path opacity="0.3" d="M135.16 138.166C128.184 141.435 125.35 163.882 125.35 163.882L141.373 170.093C141.373 170.093 145.188 161.049 147.368 151.351C149.657 141.326 142.354 134.788 135.16 138.166Z" fill="black"/>
<path opacity="0.2" d="M145.515 144.704C146.06 144.377 146.605 144.268 147.259 144.05C147.913 146.121 147.913 148.627 147.368 151.351C145.188 161.049 141.373 169.984 141.373 169.984L136.141 167.914C137.013 162.247 139.956 147.428 145.515 144.704Z" fill="black"/>
<path d="M181.485 138.057C181.485 138.057 189.987 147.646 181.921 207.25C169.059 207.25 145.406 207.25 139.084 207.25C138.757 200.712 142.899 168.567 136.577 137.622C136.577 137.622 143.88 136.096 150.965 135.769C156.415 135.551 164.372 135.333 169.168 135.769C175.49 136.423 181.485 138.057 181.485 138.057Z" fill="#0ec2f3"/>
<path opacity="0.3" d="M181.485 138.057C181.485 138.057 189.987 147.646 181.921 207.25C169.059 207.25 145.406 207.25 139.084 207.25C138.757 200.712 142.899 168.567 136.577 137.622C136.577 137.622 143.88 136.096 150.965 135.769C156.415 135.551 164.372 135.333 169.168 135.769C175.49 136.423 181.485 138.057 181.485 138.057Z" fill="black"/>
<path opacity="0.2" d="M172.874 150.806C174.836 145.031 179.523 143.179 184.21 146.557C185.191 152.223 185.845 161.267 185.082 175.759L176.689 175.65C176.798 175.65 170.04 159.414 172.874 150.806Z" fill="black"/>
<path d="M186.499 146.775C186.935 149.281 187.371 152.005 187.916 154.62C188.461 157.235 189.006 159.85 189.66 162.465C190.859 167.587 192.276 172.708 194.238 177.284C194.674 178.374 195.219 179.573 195.764 180.553L196.527 181.861C196.636 182.079 196.854 182.406 197.181 182.624C198.38 183.931 200.451 185.239 202.631 186.437C207.1 188.835 212.223 190.905 217.128 192.866L215.929 198.75C210.043 198.315 204.484 197.225 198.707 195.264C197.29 194.719 195.873 194.174 194.347 193.411C192.93 192.648 191.404 191.777 189.878 190.578C189.115 189.924 188.352 189.271 187.698 188.29L187.153 187.636L186.826 187.091C186.608 186.764 186.39 186.437 186.172 186.111C185.3 184.803 184.537 183.386 183.883 181.97C181.158 176.522 179.305 170.965 177.888 165.298C177.125 162.465 176.471 159.741 175.926 156.908C175.381 154.075 174.836 151.351 174.509 148.3L186.499 146.775Z" fill="#7F3E3B"/>
<path d="M170.803 143.832C168.514 151.133 177.67 172.926 177.67 172.926L196.963 168.022C196.963 168.022 195.219 157.017 191.077 147.973C184.755 134.462 173.528 135.115 170.803 143.832Z" fill="#0ec2f3"/>
<path opacity="0.3" d="M170.803 143.832C168.514 151.133 177.67 172.926 177.67 172.926L196.963 168.022C196.963 168.022 195.219 157.017 191.077 147.973C184.755 134.462 173.528 135.115 170.803 143.832Z" fill="black"/>
<path d="M217.128 192.866L225.412 196.571L217.346 203.218C217.346 203.218 213.858 202.019 213.204 196.244L212.005 191.45L215.602 192.322C216.147 192.539 216.583 192.648 217.128 192.866Z" fill="#7F3E3B"/>
<path d="M229.772 200.603L221.706 205.397L217.346 203.218L225.412 196.571L229.772 200.603Z" fill="#7F3E3B"/>
<path d="M172.874 135.115C169.386 132.173 160.993 130.103 151.619 129.558C146.278 129.231 140.719 130.103 138.43 131.193C136.141 132.173 138.866 139.583 141.809 139.801C140.174 142.307 142.572 147.101 145.951 148.082C145.406 152.223 155.979 152.659 162.301 149.281C167.424 146.557 177.016 138.602 172.874 135.115Z" fill="#263238"/>
<path opacity="0.2" d="M183.665 366.991L183.338 376.471H175.272L175.708 366.991H183.665Z" fill="black"/>
<path opacity="0.2" d="M132.762 353.043L140.61 354.46L136.032 363.395L128.184 361.87L132.762 353.043Z" fill="black"/>
<path d="M153.254 109.073C153.69 117.027 153.581 121.713 157.614 125.745C163.609 131.847 173.419 128.251 175.381 120.296C177.125 113.214 176.035 101.446 168.296 98.2856C160.557 95.1256 152.818 101.119 153.254 109.073Z" fill="#7F3E3B"/>
<path d="M168.187 113.432C171.13 110.381 176.144 103.843 174.4 98.8304C171.893 91.5298 164.263 94.036 165.462 95.4525C161.102 92.6194 152.273 92.4015 154.126 96.3242C146.169 97.4139 145.515 100.574 147.804 101.881C142.136 107.221 142.463 112.887 146.714 112.451C143.444 115.72 149.439 122.149 156.197 125.309C158.377 119.207 170.694 118.117 168.187 113.432Z" fill="#263238"/>
<path d="M164.699 116.265H164.59C164.481 116.156 164.481 116.047 164.481 115.938C166.225 113.432 167.86 111.361 169.386 109.618C172.22 106.24 174.291 103.734 174.4 100.356C174.509 97.6318 172.983 95.2345 170.149 94.0359C168.078 93.1642 165.898 93.0553 165.135 93.927C164.699 94.3628 164.59 95.0166 165.026 95.8883C165.135 95.9973 165.026 96.2152 164.917 96.2152C164.808 96.3242 164.59 96.2152 164.59 96.1063C164.045 94.6897 164.372 93.927 164.808 93.4911C165.789 92.5104 168.187 92.5104 170.476 93.4911C173.528 94.9077 175.272 97.4138 175.054 100.356C174.836 103.952 172.765 106.458 169.822 109.945C168.296 111.688 166.661 113.758 164.917 116.265C164.808 116.265 164.808 116.265 164.699 116.265Z" fill="#263238"/>
<path d="M165.026 112.56C165.135 114.63 166.116 116.591 167.315 117.899C169.059 119.86 170.912 118.662 171.239 116.265C171.566 114.194 170.912 110.598 168.841 109.509C166.661 108.528 164.917 110.163 165.026 112.56Z" fill="#7F3E3B"/>
<path d="M166.77 207.25C166.77 207.25 169.495 261.187 164.263 284.069C155.979 320.245 139.956 362.196 139.956 362.196L125.132 359.363C125.132 359.363 137.667 317.303 140.392 287.229C142.79 260.206 139.193 229.042 139.193 207.25C149.112 207.25 166.77 207.25 166.77 207.25Z" fill="#263238"/>
<path opacity="0.2" d="M162.737 223.158C163.827 221.088 165.898 227.299 167.424 235.362C167.424 246.477 167.206 259.116 166.225 269.795C158.922 256.065 160.448 227.517 162.737 223.158Z" fill="black"/>
<path d="M143.553 357.62C143.662 357.62 141.264 362.741 141.264 362.741L124.042 359.363L125.895 354.242L143.553 357.62Z" fill="#0ec2f3"/>
<path d="M182.03 207.25C182.03 207.25 194.129 258.354 194.892 282.762C195.873 310.112 186.281 374.727 186.281 374.727H172.765C172.765 374.727 171.13 309.676 170.476 284.723C169.822 257.591 153.908 207.25 153.908 207.25H182.03Z" fill="#263238"/>
<path d="M188.897 369.279C189.006 369.279 188.134 374.945 188.134 374.945H171.675L171.239 369.933L188.897 369.279Z" fill="#0ec2f3"/>
</svg>
