<svg width="560" height="517" viewBox="0 0 560 517" fill="none" xmlns="http://www.w3.org/2000/svg">
<path d="M424.91 467.016C424.91 467.016 527.567 410.138 538.156 295.258C548.745 180.379 456.783 54.2509 341.229 58.5015C225.675 62.7522 183.982 155.574 103.216 177.661C22.4496 199.748 -39.1294 288.982 29.8239 379.625C98.7771 470.268 295.495 535.346 424.91 467.016Z" fill="#F3F6FC"/>
<path d="M424.91 467.016C424.91 467.016 527.567 410.138 538.156 295.258C548.745 180.379 456.783 54.2509 341.229 58.5015C225.675 62.7522 183.982 155.574 103.216 177.661C22.4496 199.748 -39.1294 288.982 29.8239 379.625C98.7771 470.268 295.495 535.346 424.91 467.016Z" fill="#F3F6FC"/>
<path d="M409.646 0.210425C410.354 -0.250836 411.064 0.187696 411.774 0.203549C411.748 8.18174 411.701 16.1595 411.702 24.1375C411.703 30.3005 411.789 36.4634 411.793 42.6264C411.806 66.0265 411.817 89.4267 411.771 112.827C411.767 114.46 412.083 115.177 413.882 115.487C417.925 116.185 419.634 118.458 419.72 122.582C419.731 123.114 419.747 123.645 419.752 124.177C419.783 127.249 419.758 127.342 422.559 128.044C428.771 129.601 434.307 132.562 439.593 136.056C445.855 140.195 450.992 145.421 454.719 151.969C456.807 155.636 458.326 159.527 459.217 163.664C459.406 164.542 459.374 165.484 460.329 166.165C460.986 166.634 460.604 167.356 459.767 167.478C459.14 167.569 458.493 167.514 457.854 167.515C445.723 167.515 433.592 167.513 421.46 167.513C409.475 167.513 397.489 167.514 385.503 167.514C377.928 167.514 370.352 167.522 362.776 167.504C362.126 167.502 361.302 167.822 360.895 167.033C360.474 166.217 361.301 166.031 361.71 165.597C361.966 165.326 361.97 164.804 362.055 164.389C364.3 153.411 370.245 144.809 379.033 138.063C385.466 133.124 392.618 129.597 400.449 127.481C401.37 127.232 401.785 126.87 401.702 125.874C401.614 124.817 401.678 123.747 401.681 122.683C401.69 118.456 403.359 116.249 407.56 115.484C409.275 115.172 409.69 114.573 409.685 112.871C409.621 90.5243 409.61 68.177 409.666 45.8298C409.682 39.2766 409.788 32.7149 409.749 26.1694C409.698 17.5174 409.77 8.86265 409.646 0.210425ZM330.92 6.61689C331.305 6.36611 331.691 6.60447 332.076 6.61326C332.063 10.9506 332.037 15.288 332.038 19.6254C332.038 22.9761 332.085 26.3266 332.087 29.6773C332.094 42.3991 332.1 55.1209 332.075 67.8427C332.073 68.7307 332.245 69.1203 333.222 69.2892C335.421 69.6685 336.35 70.9042 336.396 73.1462C336.402 73.4353 336.411 73.7245 336.414 74.0137C336.431 75.6836 336.417 75.7344 337.94 76.116C341.318 76.9625 344.327 78.5721 347.201 80.4717C350.605 82.7217 353.398 85.5632 355.425 89.1232C356.56 91.117 357.386 93.2321 357.87 95.4813C357.973 95.959 357.955 96.4709 358.475 96.8412C358.832 97.096 358.624 97.4885 358.169 97.5548C357.829 97.6043 357.476 97.5749 357.129 97.5749C350.534 97.5751 343.938 97.5741 337.343 97.5741C330.827 97.5739 324.311 97.5743 317.795 97.5747C313.676 97.5749 309.557 97.5789 305.439 97.5691C305.085 97.5684 304.637 97.7422 304.416 97.3134C304.187 96.8695 304.637 96.7683 304.859 96.5324C304.998 96.3853 305 96.1015 305.047 95.8755C306.267 89.9074 309.499 85.231 314.277 81.5631C317.774 78.8778 321.663 76.9608 325.92 75.8098C326.421 75.6744 326.646 75.4777 326.601 74.9364C326.553 74.3619 326.589 73.7803 326.59 73.2016C326.595 70.9033 327.502 69.7034 329.786 69.2878C330.718 69.118 330.944 68.7924 330.942 67.8672C330.906 55.7178 330.901 43.5684 330.931 31.419C330.94 27.8563 330.997 24.2888 330.976 20.7301C330.948 16.0262 330.987 11.321 330.92 6.61689Z" fill="#E3E9F6"/>
<path d="M302.706 326.824H75.9468V440.983H302.706V326.824Z" fill="#E3E9F6"/>
<path d="M282.843 340.037H92.7681V430.271H282.843V340.037Z" fill="#D8E2F3"/>
<path d="M309.276 154.119H75.9468V282.486H309.276V154.119Z" fill="#E3E9F6"/>
<path d="M304.208 158.926H80.5488V278.558H304.208V158.926Z" fill="white"/>
<path opacity="0.58" d="M80.5488 278.558L304.208 158.926V278.558H80.5488Z" fill="#E3E9F6"/>
<g opacity="0.67">
<path opacity="0.67" d="M117.599 244.06H106.745V258.606H117.599V244.06Z" fill="#3694FC"/>
<path opacity="0.67" d="M131.479 228.88H120.625V258.606H131.479V228.88Z" fill="#3694FC"/>
<path opacity="0.67" d="M145.358 216.473H134.504V258.606H145.358V216.473Z" fill="#3694FC"/>
<path opacity="0.67" d="M159.239 235.302H148.384V258.606H159.239V235.302Z" fill="#3694FC"/>
<path opacity="0.67" d="M172.117 263.386H96.9185V213.748H97.8652V262.439H172.117V263.386Z" fill="#2D2E75"/>
<path opacity="0.67" d="M97.4703 209.499L99.1008 212.323L100.732 215.147H97.4703H94.209L95.8397 212.323L97.4703 209.499Z" fill="#2D2E75"/>
<path opacity="0.67" d="M177.147 262.311L174.323 263.942L171.499 265.572V262.311V259.05L174.323 260.681L177.147 262.311Z" fill="#2D2E75"/>
</g>
<g opacity="0.67">
<path opacity="0.67" d="M171.776 189.132L175.36 192.966L177.34 187.522L171.776 189.132Z" fill="#F65B4D"/>
<path opacity="0.67" d="M130.823 212.461L115.252 208.279L106.693 212.923L106.341 212.274L115.316 207.405L130.706 211.45L141.186 198.895L161.351 203.324L175.068 189.3L175.596 189.816L161.465 204.264L141.342 199.861L130.823 212.461Z" fill="#F65B4D"/>
<path opacity="0.67" d="M115.489 209.499C116.479 209.499 117.281 208.697 117.281 207.707C117.281 206.718 116.479 205.916 115.489 205.916C114.499 205.916 113.697 206.718 113.697 207.707C113.697 208.697 114.499 209.499 115.489 209.499Z" fill="#AE3229"/>
<path opacity="0.67" d="M142.982 199.933C143.14 198.957 142.477 198.036 141.5 197.878C140.523 197.719 139.603 198.383 139.444 199.359C139.286 200.336 139.949 201.256 140.926 201.415C141.903 201.574 142.823 200.91 142.982 199.933Z" fill="#AE3229"/>
<path opacity="0.67" d="M162.039 205.082C162.953 204.703 163.387 203.655 163.009 202.741C162.63 201.827 161.582 201.393 160.668 201.771C159.753 202.15 159.319 203.198 159.698 204.112C160.077 205.027 161.125 205.461 162.039 205.082Z" fill="#AE3229"/>
</g>
<g opacity="0.67">
<path opacity="0.67" d="M217.183 203.019L225.396 211.233C227.302 209.126 228.463 206.332 228.463 203.267C228.463 196.907 223.465 191.715 217.183 191.403V203.019H217.183Z" fill="#ABCBFD"/>
<path opacity="0.67" d="M216.16 203.691L207.77 195.302C205.865 197.409 204.704 200.203 204.704 203.267C204.704 209.828 210.022 215.147 216.583 215.147C219.648 215.147 222.441 213.986 224.549 212.08L216.16 203.691Z" fill="#3694FC"/>
<path opacity="0.67" d="M215.744 190.923C212.916 191.064 210.347 192.194 208.378 193.975L215.744 201.341V190.923Z" fill="#010D46"/>
</g>
<path opacity="0.67" d="M251.976 178.264H242.732C242.596 178.264 242.484 178.152 242.484 178.016V177.281C242.484 177.145 242.596 177.034 242.732 177.034H251.976C252.112 177.034 252.223 177.145 252.223 177.281V178.016C252.223 178.152 252.112 178.264 251.976 178.264Z" fill="#1F2A83"/>
<path opacity="0.67" d="M264.802 181.836H242.732C242.596 181.836 242.485 181.725 242.485 181.589V180.853C242.485 180.717 242.596 180.606 242.732 180.606H264.802C264.938 180.606 265.05 180.717 265.05 180.853V181.589C265.05 181.724 264.938 181.836 264.802 181.836ZM264.802 184.095H242.732C242.596 184.095 242.485 183.983 242.485 183.848V183.112C242.485 182.976 242.596 182.865 242.732 182.865H264.802C264.938 182.865 265.05 182.976 265.05 183.112V183.848C265.05 183.983 264.938 184.095 264.802 184.095Z" fill="#A1C6E5"/>
<path opacity="0.67" d="M272.357 265.967H255.59C255.454 265.967 255.343 265.856 255.343 265.72V264.984C255.343 264.848 255.455 264.737 255.59 264.737H272.357C272.493 264.737 272.604 264.848 272.604 264.984V265.72C272.604 265.856 272.493 265.967 272.357 265.967Z" fill="#1F2A83"/>
<path opacity="0.67" d="M295.089 269.54H255.59C255.454 269.54 255.343 269.429 255.343 269.293V268.557C255.343 268.421 255.455 268.31 255.59 268.31H295.089C295.225 268.31 295.337 268.421 295.337 268.557V269.293C295.337 269.429 295.225 269.54 295.089 269.54ZM295.089 271.799H255.59C255.454 271.799 255.343 271.687 255.343 271.552V270.816C255.343 270.68 255.455 270.569 255.59 270.569H295.089C295.225 270.569 295.337 270.68 295.337 270.816V271.552C295.337 271.687 295.225 271.799 295.089 271.799Z" fill="#A1C6E5"/>
<g opacity="0.67">
<path opacity="0.67" d="M199.623 167.56L199.793 183.188L202.865 183.154L202.695 167.526L199.623 167.56Z" fill="#ABCBFD"/>
<path opacity="0.67" d="M199.69 173.706L199.793 183.188L202.865 183.154L202.761 173.673L199.69 173.706Z" fill="#3694FC"/>
<path opacity="0.67" d="M207.303 167.476L207.473 183.103L210.545 183.07L210.374 167.442L207.303 167.476Z" fill="#ABCBFD"/>
<path opacity="0.67" d="M207.352 171.973L207.473 183.103L210.545 183.07L210.423 171.94L207.352 171.973Z" fill="#3694FC"/>
<path opacity="0.67" d="M214.982 167.392L215.153 183.02L218.224 182.986L218.054 167.359L214.982 167.392Z" fill="#ABCBFD"/>
<path opacity="0.67" d="M215.072 175.582L215.153 183.02L218.224 182.987L218.143 175.549L215.072 175.582Z" fill="#3694FC"/>
<path opacity="0.67" d="M222.662 167.308L222.833 182.936L225.904 182.902L225.734 167.274L222.662 167.308Z" fill="#ABCBFD"/>
<path opacity="0.67" d="M222.704 171.169L222.833 182.936L225.904 182.903L225.776 171.136L222.704 171.169Z" fill="#3694FC"/>
<path opacity="0.67" d="M230.341 167.225L230.512 182.853L233.583 182.819L233.413 167.192L230.341 167.225Z" fill="#ABCBFD"/>
<path opacity="0.67" d="M230.399 172.5L230.512 182.853L233.583 182.819L233.47 172.466L230.399 172.5Z" fill="#3694FC"/>
<g opacity="0.67">
<path opacity="0.67" d="M232.055 184.32L232.043 183.248L231.861 183.25L231.873 184.321" fill="#1F2A83"/>
<path opacity="0.67" d="M224.419 184.403L224.407 183.332L224.225 183.333L224.237 184.405" fill="#1F2A83"/>
<path opacity="0.67" d="M216.782 184.487L216.771 183.416L216.588 183.417L216.6 184.489" fill="#1F2A83"/>
<path opacity="0.67" d="M209.146 184.57L209.134 183.499L208.952 183.501L208.964 184.572" fill="#1F2A83"/>
<path opacity="0.67" d="M201.51 184.653L201.499 183.582L201.316 183.584L201.328 184.655" fill="#1F2A83"/>
</g>
<g opacity="0.67">
<path opacity="0.67" d="M234.431 184.124L198.923 184.512L198.927 184.877L234.434 184.489L234.431 184.124Z" fill="#010D46"/>
</g>
</g>
<path d="M348.499 486.121C389.207 486.121 422.207 482.23 422.207 477.429C422.207 472.629 389.207 468.738 348.499 468.738C307.791 468.738 274.791 472.629 274.791 477.429C274.791 482.23 307.791 486.121 348.499 486.121Z" fill="#85B4FD"/>
<path d="M302.93 309.015L302.464 332.25L301.03 403.576L278.772 404.052L276.297 378.31C274.782 362.559 275.055 346.683 277.189 331.003C277.715 327.142 278.275 323.864 278.814 321.821C280.593 315.076 283.298 308.499 287.174 307.639C288.693 307.303 290.187 307.136 291.611 307.089C297.944 306.878 302.93 309.015 302.93 309.015Z" fill="#B2937D"/>
<path d="M297.196 412.208H291.365V481.785H297.196V412.208Z" fill="#A08570"/>
<path d="M302.93 309.015L302.464 332.25C295.052 344.28 347.175 412.207 298.653 409.458C287.271 408.813 282.814 394.665 282.842 358.307C282.865 329.866 291.611 307.089 291.611 307.089C297.944 306.878 302.93 309.015 302.93 309.015Z" fill="#8C6E5A"/>
<path d="M299.716 412.208V480.813L297.196 481.785V412.208H299.716Z" fill="#8C6E5A"/>
<path d="M341.091 412.208H335.259V481.785H341.091V412.208Z" fill="#A08570"/>
<path d="M343.611 412.208V480.813L341.09 481.785V412.208H343.611Z" fill="#8C6E5A"/>
<path d="M312.356 412.208H307.405V471.286H312.356V412.208Z" fill="#A08570"/>
<path d="M314.497 412.208V470.46L312.356 471.286V412.208H314.497Z" fill="#8C6E5A"/>
<path d="M352.965 415.339H279.326C278.025 415.339 276.961 414.275 276.961 412.975V405.94C276.961 404.64 278.025 403.576 279.326 403.576H352.965C354.266 403.576 355.33 404.64 355.33 405.94V412.975C355.33 414.275 354.266 415.339 352.965 415.339Z" fill="#B99D89"/>
<path opacity="0.71" d="M369.558 318.659L351.781 361.413H347.233L364.415 320.33C364.839 319.318 365.828 318.659 366.926 318.659H369.558Z" fill="#0D5DBC"/>
<path d="M270.729 233.761C264.296 230.476 260.328 223.06 258.769 216.846C257.265 210.852 258.198 206.698 258.198 206.598L258.6 205.407C258.6 205.407 260.371 202.692 267.252 213.563C274.132 224.436 274.259 235.417 270.729 233.761Z" fill="#D43D31"/>
<path d="M362.452 463.491C362.452 463.491 359.376 476.142 359.053 477.774L388.691 483.657C388.691 483.657 392.767 479.472 385.242 476.479C377.516 473.407 372.86 470.349 370.694 464.806C368.528 459.264 362.452 463.491 362.452 463.491ZM392.799 456.848C392.799 456.848 389.723 469.499 389.4 471.131L419.038 477.014C419.038 477.014 423.114 472.829 415.589 469.837C407.863 466.764 403.207 463.706 401.041 458.164C398.875 452.622 392.799 456.848 392.799 456.848Z" fill="black"/>
<path d="M402.058 458.291C399.783 459.517 399.783 459.517 396.805 460.173C396.751 460.185 396.698 460.196 396.645 460.208C393.708 460.814 390.469 460.58 390.469 460.58C390.469 460.58 383.743 441.282 382.216 437.485C380.665 433.634 373.339 418.114 373.204 417.748C373.202 417.745 373.202 417.743 373.202 417.743C372.558 425.886 371.298 466.16 371.298 466.16C371.298 466.16 368.364 467.14 364.54 467.28C361.198 467.403 361.215 467.635 361.215 467.635C361.215 467.635 355.329 448.944 353.19 438.488C351.04 427.976 347.233 401.249 347.233 401.249C347.233 401.249 331.345 406.406 310.417 405.26C289.488 404.114 290.749 387.567 290.749 387.567C286.928 381.176 307.937 378.508 323.857 374.807C324.166 374.735 324.468 374.639 324.776 374.592C327.409 374.191 330.992 374.154 334.676 374.292C342.824 374.599 351.471 375.766 351.471 375.766C351.471 375.766 376.258 377.76 380.688 378.549C385.119 379.335 390.77 395.52 393.673 413.423C396.576 431.327 402.058 458.291 402.058 458.291Z" fill="#424242"/>
<path opacity="0.53" d="M402.058 458.291C399.783 459.517 399.783 459.517 396.805 460.173C396.752 460.185 396.698 460.197 396.645 460.208C393.709 460.815 390.469 460.58 390.469 460.58C390.469 460.58 383.743 441.283 382.216 437.485C380.666 433.634 373.339 418.115 373.204 417.748C373.202 417.745 373.202 417.743 373.202 417.743C373.202 417.743 370.454 386.641 368.162 383.633C365.87 380.625 334.913 377.579 334.913 377.579C334.713 377.039 334.651 375.83 334.676 374.292C342.824 374.599 351.472 375.766 351.472 375.766C351.472 375.766 376.258 377.76 380.689 378.55C385.119 379.336 390.77 395.52 393.673 413.423C396.577 431.328 402.058 458.291 402.058 458.291Z" fill="#262626"/>
<path d="M364.54 467.28C361.215 467.635 361.215 467.635 361.215 467.635C361.215 467.635 355.329 448.944 353.19 438.488C351.04 427.975 347.568 403.576 347.568 403.576C347.568 403.576 331.345 406.405 310.417 405.259C289.488 404.113 289.583 388.147 289.583 388.147C285.762 381.755 307.937 378.508 323.857 374.807C341.835 372.208 334.913 377.578 334.913 377.578C334.913 377.578 307.59 387.566 307.054 392.368C306.137 400.582 319.466 401.333 338.372 397.955C358.003 394.448 352.377 400.864 355.329 415.857C356.676 422.7 362.999 460.019 364.54 467.28Z" fill="#262626"/>
<path d="M396.805 460.174C396.752 460.185 396.699 460.197 396.645 460.208C393.709 460.814 390.47 460.58 390.47 460.58C390.47 460.58 383.744 441.282 382.217 437.486C380.666 433.635 373.339 418.114 373.204 417.749C373.203 417.744 373.203 417.743 373.203 417.743C373.203 417.743 370.455 386.641 368.163 383.633C365.871 380.624 334.913 377.579 334.913 377.579C334.049 375.251 341.392 376.578 341.392 376.578L360.409 379.05C360.409 379.05 360.409 379.05 367.398 380.875C374.387 382.701 376.357 398.886 379.222 413.71C382.087 428.534 396.805 460.174 396.805 460.174Z" fill="#141615"/>
<path d="M292.352 357.686C292.352 357.686 286.261 389.849 289.746 389.849C289.746 389.849 291.264 387.977 292.374 387.482C300.622 383.803 310.667 386.254 326.347 379.568C339.841 373.814 347.145 375.252 347.145 375.252C347.145 375.252 344.098 355.614 344.509 348.237C344.92 340.859 292.352 357.686 292.352 357.686Z" fill="#F6A538"/>
<path d="M348.898 277.218C348.898 277.861 347.899 283.143 346.436 288.567C344.973 293.991 342.047 300.916 333.552 301.344C333.552 301.344 333.398 303.532 333.347 305.558C333.305 307.191 333.33 308.718 333.552 308.909C334.052 309.337 328.556 310.8 323.952 308.909C319.348 307.018 316.994 304.021 316.994 304.021C316.994 304.021 322.346 298.461 322.24 293.532C322.133 288.603 316.03 284.855 319.456 279.503C322.881 274.149 341.083 267.369 343.974 273.008C343.974 273.008 345.931 274.428 347.379 275.637C348.226 276.345 348.898 276.982 348.898 277.218Z" fill="#91645E"/>
<path d="M347.379 275.637C346.514 277.047 345.716 278.052 345.716 278.052C345.716 278.052 335.909 273.721 334.195 277.218C332.482 280.715 333.696 284.142 328.413 287.353C323.133 290.566 322.348 301.915 325.63 303.699C328.882 305.467 333.226 305.569 333.347 305.558C333.305 307.191 333.33 308.718 333.553 308.909C334.052 309.337 328.557 310.8 323.953 308.909C319.349 307.018 316.994 304.021 316.994 304.021C316.994 304.021 322.346 298.461 322.241 293.532C322.133 288.603 316.031 284.855 319.456 279.503C322.882 274.149 341.084 267.369 343.974 273.008C343.974 273.008 345.932 274.428 347.379 275.637Z" fill="#815954"/>
<path d="M352.182 279.359C346.494 278.805 342.123 276.841 339.752 275.528C339.359 275.31 339.022 275.11 338.741 274.938C337.611 274.242 336.261 273.956 334.959 274.219C330.107 275.197 331.19 282.606 330.698 283.714C330.127 284.998 329.771 284.07 329.771 284.07C329.627 278.432 322.347 275.862 321.134 280.358C319.92 284.855 322.775 286.996 322.775 286.996C322.989 290.993 321.992 291.889 321.992 291.889C319.282 293.427 314.568 290.78 314.568 290.78C314.568 290.78 314.353 287.567 315.495 279.359C315.676 278.066 315.962 276.751 316.365 275.451C318.521 268.5 324.018 261.963 334.482 261.302C346.9 260.516 350.755 269.867 350.397 273.436C350.041 277.005 352.182 279.359 352.182 279.359Z" fill="#2E150C"/>
<path d="M339.751 275.526V275.528C339.359 275.31 339.021 275.111 338.741 274.938C337.611 274.242 336.26 273.956 334.959 274.219C330.106 275.198 331.189 282.606 330.698 283.714C330.127 284.998 329.77 284.071 329.77 284.071C329.627 278.432 322.346 275.862 321.134 280.359C319.92 284.855 322.774 286.997 322.774 286.997C322.989 290.994 321.991 291.89 321.991 291.89C319.282 293.428 314.567 290.78 314.567 290.78C314.567 290.78 314.353 287.568 315.495 279.359C315.675 278.066 315.962 276.751 316.365 275.451C320.682 276.069 327.656 276.58 331.197 274.22C336.55 270.652 339.751 275.526 339.751 275.526ZM314.567 290.781C314.567 290.781 299.328 292.993 303.396 303.699C303.396 303.699 309.653 301.986 310.218 297.811C310.784 293.635 314.567 290.781 314.567 290.781Z" fill="#190703"/>
<path d="M355.965 358.944C355.965 358.944 338.514 358.944 332.946 358.944C327.379 358.944 309.928 358.094 309.928 358.094C305.858 361.312 292.298 363.439 292.298 363.439C283.09 365.01 281.378 361.799 281.378 361.799C276.953 349.094 292.369 314.762 297.008 309.853C301.648 304.945 308.144 305.341 312.498 304.342C314.448 303.894 315.549 303.334 316.205 302.778C317.018 302.092 317.156 301.411 317.386 300.951C317.957 299.808 319.013 301.554 319.013 301.554C323.602 306.261 328.057 307.482 330.341 307.268C332.624 307.053 333.347 305.559 333.347 305.559C334.5 304.635 334.91 305.841 334.91 305.841C335.066 306.932 335.486 307.625 336.224 308.19C337.511 309.177 339.764 309.773 343.261 311.407C348.755 313.977 350.182 320.508 351.04 328.003C351.896 335.496 355.965 358.944 355.965 358.944Z" fill="#F8BC40"/>
<path d="M344.508 326.825L345.505 360.871L351.574 358.944L344.508 326.825Z" fill="#F6A538"/>
<path d="M345.505 357.457C345.505 357.457 338.049 359.942 328.057 359.995C318.065 360.05 309.928 358.093 309.928 358.093C309.928 358.093 318.636 354.946 319.777 354.375C320.919 353.804 320.491 352.948 320.491 352.948C320.491 352.948 320.49 352.95 320.485 352.953C319.724 353.381 318.706 352.763 317.945 351.697C317.207 350.665 316.712 349.213 316.922 347.881C317.335 345.264 319.142 345.502 319.269 345.523C319.272 345.523 319.274 345.524 319.277 345.524C319.277 345.524 319.848 343.454 314.209 345.311C308.571 347.166 297.936 349.308 297.936 349.308C298.151 347.702 305.324 328.431 305.324 328.431C305.324 328.431 303.075 343.454 302.647 345.025C302.219 346.595 313.853 344.24 317.778 343.669C318.5 343.563 319.895 343.965 321.691 344.687C329.655 347.895 345.505 357.457 345.505 357.457Z" fill="#F6A538"/>
<path d="M345.505 357.457L332.73 357.686C332.73 357.686 332.304 357.338 331.769 356.517C331.769 356.517 328.681 355.85 326.066 354.228C326.065 354.226 326.063 354.226 326.063 354.226C324.855 353.478 323.75 352.525 323.096 351.342L320.491 352.949C320.491 352.949 320.491 352.949 320.489 352.95C318.991 353.803 316.494 350.591 316.922 347.881C317.335 345.265 319.142 345.503 319.269 345.523C319.272 345.523 319.274 345.525 319.277 345.525C319.277 345.525 320.427 345.104 321.691 344.687C322.975 344.265 324.377 343.847 324.808 343.883C325.666 343.954 341.261 350.843 342.011 351.627C342.062 351.682 342.125 351.756 342.195 351.85C343.127 353.089 345.505 357.457 345.505 357.457Z" fill="#91645E"/>
<path d="M323.096 351.342L320.491 352.948C320.491 352.948 320.49 352.95 320.485 352.953C319.724 353.381 318.706 352.763 317.945 351.697C320.273 350.377 322.153 348.557 322.346 349.304C322.631 350.411 323.096 351.342 323.096 351.342ZM345.505 357.457L332.73 357.686C332.73 357.686 332.304 357.337 331.769 356.517C331.769 356.517 328.681 355.849 326.066 354.227C326.208 354.288 331.168 356.402 335.67 355.088C338.379 354.299 340.735 352.992 342.195 351.849C343.127 353.088 345.505 357.457 345.505 357.457Z" fill="#815954"/>
<path d="M309.927 358.093V362.655H352.217V357.337L309.927 358.093Z" fill="#010D46"/>
<path d="M333.552 301.344C333.552 301.344 327.391 301.068 326.439 295.848C326.439 295.848 325.82 298.341 327.391 301.068C328.961 303.794 333.426 303.508 333.426 303.508L333.552 301.344Z" fill="#815954"/>
<path d="M336.223 308.189C336.223 308.189 325.351 311.939 316.205 302.778C317.018 302.092 317.156 301.411 317.386 300.951C317.957 299.808 319.013 301.554 319.013 301.554C323.602 306.261 328.057 307.482 330.341 307.268C332.624 307.054 333.347 305.56 333.347 305.56C334.5 304.635 334.91 305.841 334.91 305.841C335.066 306.932 335.486 307.625 336.223 308.189Z" fill="#F6A538"/>
<path d="M425.076 322.587L408.557 361.414H347.233L364.389 320.393C364.828 319.343 365.855 318.659 366.993 318.659H422.479C424.502 318.659 425.868 320.725 425.076 322.587Z" fill="#010D46"/>
<path d="M116.6 354.914C117.392 358.028 117.665 361.037 117.754 364.009C117.874 366.987 117.733 369.912 117.445 372.808C117.002 378.626 114.599 384.048 113.046 389.641C111.5 395.236 109.875 400.815 108.17 406.378C106.379 411.923 104.727 417.497 102.817 423.018L101.863 422.825C102.25 416.995 102.895 411.218 103.402 405.413C103.994 399.625 104.666 393.853 105.417 388.097C106.161 382.34 106.056 376.411 107.909 370.878C108.77 368.099 109.778 365.349 111.047 362.652C112.284 359.948 113.706 357.282 115.646 354.721L116.6 354.914ZM75.1234 399.334C76.5743 399.45 77.7485 399.821 78.8246 400.283C79.9179 400.728 80.8716 401.302 81.7473 401.948C83.5744 403.17 84.3443 405.364 85.5785 407.131C86.8133 408.898 88.0057 410.704 89.1557 412.548C90.2603 414.435 91.4385 416.254 92.4793 418.199L91.9716 418.666C90.1197 417.467 88.4055 416.142 86.6172 414.884C84.8745 413.584 83.1744 412.246 81.5166 410.868C79.8583 409.491 77.7354 408.542 76.67 406.619C76.0995 405.693 75.6069 404.694 75.2535 403.568C74.8834 402.457 74.6114 401.256 74.6158 399.801L75.1234 399.334Z" fill="#3694FC"/>
<path d="M123.584 386.155C123.984 388.25 123.925 390.081 123.704 391.818C123.51 393.571 123.086 395.19 122.531 396.734C121.549 399.896 118.811 402.045 116.844 404.639C114.879 407.233 112.843 409.787 110.736 412.3C108.554 414.769 106.494 417.31 104.206 419.718L103.364 419.232C104.306 416.046 105.476 412.992 106.523 409.868C107.646 406.787 108.84 403.747 110.104 400.747C111.366 397.747 111.859 394.302 114.106 391.87C115.166 390.617 116.356 389.44 117.777 388.396C119.171 387.336 120.727 386.369 122.742 385.668L123.584 386.155Z" fill="#2F80DB"/>
<path d="M129.96 403.563C129.599 405.099 129.013 406.286 128.347 407.348C127.695 408.432 126.929 409.34 126.099 410.148C124.501 411.861 122.04 412.234 119.958 413.196C117.876 414.158 115.76 415.067 113.61 415.922C111.422 416.719 109.294 417.61 107.054 418.327L106.639 417.684C108.217 415.94 109.907 414.37 111.537 412.706C113.204 411.101 114.905 409.549 116.641 408.05C118.377 406.551 119.733 404.464 121.953 403.716C123.032 403.294 124.175 402.971 125.431 402.825C126.674 402.657 127.997 402.613 129.545 402.92L129.96 403.563ZM96.6643 345.021C99.6347 351.69 100.962 358.43 101.905 365.186C102.907 371.94 101.933 378.777 101.8 385.579C101.684 392.381 101.487 399.185 101.209 405.993C100.843 412.805 100.619 419.611 100.132 426.428L99.1599 426.469C98.0945 419.718 97.2923 412.956 96.3488 406.2C95.4925 399.44 94.7177 392.677 94.024 385.91C93.3131 379.145 91.7608 372.415 92.185 365.6C92.5502 358.788 93.2995 351.96 95.6923 345.062L96.6643 345.021Z" fill="#3694FC"/>
<path d="M80.3278 371.042C82.3196 372.674 83.8067 374.469 85.1152 376.321C86.4547 378.163 87.5398 380.087 88.4824 382.058C90.4963 385.957 90.608 390.47 91.5445 394.716C92.4882 398.961 93.3548 403.23 94.1436 407.525C94.8497 411.846 95.6899 416.124 96.2799 420.482L95.354 420.781C93.285 416.9 91.4669 412.937 89.5141 409.018C87.6444 405.073 85.8521 401.102 84.1373 397.107C82.4149 393.113 79.8681 389.386 79.2233 385.045C78.8365 382.895 78.5926 380.7 78.6023 378.422C78.5815 376.154 78.7397 373.829 79.4017 371.341L80.3278 371.042Z" fill="#2F80DB"/>
<path d="M118.3 416.591H83.5474V425.239H118.3V416.591Z" fill="#3694FC"/>
<path d="M115.597 425.24H86.25V451.455H115.597V425.24Z" fill="#2F80DB"/>
<path d="M451.105 465.09C451.105 465.09 451.606 471.017 449.935 472.678C448.264 474.339 457.398 474.76 457.983 474.342C458.568 473.924 458.396 464.427 458.396 464.427L451.105 465.09ZM493.541 460.205C493.541 460.205 495.91 465.317 494.961 467.337C494.013 469.358 501.91 466.985 502.295 466.423C502.68 465.862 500.192 457.35 500.192 457.35L493.541 460.205Z" fill="#CE947A"/>
<path d="M435.205 247.1L431.49 271.106C431.49 271.106 435.475 270.044 439.019 272.207C442.563 274.369 458.42 271.486 460.462 267.101C462.504 262.717 465.747 245.959 463.405 244.037C461.062 242.115 456.55 242.881 456.55 242.881L435.205 247.1Z" fill="#E2B370"/>
<path d="M502.715 460.493C501.365 461.109 499.906 461.582 498.458 461.947C498.453 461.948 498.452 461.948 498.452 461.948C493.57 463.174 491.246 463.054 491.246 463.054C491.246 463.054 490.312 461.949 485.605 445.791C480.903 429.647 476.173 419.423 476.388 411.635C476.603 403.847 470.815 388.77 467.599 372.701C464.385 356.632 462.812 355.716 462.812 355.716C462.812 355.716 459.24 391.342 461.27 407.848C463.302 424.355 460.869 466.465 460.869 466.465C451.293 470.179 448.217 466.843 448.217 466.843C449.718 444.836 439.518 400.131 438.875 390.056C438.632 386.245 437.927 378.688 437.148 370.767C437.146 370.767 437.146 370.767 437.146 370.767C435.863 357.752 435.941 343.523 435.941 343.523C435.353 337.943 467.171 323.816 472.316 322.745C477.459 321.673 483.716 339.549 488.606 345.897C493.496 352.244 493.536 408.92 499.039 419.321C499.091 419.419 499.143 419.518 499.193 419.619C504.483 430.251 502.732 460.223 502.715 460.493Z" fill="#102166"/>
<path d="M502.716 460.493C502.716 460.494 502.716 460.494 502.716 460.494C500.442 461.58 498.583 461.925 498.458 461.947C498.453 461.948 498.452 461.948 498.452 461.948C496.083 445.419 487.051 384.19 480.156 362.407C472.153 337.126 455.161 356.753 451.494 362.407C447.857 368.017 437.307 370.725 437.147 370.767C437.145 370.767 437.145 370.767 437.145 370.767C435.863 357.752 435.948 342.396 435.948 342.396C435.361 336.817 467.171 323.816 472.316 322.745C477.459 321.673 483.716 339.549 488.607 345.897C493.497 352.244 493.537 408.92 499.04 419.321C499.091 419.42 499.143 419.518 499.193 419.62C504.483 430.251 502.732 460.223 502.716 460.493Z" fill="#010E4A"/>
<path d="M444.379 259.41C444.379 259.41 446.016 266 444.723 270.476C443.322 275.326 455.476 271.606 457.038 270.765C458.6 269.924 457.015 267.225 457.015 267.225C457.015 267.225 454.756 260.915 454.095 254.308C453.434 247.701 444.379 259.41 444.379 259.41Z" fill="#C18B71"/>
<path d="M459.86 245.058C459.559 248.242 457.098 250.164 457.098 250.164C455.956 255.21 454.377 257.274 452.413 259.053C451.414 259.957 450.299 260.551 449.149 260.899C445.875 261.892 442.328 260.897 440.461 259.474C437.938 257.552 429.168 246.86 431.571 237.491C431.74 236.832 431.916 236.235 432.1 235.7C434.512 228.628 437.938 231.845 437.938 231.845L454.275 231.604C454.274 231.604 460.108 242.425 459.86 245.058Z" fill="#CE947A"/>
<path d="M459.861 245.058C459.56 248.242 457.099 250.164 457.099 250.164C455.957 255.21 454.377 257.273 452.413 259.053C451.415 259.957 450.299 260.551 449.15 260.899C449.151 260.898 449.153 260.898 449.154 260.897C453.041 258.672 458.109 246.429 450.918 246.206C443.728 245.985 437.821 241.421 436.793 238.068C435.766 234.715 433.152 238.068 433.152 238.068C433.152 238.068 432.556 237.173 432.101 235.7C434.513 228.628 437.939 231.845 437.939 231.845L454.275 231.604C454.275 231.604 460.109 242.425 459.861 245.058Z" fill="#C18B71"/>
<path d="M478.314 336.312C478.314 336.312 457.922 351.415 440.052 341.657L439.932 337.988L438.167 283.983L438.159 283.753C438.159 283.753 439.478 271.314 440.32 270.66C441.161 270.006 443.265 268.661 443.379 269.419C443.379 269.419 443.241 271.454 445.763 272.015C448.286 272.575 454.943 271.806 455.995 268.651C457.045 265.497 457.045 265.497 457.045 265.497C457.045 265.497 460.199 262.184 462.651 263.841C465.105 265.497 474.11 284.068 473.48 293.845C472.848 303.621 478.314 336.312 478.314 336.312Z" fill="#C3DFFE"/>
<path d="M478.314 336.313C478.314 336.313 457.922 351.416 440.051 341.657L439.932 337.988C446.729 342.943 458.657 343.439 463.456 338.598C469.477 332.524 461.541 287.84 459.367 280.648C457.194 273.457 448.623 272.654 445.35 276.721C443.354 279.201 443.952 290.674 443.952 290.674C443.952 290.674 440.88 288.35 438.166 283.983L438.158 283.753C438.158 283.753 439.478 271.314 440.319 270.661C441.161 270.006 444.979 267.841 445.093 268.599C445.093 268.599 444.194 271.589 446.716 272.149C449.24 272.709 454.942 271.806 455.994 268.651C457.045 265.497 457.045 265.497 457.045 265.497C457.045 265.497 460.199 262.184 462.651 263.841C465.104 265.497 474.11 284.068 473.479 293.845C472.848 303.621 478.314 336.313 478.314 336.313Z" fill="#9BC1E9"/>
<path d="M443.31 283.928C442.328 273.998 443.037 269.071 443.037 269.071C442.769 267.696 432.377 273.837 430.945 275.287C429.512 276.737 418.022 354.625 418.022 354.625L427.403 361.414L445.35 363.399C445.35 363.398 444.379 294.744 443.31 283.928ZM434.609 361.272L427.403 361.414C427.403 361.414 433.423 336.061 433.927 308.948C433.927 308.949 435.094 353.785 434.609 361.272Z" fill="#E32B2C"/>
<path d="M433.939 309.441C433.977 310.915 434.094 315.562 434.227 321.531C434.136 317.353 434.038 313.257 433.939 309.441Z" fill="#D43D31"/>
<path d="M427.403 361.414C427.403 361.414 433.422 336.061 433.926 308.949C433.926 308.949 433.926 308.952 433.926 308.955C433.619 297.026 433.323 287.958 433.323 287.958C431.956 286.592 431.26 295.379 430.944 306.837C430.629 318.295 424.644 354.836 424.644 354.836C424.644 354.836 421.385 351.831 418.689 354.881C417.975 355.688 419.07 361.316 419.07 361.316L427.403 361.414Z" fill="#CA1017"/>
<path d="M422.013 355.019C422.013 355.019 423.482 355.345 424.317 357.161C425.153 358.976 425.807 361.316 425.807 361.316H419.07L422.013 355.019Z" fill="#6D0500"/>
<path d="M466.155 263.377C466.155 263.377 480.311 263.78 484.095 273.294C487.88 282.807 488.16 293.694 490.963 304.159C493.766 314.624 497.481 341.324 499.373 349.476L494.607 355.55C494.607 355.55 484.936 358.493 479.47 355.55C474.004 352.606 463.311 268.986 462.441 266.199C461.571 263.412 466.155 263.377 466.155 263.377Z" fill="#E32B2C"/>
<path d="M434.566 237.401C434.566 237.401 435.305 233.71 437.689 237.344C439.05 239.418 439.421 248.672 454.326 244.499C454.326 244.499 457.904 243.306 458.358 250.518C458.812 257.729 455.235 267.666 452.112 269.426C452.112 269.426 460.345 271.016 465.228 265.735C470.112 260.454 467.84 243.079 456.825 231.837C445.809 220.594 435.475 231.042 435.475 231.042C435.475 231.042 432.282 231.212 430.997 236.408C429.711 241.603 432.693 267.155 428.349 270.476C428.349 270.476 432.863 273.542 434.055 266.984C434.055 266.984 435.929 255.571 432.948 243.221C432.948 243.221 432.182 236.805 434.566 237.401Z" fill="#F5D9A1"/>
<path d="M476.738 284.384C476.738 284.384 479.751 308.176 482.414 319.249C485.077 330.321 492.085 354.429 492.085 354.429C492.085 354.429 493.112 351.765 495.215 350.831C497.317 349.897 498.504 352.585 498.504 352.585L494.608 355.55C494.608 355.55 491.61 356.512 488.811 356.685C488.811 356.685 478.91 328.359 476.738 303.551C474.565 278.743 476.738 284.384 476.738 284.384Z" fill="#CA1017"/>
<path d="M424.762 358.157C424.762 358.157 422.224 359.573 420.808 360.739C419.392 361.906 417.36 361.431 416.497 360.68C415.634 359.929 411.354 362.504 409.616 360.904C407.878 359.304 409.727 360.134 413.259 358.022C413.259 358.022 410.232 356.741 408.776 355.626C407.32 354.512 407.32 354.512 407.32 354.512C407.32 354.512 405.23 356.332 403.373 356.937C403.373 356.937 401.397 361.454 399.81 361.365C398.223 361.275 399.435 359.862 399.71 359.218C399.985 358.574 401.475 355.034 402.051 354.395C402.627 353.756 405.165 352.773 406.371 352.166C407.576 351.559 407.429 350.726 409.824 351.524C412.22 352.322 418.452 355.336 419.517 355.026C419.553 355.016 420.074 354.758 420.11 354.747C422.624 353.982 424.379 356.158 424.762 358.157Z" fill="#CE947A"/>
<path d="M475.143 486.708C501.846 486.708 523.493 484.528 523.493 481.839C523.493 479.15 501.846 476.971 475.143 476.971C448.44 476.971 426.792 479.15 426.792 481.839C426.792 484.528 448.44 486.708 475.143 486.708Z" fill="#85B4FD"/>
<path d="M492.85 352.998C492.85 352.998 493.586 354.049 493.741 356.096C493.895 358.143 496.051 359.502 497.461 359.676C498.871 359.85 500.193 365.339 503.111 365.624C506.03 365.909 503.711 364.965 502.606 360.444C502.606 360.444 504.359 361.555 506.6 361.96C508.842 362.365 509.245 362.002 509.245 362.002C509.245 362.002 508.846 363.17 509.882 365.175C509.882 365.175 508.053 368.225 509.484 369.493C510.914 370.761 511.155 368.704 511.5 367.999C511.846 367.294 513.209 365.372 513.294 364.418C513.379 363.464 512.643 362.535 512.164 361.075C511.686 359.615 512.56 359.127 509.804 357.7C507.049 356.274 500.607 354.105 499.98 352.983C499.354 351.86 498.691 350.345 498.691 350.345C498.691 350.345 494.826 349.34 492.85 352.998Z" fill="#CE947A"/>
<path d="M450.46 471.886C450.46 471.886 454.605 474.502 457.799 471.886C457.799 471.886 458.263 471.382 458.709 471.886C459.154 472.389 459.99 481.971 459.489 483.196H434.922C434.922 483.196 432.415 482.417 432.693 480.132C432.972 477.848 444.893 474.952 447.567 473.28C450.241 471.609 450.46 471.886 450.46 471.886ZM495.172 466.462C495.172 466.462 499.709 467.446 501.703 464.081C501.703 464.081 501.953 463.483 502.513 463.786C503.073 464.09 506.925 472.346 506.877 473.599L485.013 481.569C485.013 481.569 482.529 481.688 482.036 479.565C481.543 477.443 491.213 470.997 493.05 468.642C494.888 466.287 495.172 466.462 495.172 466.462Z" fill="#63473A"/>
<path d="M458.861 249.779C459.026 248.763 458.336 247.806 457.321 247.642C456.305 247.477 455.348 248.166 455.183 249.182C455.018 250.198 455.708 251.155 456.724 251.319C457.739 251.484 458.696 250.795 458.861 249.779Z" fill="#010E4A"/>
<path d="M513.363 361.316H227.243V366.396H513.363V361.316Z" fill="#878787"/>
<path d="M496.912 366.353H491.984V491.277H496.912V366.353Z" fill="#727272"/>
<path d="M246.686 366.353H241.758V491.277H246.686V366.353Z" fill="#727272"/>
<path d="M526.178 228.359H524.165V430.865H526.178V228.359Z" fill="#D8E2F3"/>
<path d="M534.747 435.531C531.738 435.531 518.192 435.531 515.596 435.531C515.596 431.362 519.883 427.982 525.172 427.982C530.46 427.982 534.747 431.362 534.747 435.531ZM510.949 440.983H540.433C540.675 440.983 540.871 440.787 540.871 440.545V435.969C540.871 435.727 540.674 435.531 540.433 435.531H510.949C510.707 435.531 510.511 435.727 510.511 435.969V440.545C510.511 440.787 510.707 440.983 510.949 440.983Z" fill="#D8E2F3"/>
<path d="M560.001 224.927C560.001 224.927 555.24 229.216 525.286 229.216C495.332 229.216 490.571 224.927 490.571 224.927L508.893 183.712H541.679L560.001 224.927Z" fill="#E3E9F6"/>
<path d="M541.679 183.711H541.274C539.563 211.293 517.63 226.438 494.214 216.731L490.571 224.927C490.571 224.927 495.332 229.216 525.286 229.216C555.24 229.216 560.001 224.927 560.001 224.927L541.679 183.711Z" fill="#D8E2F3"/>
<path d="M207.322 516.793C232.451 516.793 252.822 514.022 252.822 510.604C252.822 507.186 232.451 504.415 207.322 504.415C182.194 504.415 161.823 507.186 161.823 510.604C161.823 514.022 182.194 516.793 207.322 516.793Z" fill="#85B4FD"/>
<path d="M212.615 489.942C212.615 489.942 212.021 503.925 212.021 505.713H244.502C244.502 505.713 247.924 500.448 239.363 498.867C230.574 497.244 225.025 494.994 221.581 489.604C218.137 484.214 212.615 489.942 212.615 489.942ZM190.595 493.901C190.595 493.901 189.848 497.026 187.334 499.404C184.821 501.781 173.408 508.167 173 510.001C172.593 511.835 172.593 512.99 176.669 513.533C180.745 514.077 200.785 508.099 201.26 507.012C201.736 505.925 199.855 497.44 202.415 492.407C204.975 487.373 190.595 493.901 190.595 493.901Z" fill="#C3DFFE"/>
<path d="M230.277 324.399C230.277 324.399 226.641 334.702 226.641 342.703C226.641 350.703 231.611 364.885 231.611 364.885C231.611 364.885 245.797 359.658 245.795 370.029C245.795 370.029 251.248 362.704 243.854 344.279C236.459 325.854 230.277 324.399 230.277 324.399Z" fill="#010A35"/>
<path d="M230.641 439.433C226.884 459.555 226.035 491.798 226.035 491.798C219.994 494.253 215.809 494.057 213.258 493.375C211.148 492.813 210.156 491.92 210.156 491.92C210.398 483.555 208.216 447.312 208.216 447.312C207.61 453.493 204.822 495.433 204.822 495.433C194.641 499.435 185.307 495.92 185.307 495.92C185.307 495.92 183.488 433.614 183.851 423.19C184.084 416.557 183.076 396.236 182.313 382.331C181.876 374.381 181.518 368.527 181.518 368.527C181.77 358.472 213.913 327.832 227.975 340.439C230.019 342.271 231.605 345.239 232.81 349.034V349.036C239.896 371.343 233.853 422.237 230.641 439.433Z" fill="#011158"/>
<path d="M220.338 351.651C220.095 353.611 223.004 357.498 217.185 363.797C211.398 370.064 182.612 382.205 182.313 382.331C181.876 374.381 181.518 368.527 181.518 368.527C181.77 358.472 213.913 327.832 227.975 340.439C230.019 342.271 231.605 345.239 232.81 349.034V349.036C232.81 349.036 220.581 349.691 220.338 351.651ZM214.398 453.898C215.291 469.589 213.529 485.407 213.257 493.375C211.148 492.813 210.156 491.92 210.156 491.92C210.397 483.555 208.216 447.312 208.216 447.312C208.216 447.312 210.196 426.422 210.196 421.088C210.196 415.756 216.66 367.591 217.791 368.723C218.923 369.854 213.166 432.239 214.398 453.898Z" fill="#010A35"/>
<path d="M209.954 254.942C209.954 254.942 208.741 257.096 203.436 258.548C203.436 258.548 203.355 263.561 206.209 271.642C209.065 279.723 196.997 281.179 196.135 280.477C195.857 280.252 195.099 279.356 194.2 278.246C192.304 275.906 189.777 272.613 189.777 272.613C189.777 272.613 191.879 271.48 191.125 266.685C190.371 261.89 185.145 254.348 184.014 253.809C182.882 253.272 179.057 249.446 180.782 242.659C182.505 235.871 192.202 227.088 194.035 226.549C195.866 226.012 200.014 224.718 200.014 224.718C200.014 224.718 201.765 226.324 203.645 229.12C204.188 229.927 204.741 230.835 205.267 231.83C207.61 236.274 207.61 236.274 207.61 236.274C207.61 236.274 215.044 247.912 209.954 254.942Z" fill="#DBA78B"/>
<path d="M193.062 252.677C189.33 260.434 200.66 277.743 200.66 277.743C200.66 277.743 197.952 278.274 194.2 278.247C192.304 275.907 189.777 272.614 189.777 272.614C189.777 272.614 191.88 271.481 191.125 266.686C190.371 261.891 185.145 254.349 184.014 253.81C182.882 253.273 179.057 249.447 180.782 242.66C182.505 235.872 192.202 227.089 194.035 226.55C195.866 226.013 200.014 224.719 200.014 224.719C200.014 224.719 201.765 226.325 203.645 229.121C203.645 229.121 199.691 228.517 197.67 231.669C195.651 234.82 193.873 237.972 190.963 238.7C188.054 239.426 196.794 244.918 193.062 252.677Z" fill="#B78B73"/>
<path d="M197.266 349.221C197.266 349.221 211.704 350.245 220.755 348.359C229.805 346.474 231.547 345.687 231.547 345.687C231.547 345.687 230.883 341.463 230.721 341.356C230.56 341.248 200.821 339.093 197.266 349.221Z" fill="#010A35"/>
<path d="M233.55 341.612C233.018 342.764 229.49 343.973 224.62 344.986C216.163 346.747 203.663 347.924 195.784 347.215C185.67 346.304 188.098 303.351 189.347 287.449C189.633 283.828 189.855 281.61 189.855 281.61C189.855 281.61 197.052 275.037 202.223 278.97C202.223 278.97 207.066 274.445 210.974 277.409C214.882 280.371 229.307 316.197 229.307 316.197C229.307 316.197 235.005 338.461 233.55 341.612Z" fill="#D8E2F3"/>
<path d="M205.515 232.129L203.646 229.121C203.646 229.121 202.761 226.065 198.343 228.328C197.351 228.835 196.705 229.493 196.18 230.233C196.173 230.241 196.169 230.249 196.165 230.256C194.363 232.814 193.98 236.354 185.899 238.187C185.899 238.187 190.694 241.851 191.394 245.891C192.095 249.932 190.856 249.07 190.856 249.07C190.856 249.07 188.916 245.621 185.899 246.215C182.883 246.807 182.236 251.225 183.959 252.194C185.684 253.165 186.816 253.702 186.816 253.702C186.816 253.702 190.537 259.517 189.025 261.001C189.025 261.001 188.324 261.672 186.816 261.001C185.307 260.33 183.367 256.714 178.088 252.677C172.808 248.638 170.169 237.27 181.589 231.776C181.589 231.776 180.296 224.018 191.071 220.194C200.673 216.784 204.824 223.04 205.818 225.589C205.822 225.595 205.823 225.598 205.825 225.603C205.943 225.91 206.015 226.16 206.047 226.335C206.424 228.435 205.515 232.129 205.515 232.129Z" fill="#72351F"/>
<path d="M205.515 232.128L203.645 229.12C203.645 229.12 202.761 226.064 198.343 228.327C197.351 228.835 196.704 229.492 196.179 230.232C196.634 229.485 202.953 219.309 205.818 225.589C205.822 225.594 205.823 225.598 205.825 225.603C205.943 225.91 206.015 226.16 206.047 226.334C206.424 228.435 205.515 232.128 205.515 232.128Z" fill="#54190C"/>
<path d="M203.435 258.549C203.435 258.549 198.936 258.982 194.034 256.881C194.034 256.881 193.639 257.568 196.038 259.831C198.438 262.094 203.851 262.7 203.851 262.7C203.851 262.7 203.422 260.216 203.435 258.549Z" fill="#B78B73"/>
<path d="M205.504 269.527C205.504 269.527 205.994 274.445 202.223 278.97C202.223 278.97 206.263 276.276 212.782 281.071C212.782 281.071 206.092 268.11 205.504 269.527Z" fill="#F5F9FF"/>
<path d="M229.306 316.196C229.306 316.196 214.882 280.37 210.973 277.408C207.065 274.444 202.222 278.969 202.222 278.969C197.051 275.036 189.854 281.609 189.854 281.609C189.854 281.609 189.632 283.827 189.347 287.448C191.551 289.817 194.519 290.174 194.519 290.174C194.519 290.174 195.541 286.565 197.986 283.784C198 283.771 199.349 282.59 200.224 284.68C201.104 286.781 208.936 294.996 207.384 347.214L210.974 346.94C210.974 346.94 211.959 331.225 208.815 311.993C205.67 292.761 203.319 281.178 201.787 281.071C203.293 280.527 205.063 280.426 207.125 281.071C216.337 283.952 231.201 340.236 224.617 344.984C224.617 344.984 224.617 344.984 224.619 344.985C229.489 343.972 233.017 342.763 233.549 341.611C235.005 338.46 229.306 316.196 229.306 316.196Z" fill="#9BC1E9"/>
<path d="M198.155 279.105C198.155 279.105 199.906 284.411 201.684 284.519C203.462 284.627 205.59 283.738 205.913 283.199C206.236 282.66 205.966 279.918 205.266 277.02C205.266 277.02 203.301 278.027 202.223 278.97C202.223 278.97 200.93 277.596 198.155 279.105Z" fill="#CA1017"/>
<path d="M205.607 283.493C205.607 283.493 211.489 300.64 214.398 321.126C217.307 341.611 218.035 349.733 218.035 349.733C218.035 349.733 216.499 356.009 213.59 358.918C213.59 358.918 210.236 352.184 208.815 350.191C208.815 350.191 210.479 304.611 202.102 284.368C202.102 284.368 205.439 283.027 205.607 283.493Z" fill="#E32B2C"/>
<path d="M202.222 278.97C202.222 278.97 201.037 277.623 197.481 276.061C193.926 274.498 191.028 270.672 191.028 270.672C191.028 270.672 189.4 271.05 189.346 273.906C189.292 276.761 193.548 289.799 193.548 289.799C193.548 289.799 197.481 276.384 202.222 278.97Z" fill="#F5F9FF"/>
<path d="M197.792 365.976L177.307 373.613C177.307 373.613 181.185 338.217 179.73 319.186C179.73 319.186 171.784 331.497 171.784 333.059C171.784 334.621 173.615 338.284 174.694 344.48C175.77 350.675 176.849 354.931 176.849 354.931C176.849 354.931 174.963 357.356 170.546 358.487C166.128 359.618 164.78 359.618 164.78 359.618C164.727 359.349 156.625 329.953 157.063 327.672C159.313 315.947 171.286 284.088 176.417 281.072C181.548 278.053 186.519 276.034 186.519 276.034C186.519 276.034 186.517 276.032 186.516 276.028C186.479 275.972 186.211 275.489 187.044 274.013C187.933 272.437 189.337 271.241 189.624 272.221C189.624 272.221 192.498 282.175 194.882 288.437C196.214 291.937 199.124 300.369 200.225 315.712C200.228 315.756 200.232 315.8 200.234 315.846C201.094 327.949 200.829 344.339 197.792 365.976Z" fill="#011158"/>
<path d="M191.717 302.566C192.309 301.489 193.925 293.731 193.925 293.731C192.741 291.63 185.898 289.475 185.898 289.475L186.519 276.034C186.519 276.034 186.517 276.032 186.515 276.028C186.478 275.972 186.21 275.489 187.044 274.013C187.932 272.437 189.336 271.241 189.623 272.221C189.623 272.221 192.497 282.175 194.882 288.437C196.214 291.937 199.123 300.369 200.224 315.712C199.893 311.422 191.717 302.566 191.717 302.566Z" fill="#0B2470"/>
<path d="M187.031 303.914L179.73 319.187L180.057 329.18C180.057 329.18 191.287 298.203 187.031 303.914Z" fill="#010A35"/>
<path d="M165.481 357.572L167.851 363.39C167.851 363.39 172.377 364.252 177.495 359.888L175.825 353.693L165.481 357.572Z" stroke="#6A1100" stroke-miterlimit="10"/>
<path d="M205.993 363.794C205.993 363.794 201.225 366.396 198.114 366.57C195.003 366.743 197.387 369.814 199.852 370.016C202.316 370.218 207.811 368.117 205.993 363.794Z" fill="#9C9C9C"/>
<path d="M203.004 369.733C197.064 371.916 187.347 374.642 187.347 374.642L180.738 376.18L174.431 377.646L172.08 378.193C172.08 378.193 164.539 381.007 153.71 386.663C153.71 386.663 150.977 386.232 149.444 383.379C148.679 381.955 148.214 379.927 148.537 377.047C148.537 377.047 157.76 375.241 168.935 372.239C169.987 371.957 171.057 371.662 172.139 371.359C175.221 370.494 178.395 369.546 181.519 368.527C183.88 367.759 186.211 366.95 188.454 366.104C193.7 364.133 198.458 361.967 201.954 359.673C201.954 359.673 201.057 363.148 201.554 365.458C201.796 366.582 202.365 367.431 203.529 367.47C207.018 367.59 206.035 363.937 205.996 363.798C206.084 363.911 208.853 367.585 203.004 369.733Z" fill="white"/>
<path d="M174.431 377.646L172.08 378.193C172.08 378.193 164.539 381.007 153.71 386.663C153.71 386.663 150.977 386.232 149.444 383.379C154.824 384.154 167.09 379.098 168.498 377.935C170.114 376.603 168.935 372.239 168.935 372.239C169.987 371.957 171.057 371.662 172.139 371.359C172.909 372.471 173.464 374.704 174.236 375.713C174.561 376.14 174.604 376.799 174.431 377.646ZM203.004 369.733C197.064 371.916 187.347 374.642 187.347 374.642L180.738 376.18C180.348 375.363 180.202 374.237 180.377 372.723C180.586 370.917 180.993 369.553 181.518 368.527C183.88 367.759 186.211 366.95 188.454 366.105C188.456 366.106 188.456 366.106 188.456 366.106C188.456 366.106 185.085 368.323 186.033 371.525C186.685 373.72 195.622 369.098 201.553 365.458C201.795 366.582 202.364 367.431 203.529 367.47C207.018 367.59 206.034 363.937 205.996 363.798C206.084 363.911 208.852 367.585 203.004 369.733Z" fill="#D8E2F3"/>
<path d="M187.226 376.239C185.65 378.32 183.992 375.592 183.388 376.563C182.781 377.532 181.245 377.432 180.861 377.229C180.478 377.026 180.114 377.916 179.367 378.522C178.619 379.129 177.426 378.885 176.922 378.744C176.417 378.603 175.992 379.21 175.004 379.673C174.013 380.138 172.963 379.472 172.963 379.472C170.72 376.945 170.221 371.74 170.168 368.184C170.114 364.63 169.252 362.043 169.252 362.043L175.233 359.241C175.233 359.241 176.202 362.231 176.82 362.959C177.441 363.687 183.851 364.952 185.414 365.356C186.976 365.761 187.071 366.57 187.071 366.57C187.071 366.57 184.942 367.592 184.539 368.642C184.174 369.588 184.276 371.552 185.266 373.007C186.257 374.461 187.347 374.642 187.347 374.642C187.43 374.79 187.48 374.94 187.501 375.085C187.597 375.707 187.226 376.239 187.226 376.239Z" fill="#DBA78B"/>
<path d="M187.501 375.084C184.311 376.607 181.881 371.387 182.801 369.047C183.77 366.582 187.071 366.569 187.071 366.569C187.071 366.569 184.942 367.591 184.539 368.642C184.174 369.588 184.276 371.551 185.266 373.006C186.257 374.46 187.347 374.642 187.347 374.642C187.43 374.79 187.479 374.94 187.501 375.084Z" fill="#B78B73"/>
<path d="M239.732 329.179C255.113 360.36 245.954 369.868 245.795 370.029C245.853 369.858 248.984 360.622 240.338 345.611C234.035 334.67 228.056 322.423 223.8 311.998C223.8 311.997 223.8 311.995 223.798 311.993C222.161 307.983 220.778 304.241 219.732 300.95C215.961 289.098 206.195 269.831 206.195 269.831C205.716 267.577 210.199 272.823 210.315 272.959C210.317 272.96 210.317 272.962 210.317 272.962C210.317 272.962 215.287 273.771 218.6 274.499C221.913 275.225 232.223 287.496 232.223 287.496C231.199 284.264 231.125 271.866 231.125 271.866C236.944 269.031 240.944 269.831 240.944 269.831C240.944 269.831 246.399 282.7 248.218 293.789C249.249 300.081 248.646 306.571 247.654 311.115C246.9 314.576 245.92 316.909 245.268 317.167C244.072 317.635 234.278 314.217 234.278 314.217C236.096 323.065 239.732 329.179 239.732 329.179Z" fill="#011158"/>
<path d="M223.799 311.993C222.162 307.983 220.778 304.242 219.732 300.95C215.961 289.098 206.195 269.831 206.195 269.831C205.716 267.577 210.199 272.823 210.315 272.959C210.317 272.96 210.317 272.962 210.317 272.962C210.317 272.962 219.61 285.165 219.409 286.134C219.206 287.105 218.116 290.095 218.116 290.095L223.207 294.136C223.207 294.136 223.506 310.55 223.799 311.993Z" fill="#0B2470"/>
<path d="M247.654 311.116C246.9 314.577 245.92 316.909 245.268 317.167C244.072 317.636 234.278 314.217 234.278 314.217L224.341 289.805C224.574 290.312 237.323 317.949 244.466 315.095C245.45 314.702 247.654 311.116 247.654 311.116Z" fill="#010A35"/>
<path d="M232.223 287.495C232.223 287.495 234.708 302.35 238.587 305.206C238.587 305.206 227.886 298.017 230.22 285.18L232.223 287.495Z" fill="#010A35"/>
<path d="M237.954 272.356C237.793 273.083 232.419 273.205 232.419 273.205L231.531 268.639C231.531 268.639 231.809 268.481 232.234 268.268C233.041 267.862 234.373 267.261 235.318 267.193C235.61 267.173 235.866 267.203 236.056 267.305C237.187 267.912 238.116 271.63 237.954 272.356Z" stroke="#6A1100" stroke-miterlimit="10"/>
<path d="M226.242 242.982L238.964 277.812C238.964 277.812 244.46 276.6 249.066 273.206C249.066 273.206 239.446 258.581 236.943 241.448C236.943 241.448 226.935 240.881 226.242 242.982Z" fill="#D43D31"/>
<path d="M237.654 245.421C237.654 245.421 233.194 246.749 228.362 248.785L226.242 242.981L236.943 241.447L237.654 245.421Z" fill="#AE3229"/>
<path d="M230.722 256.518C230.722 256.518 233.998 262.818 235.318 267.193C234.373 267.262 233.041 267.863 232.234 268.268C231.475 267.197 230.254 265.491 229.348 264.275C227.935 262.378 225.469 260.115 226.479 256.194C227.491 252.275 229.753 248.518 230.884 248.841C232.016 249.165 236.5 249.124 236.863 249.769C237.228 250.416 236.46 252.881 232.176 253.285C232.176 253.285 231.531 256.034 230.722 256.518Z" fill="#DBA78B"/>
<path d="M244.821 259.138C244.827 259.114 244.837 259.091 244.842 259.067C244.998 258.253 244.927 256.59 243.666 256.35C244.001 256.04 244.254 255.703 244.395 255.365C244.882 254.191 244.027 252.542 243.388 252.511C243.388 252.511 243.154 252.463 242.747 252.48C242.863 252.104 242.952 251.357 242.419 250.277C242.419 250.277 241.3 248.687 239.278 249.796C237.257 250.904 235.73 251.621 235.956 252.3C236.181 252.979 236.567 253.716 238.967 253.641C239.171 253.635 239.363 253.622 239.55 253.606C238.923 254.003 238.496 254.392 237.616 254.901C236.276 255.676 237.897 257.696 239.999 257.701C240.611 257.703 241.197 257.603 241.733 257.434C241.06 258.053 240.224 258.766 239.669 259.047C238.604 259.587 239.508 261.199 241.167 261.105C241.758 261.072 242.369 260.925 242.921 260.708C242.903 260.87 242.905 261.043 242.935 261.229C243.169 262.69 244.703 262.755 245.39 262.206C245.993 261.724 246.207 259.589 244.821 259.138Z" fill="#DBA78B"/>
<path d="M271.595 233.987C271.595 233.987 242.599 240.153 223.205 246.942L219.681 236.045C219.681 236.045 251.323 216.073 258.601 205.407C258.601 205.617 258.632 227.367 271.595 233.987Z" fill="#F65B4D"/>
<path d="M211.568 241.256L220.538 234.306L226.017 246.976L216.093 249.822L211.568 241.256Z" fill="#F5CE7F"/>
</svg>
