<svg width="640" height="344" viewBox="0 0 640 344" fill="none" xmlns="http://www.w3.org/2000/svg">
<path d="M625.477 337.125H48.9712L104.886 75.9792C109.706 53.4665 131.47 38.1322 155.227 40.5112L527.414 77.7816C546.915 79.7345 563.052 93.2546 567.739 111.577L625.477 337.125Z" fill="#E3EEFD"/>
<path d="M210.609 45.6668V95.8873C210.609 99.4917 213.531 102.413 217.135 102.413C306.501 98.8011 301.213 120.269 300.471 55.0549L210.609 45.6668Z" fill="#A4C4FF"/>
<path d="M327.436 54.2482V65.0607C327.436 67.3317 329.276 69.1719 331.547 69.1719H384.926C390.476 68.9299 389.784 63.4252 389.734 59.439L327.436 54.2482Z" fill="#A4C4FF"/>
<path d="M470.377 298.182C469.086 295.129 467.487 292.249 465.604 289.56L474.593 280.572L460.66 266.642L451.174 276.128C446.799 273.512 441.923 271.589 436.947 270.532V256.822H417.245V270.532C412.269 271.589 407.39 273.512 403.015 276.128L393.532 266.642L379.6 280.572L388.588 289.56C385.479 293.987 383.117 299.046 381.716 304.283H369.776V323.981H380.716C381.415 328.318 382.732 332.576 384.634 336.566H400.437C383.718 315.562 400.191 282.38 427.098 283.086C453.995 282.378 470.48 315.567 453.759 336.566H469.555C471.461 332.576 472.777 328.318 473.476 323.981H484.416V304.283H472.476C471.92 302.211 471.221 300.175 470.377 298.182Z" fill="#A4C4FF"/>
<path d="M468.359 255.05C448.616 254.457 448.619 225.773 468.359 225.18C488.106 225.776 488.1 254.46 468.359 255.05ZM489.111 243.478H494.006V234.666H488.663C488.037 232.321 486.979 230.059 485.589 228.077L489.612 224.058L483.379 217.825L479.132 222.069C477.179 220.9 474.998 220.039 472.767 219.565V213.433H463.955V219.565C461.728 220.039 459.547 220.9 457.59 222.069L453.344 217.825L447.111 224.058L451.133 228.077C449.739 230.059 448.685 232.321 448.056 234.666H442.716V243.478H447.611C448.026 246.077 448.959 248.625 450.313 250.887L447.111 254.086L453.344 260.319L456.318 257.342C458.595 258.938 461.234 260.09 463.955 260.668V264.712H472.767V260.668C475.485 260.09 478.127 258.938 480.401 257.342L483.379 260.319L489.612 254.086L486.41 250.887C487.764 248.625 488.696 246.077 489.111 243.478Z" fill="#A4C4FF"/>
<path d="M199.999 198.968C202.078 160.801 256.933 166.26 252.662 204.21H199.999V198.968ZM270.797 204.21H258.441C262.077 154.905 190.572 154.934 194.22 204.21H178.343L159.93 337.254H294.305L270.797 204.21Z" fill="#A4C4FF"/>
<path d="M147.252 324.567C209.004 285.372 224.266 273.51 235.084 198.873H276.929L285.212 344L151.199 343.563L147.252 324.567Z" fill="#739BFD"/>
<path d="M441.18 337.125H388.485C389.596 337.125 390.661 336.928 391.647 336.567H400.435C399.096 334.885 397.97 333.123 397.045 331.308C397.46 330.261 397.689 329.116 397.689 327.918V301.13C403.053 290.8 413.42 283.074 426.255 283.074C426.535 283.074 426.813 283.078 427.097 283.086C427.378 283.078 427.661 283.074 427.942 283.074C433.041 283.074 437.75 284.294 441.912 286.414C440.612 293.323 437.85 300.571 432.181 304.795L454.424 319.411C454.424 319.411 443.929 330.163 435.18 332.037L441.18 337.125ZM403.017 276.128L397.689 270.801V259.343L412.782 246.012C412.782 246.012 415.479 259.688 413.929 271.367C410.115 272.482 406.413 274.095 403.017 276.128ZM442.977 272.253C441.003 271.543 438.983 270.965 436.947 270.532V269.769L442.785 268.558C442.785 268.558 442.925 269.966 442.977 272.253Z" fill="#D5E5FD"/>
<path d="M400.436 336.566H391.646C394.109 335.666 396.083 333.74 397.046 331.307C397.97 333.123 399.094 334.885 400.436 336.566ZM397.69 301.13V270.8L403.015 276.128C406.415 274.095 410.115 272.482 413.929 271.367C413.78 272.487 413.595 273.588 413.362 274.656L436.949 269.768V270.532C438.982 270.964 441.004 271.543 442.978 272.253C443.058 275.625 442.945 280.911 441.91 286.414C437.748 284.294 433.039 283.073 427.941 283.073C427.663 283.073 427.377 283.078 427.097 283.086C426.813 283.078 426.536 283.073 426.253 283.073C413.419 283.073 403.054 290.799 397.69 301.13Z" fill="#A4C4FF"/>
<path d="M505.205 135.712L493.013 159.662L511.202 161.539L505.205 135.712Z" fill="#DF4930"/>
<path d="M484.26 108.436L500.618 146.646L487.685 149.104L479.345 117.468L484.26 108.436Z" fill="#FFB6A6"/>
<path d="M480.924 128.033C480.924 128.033 488.741 139.535 498.887 139.07L503.352 148.623L484.369 146.468L480.924 128.033Z" fill="#FF8370"/>
<path d="M477.521 104.142L472.946 115.929C472.625 116.762 473.109 117.69 473.978 117.901L478.783 119.069C479.503 119.245 480.243 118.857 480.512 118.164L485.839 104.328L477.521 104.142Z" fill="#38385C"/>
<path d="M456.645 74.8443L488.071 96.4593C489.556 97.4686 490.263 99.2953 489.837 101.042C489.383 102.905 487.754 104.244 485.84 104.328L448.336 105.969L456.645 74.8443Z" fill="#FF8370"/>
<path d="M452.619 90.2737C453.279 87.0801 457.834 86.3238 459.527 89.0482C462.455 69.4494 448.082 69.6416 443.772 88.1226C439.112 106.517 451.791 113.291 458.191 94.5342C455.437 96.178 451.738 93.4129 452.619 90.2737Z" fill="#38385C"/>
<path d="M459.526 89.0481C457.833 86.324 453.28 87.0799 452.617 90.2735C451.739 93.4131 455.435 96.1778 458.191 94.534C458.774 92.7987 459.245 90.8571 459.526 89.0481Z" fill="#F85C3D"/>
<path d="M470.817 84.5892C470.817 84.5892 473.702 93.2845 465.802 105.205L469.862 105.027C469.862 105.027 476.075 98.9489 474.925 87.4153L470.817 84.5892Z" fill="#38385C"/>
<path d="M487.287 115.513C487.287 115.513 486.178 107.35 484.87 106.561C480.8 104.104 477.742 104.892 478.263 106.115C478.5 106.672 481.741 108.906 481.741 108.906C481.741 108.906 481.578 115.38 481.409 115.837C481.002 116.931 487.287 115.513 487.287 115.513Z" fill="#FFB6A6"/>
<path d="M476.493 106.52C476.493 106.52 480.514 107.69 480.514 108.286C480.514 108.881 478.08 113.808 477.376 113.97C476.67 114.133 473.962 113.782 473.805 113.445C472.796 111.925 475.205 107.216 476.493 106.52Z" fill="#FFB6A6"/>
<path d="M581.094 312.009C581.094 312.009 576.583 318.159 569.178 313.402L557.564 329.351C555.945 331.696 555.973 334.807 557.63 337.125L584.655 321.022C585.606 320.455 586.363 319.132 586.363 317.986C586.606 316.597 581.786 312.976 581.094 312.009Z" fill="#38385C"/>
<path d="M566.788 306.074L570.272 314.037C570.272 314.037 576.681 317.558 581.092 312.009L576.524 300.447L566.788 306.074Z" fill="#FFB6A6"/>
<path d="M569.178 313.402L580.002 306.816L577.82 300.959L565.872 307.792L569.178 313.402Z" fill="#FF8370"/>
<path d="M556.219 234.298C566.066 188.021 547.978 180.992 547.978 180.992H515.744L494.979 313.432L512.197 314.82C513.093 313.054 530.434 241.438 533.2 243.093L565.483 309.398L581.529 304.241L556.219 234.298Z" fill="#38385C"/>
<path d="M533.199 243.093L520.505 212.164C520.505 212.164 520.515 239.411 530.098 247.906L533.199 243.093Z" fill="#1A1A35"/>
<path d="M515.076 87.5124C526.936 75.6716 544.268 115.414 545.206 116.569C586.335 136.63 544.515 155.471 515.087 144.41C507.296 142.421 501.621 135.71 500.991 127.695C499.837 112.936 500.536 90.366 515.076 87.5124Z" fill="#38385C"/>
<path d="M507.583 105.238C510.627 76.5937 538.626 95.1098 526.387 115.269L529.317 129.668L518.448 131.574L517.017 119.806C511.69 118.857 507.583 112.699 507.583 105.238Z" fill="#FFB6A6"/>
<path d="M530.956 106.359C530.956 106.359 522.893 104.284 520.231 102.016L522.921 104.676C522.921 104.676 514.646 102.715 512.817 97.6548C512.817 97.6548 509.547 101.754 509.241 105.156C508.708 100.996 506.787 92.0998 514.738 90.9823L530.222 103.404L530.956 106.359Z" fill="#FF8370"/>
<path d="M526.386 115.269C526.386 115.269 523.66 118.964 518.449 119.672C518.449 119.672 524.378 121.352 528.184 119.406L526.386 115.269Z" fill="#FF8370"/>
<path d="M514.453 114.345C514.453 114.345 518.083 114.13 519.369 112.197C519.369 112.197 518.8 115.663 516.675 115.99C514.639 116.303 514.453 114.345 514.453 114.345Z" fill="white"/>
<path d="M516.519 89.3017C516.519 89.3017 515.981 104.058 529.314 104.444C529.314 104.444 529.827 87.305 516.519 89.3017Z" fill="#38385C"/>
<path d="M516.966 90.6751C516.966 90.6751 516.617 99.9122 520.506 103.402C520.506 103.402 513.447 99.6833 514.574 91.501C514.574 91.501 514.913 90.6506 516.966 90.6751Z" fill="#38385C"/>
<path d="M515.694 90.5018C515.694 90.5018 509.867 98.3281 509.514 103.404C509.514 103.404 509.305 95.2646 511.831 90.6763L515.694 90.5018Z" fill="#38385C"/>
<path d="M514.45 185.207C514.45 185.207 503.576 149.258 503.957 140.296C504.339 131.335 517.146 124.268 517.146 124.268L528.013 122.362C528.013 122.362 546.895 123.252 550.957 135.877C555.014 148.501 554.49 185.207 554.49 185.207H514.45Z" fill="#F85C3D"/>
<path d="M505.105 164.258C505.105 164.258 541.161 178.046 559.885 177.792V187.786H511.205L505.105 164.258Z" fill="#DF4930"/>
<path d="M533.194 143.339L527.647 137.797L529.231 143.339H533.194Z" fill="#DF4930"/>
<path d="M569.724 143.34H488.655V127.81C488.655 125.177 485.761 123.571 483.524 124.964L433.474 156.156C431.365 157.469 431.365 160.537 433.474 161.85L483.524 193.042C485.761 194.436 488.655 192.828 488.655 190.197V174.666H569.724V143.34Z" fill="#3875FF"/>
<path d="M520.971 170.534C520.971 170.534 516.451 169.746 516.628 168.84C516.852 167.696 525.283 168.208 525.283 168.208C528.709 166.305 560.936 147.094 563.636 146.469C568.319 150.767 573.55 155.491 567.721 161.592C566.9 162.322 565.924 162.866 564.873 163.183L528.645 174.06C528.645 174.06 522.76 178.414 521.935 178.494C517.029 178.973 514.174 175.288 513.621 174.668C513.069 174.048 520.971 170.534 520.971 170.534Z" fill="#FFB6A6"/>
<path d="M570.666 149.336C570.666 149.336 567.622 153.299 549.419 152.223L565.349 142.368L570.666 149.336Z" fill="#FF8370"/>
<path d="M545.128 128.034L564.947 145.851L546.179 155.867C530.492 139.669 524.697 144.192 545.128 128.034Z" fill="#F85C3D"/>
<path d="M533.188 143.34C533.188 143.34 545.126 151.827 553.497 151.961C561.869 152.093 553.497 151.961 553.497 151.961L546.039 157.181C546.039 157.181 534.495 146.722 533.188 143.34Z" fill="#DF4930"/>
<path d="M507.475 327.115C507.475 327.115 500.491 330.185 496.461 322.364L478.424 330.358C475.846 331.581 474.313 334.287 474.591 337.125L506.047 336.701C507.153 336.686 508.469 335.92 509.042 334.927C509.948 333.846 507.587 328.299 507.475 327.115Z" fill="#38385C"/>
<path d="M497.71 313.651L497.086 323.459C497.086 323.459 500.873 329.714 507.475 327.115L509.699 314.618L497.71 313.651Z" fill="#FFB6A6"/>
<path d="M495.752 316.507L509.891 320.545C509.891 320.545 511.767 312.414 511.048 312.009C510.326 311.601 497.085 312.009 497.085 312.009L495.752 316.507Z" fill="#FF8370"/>
<path d="M516.931 185.208C516.931 185.208 542.287 195.272 556.713 192.673C556.713 192.673 555.87 188.773 552.846 185.208H516.931Z" fill="#1A1A35"/>
<path d="M454.422 319.411C442.305 308.766 428.826 307.463 419.995 308.117C439.906 300.205 442.854 267.907 442.854 267.907C417.84 272.412 408.957 279.281 406.19 282.222C415.06 269.962 412.781 246.012 412.781 246.012C391.808 261.43 386.248 275.53 386.248 275.53L388.481 337.125H436.174C436.174 337.125 431.823 334.639 425.607 331.449C443.013 326.266 454.422 319.411 454.422 319.411Z" fill="#A7BD37"/>
<path d="M403.507 253.576L403.25 329.098C402.595 341.617 390.342 339.862 381.385 339.528L382.99 255.123L403.507 253.576Z" fill="#3E5409"/>
<path d="M389.975 285.256C402.299 276.483 412.519 247.791 412.438 245.912C412.55 245.475 413.269 245.654 413.129 246.11C412.155 253.028 398.255 283.645 389.975 285.256Z" fill="#3E5409"/>
<path d="M390.795 308.154C390.417 308.159 390.288 307.58 390.676 307.454C409.398 301.084 441.891 267.409 443.109 267.653C443.332 268.854 409.204 301.375 390.795 308.154Z" fill="#3E5409"/>
<path d="M390.796 322.722C390.424 322.735 390.287 322.154 390.668 322.027C410.73 314.94 454.198 318.34 454.78 319.445C453.972 320.387 410.742 314.991 390.796 322.722Z" fill="#3E5409"/>
<path d="M261.094 337.125H193.337C193.337 337.125 207.112 330.692 215.502 329.299C215.502 329.299 192.224 324.352 182.767 309.078C182.767 309.078 213.689 301.222 221.579 299.624C221.579 299.624 203.447 292.522 200.672 277.961H231.653C231.653 277.961 218.504 261.774 218.389 250.894C218.389 250.894 236.448 251.934 251.727 266.171L261.094 337.125Z" fill="#3875FF"/>
<path d="M254.768 269.329C254.768 269.329 243.718 255.519 219.2 251.375C219.2 251.375 224.734 273.614 238.649 277.961C238.649 277.961 221.545 272.455 200.672 277.961C200.672 277.961 210.529 298.252 238.069 300.859C238.069 300.859 201.541 298.54 184.438 308.397C184.438 308.397 210.819 329.931 239.228 329.743C239.228 329.743 214.007 331.07 202.122 337.125H258.721L254.768 269.329Z" fill="#A7BD37"/>
<path d="M245.424 258.574L244.746 329.008C245.165 339.219 253.887 340.175 262.109 339.599L259.786 263.143L245.424 258.574Z" fill="#3E5409"/>
<path d="M252.686 277.24C236.416 270.549 218.577 252.205 218.958 251.109C220.124 250.858 236.179 270.217 252.82 276.545C253.179 276.669 253.074 277.257 252.686 277.24Z" fill="#3E5409"/>
<path d="M252.181 294.609C249.426 295.558 203.44 280.606 200.337 277.831C201.239 277.068 240.187 293.24 252.208 293.889C252.645 293.911 252.64 294.621 252.181 294.609Z" fill="#3E5409"/>
<path d="M249.517 320.782C227.939 312.624 184.712 309.447 184.08 308.363C183.7 307.79 231.407 311.955 249.517 320.782Z" fill="#3E5409"/>
<path d="M573.029 52.9095L568.152 3.68302C567.929 1.43736 565.929 -0.199646 563.684 0.0196304L514.449 4.90038C512.204 5.11965 510.563 7.12334 510.786 9.36522L515.663 58.5936C515.886 60.8381 517.886 62.4778 520.132 62.2551L531.167 61.1622L532.297 69.1289C532.607 71.333 535.363 72.153 536.83 70.4786L546.308 59.6616L569.366 57.377C571.612 57.1547 573.252 55.1548 573.029 52.9095Z" fill="#E3EEFD"/>
<path d="M556.013 41.282C556.304 40.5683 556.453 39.3522 556.471 37.6338C556.322 35.3928 556.717 33.3822 554.67 33.2456C551.982 33.7456 552.652 39.7293 553.158 41.5347C553.709 42.9761 555.559 42.6344 556.013 41.282ZM562.614 40.8978C561.206 45.7044 555.63 48.3753 550.966 46.9864C545.966 45.5584 545.11 39.1039 546.599 34.7864C548.162 29.0376 556.747 26.15 560.987 30.2925C563.418 32.4438 563.801 37.6197 562.614 40.8978ZM550.47 12.3734L555.332 11.8634L535.442 49.287L530.677 49.7881L550.47 12.3734ZM532.766 27.1581C533.212 25.6508 534.121 18.9635 531.422 19.1455C528.742 19.6462 529.393 25.5946 529.911 27.4343C530.465 28.8831 532.315 28.5332 532.766 27.1581ZM537.616 29.9854C534.955 33.45 527.997 34.5567 524.93 31.3199C521.684 28.3303 522.071 20.7533 525.049 17.5739C527.711 14.1119 534.668 13.0025 537.739 16.2412C540.985 19.2304 540.594 26.8074 537.616 29.9854Z" fill="#739BFD"/>
<path d="M222.592 322.364L218.199 312.734L206.192 315.138L212.442 327.401C216.918 329.182 223.582 330.593 222.592 322.364Z" fill="#FFB6A6"/>
<path d="M223.793 315.137L206.193 322.363L201.673 312.734L218.431 310.589L223.793 315.137Z" fill="#FF8370"/>
<path d="M211.578 327.115C211.578 327.115 218.563 330.185 222.592 322.363L240.628 330.358C243.206 331.58 244.738 334.287 244.46 337.125C244.399 337.123 212.989 336.7 212.945 336.698C211.83 336.654 210.529 335.88 209.977 334.87C209.123 333.821 211.476 328.259 211.578 327.115Z" fill="#38385C"/>
<path d="M113.63 162.697L112.131 175.118L93.7158 201.64L105.175 203.17L123.054 182.935L125.625 162.697H113.63Z" fill="#FFB6A6"/>
<path d="M111.706 164.391L121.542 169.201L121.263 160.947L112.61 160.762L111.706 164.391Z" fill="#FF8370"/>
<path d="M119.875 179.345C119.39 179.96 97.4653 201.978 97.4653 201.978C97.4653 201.978 118.711 193.829 119.875 189.854C121.039 185.876 119.875 179.345 119.875 179.345Z" fill="#FF8370"/>
<path d="M121.602 162.698H111.706L115.147 141.484L123.484 135.856L121.602 162.698Z" fill="#F85C3D"/>
<path d="M127.366 96.6436L121.167 115.637C120.049 119.063 122.304 122.668 125.875 123.161L135.712 124.518L138.943 140.519H154.558L143.06 96.6436H127.366Z" fill="#FFB6A6"/>
<path d="M120.878 120.313C120.878 120.313 128.563 122.306 137.262 119.471C137.262 119.471 135.36 122.775 135.895 125.425C136.43 128.075 135.895 125.425 135.895 125.425C135.895 125.425 122.086 125.086 120.878 120.313Z" fill="#FF8370"/>
<path d="M123.529 100.077C123.529 100.077 125.495 107.777 140.501 107.186C155.507 106.595 140.501 107.186 140.501 107.186L128.124 94.8621L123.529 100.077Z" fill="#FF8370"/>
<path d="M128.043 96.6434C128.043 96.6434 134.943 106.283 140.501 107.186L141.592 103.706C141.592 103.706 145.88 107.237 142.334 111.081C142.334 111.081 143.765 116.496 148.73 118.28C149.264 114.78 156.706 90.3229 147.973 85.425L148.562 89.2955C146.939 85.8277 139.217 84.034 131.416 83.9584L134.509 86.0986C128.516 84.5099 118.218 87.7117 119.025 96.6434L122.98 92.6607C122.98 92.6607 120.372 96.9533 122.56 102.505C122.56 102.505 127.383 99.279 128.043 96.6434Z" fill="#38385C"/>
<path d="M119.141 204.354L101.942 251.473C97.7986 253.464 122.205 311.631 122.563 315.138H138.82L131.402 254.843L141.709 235.113L177.112 273.69L204.382 317.043L221.991 313.39L202.644 261.554L167.484 204.379L119.141 204.354Z" fill="#38385C"/>
<path d="M141.947 204.367C141.947 204.367 129.861 222.589 111.084 226.425C111.084 226.425 141.016 226.826 149.512 204.355L141.947 204.367Z" fill="#1A1A35"/>
<path d="M115.147 204.398H169.519L163.252 140.636C161.396 126.348 148.222 126.755 136.994 127.216C129.409 127.216 123.038 132.922 122.206 140.46L115.147 204.398Z" fill="#F85C3D"/>
<path d="M130.908 215.534C154.775 196.24 158.015 158.148 137.749 135.104L107.975 99.8016L85.7147 118.568C100.061 138.411 140.87 167.873 112.136 193.275C82.2742 217.318 60.0314 172.059 42.9515 154.622L20.6909 173.391L50.4647 208.693C69.7602 232.558 107.859 235.796 130.908 215.534Z" fill="#38385C"/>
<path d="M92.0646 113.214L124.404 152.628C124.404 152.628 140.83 174.331 117.951 198.673C117.951 198.673 104.991 213.042 82.4505 204.833C71.4317 202.478 45.0376 166.965 36.9683 159.666C36.9683 159.666 83.4847 116.621 92.0646 113.214Z" fill="#1A1A35"/>
<path d="M85.7139 118.568L107.975 99.8014L95.9898 85.5911L73.729 104.358L85.7139 118.568Z" fill="#F85C3D"/>
<path d="M92.0655 113.214L80.0789 99.0058L73.7295 104.358L85.7144 118.568L92.0655 113.214Z" fill="#DF4930"/>
<path d="M20.6905 173.391L42.9511 154.622L30.9661 140.412L8.70557 159.181L20.6905 173.391Z" fill="#F85C3D"/>
<path d="M36.969 159.666L24.8413 145.575L30.9662 140.411L42.9511 154.622L36.969 159.666Z" fill="#DF4930"/>
<path d="M159.93 132.635L183.59 165.807L162.942 179.346L159.93 132.635Z" fill="#F85C3D"/>
<path d="M123.857 201.397C123.672 200.618 133.855 196.835 133.855 196.835L177.091 170.067C179.801 174.816 185.159 180.995 181.933 186.127C180.735 188.524 178.684 190.383 176.183 191.345L139.438 205.321C133.528 211.758 133.169 214.77 123.868 210.521C123.656 210.201 126.637 206.172 129.396 202.568C126.586 202.922 124.015 202.058 123.857 201.397Z" fill="#FFB6A6"/>
<path d="M161.475 179.346C161.475 179.346 178.867 177.836 180.28 173.799L175.941 167.444L161.475 179.346Z" fill="#FF8370"/>
<path d="M161.864 179.497L147.251 150.978C147.251 150.978 154.576 167.17 149.057 187.423L161.864 179.497Z" fill="#DF4930"/>
<path d="M137.063 327.115L134.712 315.137H123.672L126.717 324.723C126.717 324.723 131.783 330.414 137.063 327.115Z" fill="#FFB6A6"/>
<path d="M137.062 320.466L123.487 317.501L122.606 314.258L135.718 313.84L137.062 320.466Z" fill="#FF8370"/>
<path d="M137.063 327.115C137.063 327.115 130.078 330.185 126.05 322.363L108.013 330.358C105.436 331.58 103.903 334.287 104.181 337.125L135.637 336.7C136.743 336.686 138.06 335.919 138.633 334.926C139.539 333.845 137.178 328.298 137.063 327.115Z" fill="#38385C"/>
<path d="M58.9487 55.0551C59.2806 74.4926 88.199 74.4902 88.5282 55.0551C88.1964 35.6175 59.2779 35.6199 58.9487 55.0551Z" fill="#E3EEFD"/>
<path d="M68.8448 55.9186C64.7628 51.9213 67.9299 44.2976 73.7397 44.5001C79.5475 44.2976 82.7178 51.9213 78.6338 55.9186C92.0371 60.9263 88.2835 81.8598 73.7387 81.6572C59.1958 81.8598 55.4405 60.9214 68.8448 55.9186Z" fill="#739BFD"/>
<path d="M57.9505 103.786C63.4738 120.298 88.1718 112.503 83.2137 95.8138C77.6906 79.3022 52.9926 87.0992 57.9505 103.786Z" fill="#E3EEFD"/>
<path d="M66.6349 101.856C62.0709 99.5424 62.721 92.1773 67.7374 90.7839C72.6435 89.0463 77.4062 94.7056 74.9956 99.2178C87.7929 99.884 90.2303 118.775 77.7532 122.521C65.3866 126.613 56.5356 109.743 66.6349 101.856Z" fill="#739BFD"/>
<path d="M4.10156 144.468C4.32949 157.821 24.1951 157.819 24.4213 144.468C24.1932 131.114 4.32754 131.116 4.10156 144.468Z" fill="#E3EEFD"/>
<path d="M10.8983 145.061C8.09428 142.315 10.2699 137.078 14.2609 137.217C18.2506 137.078 20.4284 142.315 17.623 145.061C26.8305 148.499 24.252 162.883 14.2601 162.744C4.26998 162.88 1.69026 148.499 10.8983 145.061Z" fill="#739BFD"/>
<path d="M0.697523 105.453C7.90712 131.28 46.5033 121.213 40.1769 95.1574C32.9675 69.3309 -5.62865 79.3975 0.697523 105.453Z" fill="#E3EEFD"/>
<path d="M14.2048 103.163C7.36521 99.2485 8.93851 87.9715 16.7631 86.2193C24.4446 83.9278 31.3299 93.0011 27.2703 99.7561C46.9026 101.774 49.1807 131.022 29.6973 135.815C10.3571 141.145 -1.94359 114.506 14.2048 103.163Z" fill="#739BFD"/>
<path d="M639.801 338.25H35.9663V335.997H639.801V338.25Z" fill="#38385C"/>
<path d="M383.241 65.1372H334.894C333.195 65.1372 331.818 63.7597 331.818 62.061V16.7109C331.818 15.0148 333.195 13.6374 334.894 13.6374H383.241C384.937 13.6374 386.315 15.0148 386.315 16.7109V62.061C386.315 63.7597 384.937 65.1372 383.241 65.1372Z" fill="#E3EEFD"/>
<path d="M346.874 28.5471C346.874 28.5471 349.565 41.855 367.363 39.6112L376.951 46.8364C378.037 47.6094 378.383 48.9562 378.28 50.228H359.755C358.119 50.228 356.555 49.5585 355.425 48.372L346.874 39.3889V50.228H343.435C343.435 50.228 344.177 41.7051 341.561 38.5668C341.561 38.5668 340.295 33.7819 346.874 28.5471Z" fill="#739BFD"/>
<path d="M449.479 204.069C449.364 210.788 439.37 210.788 439.255 204.067C439.37 197.349 449.367 197.349 449.479 204.069Z" fill="#D1DAF7"/>
<path d="M426.101 119.479C426.087 123.25 420.351 123.25 420.334 119.479C420.351 115.709 426.087 115.709 426.101 119.479Z" fill="#D1DAF7"/>
<path d="M590.507 243.334C590.344 252.967 576.015 252.964 575.852 243.334C576.015 233.705 590.344 233.705 590.507 243.334Z" fill="#D1DAF7"/>
<path d="M226.33 139.253C226.311 143.694 219.556 143.694 219.536 139.253C219.556 134.811 226.311 134.811 226.33 139.253Z" fill="#D1DAF7"/>
<path d="M168.207 72.0912C168.114 77.5308 160.022 77.5308 159.93 72.0912C160.023 66.6516 168.115 66.654 168.207 72.0912Z" fill="#D1DAF7"/>
<path d="M91.5482 291.803C91.3749 301.945 76.2875 301.943 76.1157 291.803C76.289 281.663 91.3764 281.666 91.5482 291.803Z" fill="#D1DAF7"/>
<path d="M258.72 337.126H388.482C393.564 337.126 397.687 333.004 397.687 327.918V83.245C397.687 78.1624 393.564 74.0396 388.482 74.0396H258.72C253.637 74.0396 249.514 78.1624 249.514 83.245V327.918C249.514 333.004 253.637 337.126 258.72 337.126Z" fill="#38385C"/>
<path d="M386.111 317.778H261.092V93.3853H386.111V317.778Z" fill="#B9D4FD"/>
<path d="M296.274 172.133H273.464C271.426 172.133 269.774 170.481 269.774 168.446V145.638C269.774 143.6 271.426 141.951 273.464 141.951H296.274C298.312 141.951 299.964 143.6 299.964 145.638V168.446C299.964 170.481 298.312 172.133 296.274 172.133Z" fill="#E3EEFD"/>
<path d="M335.007 172.133H312.197C310.159 172.133 308.507 170.481 308.507 168.446V145.638C308.507 143.6 310.159 141.951 312.197 141.951H335.007C337.045 141.951 338.697 143.6 338.697 145.638V168.446C338.697 170.481 337.045 172.133 335.007 172.133Z" fill="#E3EEFD"/>
<path d="M373.74 172.134H350.93C348.89 172.134 347.242 170.482 347.242 168.446V145.639C347.242 143.602 348.89 141.95 350.93 141.95H373.74C375.775 141.95 377.429 143.602 377.429 145.639V168.446C377.429 170.482 375.775 172.134 373.74 172.134Z" fill="#E3EEFD"/>
<path d="M296.274 214.887H273.464C271.426 214.887 269.774 213.235 269.774 211.199V188.392C269.774 186.354 271.426 184.704 273.464 184.704H296.274C298.312 184.704 299.964 186.354 299.964 188.392V211.199C299.964 213.235 298.312 214.887 296.274 214.887Z" fill="#E3EEFD"/>
<path d="M335.007 214.887H312.197C310.159 214.887 308.507 213.235 308.507 211.199V188.392C308.507 186.354 310.159 184.704 312.197 184.704H335.007C337.045 184.704 338.697 186.354 338.697 188.392V211.199C338.697 213.235 337.045 214.887 335.007 214.887Z" fill="#E3EEFD"/>
<path d="M373.74 214.887H350.93C348.89 214.887 347.242 213.234 347.242 211.199V188.392C347.242 186.354 348.89 184.704 350.93 184.704H373.74C375.775 184.704 377.429 186.354 377.429 188.392V211.199C377.429 213.234 375.775 214.887 373.74 214.887Z" fill="#E3EEFD"/>
<path d="M296.274 257.64H273.464C271.426 257.64 269.774 255.99 269.774 253.952V231.144C269.774 229.109 271.426 227.457 273.464 227.457H296.274C298.312 227.457 299.964 229.109 299.964 231.144V253.952C299.964 255.99 298.312 257.64 296.274 257.64Z" fill="#E3EEFD"/>
<path d="M335.007 257.64H312.197C310.159 257.64 308.507 255.99 308.507 253.952V231.144C308.507 229.109 310.159 227.457 312.197 227.457H335.007C337.045 227.457 338.697 229.109 338.697 231.144V253.952C338.697 255.99 337.045 257.64 335.007 257.64Z" fill="#E3EEFD"/>
<path d="M373.74 257.639H350.93C348.89 257.639 347.242 255.99 347.242 253.952V231.144C347.242 229.109 348.89 227.457 350.93 227.457H373.74C375.775 227.457 377.429 229.109 377.429 231.144V253.952C377.429 255.99 375.775 257.639 373.74 257.639Z" fill="#E3EEFD"/>
<path d="M373.741 172.134H362.364L377.429 157.199V168.446C377.429 170.482 375.776 172.134 373.741 172.134Z" fill="#E9F1FD"/>
<path d="M335.008 214.887H319.243L338.698 195.6V211.199C338.698 213.235 337.046 214.887 335.008 214.887Z" fill="#E9F1FD"/>
<path d="M373.74 214.886H350.93C348.89 214.886 347.242 213.234 347.242 211.199V188.391C347.242 187.8 347.381 187.242 347.626 186.746L349.31 185.075C349.798 184.838 350.347 184.704 350.93 184.704H373.74C375.775 184.704 377.429 186.353 377.429 188.391V211.199C377.429 213.234 375.775 214.886 373.74 214.886Z" fill="#E9F1FD"/>
<path d="M296.274 257.64H276.119L299.964 234V253.953C299.964 255.99 298.312 257.64 296.274 257.64Z" fill="#E9F1FD"/>
<path d="M335.008 257.64H312.198C310.16 257.64 308.508 255.99 308.508 253.953V231.145C308.508 229.11 310.16 227.458 312.198 227.458H335.008C337.046 227.458 338.698 229.11 338.698 231.145V253.953C338.698 255.99 337.046 257.64 335.008 257.64Z" fill="#E9F1FD"/>
<path d="M373.74 257.64H350.93C348.89 257.64 347.242 255.99 347.242 253.952V231.145C347.242 229.109 348.89 227.457 350.93 227.457H373.74C375.775 227.457 377.429 229.109 377.429 231.145V253.952C377.429 255.99 375.775 257.64 373.74 257.64Z" fill="#E9F1FD"/>
<path d="M389.897 93.3866L267.379 99.0045L263.224 317.133H256.074V89.564L389.897 93.3866Z" fill="#739BFD"/>
<path d="M257.824 118.92C257.824 118.92 272.915 124.388 281.952 115.545C286.175 122.537 299.348 120.513 302.81 114.6C306.93 121.382 319.443 121.471 323.6 114.708C327.733 121.65 340.583 120.645 344.529 114.49C349.868 121.526 360.73 120.505 365.39 113.61C372.445 122.406 384.761 118.212 388.32 109.222V99.897H256.537L257.824 118.92Z" fill="#739BFD"/>
<path d="M334.609 85.7573H310.96C309.822 85.7573 308.902 84.8349 308.902 83.6977C308.902 82.5605 309.822 81.6404 310.96 81.6404H334.609C335.746 81.6404 336.669 82.5605 336.669 83.6977C336.669 84.8349 335.746 85.7573 334.609 85.7573Z" fill="white"/>
<path d="M271.524 115.544C259.075 115.088 261.101 102.069 261.094 93.3785C261.028 91.3018 263.143 89.6082 264.818 89.7253C265.152 89.7253 281.954 89.7253 281.954 89.7253C281.527 98.618 285.197 115.269 271.524 115.544Z" fill="#F85C3D"/>
<path d="M292.381 115.544C278.708 115.276 282.378 98.596 281.953 89.7253H302.811C302.384 98.618 306.057 115.269 292.381 115.544Z" fill="white"/>
<path d="M313.242 115.544C299.566 115.276 303.239 98.596 302.812 89.7253H323.672C323.245 98.618 326.918 115.269 313.242 115.544Z" fill="#F85C3D"/>
<path d="M334.099 115.544C320.426 115.276 324.096 98.596 323.672 89.7253H344.53C344.103 98.618 347.775 115.269 334.099 115.544Z" fill="white"/>
<path d="M354.961 115.542C341.289 115.274 344.959 98.5949 344.532 89.7236H365.393C364.966 98.6176 368.638 115.267 354.961 115.542Z" fill="#F85C3D"/>
<path d="M375.821 115.544C362.144 115.277 365.813 98.5968 365.39 89.7264H382.53C384.583 89.7264 386.247 91.3904 386.247 93.4433C386.25 102.113 388.237 115.097 375.821 115.544Z" fill="white"/>
<path d="M374.732 304.256H329.249C328.018 304.256 327.018 303.258 327.018 302.026V273.72C327.018 272.488 328.018 271.49 329.249 271.49H374.732C375.966 271.49 376.963 272.488 376.963 273.72V302.026C376.963 303.258 375.966 304.256 374.732 304.256Z" fill="#E3EEFD"/>
<path d="M351.902 283.337H347.556V286.48H351.902V283.337Z" fill="#A4C4FF"/>
<path d="M352.915 294.849H356.939V291.517H352.915V294.849Z" fill="#A4C4FF"/>
<path d="M351.902 287.493H347.556V290.504H351.902V287.493Z" fill="#A4C4FF"/>
<path d="M356.939 287.493H352.915V290.504H356.939V287.493Z" fill="#A4C4FF"/>
<path d="M357.95 286.481H362.697L363.383 283.338H357.95V286.481Z" fill="#A4C4FF"/>
<path d="M346.543 287.493H341.675L342.451 290.504H346.543V287.493Z" fill="#A4C4FF"/>
<path d="M346.543 294.849V291.517H342.711L343.573 294.849H346.543Z" fill="#A4C4FF"/>
<path d="M347.556 294.849H351.902V291.517H347.556V294.849Z" fill="#A4C4FF"/>
<path d="M346.543 295.861H343.834L344.542 298.604H346.543V295.861Z" fill="#A4C4FF"/>
<path d="M346.543 286.48V283.337H340.601L341.413 286.48H346.543Z" fill="#A4C4FF"/>
<path d="M357.95 295.861V298.604H360.057L360.654 295.861H357.95Z" fill="#A4C4FF"/>
<path d="M357.953 287.493V290.504H361.823L362.48 287.493H357.953Z" fill="#A4C4FF"/>
<path d="M351.902 298.604V295.861H347.556V298.604H351.902Z" fill="#A4C4FF"/>
<path d="M356.939 295.861H352.915V298.604H356.939V295.861Z" fill="#A4C4FF"/>
<path d="M361.601 291.518H357.95V294.849H360.874L361.601 291.518Z" fill="#A4C4FF"/>
<path d="M352.915 283.337V286.48H356.939V283.337H352.915Z" fill="#A4C4FF"/>
<path d="M359.065 282.095H358.105C358.658 274.749 355.798 276.06 350.068 275.96C346.624 276.055 346.964 279.63 347.026 282.095H346.066C345.526 274.259 348.701 274.945 355.063 274.998C359.213 275.218 359.223 278.886 359.065 282.095Z" fill="#A4C4FF"/>
<path d="M317.305 304.256H271.824C270.592 304.256 269.591 303.258 269.591 302.025V273.719C269.591 272.487 270.592 271.489 271.824 271.489H317.305C318.538 271.489 319.538 272.487 319.538 273.719V302.025C319.538 303.258 318.538 304.256 317.305 304.256Z" fill="#E3EEFD"/>
<path d="M283.267 295.251C285.617 295.456 284.792 292.369 284.931 291C284.98 289.424 284.343 288.85 282.842 289.033V295.227C283.02 295.244 283.162 295.251 283.267 295.251ZM282.842 285.692C284.155 285.817 284.697 285.556 284.653 284.126V281.976C284.731 280.797 283.633 280.926 282.842 280.943V285.692ZM278.664 299.017V277.639C282.874 277.91 289.27 276.014 288.916 282.522C288.994 284.426 288.779 286.62 286.73 287.125C290.322 287.898 289.616 296.345 287.362 298.155C285.939 299.61 280.572 298.831 278.664 299.017Z" fill="#A4C4FF"/>
<path d="M295.513 299.211C291.745 299.207 290.332 296.969 290.315 293.296V277.639H294.468C294.92 278.773 293.346 295.871 295.513 295.275C297.665 296.039 296.116 278.627 296.557 277.639H300.713V293.296C300.694 296.969 299.283 299.209 295.513 299.211Z" fill="#A4C4FF"/>
<path d="M304.939 299.016V291.983L301.525 277.638H305.767L306.958 284.877L308.146 277.638H312.375L308.973 291.983V299.016H304.939Z" fill="#A4C4FF"/>
<path d="M289.946 96.793H221.401C218.994 96.793 217.042 94.8407 217.042 92.432V28.1379C217.042 25.7317 218.994 23.7794 221.401 23.7794H289.946C292.352 23.7794 294.304 25.7317 294.304 28.1379V92.432C294.304 94.8407 292.352 96.793 289.946 96.793Z" fill="#E3EEFD"/>
<path d="M283.919 44.1614L272.185 37.387V37.2991H265.43C265.372 50.2135 245.742 50.2062 245.685 37.2991H238.93V37.5261L238.799 37.2991L226.914 44.1614L234.56 57.4029L238.93 54.8795V81.6431H272.185V55.043L276.273 57.4029L283.919 44.1614Z" fill="#739BFD"/>
</svg>
