<svg width="180" height="142" viewBox="0 0 180 142" fill="none" xmlns="http://www.w3.org/2000/svg">
<path d="M98.6822 10.8976C95.5704 13.9956 94.4708 19.5129 95.7369 24.247L93.0405 29.7532C92.9222 29.9953 93.0741 30.3154 93.2814 30.2597L98.0981 28.963C100.96 32.3912 105.245 32.757 108.422 29.5202C112.128 25.7423 112.913 18.4957 110.161 13.3705C107.471 8.36383 102.339 7.25754 98.6822 10.8976Z" fill="#FFC967"/>
<path d="M104.589 23.3909C104.525 23.4216 104.455 23.4486 104.379 23.4716V20.9743C104.618 21.0753 104.808 21.183 104.946 21.2994C105.174 21.4965 105.289 21.7734 105.289 22.1321C105.289 22.7456 105.055 23.1649 104.589 23.3909ZM102.401 18.0607C102.146 17.8684 102.02 17.5789 102.02 17.1914C102.02 16.7692 102.148 16.4404 102.406 16.2048C102.537 16.0855 102.69 15.9961 102.865 15.9374V18.303C102.65 18.2145 102.494 18.1338 102.401 18.0607ZM106.165 19.7464C105.865 19.4175 105.414 19.155 104.813 18.9588L104.379 18.8165V16.1019C104.391 16.1086 104.402 16.1163 104.413 16.124C104.805 16.399 105.015 16.8625 105.045 17.5154H106.615C106.587 16.3615 106.278 15.4816 105.688 14.8758C105.305 14.4806 104.868 14.2142 104.379 14.0767V12.743H102.865V14.0238C102.198 14.1431 101.671 14.445 101.281 14.9306C100.765 15.574 100.507 16.3817 100.507 17.3539C100.507 18.4184 100.771 19.2011 101.298 19.7021C101.591 19.9839 102.112 20.2454 102.865 20.4878V23.4332C102.597 23.3226 102.388 23.1447 102.239 22.8976C102.09 22.6523 101.991 22.2812 101.941 21.7859H100.38C100.38 22.9149 100.675 23.8024 101.265 24.4477C101.686 24.9083 102.22 25.2045 102.865 25.3362V26.6401H104.379V25.3593C105.063 25.24 105.616 24.9314 106.036 24.4323C106.589 23.7774 106.865 22.9543 106.865 21.9629C106.865 20.9955 106.631 20.257 106.165 19.7464Z" fill="white"/>
<path d="M14.4568 141.76H167.819C171.214 141.76 174.027 138.109 174.259 133.41C174.897 120.468 174.901 107.66 174.244 94.6157C173.58 81.4315 172.17 67.9413 167.474 56.4419C161.398 41.559 150.064 31.4068 137.934 28.3498C125.804 25.2926 113.044 28.9843 102.216 37.1612C92.7962 44.2744 84.4481 54.8024 74.0059 58.1903C67.1393 60.4178 60.0954 59.3183 53.0263 58.2188C47.3853 57.3415 41.7281 56.4642 36.1322 57.2773C22.6204 59.2403 9.76187 72.7487 6.78614 91.142C4.06671 107.951 8.65466 126.529 14.4568 141.76Z" fill="#F7F7F7"/>
<path d="M174.709 132.949C175.008 127.292 175.224 120.337 174.767 116.62C174.767 116.62 171.927 127.183 171.927 133.017C171.927 133.017 171.384 118.794 166.487 112.285C166.487 112.285 165.606 124.291 166.855 130.704C166.855 130.704 165.32 122.436 159.289 118.353C159.289 118.353 160.021 127.566 163.842 133.719C163.842 133.719 160.311 131.568 152.742 133.017C152.742 133.017 158.965 138.954 163.315 139.362C163.315 139.362 159.065 139.055 153.112 141.809L167.869 141.784C171.465 141.778 174.445 137.925 174.709 132.949Z" fill="#D1D1D1"/>
<path d="M115.754 133.342V40.492C115.754 35.8429 118.47 32.0744 121.82 32.0744H158.498C161.849 32.0744 164.565 35.8429 164.565 40.492V133.342C164.565 137.992 161.849 141.76 158.498 141.76H121.82C118.47 141.76 115.754 137.992 115.754 133.342Z" fill="#373660"/>
<path d="M158.556 138.368H121.764C119.73 138.368 118.083 136.081 118.083 133.26V40.5731C118.083 37.752 119.73 35.4651 121.764 35.4651H158.556C160.59 35.4651 162.238 37.752 162.238 40.5731V133.26C162.238 136.081 160.59 138.368 158.556 138.368Z" fill="white"/>
<path d="M125.534 41.7349H120.729C120.575 41.7349 120.45 41.5619 120.45 41.3486V40.2965C120.45 40.0831 120.575 39.9102 120.729 39.9102H125.534C125.688 39.9102 125.812 40.0831 125.812 40.2965V41.3486C125.812 41.5619 125.688 41.7349 125.534 41.7349Z" fill="#E8E8E8"/>
<path d="M125.534 44.6177H120.729C120.575 44.6177 120.45 44.4445 120.45 44.2312V43.179C120.45 42.9667 120.575 42.7938 120.729 42.7938H125.534C125.688 42.7938 125.812 42.9667 125.812 43.179V44.2312C125.812 44.4445 125.688 44.6177 125.534 44.6177Z" fill="#E8E8E8"/>
<path d="M125.534 47.4995H120.729C120.575 47.4995 120.45 47.3267 120.45 47.1134V46.0616C120.45 45.8482 120.575 45.6754 120.729 45.6754H125.534C125.688 45.6754 125.812 45.8482 125.812 46.0616V47.1134C125.812 47.3267 125.688 47.4995 125.534 47.4995Z" fill="#E8E8E8"/>
<path d="M153.035 83.3359H127.287V77.2866L140.16 70.0002L153.035 77.2866V83.3359Z" fill="#E8E8E8"/>
<path d="M133.622 98.6851H129.819V83.3371H133.622V98.6851Z" fill="#E8E8E8"/>
<path d="M133.622 84.8232H129.819V83.3374H133.622V84.8232Z" fill="#D1D1D1"/>
<path d="M150.503 98.6851H146.701V83.3372H150.503V98.6851Z" fill="#E8E8E8"/>
<path d="M150.503 84.8232H146.701V83.3372H150.503V84.8232Z" fill="#D1D1D1"/>
<path d="M142.062 98.6851H138.26V83.3371H142.062V98.6851Z" fill="#E8E8E8"/>
<path d="M142.062 84.8232H138.26V83.3371H142.062V84.8232Z" fill="#D1D1D1"/>
<path d="M142.848 77.5428C142.848 79.6012 141.646 81.2695 140.162 81.2695C138.679 81.2695 137.477 79.6012 137.477 77.5428C137.477 75.4845 138.679 73.8161 140.162 73.8161C141.646 73.8161 142.848 75.4845 142.848 77.5428Z" fill="#D1D1D1"/>
<path d="M153.878 97.5049H128.13V95.7721H153.878V97.5049Z" fill="#D1D1D1"/>
<path d="M154.207 105.999H126V100.418H154.207V105.999Z" fill="#E8E8E8"/>
<path d="M148.949 52.1938C148.949 58.6877 145.155 63.9517 140.474 63.9517C135.794 63.9517 132 58.6877 132 52.1938C132 45.6999 135.794 40.4356 140.474 40.4356C145.155 40.4356 148.949 45.6999 148.949 52.1938Z" fill="#FFC967"/>
<path d="M140.954 51.224L149.764 39L152.192 42.3677L143.381 54.5917L140.954 57.9595L138.528 54.5917L135.165 49.9266L137.592 46.5588L140.954 51.224Z" fill="#FE6D60"/>
<path d="M131.03 127.298H125.938C125.443 127.298 125.043 126.742 125.043 126.056V113.526C125.043 112.841 125.443 112.285 125.938 112.285H131.03C131.523 112.285 131.924 112.841 131.924 113.526V126.056C131.924 126.742 131.523 127.298 131.03 127.298Z" fill="#E8E8E8"/>
<path d="M139.168 127.298H134.076C133.582 127.298 133.182 126.741 133.182 126.056V113.526C133.182 112.841 133.582 112.285 134.076 112.285H139.168C139.662 112.285 140.062 112.841 140.062 113.526V126.056C140.062 126.741 139.662 127.298 139.168 127.298Z" fill="#E8E8E8"/>
<path d="M147.304 127.298H142.212C141.718 127.298 141.317 126.741 141.317 126.056V113.526C141.317 112.841 141.718 112.285 142.212 112.285H147.304C147.798 112.285 148.198 112.841 148.198 113.526V126.056C148.198 126.741 147.798 127.298 147.304 127.298Z" fill="#E8E8E8"/>
<path d="M155.441 127.298H150.351C149.857 127.298 149.456 126.741 149.456 126.056V113.526C149.456 112.841 149.857 112.285 150.351 112.285H155.441C155.935 112.285 156.336 112.841 156.336 113.526V126.056C156.336 126.741 155.935 127.298 155.441 127.298Z" fill="#E8E8E8"/>
<path d="M131.658 127.298H126.566C126.072 127.298 125.671 126.741 125.671 126.056V113.526C125.671 112.841 126.072 112.285 126.566 112.285H131.658C132.151 112.285 132.552 112.841 132.552 113.526V126.056C132.552 126.741 132.151 127.298 131.658 127.298Z" fill="#D1D1D1"/>
<path d="M139.796 127.298H134.705C134.21 127.298 133.81 126.742 133.81 126.056V113.526C133.81 112.841 134.21 112.285 134.705 112.285H139.796C140.29 112.285 140.691 112.841 140.691 113.526V126.056C140.691 126.742 140.29 127.298 139.796 127.298Z" fill="#D1D1D1"/>
<path d="M147.933 127.298H142.842C142.347 127.298 141.947 126.742 141.947 126.056V113.526C141.947 112.841 142.347 112.285 142.842 112.285H147.933C148.427 112.285 148.828 112.841 148.828 113.526V126.056C148.828 126.742 148.427 127.298 147.933 127.298Z" fill="#D1D1D1"/>
<path d="M156.07 127.298H150.978C150.484 127.298 150.084 126.742 150.084 126.056V113.526C150.084 112.841 150.484 112.285 150.978 112.285H156.07C156.565 112.285 156.965 112.841 156.965 113.526V126.056C156.965 126.742 156.565 127.298 156.07 127.298Z" fill="#D1D1D1"/>
<path d="M70.4675 25.4053L78.1871 37.5803L66.5488 39.5308L70.4675 25.4053Z" fill="#FFC967"/>
<path d="M73.0707 24.3264C73.0707 37.7614 65.2211 48.6528 55.5382 48.6528C45.8553 48.6528 38.0059 37.7614 38.0059 24.3264C38.0059 10.8914 45.8553 -7.24792e-05 55.5382 -7.24792e-05C65.2211 -7.24792e-05 73.0707 10.8914 73.0707 24.3264Z" fill="#FFC967"/>
<path d="M65.6419 38.6854L67.0387 53.0161H63.7766L62.7432 41.2188L65.6419 38.6854Z" fill="#FFD1C1"/>
<path d="M66.1907 41.4629L63.6573 42.4678L63.2289 49.1807L61.748 40.5041L66.125 37.2454L66.1907 41.4629Z" fill="#FFB2A0"/>
<path d="M53.4749 28.4653C53.4749 28.4653 49.5136 28.242 49.9795 22.9631C50.1345 21.2059 50.4069 19.4694 50.7884 17.7798C51.1541 16.1613 51.5863 14.423 52.2012 12.9513C52.7417 11.657 53.9847 9.93584 55.1637 10.914C55.2665 10.9995 55.3588 11.1058 55.4351 11.2346C55.4369 11.2373 56.0566 10.9572 56.1012 10.9455C56.5959 10.814 57.1198 10.85 57.5801 11.1526C58.9616 12.0596 59.4667 14.7959 60.0139 16.5882C60.7344 18.9479 61.8807 21.6563 61.4302 24.3187C61.0323 26.6694 59.2486 27.9538 57.6415 28.1996C57.4989 28.2213 57.3559 28.2357 57.2127 28.2429L53.4749 28.4653Z" fill="#373660"/>
<path d="M58.3862 18.7243C58.3862 14.9929 57.062 11.9677 55.4284 11.9677C53.7949 11.9677 52.4707 14.9929 52.4707 18.7243C52.4707 21.0647 52.9918 23.1263 53.7834 24.3387L53.3981 29.5107H57.4588L57.0942 24.3067C57.8744 23.0899 58.3862 21.0443 58.3862 18.7243Z" fill="#FFD1C1"/>
<path d="M52.2189 18.7051C52.2189 18.7051 53.6341 17.0707 53.713 15.741C53.713 15.741 56.0377 17.1649 58.7316 16.6177L58.2649 11.2172L52.8416 11.2536C52.8416 11.2536 51.8357 18.1517 52.2189 18.7051Z" fill="#FFB2A0"/>
<path d="M53.7828 24.3408C53.7828 24.3408 55.2398 26.6708 57.0938 24.3081L57.2132 26.0135C57.2132 26.0135 55.5478 27.6739 53.6582 26.0135L53.7828 24.3408Z" fill="#FFB2A0"/>
<path d="M53.0598 19.4276C53.0598 20.1529 52.7449 20.7402 52.3565 20.7402C51.9681 20.7402 51.6533 20.1529 51.6533 19.4276C51.6533 18.7022 51.9681 18.1149 52.3565 18.1149C52.7449 18.1149 53.0598 18.7022 53.0598 19.4276Z" fill="#FFD1C1"/>
<path d="M59.2383 19.0745C59.2383 19.7999 58.924 20.3872 58.5352 20.3872C58.1469 20.3872 57.832 19.7999 57.832 19.0745C57.832 18.3501 58.1469 17.7618 58.5352 17.7618C58.924 17.7618 59.2383 18.3501 59.2383 19.0745Z" fill="#FFD1C1"/>
<path d="M52.5113 18.2412C53.0046 16.9729 53.3796 15.6162 53.6238 14.2158C54.4351 15.4065 55.5983 16.1205 56.7792 16.1044C56.4166 15.7358 56.0978 15.2726 55.8489 14.7531C56.5503 15.4582 57.3435 15.9848 58.1771 16.3106C58.2102 15.3333 58.2345 14.3051 57.9284 13.4232C57.7538 12.9198 57.4786 12.4941 57.1744 12.1272C56.9634 11.8728 56.7334 11.6408 56.4723 11.5015C56.251 11.3837 56.0132 11.3364 55.7766 11.3186C55.0157 11.2606 54.2441 11.5078 53.5785 12.0219C53.2502 12.2763 52.9452 12.5958 52.7051 12.9975C52.5333 13.2849 52.3967 13.6089 52.2795 13.9445C52.0164 14.6978 51.8474 15.5243 51.8477 16.3615C51.8478 16.7194 51.8801 17.0845 51.9872 17.4102C52.0943 17.736 52.2677 18.1225 52.5113 18.2412Z" fill="#373660"/>
<path d="M62.7672 41.2772L66.4112 38.153C66.4112 38.153 64.1181 29.7877 59.0716 27.9611C58.5706 27.7002 58.0293 27.5569 57.4666 27.5569H53.2321C52.906 27.5569 52.5873 27.6064 52.279 27.6967C46.7693 28.9156 44.0342 38.153 44.0342 38.153L47.678 41.2772L46.2229 53.0161H63.8198L62.743 41.2188L62.7672 41.2772Z" fill="#FE6D60"/>
<path d="M50.8135 28.1893C50.8135 28.1893 51.7112 31.5789 55.4293 31.7239C59.1477 31.8699 60.0568 27.5568 60.0568 27.5568C60.0568 27.5568 51.2921 25.7214 50.8135 28.1893Z" fill="#FFD1C1"/>
<path d="M51.2546 27.6739C51.2546 27.6739 52.3989 31.1795 56.3943 31.6554C60.3893 32.1322 56.3943 31.6554 56.3943 31.6554C56.3943 31.6554 53.7203 32.4409 51.6993 31.1229C49.6782 29.8049 49.9431 27.9543 49.9431 27.9543L51.2546 27.6739Z" fill="#FFB2A0"/>
<path d="M47.6789 41.2773L48.7236 35.0279L46.708 40.445L47.6789 41.2773Z" fill="#E63E36"/>
<path d="M62.768 41.2773L62.0342 35.0279L63.9231 40.2866L62.768 41.2773Z" fill="#E63E36"/>
<path d="M44.6566 38.6854L42.9619 53.0161H46.2235L47.6786 41.2772L44.6566 38.6854Z" fill="#FFD1C1"/>
<path d="M43.5498 40.2852L46.7064 42.21L47.2093 47.2139L48.861 40.0579L44.344 36.3632L43.5498 40.2852Z" fill="#FFB2A0"/>
<path d="M59.4471 48.336C59.4471 51.7769 57.4369 54.5659 54.957 54.5659C52.4771 54.5659 50.4668 51.7769 50.4668 48.336C50.4668 44.8951 52.4771 42.1053 54.957 42.1053C57.4369 42.1053 59.4471 44.8951 59.4471 48.336Z" fill="#373660"/>
<path d="M55.5083 50.5252C55.47 50.5438 55.4285 50.5597 55.3841 50.573V49.0949C55.5252 49.1542 55.6371 49.2187 55.7194 49.2877C55.8544 49.4036 55.922 49.5681 55.922 49.7804C55.922 50.1431 55.7841 50.3916 55.5083 50.5252ZM54.2126 47.37C54.0623 47.2568 53.9871 47.0852 53.9871 46.8561C53.9871 46.6057 54.0633 46.4111 54.2157 46.2714C54.2931 46.2015 54.3836 46.1484 54.4874 46.1139V47.5133C54.3599 47.4611 54.2682 47.4134 54.2126 47.37ZM56.4409 48.3678C56.2631 48.1732 55.9963 48.0184 55.6402 47.9016L55.3841 47.8185V46.2103C55.3908 46.2148 55.3975 46.2192 55.404 46.2236C55.6358 46.3864 55.7604 46.6615 55.7776 47.048H56.7073C56.6903 46.3651 56.5075 45.8441 56.1588 45.485C55.9314 45.2515 55.6731 45.094 55.3841 45.0118V44.2227H54.4874V44.9808C54.0932 45.0516 53.7806 45.2303 53.5498 45.5177C53.2446 45.899 53.092 46.3766 53.092 46.9516C53.092 47.5823 53.2479 48.0458 53.56 48.3421C53.7331 48.5084 54.0422 48.6632 54.4874 48.8065V50.5509C54.3288 50.4854 54.2051 50.3793 54.1164 50.2333C54.0288 50.0882 53.97 49.8689 53.9401 49.5752H53.0166C53.0166 50.2439 53.1912 50.7685 53.5404 51.1506C53.7897 51.4239 54.1054 51.5991 54.4874 51.6769V52.4482H55.3841V51.6902C55.7889 51.6194 56.1157 51.4372 56.3644 51.1418C56.6914 50.7543 56.8549 50.2669 56.8549 49.6805C56.8549 49.1073 56.7169 48.6703 56.4409 48.3678Z" fill="white"/>
<path d="M19.2013 141.759H14.9742C7.46413 141.759 1.04198 134.108 0.0341639 123.782C0.0221597 123.659 0.0107547 123.536 0 123.411L5.98155 131.352C5.98155 131.352 2.06957 117.223 4.36911 108.449C4.36911 108.449 10.4251 126.037 10.3291 129.447C10.3291 129.447 7.58851 107.084 10.233 97.4757C10.233 97.4757 18.1665 117.711 18.3964 125.045C18.3964 125.045 18.7413 119.39 22.7656 112.723C22.7656 112.723 25.0651 124.083 23.6854 132.219C23.6854 132.219 27.2497 126.174 31.7339 125.208C31.7339 125.208 26.9048 140.93 19.2013 141.759Z" fill="#D1D1D1"/>
<path d="M91.4348 141.759H18.0307C15.8273 141.759 14.041 139.281 14.041 136.224V83.2911C14.041 80.2332 15.8273 77.7547 18.0307 77.7547H91.4348C93.6381 77.7547 95.4243 80.2332 95.4243 83.2911V136.224C95.4243 139.281 93.6381 141.759 91.4348 141.759Z" fill="#FFC967"/>
<path d="M94.6869 96.9048C91.4286 96.9048 87.2899 95.838 82.9141 92.0212C76.6557 86.5626 74.8809 81.0696 74.4238 77.7552H91.4356C91.6932 77.7552 91.9456 77.7897 92.1898 77.8542L94.217 79.3226C94.9623 80.3283 95.4251 81.7348 95.4251 83.2916V96.8871C95.1841 96.8986 94.9381 96.9048 94.6869 96.9048Z" fill="#FFB152"/>
<path d="M44.0566 120.703H14.8062C13.6258 120.703 12.6689 119.375 12.6689 117.737V101.778C12.6689 100.14 13.6258 98.8127 14.8062 98.8127H44.0566C45.237 98.8127 46.1939 100.14 46.1939 101.778V117.737C46.1939 119.375 45.237 120.703 44.0566 120.703Z" fill="#FFA648"/>
<path d="M20.9757 82.8951H20.3004V82.5041H20.9757V82.8951ZM22.3264 82.8951H21.6511V82.5041H22.3264V82.8951ZM23.677 82.8951H23.0017V82.5041H23.677V82.8951ZM25.0277 82.8951H24.3523V82.5041H25.0277V82.8951ZM26.3783 82.8951H25.703V82.5041H26.3783V82.8951ZM27.729 82.8951H27.0536V82.5041H27.729V82.8951ZM29.0796 82.8951H28.4043V82.5041H29.0796V82.8951ZM30.4302 82.8951H29.7549V82.5041H30.4302V82.8951ZM31.7809 82.8951H31.1056V82.5041H31.7809V82.8951ZM33.1316 82.8951H32.4562V82.5041H33.1316V82.8951ZM34.4822 82.8951H33.8068V82.5041H34.4822V82.8951ZM35.8328 82.8951H35.1575V82.5041H35.8328V82.8951ZM37.1835 82.8951H36.5082V82.5041H37.1835V82.8951ZM38.5341 82.8951H37.8588V82.5041H38.5341V82.8951ZM39.8848 82.8951H39.2095V82.5041H39.8848V82.8951ZM41.2354 82.8951H40.5601V82.5041H41.2354V82.8951ZM42.5861 82.8951H41.9107V82.5041H42.5861V82.8951ZM43.9367 82.8951H43.2614V82.5041H43.9367V82.8951ZM45.2873 82.8951H44.6121V82.5041H45.2873V82.8951ZM46.638 82.8951H45.9627V82.5041H46.638V82.8951ZM47.9887 82.8951H47.3133V82.5041H47.9887V82.8951ZM49.3393 82.8951H48.6639V82.5041H49.3393V82.8951ZM50.6899 82.8951H50.0146V82.5041H50.6899V82.8951ZM52.0406 82.8951H51.3653V82.5041H52.0406V82.8951ZM53.3912 82.8951H52.7159V82.5041H53.3912V82.8951ZM54.7419 82.8951H54.0665V82.5041H54.7419V82.8951ZM56.0925 82.8951H55.4172V82.5041H56.0925V82.8951ZM57.4431 82.8951H56.7678V82.5041H57.4431V82.8951ZM58.7935 82.8951H58.1184V82.5041H58.7935V82.8951ZM60.1444 82.8951H59.4693V82.5041H60.1444V82.8951ZM61.4953 82.8951H60.8195V82.5041H61.4953V82.8951ZM62.8455 82.8951H62.1704V82.5041H62.8455V82.8951ZM64.1964 82.8951H63.5213V82.5041H64.1964V82.8951ZM65.5473 82.8951H64.8715V82.5041H65.5473V82.8951ZM66.8975 82.8951H66.2224V82.5041H66.8975V82.8951ZM68.2484 82.8951H67.5733V82.5041H68.2484V82.8951ZM69.5993 82.8951H68.9235V82.5041H69.5993V82.8951ZM70.9495 82.8951H70.2744V82.5041H70.9495V82.8951ZM72.3004 82.8951H71.6246V82.5041H72.3004V82.8951ZM73.6506 82.8951H72.9755V82.5041H73.6506V82.8951ZM75.0015 82.8951H74.3263V82.5041H75.0015V82.8951ZM76.3523 82.8951H75.6766V82.5041H76.3523V82.8951ZM77.7026 82.8951H77.0275V82.5041H77.7026V82.8951ZM79.0534 82.8951H78.3783V82.5041H79.0534V82.8951ZM80.4043 82.8951H79.7286V82.5041H80.4043V82.8951ZM81.7546 82.8951H81.0794V82.5041H81.7546V82.8951ZM83.1054 82.8951H82.4303V82.5041H83.1054V82.8951ZM84.4563 82.8951H83.7805V82.5041H84.4563V82.8951ZM85.8065 82.8951H85.1314V82.5041H85.8065V82.8951ZM87.1574 82.8951H86.4823V82.5041H87.1574V82.8951ZM88.5083 82.8951H87.8325V82.5041H88.5083V82.8951ZM89.8585 82.8951H89.1834V82.5041H89.8585V82.8951ZM18.9601 82.9022L18.9397 82.513C18.9958 82.5077 19.0532 82.505 19.1103 82.5041H19.6251V82.8951H19.1105C19.0602 82.8951 19.0096 82.8978 18.9601 82.9022ZM91.1686 82.9836C91.0028 82.9252 90.8314 82.8951 90.6586 82.8951H90.5343V82.5041H90.6586C90.8549 82.5041 91.05 82.5386 91.2381 82.6059L91.1686 82.9836ZM17.8077 83.547L17.6278 83.2472C17.8131 83.0331 18.0198 82.8615 18.2423 82.7377L18.3475 83.0994C18.1521 83.2091 17.9705 83.3595 17.8077 83.547ZM92.2198 83.9035C92.084 83.6788 91.924 83.486 91.7455 83.3294L91.896 82.9995C92.0987 83.1773 92.2804 83.3967 92.4353 83.6523L92.2198 83.9035ZM17.138 85.0004L16.8659 84.9004C16.9272 84.5784 17.0242 84.2724 17.154 83.9911L17.391 84.2016C17.2769 84.4493 17.1918 84.7173 17.138 85.0004ZM92.6922 85.4984C92.6757 85.2056 92.6266 84.9199 92.5462 84.6492L92.807 84.5015C92.8981 84.8093 92.9536 85.1339 92.9727 85.4674L92.6922 85.4984ZM17.0704 86.8155H16.7891V85.8787H17.0704V86.8155ZM92.9804 87.3568H92.6992V86.4192H92.9804V87.3568ZM17.0704 88.6898H16.7891V87.7531H17.0704V88.6898ZM92.9804 89.2303H92.6992V88.2936H92.9804V89.2303ZM17.0704 90.5642H16.7891V89.6266H17.0704V90.5642ZM92.9804 91.1047H92.6992V90.1679H92.9804V91.1047ZM17.0704 92.4377H16.7891V91.501H17.0704V92.4377ZM92.9804 92.979H92.6992V92.0414H92.9804V92.979ZM17.0704 94.3121H16.7891V93.3753H17.0704V94.3121ZM92.9804 94.8525H92.6992V93.9158H92.9804V94.8525ZM17.0704 96.1865H16.7891V95.2488H17.0704V96.1865ZM92.9804 96.7269H92.6992V95.7902H92.9804V96.7269ZM17.0704 98.0599H16.7891V97.1232H17.0704V98.0599ZM92.9804 98.6013H92.6992V97.6637H92.9804V98.6013ZM17.0704 99.9343H16.7891V98.9976H17.0704V99.9343ZM92.9804 100.475H92.6992V99.538H92.9804V100.475ZM17.0704 101.809H16.7891V100.871H17.0704V101.809ZM92.9804 102.349H92.6992V101.412H92.9804V102.349ZM17.0704 103.682H16.7891V102.745H17.0704V103.682ZM92.9804 104.223H92.6992V103.286H92.9804V104.223ZM17.0704 105.557H16.7891V104.62H17.0704V105.557ZM92.9804 106.097H92.6992V105.16H92.9804V106.097ZM17.0704 107.431H16.7891V106.493H17.0704V107.431ZM92.9804 107.971H92.6992V107.034H92.9804V107.971ZM17.0704 109.304H16.7891V108.368H17.0704V109.304ZM92.9804 109.845H92.6992V108.908H92.9804V109.845ZM17.0704 111.179H16.7891V110.242H17.0704V111.179ZM92.9804 111.719H92.6992V110.782H92.9804V111.719ZM17.0704 113.053H16.7891V112.116H17.0704V113.053ZM92.9804 113.594H92.6992V112.656H92.9804V113.594ZM17.0704 114.927H16.7891V113.99H17.0704V114.927ZM92.9804 115.467H92.6992V114.53H92.9804V115.467ZM17.0704 116.801H16.7891V115.863H17.0704V116.801ZM92.9804 117.341H92.6992V116.405H92.9804V117.341ZM17.0704 118.674H16.7891V117.738H17.0704V118.674ZM92.9804 119.216H92.6992V118.278H92.9804V119.216ZM17.0704 120.549H16.7891V119.612H17.0704V120.549ZM92.9804 121.089H92.6992V120.153H92.9804V121.089ZM17.0704 122.423H16.7891V121.486H17.0704V122.423ZM92.9804 122.964H92.6992V122.027H92.9804V122.964ZM17.0704 124.297H16.7891V123.36H17.0704V124.297ZM92.9804 124.838H92.6992V123.9H92.9804V124.838ZM17.0704 126.171H16.7891V125.234H17.0704V126.171ZM92.9804 126.712H92.6992V125.775H92.9804V126.712ZM17.0704 128.045H16.7891V127.108H17.0704V128.045ZM92.9804 128.586H92.6992V127.649H92.9804V128.586ZM17.0704 129.919H16.7891V128.982H17.0704V129.919ZM92.9804 130.459H92.6992V129.523H92.9804V130.459ZM17.0704 131.793H16.7891V130.857H17.0704V131.793ZM92.9804 132.334H92.6992V131.397H92.9804V132.334ZM17.0704 133.668H16.7891V132.73H17.0704V133.668ZM92.9804 134.208H92.6992V133.271H92.9804V134.208ZM16.9034 135.586C16.829 135.271 16.7906 134.941 16.7891 134.605L17.0705 134.604C17.0718 134.897 17.1056 135.187 17.1709 135.464L16.9034 135.586ZM92.7024 136.114L92.4551 135.929C92.5552 135.67 92.6259 135.394 92.6642 135.106L92.9408 135.178C92.8969 135.506 92.8165 135.821 92.7024 136.114ZM17.7322 137.177C17.5389 136.979 17.3694 136.741 17.2286 136.471L17.4567 136.242C17.5805 136.48 17.7294 136.688 17.8994 136.863L17.7322 137.177ZM91.6837 137.476L91.5594 137.125C91.7481 136.996 91.9215 136.827 92.0738 136.624L92.2689 136.905C92.0955 137.136 91.8985 137.329 91.6837 137.476ZM19.0723 137.806C18.831 137.799 18.5936 137.743 18.3668 137.637L18.4569 137.267C18.6561 137.361 18.8647 137.41 19.0769 137.415L19.0723 137.806ZM20.4252 137.806H19.7499V137.416H20.4252V137.806ZM21.7759 137.806H21.1006V137.416H21.7759V137.806ZM23.1266 137.806H22.4512V137.416H23.1266V137.806ZM24.4772 137.806H23.8018V137.416H24.4772V137.806ZM25.8278 137.806H25.1525V137.416H25.8278V137.806ZM27.1784 137.806H26.5032V137.416H27.1784V137.806ZM28.5291 137.806H27.8538V137.416H28.5291V137.806ZM29.8798 137.806H29.2044V137.416H29.8798V137.806ZM31.2304 137.806H30.5551V137.416H31.2304V137.806ZM32.581 137.806H31.9057V137.416H32.581V137.806ZM33.9317 137.806H33.2564V137.416H33.9317V137.806ZM35.2823 137.806H34.607V137.416H35.2823V137.806ZM36.633 137.806H35.9576V137.416H36.633V137.806ZM37.9836 137.806H37.3083V137.416H37.9836V137.806ZM39.3343 137.806H38.6589V137.416H39.3343V137.806ZM40.6849 137.806H40.0096V137.416H40.6849V137.806ZM42.0355 137.806H41.3603V137.416H42.0355V137.806ZM43.3862 137.806H42.7109V137.416H43.3862V137.806ZM44.7369 137.806H44.0615V137.416H44.7369V137.806ZM46.0875 137.806H45.4121V137.416H46.0875V137.806ZM47.4381 137.806H46.7628V137.416H47.4381V137.806ZM48.7887 137.806H48.1135V137.416H48.7887V137.806ZM50.1394 137.806H49.4641V137.416H50.1394V137.806ZM51.4901 137.806H50.8147V137.416H51.4901V137.806ZM52.8407 137.806H52.1654V137.416H52.8407V137.806ZM54.1913 137.806H53.516V137.416H54.1913V137.806ZM55.542 137.806H54.8667V137.416H55.542V137.806ZM56.8926 137.806H56.2173V137.416H56.8926V137.806ZM58.2434 137.806H57.5679V137.416H58.2434V137.806ZM59.5936 137.806H58.9185V137.416H59.5936V137.806ZM60.9445 137.806H60.2694V137.416H60.9445V137.806ZM62.2954 137.806H61.6196V137.416H62.2954V137.806ZM63.6456 137.806H62.9705V137.416H63.6456V137.806ZM64.9965 137.806H64.3214V137.416H64.9965V137.806ZM66.3473 137.806H65.6716V137.416H66.3473V137.806ZM67.6976 137.806H67.0225V137.416H67.6976V137.806ZM69.0485 137.806H68.3733V137.416H69.0485V137.806ZM70.3993 137.806H69.7236V137.416H70.3993V137.806ZM71.7496 137.806H71.0744V137.416H71.7496V137.806ZM73.1004 137.806H72.4253V137.416H73.1004V137.806ZM74.4513 137.806H73.7755V137.416H74.4513V137.806ZM75.8015 137.806H75.1264V137.416H75.8015V137.806ZM77.1524 137.806H76.4773V137.416H77.1524V137.806ZM78.5033 137.806H77.8275V137.416H78.5033V137.806ZM79.8535 137.806H79.1784V137.416H79.8535V137.806ZM81.2044 137.806H80.5293V137.416H81.2044V137.806ZM82.5546 137.806H81.8795V137.416H82.5546V137.806ZM83.9055 137.806H83.2304V137.416H83.9055V137.806ZM85.2564 137.806H84.5806V137.416H85.2564V137.806ZM86.6066 137.806H85.9315V137.416H86.6066V137.806ZM87.9575 137.806H87.2824V137.416H87.9575V137.806ZM89.3083 137.806H88.6326V137.416H89.3083V137.806ZM90.6586 137.806H89.9835V137.416H90.6586C90.7593 137.415 90.86 137.405 90.9588 137.385L90.9996 137.771C90.8875 137.794 90.7733 137.806 90.6586 137.806Z" fill="#FFA648"/>
<path d="M43.8654 109.757C43.8654 113.143 41.8874 115.888 39.4474 115.888C37.0073 115.888 35.0293 113.143 35.0293 109.757C35.0293 106.372 37.0073 103.627 39.4474 103.627C41.8874 103.627 43.8654 106.372 43.8654 109.757Z" fill="#FFC967"/>
<path d="M72.5164 119.81C72.3474 119.891 72.1645 119.961 71.9688 120.02V113.505C72.5903 113.766 73.0838 114.049 73.4465 114.353C74.0426 114.866 74.3403 115.589 74.3403 116.524C74.3403 118.125 73.7321 119.221 72.5164 119.81ZM66.8037 105.898C66.1407 105.399 65.8098 104.643 65.8098 103.631C65.8098 102.529 66.1458 101.671 66.8177 101.056C67.1582 100.745 67.5579 100.512 68.015 100.358V106.531C67.4533 106.301 67.0485 106.09 66.8037 105.898ZM76.6283 110.299C75.8441 109.44 74.6673 108.755 73.0978 108.242L71.9688 107.874V100.787C71.9981 100.806 72.0274 100.825 72.0561 100.845C73.0787 101.562 73.6275 102.773 73.7034 104.477H77.8026C77.7273 101.467 76.9215 99.1705 75.3839 97.588C74.3817 96.5566 73.2431 95.8623 71.9688 95.5031V92.0207H68.015V95.3651C66.2771 95.6756 64.8988 96.4638 63.8814 97.7322C62.5356 99.4102 61.8631 101.517 61.8631 104.054C61.8631 106.833 62.5503 108.877 63.9267 110.183C64.6891 110.917 66.0521 111.601 68.015 112.233V119.92C67.3163 119.632 66.7706 119.167 66.3798 118.523C65.9934 117.882 65.734 116.915 65.602 115.621H61.5303C61.5303 118.568 62.3004 120.883 63.84 122.568C64.939 123.77 66.3307 124.543 68.015 124.887V128.288H71.9688V124.946C73.7531 124.635 75.1939 123.829 76.2904 122.529C77.7318 120.819 78.4528 118.669 78.4528 116.082C78.4528 113.559 77.8446 111.631 76.6283 110.299Z" fill="#FFA648"/>
<path d="M100.098 55.6147L101.373 57.099L110.629 40.9919L112.264 43.395L104.21 63.8568C103.825 64.8358 103.214 65.6062 102.474 66.044C101.304 66.7372 99.9567 66.5162 98.935 65.4636L95.7646 62.1973L100.098 55.6147Z" fill="#FFD1C1"/>
<path d="M101.373 57.0997C101.373 57.0997 98.8663 64.7267 99.5863 67.6416L94.2607 61.5549L99.7511 54.0441L101.373 57.0997Z" fill="#FFB2A0"/>
<path d="M110.237 44.6166C110.072 44.5785 109.96 44.3627 109.986 44.1329L111.162 34.1048C111.188 33.875 111.345 33.7185 111.51 33.7556C111.676 33.7937 111.788 34.0095 111.761 34.2393L110.586 44.2674C110.559 44.4972 110.403 44.6538 110.237 44.6166Z" fill="#373660"/>
<path d="M111.357 37.6857C111.357 37.6857 113.127 39.5439 113.127 39.821C113.127 40.0971 112.262 43.3965 112.262 43.3965L110.592 42.6272C110.592 42.6272 110.221 39.818 110.221 39.1867C110.221 38.5554 111.357 37.6857 111.357 37.6857Z" fill="#FFD1C1"/>
<path d="M110.769 42.7074L112.263 43.3946L110.586 44.2671L110.769 42.7074Z" fill="#FFB2A0"/>
<path d="M84.9023 30.461C83.4061 30.8811 82.5748 33.8391 83.0459 37.0686L83.4603 39.9107C83.6248 41.0385 83.7153 42.1858 83.7312 43.3366L83.7873 47.4922L87.242 46.5059L86.6077 42.1557C88.1039 41.7355 88.9352 38.7776 88.4641 35.5481C87.993 32.3186 86.3986 30.0408 84.9023 30.461Z" fill="#FFD1C1"/>
<path d="M88.5773 36.3223C88.5773 36.3223 86.3632 34.0039 84.5004 34.5266L84.334 32.8292L87.8926 31.3493C87.8926 31.3493 88.9649 35.8393 88.5773 36.3223Z" fill="#FFB2A0"/>
<path d="M86.6075 42.1558C86.6075 42.1558 85.4932 42.2327 84.5273 40.43C84.5273 40.43 85.1527 43.1518 86.7153 42.8961L86.6075 42.1558Z" fill="#FFB2A0"/>
<path d="M100.737 55.3204L94.5072 47.2636C92.923 45.2146 90.8381 44.0751 88.6725 44.0751H83.0056C82.938 44.0751 82.8705 44.076 82.8037 44.0787C79.9479 44.1724 77.3963 46.587 76.2119 50.1948L73.1543 59.5093L77.9331 63.4936L78.9268 71.4834H93.7954L93.0521 59.8631L95.495 63.2863L100.737 55.3204Z" fill="#FE6D60"/>
<path d="M77.9326 63.4925L81.1259 55.6368C81.1259 55.6368 80.088 66.1108 80.8492 67.7437C81.6104 69.3756 94.2056 67.3598 94.2056 67.3598L94.2751 73.1208L78.3661 73.2544L77.9326 63.4925Z" fill="#E63E36"/>
<path d="M93.0519 59.8622L92.5508 53.5129L97.4341 61.3102L95.0861 64.8369L93.0519 59.8622Z" fill="#E63E36"/>
<path d="M99.7224 122.6L99.1221 124.456L103.513 130.706C104.258 131.767 104.461 133.353 104.023 134.704L91.1074 126.671L93.6442 118.82L99.7224 122.6Z" fill="#4F5285"/>
<path d="M96.2044 125.713C95.9386 126.535 95.2418 126.904 94.6483 126.535C94.0548 126.166 93.7895 125.2 94.0554 124.376C94.3219 123.553 95.018 123.185 95.6115 123.554C96.2051 123.922 96.4703 124.889 96.2044 125.713Z" fill="#373660"/>
<path d="M99.6513 125.208L98.8206 126.16C98.6379 126.37 98.6184 126.748 98.7782 126.991C98.9231 127.214 99.1665 127.244 99.3381 127.061L100.261 126.076L99.6513 125.208Z" fill="#373660"/>
<path d="M100.722 126.738L99.8912 127.689C99.708 127.899 99.6889 128.278 99.8484 128.522C99.994 128.744 100.237 128.774 100.409 128.591L101.331 127.605L100.722 126.738Z" fill="#373660"/>
<path d="M101.934 128.461L101.103 129.412C100.92 129.622 100.901 130.001 101.06 130.244C101.205 130.466 101.45 130.496 101.621 130.314L102.544 129.328L101.934 128.461Z" fill="#373660"/>
<path d="M91.1074 126.671L90.6777 128.001L103.594 136.035L104.024 134.704L91.1074 126.671Z" fill="#373660"/>
<path d="M112.726 111.544L113.572 113.205L119.684 111.14C120.722 110.789 121.808 111.353 122.425 112.563L110.87 123.906L107.288 116.882L112.726 111.544Z" fill="#4F5285"/>
<path d="M112.869 117.33C113.245 118.067 113.119 119.086 112.588 119.607C112.057 120.128 111.322 119.954 110.947 119.217C110.571 118.481 110.698 117.461 111.228 116.94C111.759 116.419 112.494 116.593 112.869 117.33Z" fill="#373660"/>
<path d="M114.309 112.956L114.477 114.433C114.514 114.757 114.739 114.973 114.971 114.907C115.182 114.846 115.326 114.57 115.299 114.273L115.157 112.669L114.309 112.956Z" fill="#373660"/>
<path d="M115.803 112.455L115.971 113.931C116.008 114.257 116.233 114.473 116.465 114.406C116.677 114.345 116.819 114.069 116.793 113.771L116.651 112.169L115.803 112.455Z" fill="#373660"/>
<path d="M117.488 111.883L117.656 113.36C117.693 113.684 117.918 113.901 118.15 113.835C118.362 113.774 118.505 113.498 118.478 113.2L118.337 111.597L117.488 111.883Z" fill="#373660"/>
<path d="M110.87 123.906L111.476 125.096L123.031 113.753L122.425 112.563L110.87 123.906Z" fill="#373660"/>
<path d="M93.7951 71.4836C93.7951 71.4836 110.493 77.2164 109.451 85.1066C109.108 87.7063 101.871 123.47 101.871 123.47L91.1671 119.509L98.3572 89.3091C98.3572 89.3091 76.7525 89.3463 79.2174 71.4836H93.7951Z" fill="#373660"/>
<path d="M99.7053 78.2478C101.032 80.1443 115.267 109.881 115.267 109.881L105.812 118.511L93.832 88.6299L99.7053 78.2478Z" fill="#373660"/>
<path d="M103.805 113.66C103.766 113.66 103.727 113.632 103.707 113.581L96.674 96.0407C96.6443 95.9655 96.6639 95.8699 96.7179 95.8283C96.7726 95.7867 96.8414 95.8133 96.8711 95.8894L103.903 113.428C103.934 113.504 103.914 113.599 103.859 113.641C103.842 113.654 103.824 113.66 103.805 113.66Z" fill="#4F5285"/>
<path d="M107.825 94.6025C107.79 94.6025 107.755 94.5795 107.733 94.5362L101.418 81.9365C100.27 79.6437 98.5795 77.9162 96.6609 77.0723L93.31 75.6003C93.2505 75.5738 93.2183 75.4863 93.2365 75.4039C93.2554 75.3217 93.3191 75.2757 93.3786 75.3023L96.7281 76.775C98.6949 77.6393 100.426 79.4093 101.604 81.7587L107.918 94.3575C107.953 94.4283 107.941 94.5256 107.89 94.5752C107.87 94.5937 107.848 94.6025 107.825 94.6025Z" fill="#4F5285"/>
<path d="M83.4603 39.9102C83.4603 39.9102 84.1858 37.1742 84.203 37.0097C84.2196 36.8452 83.3781 36.9858 83.4603 36.1163C83.5419 35.2468 84.1686 34.7762 84.3382 35.2229C84.5077 35.6696 84.5275 36.2101 84.5275 36.2101C84.5275 36.2101 85.7458 35.1053 85.7547 34.8231C85.7643 34.5409 85.7547 33.0841 85.7547 33.0841C85.7547 33.0841 87.2037 34.0119 88.0408 33.6891C88.8785 33.3662 90.1216 30.6418 89.3968 29.2C89.3968 29.2 89.004 30.441 88.596 30.6091C88.596 30.6091 89.1602 29.2185 89.1284 27.8625C89.1284 27.8625 87.9152 29.4591 87.5525 29.5467C87.5525 29.5467 88.0408 28.7373 88.2301 27.8625C88.2301 27.8625 87.0322 28.9346 86.607 28.9346C86.1812 28.9346 82.5563 28.0377 82.3358 30.5303C82.3358 30.5303 80.807 30.7931 80.7911 32.5427C80.7751 34.2924 83.4603 39.9102 83.4603 39.9102Z" fill="#373660"/>
<path d="M94.1853 54.0434L95.1741 57.1694C95.1741 57.1694 79.0019 67.2214 76.6431 66.8853C73.6322 66.4554 73.949 60.1716 73.949 60.1716L94.1853 54.0434Z" fill="#FFD1C1"/>
<path d="M73.949 60.1714C73.949 60.1714 74.6865 63.4469 77.0485 63.5593C79.4098 63.6725 88.1232 61.9211 88.1232 61.9211C88.1232 61.9211 78.0258 67.8538 76.4786 67.7406C74.9314 67.6274 73.8316 66.2713 73.7099 65.255C73.5875 64.2377 73.4555 60.7375 73.949 60.1714Z" fill="#FFB2A0"/>
<path d="M94.185 54.0431C94.185 54.0431 95.484 52.2108 96.0233 52.1112C96.5633 52.0117 100.198 52.361 100.198 52.5609C100.198 52.76 99.8743 53.0269 99.7666 53.0686C99.6584 53.1102 97.6067 53.5092 97.6067 53.5092C97.6067 53.5092 97.9765 54.9199 97.9315 55.7569C97.8852 56.5939 95.1736 57.1694 95.1736 57.1694C95.1736 57.1694 93.8582 55.775 94.185 54.0431Z" fill="#FFD1C0"/>
<path d="M180 142H3.15234V141.519H180V142Z" fill="#373660"/>
</svg>
