<svg width="545" height="406" viewBox="0 0 545 406" fill="none" xmlns="http://www.w3.org/2000/svg">
<path d="M545 356.748H0V357.075H545V356.748Z" fill="#EBEBEB"/>
<path d="M490.391 374.292H454.312V374.618H490.391V374.292Z" fill="#EBEBEB"/>
<path d="M321.877 365.901H292.011V366.228H321.877V365.901Z" fill="#EBEBEB"/>
<path d="M453.222 364.267H432.294V364.594H453.222V364.267Z" fill="#EBEBEB"/>
<path d="M75.8641 366.01H57.2251V366.337H75.8641V366.01Z" fill="#EBEBEB"/>
<path d="M120.881 366.01H85.5649V366.337H120.881V366.01Z" fill="#EBEBEB"/>
<path d="M245.468 370.696H179.632V371.022H245.468V370.696Z" fill="#EBEBEB"/>
<path d="M258.33 308.15H47.8512C44.4722 308.15 41.6382 305.317 41.6382 301.939V6.21095C41.6382 2.83306 44.4722 0 47.8512 0H258.33C261.709 0 264.543 2.83306 264.543 6.21095V301.939C264.543 305.426 261.818 308.15 258.33 308.15ZM47.8512 0.326892C44.5812 0.326892 41.8562 2.94203 41.8562 6.31991V302.048C41.8562 305.317 44.4722 308.041 47.8512 308.041H258.33C261.6 308.041 264.325 305.426 264.325 302.048V6.21095C264.325 2.94203 261.709 0.217928 258.33 0.217928H47.8512V0.326892Z" fill="#EBEBEB"/>
<path d="M494.097 308.15H283.618C280.239 308.15 277.405 305.317 277.405 301.939V6.21095C277.405 2.83306 280.239 0 283.618 0H494.097C497.476 0 500.31 2.83306 500.31 6.21095V301.939C500.31 305.426 497.585 308.15 494.097 308.15ZM283.618 0.326892C280.348 0.326892 277.623 2.94203 277.623 6.31991V302.048C277.623 305.317 280.239 308.041 283.618 308.041H494.097C497.367 308.041 500.092 305.426 500.092 302.048V6.21095C500.092 2.94203 497.476 0.217928 494.097 0.217928H283.618V0.326892Z" fill="#EBEBEB"/>
<path d="M88.7263 199.513H70.1963V351.845H88.7263V199.513Z" fill="#F0F0F0"/>
<path d="M250.155 351.845H72.7031V356.857H250.155V351.845Z" fill="#F0F0F0"/>
<path d="M88.6767 351.785H252.722L252.722 199.453L88.6767 199.453L88.6767 351.785Z" fill="#FAFAFA"/>
<path d="M109.218 287.883H232.17C235.331 287.883 237.838 285.377 237.838 282.217V259.117C237.838 255.957 235.331 253.45 232.17 253.45H109.218C106.057 253.45 103.55 255.957 103.55 259.117V282.217C103.55 285.377 106.057 287.883 109.218 287.883Z" fill="#F0F0F0"/>
<path d="M109.218 332.122H232.17C235.331 332.122 237.838 329.616 237.838 326.456V303.356C237.838 300.196 235.331 297.69 232.17 297.69H109.218C106.057 297.69 103.55 300.196 103.55 303.356V326.456C103.55 329.616 106.057 332.122 109.218 332.122Z" fill="#F0F0F0"/>
<path d="M194.456 258.463H146.932C144.861 258.463 143.226 256.828 143.226 254.758C143.226 252.688 144.861 251.053 146.932 251.053H194.456C196.527 251.053 198.162 252.688 198.162 254.758C198.162 256.828 196.527 258.463 194.456 258.463Z" fill="#FAFAFA"/>
<path d="M109.218 243.752H232.17C235.331 243.752 237.838 241.246 237.838 238.086V214.986C237.838 211.826 235.331 209.32 232.17 209.32H109.218C106.057 209.32 103.55 211.826 103.55 214.986V238.086C103.55 241.137 106.057 243.752 109.218 243.752Z" fill="#F0F0F0"/>
<path d="M194.456 214.332H146.932C144.861 214.332 143.226 212.698 143.226 210.627C143.226 208.557 144.861 206.923 146.932 206.923H194.456C196.527 206.923 198.162 208.557 198.162 210.627C198.162 212.589 196.527 214.332 194.456 214.332Z" fill="#FAFAFA"/>
<path d="M194.456 302.702H146.932C144.861 302.702 143.226 301.068 143.226 298.997C143.226 296.927 144.861 295.292 146.932 295.292H194.456C196.527 295.292 198.162 296.927 198.162 298.997C198.162 301.068 196.527 302.702 194.456 302.702Z" fill="#FAFAFA"/>
<path d="M256.041 191.777H88.6172V199.513H256.041V191.777Z" fill="#F0F0F0"/>
<path d="M66.5336 199.424H88.6606V191.687H66.5336V199.424Z" fill="#E6E6E6"/>
<path d="M457.037 18.0881H74.7744V146.448H457.037V18.0881Z" fill="#EBEBEB"/>
<path d="M462.378 18.0881H77.2812V146.448H462.378V18.0881Z" fill="#F5F5F5"/>
<path d="M326.128 146.448H74.7744V152.877H326.128V146.448Z" fill="#EBEBEB"/>
<path d="M470.226 146.448H101.152V152.877H470.226V146.448Z" fill="#F5F5F5"/>
<path d="M454.831 138.523V25.9634L84.7755 25.9634V138.523L454.831 138.523Z" fill="#FAFAFA"/>
<path d="M131.563 138.493L195.982 25.9336H226.393L161.974 138.493H131.563Z" fill="white"/>
<path d="M168.515 138.493L232.825 25.9336H244.706L180.287 138.493H168.515Z" fill="white"/>
<path d="M357.193 138.493L421.503 25.9336H433.384L368.965 138.493H357.193Z" fill="white"/>
<path d="M454.833 138.521V25.9614H453.852V138.521H454.833Z" fill="#EBEBEB"/>
<path opacity="0.5" d="M464.123 35.0866H81.8596L81.2056 28.9846H463.469L464.123 35.0866Z" fill="#EBEBEB"/>
<path opacity="0.5" d="M464.123 42.6049H81.8596L81.2056 36.5029H463.469L464.123 42.6049Z" fill="#EBEBEB"/>
<path opacity="0.5" d="M464.123 50.2326H81.8596L81.2056 44.1306H463.469L464.123 50.2326Z" fill="#EBEBEB"/>
<path opacity="0.5" d="M464.123 57.7512H81.8596L81.2056 51.6492H463.469L464.123 57.7512Z" fill="#EBEBEB"/>
<path opacity="0.5" d="M464.123 65.2696H81.8596L81.2056 59.2766H463.469L464.123 65.2696Z" fill="#EBEBEB"/>
<path opacity="0.5" d="M464.123 72.8972H81.8596L81.2056 66.7952H463.469L464.123 72.8972Z" fill="#EBEBEB"/>
<path opacity="0.5" d="M464.123 80.4156H81.8596L81.2056 74.4226H463.469L464.123 80.4156Z" fill="#EBEBEB"/>
<path opacity="0.5" d="M464.123 88.0432H81.8596L81.2056 81.9412H463.469L464.123 88.0432Z" fill="#EBEBEB"/>
<path opacity="0.5" d="M464.123 95.5616H81.8596L81.2056 89.5686H463.469L464.123 95.5616Z" fill="#EBEBEB"/>
<path opacity="0.5" d="M464.123 103.189H81.8596L81.2056 97.0872H463.469L464.123 103.189Z" fill="#EBEBEB"/>
<path opacity="0.5" d="M464.123 110.707H81.8596L81.2056 104.605H463.469L464.123 110.707Z" fill="#EBEBEB"/>
<path opacity="0.5" d="M464.123 118.335H81.8596L81.2056 112.233H463.469L464.123 118.335Z" fill="#EBEBEB"/>
<path opacity="0.5" d="M464.123 125.853H81.8596L81.2056 119.751H463.469L464.123 125.853Z" fill="#EBEBEB"/>
<path opacity="0.5" d="M464.123 133.481H81.8596L81.2056 127.379H463.469L464.123 133.481Z" fill="#EBEBEB"/>
<path d="M444.938 295.293H381.391L375.287 190.033C375.178 187.418 377.14 185.348 379.756 185.348H433.82C436.436 185.348 438.616 187.418 438.834 190.033L444.938 295.293Z" fill="#E6E6E6"/>
<path d="M451.369 295.293H387.822L381.718 190.033C381.609 187.418 383.571 185.348 386.187 185.348H440.36C442.976 185.348 445.156 187.418 445.374 190.033L451.369 295.293Z" fill="#F5F5F5"/>
<path d="M433.275 295.292H384.334V286.902C384.334 284.287 386.405 282.217 389.021 282.217H433.275V295.292Z" fill="#E6E6E6"/>
<path d="M484.614 295.292H418.778V286.902C418.778 284.287 420.849 282.217 423.465 282.217H479.818C482.434 282.217 484.505 284.287 484.505 286.902V295.292H484.614Z" fill="#F5F5F5"/>
<path d="M385.642 295.292H381.282V356.857H385.642V295.292Z" fill="#E6E6E6"/>
<path d="M417.688 295.292H413.328V356.857H417.688V295.292Z" fill="#E6E6E6"/>
<path d="M451.587 295.292H447.227V356.857H451.587V295.292Z" fill="#E6E6E6"/>
<path d="M483.633 295.292H479.273V356.857H483.633V295.292Z" fill="#E6E6E6"/>
<path d="M363.515 295.293H299.968L293.864 190.033C293.755 187.418 295.717 185.348 298.333 185.348H352.506C355.122 185.348 357.302 187.418 357.52 190.033L363.515 295.293Z" fill="#E6E6E6"/>
<path d="M369.946 295.293H306.399L300.295 190.033C300.186 187.418 302.148 185.348 304.764 185.348H358.937C361.553 185.348 363.733 187.418 363.951 190.033L369.946 295.293Z" fill="#F5F5F5"/>
<path d="M351.852 295.293H302.911V286.902C302.911 284.287 304.982 282.217 307.598 282.217H351.852V295.293Z" fill="#E6E6E6"/>
<path d="M403.191 295.293H337.355V286.902C337.355 284.287 339.426 282.217 342.042 282.217H398.395C401.011 282.217 403.082 284.287 403.082 286.902V295.293H403.191Z" fill="#F5F5F5"/>
<path d="M304.328 295.293H299.968V356.857H304.328V295.293Z" fill="#E6E6E6"/>
<path d="M336.265 295.293H331.905V356.857H336.265V295.293Z" fill="#E6E6E6"/>
<path d="M370.164 295.293H365.804V356.857H370.164V295.293Z" fill="#E6E6E6"/>
<path d="M402.21 295.293H397.85V356.857H402.21V295.293Z" fill="#E6E6E6"/>
<path d="M272.5 406C389.226 406 483.851 400.487 483.851 393.687C483.851 386.887 389.226 381.374 272.5 381.374C155.774 381.374 61.1489 386.887 61.1489 393.687C61.1489 400.487 155.774 406 272.5 406Z" fill="#F5F5F5"/>
<path d="M312.394 378.65L304.11 375.817L308.579 355.876L316.754 358.71L312.394 378.65Z" fill="#B55B52"/>
<path d="M381.173 384.752H372.344L370.164 364.485H378.884L381.173 384.752Z" fill="#B55B52"/>
<path d="M371.69 383.771H381.718C382.045 383.771 382.372 383.989 382.481 384.316L384.225 392.053C384.443 392.815 383.789 393.578 382.917 393.578C379.538 393.469 377.031 393.36 372.671 393.36C370.055 393.36 362.643 393.687 358.937 393.687C355.34 393.687 354.795 390.091 356.321 389.765C363.079 388.239 368.093 386.278 370.273 384.316C370.6 383.88 371.145 383.771 371.69 383.771Z" fill="#263238"/>
<path d="M304.219 374.836L313.266 377.996C313.593 378.105 313.811 378.432 313.811 378.759L312.939 386.713C312.83 387.585 312.067 388.021 311.195 387.803C307.925 386.604 303.347 384.752 299.205 383.336C294.409 381.701 292.12 381.374 286.561 379.413C283.182 378.214 284.163 374.618 285.689 374.618C292.665 374.945 295.281 376.362 302.039 374.836C302.802 374.618 303.565 374.618 304.219 374.836Z" fill="#263238"/>
<path d="M355.994 122.912C353.487 125.527 351.089 128.033 348.582 130.43C346.075 132.827 343.459 135.224 340.734 137.513C335.393 142.089 329.834 146.448 323.403 150.37C321.768 151.351 320.133 152.223 318.389 153.095C317.517 153.53 316.536 153.966 315.664 154.293L314.138 154.838C313.593 155.056 313.048 155.165 312.503 155.274C308.034 156.472 303.02 156.255 298.878 154.838C294.736 153.422 291.248 151.133 288.305 148.627C286.888 147.319 285.471 145.903 284.272 144.486C283.618 143.724 283.073 142.961 282.528 142.198C281.983 141.435 281.547 140.673 280.893 139.692L286.888 135.116L288.632 136.532C289.286 136.968 289.831 137.404 290.485 137.949C291.793 138.82 292.992 139.692 294.3 140.346C296.916 141.762 299.532 142.743 301.93 143.07C304.328 143.397 306.508 143.07 308.47 142.307L309.233 141.98L310.105 141.544C310.759 141.218 311.304 140.891 311.958 140.564C313.157 139.91 314.465 139.038 315.773 138.167C318.28 136.423 320.787 134.462 323.294 132.391C325.801 130.321 328.199 128.142 330.706 125.963C333.104 123.783 335.502 121.495 337.9 119.207C340.298 116.919 342.696 114.521 344.876 112.342L355.994 122.912Z" fill="#263238"/>
<path d="M286.997 135.878L280.021 129.34L275.988 138.057C275.988 138.057 282.31 144.704 285.471 141.653L286.997 135.878Z" fill="#B55B52"/>
<path d="M275.007 125.962L272.064 133.372L276.097 137.948L280.13 129.231L275.007 125.962Z" fill="#B55B52"/>
<path opacity="0.2" d="M308.579 355.876L306.29 366.119L314.574 368.952L316.863 358.71L308.579 355.876Z" fill="black"/>
<path opacity="0.2" d="M378.884 364.485H370.164L371.254 374.945H380.083L378.884 364.485Z" fill="black"/>
<path d="M392.291 122.585C383.353 152.877 384.334 185.021 383.135 191.559C376.377 190.687 347.165 186.437 333.104 184.476C330.924 149.39 339.426 125.962 343.241 115.502C344.767 111.361 348.691 108.419 353.16 108.201H353.269C354.577 108.201 355.885 108.092 357.411 108.092C358.174 108.092 359.046 108.092 359.809 108.201C365.041 108.419 373.652 109.727 379.538 110.816C380.737 111.034 382.045 111.361 383.244 111.579C384.334 111.797 385.424 112.124 386.514 112.342H386.623C390.983 113.649 393.599 118.226 392.291 122.585Z" fill="#263238"/>
<path d="M368.529 132.5L368.42 134.135L378.666 135.769L378.993 134.462L368.529 132.5Z" fill="white"/>
<path opacity="0.3" d="M359.7 108.201C357.302 110.708 354.577 131.193 358.065 140.782C363.842 131.193 375.505 113.868 379.429 110.926C373.543 109.727 365.041 108.419 359.7 108.201Z" fill="white"/>
<path d="M380.519 88.3699C378.448 94.5808 375.614 106.022 379.429 110.816C378.012 112.233 371.908 113.432 366.349 112.56C361.771 111.906 359.591 109.836 359.7 108.092C367.003 107.33 367.548 102.099 367.003 96.978L380.519 88.3699Z" fill="#B55B52"/>
<path opacity="0.2" d="M374.96 91.9658L367.003 97.0871C367.112 98.2857 367.221 99.4843 367.112 100.683C369.837 100.683 373.979 98.1768 374.633 95.4527C375.069 93.9272 375.178 92.6196 374.96 91.9658Z" fill="black"/>
<path d="M361.553 84.0112C360.354 81.2871 359.918 75.8389 362.207 68.8652C364.06 63.1991 370.055 65.0515 374.088 66.0322C378.23 67.0129 376.704 72.57 373.652 76.6017C370.491 80.9603 361.553 84.0112 361.553 84.0112Z" fill="#263238"/>
<path d="M385.315 79.6529C382.808 87.9341 381.718 92.9465 376.486 96.3244C368.529 101.337 359.046 95.0168 359.046 86.0817C359.046 78.1274 363.079 65.8144 372.126 64.3979C381.064 62.9814 387.822 71.3716 385.315 79.6529Z" fill="#B55B52"/>
<path d="M379.647 88.37C378.23 85.7549 377.576 78.7812 378.993 73.224C380.083 69.0834 386.841 68.1027 390.656 70.0641C395.125 72.3523 394.253 76.9288 390.983 80.5246C387.277 84.5563 379.647 88.37 379.647 88.37Z" fill="#263238"/>
<path d="M389.784 72.5701C393.163 72.3522 395.343 67.8847 392.618 65.8144C389.457 63.3082 384.988 65.8144 380.955 60.2572C377.14 55.0269 367.766 54.1552 364.278 58.8407C362.207 61.5648 364.06 62.6544 358.61 65.9233C355.449 67.8847 356.43 71.0446 357.193 72.6791C357.084 71.4805 357.629 68.4295 360.572 67.7757C363.079 67.2309 364.496 69.3012 366.24 67.4488C366.24 67.4488 372.017 72.7881 382.917 73.5508C389.021 73.8777 389.784 72.5701 389.784 72.5701Z" fill="#263238"/>
<path d="M386.95 89.7866C385.315 91.421 383.026 92.1838 381.064 92.1838C378.121 92.1838 377.576 89.3507 378.993 87.0625C380.301 84.9921 383.462 82.486 386.078 83.6846C388.694 84.7742 388.803 87.9342 386.95 89.7866Z" fill="#B55B52"/>
<path d="M303.783 363.177L317.735 367.972C317.735 367.972 331.469 313.925 335.72 287.011C337.028 278.839 339.971 267.507 343.459 255.412C347.928 240.157 353.378 223.703 357.738 210.846C362.425 197.334 365.804 187.745 365.804 187.745L335.284 183.604C335.284 183.604 314.901 252.906 311.304 279.384C307.816 306.843 303.783 363.177 303.783 363.177Z" fill="#263238"/>
<path opacity="0.2" d="M343.568 255.412C348.037 240.157 353.487 223.703 357.847 210.845L355.122 203.763C346.947 212.371 343.132 240.157 343.568 255.412Z" fill="black"/>
<path d="M351.961 185.893C351.961 185.893 350.435 260.86 352.506 286.358C354.795 314.361 367.221 372.984 367.221 372.984H383.244C383.244 372.984 381.064 319.265 377.685 292.024C373.979 261.078 381.827 189.924 381.827 189.924L351.961 185.893Z" fill="#263238"/>
<path d="M365.368 373.311H384.225V367.645L364.06 367.209L365.368 373.311Z" fill="#263238"/>
<path d="M301.93 362.85L318.607 368.625L320.46 363.286L302.693 355.876L301.93 362.85Z" fill="#263238"/>
<path d="M372.017 78.9991C371.908 79.6529 371.363 80.1977 370.927 80.0887C370.491 79.9798 370.273 79.326 370.382 78.6722C370.491 78.0184 371.036 77.4736 371.472 77.5826C371.908 77.6915 372.126 78.3453 372.017 78.9991Z" fill="#263238"/>
<path d="M364.169 77.1466C364.06 77.8003 363.515 78.3452 363.079 78.2362C362.643 78.1272 362.425 77.4734 362.534 76.8197C362.643 76.1659 363.188 75.6211 363.624 75.73C364.169 75.839 364.387 76.4928 364.169 77.1466Z" fill="#263238"/>
<path d="M366.567 78.1272C366.567 78.1272 364.06 81.723 361.88 83.2485C362.861 84.665 365.041 84.665 365.041 84.665L366.567 78.1272Z" fill="#A02724"/>
<path d="M367.548 87.0624C370.273 87.2803 371.908 85.7548 371.908 85.7548C372.017 85.6458 372.017 85.5369 371.908 85.4279C371.799 85.319 371.69 85.319 371.581 85.4279C371.581 85.4279 369.619 87.1713 366.676 86.5176C366.567 86.5176 366.458 86.5176 366.458 86.6265C366.458 86.7355 366.458 86.8444 366.567 86.8444C367.003 87.0624 367.221 87.0624 367.548 87.0624Z" fill="#263238"/>
<path d="M374.96 77.0377C375.069 77.0377 375.069 77.0377 375.178 77.0377C375.396 76.9288 375.505 76.7108 375.396 76.4929C374.415 74.4226 372.562 74.0957 372.453 74.0957C372.235 74.0957 372.017 74.2047 372.017 74.4226C372.017 74.6405 372.126 74.8584 372.344 74.8584C372.453 74.8584 373.87 75.1853 374.633 76.8198C374.742 76.9288 374.851 77.0377 374.96 77.0377Z" fill="#263238"/>
<path d="M361.553 73.6598C361.662 73.6598 361.771 73.6598 361.88 73.5509C363.079 72.1343 364.496 72.2433 364.605 72.2433C364.823 72.2433 365.041 72.1343 365.041 71.9164C365.041 71.6985 364.932 71.4806 364.714 71.4806C364.605 71.4806 362.752 71.2626 361.335 73.115C361.226 73.333 361.226 73.5509 361.444 73.6598C361.335 73.6598 361.444 73.6598 361.553 73.6598Z" fill="#263238"/>
<path d="M368.747 385.297C369.51 385.297 370.382 385.079 371.036 384.97C371.145 384.97 371.145 384.861 371.145 384.752C371.145 384.643 371.145 384.534 371.036 384.534C370.709 384.316 367.875 382.573 366.894 383.118C366.785 383.227 366.567 383.336 366.567 383.662C366.567 384.098 366.676 384.534 367.003 384.752C367.439 385.188 368.093 385.297 368.747 385.297ZM370.491 384.643C368.965 384.97 367.875 384.861 367.33 384.534C367.112 384.316 367.003 384.098 367.003 383.771C367.003 383.662 367.112 383.553 367.112 383.553C367.766 383.227 369.292 383.989 370.491 384.643Z" fill="#0ec2f3"/>
<path d="M371.036 384.97H371.145C371.254 384.97 371.254 384.861 371.254 384.752C371.254 384.643 371.036 382.137 370.055 381.265C369.837 381.047 369.51 380.938 369.183 381.047C368.638 381.156 368.529 381.374 368.529 381.592C368.311 382.464 370.055 384.425 371.036 384.97C370.927 384.97 371.036 384.97 371.036 384.97ZM369.292 381.374C369.51 381.374 369.619 381.483 369.728 381.592C370.382 382.137 370.709 383.554 370.709 384.316C369.837 383.663 368.747 382.137 368.856 381.592C368.856 381.592 368.856 381.483 369.292 381.374C369.183 381.374 369.183 381.374 369.292 381.374Z" fill="#0ec2f3"/>
<path d="M303.02 375.708C303.129 375.708 303.129 375.708 303.238 375.599C303.238 375.49 303.238 375.381 303.238 375.381C302.911 375.054 300.186 372.221 298.987 372.439C298.769 372.439 298.551 372.657 298.442 372.875C298.224 373.202 298.333 373.638 298.442 373.965C299.096 375.054 301.603 375.49 303.02 375.708ZM299.096 372.766C299.75 372.766 301.385 374.074 302.475 375.163C300.513 374.836 299.205 374.292 298.878 373.638C298.769 373.42 298.769 373.202 298.878 372.875C298.878 372.875 298.878 372.875 299.096 372.766C298.987 372.766 299.096 372.766 299.096 372.766Z" fill="#0ec2f3"/>
<path d="M303.02 375.708C303.129 375.708 303.238 375.599 303.238 375.599C303.238 375.49 303.783 373.202 303.02 372.003C302.802 371.676 302.475 371.35 302.039 371.241C301.494 371.132 301.276 371.35 301.167 371.568C300.731 372.439 302.039 374.945 302.911 375.708H303.02ZM301.712 371.568C301.821 371.568 301.821 371.568 301.93 371.568C302.257 371.676 302.475 371.785 302.693 372.112C303.238 372.875 303.02 374.401 302.911 375.054C302.148 374.074 301.276 372.221 301.494 371.676C301.494 371.676 301.603 371.568 301.712 371.568Z" fill="#0ec2f3"/>
<path d="M389.675 114.085C390.874 115.611 391.855 117.027 392.836 118.553C393.817 120.078 394.798 121.495 395.779 123.021C397.632 126.071 399.485 129.122 401.12 132.391C402.755 135.66 404.39 138.929 405.698 142.416C407.006 145.903 408.314 149.499 409.077 153.53C409.295 154.511 409.404 155.601 409.513 156.581C409.513 156.69 409.513 157.017 409.622 157.235C409.622 157.453 409.622 157.671 409.622 157.889C409.622 158.325 409.622 158.761 409.622 159.197C409.622 159.959 409.404 160.722 409.295 161.376C408.75 163.991 407.769 165.952 406.897 167.696C405.044 171.292 402.864 174.234 400.684 177.176C398.395 180.009 396.106 182.733 393.599 185.239C391.092 187.854 388.694 190.251 385.969 192.649L380.301 187.636C384.007 182.079 387.713 176.304 390.983 170.638C392.618 167.805 394.035 164.972 395.125 162.357C395.67 161.049 395.997 159.741 395.997 158.979C395.997 158.761 395.997 158.652 395.997 158.652C395.997 158.652 395.997 158.761 395.997 158.652C395.888 157.998 395.67 157.344 395.561 156.69C394.798 153.966 393.708 151.133 392.4 148.3C391.092 145.467 389.566 142.634 387.931 139.801C386.296 136.968 384.661 134.135 382.917 131.411C382.045 129.994 381.173 128.687 380.192 127.27L377.467 123.238L389.675 114.085Z" fill="#263238"/>
<path d="M382.59 186.656L373.979 189.271L381.827 197.552C381.827 197.552 388.476 193.629 386.732 189.815L382.59 186.656Z" fill="#B55B52"/>
<path d="M370.382 195.59L376.704 201.91L381.718 197.552L373.87 189.271L370.382 195.59Z" fill="#B55B52"/>
<path opacity="0.3" d="M350.653 187.309C350.653 187.309 352.288 175.977 355.231 170.42C355.776 175.214 357.847 187.963 357.847 187.963L350.653 187.309Z" fill="white"/>
<path d="M96.7568 74.5234L95.667 74.5444L96.1717 100.691L97.2614 100.67L96.7568 74.5234Z" fill="#0ec2f3"/>
<path d="M97.4457 109.063L96.356 109.084L96.5726 120.305L97.6624 120.284L97.4457 109.063Z" fill="#0ec2f3"/>
<path d="M311.849 47.8352H98.9722L104.64 338.551H317.517L311.849 47.8352Z" fill="#0ec2f3"/>
<path opacity="0.8" d="M300.186 57.4241H112.161L117.284 328.309H305.418L300.186 57.4241Z" fill="white"/>
<path d="M300.186 56.1165H112.052L119.682 326.892H307.816L300.186 56.1165Z" fill="white"/>
<path opacity="0.2" d="M166.661 111.579L176.798 81.5051C189.551 86.0816 198.271 98.1766 198.707 111.579C199.143 127.052 188.352 140.346 173.201 143.07L166.661 111.579Z" fill="#0ec2f3"/>
<path d="M166.661 111.579L173.092 143.07C171.239 143.397 169.386 143.506 167.533 143.506C149.984 143.506 135.16 129.122 134.615 111.579C134.179 94.0359 148.24 79.5437 165.789 79.5437C169.495 79.5437 173.201 80.1975 176.798 81.5051L166.661 111.579Z" fill="#0ec2f3"/>
<path opacity="0.2" d="M246.34 111.579L245.577 79.5437C253.97 79.5437 262.254 82.9216 268.358 88.9146C281.111 101.337 281.656 121.713 269.666 134.135C257.676 146.557 237.184 146.557 224.431 134.135C219.635 129.449 216.365 123.565 215.057 117.136L246.34 111.579Z" fill="#0ec2f3"/>
<path d="M246.34 111.579L215.057 117.136C212.986 106.894 215.929 96.3242 223.123 89.0236C229.554 82.4857 238.492 79.1078 247.866 79.7616L246.34 111.579Z" fill="#0ec2f3"/>
<path d="M285.689 301.939H138.648L136.686 233.946H137.885L139.738 300.741H285.58L285.689 301.939Z" fill="#0ec2f3"/>
<path d="M285.58 300.087C286.343 300.087 286.888 300.632 286.888 301.395C286.888 302.157 286.343 302.702 285.58 302.702C284.817 302.702 284.272 302.157 284.272 301.395C284.272 300.632 284.817 300.087 285.58 300.087Z" fill="#0ec2f3"/>
<path d="M138.648 233.946C138.648 233.183 137.994 232.638 137.34 232.638C136.577 232.638 136.032 233.183 136.032 233.946C136.032 234.708 136.686 235.253 137.34 235.253C138.103 235.253 138.648 234.708 138.648 233.946Z" fill="#0ec2f3"/>
<path d="M143.771 297.472L143.008 296.6L160.339 278.839H170.694L175.49 273.935H190.423L221.597 241.791H229.009L239.691 252.143H246.34L265.851 232.093H283.727V233.292H266.396L246.885 253.341H239.255L228.573 242.881H222.142L190.859 275.025H175.926L171.239 279.928H160.884L143.771 297.472Z" fill="#0ec2f3"/>
<path d="M144.425 297.907C143.88 298.452 143.117 298.452 142.572 297.907C142.027 297.363 142.027 296.6 142.572 296.055C143.117 295.51 143.88 295.51 144.425 296.055C144.861 296.6 144.861 297.363 144.425 297.907Z" fill="#0ec2f3"/>
<path d="M283.618 233.946C284.381 233.946 284.926 233.401 284.926 232.638C284.926 231.875 284.272 231.331 283.618 231.331C282.855 231.331 282.31 231.875 282.31 232.638C282.31 233.401 282.964 233.946 283.618 233.946Z" fill="#0ec2f3"/>
<g opacity="0.2">
<path opacity="0.2" d="M143.662 291.043L142.79 290.171L163.5 268.923H180.504L192.058 280.146H204.92L216.256 268.487H230.644L235.44 263.693H249.392L258.984 253.777H263.671L285.58 275.134L284.817 275.897L263.235 254.976H259.42L249.828 264.782H235.876L231.189 269.686H216.692L205.465 281.236H191.622L180.068 270.013H164.045L143.662 291.043Z" fill="#0ec2f3"/>
<g opacity="0.2">
<path opacity="0.2" d="M144.207 291.479C143.662 292.023 142.899 292.023 142.354 291.479C141.809 290.934 141.809 290.171 142.354 289.626C142.899 289.081 143.662 289.081 144.207 289.626C144.643 290.171 144.643 290.934 144.207 291.479Z" fill="#0ec2f3"/>
</g>
<g opacity="0.2">
<path opacity="0.2" d="M284.272 276.442C284.817 276.986 285.58 276.986 286.125 276.442C286.67 275.897 286.561 275.134 286.125 274.589C285.689 274.044 284.817 274.044 284.272 274.589C283.727 275.025 283.727 275.897 284.272 276.442Z" fill="#0ec2f3"/>
</g>
</g>
<path d="M151.292 178.701H135.705L135.269 163.119H150.856L151.292 178.701Z" fill="#0ec2f3"/>
<path d="M231.625 173.798H160.448L160.339 168.132H231.407L231.625 173.798Z" fill="#E0E0E0"/>
<path d="M280.021 173.798H240.454L240.345 168.132H279.803L280.021 173.798Z" fill="#E0E0E0"/>
<path d="M202.086 198.315H161.211L160.993 192.648H201.977L202.086 198.315Z" fill="#E0E0E0"/>
<path d="M262.472 198.315H210.915L210.806 192.648H262.254L262.472 198.315Z" fill="#E0E0E0"/>
<path opacity="0.2" d="M152.055 203.327H136.468L136.032 187.745H151.619L152.055 203.327Z" fill="#0ec2f3"/>
<path d="M282.637 140.237L372.889 191.123L371.69 193.084L282.092 141.218L282.637 140.237Z" fill="#E0E0E0"/>
</svg>
