<svg xmlns="http://www.w3.org/2000/svg" viewBox="0 0 64 64"><g data-name="Outline"><circle cx="26" cy="52" r="1"/><path d="M43.133,48.23c-.369-.241-.75-.472-1.133-.706V16.81c0-4.481-3.472-8.375-8.55-10.337a.939.939,0,0,0-.191-.067A19.512,19.512,0,0,0,30.8,5.66a5,5,0,0,0-9.608,0C14.714,7.154,10,11.587,10,16.81V47.475A15.457,15.457,0,0,0,2,60.95a1,1,0,0,0,1,1H49a1,1,0,0,0,1-1A15.184,15.184,0,0,0,43.133,48.23ZM27.5,54.877a2.607,2.607,0,0,0-3-.006.57.57,0,0,1-.891-.644,2.533,2.533,0,0,0-.744-2.691,1.422,1.422,0,0,0-.227-.184.573.573,0,0,1,.366-1.022,2.51,2.51,0,0,0,1.98-.95c.007-.008.011-.017.017-.025a.1.1,0,0,0,.031-.044c.335-.331.415-1.221.962-1.151.556-.069.648.876,1.013,1.215.014.022.032.041.047.062a2.509,2.509,0,0,0,1.93.893c.754.07.716.888.185,1.166a2.53,2.53,0,0,0-.784,2.749A.57.57,0,0,1,27.5,54.877ZM12,46.3V37.444A3.959,3.959,0,0,0,14,38h1a.994.994,0,0,0,.988-.938,11.546,11.546,0,0,0,4.366,3.274,9.1,9.1,0,0,1-1.719,2.869c-.215.085-.423.174-.635.26V41a1,1,0,0,0-2,0v3.319C14.906,44.808,12.257,46.162,12,46.3Zm25-1.471V41a1,1,0,0,0-2,0v2.937q-.645-.275-1.307-.539A10.23,10.23,0,0,1,31.9,40.215a11.471,11.471,0,0,0,4.111-3.153A.994.994,0,0,0,37,38h1a3.959,3.959,0,0,0,2-.556V46.35C39.937,46.315,37.947,45.28,37,44.828ZM26.715,46.263a2.6,2.6,0,0,0-2.782.922L20.58,44.032a14.873,14.873,0,0,0,1.665-3.024,14.668,14.668,0,0,0,7.781-.084A15.408,15.408,0,0,0,31.734,44.2L28.2,47.376A2.566,2.566,0,0,0,26.715,46.263ZM12,31.165a4.728,4.728,0,0,0,2,.985V36a2,2,0,0,1-2-2ZM39.4,28.6l.15.045A2.74,2.74,0,0,1,38,30.165V28.189ZM38,32.237a4.708,4.708,0,0,0,2-.963V34a2,2,0,0,1-2,2ZM12.24,27.5v-.055L14,26.729v3.343A2.764,2.764,0,0,1,12.24,27.5ZM16,25.916l5.993-2.438L36,27.6v4.04c-.5,10.408-19.529,10.385-20,0Zm2.938,19.318,3.384,3.182A2.542,2.542,0,0,0,20.685,49.8L16.7,46.193C17.429,45.865,18.171,45.544,18.938,45.234Zm12.374,4.558A2.593,2.593,0,0,0,29.938,48.5l3.428-3.079q.966.393,1.89.808ZM26,4a3,3,0,0,1,2.438,1.271,20.291,20.291,0,0,0-4.876,0A3,3,0,0,1,26,4ZM12,16.81C11.919,9.193,24.08,5.139,31.95,8.052a11.045,11.045,0,0,1-.387,2.358,1,1,0,0,0,.962,1.277c1.314-.093,1.152-1.911,1.383-2.866C37.583,10.57,40,13.5,40,16.81v9.88l-2.717-.8L24.393,22.1a28.105,28.105,0,0,0,5.116-4.35A1,1,0,0,0,28.031,16.4a26.662,26.662,0,0,1-6.538,5.121c-1.9.771-7.69,3.125-9.493,3.861ZM40,59.95V57a1,1,0,0,0-2,0v2.95H14V57a1,1,0,0,0-2,0v2.95H4.038C4.4,53.533,9.291,49.616,14.747,47.121c1.06.879,5.661,5.357,6.8,5.921a.53.53,0,0,1,.161.569,2.584,2.584,0,0,0,3.95,2.893.567.567,0,0,1,.671,0,2.592,2.592,0,0,0,4.087-2.06c.071-.491-.364-.956-.011-1.365h0c1.11-.565,5.771-5.063,6.806-5.921,1.156.574,2.255,1.173,3.287,1.8a13.6,13.6,0,0,1,7.459,11Z"/><path d="M44.3,26.664a1.007,1.007,0,0,0,1.279,1.277l3.09-1.1A8.795,8.795,0,1,0,45.4,23.573ZM53.037,12.41c8.995.32,8.988,13.273,0,13.59a6.762,6.762,0,0,1-3.707-1.1,1,1,0,0,0-.884-.1l-1.552.554c.163-.654.914-1.845.45-2.436C44.369,18.592,47.775,12.271,53.037,12.41Z"/><path d="M49.542 18.285h6.452a1 1 0 0 0 0-2H49.542a1 1 0 0 0 0 2zM55.994 20.624h-4.3a1 1 0 0 0 0 2h4.3a1 1 0 0 0 0-2zM53.173 33.579a8.38 8.38 0 0 0-4.16 1.1l-2.919-1.042a1 1 0 0 0-1.279 1.277l1.043 2.919a8.416 8.416 0 1 0 7.315-4.255zm0 14.831A6.413 6.413 0 0 1 47.8 38.494a1 1 0 0 0 .1-.883l-.493-1.38 1.381.493a1 1 0 0 0 .882-.1 6.415 6.415 0 1 1 3.5 11.79z"/><path d="M57 41.174l-5.515-3.049A1 1 0 0 0 50 39v6a1.008 1.008 0 0 0 1.472.882l5.515-2.951A1 1 0 0 0 57 41.174zm-5 2.157V40.7l2.422 1.339zM31.069 31.205c.063 0 .126 0 .19-.006a3.765 3.765 0 0 0 2.558-1.363 1 1 0 0 0-1.565-1.246 1.793 1.793 0 0 1-1.123.614 1.873 1.873 0 0 1-1.366-.694 1 1 0 1 0-1.414 1.414A3.838 3.838 0 0 0 31.069 31.205zM21.172 31.2a3.762 3.762 0 0 0 2.558-1.363 1 1 0 0 0-1.565-1.246 1.793 1.793 0 0 1-1.123.614 1.873 1.873 0 0 1-1.366-.694 1 1 0 0 0-1.414 1.414 3.838 3.838 0 0 0 2.72 1.281C21.045 31.205 21.108 31.2 21.172 31.2zM23.222 33.99a1 1 0 0 0 .013 1.414 3.761 3.761 0 0 0 2.682 1.166 4.255 4.255 0 0 0 2.838-1.157 1 1 0 1 0-1.381-1.445 1.893 1.893 0 0 1-2.738.009A1 1 0 0 0 23.222 33.99zM15 17.813a1 1 0 0 0 1-1c0-2.377 3.8-5.693 10-5.693a1 1 0 0 0 0-2c-7.177 0-12 3.978-12 7.693A1 1 0 0 0 15 17.813z"/><circle cx="15" cy="20" r="1"/><circle cx="31" cy="14" r="1"/></g></svg>