<svg width="40" height="40" viewBox="0 0 40 40" fill="none" xmlns="http://www.w3.org/2000/svg">
<circle cx="20" cy="20" r="20" fill="#3772FF"/>
<path d="M20 27.5C15.8578 27.5 12.5 24.1423 12.5 20C12.5 15.8578 15.8578 12.5 20 12.5C24.1423 12.5 27.5 15.8578 27.5 20C27.5 24.1423 24.1423 27.5 20 27.5ZM20 18.5C19.8011 18.5 19.6103 18.579 19.4697 18.7197C19.329 18.8603 19.25 19.0511 19.25 19.25V23C19.25 23.1989 19.329 23.3897 19.4697 23.5303C19.6103 23.671 19.8011 23.75 20 23.75C20.1989 23.75 20.3897 23.671 20.5303 23.5303C20.671 23.3897 20.75 23.1989 20.75 23V19.25C20.75 19.0511 20.671 18.8603 20.5303 18.7197C20.3897 18.579 20.1989 18.5 20 18.5ZM20 17.75C20.1989 17.75 20.3897 17.671 20.5303 17.5303C20.671 17.3897 20.75 17.1989 20.75 17C20.75 16.8011 20.671 16.6103 20.5303 16.4697C20.3897 16.329 20.1989 16.25 20 16.25C19.8011 16.25 19.6103 16.329 19.4697 16.4697C19.329 16.6103 19.25 16.8011 19.25 17C19.25 17.1989 19.329 17.3897 19.4697 17.5303C19.6103 17.671 19.8011 17.75 20 17.75Z" fill="white"/>
</svg>
