<svg width="32" height="37" viewBox="0 0 32 37" fill="none" xmlns="http://www.w3.org/2000/svg">
<path d="M29.7143 2.28516H2.27857C1.02143 2.28516 0 3.32087 0 4.5923V31.978C0 33.2494 1.02143 34.2852 2.27857 34.2852H29.7143C30.9714 34.2852 32 33.2494 32 31.978V4.5923C32 3.32087 30.9714 2.28516 29.7143 2.28516ZM9.67143 29.7137H4.92857V14.4423H9.67857V29.7137H9.67143ZM7.3 12.3566C5.77857 12.3566 4.55 11.1209 4.55 9.60659C4.55 8.0923 5.77857 6.85659 7.3 6.85659C8.81429 6.85659 10.05 8.0923 10.05 9.60659C10.05 11.128 8.82143 12.3566 7.3 12.3566V12.3566ZM27.45 29.7137H22.7071V22.2852C22.7071 20.5137 22.6714 18.2352 20.2429 18.2352C17.7714 18.2352 17.3929 20.1637 17.3929 22.1566V29.7137H12.65V14.4423H17.2V16.528H17.2643C17.9 15.328 19.45 14.0637 21.7571 14.0637C26.5571 14.0637 27.45 17.228 27.45 21.3423V29.7137V29.7137Z" fill="white"/>
</svg>
