<?xml version="1.0" encoding="utf-8"?>
<!-- Generator: Adobe Illustrator 22.0.0, SVG Export Plug-In . SVG Version: 6.00 Build 0)  -->
<svg version="1.1" id="Layer_1" xmlns="http://www.w3.org/2000/svg" xmlns:xlink="http://www.w3.org/1999/xlink" x="0px" y="0px"
	 viewBox="0 0 344.2 100.8" style="enable-background:new 0 0 344.2 100.8;" xml:space="preserve">
<style type="text/css">
	.st0{fill:url(#SVGID_1_);}
	.st1{fill:#333334;}
	.st2{opacity:0.4;fill:#00C0F3;}
	.st3{fill:#00C0F3;}
	.st4{opacity:0.5;fill:#FFFFFF;}
	.st5{fill:#FFFFFF;}
	.st6{opacity:0.5;fill:#333334;}
	.st7{fill:url(#SVGID_2_);}
	.st8{opacity:0.5;fill:#00C0F3;}
	.st9{fill:url(#SVGID_3_);}
	.st10{fill:url(#SVGID_4_);}
	.st11{fill:url(#SVGID_5_);}
	.st12{fill:url(#SVGID_6_);}
	.st13{fill:url(#SVGID_7_);}
	.st14{opacity:0.9;fill:#333334;}
	.st15{fill:url(#SVGID_8_);}
	.st16{fill:url(#SVGID_9_);}
	.st17{fill:url(#SVGID_10_);}
	.st18{fill:url(#SVGID_11_);}
</style>
<linearGradient id="SVGID_1_" gradientUnits="userSpaceOnUse" x1="2.519" y1="2.3116" x2="79.9148" y2="79.2522">
	<stop  offset="0" style="stop-color:#62CDF6"/>
	<stop  offset="1" style="stop-color:#00C0F3"/>
</linearGradient>
<path class="st0" d="M96.1,35.1c0-25.2-17.5-29.9-29.6-29.9c-15.3,0-19.2,0-35,0S5.7,18.8,5.7,29.3c0,8.7,0,25.2,0,40.1
	c0,15.9,13.2,26.2,26.2,26.2c11.9,0,26.8,0,39.3,0s24.6-12.3,24.6-24.6S96.1,35.1,96.1,35.1z"/>
<g>
	<path class="st5" d="M44.1,76.2H17.4l25.9-25.6l2.8,2.8L27,72.3h15.4L53.7,61L17.5,24.5H44l12.6,12.6h14.5l15.3,15.3H67.9L59.3,61
		l-0.9-0.9l0.9,0.9L44.1,76.2z M27,28.5l29.4,29.7l9.7-9.8h10.5l-7.3-7.3H54.9L42.4,28.5H27z"/>
	<path class="st8" d="M46.7,53.9l-4-4v8.5C42.7,58.4,46.7,53.8,46.7,53.9z"/>
	<path class="st8" d="M56.2,57.9l4,4l0-8.5C60.2,53.4,56.1,58,56.2,57.9z"/>
</g>
<g>
	<g>
		<path class="st3" d="M117,63.4c-2.6,0-4.9-0.5-6.9-1.4s-3.5-2.4-4.6-4.5c-1.1-2.1-1.6-4.7-1.6-8.1c0-3.3,0.5-5.9,1.6-8
			c1.1-2.1,2.6-3.6,4.6-4.6c2-1,4.3-1.5,6.9-1.5c1.7,0,3.3,0.2,5,0.5c1.6,0.3,3.2,0.8,4.6,1.4v5.9c-1.6-0.8-3.1-1.5-4.5-2
			c-1.4-0.5-2.8-0.8-4.3-0.8c-1.5,0-2.8,0.3-3.9,0.8c-1.1,0.5-1.9,1.5-2.5,2.8c-0.6,1.3-0.8,3.1-0.8,5.3c0,2.2,0.3,4,0.9,5.3
			c0.6,1.3,1.4,2.2,2.4,2.8c1,0.6,2.3,0.8,3.7,0.8c0.7,0,1.4,0,2-0.1c0.6-0.1,1.2-0.3,1.7-0.5v-4.8h-4.4v-5.1h11v12.6
			c-1.7,0.9-3.4,1.6-5.2,2.1C120.7,63.1,118.8,63.4,117,63.4z"/>
		<path class="st3" d="M144.6,63.4c-2.7,0-5-0.5-6.9-1.5c-2-1-3.5-2.5-4.6-4.6c-1.1-2.1-1.6-4.7-1.6-7.9c0-4.6,1.2-8.1,3.5-10.4
			c2.3-2.4,5.5-3.5,9.7-3.5c2.7,0,5,0.5,6.9,1.5c2,1,3.5,2.5,4.6,4.6c1.1,2,1.6,4.7,1.6,7.9c0,4.6-1.1,8.1-3.4,10.5
			C152,62.2,148.8,63.4,144.6,63.4z M144.6,58c1.4,0,2.5-0.3,3.5-0.8c1-0.6,1.7-1.5,2.2-2.8c0.5-1.3,0.7-3,0.7-5.1
			c0-2.1-0.2-3.8-0.7-5.1c-0.5-1.3-1.2-2.2-2.2-2.7c-1-0.6-2.1-0.8-3.5-0.8s-2.5,0.3-3.5,0.8c-0.9,0.6-1.7,1.5-2.2,2.7
			c-0.5,1.3-0.7,3-0.7,5.1c0,2.1,0.2,3.8,0.7,5.1c0.5,1.2,1.2,2.1,2.2,2.7C142.1,57.7,143.2,58,144.6,58z"/>
		<path class="st1" d="M161.6,39.4v-3.8h4.5v3.8H161.6z M161.7,62.8V42.7h4.2l0,20.1H161.7z"/>
		<path class="st1" d="M171.3,44.2c0.6-0.3,1.3-0.6,2-0.8c0.7-0.3,1.5-0.5,2.4-0.7c0.8-0.2,1.7-0.3,2.5-0.4c0.9-0.1,1.7-0.2,2.5-0.2
			c1.9,0,3.5,0.3,4.7,0.8c1.2,0.5,2.1,1.3,2.7,2.4c0.6,1.1,0.9,2.5,0.9,4.1v13.4h-4.2V50c0-0.5-0.1-1-0.2-1.5
			c-0.1-0.5-0.3-1-0.7-1.4c-0.3-0.4-0.8-0.7-1.4-1s-1.5-0.4-2.5-0.4c-0.7,0-1.5,0.1-2.2,0.2c-0.8,0.1-1.5,0.3-2.2,0.6v16.3h-4.2
			V44.2z"/>
		<path class="st1" d="M195.8,62.8V46.1h-3.2v-3.5h3.3v-0.8c0-1.4,0.2-2.6,0.5-3.5c0.3-0.9,0.7-1.7,1.2-2.3c0.5-0.6,1.1-1,1.7-1.3
			c0.6-0.3,1.2-0.5,1.9-0.5s1.2-0.1,1.8-0.1c0.4,0,0.8,0,1.2,0.1c0.4,0.1,0.8,0.1,1,0.2v3.7c-0.2-0.1-0.5-0.2-0.7-0.3
			c-0.3-0.1-0.6-0.1-1-0.1s-0.8,0-1.2,0.1c-0.4,0.1-0.8,0.2-1.1,0.5c-0.3,0.3-0.6,0.6-0.8,1.1c-0.2,0.5-0.3,1.2-0.3,2.1v1.2h5.1v3.5
			H200v16.7H195.8z M213.1,62.8h-4.2V34.9h4.2V62.8z"/>
		<path class="st1" d="M227.2,63.4c-1.9,0-3.4-0.3-4.8-0.9c-1.3-0.6-2.4-1.5-3.1-2.7c-0.7-1.2-1.1-2.7-1.1-4.5V42.6h4.2v12.1
			c0,1.7,0.4,3,1.1,3.8c0.8,0.8,2,1.2,3.6,1.2s2.8-0.4,3.6-1.2c0.8-0.8,1.1-2.1,1.1-3.8V42.6h4.1v12.7c0,2.7-0.8,4.7-2.3,6.1
			C232.1,62.7,230,63.4,227.2,63.4z"/>
		<path class="st1" d="M249.9,63.4c-2,0-3.7-0.4-5.2-1.2c-1.5-0.8-2.6-2-3.4-3.6c-0.8-1.6-1.2-3.5-1.2-5.8c0-3.5,0.8-6.2,2.5-8
			c1.7-1.8,4-2.7,6.9-2.7c2.2,0,3.9,0.5,5.3,1.4c1.3,1,2.3,2.3,2.9,4c0.6,1.7,0.9,3.8,0.9,6.1h-15.9l-0.1-3.1h12.8l-1,1
			c-0.1-2.1-0.5-3.6-1.3-4.5c-0.8-1-2-1.4-3.7-1.4c-1.1,0-2,0.2-2.7,0.7c-0.8,0.4-1.3,1.2-1.7,2.3c-0.4,1.1-0.6,2.5-0.6,4.4
			c0,2.3,0.5,4,1.6,5.1c1,1.2,2.6,1.8,4.6,1.8c0.9,0,1.8-0.1,2.6-0.2s1.5-0.4,2.2-0.6c0.7-0.3,1.2-0.5,1.7-0.7V62
			c-0.9,0.4-2,0.7-3.2,1C252.7,63.3,251.3,63.4,249.9,63.4z"/>
		<path class="st1" d="M262.6,44.2c0.6-0.3,1.3-0.6,2-0.8c0.7-0.3,1.5-0.5,2.4-0.7c0.8-0.2,1.7-0.3,2.5-0.4c0.9-0.1,1.7-0.2,2.5-0.2
			c1.9,0,3.5,0.3,4.7,0.8c1.2,0.5,2.1,1.3,2.7,2.4c0.6,1.1,0.9,2.5,0.9,4.1v13.4H276V50c0-0.5-0.1-1-0.2-1.5c-0.1-0.5-0.3-1-0.7-1.4
			c-0.3-0.4-0.8-0.7-1.4-1s-1.5-0.4-2.5-0.4c-0.7,0-1.5,0.1-2.2,0.2c-0.8,0.1-1.5,0.3-2.2,0.6v16.3h-4.2V44.2z"/>
		<path class="st1" d="M294.3,63.2c-1.2,0-2.4-0.2-3.6-0.5c-1.2-0.3-2.2-0.9-3.2-1.7c-1-0.8-1.7-1.9-2.3-3.2s-0.8-3-0.8-5
			c0-2,0.3-3.7,0.8-5.1c0.5-1.4,1.3-2.5,2.2-3.3c0.9-0.8,2-1.4,3.2-1.8c1.2-0.3,2.4-0.5,3.7-0.5c1.1,0,2.1,0.1,3.2,0.3
			c1.1,0.2,2.1,0.5,3,0.9v3.8c-0.9-0.4-1.8-0.7-2.7-0.9c-0.9-0.2-1.9-0.3-2.9-0.3c-2.1,0-3.7,0.5-4.7,1.6c-1.1,1-1.6,2.7-1.6,5.1
			c0,2.4,0.5,4.2,1.5,5.3c1,1.1,2.7,1.7,4.9,1.7c1,0,2-0.1,2.9-0.4c0.9-0.3,1.8-0.6,2.6-0.9v3.8c-0.9,0.4-1.9,0.8-2.9,1
			C296.6,63.1,295.5,63.2,294.3,63.2z"/>
		<path class="st1" d="M313.3,63.4c-2,0-3.7-0.4-5.2-1.2c-1.5-0.8-2.6-2-3.4-3.6c-0.8-1.6-1.2-3.5-1.2-5.8c0-3.5,0.8-6.2,2.5-8
			c1.7-1.8,4-2.7,6.9-2.7c2.2,0,3.9,0.5,5.3,1.4c1.3,1,2.3,2.3,2.9,4c0.6,1.7,0.9,3.8,0.9,6.1h-15.9l-0.1-3.1h12.8l-1,1
			c-0.1-2.1-0.5-3.6-1.3-4.5c-0.8-1-2-1.4-3.7-1.4c-1.1,0-2,0.2-2.7,0.7c-0.8,0.4-1.3,1.2-1.7,2.3c-0.4,1.1-0.6,2.5-0.6,4.4
			c0,2.3,0.5,4,1.6,5.1c1,1.2,2.6,1.8,4.6,1.8c0.9,0,1.8-0.1,2.6-0.2s1.5-0.4,2.2-0.6c0.7-0.3,1.2-0.5,1.7-0.7V62
			c-0.9,0.4-2,0.7-3.2,1C316.1,63.3,314.8,63.4,313.3,63.4z"/>
		<path class="st1" d="M326.1,62.8V44.4c0.3-0.2,1-0.5,1.9-0.9c0.9-0.4,2.1-0.7,3.3-1c1.3-0.3,2.6-0.4,3.9-0.4
			c0.7,0,1.2,0.1,1.7,0.2c0.4,0.1,0.8,0.2,1.1,0.4V46c-0.6-0.1-1.3-0.1-1.9-0.2c-0.7,0-1.3,0-2,0c-0.7,0-1.3,0.1-2,0.2
			c-0.6,0.1-1.2,0.2-1.8,0.2v16.5H326.1z"/>
	</g>
</g>
</svg>
