<svg width="718" height="535" viewBox="0 0 718 535" fill="none" xmlns="http://www.w3.org/2000/svg">
<path d="M340.332 406.06H63.0407C58.5891 406.06 54.8555 402.327 54.8555 397.876V8.18438C54.8555 3.73323 58.5891 0 63.0407 0H340.332C344.784 0 348.518 3.73323 348.518 8.18438V397.876C348.518 402.47 344.928 406.06 340.332 406.06ZM63.0407 0.430757C58.7327 0.430757 55.1427 3.87681 55.1427 8.32797V398.019C55.1427 402.327 58.5891 405.917 63.0407 405.917H340.332C344.64 405.917 348.23 402.47 348.23 398.019V8.18438C348.23 3.87681 344.784 0.287171 340.332 0.287171H63.0407V0.430757Z" fill="#C6C6C6"/>
<path d="M650.939 406.06H373.647C369.196 406.06 365.462 402.327 365.462 397.876V8.18438C365.462 3.73323 369.196 0 373.647 0H650.939C655.39 0 659.124 3.73323 659.124 8.18438V397.876C659.124 402.47 655.534 406.06 650.939 406.06ZM373.647 0.430757C369.339 0.430757 365.749 3.87681 365.749 8.32797V398.019C365.749 402.327 369.196 405.917 373.647 405.917H650.939C655.247 405.917 658.837 402.47 658.837 398.019V8.18438C658.837 3.87681 655.39 0.287171 650.939 0.287171H373.647V0.430757Z" fill="#C6C6C6"/>
<path d="M248.132 238.823L580.135 238.823V25.3114L248.132 25.3114V238.823Z" fill="#E0E7EC"/>
<path d="M248.141 25.2711H245.125V238.783H248.141V25.2711Z" fill="#E6E6E6"/>
<path d="M571.615 230.264V33.9828L256.844 33.9828L256.844 230.264L571.615 230.264Z" fill="#FAFAFA"/>
<path d="M393.32 286.166H351.532V470.099H393.32V286.166Z" fill="#C7D5DF"/>
<path d="M379.965 470.099H393.32V444.828H366.18L379.965 470.099Z" fill="#FAFAFA"/>
<path d="M114.449 286.166H72.6611V470.099H114.449V286.166Z" fill="#C7D5DF"/>
<path d="M393.32 286.166H102.817V461.484H393.32V286.166Z" fill="#FAFAFA"/>
<path d="M116.029 470.099H102.817V444.828H129.958L116.029 470.099Z" fill="#FAFAFA"/>
<path d="M382.981 351.498H113.013V395.291H382.981V351.498Z" fill="#E0E7EC"/>
<path d="M382.981 404.768H113.013V448.561H382.981V404.768Z" fill="#E0E7EC"/>
<path d="M357.419 356.092H138.717C135.557 356.092 132.973 353.508 132.973 350.349V347.621H363.163V350.349C363.163 353.651 360.579 356.092 357.419 356.092Z" fill="#FAFAFA"/>
<path d="M382.981 298.227H113.013V342.021H382.981V298.227Z" fill="#E0E7EC"/>
<path d="M357.419 302.966H138.717C135.557 302.966 132.973 300.381 132.973 297.222V294.494H363.163V297.222C363.163 300.381 360.579 302.966 357.419 302.966Z" fill="#FAFAFA"/>
<path d="M357.419 409.363H138.717C135.557 409.363 132.973 406.778 132.973 403.619V400.891H363.163V403.619C363.163 406.778 360.579 409.363 357.419 409.363Z" fill="#FAFAFA"/>
<path d="M574.544 288.607C586.176 269.941 622.363 218.681 682.531 191.83C683.393 191.4 682.675 190.538 681.813 190.825C678.941 191.687 675.926 192.835 672.91 194.271C672.192 194.558 671.33 193.984 671.761 193.41C675.208 189.964 680.234 185.225 686.696 180.343C687.414 179.769 686.408 179.051 685.547 179.482C678.941 182.784 673.628 186.518 669.464 189.964C668.746 190.538 667.597 189.964 668.171 189.246C669.751 187.379 671.474 185.369 673.484 183.359C674.059 182.784 672.91 182.21 672.192 182.641C659.124 191.543 653.093 201.738 650.939 206.189C650.939 206.189 650.939 206.189 650.796 206.189C652.806 201.163 657.545 191.4 666.017 180.056C666.448 179.482 665.299 178.908 664.725 179.338C659.986 182.928 656.109 186.661 652.95 190.394C652.375 190.969 651.083 190.538 651.514 189.82C652.088 188.959 652.519 188.241 653.093 187.379C653.524 186.805 652.375 186.231 651.801 186.805C645.913 191.543 641.318 196.569 637.584 201.451C637.154 202.025 635.718 201.594 636.148 201.02C638.877 195.42 642.323 189.246 646.344 183.072C646.775 182.497 645.626 181.923 644.908 182.497C624.23 199.871 617.48 224.281 615.757 232.321C617.193 224.281 621.07 206.907 629.974 187.523C630.261 186.948 629.112 186.518 628.538 187.092C622.506 193.41 617.911 200.445 614.465 207.338C614.178 208.056 612.742 207.768 612.885 207.05C613.89 204.035 614.896 200.876 616.188 197.861C616.475 197.287 615.183 196.856 614.752 197.43C606.567 206.476 600.966 217.532 597.089 227.583C596.802 228.301 595.366 228.014 595.51 227.296C596.658 222.988 598.094 218.537 600.105 213.943C600.392 213.368 599.243 212.937 598.669 213.368C592.35 219.399 588.186 226.434 585.601 233.183C585.314 233.901 583.878 233.614 584.022 232.896C584.596 229.306 585.458 225.717 586.463 221.983C586.606 221.409 585.458 220.978 585.027 221.553C578.278 229.593 574.831 238.639 573.252 247.254C573.108 247.972 571.672 247.829 571.672 247.111C571.672 241.942 572.103 236.629 572.821 231.173C572.964 230.598 571.672 230.311 571.241 230.886C555.445 253.285 565.928 285.448 566.215 286.023L567.22 288.463C568.369 290.617 573.108 290.904 574.544 288.607Z" fill="white"/>
<path d="M547.403 289.612C538.5 278.125 511.36 247.111 471.582 235.767C471.008 235.624 471.295 234.906 472.013 234.906C473.88 235.193 475.747 235.624 477.901 236.198C478.332 236.342 478.906 235.767 478.475 235.48C476.034 233.47 472.444 230.886 467.992 228.301C467.562 228.014 467.992 227.44 468.567 227.583C473.018 229.019 476.608 231.029 479.48 232.896C479.911 233.183 480.629 232.609 480.198 232.321C479.05 231.173 477.757 230.024 476.465 228.875C476.034 228.588 476.752 228.014 477.183 228.157C486.086 232.752 490.681 239.07 492.548 241.798C490.825 238.639 487.091 232.321 480.629 225.573C480.342 225.286 480.916 224.711 481.347 224.999C484.65 226.865 487.378 229.019 489.676 231.173C490.107 231.46 490.825 231.029 490.538 230.598C490.107 230.168 489.676 229.593 489.389 229.019C489.102 228.588 489.676 228.157 490.107 228.445C494.128 231.029 497.574 233.901 500.302 236.916C500.59 237.347 501.451 236.773 501.164 236.485C498.866 232.896 496.282 229.163 493.266 225.286C492.979 224.855 493.697 224.424 494.128 224.711C508.631 234.188 514.95 250.27 516.816 255.726C515.237 250.413 511.216 238.783 503.892 226.434C503.605 226.004 504.323 225.573 504.754 225.86C509.062 229.593 512.508 233.757 515.38 238.065C515.668 238.496 516.529 238.065 516.386 237.634C515.524 235.624 514.519 233.614 513.514 231.604C513.226 231.173 514.088 230.742 514.375 231.173C520.263 236.485 524.714 243.378 528.017 249.839C528.304 250.27 529.166 249.982 529.022 249.408C527.874 246.536 526.581 243.665 525.002 240.793C524.714 240.362 525.432 239.931 525.863 240.219C530.315 243.665 533.474 247.972 535.772 252.28C536.059 252.711 536.92 252.423 536.777 251.993C536.059 249.552 535.197 247.111 534.192 244.67C534.048 244.239 534.766 243.952 535.054 244.239C539.936 248.977 542.952 254.864 544.675 260.608C544.818 261.039 545.68 260.895 545.68 260.321C545.249 256.731 544.531 253.141 543.526 249.408C543.382 248.977 544.1 248.69 544.388 248.977C556.163 262.618 552.573 286.022 552.573 286.453L552.142 288.32C551.568 290.33 548.552 291.048 547.403 289.612Z" fill="#FAFAFA"/>
<path d="M545.106 270.085C535.197 254.864 504.61 213.081 454.781 191.687C454.063 191.4 454.638 190.682 455.356 190.825C457.653 191.543 460.094 192.405 462.679 193.553C463.254 193.841 463.972 193.266 463.541 192.835C460.669 189.964 456.504 186.231 451.048 182.21C450.473 181.779 451.191 181.205 451.909 181.492C457.366 184.077 461.818 187.092 465.264 189.964C465.838 190.395 466.844 189.964 466.413 189.389C465.12 187.81 463.684 186.231 461.961 184.651C461.53 184.22 462.392 183.646 462.966 184.077C473.88 191.256 478.906 199.584 480.773 203.174C480.773 203.174 480.773 203.174 480.916 203.174C479.193 199.153 475.172 191.112 467.992 181.779C467.562 181.349 468.567 180.774 468.998 181.205C472.875 184.077 476.178 187.092 478.762 190.107C479.193 190.538 480.342 190.251 479.911 189.677C479.48 188.959 479.05 188.384 478.619 187.666C478.332 187.236 479.193 186.805 479.768 187.092C484.65 190.825 488.527 194.989 491.686 199.01C492.117 199.584 493.122 199.153 492.835 198.579C490.394 193.984 487.522 188.959 484.219 183.933C483.932 183.502 484.794 183.072 485.368 183.359C502.744 197.43 508.631 217.389 510.211 223.994C508.918 217.389 505.328 203.174 497.718 187.379C497.43 186.805 498.436 186.518 498.866 186.948C503.892 192.118 507.77 197.861 510.785 203.461C511.072 204.035 512.221 203.748 512.078 203.174C511.216 200.733 510.354 198.148 509.206 195.564C508.918 194.989 509.924 194.702 510.354 195.133C517.247 202.599 521.986 211.502 525.289 219.686C525.576 220.26 526.725 220.117 526.581 219.399C525.576 215.953 524.284 212.22 522.56 208.486C522.273 207.912 523.278 207.625 523.709 208.056C529.022 212.937 532.469 218.681 534.766 224.281C535.054 224.855 536.202 224.712 536.059 224.137C535.484 221.265 534.766 218.25 533.905 215.235C533.761 214.66 534.766 214.373 535.197 214.948C540.941 221.553 543.813 228.875 545.249 235.911C545.393 236.486 546.542 236.486 546.542 235.768C546.398 231.604 546.111 227.152 545.249 222.701C545.106 222.127 546.111 221.983 546.542 222.414C559.896 240.649 551.855 267.069 551.711 267.644L550.993 269.654C550.275 271.664 546.398 271.951 545.106 270.085Z" fill="white"/>
<path d="M587.899 273.1C596.946 265.633 623.368 245.819 656.109 239.357C656.54 239.214 656.396 238.783 655.965 238.783C654.529 238.926 652.95 239.07 651.227 239.501C650.796 239.644 650.509 239.214 650.939 239.07C653.237 237.778 656.396 236.198 660.273 234.475C660.704 234.332 660.417 233.901 659.986 234.045C656.253 234.906 653.237 236.055 650.652 237.203C650.221 237.347 649.791 237.06 650.221 236.773C651.37 236.055 652.519 235.337 653.811 234.619C654.242 234.475 653.811 234.045 653.381 234.188C645.626 236.916 640.887 241.08 639.164 242.803C641.031 240.793 645.195 236.629 651.227 232.321C651.514 232.034 651.083 231.747 650.796 231.891C647.924 233.039 645.483 234.475 643.329 235.768C642.898 236.055 642.467 235.624 642.754 235.337C643.185 235.05 643.616 234.619 643.903 234.332C644.19 234.045 643.759 233.757 643.472 233.901C639.882 235.48 636.723 237.347 634.138 239.214C633.851 239.501 633.277 239.07 633.564 238.926C635.861 236.629 638.733 234.188 641.749 231.747C642.036 231.46 641.605 231.173 641.175 231.316C628.251 237.203 620.496 247.685 618.055 251.275C620.353 247.829 625.522 240.219 633.42 232.178C633.707 231.891 633.133 231.604 632.846 231.747C628.825 234.045 625.379 236.773 622.507 239.644C622.219 239.932 621.645 239.644 621.789 239.357C622.794 238.065 623.943 236.773 625.091 235.48C625.379 235.193 624.804 234.906 624.517 235.193C619.06 238.496 614.321 242.947 610.588 247.254C610.301 247.542 609.726 247.254 609.87 246.967C611.162 245.101 612.742 243.234 614.609 241.367C614.896 241.08 614.465 240.793 614.034 240.937C609.87 243.09 606.711 245.819 604.269 248.69C603.982 248.977 603.408 248.69 603.551 248.403C604.557 246.824 605.562 245.244 606.854 243.665C606.998 243.378 606.567 243.09 606.28 243.378C601.541 246.393 598.238 250.27 595.941 254.003C595.797 254.29 595.079 254.147 595.223 253.859C596.228 251.562 597.52 249.121 598.956 246.68C599.1 246.393 598.669 246.106 598.382 246.393C586.75 255.152 585.314 270.802 585.314 271.09V272.238C584.596 273.387 586.75 273.961 587.899 273.1Z" fill="white"/>
<path d="M577.128 281.284C575.118 263.767 572.82 214.804 602.689 177.328C603.12 176.754 602.115 176.323 601.54 176.754C599.961 178.19 598.381 179.913 596.802 181.923C596.371 182.354 595.366 182.21 595.509 181.636C596.084 178.046 597.232 173.021 599.243 167.421C599.386 166.846 598.237 166.559 597.95 167.134C594.791 171.585 592.924 175.749 591.919 179.626C591.776 180.2 590.483 180.056 590.483 179.482C590.627 177.615 590.77 175.605 591.058 173.595C591.201 173.021 589.909 172.877 589.622 173.451C584.883 183.933 586.319 193.266 587.18 197.287C585.888 192.979 583.734 184.22 583.59 173.164C583.59 172.59 582.441 172.446 582.154 173.021C580.718 177.041 580 181.061 579.713 184.651C579.713 185.225 578.421 185.225 578.277 184.651C578.134 183.933 578.133 183.072 577.99 182.354C577.99 181.779 576.841 181.779 576.554 182.21C574.831 187.379 574.256 192.548 574.256 197.43C574.256 198.005 572.964 198.148 572.82 197.574C571.671 192.548 570.666 186.948 570.092 181.205C570.092 180.631 568.943 180.631 568.656 181.061C563.055 200.158 572.102 220.404 575.405 227.009C571.815 220.547 564.779 206.332 560.327 189.102C560.183 188.528 559.035 188.528 558.891 189.102C558.029 195.707 558.604 202.169 560.04 208.343C560.183 208.917 558.891 209.204 558.747 208.486C557.742 205.902 556.737 203.317 555.875 200.589C555.732 200.015 554.583 200.158 554.439 200.733C553.578 209.922 555.588 219.83 558.604 228.445C558.747 229.019 557.599 229.306 557.311 228.732C555.732 225.142 554.296 221.409 553.003 217.389C552.86 216.814 551.711 216.814 551.567 217.389C550.275 223.85 551.137 230.168 553.147 236.055C553.291 236.629 552.142 236.916 551.855 236.342C550.275 233.47 548.695 230.455 547.403 227.44C547.116 226.865 546.111 227.009 545.967 227.583C545.536 235.624 548.121 243.378 551.855 250.27C552.142 250.844 550.993 251.275 550.562 250.7C547.69 246.824 544.818 242.66 542.233 238.352C541.946 237.778 540.797 238.065 540.941 238.496C542.09 259.89 568.512 281.141 568.943 281.428L571.097 283.007C573.682 284.587 577.415 283.438 577.128 281.284Z" fill="#E0E7EC"/>
<path d="M605.848 259.172C613.459 259.172 619.634 265.49 619.203 273.1C617.48 312.155 608.577 325.796 564.922 325.796C521.268 325.796 512.508 312.299 510.642 273.1C510.354 265.49 516.386 259.172 523.996 259.172H605.848Z" fill="#E0E7EC"/>
<path d="M462.422 333.043H639.337V325.721H462.422V333.043Z" fill="white"/>
<path d="M462.392 325.796H425.343V333.119H462.392V325.796Z" fill="#F8F8F8"/>
<path d="M443.867 333.119H445.447L463.253 470.099H461.817L443.867 333.119Z" fill="#E0E7EC"/>
<path d="M443.867 333.119H442.288L424.338 470.099H425.917L443.867 333.119Z" fill="#E0E7EC"/>
<path d="M620.782 333.119H622.362L640.312 470.099H638.732L620.782 333.119Z" fill="#E0E7EC"/>
<path d="M620.783 333.119H619.203L601.396 470.099H602.832L620.783 333.119Z" fill="#E0E7EC"/>
<path d="M359 535C512.778 535 637.44 527.736 637.44 518.775C637.44 509.814 512.778 502.55 359 502.55C205.222 502.55 80.5596 509.814 80.5596 518.775C80.5596 527.736 205.222 535 359 535Z" fill="white"/>
<path d="M570.953 127.36C567.363 122.622 556.019 118.314 550.131 125.494C542.377 134.97 551.711 138.56 548.121 147.175C544.387 155.79 545.679 159.811 547.69 163.831C549.7 167.852 546.541 168.426 546.254 175.318C545.967 182.21 553.147 183.933 558.747 182.784C555.588 179.482 561.332 179.195 566.358 174.6C571.671 170.005 581.723 136.837 570.953 127.36Z" fill="#263238"/>
<path d="M564.204 512.601C559.896 513.175 556.162 513.749 551.854 515.329C547.403 516.908 544.818 517.626 538.787 518.488C533.904 519.062 534.048 523.8 542.808 523.8C551.424 523.8 557.024 522.939 560.614 522.939C564.204 522.939 566.358 523.082 566.645 520.641C566.789 518.057 567.22 512.17 564.204 512.601Z" fill="#263238"/>
<path d="M544.388 263.192C544.388 263.192 548.408 352.503 549.27 388.686C550.132 426.306 555.876 514.18 555.876 514.18H565.353C565.353 514.18 575.118 441.095 570.667 388.686C577.416 348.339 582.011 263.192 582.011 263.192H544.388Z" fill="#FFC3BD"/>
<path d="M555.875 513.319C550.849 515.903 545.249 516.765 543.095 517.913C540.941 519.062 565.353 516.334 565.353 514.18L555.875 513.319Z" fill="#FFC3BD"/>
<path d="M626.383 507.719C623.798 509.442 622.506 508.724 620.208 511.308C617.911 514.036 615.469 517.913 611.305 519.206C607.859 520.211 607.715 523.8 613.89 523.657C620.065 523.513 627.388 518.775 629.542 517.339C631.553 515.903 632.558 515.042 631.553 512.888C630.547 510.734 628.25 506.57 626.383 507.719Z" fill="#263238"/>
<path d="M620.209 511.883C620.209 512.888 616.331 516.908 618.773 516.478C623.224 515.76 628.681 510.734 627.963 508.724L620.209 511.883Z" fill="#FFC3BD"/>
<path d="M557.024 263.192C557.024 263.192 579.713 356.81 588.904 391.702C598.668 428.459 619.06 509.585 620.208 512.026L627.819 508.724C627.819 508.724 622.65 418.121 609.582 385.527C609.582 344.605 592.637 263.049 592.637 263.049H557.024V263.192Z" fill="#FFC3BD"/>
<path d="M548.408 207.481C547.977 211.645 547.259 215.666 546.685 219.686C545.967 223.706 545.105 227.727 544.1 231.604C542.09 239.501 539.505 247.398 535.628 255.152L535.484 255.295C535.053 256.013 534.622 256.587 534.048 257.018C532.612 258.023 531.032 258.741 529.596 258.885C528.16 259.172 526.724 259.172 525.576 259.028C523.134 258.741 521.268 258.023 519.401 257.305C515.811 255.869 512.795 253.859 509.78 251.849C506.908 249.839 504.179 247.685 501.594 245.388C499.01 243.09 496.568 240.793 494.127 238.208C492.978 236.916 493.122 235.05 494.271 233.901C495.276 232.896 496.856 232.896 498.004 233.614C500.589 235.48 503.318 237.347 506.046 239.07C508.774 240.793 511.503 242.516 514.375 243.952C517.103 245.388 519.975 246.824 522.56 247.542C523.852 247.972 525.145 248.259 526.006 248.259C526.437 248.259 526.868 248.259 527.012 248.116C527.155 248.116 527.155 247.972 527.012 247.972L525.432 249.839C526.868 246.536 528.16 242.947 529.166 239.357C530.171 235.768 531.176 232.034 532.038 228.301C532.899 224.568 533.617 220.835 534.192 216.958C534.91 213.225 535.484 209.348 535.915 205.615V205.471C536.346 202.169 539.505 199.871 542.808 200.302C546.398 201.307 548.695 204.179 548.408 207.481Z" fill="#FFC3BD"/>
<path d="M542.377 191.4C528.591 197.143 530.889 216.814 530.889 216.814C530.889 216.814 540.223 223.419 552.285 227.583C558.747 216.958 557.886 184.795 542.377 191.4Z" fill="#263238"/>
<path d="M497.43 240.793L485.512 241.367L492.835 231.747C492.835 231.747 500.302 232.896 502.026 237.491L497.43 240.793Z" fill="#FFC3BD"/>
<path d="M477.326 235.624L483.932 227.87L492.835 231.747L485.511 241.367L477.326 235.624Z" fill="#FFC3BD"/>
<path d="M537.351 205.04C536.92 213.655 537.638 232.465 543.813 269.654H594.216C593.498 252.28 594.36 235.911 601.109 204.179C602.545 197.143 597.806 190.394 590.626 189.389C587.467 188.959 584.021 188.671 580.718 188.528C572.676 188.097 565.927 187.81 558.891 188.528C554.152 188.959 551.136 189.389 547.403 190.107C540.223 191.112 537.782 198.579 537.351 205.04Z" fill="#0ec2f3"/>
<path d="M558.891 188.528H580.718C580.718 188.528 568.512 199.153 558.603 205.902C552.429 196.569 558.891 188.528 558.891 188.528Z" fill="white"/>
<path d="M578.565 163.831C577.129 170.867 575.836 183.79 580.719 188.528C580.719 188.528 570.523 199.297 559.322 202.025C552.286 197.717 558.891 188.528 558.891 188.528C566.789 186.661 566.502 180.774 565.21 175.318L578.565 163.831Z" fill="#FFC3BD"/>
<path opacity="0.2" d="M573.107 168.569L565.209 175.318C565.496 176.61 565.783 177.903 565.927 179.195C568.943 178.764 573.107 175.462 573.394 172.303C573.394 170.723 573.394 169.287 573.107 168.569Z" fill="black"/>
<path d="M586.031 150.908C583.303 162.395 582.298 167.277 575.405 172.159C565.066 179.482 551.567 173.595 550.849 161.534C550.275 150.765 554.87 133.822 566.932 131.237C578.995 128.796 588.76 139.422 586.031 150.908Z" fill="#FFC3BD"/>
<path d="M587.611 157.513C586.749 159.811 584.739 161.39 583.016 162.108C580.144 163.257 578.42 160.816 578.995 157.944C579.426 155.36 581.436 151.77 584.452 151.914C587.18 151.914 588.616 154.929 587.611 157.513Z" fill="#FFC3BD"/>
<path d="M602.402 109.125C602.258 102.233 594.073 102.52 594.073 102.52C594.073 102.52 596.801 100.223 589.047 95.628C581.149 91.0333 573.969 96.7767 577.702 101.515C570.091 100.653 570.666 111.135 576.123 111.997C576.123 111.997 571.528 118.315 580.431 122.909L590.483 129.083C602.976 127.36 599.386 118.315 599.386 118.315C599.386 118.315 602.545 116.161 602.402 109.125Z" fill="#263238"/>
<path d="M574.974 121.186C572.82 117.74 578.995 115.73 586.175 118.458C593.355 121.186 597.232 131.381 590.627 131.955C578.708 125.207 574.974 121.186 574.974 121.186Z" fill="#0ec2f3"/>
<path d="M563.917 126.068C550.418 130.807 567.363 142.437 577.99 144.016C570.666 149.473 577.99 156.221 573.969 161.103C569.948 165.985 572.102 174.744 582.585 171.01C593.068 167.134 599.817 151.914 596.083 145.883C592.35 139.852 595.94 137.842 591.345 128.509C586.462 118.458 549.988 111.135 563.917 126.068Z" fill="#263238"/>
<path d="M565.783 151.052C565.64 152.057 564.922 152.631 564.347 152.631C563.773 152.488 563.342 151.626 563.486 150.765C563.629 149.76 564.347 149.185 564.922 149.185C565.496 149.329 565.927 150.191 565.783 151.052Z" fill="#263238"/>
<path d="M555.014 149.185C554.87 150.191 554.152 150.765 553.578 150.765C553.004 150.621 552.573 149.76 552.716 148.898C552.86 147.893 553.578 147.319 554.152 147.319C554.87 147.319 555.301 148.18 555.014 149.185Z" fill="#263238"/>
<path d="M554.583 147.319L552.429 146.314C552.429 146.314 553.147 148.324 554.583 147.319Z" fill="#263238"/>
<path d="M557.598 151.339C557.598 151.339 555.3 155.072 553.146 156.795C554.152 158.231 556.449 158.088 556.449 158.088L557.598 151.339Z" fill="#ED847E"/>
<path d="M562.05 162.395C561.476 162.395 561.045 162.395 560.471 162.252C560.327 162.252 560.184 162.108 560.184 161.965C560.184 161.821 560.327 161.677 560.471 161.677C564.635 162.395 567.076 159.811 567.076 159.811C567.22 159.667 567.364 159.667 567.507 159.811C567.651 159.954 567.651 160.098 567.507 160.242C567.507 160.385 565.497 162.395 562.05 162.395Z" fill="#263238"/>
<path d="M570.378 146.744C570.235 146.744 570.091 146.601 569.948 146.601C568.368 144.591 566.358 144.878 566.358 144.878C566.07 144.878 565.783 144.734 565.783 144.304C565.783 144.016 565.927 143.729 566.358 143.729C566.501 143.729 569.086 143.442 570.953 145.883C571.096 146.17 571.096 146.457 570.809 146.744C570.666 146.744 570.522 146.744 570.378 146.744Z" fill="#263238"/>
<path d="M553.004 143.298C552.86 143.298 552.716 143.155 552.716 143.011C552.573 142.724 552.717 142.437 553.004 142.293C555.732 140.857 558.03 142.293 558.173 142.293C558.46 142.437 558.46 142.868 558.317 143.011C558.173 143.298 557.886 143.298 557.599 143.155C557.455 143.155 555.732 142.15 553.578 143.155C553.434 143.298 553.147 143.298 553.004 143.298Z" fill="#263238"/>
<path d="M565.21 149.329L563.056 148.324C563.056 148.18 563.917 150.191 565.21 149.329Z" fill="#263238"/>
<path d="M543.812 269.51L545.823 395.148L612.597 383.23C615.182 317.611 603.837 283.582 594.216 269.654L543.812 269.51Z" fill="#263238"/>
<path opacity="0.2" d="M565.065 345.036L572.963 319.191L566.071 299.52L565.065 345.036Z" fill="black"/>
<path d="M602.258 199.44C603.694 202.456 604.843 205.471 606.136 208.486C607.428 211.502 608.433 214.517 609.582 217.676C611.736 223.85 613.603 230.168 615.039 236.629C615.326 238.352 615.757 239.932 615.9 241.655L616.188 244.239L616.475 246.824L616.618 248.116C616.618 248.834 616.618 249.695 616.475 250.413C616.188 251.993 615.757 253.285 615.039 254.434C613.746 256.731 612.167 258.167 610.587 259.316C607.428 261.757 604.269 263.192 601.11 264.485C597.95 265.633 594.791 266.639 591.345 267.213C589.765 267.5 588.186 266.495 587.755 264.772C587.468 263.48 588.186 262.187 589.334 261.469H589.478C592.063 260.034 594.935 258.598 597.376 257.018C599.817 255.439 602.258 253.716 603.982 251.849C604.843 250.988 605.418 250.126 605.705 249.552C605.848 249.265 605.848 249.121 605.705 248.977C605.705 248.977 605.705 248.977 605.705 248.834L605.561 247.829C605.274 245.101 604.556 242.085 603.838 239.214C602.258 233.327 600.392 227.583 598.238 221.696C596.084 215.953 593.786 210.066 591.345 204.466C590.052 201.451 591.488 197.861 594.504 196.425C597.376 195.133 600.966 196.425 602.258 199.44Z" fill="#FFC3BD"/>
<path d="M591.489 189.533C605.992 191.543 610.156 210.496 610.156 210.496C610.156 210.496 603.838 219.399 594.361 226.865C584.739 218.25 574.975 187.236 591.489 189.533Z" fill="#263238"/>
<path d="M590.77 261.039L577.989 261.9L586.318 270.659C586.318 270.659 593.642 268.649 594.791 263.91L590.77 261.039Z" fill="#FFC3BD"/>
<path d="M573.825 268.505L577.415 273.531C578.133 274.392 579.282 274.679 580.287 274.249L588.185 269.797L577.989 261.757L574.112 265.633C573.251 266.495 573.107 267.644 573.825 268.505Z" fill="#FFC3BD"/>
<path d="M505.903 85.0027C505.185 74.3773 495.995 65.6186 485.225 65.6186V64.1827C496.713 64.1827 506.621 73.5158 507.339 84.8591L505.903 85.0027Z" fill="#0ec2f3"/>
<path d="M508.166 98.1728L506.733 98.265L507.342 107.722L508.775 107.63L508.166 98.1728Z" fill="#0ec2f3"/>
<path d="M501.02 314.74H123.065C114.306 314.74 106.551 307.56 105.977 298.658L92.3349 85.1463C91.7605 76.3876 98.5097 69.0647 107.269 69.0647H485.224C493.984 69.0647 501.738 76.244 502.313 85.1463L516.098 298.658C516.673 307.56 509.924 314.74 501.02 314.74Z" fill="#0ec2f3"/>
<path d="M495.564 306.699H187.255C180.075 306.699 173.756 300.812 173.182 293.489L161.837 116.448C161.407 109.269 166.863 103.238 174.187 103.238H482.496C489.676 103.238 495.995 109.125 496.569 116.448L507.913 293.489C508.344 300.668 502.744 306.699 495.564 306.699Z" fill="white"/>
<path d="M208.651 90.3153H165.14C162.412 90.3153 159.971 88.0179 159.827 85.2898C159.683 82.5617 161.837 80.2643 164.566 80.2643H208.077C210.805 80.2643 213.246 82.5617 213.39 85.2898C213.533 88.0179 211.379 90.3153 208.651 90.3153Z" fill="white"/>
<path d="M266.521 90.3153H237.658C234.929 90.3153 232.488 88.0179 232.345 85.2898C232.201 82.5617 234.355 80.2643 237.083 80.2643H265.947C268.675 80.2643 271.117 82.5617 271.26 85.2898C271.404 88.0179 269.25 90.3153 266.521 90.3153Z" fill="white"/>
<path d="M324.393 90.3153H295.529C292.801 90.3153 290.359 88.0179 290.216 85.2898C290.072 82.5617 292.226 80.2643 294.955 80.2643H323.818C326.547 80.2643 328.988 82.5617 329.131 85.2898C329.275 88.0179 327.121 90.3153 324.393 90.3153Z" fill="white"/>
<path opacity="0.2" d="M111.578 301.961C109.855 301.961 108.419 300.668 108.275 298.945L94.4894 85.1463C94.3458 83.4232 95.6382 82.131 97.2178 82.131H97.3614C99.0846 82.131 100.377 83.4232 100.521 85.1463L114.306 298.945C114.45 300.525 113.301 301.961 111.578 301.961Z" fill="white"/>
<path d="M471.726 92.8999C467.561 92.8999 463.971 89.4539 463.684 85.2899C463.541 83.2797 464.259 81.2695 465.551 79.8336C466.843 78.3978 468.854 77.5363 470.864 77.5363C475.029 77.5363 478.619 80.9823 478.906 85.1463C479.049 87.1565 478.331 89.1667 477.039 90.6025C475.603 92.0384 473.736 92.8999 471.726 92.8999ZM470.864 78.9721C469.141 78.9721 467.705 79.69 466.556 80.8387C465.407 81.9874 464.833 83.5669 464.977 85.2899C465.264 88.7359 468.279 91.6076 471.726 91.6076C473.449 91.6076 474.885 90.8897 476.034 89.741C477.183 88.5924 477.757 87.0129 477.613 85.2899C477.326 81.7002 474.311 78.9721 470.864 78.9721Z" fill="white"/>
<path d="M451.335 92.8999C447.171 92.8999 443.581 89.4539 443.294 85.2899C443.15 83.2797 443.868 81.2695 445.16 79.8336C446.453 78.3978 448.463 77.5363 450.474 77.5363C454.638 77.5363 458.228 80.9823 458.515 85.1463C458.659 87.1565 457.941 89.1667 456.648 90.6025C455.356 92.0384 453.489 92.8999 451.335 92.8999ZM450.474 78.9721C448.75 78.9721 447.314 79.69 446.166 80.8387C445.017 81.9874 444.442 83.5669 444.586 85.2899C444.873 88.7359 447.889 91.6076 451.335 91.6076C453.058 91.6076 454.494 90.8897 455.643 89.741C456.792 88.5924 457.366 87.0129 457.223 85.2899C457.079 81.7002 454.064 78.9721 450.474 78.9721Z" fill="white"/>
<path opacity="0.2" d="M143.312 81.5566C145.466 81.5566 147.477 83.4232 147.62 85.577L161.549 301.386C161.549 302.391 161.262 303.396 160.544 304.114C159.826 304.832 158.965 305.263 157.816 305.263H131.106C128.952 305.263 126.942 303.396 126.798 301.243L112.869 85.4334C112.869 84.4283 113.156 83.4232 113.874 82.7053C114.592 81.9873 115.454 81.5566 116.603 81.5566H143.312ZM143.312 80.1207H116.603C113.731 80.1207 111.433 82.5617 111.577 85.4334L125.506 301.243C125.65 304.114 128.234 306.555 131.106 306.555H157.816C160.688 306.555 162.986 304.114 162.842 301.243L148.913 85.4334C148.769 82.5617 146.184 80.1207 143.312 80.1207Z" fill="white"/>
<path opacity="0.3" d="M241.966 205.04H190.557C187.111 205.04 183.952 202.169 183.808 198.723L179.644 134.827C179.357 131.381 182.085 128.509 185.675 128.509H236.94C240.387 128.509 243.546 131.381 243.689 134.827L247.854 198.723C248.141 202.169 245.413 205.04 241.966 205.04Z" fill="#0ec2f3"/>
<path fill-rule="evenodd" clip-rule="evenodd" d="M218.847 155.216C219.995 155.216 221.144 155.216 222.293 155.216H222.724L222.293 149.185C221.719 149.185 221.001 149.042 220.426 149.042C219.277 149.042 217.985 148.898 216.836 148.898C214.969 148.898 213.246 149.329 211.81 150.478C210.231 151.77 209.369 153.493 209.082 155.503C208.938 156.365 208.938 157.226 209.082 158.088C209.082 159.38 209.225 160.816 209.369 162.108V162.683H203.625L204.056 169.431H209.8L210.805 186.087H217.841L216.693 169.431H222.437C222.58 167.134 222.724 164.98 222.867 162.683H221.575C219.995 162.683 216.262 162.683 216.262 162.683C216.262 162.683 216.118 159.38 215.975 157.944C216.118 155.79 217.267 155.216 218.847 155.216Z" fill="white"/>
<path opacity="0.3" d="M320.947 205.04H269.538C266.091 205.04 262.932 202.169 262.789 198.723L258.624 134.827C258.337 131.381 261.065 128.509 264.655 128.509H316.064C319.511 128.509 322.67 131.381 322.813 134.827L326.978 198.723C327.121 202.169 324.537 205.04 320.947 205.04Z" fill="#0ec2f3"/>
<path fill-rule="evenodd" clip-rule="evenodd" d="M287.058 173.164C283.611 173.021 281.457 170.58 280.739 168.713C281.744 168.857 282.606 168.857 283.468 168.57C283.468 168.57 283.468 168.57 283.611 168.57C281.744 168.139 280.308 167.134 279.16 165.554C278.442 164.549 278.011 163.401 278.011 162.108C279.016 162.539 279.878 162.826 280.883 162.826C279.447 161.821 278.442 160.529 278.011 158.949C277.58 157.37 277.724 155.79 278.442 154.211C282.175 158.375 286.77 160.672 292.227 160.96C292.227 160.672 292.084 160.529 292.084 160.242C291.796 158.662 292.084 157.226 292.802 155.934C293.663 154.355 295.099 153.35 296.966 153.062C299.12 152.775 301.13 153.35 302.71 154.929C302.854 155.073 302.854 155.073 302.997 155.073C304.29 154.785 305.582 154.355 306.731 153.637C306.731 153.637 306.731 153.637 306.874 153.637C306.444 155.216 305.582 156.365 304.29 157.226C305.582 157.083 306.731 156.796 307.88 156.221C307.592 156.508 307.449 156.939 307.162 157.226C306.587 158.088 305.726 158.806 305.008 159.524L304.864 159.667C305.008 160.672 305.008 161.534 304.864 162.539C304.72 164.549 304.29 166.416 303.572 168.282C302.854 170.149 301.705 171.872 300.412 173.452C298.115 176.036 295.243 177.615 291.796 178.477C290.648 178.764 289.499 178.908 288.206 178.908C284.473 179.051 281.026 178.046 277.724 176.18C277.724 176.18 277.58 176.18 277.58 176.036C279.878 176.323 282.032 176.036 284.042 175.175C285.191 174.6 286.196 173.882 287.058 173.164Z" fill="white"/>
<path opacity="0.9" d="M400.07 205.04H348.661C345.215 205.04 342.055 202.169 341.912 198.723L337.747 134.827C337.46 131.381 340.189 128.509 343.779 128.509H395.187C398.634 128.509 401.793 131.381 401.937 134.827L406.101 198.723C406.245 202.169 403.516 205.04 400.07 205.04Z" fill="#0ec2f3"/>
<path d="M388.007 157.513C387.576 155.216 386.715 153.349 384.848 151.77C382.981 150.047 380.827 149.329 378.386 149.185C374.365 148.898 364.888 148.898 361.585 149.329C357.851 149.903 355.41 152.201 354.692 155.934C354.118 158.806 355.123 172.159 355.697 175.031C356.559 178.908 359 181.492 363.021 182.497C365.749 183.215 378.96 183.072 381.832 182.641C385.71 182.067 388.007 179.769 388.869 175.892C389.587 172.734 388.438 160.098 388.007 157.513ZM385.997 174.457C385.71 177.472 383.843 179.195 380.971 179.626C378.242 179.913 366.036 180.056 363.452 179.338C361.01 178.621 359.431 177.041 358.856 174.6C358.282 172.303 357.42 160.529 357.708 157.513C357.995 154.642 359.862 152.775 362.734 152.344C365.749 152.057 376.519 151.914 379.391 152.344C382.407 152.775 384.274 154.785 384.848 157.801C385.422 160.529 386.284 171.441 385.997 174.457ZM371.35 157.226C366.611 157.226 362.877 161.103 363.164 165.985C363.452 170.723 367.616 174.744 372.498 174.744C377.237 174.744 380.971 170.867 380.684 165.985C380.253 161.103 376.088 157.226 371.35 157.226ZM372.211 171.585C369.052 171.585 366.467 169 366.324 165.841C366.18 162.683 368.478 160.242 371.637 160.242C374.796 160.242 377.381 162.826 377.524 165.985C377.668 169.144 375.227 171.585 372.211 171.585ZM382.407 156.939C382.407 158.088 381.689 158.949 380.54 158.949C379.391 158.949 378.386 158.088 378.386 156.939C378.386 155.79 379.104 154.929 380.253 154.929C381.402 154.929 382.263 155.79 382.407 156.939Z" fill="white"/>
<path opacity="0.3" d="M479.194 205.04H427.785C424.339 205.04 421.179 202.169 421.036 198.723L416.871 134.827C416.584 131.381 419.313 128.509 422.903 128.509H474.311C477.758 128.509 480.917 131.381 481.061 134.827L485.225 198.723C485.369 202.169 482.64 205.04 479.194 205.04Z" fill="#0ec2f3"/>
<path fill-rule="evenodd" clip-rule="evenodd" d="M438.268 179.195C436.832 178.764 435.827 177.903 435.252 176.467C433.816 173.164 432.524 159.237 434.678 156.365C435.396 155.36 436.401 154.929 437.694 154.785C444.012 154.067 463.398 154.211 465.696 155.073C466.988 155.503 467.993 156.365 468.568 157.657C470.147 161.103 471.009 173.595 469.573 176.898C469.142 177.759 468.568 178.477 467.706 178.908C465.696 180.2 441.427 180.2 438.268 179.195ZM447.889 172.59C451.479 170.58 455.213 168.713 458.803 166.703C454.926 164.693 451.048 162.826 447.028 160.816C447.315 164.693 447.602 168.57 447.889 172.59Z" fill="white"/>
<path d="M397.198 222.988C402.224 222.988 406.532 227.009 406.819 232.034L410.266 284.874C410.409 287.315 409.691 289.469 408.112 291.192C406.532 292.915 404.378 293.776 401.937 293.776H200.322C195.296 293.776 190.988 289.756 190.701 284.73L187.255 231.891C187.111 229.45 187.829 227.296 189.409 225.573C190.988 223.85 193.142 222.988 195.584 222.988H397.198ZM397.198 221.696H195.584C189.84 221.696 185.532 226.291 185.962 232.034L189.409 284.874C189.839 290.617 194.722 295.212 200.466 295.212H401.937C407.681 295.212 411.989 290.617 411.558 284.874L408.112 232.034C407.824 226.291 402.798 221.696 397.198 221.696Z" fill="#0ec2f3"/>
<g opacity="0.2">
<path opacity="0.2" d="M222.977 222.296L221.831 222.37L226.483 294.585L227.629 294.511L222.977 222.296Z" fill="#0ec2f3"/>
<path opacity="0.2" d="M260.024 222.296L258.878 222.369L263.524 294.585L264.67 294.511L260.024 222.296Z" fill="#0ec2f3"/>
<path opacity="0.2" d="M296.929 222.304L295.782 222.378L300.428 294.593L301.574 294.52L296.929 222.304Z" fill="#0ec2f3"/>
<path opacity="0.2" d="M333.976 222.304L332.83 222.377L337.476 294.593L338.622 294.519L333.976 222.304Z" fill="#0ec2f3"/>
<path opacity="0.2" d="M371.024 222.303L369.878 222.377L374.524 294.592L375.67 294.518L371.024 222.303Z" fill="#0ec2f3"/>
</g>
<path d="M205.348 279.561C202.763 279.561 199.891 278.412 197.306 276.115C196.158 275.254 195.152 274.248 194.147 273.243C192.568 271.664 190.844 270.085 188.834 268.792L189.552 267.644C191.562 268.936 193.286 270.659 195.009 272.238C196.014 273.243 197.019 274.105 198.024 275.11C200.609 277.264 204.486 279.13 207.502 277.838C210.518 276.546 211.523 272.813 211.954 270.802C212.097 269.797 212.241 268.792 212.384 267.644C212.672 265.49 212.815 263.336 213.677 261.326C214.969 258.023 217.698 255.582 221 254.721C224.447 253.859 228.468 255.008 230.765 257.736C232.345 259.459 233.206 261.757 234.068 263.91C235.36 267.069 236.509 269.941 239.381 270.802C240.674 271.233 241.822 270.946 243.115 270.372C245.125 269.223 246.848 266.495 247.423 263.48C247.997 260.895 248.141 258.023 248.284 255.295C248.428 251.849 248.572 248.403 249.577 245.101C250.726 241.224 253.454 237.778 256.757 236.198C259.198 235.05 261.639 234.762 264.08 235.768C268.245 237.347 270.399 241.367 271.404 243.808C272.122 245.675 272.696 247.542 273.127 249.552C273.558 250.988 273.845 252.423 274.42 253.859C275.999 258.598 278.871 262.762 282.605 266.208C283.466 267.069 284.615 267.931 285.764 268.361C289.785 269.654 293.231 265.49 294.954 262.762C296.965 259.603 300.124 254.864 304.863 255.295C308.309 255.582 310.894 258.31 312.617 260.608C313.192 261.326 313.622 262.044 314.053 262.762C315.346 264.628 316.494 266.351 318.074 267.787C320.228 269.51 323.531 270.372 325.398 268.792C326.546 267.787 326.834 266.208 327.121 264.628C327.264 263.91 327.408 263.192 327.552 262.474C328.413 257.449 329.418 252.28 332.721 248.403C334.588 246.249 337.604 244.957 339.901 246.536C341.05 247.254 341.624 248.547 342.199 249.695C342.63 250.557 342.917 251.418 343.348 252.28C344.927 255.726 346.363 259.316 348.804 262.331C351.389 265.633 355.697 268.936 360.436 268.361C362.016 268.218 363.452 267.644 364.888 267.069C367.329 266.064 369.77 265.203 372.498 265.921C374.796 266.495 376.519 268.218 378.242 269.941C378.817 270.515 379.391 271.09 380.109 271.664C381.689 272.956 383.843 273.818 385.279 273.674C386.14 273.674 386.715 273.243 387.146 272.813C388.007 271.808 388.007 270.372 388.007 268.936C388.294 263.192 389.012 256.731 392.746 251.849C396.336 247.254 403.372 244.957 408.973 248.69L408.255 249.839C403.229 246.393 397.054 248.69 393.751 252.711C390.161 257.305 389.443 263.48 389.3 268.936C389.3 270.515 389.156 272.238 388.007 273.531C387.289 274.392 386.284 274.823 385.135 274.966C383.268 275.11 380.827 274.248 378.96 272.669C378.386 272.095 377.668 271.52 377.094 270.946C375.514 269.367 373.934 267.787 371.924 267.356C369.626 266.782 367.472 267.644 365.175 268.505C363.595 269.079 362.016 269.797 360.292 269.941C354.979 270.515 350.24 266.926 347.368 263.48C344.927 260.321 343.348 256.587 341.768 253.141C341.337 252.28 341.05 251.418 340.619 250.557C340.188 249.552 339.614 248.547 338.752 247.972C336.886 246.68 334.444 248.26 333.296 249.552C330.28 253.141 329.275 258.023 328.413 262.905C328.27 263.623 328.126 264.341 327.982 265.059C327.695 266.782 327.121 268.792 325.828 269.941C323.387 272.095 319.366 271.233 316.782 269.079C315.058 267.644 313.766 265.633 312.474 263.767C312.043 263.049 311.468 262.331 311.038 261.613C309.602 259.603 307.16 257.018 304.288 256.875C300.555 256.587 297.97 260.177 295.529 263.767C292.226 268.792 288.349 270.946 284.759 269.797C283.323 269.367 282.03 268.361 281.025 267.356C277.148 263.767 274.276 259.316 272.553 254.434C271.978 252.998 271.691 251.418 271.26 249.983C270.83 248.116 270.255 246.249 269.537 244.526C268.676 242.373 266.665 238.639 263.075 237.347C261.065 236.629 258.911 236.773 256.757 237.778C253.885 239.214 251.3 242.372 250.295 245.819C249.433 248.977 249.146 252.423 249.002 255.726C248.859 258.454 248.715 261.326 248.141 264.054C247.423 267.356 245.556 270.372 243.258 271.808C241.822 272.669 240.099 272.956 238.52 272.382C235.073 271.377 233.781 267.931 232.345 264.772C231.483 262.762 230.622 260.608 229.329 259.028C227.319 256.731 223.872 255.726 220.857 256.444C217.985 257.162 215.687 259.316 214.538 262.331C213.82 264.198 213.533 266.208 213.39 268.361C213.246 269.367 213.102 270.515 212.959 271.52C212.241 275.541 210.374 278.412 207.789 279.561C207.215 279.418 206.353 279.561 205.348 279.561Z" fill="#0ec2f3"/>
<path d="M478.044 287.171H439.56C434.246 287.171 429.795 282.864 429.364 277.695L426.923 239.214C426.635 233.901 430.656 229.737 435.826 229.737H474.311C479.624 229.737 484.076 234.045 484.506 239.214L486.948 277.695C487.235 282.864 483.214 287.171 478.044 287.171Z" fill="#0ec2f3"/>
<path d="M458.371 246.393L461.53 251.993C461.817 252.424 462.105 252.711 462.535 252.711L468.854 253.572C470.003 253.716 470.433 255.152 469.715 256.013L465.551 260.321C465.264 260.608 465.12 261.182 465.12 261.613L466.556 267.5C466.843 268.649 465.551 269.654 464.546 269.079L458.945 266.208C458.515 266.064 458.084 266.064 457.653 266.208L452.34 269.079C451.335 269.654 450.042 268.792 450.186 267.644L450.904 261.326C450.904 260.895 450.76 260.464 450.473 260.177L445.734 255.87C444.873 255.008 445.303 253.572 446.452 253.429L452.34 252.567C452.771 252.424 453.201 252.136 453.489 251.706L455.786 246.249C456.361 245.388 457.797 245.388 458.371 246.393Z" fill="white"/>
</svg>
