<svg width="40" height="40" viewBox="0 0 40 40" fill="none" xmlns="http://www.w3.org/2000/svg">
<circle cx="20" cy="20" r="20" fill="#EF466F"/>
<path d="M19.4604 23.0149L21.253 21.2113C21.7797 20.6814 22.6046 20.6428 23.1825 21.0815C23.6579 20.2486 23.9375 19.2987 23.9375 18.3004C23.9375 15.2052 21.4351 12.6875 18.3589 12.6875C15.2826 12.6875 12.7812 15.2052 12.7812 18.3004C12.7812 18.4727 12.7931 18.6431 12.8088 18.8124L19.4604 23.0149ZM18.6089 18.7956H18.1098C17.343 18.7956 16.7189 18.1676 16.7189 17.3961C16.7189 16.7018 17.216 16.1313 17.8677 16.0144V15.4944C17.8677 15.2211 18.0882 14.9992 18.3599 14.9992C18.6316 14.9992 18.8521 15.2211 18.8521 15.4944V15.9896H19.5077C19.7794 15.9896 19.9999 16.2115 19.9999 16.4849C19.9999 16.7582 19.7794 16.9801 19.5077 16.9801H18.1098C17.8854 16.9801 17.7033 17.1643 17.7033 17.3892C17.7033 17.6209 17.8864 17.8051 18.1098 17.8051H18.6089C19.3758 17.8051 19.9999 18.4331 19.9999 19.2046C19.9999 19.8989 19.5028 20.4694 18.8511 20.5863V21.1063C18.8511 21.3797 18.6306 21.6015 18.3589 21.6015C18.0872 21.6015 17.8667 21.3797 17.8667 21.1063V20.6111H17.2101C16.9384 20.6111 16.7179 20.3892 16.7179 20.1159C16.7179 19.8425 16.9384 19.6206 17.2101 19.6206H18.6079C18.8324 19.6206 19.0145 19.4364 19.0145 19.2116C19.0155 18.9798 18.8324 18.7956 18.6089 18.7956Z" fill="white"/>
<path opacity="0.7" d="M22.2973 23.1962L20.1365 25.3702C19.9219 25.5871 19.5863 25.6257 19.3274 25.4643L12.4365 21.1727C12.1284 20.9805 12.0329 20.5745 12.2239 20.2635C12.4149 19.9534 12.8185 19.8574 13.1276 20.0495L19.5764 24.0658L21.8346 21.7947C22.0906 21.5372 22.506 21.5372 22.7629 21.7947L25.9076 24.9587L26.7547 24.1064C26.9427 23.9172 27.2243 23.8617 27.4704 23.9627C27.7155 24.0657 27.8749 24.3064 27.8749 24.5729V27.2144C27.8749 27.5789 27.5816 27.875 27.2183 27.875H24.5929C24.3272 27.875 24.0879 27.7146 23.9866 27.4679C23.8842 27.2213 23.9413 26.9371 24.1293 26.7479L24.9783 25.8936L22.2973 23.1962Z" fill="white"/>
</svg>
