<svg width="545" height="406" viewBox="0 0 545 406" fill="none" xmlns="http://www.w3.org/2000/svg">
<path d="M545 356.748H0V357.075H545V356.748Z" fill="#EBEBEB"/>
<path d="M93.3041 367.209H57.2251V367.536H93.3041V367.209Z" fill="#EBEBEB"/>
<path d="M246.885 364.267H186.499V364.594H246.885V364.267Z" fill="#EBEBEB"/>
<path d="M120.118 373.638H99.1899V373.965H120.118V373.638Z" fill="#EBEBEB"/>
<path d="M467.283 366.991H420.195V367.318H467.283V366.991Z" fill="#EBEBEB"/>
<path d="M483.851 366.991H476.984V367.318H483.851V366.991Z" fill="#EBEBEB"/>
<path d="M353.16 370.914H302.148V371.241H353.16V370.914Z" fill="#EBEBEB"/>
<path d="M258.33 308.15H47.8512C44.4722 308.15 41.6382 305.317 41.6382 301.939V6.21095C41.6382 2.83306 44.4722 0 47.8512 0H258.33C261.709 0 264.543 2.83306 264.543 6.21095V301.939C264.543 305.426 261.818 308.15 258.33 308.15ZM47.8512 0.326892C44.5812 0.326892 41.8562 2.94203 41.8562 6.31991V302.048C41.8562 305.317 44.4722 308.041 47.8512 308.041H258.33C261.6 308.041 264.325 305.426 264.325 302.048V6.21095C264.325 2.94203 261.709 0.217928 258.33 0.217928H47.8512V0.326892Z" fill="#EBEBEB"/>
<path d="M494.097 308.15H283.618C280.239 308.15 277.405 305.317 277.405 301.939V6.21095C277.405 2.83306 280.239 0 283.618 0H494.097C497.476 0 500.31 2.83306 500.31 6.21095V301.939C500.31 305.426 497.585 308.15 494.097 308.15ZM283.618 0.326892C280.348 0.326892 277.623 2.94203 277.623 6.31991V302.048C277.623 305.317 280.239 308.041 283.618 308.041H494.097C497.367 308.041 500.092 305.426 500.092 302.048V6.21095C500.092 2.94203 497.476 0.217928 494.097 0.217928H283.618V0.326892Z" fill="#EBEBEB"/>
<path d="M324.711 21.1392H114.232V172.163H324.711V21.1392Z" fill="#FAFAFA"/>
<path d="M312.721 172.163L259.093 21.1392H218.981L272.5 172.163H312.721Z" fill="white"/>
<path d="M204.702 172.163L151.183 21.1392H136.468L189.987 172.163H204.702Z" fill="white"/>
<path d="M104.204 16.0178H334.63C335.175 16.0178 335.611 16.4537 335.611 16.9985C335.611 17.5433 335.175 17.9792 334.63 17.9792H104.204C103.659 17.9792 103.223 17.5433 103.223 16.9985C103.223 16.4537 103.659 16.0178 104.204 16.0178Z" fill="#E0E0E0"/>
<path d="M220.725 20.8123H218.218V172.49H220.725V20.8123Z" fill="#F0F0F0"/>
<path d="M218.109 20.8123H216.91V172.49H218.109V20.8123Z" fill="#E0E0E0"/>
<path d="M112.788 95.3971V97.9033L326.101 97.9033V95.3971L112.788 95.3971Z" fill="#F0F0F0"/>
<path d="M112.706 171.183V22.2288V19.7227H115.213H323.621H326.128V22.2288V171.183V173.689H323.621H115.213H112.706V171.183ZM323.621 171.183V22.2288H115.213V171.183H323.621Z" fill="#F0F0F0"/>
<path d="M112.706 19.7227H111.507V173.689H112.706V19.7227Z" fill="#E0E0E0"/>
<path opacity="0.5" d="M143.662 13.7295V191.014H98.645L106.929 13.7295H143.662Z" fill="#EBEBEB"/>
<path opacity="0.5" d="M293.973 13.7295V191.014H338.99L330.706 13.7295H293.973Z" fill="#EBEBEB"/>
<path d="M84.6932 212.262H67.4712V351.518H84.6932V212.262Z" fill="#F0F0F0"/>
<path d="M259.965 351.627H70.7412V356.857H259.965V351.627Z" fill="#F0F0F0"/>
<path d="M84.6776 351.63H263.329V212.374L84.6776 212.374L84.6776 351.63Z" fill="#F5F5F5"/>
<path d="M82.84 207.794H65.291V212.371H82.84V207.794Z" fill="#F0F0F0"/>
<path d="M82.9855 212.264L265.561 212.264V207.687L82.9855 207.687V212.264Z" fill="#FAFAFA"/>
<path d="M257.131 290.716H90.7969V221.851H257.131V290.716ZM91.9959 289.518H256.041V222.94H91.9959V289.518Z" fill="#E0E0E0"/>
<path d="M257.131 342.038H90.7969V297.581H257.131V342.038ZM91.9959 340.949H256.041V298.779H91.9959V340.949Z" fill="#E0E0E0"/>
<path d="M233.26 226.101H114.777C113.905 226.101 113.251 225.447 113.251 224.575V223.921C113.251 223.05 113.905 222.396 114.777 222.396H233.26C234.132 222.396 234.786 223.05 234.786 223.921V224.575C234.786 225.447 234.023 226.101 233.26 226.101Z" fill="#E0E0E0"/>
<path d="M233.26 301.831H114.777C113.905 301.831 113.251 301.177 113.251 300.305V299.651C113.251 298.78 113.905 298.126 114.777 298.126H233.26C234.132 298.126 234.786 298.78 234.786 299.651V300.305C234.786 301.177 234.023 301.831 233.26 301.831Z" fill="#E0E0E0"/>
<path d="M379.097 350.11H479.05L479.05 45.3375H379.097L379.097 350.11Z" fill="#F0F0F0"/>
<path d="M379.102 45.3291H375.941V350.102H379.102V45.3291Z" fill="#E0E0E0"/>
<path d="M395.446 338.451H462.917L462.917 56.8876H395.446V338.451Z" fill="#FAFAFA"/>
<path d="M272.5 406C389.226 406 483.851 400.487 483.851 393.687C483.851 386.887 389.226 381.374 272.5 381.374C155.774 381.374 61.1489 386.887 61.1489 393.687C61.1489 400.487 155.774 406 272.5 406Z" fill="#F5F5F5"/>
<path d="M156.306 384.207L164.808 380.938L159.576 360.344L151.074 363.613L156.306 384.207Z" fill="#B55B52"/>
<path d="M92.105 384.316H101.261L102.678 363.177H93.522L92.105 384.316Z" fill="#B55B52"/>
<path d="M102.133 383.335H91.0151C90.6881 383.335 90.3611 383.553 90.2521 383.989L88.8351 392.053C88.7261 392.924 89.3801 393.687 90.2521 393.687C93.8491 393.578 96.4651 393.469 100.934 393.469C103.659 393.469 112.052 393.796 115.867 393.796C119.573 393.796 120.009 389.982 118.374 389.655C111.289 388.13 105.839 385.951 103.55 383.989C103.223 383.444 102.678 383.335 102.133 383.335Z" fill="#263238"/>
<path d="M164.372 379.957L154.998 383.444C154.671 383.553 154.453 383.88 154.453 384.316L155.652 392.488C155.761 393.36 156.633 393.905 157.505 393.578C160.884 392.27 163.718 390.527 167.969 389.001C172.983 387.258 177.888 385.297 181.921 382.791C185.082 380.829 183.774 377.015 182.248 377.56C175.49 380.284 173.855 381.156 166.661 379.849C165.898 379.74 165.135 379.74 164.372 379.957Z" fill="#263238"/>
<path d="M140.283 106.24C143.117 111.361 146.169 116.591 149.221 121.604C152.273 126.725 155.434 131.737 158.704 136.423C159.467 137.621 160.448 138.711 161.211 139.91C161.538 140.454 161.647 140.563 161.974 140.781C162.192 140.999 162.737 141.108 163.609 140.999C164.481 140.89 165.571 140.672 166.661 140.237C168.95 139.365 171.348 138.057 173.746 136.532C174.945 135.769 176.144 135.006 177.234 134.135C178.433 133.263 179.632 132.391 180.613 131.519L185.736 136.096C184.755 137.512 183.774 138.711 182.793 140.019C181.703 141.217 180.722 142.525 179.523 143.614C178.324 144.813 177.125 145.903 175.817 146.992C174.509 148.082 173.092 149.063 171.457 149.934C169.822 150.806 168.078 151.678 165.898 152.223C163.827 152.767 161.211 152.876 158.486 152.223C155.761 151.569 153.363 149.825 151.728 147.973C150.638 146.665 149.548 145.467 148.567 144.268C144.534 139.365 140.937 134.135 137.558 129.013C134.179 123.783 131.127 118.444 128.075 112.887L140.283 106.24Z" fill="#B65B52"/>
<path d="M124.042 106.676C121.535 115.066 138.866 137.839 138.866 137.839L156.306 126.616C156.306 126.616 151.183 114.957 144.207 106.131C137.122 96.9779 126.767 97.5227 124.042 106.676Z" fill="#0ec2f3"/>
<path opacity="0.2" d="M124.042 106.676C121.535 115.066 138.866 137.839 138.866 137.839L156.306 126.616C156.306 126.616 151.183 114.957 144.207 106.131C137.122 96.9779 126.767 97.5227 124.042 106.676Z" fill="black"/>
<path opacity="0.2" d="M134.724 116.482C138.321 118.008 143.553 126.616 146.387 133.045L138.975 137.839C138.975 137.839 132.326 129.013 127.857 120.405C130.146 117.899 132.871 115.72 134.724 116.482Z" fill="black"/>
<path d="M179.523 134.461L182.684 125.526L191.731 129.885C191.731 129.885 189.878 137.839 183.229 137.839L179.523 134.461Z" fill="#B55B52"/>
<path d="M190.859 119.533L194.674 123.783L191.84 129.776L182.793 125.418L190.859 119.533Z" fill="#B55B52"/>
<path opacity="0.2" d="M159.576 360.344L162.301 370.913L153.69 374.182L151.074 363.613L159.576 360.344Z" fill="black"/>
<path opacity="0.2" d="M93.5223 363.177H102.678L101.915 374.073H92.7593L93.5223 363.177Z" fill="black"/>
<path d="M83.3853 102.971C93.1953 137.622 91.5603 174.451 92.2143 181.861C99.4083 181.643 126.331 180.553 141.046 180.009C149.33 128.36 134.397 99.5931 134.397 99.5931C134.397 99.5931 131.236 98.9393 126.985 98.5035C125.677 98.3945 124.26 98.2856 122.734 98.1766C121.862 98.1766 121.099 98.0676 120.227 98.0676C114.668 97.9587 105.73 98.8304 99.5173 99.5931C98.2093 99.7021 96.9013 99.92 95.5933 100.138C94.3943 100.356 93.1953 100.574 92.1053 100.792C87.2003 101.881 83.3853 102.971 83.3853 102.971Z" fill="#0ec2f3"/>
<path opacity="0.2" d="M83.3853 102.971C93.1953 137.622 91.5603 174.451 92.2143 181.861C99.4083 181.643 126.331 180.553 141.046 180.009C149.33 128.36 134.397 99.5931 134.397 99.5931C134.397 99.5931 131.236 98.9393 126.985 98.5035C125.677 98.3945 124.26 98.2856 122.734 98.1766C121.862 98.1766 121.099 98.0676 120.227 98.0676C114.668 97.9587 105.73 98.8304 99.5173 99.5931C98.2093 99.7021 96.9013 99.92 95.5933 100.138C94.3943 100.356 93.1953 100.574 92.1053 100.792C87.2003 101.881 83.3853 102.971 83.3853 102.971Z" fill="black"/>
<path opacity="0.2" d="M93.7402 117.899C94.6122 121.277 93.6311 136.532 90.1431 140.346C89.7071 135.442 89.0532 130.321 88.1812 125.091L93.7402 117.899Z" fill="black"/>
<path d="M99.8441 76.2747C101.697 82.8125 103.877 94.9075 99.5171 99.7019C103.441 103.08 108.455 106.785 116.412 106.567C124.369 106.24 122.516 100.901 120.227 98.1764C112.706 96.9778 112.488 91.4207 113.36 86.1904L99.8441 76.2747Z" fill="#B55B52"/>
<path d="M116.63 105.368L118.047 106.349L112.815 107.874L114.123 105.477L116.63 105.368Z" fill="#0ec2f3"/>
<path d="M118.592 104.932L118.047 106.349L123.279 107.874L122.952 105.15L118.592 104.932Z" fill="#0ec2f3"/>
<path d="M96.356 99.2661L98.427 98.1765C99.081 97.8496 99.953 97.8496 100.498 98.3944C102.678 100.029 108.455 103.843 116.521 105.477C112.379 107.438 113.36 112.778 113.36 112.778C113.36 112.778 100.062 108.419 95.811 100.465C95.702 100.029 95.92 99.484 96.356 99.2661Z" fill="white"/>
<path d="M122.516 97.8497L119.464 97.4138C119.137 97.4138 118.919 97.7407 119.028 98.0676C120.118 99.5931 121.862 102.862 118.483 104.932C122.625 106.894 123.933 111.797 123.933 111.797C123.933 111.797 129.383 105.913 123.061 98.1766C123.061 97.9586 122.843 97.8497 122.516 97.8497Z" fill="white"/>
<path opacity="0.2" d="M105.403 80.3064L113.36 86.1905C113.142 87.3891 113.033 88.6966 113.033 89.8952C110.199 89.6773 106.057 86.8442 105.512 83.9022C105.185 82.4857 105.185 81.0691 105.403 80.3064Z" fill="black"/>
<path d="M123.061 62.8722C122.734 66.0322 119.682 68.7563 117.72 69.4101L115.213 55.5716C120.663 51.7579 123.497 58.4047 123.061 62.8722Z" fill="#263238"/>
<path d="M97.119 66.577C98.754 75.512 99.19 80.7423 104.204 84.8829C111.834 90.9849 122.407 85.6457 123.497 76.3837C124.478 68.1025 121.753 54.9178 112.488 52.3027C103.55 49.9055 95.484 57.7509 97.119 66.577Z" fill="#B55B52"/>
<path d="M98.754 72.6789C102.896 74.8582 104.749 69.9548 104.749 67.9935C104.858 64.8335 103.441 61.3466 101.806 60.0391C109.763 60.0391 125.568 59.6032 121.535 52.0847C117.502 44.4572 109.545 45.3289 103.55 49.4696C100.389 51.6488 90.143 49.7965 92.65 55.6805C87.418 58.4046 91.996 69.0831 98.754 72.6789Z" fill="#263238"/>
<path d="M93.631 55.1357C93.631 55.1357 91.887 55.2447 89.707 53.8281C90.361 56.6612 93.195 56.6612 93.195 56.6612L93.631 55.1357Z" fill="#263238"/>
<path d="M93.7402 73.9864C94.8302 76.1657 96.7922 77.6912 98.7542 78.236C101.588 79.2167 102.242 76.4925 101.588 73.7684C100.934 71.2623 99.6262 67.8844 96.6832 68.1023C93.7402 68.4292 92.5412 71.4802 93.7402 73.9864Z" fill="#B55B52"/>
<path d="M151.619 276.551C147.913 248.983 140.937 180.117 140.937 180.117L108.891 181.316C108.891 181.316 124.042 250.181 129.492 278.076C134.942 305.971 150.202 373.311 150.202 373.311L164.699 367.862C164.699 367.753 155.543 305.208 151.619 276.551Z" fill="#263238"/>
<path opacity="0.2" d="M120.881 199.84C118.919 200.385 115.758 201.583 113.796 203.436C116.848 217.383 120.772 235.689 124.151 251.816C126.549 237.868 126.549 211.499 120.881 199.84Z" fill="black"/>
<path d="M123.715 180.771C123.715 180.771 116.957 255.521 113.796 281.999C110.417 311.092 106.166 372.003 106.166 372.003H89.3801C89.3801 372.003 88.7261 318.066 90.9061 289.626C93.4131 257.155 92.2141 181.861 92.2141 181.861L123.715 180.771Z" fill="#263238"/>
<path d="M108.346 372.33H88.617L88.29 366.446L110.199 366.119L108.346 372.33Z" fill="#0ec2f3"/>
<path d="M166.661 367.427L149.439 373.964L147.368 368.407L166.443 360.78L166.661 367.427Z" fill="#0ec2f3"/>
<path d="M111.071 67.5576C111.18 68.3204 111.616 68.8652 112.052 68.7562C112.488 68.6473 112.815 68.1024 112.815 67.3397C112.706 66.5769 112.27 66.0321 111.834 66.1411C111.289 66.25 110.962 66.7949 111.071 67.5576Z" fill="#263238"/>
<path d="M119.246 66.5769C119.355 67.3396 119.791 67.8845 120.227 67.7755C120.663 67.6665 120.99 67.1217 120.99 66.359C120.881 65.5962 120.445 65.0514 120.009 65.1604C119.573 65.2693 119.246 65.9231 119.246 66.5769Z" fill="#263238"/>
<path d="M116.739 67.2307C116.739 67.2307 118.919 71.2624 120.99 73.1148C119.791 74.4223 117.611 74.2044 117.611 74.2044L116.739 67.2307Z" fill="#A02724"/>
<path d="M114.668 76.4928C111.834 76.4928 110.308 74.6404 110.308 74.5314C110.199 74.4225 110.199 74.3135 110.308 74.2045C110.417 74.0956 110.526 74.0956 110.635 74.2045C110.635 74.2045 112.379 76.2748 115.649 75.9479C115.758 75.9479 115.867 76.0569 115.867 76.1659C115.867 76.2748 115.758 76.3838 115.649 76.3838C115.213 76.4928 114.995 76.4928 114.668 76.4928Z" fill="#263238"/>
<path d="M108.128 65.1605C108.019 65.1605 108.019 65.1605 107.91 65.0515C107.692 64.9425 107.583 64.6156 107.801 64.5067C109 62.4364 110.962 62.3274 111.071 62.3274C111.289 62.3274 111.507 62.5453 111.507 62.7632C111.507 62.9812 111.289 63.1991 111.071 63.1991C110.962 63.1991 109.436 63.3081 108.455 64.9425C108.455 65.1605 108.346 65.1605 108.128 65.1605Z" fill="#263238"/>
<path d="M122.516 63.417C122.407 63.417 122.189 63.308 122.189 63.199C121.208 61.5646 119.573 61.5646 119.573 61.5646C119.355 61.5646 119.137 61.3467 119.137 61.1287C119.137 60.9108 119.355 60.6929 119.573 60.6929C119.682 60.6929 121.644 60.6929 122.952 62.7632C123.061 62.9811 123.061 63.199 122.843 63.308C122.734 63.308 122.625 63.417 122.516 63.417Z" fill="#263238"/>
<path d="M105.294 384.861C104.422 384.861 103.55 384.643 102.896 384.534C102.787 384.534 102.787 384.425 102.678 384.316C102.678 384.207 102.678 384.098 102.787 384.098C103.114 383.88 105.948 382.028 107.038 382.573C107.147 382.682 107.365 382.791 107.474 383.227C107.474 383.662 107.365 384.098 107.038 384.316C106.602 384.752 105.948 384.861 105.294 384.861ZM103.441 384.207C104.967 384.534 106.166 384.425 106.711 383.989C106.929 383.771 107.038 383.553 106.929 383.227C106.929 383.009 106.82 383.009 106.82 383.009C106.275 382.791 104.64 383.553 103.441 384.207Z" fill="#0ec2f3"/>
<path d="M102.896 384.534H102.787C102.678 384.534 102.678 384.425 102.678 384.316C102.678 384.207 102.787 381.592 103.768 380.72C103.986 380.502 104.313 380.393 104.64 380.393C105.185 380.502 105.294 380.829 105.403 380.938C105.621 382.028 103.986 383.989 102.896 384.534C103.005 384.534 103.005 384.534 102.896 384.534ZM104.531 380.829C104.313 380.829 104.204 380.938 104.095 381.047C103.441 381.592 103.223 383.117 103.114 383.88C103.986 383.117 105.076 381.701 104.967 381.047C104.967 381.047 104.967 380.938 104.531 380.829C104.64 380.829 104.64 380.829 104.531 380.829Z" fill="#0ec2f3"/>
<path d="M165.68 380.829C165.571 380.829 165.571 380.829 165.462 380.72C165.462 380.611 165.462 380.502 165.462 380.502C165.789 380.176 168.514 377.124 169.822 377.342C170.04 377.342 170.258 377.56 170.367 377.778C170.585 378.214 170.585 378.541 170.367 378.868C169.713 379.958 167.206 380.611 165.68 380.829ZM169.713 377.669C168.95 377.669 167.424 379.086 166.334 380.284C168.296 379.849 169.713 379.304 170.04 378.65C170.149 378.432 170.149 378.214 170.04 377.887C169.931 377.778 169.822 377.778 169.713 377.669Z" fill="#0ec2f3"/>
<path d="M165.68 380.829C165.571 380.829 165.571 380.829 165.68 380.829C165.571 380.829 165.462 380.72 165.462 380.72C165.462 380.611 164.808 378.214 165.571 376.906C165.789 376.471 166.116 376.253 166.552 376.144C167.097 376.035 167.424 376.253 167.533 376.471C168.078 377.342 166.661 379.957 165.898 380.829C165.789 380.829 165.68 380.829 165.68 380.829ZM166.879 376.471C166.77 376.471 166.77 376.471 166.661 376.471C166.334 376.58 166.116 376.689 165.898 377.015C165.353 377.887 165.571 379.413 165.789 380.066C166.552 379.086 167.424 377.015 167.097 376.471C167.097 376.58 166.988 376.471 166.879 376.471Z" fill="#0ec2f3"/>
<path d="M93.4131 115.938C90.6881 121.604 87.8541 127.379 85.1291 133.154C83.8211 135.987 82.4041 138.929 81.2051 141.762L79.3521 146.121L78.4801 148.3L78.2621 148.845L78.1531 149.281C78.0441 149.499 77.9351 149.825 77.8261 150.043C77.1721 152.114 76.9541 154.293 77.4991 156.69C77.9351 159.087 78.9161 161.485 80.3331 163.991C81.7501 166.388 83.4941 168.785 85.5651 170.964C86.5461 172.054 87.6361 173.253 88.7261 174.233C89.2711 174.778 89.8161 175.323 90.3611 175.759C90.9061 176.304 91.5601 176.849 91.9961 177.175L88.3991 182.951C86.6551 182.079 85.3471 181.207 83.8211 180.226C82.4041 179.246 80.9871 178.265 79.5701 177.175C76.8451 174.996 74.2291 172.49 71.9401 169.548C69.6511 166.606 67.6891 163.228 66.3811 159.305C65.1821 155.383 64.8551 150.915 65.8361 146.666C65.9451 146.121 66.0541 145.576 66.2721 145.14L66.7081 143.832L67.4711 141.435C68.0161 139.801 68.5611 138.275 69.1061 136.75C70.1961 133.59 71.3951 130.539 72.7031 127.488C75.2101 121.386 78.0441 115.502 81.0961 109.509L93.4131 115.938Z" fill="#B65B52"/>
<path d="M83.3849 102.971C75.1009 105.586 66.8169 133.808 66.8169 133.808L86.1099 142.198C86.1099 142.198 92.3229 128.577 95.9199 117.899C99.8439 106.24 93.5219 99.8109 83.3849 102.971Z" fill="#0ec2f3"/>
<path opacity="0.2" d="M83.3849 102.971C75.1009 105.586 66.8169 133.808 66.8169 133.808L86.1099 142.198C86.1099 142.198 92.3229 128.577 95.9199 117.899C99.8439 106.24 93.5219 99.8109 83.3849 102.971Z" fill="black"/>
<path d="M89.925 175.432L97.882 180.117L90.143 187.854C90.143 187.854 83.385 182.624 85.456 178.592L89.925 175.432Z" fill="#B55B52"/>
<path d="M103.223 187.636L95.1571 193.302L90.1431 187.854L97.8821 180.117L103.223 187.636Z" fill="#B55B52"/>
<path d="M488.706 173.388L488.328 178.605L489.415 178.684L489.793 173.467L488.706 173.388Z" fill="#0ec2f3"/>
<path d="M490.201 153.487L489.099 168.703L490.186 168.781L491.288 153.566L490.201 153.487Z" fill="#0ec2f3"/>
<path d="M460.307 324.713H193.366C185.191 324.713 178.978 318.066 179.632 309.894L193.802 112.887C194.347 104.714 201.541 98.0676 209.716 98.0676H476.657C484.832 98.0676 491.045 104.714 490.391 112.887L476.221 309.894C475.676 318.066 468.482 324.713 460.307 324.713Z" fill="#0ec2f3"/>
<path d="M398.177 393.687H311.522L296.153 286.575H382.808L398.177 393.687Z" fill="#0ec2f3"/>
<path d="M384.443 387.258H290.703L288.85 393.687H382.59L384.443 387.258Z" fill="#0ec2f3"/>
<path d="M387.386 338.115L302.911 333.539L296.153 286.575H379.974L387.386 338.115Z" fill="#263238"/>
<path d="M457.364 324.713H190.314C182.139 324.713 175.926 318.066 176.58 309.894L190.75 112.887C191.295 104.714 198.489 98.0676 206.664 98.0676H473.605C481.78 98.0676 487.993 104.714 487.339 112.887L473.169 309.894C472.624 318.066 465.43 324.713 457.364 324.713Z" fill="#263238"/>
<path d="M486.713 114.767L478.599 227.795L479.686 227.873L487.8 114.845L486.713 114.767Z" fill="white"/>
<path d="M477.863 237.664L475.059 276.79L476.146 276.867L478.951 237.742L477.863 237.664Z" fill="white"/>
<path d="M456.71 321.008H191.404C185.082 321.008 180.177 315.778 180.722 309.458L194.783 113.323C195.219 107.003 200.778 101.772 207.209 101.772H472.515C478.837 101.772 483.742 107.003 483.197 113.323L469.136 309.458C468.7 315.887 463.141 321.008 456.71 321.008Z" fill="white"/>
<path opacity="0.2" d="M456.71 321.008H191.404C185.082 321.008 180.177 315.778 180.722 309.458L194.783 113.323C195.219 107.003 200.778 101.772 207.209 101.772H472.515C478.837 101.772 483.742 107.003 483.197 113.323L469.136 309.458C468.7 315.887 463.141 321.008 456.71 321.008Z" fill="#0ec2f3"/>
<path opacity="0.5" d="M259.529 312.291H197.617C194.565 312.291 192.167 309.785 192.385 306.734L206.01 116.047C206.228 112.996 208.953 110.49 212.005 110.49H273.917C276.969 110.49 279.367 112.996 279.149 116.047L265.524 306.734C265.197 309.785 262.581 312.291 259.529 312.291Z" fill="white"/>
<path opacity="0.4" d="M257.131 137.295H225.085C222.36 137.295 220.18 135.007 220.398 132.282L220.725 127.379C220.943 124.655 223.341 122.367 226.066 122.367H258.112C260.837 122.367 263.017 124.655 262.799 127.379L262.472 132.282C262.254 135.115 259.856 137.295 257.131 137.295Z" fill="#0ec2f3"/>
<path d="M236.748 214.441H187.807C183.011 214.441 179.305 210.519 179.632 205.724L183.12 156.799C183.447 152.005 187.698 148.082 192.494 148.082H241.435C246.231 148.082 249.937 152.005 249.61 156.799L246.122 205.724C245.795 210.519 241.544 214.441 236.748 214.441Z" fill="#0ec2f3"/>
<path d="M243.724 174.343C241.871 174.343 240.236 175.868 240.127 177.72L239.582 184.803C239.473 186.655 240.89 188.181 242.634 188.181H247.648C248.084 188.181 248.52 187.854 248.52 187.309L249.392 175.214C249.392 174.778 249.065 174.343 248.629 174.343H243.724Z" fill="white"/>
<path d="M224.867 160.504H194.02C193.257 160.504 192.712 159.851 192.821 159.197C192.821 158.434 193.475 157.889 194.238 157.889H225.085C225.848 157.889 226.393 158.543 226.284 159.197C226.175 159.851 225.521 160.504 224.867 160.504Z" fill="white"/>
<path d="M224.322 167.26H193.475C192.712 167.26 192.167 166.606 192.276 165.952C192.276 165.19 192.93 164.645 193.693 164.645H224.54C225.303 164.645 225.848 165.299 225.739 165.952C225.739 166.715 225.085 167.26 224.322 167.26Z" fill="white"/>
<path d="M213.204 174.125H193.039C192.276 174.125 191.731 173.471 191.84 172.817C191.84 172.054 192.494 171.51 193.257 171.51H213.422C214.185 171.51 214.73 172.163 214.621 172.817C214.621 173.471 213.967 174.125 213.204 174.125Z" fill="white"/>
<path opacity="0.5" d="M224.867 206.596H195.001C191.84 206.596 189.442 203.981 189.66 200.821L190.75 185.13C190.968 181.97 193.693 179.355 196.854 179.355H226.72C229.881 179.355 232.279 181.97 232.061 185.13L230.971 200.821C230.862 203.981 228.028 206.596 224.867 206.596Z" fill="white"/>
<path opacity="0.4" d="M252.771 232.856H215.602C214.185 232.856 213.204 231.766 213.313 230.35C213.422 228.933 214.621 227.844 215.929 227.844H253.098C254.515 227.844 255.496 228.933 255.387 230.35C255.387 231.657 254.188 232.856 252.771 232.856Z" fill="#0ec2f3"/>
<path opacity="0.8" d="M245.25 242.554H221.706C220.289 242.554 219.308 241.464 219.417 240.048C219.526 238.631 220.725 237.542 222.033 237.542H245.577C246.994 237.542 247.975 238.631 247.866 240.048C247.866 241.464 246.667 242.554 245.25 242.554Z" fill="white"/>
<path opacity="0.4" d="M250.809 259.77H213.64C212.223 259.77 211.242 258.68 211.351 257.264C211.46 255.847 212.659 254.758 213.967 254.758H251.136C252.553 254.758 253.534 255.847 253.425 257.264C253.425 258.572 252.226 259.77 250.809 259.77Z" fill="#0ec2f3"/>
<path opacity="0.8" d="M243.397 269.468H219.853C218.436 269.468 217.455 268.378 217.564 266.962C217.673 265.545 218.872 264.456 220.18 264.456H243.724C245.141 264.456 246.122 265.545 246.013 266.962C245.904 268.378 244.705 269.468 243.397 269.468Z" fill="white"/>
<path opacity="0.4" d="M248.956 286.575H211.787C210.37 286.575 209.389 285.486 209.498 284.069C209.607 282.653 210.806 281.563 212.114 281.563H249.283C250.7 281.563 251.681 282.653 251.572 284.069C251.463 285.486 250.264 286.575 248.956 286.575Z" fill="#0ec2f3"/>
<path opacity="0.8" d="M241.435 296.382H217.891C216.474 296.382 215.493 295.293 215.602 293.876C215.711 292.46 216.91 291.37 218.218 291.37H241.762C243.179 291.37 244.16 292.46 244.051 293.876C244.051 295.293 242.852 296.382 241.435 296.382Z" fill="white"/>
<path opacity="0.5" d="M459.653 256.392C461.288 253.886 464.994 254.976 464.776 257.809L461.179 307.715C460.961 310.33 459.108 312.4 456.819 312.4H277.187C275.007 312.4 273.372 310.33 273.481 307.715L275.552 278.076C275.879 274.045 279.912 271.212 283.618 272.41C293.755 275.57 302.475 273.718 310.432 269.686C327.654 261.078 342.151 242.772 361.989 242.772C362.752 242.772 363.515 242.772 364.278 242.881C393.817 244.624 402.755 281.236 425.645 281.236C432.403 281.236 438.616 278.294 443.957 274.154C450.497 269.032 455.838 262.168 459.653 256.392Z" fill="#0ec2f3"/>
<path opacity="0.5" d="M463.359 276.987L461.179 307.714C460.961 310.33 459.108 312.4 456.819 312.4H277.187C275.007 312.4 273.372 310.33 273.481 307.714L277.841 246.586C278.168 242.445 283.618 240.593 285.798 244.079C291.575 252.797 300.404 264.129 310.541 269.686C314.465 271.865 318.498 273.173 322.64 273.173C337.137 273.173 349.454 255.957 364.278 242.881C373.325 234.818 383.244 228.389 395.125 228.389C419.977 228.389 423.574 268.705 443.848 274.263C447.772 275.352 452.241 275.134 457.691 273.064C460.634 271.756 463.577 273.936 463.359 276.987Z" fill="#0ec2f3"/>
<g opacity="0.8">
<path opacity="0.8" d="M464.231 265.001C464.122 265.001 464.013 265.001 464.013 264.892L463.904 264.783V264.674C463.904 264.565 463.904 264.456 464.013 264.456C464.122 264.347 464.34 264.347 464.558 264.456C464.667 264.565 464.667 264.674 464.667 264.674V264.783C464.667 264.783 464.667 264.892 464.558 264.892C464.449 265.001 464.34 265.001 464.231 265.001Z" fill="white"/>
<path opacity="0.8" d="M289.504 290.607C289.286 290.607 289.177 290.498 289.177 290.28C289.177 290.062 289.395 289.953 289.504 289.953C289.722 289.953 289.831 290.171 289.831 290.28C289.94 290.389 289.722 290.607 289.504 290.607ZM285.798 290.389C285.58 290.389 285.471 290.171 285.471 289.953C285.471 289.735 285.689 289.627 285.907 289.627C286.125 289.627 286.234 289.844 286.234 290.062C286.234 290.171 286.016 290.389 285.798 290.389ZM292.883 290.062C292.883 289.844 292.992 289.627 293.21 289.627C293.428 289.627 293.646 289.735 293.646 289.953C293.646 290.171 293.537 290.389 293.319 290.389C292.992 290.389 292.883 290.171 292.883 290.062ZM282.092 289.735C281.874 289.735 281.765 289.518 281.765 289.3C281.765 289.082 281.983 288.973 282.201 288.973C282.419 288.973 282.528 289.191 282.528 289.409C282.528 289.627 282.419 289.735 282.092 289.735C282.201 289.735 282.092 289.735 282.092 289.735ZM296.48 289.409C296.48 289.191 296.589 288.973 296.807 288.973C297.025 288.973 297.243 289.082 297.243 289.3C297.243 289.518 297.134 289.735 296.916 289.735H296.807C296.698 289.735 296.48 289.627 296.48 289.409ZM415.726 289.518C415.508 289.518 415.399 289.3 415.399 289.191C415.399 288.973 415.617 288.864 415.726 288.864C415.944 288.864 416.053 289.082 416.053 289.191C416.053 289.409 415.944 289.518 415.726 289.518ZM418.996 289.082C418.996 288.864 419.105 288.646 419.323 288.646C419.541 288.646 419.759 288.755 419.759 288.973C419.759 289.191 419.65 289.409 419.432 289.409C419.214 289.409 419.105 289.191 418.996 289.082ZM412.02 289.3C411.802 289.3 411.693 289.082 411.693 288.864C411.693 288.646 411.911 288.537 412.129 288.537C412.347 288.537 412.456 288.755 412.456 288.973C412.347 289.191 412.238 289.3 412.02 289.3ZM278.495 288.864C278.277 288.755 278.168 288.646 278.277 288.428C278.386 288.21 278.495 288.101 278.713 288.21C278.931 288.319 279.04 288.428 278.931 288.646C278.931 288.755 278.822 288.864 278.495 288.864C278.604 288.864 278.495 288.864 278.495 288.864ZM422.702 288.537C422.702 288.319 422.811 288.101 423.029 288.101C423.247 288.101 423.465 288.21 423.465 288.428C423.465 288.646 423.356 288.864 423.138 288.864C423.138 288.864 423.138 288.864 423.029 288.864C422.92 288.864 422.702 288.755 422.702 288.537ZM408.314 288.646C408.096 288.646 407.987 288.428 407.987 288.21C407.987 287.992 408.205 287.883 408.423 287.883C408.641 287.883 408.75 288.101 408.75 288.319C408.75 288.537 408.532 288.646 408.314 288.646C408.423 288.646 408.314 288.646 408.314 288.646ZM300.077 288.319C299.968 288.101 300.077 287.883 300.295 287.883C300.513 287.774 300.731 287.883 300.731 288.101C300.84 288.319 300.731 288.537 300.513 288.537H300.404C300.186 288.646 300.077 288.537 300.077 288.319ZM426.299 287.665C426.299 287.447 426.408 287.229 426.517 287.229C426.735 287.229 426.953 287.338 426.953 287.447C426.953 287.665 426.844 287.883 426.735 287.883H426.626C426.517 287.992 426.299 287.883 426.299 287.665ZM404.717 287.556C404.499 287.447 404.39 287.229 404.499 287.12C404.608 286.902 404.826 286.793 404.935 286.902C405.153 287.011 405.262 287.229 405.153 287.338C405.153 287.447 404.935 287.556 404.826 287.556C404.826 287.556 404.826 287.556 404.717 287.556ZM303.456 286.902C303.347 286.684 303.456 286.467 303.565 286.358C303.783 286.249 304.001 286.358 304.11 286.576C304.219 286.793 304.11 287.011 304.001 287.12C304.001 287.12 303.892 287.12 303.783 287.12C303.565 287.12 303.456 287.011 303.456 286.902ZM429.896 286.576C429.787 286.358 429.896 286.14 430.114 286.14C430.332 286.031 430.55 286.14 430.55 286.358C430.659 286.576 430.55 286.793 430.332 286.793H430.223C430.005 286.902 429.896 286.793 429.896 286.576ZM401.338 286.14C401.12 286.031 401.011 285.813 401.12 285.595C401.229 285.377 401.447 285.377 401.665 285.377C401.883 285.486 401.992 285.704 401.883 285.922C401.774 286.031 401.665 286.14 401.556 286.14C401.447 286.249 401.338 286.249 401.338 286.14ZM433.275 285.268C433.166 285.05 433.275 284.832 433.493 284.832C433.711 284.723 433.929 284.832 433.929 285.05C434.038 285.268 433.929 285.486 433.711 285.595H433.602C433.493 285.595 433.384 285.486 433.275 285.268ZM306.617 285.05C306.508 284.832 306.617 284.614 306.726 284.505C306.944 284.396 307.162 284.396 307.271 284.614C307.38 284.832 307.271 285.05 307.162 285.159C307.162 285.159 307.053 285.268 306.944 285.268C306.835 285.268 306.726 285.159 306.617 285.05ZM397.959 284.505C397.741 284.396 397.741 284.178 397.85 283.96C397.959 283.742 398.177 283.742 398.395 283.851C398.613 283.96 398.613 284.178 398.504 284.396C398.395 284.505 398.286 284.614 398.177 284.614C398.068 284.505 398.068 284.505 397.959 284.505ZM436.654 283.851C436.545 283.633 436.654 283.416 436.872 283.307C437.09 283.198 437.308 283.307 437.417 283.525C437.526 283.742 437.417 283.96 437.199 284.069H437.09C436.872 284.069 436.763 283.96 436.654 283.851ZM309.669 283.089C309.56 282.871 309.56 282.653 309.778 282.544C309.996 282.435 310.214 282.435 310.323 282.653C310.432 282.871 310.432 283.089 310.214 283.198C310.105 283.198 310.105 283.307 309.996 283.307C309.887 283.198 309.778 283.198 309.669 283.089ZM394.798 282.653C394.58 282.544 394.58 282.326 394.689 282.108C394.798 281.89 395.016 281.89 395.234 281.999C395.452 282.108 395.452 282.326 395.343 282.544C395.234 282.653 395.125 282.762 395.016 282.762C394.907 282.653 394.798 282.653 394.798 282.653ZM440.033 282.217C439.924 281.999 440.033 281.781 440.142 281.672C440.36 281.563 440.578 281.672 440.687 281.781C440.796 281.999 440.687 282.217 440.578 282.326C440.578 282.326 440.469 282.326 440.36 282.326C440.251 282.326 440.033 282.326 440.033 282.217ZM312.721 280.8C312.612 280.583 312.612 280.365 312.721 280.256C312.83 280.147 313.157 280.147 313.266 280.365C313.375 280.474 313.375 280.8 313.266 280.909C313.157 280.909 313.157 281.018 313.048 281.018C312.83 280.909 312.721 280.909 312.721 280.8ZM391.637 280.691C391.419 280.583 391.419 280.365 391.528 280.147C391.637 279.929 391.855 279.929 392.073 280.038C392.182 280.147 392.291 280.365 392.182 280.582C392.073 280.691 391.964 280.8 391.855 280.8C391.746 280.691 391.637 280.691 391.637 280.691ZM443.194 280.365C443.085 280.147 443.194 279.929 443.303 279.82C443.521 279.711 443.739 279.82 443.848 279.929C443.957 280.147 443.848 280.365 443.739 280.474C443.63 280.474 443.63 280.474 443.521 280.474C443.412 280.582 443.303 280.474 443.194 280.365ZM388.585 278.621C388.367 278.512 388.367 278.294 388.476 278.076C388.585 277.967 388.803 277.858 389.021 277.967C389.239 278.076 389.239 278.294 389.13 278.512C389.021 278.621 388.912 278.621 388.803 278.621C388.694 278.621 388.585 278.621 388.585 278.621ZM446.355 278.512C446.246 278.294 446.355 278.076 446.464 277.967C446.682 277.858 446.9 277.967 447.009 278.076C447.118 278.294 447.009 278.512 446.9 278.621C446.9 278.621 446.791 278.73 446.682 278.73C446.573 278.621 446.464 278.621 446.355 278.512ZM315.555 278.512C315.446 278.403 315.446 278.076 315.555 277.967C315.664 277.858 315.991 277.858 316.1 277.967C316.209 278.185 316.209 278.403 315.991 278.512C315.882 278.621 315.882 278.621 315.773 278.621C315.773 278.621 315.664 278.621 315.555 278.512ZM449.516 276.442C449.407 276.224 449.407 276.006 449.625 275.897C449.843 275.788 450.061 275.788 450.17 276.006C450.279 276.224 450.279 276.442 450.061 276.551C449.952 276.551 449.952 276.66 449.843 276.66C449.734 276.551 449.625 276.551 449.516 276.442ZM385.424 276.551C385.206 276.442 385.206 276.224 385.315 276.006C385.424 275.788 385.642 275.788 385.86 275.897C386.078 276.006 386.078 276.224 385.969 276.442C385.86 276.551 385.751 276.66 385.642 276.66C385.642 276.551 385.533 276.551 385.424 276.551ZM318.389 276.115C318.28 276.006 318.28 275.679 318.389 275.57C318.498 275.461 318.825 275.461 318.934 275.57C319.043 275.679 319.043 276.006 318.934 276.115C318.825 276.224 318.825 276.224 318.716 276.224C318.607 276.224 318.498 276.224 318.389 276.115ZM382.372 274.48C382.154 274.372 382.154 274.154 382.263 273.936C382.372 273.718 382.59 273.718 382.808 273.827C383.026 273.936 383.026 274.154 382.917 274.372C382.808 274.481 382.699 274.48 382.59 274.48C382.59 274.48 382.481 274.48 382.372 274.48ZM452.568 274.263C452.459 274.154 452.459 273.827 452.677 273.718C452.786 273.609 453.113 273.609 453.222 273.827C453.331 273.936 453.331 274.263 453.113 274.372C453.004 274.372 453.004 274.48 452.895 274.48C452.677 274.48 452.568 274.372 452.568 274.263ZM321.223 273.718C321.114 273.609 321.114 273.282 321.223 273.173C321.441 273.064 321.659 273.064 321.768 273.173C321.877 273.282 321.877 273.609 321.768 273.718C321.659 273.827 321.659 273.827 321.55 273.827C321.441 273.936 321.332 273.827 321.223 273.718ZM379.32 272.519C379.102 272.41 379.102 272.192 379.211 271.974C379.32 271.756 379.538 271.756 379.756 271.865C379.974 271.974 379.974 272.192 379.865 272.41C379.756 272.519 379.647 272.628 379.538 272.628C379.429 272.519 379.32 272.519 379.32 272.519ZM455.511 272.083C455.402 271.865 455.402 271.647 455.62 271.538C455.729 271.43 456.056 271.43 456.165 271.647C456.274 271.756 456.274 272.083 456.056 272.192C455.947 272.192 455.947 272.301 455.838 272.301C455.729 272.192 455.62 272.192 455.511 272.083ZM324.166 271.43C324.057 271.212 324.057 270.994 324.275 270.885C324.384 270.776 324.711 270.776 324.82 270.994C324.929 271.103 324.929 271.43 324.711 271.538C324.602 271.538 324.602 271.647 324.493 271.647C324.275 271.647 324.275 271.538 324.166 271.43ZM376.159 270.558C375.941 270.449 375.941 270.231 376.05 270.013C376.159 269.795 376.377 269.795 376.595 269.904C376.813 270.013 376.813 270.231 376.704 270.449C376.595 270.558 376.486 270.667 376.377 270.667C376.268 270.667 376.159 270.667 376.159 270.558ZM458.345 269.795C458.236 269.686 458.236 269.359 458.345 269.25C458.563 269.141 458.781 269.141 458.89 269.25C458.999 269.359 458.999 269.686 458.89 269.795C458.781 269.795 458.672 269.904 458.672 269.904C458.563 269.904 458.454 269.904 458.345 269.795ZM327.109 269.25C327 269.032 327 268.814 327.218 268.705C327.436 268.596 327.654 268.596 327.763 268.814C327.872 269.032 327.872 269.25 327.654 269.359C327.545 269.359 327.545 269.468 327.436 269.468C327.327 269.468 327.218 269.359 327.109 269.25ZM372.889 268.814C372.671 268.705 372.671 268.487 372.78 268.27C372.889 268.052 373.107 268.052 373.325 268.052C373.543 268.161 373.543 268.379 373.434 268.596C373.325 268.705 373.216 268.814 373.107 268.814C372.998 268.923 372.889 268.923 372.889 268.814ZM461.179 267.398C461.07 267.289 461.07 266.962 461.179 266.853C461.288 266.744 461.615 266.744 461.724 266.853C461.833 266.962 461.833 267.289 461.724 267.398C461.615 267.507 461.615 267.507 461.506 267.507C461.397 267.507 461.288 267.507 461.179 267.398ZM330.27 267.289C330.161 267.071 330.27 266.853 330.379 266.744C330.597 266.635 330.815 266.744 330.924 266.853C331.033 267.071 330.924 267.289 330.815 267.398C330.706 267.398 330.706 267.398 330.597 267.398C330.488 267.507 330.379 267.398 330.27 267.289ZM369.619 267.289C369.401 267.18 369.292 266.962 369.401 266.744C369.51 266.526 369.728 266.417 369.946 266.526C370.164 266.635 370.273 266.853 370.164 267.071C370.164 267.18 369.946 267.289 369.837 267.289C369.619 267.289 369.619 267.289 369.619 267.289ZM366.131 265.872C365.913 265.763 365.804 265.545 365.913 265.436C366.022 265.219 366.24 265.11 366.349 265.219C366.567 265.328 366.676 265.545 366.567 265.654C366.567 265.763 366.349 265.872 366.24 265.872C366.24 265.872 366.24 265.872 366.131 265.872ZM333.54 265.654C333.431 265.436 333.54 265.219 333.758 265.11C333.976 265.001 334.194 265.11 334.303 265.328C334.412 265.545 334.303 265.763 334.085 265.872H333.976C333.758 265.872 333.649 265.763 333.54 265.654ZM362.643 264.783C362.425 264.674 362.316 264.565 362.425 264.347C362.425 264.129 362.752 264.02 362.861 264.129C363.079 264.129 363.188 264.347 363.079 264.565C363.079 264.674 362.97 264.783 362.643 264.783C362.752 264.783 362.752 264.783 362.643 264.783ZM336.919 264.238C336.81 264.02 336.919 263.802 337.137 263.802C337.355 263.693 337.573 263.802 337.573 264.02C337.682 264.238 337.573 264.456 337.355 264.456H337.246C337.137 264.456 337.028 264.347 336.919 264.238ZM359.155 263.802C358.937 263.802 358.828 263.584 358.828 263.366C358.828 263.148 359.046 263.039 359.264 263.039C359.482 263.039 359.591 263.257 359.591 263.475C359.591 263.693 359.373 263.802 359.155 263.802ZM340.516 263.257C340.516 263.039 340.625 262.821 340.843 262.821C341.061 262.821 341.279 262.93 341.279 263.148C341.279 263.366 341.17 263.584 340.952 263.584C340.952 263.584 340.952 263.584 340.843 263.584C340.734 263.475 340.516 263.366 340.516 263.257ZM355.558 263.148C355.34 263.148 355.231 262.93 355.231 262.712C355.231 262.494 355.449 262.385 355.667 262.385C355.885 262.385 355.994 262.603 355.994 262.821C355.885 263.039 355.776 263.148 355.558 263.148ZM344.113 262.603C344.113 262.385 344.222 262.277 344.44 262.168C344.658 262.168 344.876 262.277 344.876 262.494C344.876 262.712 344.767 262.93 344.549 262.93C344.331 262.93 344.222 262.821 344.113 262.603ZM351.852 262.821C351.634 262.821 351.525 262.603 351.525 262.385C351.525 262.168 351.743 262.059 351.961 262.059C352.179 262.059 352.288 262.277 352.288 262.494C352.288 262.712 352.07 262.821 351.852 262.821ZM347.819 262.385C347.819 262.168 347.928 262.059 348.146 262.059C348.364 262.059 348.473 262.168 348.473 262.385C348.473 262.603 348.255 262.712 348.146 262.712C348.037 262.712 347.819 262.494 347.819 262.385Z" fill="white"/>
<path opacity="0.8" d="M275.007 287.774H274.898C274.898 287.774 274.789 287.774 274.789 287.665L274.68 287.556V287.447C274.68 287.338 274.68 287.229 274.789 287.229L274.898 287.12C275.007 287.12 275.116 287.12 275.225 287.12C275.225 287.12 275.334 287.12 275.334 287.229C275.443 287.338 275.443 287.338 275.443 287.447V287.556C275.443 287.556 275.443 287.665 275.334 287.665L275.225 287.774C275.007 287.665 275.007 287.774 275.007 287.774Z" fill="white"/>
</g>
<path d="M334.739 176.195L332.232 173.47C327.763 177.72 321.659 180.335 315.228 180.335C304.437 180.335 295.935 173.035 293.973 163.119L290.158 164.1L286.67 164.971C287.651 170.202 290.049 174.887 293.646 178.701C304.655 190.578 324.275 190.578 337.137 178.701L334.739 176.195Z" fill="white"/>
<path d="M340.188 135.224L336.809 138.384L334.52 140.563C338.444 144.813 340.624 150.588 340.188 157.017C339.752 163.446 336.7 169.221 332.231 173.47L334.193 175.65L337.027 178.701C343.24 172.926 346.946 165.08 347.6 157.017C348.145 148.845 345.529 140.999 340.188 135.224Z" fill="#263238"/>
<path d="M340.189 135.224C329.071 123.347 309.56 123.347 296.698 135.224C288.414 142.961 284.599 154.293 286.67 164.862L291.03 163.773L293.973 163.01C293.646 161.049 293.428 159.087 293.646 157.017C294.518 144.159 305.745 133.699 318.607 133.699C325.038 133.699 330.706 136.314 334.63 140.563L337.573 137.839L340.189 135.224Z" fill="#0ec2f3"/>
<path d="M371.472 176.195L374.415 173.471C370.491 169.221 368.311 163.446 368.747 157.017C369.51 146.23 377.467 137.186 387.604 134.57L386.841 130.866L386.187 127.488C380.846 128.904 375.941 131.628 371.799 135.442C359.046 147.319 357.629 166.933 368.638 178.919L371.472 176.195Z" fill="white"/>
<path d="M412.238 178.701L409.404 175.541L407.442 173.362C402.973 177.611 396.869 180.227 390.438 180.227C384.007 180.227 378.339 177.611 374.415 173.362L372.126 175.541L368.856 178.592C374.197 184.367 381.827 187.636 389.893 187.636C397.959 187.636 406.025 184.367 412.238 178.701Z" fill="#263238"/>
<path d="M412.238 178.701C424.991 166.824 426.408 147.21 415.399 135.224C408.205 127.488 397.087 124.437 386.296 127.27L387.168 131.52L387.713 134.462C389.675 133.917 391.746 133.699 393.817 133.699C406.679 133.699 416.38 144.159 415.399 157.017C414.963 163.446 411.911 169.221 407.442 173.471L409.949 176.195L412.238 178.701Z" fill="#0ec2f3"/>
<path opacity="0.3" d="M463.686 129.013C464.34 129.013 464.885 129.231 465.321 129.667C465.757 130.103 465.975 130.648 465.866 131.302L464.558 150.043C464.449 151.351 463.25 152.55 461.942 152.55H443.194C442.54 152.55 441.995 152.332 441.559 151.896C441.123 151.46 440.905 150.915 441.014 150.261L442.322 131.52C442.431 130.212 443.63 129.013 444.938 129.013H463.686ZM463.686 128.033H444.938C443.085 128.033 441.45 129.558 441.341 131.411L440.033 150.152C439.924 152.005 441.341 153.53 443.194 153.53H461.942C463.795 153.53 465.43 152.005 465.539 150.152L466.847 131.411C466.956 129.558 465.539 128.033 463.686 128.033Z" fill="#0ec2f3"/>
<path opacity="0.3" d="M461.397 161.267C462.051 161.267 462.596 161.485 463.032 161.921C463.468 162.356 463.686 162.901 463.577 163.555L462.269 182.297C462.16 183.604 460.961 184.803 459.653 184.803H440.905C440.251 184.803 439.706 184.585 439.27 184.149C438.834 183.713 438.616 183.169 438.725 182.515L440.033 163.773C440.142 162.465 441.341 161.267 442.649 161.267H461.397ZM461.397 160.395H442.54C440.687 160.395 439.052 161.921 438.943 163.773L437.635 182.515C437.526 184.367 438.943 185.893 440.796 185.893H459.544C461.397 185.893 463.032 184.367 463.141 182.515L464.449 163.773C464.667 161.812 463.25 160.395 461.397 160.395Z" fill="#0ec2f3"/>
<path d="M433.82 265.327C434.365 265.327 434.801 265.545 435.128 265.872C435.455 266.199 435.673 266.744 435.564 267.289C435.455 268.487 434.474 269.359 433.275 269.359C432.73 269.359 432.294 269.141 431.967 268.814C431.64 268.487 431.422 267.942 431.531 267.398C431.749 266.199 432.73 265.327 433.82 265.327ZM433.82 264.347C432.185 264.347 430.768 265.654 430.659 267.289C430.55 268.923 431.749 270.231 433.384 270.231C435.019 270.231 436.436 268.923 436.545 267.289C436.763 265.654 435.564 264.347 433.82 264.347Z" fill="#0ec2f3"/>
<path d="M434.147 264.347H433.602L433.711 263.366H434.147V264.347Z" fill="#0ec2f3"/>
<path d="M434.365 261.405H433.929L434.038 259.443H434.474L434.365 261.405ZM434.583 257.482H434.147L434.256 255.521H434.692L434.583 257.482ZM434.91 253.559H434.474L434.583 251.598H435.019L434.91 253.559ZM435.128 249.637H434.692L434.801 247.675H435.237L435.128 249.637ZM435.455 245.714H435.019L435.128 243.753H435.564L435.455 245.714ZM435.673 241.791H435.237L435.346 239.83H435.782L435.673 241.791ZM436 237.869H435.564L435.673 235.907H436.109L436 237.869ZM436.327 233.837H435.891L436 231.876H436.436L436.327 233.837ZM436.545 229.914H436.109L436.218 227.953H436.654L436.545 229.914ZM436.872 225.991H436.436L436.545 224.03H436.981L436.872 225.991ZM437.09 222.069H436.654L436.763 220.107H437.199L437.09 222.069Z" fill="#0ec2f3"/>
<path d="M436.997 217.091L436.927 218.069L437.362 218.1L437.432 217.121L436.997 217.091Z" fill="#0ec2f3"/>
<path d="M457.582 217.71H284.926C283.945 217.71 283.073 217.274 282.419 216.621C281.765 215.967 281.438 214.986 281.547 214.005L282.419 202.128C282.528 200.167 284.272 198.532 286.234 198.532H458.89C459.871 198.532 460.743 198.968 461.397 199.622C462.051 200.276 462.378 201.257 462.269 202.237L461.397 214.114C461.288 216.076 459.544 217.71 457.582 217.71ZM286.234 199.622C284.817 199.622 283.509 200.821 283.4 202.237L282.528 214.114C282.528 214.768 282.746 215.422 283.182 215.967C283.618 216.403 284.272 216.729 284.926 216.729H457.473C458.89 216.729 460.198 215.531 460.307 214.114L461.179 202.237C461.179 201.583 460.961 200.93 460.525 200.385C460.089 199.949 459.435 199.622 458.781 199.622H286.234Z" fill="#0ec2f3"/>
<path opacity="0.8" fill-rule="evenodd" clip-rule="evenodd" d="M453.876 206.16H290.267C289.395 206.16 288.741 205.397 288.741 204.526C288.85 203.654 289.613 202.891 290.485 202.891H454.094C454.966 202.891 455.62 203.654 455.62 204.526C455.511 205.506 454.748 206.16 453.876 206.16Z" fill="white"/>
<path opacity="0.8" fill-rule="evenodd" clip-rule="evenodd" d="M426.626 213.025H289.722C288.85 213.025 288.196 212.262 288.196 211.39C288.305 210.519 289.068 209.756 289.94 209.756H426.735C427.607 209.756 428.261 210.519 428.261 211.39C428.261 212.262 427.498 213.025 426.626 213.025Z" fill="white"/>
</svg>
