<svg width="250" height="243" viewBox="0 0 250 243" fill="none" xmlns="http://www.w3.org/2000/svg">
<g style="mix-blend-mode:multiply">
<path d="M115.419 226.62C173.394 226.62 220.391 179.622 220.391 121.647C220.391 63.6729 173.394 16.6753 115.419 16.6753C57.4449 16.6753 10.4473 63.6729 10.4473 121.647C10.4473 179.622 57.4449 226.62 115.419 226.62Z" fill="#D8DADE"/>
</g>
<path fill-rule="evenodd" clip-rule="evenodd" d="M229.995 34.0627L163.441 15.6696C157.888 14.1423 142.384 16.1445 142.384 27.4367V192.357C142.384 198.323 143.458 204.475 149.031 205.94L229.995 227.41C235.569 228.896 242.876 224.767 242.876 217.336V47.6669C242.876 41.6804 235.569 35.611 229.995 34.0627Z" fill="#3E5584"/>
<path fill-rule="evenodd" clip-rule="evenodd" d="M229.995 34.0627L163.441 15.6696C157.888 14.1423 142.384 16.1445 142.384 27.4367V28.1586C143.808 18.9313 149.238 20.2319 155.822 22.2342L217.981 39.5331C221.367 40.597 224.433 42.4921 226.898 45.0453C230.738 44.2817 236.621 42.6936 239.245 39.9257C236.72 37.2052 233.534 35.1852 229.996 34.0627H229.995Z" fill="#3E5584"/>
<path fill-rule="evenodd" clip-rule="evenodd" d="M142.384 28.1587V192.357C142.384 198.323 143.458 204.475 149.031 205.94L222.794 225.511C224.346 225.53 225.866 225.071 227.148 224.196C228.43 223.32 229.411 222.071 229.957 220.618C231.505 216.923 230.866 211.204 230.866 207.324V53.1171C230.866 47.1306 223.558 41.0814 217.984 39.5332L155.826 22.2343C149.241 20.232 143.812 18.9314 142.388 28.1587H142.384Z" fill="#527AC1"/>
<path fill-rule="evenodd" clip-rule="evenodd" d="M219.942 57.0798L152.21 37.6956C150.414 37.1795 148.928 38.3567 148.928 40.3171V178.503C148.957 179.494 149.286 180.453 149.872 181.253C150.458 182.053 151.274 182.656 152.21 182.982L219.942 202.367C221.737 202.883 223.223 201.706 223.223 199.745V61.5598C223.195 60.5685 222.865 59.6094 222.279 58.8094C221.693 58.0094 220.878 57.4062 219.942 57.0798Z" fill="#7ECFF6"/>
<path fill-rule="evenodd" clip-rule="evenodd" d="M197.914 41.3082L174.505 35.0532C174.334 35.0006 174.154 34.9908 173.978 35.0245C173.803 35.0583 173.639 35.1347 173.5 35.2469C173.362 35.359 173.253 35.5036 173.183 35.6679C173.114 35.8321 173.086 36.0109 173.101 36.1886C173.115 36.6076 173.257 37.0124 173.508 37.3483C173.759 37.6842 174.107 37.9352 174.505 38.0673L197.914 44.3223C198.085 44.375 198.265 44.3849 198.441 44.3512C198.616 44.3175 198.78 44.2412 198.919 44.129C199.058 44.0168 199.167 43.8722 199.236 43.7079C199.306 43.5436 199.334 43.3646 199.318 43.1869C199.304 42.7678 199.162 42.3629 198.911 42.0269C198.66 41.691 198.312 41.4401 197.914 41.3082Z" fill="#3E5584"/>
<path fill-rule="evenodd" clip-rule="evenodd" d="M164.163 35.817C163.756 35.8294 163.354 35.7202 163.01 35.5032C162.665 35.2862 162.394 34.9713 162.229 34.5989C162.065 34.2264 162.015 33.8134 162.087 33.4127C162.159 33.012 162.349 32.6418 162.632 32.3496C162.916 32.0574 163.28 31.8564 163.678 31.7725C164.076 31.6885 164.491 31.7254 164.868 31.8783C165.245 32.0313 165.568 32.2933 165.796 32.631C166.023 32.9686 166.145 33.3665 166.145 33.7736C166.149 34.038 166.101 34.3007 166.004 34.5466C165.907 34.7926 165.762 35.0169 165.578 35.2068C165.394 35.3966 165.174 35.5482 164.931 35.6529C164.688 35.7576 164.427 35.8134 164.163 35.817Z" fill="#3E5584"/>
<path fill-rule="evenodd" clip-rule="evenodd" d="M184.97 196.444C183.991 196.3 182.994 196.371 182.046 196.652C181.098 196.934 180.223 197.419 179.481 198.073C178.74 198.728 178.151 199.537 177.755 200.442C177.358 201.348 177.165 202.33 177.187 203.318C177.239 205.456 178.051 207.504 179.478 209.096C180.904 210.689 182.851 211.721 184.97 212.007C185.949 212.156 186.949 212.089 187.899 211.81C188.85 211.53 189.727 211.046 190.469 210.39C191.212 209.734 191.801 208.923 192.196 208.015C192.59 207.106 192.78 206.122 192.753 205.132C192.701 202.995 191.889 200.946 190.462 199.353C189.036 197.761 187.088 196.729 184.97 196.444V196.444Z" fill="#3E5584"/>
<path d="M215.02 127.884L157.576 110.208C157.161 110.056 156.801 109.783 156.542 109.426C156.283 109.068 156.137 108.641 156.121 108.2V50.0813C156.103 49.8986 156.131 49.7141 156.204 49.5455C156.277 49.3769 156.392 49.2298 156.538 49.1181C156.683 49.0064 156.855 48.934 157.037 48.9076C157.219 48.8813 157.404 48.9019 157.576 48.9675L215.02 66.644C215.435 66.7962 215.795 67.0686 216.054 67.4263C216.313 67.784 216.459 68.2108 216.474 68.6521V126.771C216.493 126.953 216.465 127.138 216.392 127.306C216.319 127.475 216.204 127.622 216.058 127.733C215.913 127.845 215.741 127.917 215.559 127.944C215.377 127.97 215.192 127.949 215.02 127.884Z" fill="white"/>
<path d="M187.691 109.287L181.297 107.272C181.2 107.239 181.097 107.231 180.996 107.25C180.895 107.268 180.801 107.312 180.722 107.377C180.643 107.442 180.582 107.526 180.544 107.621C180.507 107.716 180.494 107.82 180.508 107.921L180.485 111.383C180.487 111.63 180.562 111.87 180.7 112.073C180.839 112.277 181.035 112.435 181.263 112.526L181.34 112.55L181.197 113.955L182.725 112.987L187.658 114.541C187.755 114.574 187.859 114.582 187.96 114.563C188.06 114.545 188.155 114.501 188.234 114.436C188.313 114.371 188.374 114.287 188.411 114.192C188.449 114.097 188.461 113.993 188.448 113.892L188.47 110.43C188.468 110.183 188.393 109.943 188.255 109.74C188.116 109.536 187.92 109.379 187.691 109.287Z" fill="#7ECFF6"/>
<path d="M212.583 114.262L160.025 98.0874V63.3569L212.583 79.529L212.583 114.262Z" fill="#FDDA74"/>
<path d="M161.892 103.748C161.868 103.514 161.904 103.277 161.997 103.06C162.09 102.843 162.238 102.654 162.425 102.511C162.612 102.367 162.833 102.275 163.067 102.241C163.3 102.208 163.539 102.235 163.759 102.319C164.396 102.542 164.927 102.992 165.252 103.584C165.439 103.385 165.68 103.246 165.946 103.185C166.212 103.123 166.49 103.142 166.745 103.239C167.277 103.433 167.739 103.782 168.072 104.241C168.405 104.7 168.593 105.248 168.612 105.815C168.612 107.248 166.671 107.956 165.737 108.582C165.609 108.642 165.464 108.653 165.328 108.613C165.193 108.573 165.076 108.485 165.002 108.365C163.987 107.102 161.892 105.407 161.892 103.748Z" fill="#F52168"/>
<path d="M170.503 106.411V106.933H171.451V110.611H172.045V106.411H170.503ZM173.761 110.089L175.045 108.853C175.615 108.307 175.735 107.941 175.735 107.533C175.735 106.813 175.171 106.363 174.295 106.363C173.641 106.363 173.083 106.597 172.759 106.999L173.167 107.353C173.425 107.041 173.791 106.897 174.241 106.897C174.829 106.897 175.135 107.161 175.135 107.593C175.135 107.857 175.051 108.121 174.607 108.553L172.897 110.203V110.611H175.915V110.089H173.761ZM172.459 117.659C173.437 117.659 174.169 116.879 174.169 115.511C174.169 114.143 173.437 113.363 172.459 113.363C171.475 113.363 170.743 114.143 170.743 115.511C170.743 116.879 171.475 117.659 172.459 117.659ZM172.459 117.125C171.799 117.125 171.343 116.585 171.343 115.511C171.343 114.437 171.799 113.897 172.459 113.897C173.113 113.897 173.569 114.437 173.569 115.511C173.569 116.585 173.113 117.125 172.459 117.125Z" fill="#3E5584"/>
<path d="M191.576 116.254L192.86 115.018C193.43 114.472 193.55 114.106 193.55 113.698C193.55 112.978 192.986 112.528 192.11 112.528C191.456 112.528 190.898 112.762 190.574 113.164L190.982 113.518C191.24 113.206 191.606 113.062 192.056 113.062C192.644 113.062 192.95 113.326 192.95 113.758C192.95 114.022 192.866 114.286 192.422 114.718L190.712 116.368V116.776H193.73V116.254H191.576ZM195.424 114.25H194.956L195.07 113.098H196.936V112.576H194.566L194.344 114.772H195.298C196.27 114.772 196.57 115.066 196.57 115.54C196.57 115.996 196.21 116.29 195.574 116.29C195.064 116.29 194.596 116.104 194.314 115.84L194.038 116.314C194.398 116.632 194.986 116.824 195.58 116.824C196.654 116.824 197.17 116.242 197.17 115.516C197.17 114.772 196.678 114.25 195.424 114.25ZM194.432 122.228H193.634V121.316H193.07V122.228H191.456L193.514 119.576H192.866L190.718 122.324V122.744H193.052V123.776H193.634V122.744H194.432V122.228ZM196.508 123.824C197.486 123.824 198.218 123.044 198.218 121.676C198.218 120.308 197.486 119.528 196.508 119.528C195.524 119.528 194.792 120.308 194.792 121.676C194.792 123.044 195.524 123.824 196.508 123.824ZM196.508 123.29C195.848 123.29 195.392 122.75 195.392 121.676C195.392 120.602 195.848 120.062 196.508 120.062C197.162 120.062 197.618 120.602 197.618 121.676C197.618 122.75 197.162 123.29 196.508 123.29Z" fill="#3E5584"/>
<g style="mix-blend-mode:multiply">
<path d="M168.351 59.9158C168.351 62.3061 166.545 63.6877 164.318 63.0024C163.168 62.5821 162.169 61.8274 161.45 60.8352C160.731 59.843 160.326 58.6586 160.285 57.4341C160.285 55.0438 162.091 53.6622 164.318 54.3474C165.469 54.7679 166.468 55.5227 167.186 56.5149C167.905 57.5071 168.31 58.6914 168.351 59.9158Z" fill="#D8DADE"/>
</g>
<path d="M171.213 59.54L187.866 64.6642" stroke="#3E5584" stroke-width="1.238" stroke-miterlimit="10"/>
<path d="M171.213 62.0527L181.871 65.3321" stroke="#3E5584" stroke-width="1.238" stroke-miterlimit="10"/>
<path d="M207.119 69.4014L211.608 70.7824L209.266 72.5749L207.119 69.4014Z" fill="#7ECFF6"/>
<path d="M215.02 196.057L157.576 178.381C157.161 178.229 156.801 177.957 156.542 177.599C156.283 177.242 156.136 176.815 156.121 176.373V118.254C156.103 118.072 156.132 117.888 156.205 117.72C156.278 117.551 156.393 117.405 156.539 117.293C156.685 117.182 156.856 117.11 157.038 117.084C157.219 117.058 157.404 117.078 157.576 117.144L215.02 134.817C215.435 134.969 215.794 135.241 216.053 135.599C216.312 135.957 216.459 136.384 216.474 136.825V194.944C216.493 195.127 216.464 195.311 216.391 195.48C216.319 195.648 216.204 195.795 216.058 195.907C215.912 196.018 215.74 196.091 215.559 196.117C215.377 196.144 215.191 196.123 215.02 196.057Z" fill="white"/>
<path d="M187.691 177.459L181.297 175.444C181.2 175.411 181.097 175.404 180.996 175.422C180.895 175.44 180.801 175.484 180.722 175.549C180.643 175.614 180.582 175.698 180.544 175.793C180.507 175.889 180.494 175.992 180.508 176.093L180.485 179.556C180.487 179.802 180.562 180.042 180.701 180.245C180.839 180.449 181.035 180.606 181.263 180.698L181.34 180.722L181.197 182.127L182.725 181.159L187.658 182.713C187.755 182.746 187.859 182.754 187.959 182.735C188.06 182.717 188.155 182.673 188.234 182.608C188.313 182.544 188.374 182.459 188.412 182.364C188.449 182.269 188.462 182.166 188.448 182.064L188.47 178.602C188.468 178.356 188.393 178.115 188.255 177.912C188.116 177.708 187.92 177.55 187.691 177.459Z" fill="#7ECFF6"/>
<path d="M212.582 182.435L160.024 166.263V131.529L212.582 147.701V182.435Z" fill="#FDDA74"/>
<path d="M161.892 171.922C161.867 171.687 161.903 171.45 161.996 171.233C162.09 171.017 162.237 170.827 162.424 170.684C162.612 170.541 162.833 170.448 163.066 170.414C163.3 170.381 163.538 170.408 163.758 170.493C164.395 170.715 164.927 171.166 165.252 171.757C165.438 171.558 165.68 171.419 165.945 171.358C166.211 171.296 166.489 171.315 166.744 171.412C167.277 171.606 167.739 171.956 168.072 172.415C168.404 172.874 168.592 173.422 168.611 173.989C168.611 175.422 166.67 176.129 165.737 176.755C165.609 176.816 165.463 176.827 165.328 176.787C165.192 176.746 165.076 176.658 165.001 176.538C163.987 175.276 161.892 173.581 161.892 171.922Z" fill="#F52168"/>
<path d="M170.503 174.585V175.107H171.451V178.785H172.045V174.585H170.503ZM173.761 178.263L175.045 177.027C175.615 176.481 175.735 176.115 175.735 175.707C175.735 174.987 175.171 174.537 174.295 174.537C173.641 174.537 173.083 174.771 172.759 175.173L173.167 175.527C173.425 175.215 173.791 175.071 174.241 175.071C174.829 175.071 175.135 175.335 175.135 175.767C175.135 176.031 175.051 176.295 174.607 176.727L172.897 178.377V178.785H175.915V178.263H173.761ZM172.459 185.833C173.437 185.833 174.169 185.053 174.169 183.685C174.169 182.317 173.437 181.537 172.459 181.537C171.475 181.537 170.743 182.317 170.743 183.685C170.743 185.053 171.475 185.833 172.459 185.833ZM172.459 185.299C171.799 185.299 171.343 184.759 171.343 183.685C171.343 182.611 171.799 182.071 172.459 182.071C173.113 182.071 173.569 182.611 173.569 183.685C173.569 184.759 173.113 185.299 172.459 185.299Z" fill="#3E5584"/>
<path d="M191.575 184.428L192.859 183.192C193.429 182.646 193.549 182.28 193.549 181.872C193.549 181.152 192.985 180.702 192.109 180.702C191.455 180.702 190.897 180.936 190.573 181.338L190.981 181.692C191.239 181.38 191.605 181.236 192.055 181.236C192.643 181.236 192.949 181.5 192.949 181.932C192.949 182.196 192.865 182.46 192.421 182.892L190.711 184.542V184.95H193.729V184.428H191.575ZM195.423 182.424H194.955L195.069 181.272H196.935V180.75H194.565L194.343 182.946H195.297C196.269 182.946 196.569 183.24 196.569 183.714C196.569 184.17 196.209 184.464 195.573 184.464C195.063 184.464 194.595 184.278 194.313 184.014L194.037 184.488C194.397 184.806 194.985 184.998 195.579 184.998C196.653 184.998 197.169 184.416 197.169 183.69C197.169 182.946 196.677 182.424 195.423 182.424ZM194.431 190.402H193.633V189.49H193.069V190.402H191.455L193.513 187.75H192.865L190.717 190.498V190.918H193.051V191.95H193.633V190.918H194.431V190.402ZM196.507 191.998C197.485 191.998 198.217 191.218 198.217 189.85C198.217 188.482 197.485 187.702 196.507 187.702C195.523 187.702 194.791 188.482 194.791 189.85C194.791 191.218 195.523 191.998 196.507 191.998ZM196.507 191.464C195.847 191.464 195.391 190.924 195.391 189.85C195.391 188.776 195.847 188.236 196.507 188.236C197.161 188.236 197.617 188.776 197.617 189.85C197.617 190.924 197.161 191.464 196.507 191.464Z" fill="#3E5584"/>
<g style="mix-blend-mode:multiply">
<path d="M168.35 128.089C168.35 130.479 166.544 131.861 164.317 131.175C163.167 130.755 162.168 130 161.449 129.008C160.73 128.016 160.325 126.831 160.284 125.607C160.284 123.217 162.09 121.834 164.317 122.52C165.468 122.94 166.467 123.695 167.185 124.688C167.904 125.68 168.309 126.864 168.35 128.089Z" fill="#D8DADE"/>
</g>
<path d="M171.213 127.713L187.865 132.837" stroke="#3E5584" stroke-width="1.238" stroke-miterlimit="10"/>
<path d="M171.213 130.226L181.87 133.505" stroke="#3E5584" stroke-width="1.238" stroke-miterlimit="10"/>
<path d="M207.119 137.574L211.607 138.955L209.265 140.748L207.119 137.574Z" fill="#7ECFF6"/>
<path fill-rule="evenodd" clip-rule="evenodd" d="M149.185 179.948C149.422 180.652 149.819 181.292 150.344 181.819C150.868 182.346 151.507 182.745 152.21 182.985L219.942 202.37C221.737 202.886 223.224 201.709 223.224 199.748V61.9531C198.679 101.305 172.944 139.831 149.185 179.948Z" fill="url(#paint0_linear_8345_2599)"/>
<path d="M58.9523 198.792C67.5234 195.757 72.0114 186.348 68.9765 177.777C65.9417 169.206 56.5332 164.718 47.9622 167.753C39.3911 170.788 34.9031 180.196 37.9379 188.767C40.9728 197.338 50.3812 201.826 58.9523 198.792Z" fill="#527AC1"/>
<path d="M45.195 178.448L42.7231 187.785L46.8734 188.884L49.3453 179.547L45.195 178.448Z" fill="white"/>
<path d="M61.3265 184.035C61.6407 183.94 61.9151 183.745 62.1079 183.48C62.3007 183.214 62.4013 182.893 62.3943 182.565C62.3872 182.237 62.273 181.92 62.069 181.663C61.8649 181.406 61.5824 181.223 61.2645 181.141L56.7968 179.959C57.216 178.696 57.5338 177.401 57.7473 176.086C58.1047 173.684 55.3669 174.07 55.3669 174.07C55.9097 177.265 50.553 181.256 50.553 181.256L48.5566 188.808L56.8733 191.007C57.161 191.083 57.4648 191.072 57.7464 190.976C58.028 190.879 58.2748 190.702 58.4558 190.466C58.6367 190.229 58.7436 189.945 58.7631 189.648C58.7826 189.351 58.7137 189.055 58.5652 188.797C58.8426 188.831 59.1239 188.787 59.3777 188.67C59.6314 188.553 59.8476 188.368 60.0017 188.135C60.1559 187.902 60.2421 187.63 60.2505 187.351C60.2589 187.072 60.1893 186.795 60.0494 186.553C60.3555 186.59 60.6656 186.532 60.9375 186.387C61.2094 186.242 61.4301 186.016 61.5695 185.741C61.709 185.466 61.7605 185.155 61.717 184.85C61.6735 184.545 61.5372 184.26 61.3265 184.035Z" fill="white"/>
<path d="M119.874 216.063C120.572 218.227 120.612 220.549 119.99 222.736C119.368 224.924 118.111 226.877 116.379 228.35C114.646 229.823 112.516 230.749 110.257 231.011C107.998 231.273 105.712 230.86 103.689 229.823C101.665 228.786 99.994 227.172 98.8874 225.186C97.7808 223.199 97.2881 220.929 97.4716 218.663C97.6551 216.396 98.5066 214.235 99.9184 212.452C101.33 210.67 103.239 209.346 105.403 208.648C106.84 208.185 108.354 208.009 109.859 208.131C111.364 208.253 112.83 208.67 114.174 209.358C115.518 210.047 116.713 210.993 117.691 212.143C118.669 213.294 119.411 214.625 119.874 216.063Z" fill="#527AC1"/>
<path d="M105.108 218.953L102.256 219.873L104.325 226.29L107.177 225.371L105.108 218.953Z" fill="white"/>
<path d="M113.845 217.071C113.993 216.896 114.079 216.678 114.091 216.45C114.104 216.222 114.042 215.996 113.914 215.807C113.787 215.617 113.601 215.474 113.385 215.4C113.169 215.325 112.935 215.323 112.718 215.393L109.648 216.383C109.417 215.482 109.115 214.6 108.745 213.747C108.049 212.2 106.586 213.459 106.586 213.459C108.109 215.132 106.467 219.5 106.467 219.5L108.14 224.691L113.858 222.848C113.74 221.733 113.988 220.609 114.564 219.647C114.391 219.558 114.245 219.422 114.145 219.254C114.045 219.087 113.993 218.895 113.996 218.7C113.999 218.505 114.056 218.314 114.161 218.15C114.266 217.985 114.415 217.854 114.591 217.769C114.536 217.599 114.439 217.446 114.308 217.323C114.178 217.201 114.019 217.114 113.845 217.071Z" fill="white"/>
<path d="M89.3594 158.785C91.6016 153.166 88.8644 146.794 83.2457 144.551C77.6269 142.309 71.2543 145.046 69.0121 150.665C66.7698 156.284 69.5071 162.657 75.1258 164.899C80.7446 167.141 87.1172 164.404 89.3594 158.785Z" fill="#F52168"/>
<path d="M81.4706 160.838L84.9871 154.877C85.389 154.209 85.5868 153.439 85.5561 152.66C85.3967 149.413 81.6039 147.291 78.9445 149.675C78.4563 150.23 78.1401 150.915 78.0345 151.647C77.4751 151.164 76.7871 150.854 76.0545 150.755C72.4837 150.701 71.0126 154.791 73.0227 157.346C73.5105 157.954 74.1654 158.405 74.9067 158.646L81.4706 160.838Z" fill="white"/>
<path d="M34.5602 236.295C44.363 232.609 49.3211 221.673 45.6343 211.87C41.9475 202.067 31.0119 197.109 21.2091 200.796C11.4063 204.483 6.44821 215.418 10.135 225.221C13.8218 235.024 24.7573 239.982 34.5602 236.295Z" fill="#F52168"/>
<path d="M23.1722 228.814L34.7819 225.852C36.0917 225.53 37.2788 224.832 38.1972 223.844C41.9861 219.683 39.961 212.438 33.789 212.086C32.1212 211.99 30.2614 213.377 30.2614 213.377C30.2614 213.377 30.0981 211.06 28.9379 209.858C24.6447 205.409 17.8325 208.596 17.1472 214.184C16.9966 215.524 17.2416 216.88 17.8521 218.082L23.1722 228.814Z" fill="white"/>
<path d="M129.988 194.725C129.974 196.151 129.538 197.54 128.735 198.718C127.931 199.896 126.797 200.809 125.474 201.342C124.152 201.874 122.701 202.003 121.306 201.711C119.91 201.42 118.633 200.721 117.634 199.703C116.636 198.685 115.962 197.394 115.697 195.993C115.433 194.592 115.59 193.145 116.148 191.833C116.706 190.521 117.641 189.404 118.834 188.624C120.027 187.843 121.425 187.434 122.851 187.448C123.797 187.457 124.732 187.653 125.603 188.023C126.474 188.394 127.264 188.933 127.927 189.608C128.589 190.284 129.113 191.084 129.466 191.962C129.82 192.84 129.997 193.779 129.988 194.725Z" fill="#F52168"/>
<path d="M122.739 198.951L126.308 196.12C126.712 195.805 127.016 195.378 127.181 194.893C127.851 192.861 126.023 190.661 123.827 191.496C123.395 191.721 123.039 192.067 122.802 192.492C122.572 192.063 122.223 191.71 121.796 191.476C119.616 190.599 117.746 192.762 118.376 194.808C118.533 195.295 118.828 195.727 119.226 196.049L122.739 198.951Z" fill="white"/>
<path d="M82.247 216.465C81.8736 217.549 81.1872 218.498 80.2746 219.191C79.362 219.885 78.2642 220.293 77.1199 220.363C75.9756 220.433 74.8363 220.162 73.8461 219.584C72.8558 219.006 72.0591 218.148 71.5566 217.118C71.0542 216.087 70.8685 214.931 71.0232 213.795C71.1779 212.659 71.666 211.595 72.4256 210.736C73.1853 209.877 74.1825 209.263 75.2912 208.972C76.3998 208.68 77.5701 208.723 78.654 209.097C79.3738 209.344 80.0377 209.732 80.6078 210.236C81.178 210.74 81.6431 211.352 81.9768 212.036C82.3104 212.721 82.506 213.464 82.5524 214.224C82.5987 214.984 82.4949 215.745 82.247 216.465Z" fill="#FDDA74"/>
<path d="M80.7898 216.039C80.6088 216.573 80.3241 217.066 79.9521 217.49C79.58 217.913 79.1279 218.259 78.6218 218.508C78.1156 218.756 77.5654 218.902 77.0027 218.937C76.44 218.972 75.8759 218.896 75.3428 218.712C74.8097 218.529 74.3181 218.242 73.8963 217.868C73.4745 217.493 73.1307 217.04 72.8848 216.532C72.6388 216.025 72.4955 215.474 72.4631 214.911C72.4307 214.348 72.5099 213.785 72.696 213.252L80.7898 216.039Z" fill="#3C3C3B"/>
<path d="M76.2234 216.153C75.673 215.964 75.0897 215.889 74.5093 215.933C73.9289 215.978 73.3638 216.14 72.8486 216.411C73.0876 216.942 73.4327 217.419 73.8627 217.811C74.2927 218.204 74.7985 218.504 75.349 218.694C75.8995 218.884 76.4829 218.959 77.0635 218.914C77.644 218.87 78.2094 218.707 78.7247 218.437C78.4858 217.905 78.1406 217.429 77.7104 217.036C77.2802 216.643 76.7741 216.343 76.2234 216.153Z" fill="#F52168"/>
<path d="M73.3763 212.163C73.3225 212.145 73.2774 212.108 73.2497 212.058C73.222 212.009 73.2138 211.951 73.2266 211.895C73.2395 211.84 73.2724 211.792 73.3191 211.76C73.3657 211.728 73.4227 211.714 73.4788 211.722L75.2511 211.947L74.2399 210.812C74.2019 210.766 74.183 210.708 74.1874 210.649C74.1917 210.59 74.2189 210.535 74.2631 210.495C74.3074 210.456 74.3652 210.435 74.4244 210.438C74.4836 210.44 74.5395 210.466 74.5802 210.509L75.9952 212.097C76.0257 212.132 76.045 212.175 76.0507 212.221C76.0563 212.266 76.0479 212.313 76.0267 212.353C76.0055 212.394 75.9724 212.428 75.9318 212.449C75.8912 212.471 75.845 212.48 75.7992 212.475L73.4246 212.173C73.4082 212.172 73.3919 212.168 73.3763 212.163Z" fill="#3C3C3B"/>
<path d="M80.9244 214.76C80.9095 214.755 80.8951 214.748 80.8813 214.741L78.8242 213.516C78.7846 213.492 78.7532 213.457 78.7341 213.414C78.7151 213.372 78.7093 213.325 78.7175 213.28C78.7257 213.234 78.7476 213.192 78.7802 213.16C78.8128 213.127 78.8545 213.105 78.9 213.096L80.9937 212.715C81.0518 212.708 81.1108 212.722 81.1583 212.757C81.2058 212.791 81.2382 212.843 81.2487 212.9C81.2592 212.958 81.2471 213.018 81.2148 213.067C81.1825 213.116 81.1325 213.15 81.0753 213.164L79.5794 213.435L81.1145 214.35C81.1636 214.378 81.2002 214.424 81.2173 214.478C81.2344 214.532 81.2306 214.591 81.2068 214.642C81.183 214.693 81.1409 214.734 81.0886 214.756C81.0364 214.778 80.9778 214.78 80.9244 214.761V214.76Z" fill="#3C3C3B"/>
<path d="M94.8471 193.624C100.164 193.256 104.177 188.647 103.809 183.33C103.442 178.012 98.8331 174 93.5157 174.368C88.1983 174.735 84.1857 179.344 84.5534 184.661C84.921 189.979 89.5296 193.991 94.8471 193.624Z" fill="#FDDA74"/>
<path d="M97.8133 187.109C98.4567 189.091 97.9145 191.043 96.6028 191.468C95.291 191.894 93.7062 190.632 93.0634 188.65C92.4206 186.667 92.9628 184.716 94.2746 184.29C95.5863 183.865 97.1731 185.127 97.8133 187.109Z" fill="#3C3C3B"/>
<path d="M90.3348 182.853C90.6484 183.82 90.3838 184.773 89.7469 184.98C89.1099 185.188 88.3332 184.572 88.019 183.604C87.7048 182.637 87.97 181.685 88.6069 181.477C89.2438 181.269 90.0206 181.885 90.3348 182.853Z" fill="#3C3C3B"/>
<path d="M98.9375 180.062C99.2517 181.029 98.9865 181.982 98.3495 182.19C97.7126 182.398 96.9359 181.782 96.6223 180.814C96.3088 179.845 96.5727 178.894 97.2103 178.686C97.8478 178.478 98.6259 179.092 98.9375 180.062Z" fill="#3C3C3B"/>
<path d="M89.4938 179.223C89.4466 179.238 89.3967 179.244 89.3472 179.24C89.2976 179.236 89.2493 179.223 89.2051 179.2C88.845 179.027 88.432 178.999 88.052 179.122C87.6719 179.245 87.354 179.511 87.1643 179.862C87.1172 179.949 87.038 180.014 86.9436 180.044C86.8491 180.073 86.747 180.064 86.6589 180.019C86.5708 179.974 86.5037 179.897 86.4721 179.803C86.4404 179.709 86.4467 179.607 86.4895 179.518C86.7637 178.981 87.2401 178.574 87.8138 178.388C88.3876 178.202 89.0119 178.251 89.5493 178.525C89.616 178.559 89.6711 178.612 89.7076 178.678C89.7441 178.743 89.7604 178.818 89.7545 178.892C89.7485 178.967 89.7206 179.038 89.6742 179.097C89.6278 179.156 89.565 179.2 89.4938 179.223Z" fill="#3C3C3B"/>
<path d="M97.5877 176.596C97.5405 176.612 97.4906 176.618 97.4411 176.614C97.3915 176.61 97.3432 176.596 97.299 176.574C96.9388 176.401 96.5258 176.373 96.1457 176.496C95.7657 176.62 95.4476 176.884 95.2576 177.236C95.2119 177.325 95.1326 177.393 95.0371 177.424C94.9416 177.455 94.8377 177.447 94.7483 177.401C94.6589 177.355 94.5913 177.276 94.5604 177.18C94.5295 177.085 94.5377 176.981 94.5834 176.892C94.719 176.626 94.9058 176.389 95.1329 176.195C95.3601 176.001 95.6232 175.854 95.9073 175.761C96.1914 175.669 96.4909 175.634 96.7886 175.657C97.0864 175.681 97.3765 175.763 97.6426 175.899C97.687 175.921 97.7264 175.952 97.7588 175.99C97.7911 176.028 97.8156 176.072 97.831 176.119C97.8463 176.166 97.8522 176.216 97.8482 176.266C97.8443 176.316 97.8306 176.364 97.8079 176.408C97.7856 176.453 97.7546 176.492 97.7168 176.525C97.679 176.557 97.6351 176.581 97.5877 176.596Z" fill="#3C3C3B"/>
<path d="M238.709 34.6811C244.945 27.9992 244.583 17.5272 237.901 11.2912C231.219 5.05525 220.747 5.41673 214.511 12.0986C208.275 18.7805 208.637 29.2525 215.319 35.4885C222.001 41.7245 232.473 41.363 238.709 34.6811Z" fill="white"/>
<path d="M234.709 24.4906C234.887 23.5695 234.77 22.6156 234.375 21.7646C233.98 20.9135 233.327 20.2085 232.509 19.7497C231.69 19.2908 230.748 19.1014 229.816 19.2084C228.884 19.3154 228.009 19.7134 227.316 20.3457C226.908 19.5011 226.243 18.8067 225.418 18.3612C224.592 17.9156 223.647 17.7415 222.717 17.8637C221.787 17.9858 220.918 18.398 220.236 19.0416C219.553 19.6853 219.091 20.5276 218.914 21.4491C218.309 24.588 222.321 28.3253 224.124 30.743C224.319 31.0033 224.602 31.1832 224.92 31.2485C225.238 31.3138 225.569 31.2599 225.85 31.097C228.64 29.4783 234.009 28.1228 234.709 24.4906Z" fill="#F52168"/>
<path d="M214.206 32.5337L210.685 41.614L225.341 36.8955" fill="white"/>
<path d="M20.852 175.069C26.4207 172.095 28.5243 165.17 25.5506 159.602C22.5768 154.033 15.6518 151.929 10.083 154.903C4.51433 157.877 2.41072 164.802 5.38448 170.371C8.35825 175.939 15.2833 178.043 20.852 175.069Z" fill="white"/>
<path d="M17.6487 160.457C17.8223 161.095 17.8028 161.77 17.5927 162.397C17.3827 163.024 16.9914 163.574 16.4685 163.978C15.9455 164.383 15.3144 164.623 14.6548 164.669C13.9953 164.715 13.337 164.564 12.7631 164.236C12.1893 163.907 11.7257 163.416 11.431 162.824C11.1363 162.233 11.0237 161.567 11.1075 160.911C11.1913 160.255 11.4676 159.639 11.9016 159.14C12.3356 158.641 12.9077 158.283 13.5456 158.109C13.9692 157.994 14.4113 157.963 14.8468 158.019C15.2822 158.074 15.7024 158.215 16.0834 158.433C16.4644 158.651 16.7988 158.942 17.0674 159.289C17.3359 159.636 17.5335 160.033 17.6487 160.457Z" fill="#7ECFF6"/>
<path d="M23.6909 170.142C23.6732 170.07 23.6562 169.998 23.6366 169.925C22.5385 165.888 18.8025 163.388 15.2978 164.342C11.7931 165.297 9.83852 169.343 10.9373 173.381C10.9569 173.453 10.9791 173.524 11.0026 173.595L23.6909 170.142Z" fill="#7ECFF6"/>
<path d="M155.605 226.346C155.233 228.106 154.348 229.717 153.06 230.975C151.773 232.232 150.141 233.079 148.372 233.409C146.603 233.74 144.776 233.538 143.122 232.83C141.468 232.121 140.061 230.938 139.079 229.43C138.097 227.922 137.584 226.157 137.605 224.358C137.626 222.558 138.181 220.806 139.198 219.321C140.215 217.837 141.65 216.688 143.321 216.019C144.991 215.35 146.823 215.191 148.583 215.563C150.944 216.062 153.01 217.478 154.327 219.5C155.644 221.522 156.104 223.985 155.605 226.346Z" fill="white"/>
<path d="M149.89 222.051C149.781 222.566 149.522 223.037 149.146 223.404C148.77 223.772 148.293 224.02 147.776 224.116C147.258 224.213 146.724 224.154 146.241 223.947C145.757 223.74 145.346 223.394 145.058 222.953C144.771 222.512 144.621 221.996 144.628 221.47C144.634 220.944 144.796 220.432 145.093 219.998C145.391 219.564 145.81 219.228 146.298 219.032C146.787 218.836 147.322 218.79 147.837 218.899C148.179 218.971 148.503 219.11 148.791 219.307C149.079 219.505 149.326 219.757 149.517 220.05C149.707 220.342 149.838 220.67 149.902 221.013C149.967 221.357 149.962 221.709 149.89 222.051Z" fill="#7ECFF6"/>
<path d="M150.65 231.105C150.664 231.046 150.678 230.99 150.69 230.931C151.379 227.673 149.645 224.547 146.812 223.949C143.979 223.35 141.129 225.508 140.441 228.767C140.429 228.825 140.419 228.883 140.409 228.941L150.65 231.105Z" fill="#7ECFF6"/>
<path fill-rule="evenodd" clip-rule="evenodd" d="M105.772 11.3729C113.384 10.5014 121.264 11.9752 127.743 16.1626C133.486 19.8744 135.886 24.7973 139.436 30.3023C143.306 36.2993 146.5 41.8748 148.698 48.815C153.397 63.5976 153.935 79.3889 150.252 94.4569C148.023 103.402 144.031 112.329 136.788 118.033C125.915 126.595 110.584 126.009 97.6778 131.011C97.7319 130.415 97.6514 129.815 97.4424 129.254C97.2333 128.694 96.901 128.187 96.47 127.772C82.6832 136.719 66.6366 141.56 50.2023 141.732C51.1257 140.915 51.8233 139.874 52.2279 138.71C52.6324 137.545 52.7304 136.296 52.5122 135.083C51.2246 128.37 44.3752 128.812 39.2628 129.679C34.9657 130.406 30.5669 130.273 26.3216 129.287C22.0763 128.301 18.069 126.482 14.5322 123.936C10.9954 121.389 7.9995 118.165 5.71828 114.452C3.43706 110.738 1.91594 106.609 1.24316 102.303C3.61253 105.392 8.37087 105.77 11.8874 104.1C15.4038 102.429 17.9032 99.2002 20.0139 95.9287C25.5339 87.3749 29.722 77.3343 38.2607 71.7908C46.9301 66.1623 59.0258 65.9859 65.7629 58.1455C69.6001 53.6792 70.6368 47.7888 70.5408 42.0656C70.4337 35.6943 66.9433 30.8465 72.6508 26.9949C82.6039 20.2833 93.5708 12.7708 105.772 11.3729Z" fill="#3E5584"/>
<path d="M168.878 37.1469C169.603 32.222 169.943 29.0622 169.943 29.0622C178.487 27.9797 188.312 18.448 188.312 18.448L185.1 10.9303L166.025 15.6233L168.558 9.59766H166.02C166.02 9.59766 160.474 13.2461 159.597 18.4663C159.354 19.9856 159.515 21.5422 160.063 22.9797C160.612 24.4171 161.53 25.6849 162.723 26.6555L158.382 36.0141C161.755 37.157 165.339 37.5437 168.878 37.1469Z" fill="#FFCCCC"/>
<path d="M172.22 18.4587L185.888 13.9375" stroke="#E2AEA1" stroke-width="0.395" stroke-miterlimit="10"/>
<path d="M174.225 21.4903L187.181 16.9619" stroke="#E2AEA1" stroke-width="0.395" stroke-miterlimit="10"/>
<path d="M171.546 25.4441C171.546 25.4441 173.294 21.8995 171.175 19.4341C169.841 17.9421 168.007 16.991 166.019 16.761L168.553 10.7354" stroke="#E2AEA1" stroke-width="0.395" stroke-miterlimit="10"/>
<path d="M40.4522 81.2267C37.1448 77.5031 35.1269 75.0508 35.1269 75.0508C27.3897 78.8312 13.9469 76.2502 13.9469 76.2502L12.5098 68.2014L31.0309 61.6649L25.6089 58.0158L27.732 56.625C27.732 56.625 34.3711 56.6335 37.9672 60.5171C39.0039 61.6542 39.7232 63.0441 40.0527 64.5471C40.3823 66.0502 40.3105 67.6135 39.8447 69.08L48.6049 74.5236C46.412 77.329 43.6287 79.6175 40.4522 81.2267Z" fill="#FFCCCC"/>
<path d="M27.4079 67.4331L13.5 71.1488" stroke="#E2AEA1" stroke-width="0.395" stroke-miterlimit="10"/>
<path d="M27.3951 71.0684L14.0771 74.3882" stroke="#E2AEA1" stroke-width="0.395" stroke-miterlimit="10"/>
<path d="M31.8039 72.9057C31.8039 72.9057 28.3984 70.9008 28.8185 67.6796C29.116 65.7005 30.1286 63.8991 31.6647 62.6162L26.2427 58.9678" stroke="#E2AEA1" stroke-width="0.395" stroke-miterlimit="10"/>
<path fill-rule="evenodd" clip-rule="evenodd" d="M109.53 104.343C95.1889 107.947 78.0807 105.22 64.6902 100.187C53.0028 95.7946 44.0826 88.175 34.8455 80.1105C33.8421 79.2345 39.1759 73.7902 39.8488 73.2624C42.4187 71.2491 45.346 69.4604 47.8917 71.7031C53.4255 76.577 59.0899 80.4966 66.0523 83.1135C78.0324 87.6152 91.2733 88.546 103.869 86.5543C106.75 86.097 112.492 100.769 112.786 103.397C111.72 103.751 110.634 104.067 109.53 104.343Z" fill="#D81A63"/>
<path fill-rule="evenodd" clip-rule="evenodd" d="M97.8442 75.6084C98.9881 78.049 100.832 80.3217 101.657 82.8844C102.686 86.0788 102.131 89.0623 104.275 91.9699C105.961 94.1802 108.302 95.8018 110.964 96.6035C112.981 97.2222 115.104 97.4159 117.199 97.1722C119.295 96.9286 121.317 96.2529 123.138 95.1879C125.667 93.6887 127.896 90.8385 127.077 88.0158C126.441 85.8221 124.219 84.5097 122.087 83.6925C114.999 80.9736 110.673 74.3143 107.723 67.3545" fill="#E5B5B5"/>
<path fill-rule="evenodd" clip-rule="evenodd" d="M80.6565 51.4467C78.5948 50.4824 76.3124 52.6153 75.7003 54.807C75.2459 56.5725 75.3497 58.4355 75.9973 60.1396C76.6449 61.8438 77.8045 63.3055 79.3167 64.3237" fill="#E5B5B5"/>
<path fill-rule="evenodd" clip-rule="evenodd" d="M98.3973 66.0659C95.9267 71.4102 89.7978 73.0173 85.9619 69.3263L98.3973 66.0659Z" fill="white"/>
<path fill-rule="evenodd" clip-rule="evenodd" d="M92.3099 64.2193C90.8682 64.7962 89.2115 65.2168 87.7077 64.6394C87.3931 64.5432 87.118 64.3477 86.9238 64.0821C86.0328 62.645 89.5969 59.2911 90.6696 58.7744C90.9087 59.2101 92.3373 64.2076 92.3099 64.2193Z" fill="#E5B5B5"/>
<path opacity="0.2" d="M110.193 67.2088C112.854 67.2088 115.011 65.0518 115.011 62.391C115.011 59.7302 112.854 57.5732 110.193 57.5732C107.532 57.5732 105.375 59.7302 105.375 62.391C105.375 65.0518 107.532 67.2088 110.193 67.2088Z" fill="#F52168"/>
<path opacity="0.2" fill-rule="evenodd" clip-rule="evenodd" d="M78.5085 59.1395C78.3922 59.1343 78.2772 59.1395 78.1629 59.1395C78.1929 59.8411 78.1988 60.544 78.189 61.2469C78.1537 63.6914 77.948 66.1379 78.091 68.5824C78.0943 68.6431 78.1015 68.7032 78.1054 68.7633C79.3792 68.8123 80.6204 68.3543 81.5572 67.4899C82.4939 66.6254 83.0499 65.4249 83.1032 64.1513C83.1566 62.8777 82.7029 61.6349 81.8417 60.6951C80.9805 59.7554 79.7818 59.1953 78.5085 59.1376V59.1395Z" fill="#F52168"/>
<path d="M95.4077 56.474C96.4788 55.4248 97.8279 54.7041 99.2955 54.3971C100.763 54.0901 102.288 54.2096 103.69 54.7416L106.303 52.998" stroke="#333333" stroke-width="1.5" stroke-linecap="round" stroke-linejoin="round"/>
<path d="M85.1789 56.9198C84.4757 56.4355 83.6531 56.1535 82.8007 56.1044C81.9483 56.0554 81.0988 56.2411 80.3447 56.6415L77.5586 55.1782" stroke="#333333" stroke-width="1.5" stroke-linecap="round" stroke-linejoin="round"/>
<path d="M101.511 54.0894L103.906 51.9121" stroke="#333333" stroke-width="1.5" stroke-linecap="round" stroke-linejoin="round"/>
<path d="M81.6954 55.8312L79.9531 54.3071" stroke="#333333" stroke-width="1.5" stroke-linecap="round" stroke-linejoin="round"/>
<path fill-rule="evenodd" clip-rule="evenodd" d="M138.827 86.4812C153.912 71.9764 165.767 54.4522 173.617 35.0534C168.364 32.801 162.737 31.5465 157.024 31.354C156.885 31.3494 149.761 47.4118 148.835 48.941C145.178 54.9727 140.84 60.5635 135.905 65.603C130.345 71.2825 109.941 81.4968 122.246 91.1546C128.593 96.137 134.361 90.7705 138.827 86.4812Z" fill="#D81A63"/>
<path fill-rule="evenodd" clip-rule="evenodd" d="M167.68 112.283L223.643 155.398L223.207 174.56L169.857 147.559L206.005 198.078L177.915 190.457L148.083 158.012" fill="#FFCCCC"/>
<path fill-rule="evenodd" clip-rule="evenodd" d="M223.207 174.561L223.642 155.399L204.465 140.624C201.253 147.187 197.943 153.95 193.646 159.599L223.207 174.561Z" fill="#FFCCCC"/>
<path fill-rule="evenodd" clip-rule="evenodd" d="M193.645 159.599C197.942 153.947 201.253 147.187 204.465 140.624L167.679 112.283L148.082 158.011L164.147 175.485C168.036 174.57 171.947 173.418 175.954 172.165C179.059 171.364 182.007 170.047 184.674 168.268L169.857 147.56L193.645 159.599Z" fill="#E5B5B5"/>
<path fill-rule="evenodd" clip-rule="evenodd" d="M164.148 175.485L177.915 190.457L206.005 198.079L184.675 168.269C182.007 170.047 179.06 171.365 175.955 172.166C171.948 173.418 168.037 174.572 164.148 175.485Z" fill="#FFCCCC"/>
<path fill-rule="evenodd" clip-rule="evenodd" d="M135.086 129.373C125.442 135.599 114.89 140.29 103.808 143.28C102.683 143.583 111.467 157.173 112.453 158.27C116.247 162.526 120.859 165.975 126.013 168.413C138.504 174.188 153.52 174.762 166.481 170.249C195.089 160.285 206.484 130.303 205.134 102.049C178.568 96.8225 170.827 106.681 151.785 109.764" fill="#3E5584"/>
<path fill-rule="evenodd" clip-rule="evenodd" d="M137.856 89.7316C141.07 93.6302 141.93 99.1483 145.795 102.601C149.911 106.278 156.521 107.324 161.9 107.393C158.389 109.745 157.047 114.873 156.32 119.037C155.594 123.202 155.153 127.634 152.662 131.05C150.323 134.258 146.404 136.092 142.451 136.472C139.363 136.769 133.42 136.615 131.057 134.083C128.794 131.66 129.685 127.359 128.59 124.367C127.335 120.931 124.752 117.883 121.329 116.593C117.997 115.339 114.221 115.809 110.865 114.626C107.142 113.312 104.351 110.064 102.699 106.473C100.447 101.318 98.7094 95.9537 97.5125 90.4574C97.197 88.9764 96.5829 88.1056 97.2153 86.5986C97.5517 85.7964 100.601 84.8184 101.797 84.305C101.851 84.2812 101.91 84.2701 101.969 84.2724C102.028 84.2748 102.086 84.2905 102.138 84.3184C102.191 84.3463 102.236 84.3857 102.271 84.4336C102.305 84.4815 102.329 84.5367 102.339 84.595C102.487 85.928 103.068 87.1756 103.994 88.1456C104.92 89.1156 106.14 89.7541 107.464 89.9628C108.841 90.2162 110.262 90.0794 111.565 89.5679C112.869 89.0564 114.003 88.1906 114.84 87.0683C116.623 84.4872 114.809 81.2053 116.651 78.7921C117.953 77.0858 122.42 76.0609 124.386 74.9634C125.754 78.8144 128.203 82.1889 131.441 84.6819C133.325 86.1256 135.46 87.2584 137.137 88.9372C137.396 89.1985 137.634 89.4631 137.856 89.7316Z" fill="#F52168"/>
<path d="M118.675 48.2896C117.166 50.0064 116.028 50.917 115.166 51.3188C116.982 56.0562 115.536 60.3044 114.708 65.1947C116.59 65.0483 122.701 65.1143 125.059 60.1424C128.304 53.306 124.008 42.2228 118.675 48.2896Z" fill="#FFCCCC"/>
<path d="M120.668 52.3394C120.647 52.3055 120.521 52.3362 120.276 52.4381L120.438 52.5942C120.477 52.5417 120.528 52.4983 120.585 52.4668C120.652 52.4035 120.681 52.3584 120.668 52.3394Z" fill="#E2AEA1"/>
<path d="M122.693 52.6589C122.533 52.4078 122.307 52.2047 122.041 52.071C121.774 51.9374 121.477 51.8783 121.18 51.8999C120.987 51.9063 120.799 51.9626 120.635 52.0633C120.47 52.1639 120.334 52.3054 120.241 52.4741L120.063 52.9033L120.402 52.6309C120.467 52.5798 120.529 52.525 120.588 52.4669C120.531 52.4984 120.48 52.5418 120.441 52.5943L120.279 52.4381C120.521 52.3362 120.647 52.3075 120.671 52.3395C120.684 52.3591 120.655 52.4048 120.591 52.4701C120.728 52.3972 120.878 52.3523 121.033 52.3383C121.187 52.3242 121.343 52.3413 121.491 52.3884C121.639 52.4355 121.775 52.5118 121.893 52.6127C122.011 52.7135 122.108 52.837 122.177 52.9758C122.425 53.5464 122.546 54.1635 122.534 54.7853C122.523 55.4071 122.377 56.0191 122.108 56.5798C121.785 57.2831 121.307 57.9042 120.71 58.3967C120.113 58.8892 119.412 59.2402 118.661 59.4234C117.472 59.735 116.671 59.5926 116.653 59.7128C116.623 59.7847 117.42 60.1303 118.77 59.9264C119.644 59.7911 120.471 59.4397 121.175 58.9042C121.879 58.3686 122.439 57.6658 122.803 56.8594C123.122 56.2016 123.279 55.4768 123.26 54.7458C123.241 54.0148 123.046 53.2991 122.693 52.6589Z" fill="#E2AEA1"/>
<path d="M123.06 54.7282C122.953 54.9058 122.214 54.6975 121.371 54.9823C120.517 55.2325 120.043 55.823 119.849 55.7401C119.762 55.7002 119.764 55.4598 119.966 55.1423C120.25 54.7342 120.665 54.4347 121.141 54.2931C121.618 54.1359 122.134 54.1423 122.607 54.3114C122.961 54.4525 123.106 54.6439 123.06 54.7282Z" fill="#E2AEA1"/>
<path d="M116.866 52.1961C116.557 49.6569 116.204 47.1412 115.991 44.7411C115.697 41.4291 115.501 37.9786 113.913 34.9625C107.773 23.296 87.7528 25.5033 77.0511 26.461C77.0511 26.461 73.3674 44.6157 74.0573 60.3298C74.5681 71.9735 85.8603 79.3135 96.758 79.2456C111.562 79.1522 118.515 65.7329 116.866 52.1961Z" fill="#FFCCCC"/>
<path d="M87.442 69.0618C89.2156 69.9936 91.2493 70.3068 93.221 69.9518C95.1927 69.5968 96.9895 68.5939 98.3266 67.1021C99.3327 65.9621 99.6332 65.0547 99.545 65.0116C99.4274 64.9424 98.9466 65.7178 97.8981 66.6761C96.5592 67.9393 94.8817 68.7857 93.0702 69.1122C91.2586 69.4388 89.3912 69.2313 87.6955 68.515C86.3779 67.9833 85.6573 67.4241 85.5711 67.5312C85.5032 67.5998 86.1009 68.3452 87.442 69.0618Z" fill="#E2AEA1"/>
<path opacity="0.2" d="M93.5192 71.5192C96.3693 71.2369 98.1501 69.4235 97.67 68.3646C97.1957 67.2736 95.2144 67.0848 93.0972 67.2789C90.9806 67.5081 89.0764 68.085 88.8268 69.2484C88.5642 70.3818 90.6684 71.8066 93.5192 71.5192Z" fill="#F52168"/>
<path d="M87.721 51.3781C88.496 52.2629 89.0857 53.2941 89.4551 54.4108C89.8245 55.5275 89.9661 56.7069 89.8715 57.8793C89.754 59.0369 89.3924 60.1563 88.8106 61.1639C88.5924 61.6118 88.2699 62.0008 87.8701 62.2981C87.4703 62.5953 87.0049 62.7922 86.5131 62.8722L85.6854 62.9284L86.387 63.3007C87.3016 63.7854 88.3108 64.0651 89.3443 64.1206C89.7204 64.1773 90.1046 64.1439 90.4653 64.0232C89.3759 63.9016 88.3086 63.6296 87.2938 63.2152C87.0596 63.2908 86.8164 63.3348 86.5706 63.3458L86.6973 62.9173C86.9005 63.0335 87.0978 63.127 87.2938 63.2184C88.2011 62.906 88.9648 62.2758 89.4436 61.4442C90.0959 60.385 90.4999 59.192 90.6254 57.9545C90.7278 56.7049 90.5594 55.448 90.1318 54.2695C89.7042 53.0909 89.0274 52.0185 88.1476 51.1253C86.7326 49.6522 85.4614 49.1041 85.43 49.159C85.3477 49.2367 86.4804 49.9044 87.721 51.3781Z" fill="#E2AEA1"/>
<path d="M86.5708 63.3395C86.8166 63.3285 87.0598 63.2845 87.294 63.2089C87.098 63.1174 86.902 63.024 86.6975 62.9077L86.5708 63.3395Z" fill="#E2AEA1"/>
<path d="M106.399 45.8465C106.194 46.2345 103.874 45.2723 100.918 45.4395C97.9572 45.5408 95.7355 46.7095 95.4958 46.3417C95.3873 46.1784 95.8224 45.6388 96.7644 45.0796C98.019 44.3862 99.4168 43.9916 100.849 43.9266C102.281 43.8616 103.709 44.1278 105.021 44.7046C106.011 45.1723 106.492 45.6741 106.399 45.8465Z" fill="#3E5584"/>
<path d="M85.3341 46.0274C85.1381 46.4193 83.0666 45.6792 80.4843 45.8771C77.8967 46.0163 75.9409 47.017 75.6946 46.6558C75.5849 46.4918 75.9559 45.9927 76.7777 45.4727C77.8775 44.8277 79.1129 44.4485 80.3852 44.3655C81.6575 44.2825 82.9317 44.4979 84.106 44.9946C84.9918 45.4035 85.4216 45.8503 85.3341 46.0274Z" fill="#3E5584"/>
<path d="M100.81 57.332C100.871 57.528 100.532 57.7998 100.059 57.7279C99.5856 57.656 99.34 57.2961 99.4589 57.1256C99.5778 56.9551 99.875 56.9381 100.172 56.9793C100.469 57.0204 100.752 57.1269 100.81 57.332Z" fill="#E2AEA1"/>
<path d="M103.271 56.2641C103.326 56.4667 103.14 56.692 102.856 56.7685C102.572 56.8449 102.299 56.7436 102.244 56.5418C102.189 56.3399 102.375 56.1146 102.659 56.0375C102.943 55.9604 103.217 56.0623 103.271 56.2641Z" fill="#E2AEA1"/>
<path d="M105.18 57.4534C105.18 57.6625 104.952 57.8304 104.675 57.8291C104.398 57.8278 104.174 57.656 104.176 57.4469C104.178 57.2379 104.403 57.07 104.681 57.0713C104.958 57.0726 105.181 57.247 105.18 57.4534Z" fill="#E2AEA1"/>
<path d="M107.267 55.4286C107.26 55.4907 107.236 55.5497 107.198 55.5986C107.159 55.6475 107.107 55.6842 107.048 55.7045C106.989 55.7247 106.925 55.7276 106.864 55.7128C106.804 55.698 106.749 55.6662 106.706 55.621C106.662 55.5758 106.633 55.5193 106.621 55.458C106.609 55.3968 106.615 55.3333 106.638 55.2753C106.661 55.2173 106.7 55.167 106.751 55.1305C106.801 55.094 106.862 55.0728 106.924 55.0693C107.017 55.0721 107.105 55.1113 107.169 55.1786C107.233 55.2458 107.268 55.3357 107.267 55.4286Z" fill="#E2AEA1"/>
<path d="M79.8527 58.5047C79.8449 58.7118 79.4784 58.8634 79.0642 58.7223C78.6501 58.5812 78.4534 58.2362 78.5743 58.069C78.6951 57.9018 79.0061 57.9057 79.3092 58.0037C79.6123 58.1017 79.8606 58.2944 79.8527 58.5047Z" fill="#E2AEA1"/>
<path d="M78.3632 56.5441C78.3392 56.6174 78.2938 56.6819 78.233 56.7293C78.1721 56.7767 78.0985 56.8049 78.0216 56.8103C77.9446 56.8157 77.8678 56.798 77.801 56.7595C77.7341 56.7211 77.6802 56.6635 77.6462 56.5943C77.6122 56.5251 77.5996 56.4473 77.61 56.3708C77.6204 56.2944 77.6534 56.2228 77.7047 56.1652C77.7559 56.1076 77.8232 56.0665 77.8979 56.0474C77.9727 56.0282 78.0514 56.0317 78.1241 56.0574C78.1718 56.0736 78.2158 56.0991 78.2537 56.1323C78.2915 56.1656 78.3225 56.2059 78.3447 56.2512C78.3669 56.2964 78.3799 56.3455 78.3831 56.3958C78.3863 56.4461 78.3795 56.4965 78.3632 56.5441Z" fill="#E2AEA1"/>
<path d="M76.8354 57.3611C76.906 57.5571 76.5852 57.8321 76.1371 57.7407C75.689 57.6492 75.5047 57.2664 75.6465 57.1149C75.736 57.044 75.8417 56.9964 75.9541 56.9762C76.0664 56.9561 76.182 56.964 76.2906 56.9992C76.5284 57.0541 76.7708 57.1593 76.8354 57.3611Z" fill="#E2AEA1"/>
<path d="M81.744 56.9121C81.7254 56.9836 81.6862 57.048 81.6311 57.0972C81.5761 57.1464 81.5077 57.1783 81.4345 57.1887C81.3614 57.1992 81.2869 57.1877 81.2202 57.1559C81.1536 57.124 81.0979 57.0732 81.0601 57.0097C81.0223 56.9463 81.0041 56.8731 81.0078 56.7993C81.0115 56.7255 81.037 56.6545 81.081 56.5952C81.125 56.5359 81.1855 56.4909 81.255 56.4659C81.3245 56.4409 81.3999 56.4371 81.4716 56.4548C81.5683 56.4795 81.6512 56.5414 81.7023 56.6272C81.7533 56.7129 81.7683 56.8153 81.744 56.9121Z" fill="#E2AEA1"/>
<path d="M84.3066 58.5338C84.3445 58.7376 84.0453 58.9584 83.6533 58.867C83.2614 58.7755 83.0902 58.4417 83.215 58.279C83.2984 58.2084 83.3972 58.1582 83.5035 58.1327C83.6098 58.1071 83.7206 58.1068 83.827 58.1319C83.9334 58.1569 84.0325 58.2065 84.1162 58.2768C84.2 58.3471 84.2661 58.436 84.3092 58.5364L84.3066 58.5338Z" fill="#E2AEA1"/>
<path fill-rule="evenodd" clip-rule="evenodd" d="M123.937 19.3503C126.819 20.1996 130.003 21.898 131.388 24.7005C132.332 26.6067 132.342 28.8239 132.303 30.9509C132.245 34.0062 132.098 37.1666 130.746 39.9071C129.135 43.1681 125.968 45.4467 122.57 46.7434C119.172 48.0401 115.711 52.2007 112.099 52.6195C115.001 50.2494 113.198 42.7729 110.629 40.0442C108.06 37.3156 105.265 35.169 101.536 34.7999C100.628 37.5978 102.891 40.9464 105.826 41.1482C100.246 42.4208 94.602 43.7005 88.8788 43.6385C83.1556 43.5764 77.2574 42.0445 72.9393 38.2889C72.1886 38.802 71.5884 39.5061 71.2006 40.3285C70.8128 41.151 70.6515 42.062 70.7333 42.9676C70.8257 43.3737 70.8172 43.7963 70.7084 44.1983C70.3955 44.9587 69.3542 45.0475 68.5455 44.8973C64.8814 44.2277 61.9326 41.2907 60.3915 37.8996C58.8907 34.7825 58.685 31.1979 59.8193 27.9296C61.2911 24.0943 64.8324 21.4205 68.5364 19.6443C74.9362 16.4953 81.6582 14.0486 88.5849 12.3467C94.9561 10.8762 110.457 10.6652 116.834 12.1174" fill="#3E5584"/>
<path d="M119.273 31.5456C118.002 33.9274 114.099 34.3246 112.236 33.331C110.374 32.3374 111.256 30.326 112.53 27.9468C113.803 25.5677 114.977 23.7118 116.841 24.7054C118.705 25.699 120.544 29.1638 119.273 31.5456Z" fill="#FDDA74"/>
<path d="M128.098 36.2552C126.827 38.6377 125.66 40.4949 123.737 39.4686C121.813 38.4423 119.862 34.92 121.133 32.5388C122.405 30.1577 126.416 29.8167 128.339 30.8404C130.263 31.864 129.37 33.8715 128.098 36.2552Z" fill="#FDDA74"/>
<path d="M122.397 33.4301C122.173 33.8481 121.831 34.1906 121.413 34.4141C120.996 34.6377 120.521 34.7324 120.049 34.6862C119.578 34.6399 119.13 34.4549 118.764 34.1545C118.397 33.8541 118.128 33.4517 117.99 32.9983C117.852 32.545 117.852 32.0609 117.989 31.6073C118.127 31.1538 118.395 30.7511 118.762 30.4502C119.128 30.1493 119.575 29.9638 120.046 29.917C120.518 29.8702 120.993 29.9643 121.411 30.1873C121.688 30.3355 121.934 30.5369 122.134 30.7801C122.334 31.0232 122.484 31.3034 122.575 31.6045C122.667 31.9056 122.698 32.2219 122.668 32.5351C122.637 32.8483 122.545 33.1525 122.397 33.4301Z" fill="#FDDA74"/>
<path d="M58.5847 150.195C61.9268 143.351 59.0879 135.093 52.2439 131.751C45.3999 128.409 37.1425 131.248 33.8004 138.092C30.4583 144.936 33.2972 153.194 40.1412 156.536C46.9852 159.878 55.2427 157.039 58.5847 150.195Z" fill="#FDDA74"/>
<path d="M55.7511 147.617C54.8696 150.166 53.0124 152.261 50.5873 153.442C48.1623 154.623 45.3678 154.793 42.8176 153.915C40.2673 153.036 38.1699 151.182 36.986 148.758C35.8022 146.335 35.6286 143.541 36.5035 140.989L55.7511 147.617Z" fill="#3C3C3B"/>
<path d="M44.8928 147.89C43.584 147.438 42.1965 147.26 40.8161 147.365C39.4356 147.471 38.0914 147.858 36.8662 148.503C37.4351 149.765 38.2562 150.897 39.279 151.83C40.3018 152.763 41.5047 153.477 42.8136 153.927C44.1225 154.378 45.5098 154.556 46.8902 154.451C48.2706 154.345 49.6147 153.959 50.8401 153.314C50.2716 152.052 49.4507 150.92 48.4278 149.987C47.405 149.054 46.2019 148.34 44.8928 147.89Z" fill="#F52168"/>
<path d="M38.1217 138.398C37.9958 138.354 37.8906 138.265 37.8265 138.148C37.7623 138.031 37.7436 137.894 37.774 137.764C37.8043 137.634 37.8816 137.52 37.991 137.444C38.1004 137.367 38.2341 137.334 38.3666 137.35L42.5815 137.886L40.1762 135.185C40.1266 135.132 40.0881 135.07 40.063 135.002C40.0378 134.935 40.0265 134.863 40.0297 134.79C40.0329 134.718 40.0506 134.647 40.0817 134.582C40.1128 134.517 40.1566 134.458 40.2107 134.41C40.2647 134.362 40.3278 134.325 40.3963 134.302C40.4648 134.279 40.5372 134.27 40.6093 134.275C40.6815 134.28 40.7518 134.3 40.8162 134.333C40.8806 134.366 40.9377 134.411 40.9842 134.466L44.3498 138.244C44.4229 138.327 44.4692 138.429 44.4825 138.539C44.4958 138.648 44.4754 138.759 44.4241 138.856C44.3727 138.954 44.2929 139.033 44.1953 139.084C44.0976 139.135 43.9868 139.155 43.8775 139.141L38.2308 138.423C38.1936 138.419 38.157 138.41 38.1217 138.398Z" fill="#3C3C3B"/>
<path d="M56.0716 144.579C56.0363 144.567 56.0022 144.552 55.9697 144.533L51.0781 141.62C50.9836 141.564 50.9086 141.48 50.863 141.379C50.8174 141.279 50.8035 141.167 50.8231 141.059C50.8427 140.951 50.8948 140.851 50.9726 140.773C51.0504 140.695 51.1501 140.643 51.2584 140.623L56.2369 139.718C56.3781 139.692 56.5239 139.723 56.6421 139.805C56.7603 139.886 56.8413 140.011 56.8673 140.152C56.8933 140.294 56.8621 140.439 56.7807 140.558C56.6992 140.676 56.5741 140.757 56.4329 140.783L52.8766 141.429L56.527 143.603C56.6475 143.669 56.7385 143.778 56.7816 143.908C56.8247 144.038 56.8166 144.18 56.759 144.305C56.7015 144.429 56.5987 144.527 56.4716 144.579C56.3444 144.631 56.2024 144.632 56.0743 144.583L56.0716 144.579Z" fill="#3C3C3B"/>
<path d="M19.0777 17.7697L49.2942 17.562C50.3086 17.5921 51.27 18.0218 51.969 18.7576C52.6681 19.4933 53.0481 20.4754 53.0262 21.4901L53.1314 36.7606C53.1672 37.7748 52.8007 38.762 52.1118 39.5072C51.4229 40.2524 50.4674 40.6951 49.4536 40.739H49.0943L49.7678 47.118L42.544 40.7814L19.2384 40.9467C18.224 40.9166 17.2626 40.4869 16.5635 39.7512C15.8645 39.0154 15.4845 38.0333 15.5063 37.0187L15.4018 21.7481C15.366 20.7342 15.7323 19.7473 16.4207 19.0022C17.1092 18.257 18.0642 17.8141 19.0777 17.7697Z" fill="white"/>
<path d="M43.3043 32.1883C44.6789 32.1883 45.7933 31.074 45.7933 29.6994C45.7933 28.3248 44.6789 27.2104 43.3043 27.2104C41.9298 27.2104 40.8154 28.3248 40.8154 29.6994C40.8154 31.074 41.9298 32.1883 43.3043 32.1883Z" fill="#3E5584"/>
<path d="M34.2008 32.1883C35.5754 32.1883 36.6897 31.074 36.6897 29.6994C36.6897 28.3248 35.5754 27.2104 34.2008 27.2104C32.8262 27.2104 31.7119 28.3248 31.7119 29.6994C31.7119 31.074 32.8262 32.1883 34.2008 32.1883Z" fill="#3E5584"/>
<path d="M25.0963 32.1883C26.4709 32.1883 27.5853 31.074 27.5853 29.6994C27.5853 28.3248 26.4709 27.2104 25.0963 27.2104C23.7217 27.2104 22.6074 28.3248 22.6074 29.6994C22.6074 31.074 23.7217 32.1883 25.0963 32.1883Z" fill="#3E5584"/>
<path d="M110.063 49.0273C110.063 49.0273 109.969 49.2697 109.756 49.6924C109.454 50.3247 109.026 50.8888 108.499 51.3503C108.088 51.6961 107.603 51.9421 107.081 52.0689C106.762 52.1429 106.433 52.163 106.108 52.1284C105.785 52.087 105.468 52.0081 105.163 51.8932C104.686 51.7026 104.192 51.5574 103.687 51.4594C103.168 51.3664 102.64 51.3265 102.113 51.3405C101.051 51.3747 100 51.5615 98.992 51.8951C98.136 52.1512 97.319 52.5233 96.5639 53.0011C96.0487 53.3238 95.618 53.7647 95.3077 54.2874C95.2216 54.4384 95.1509 54.5978 95.0967 54.763L95.0392 54.9419L95.013 54.7538C94.9904 54.5688 94.9904 54.3816 95.013 54.1966C95.1174 53.489 95.4223 52.8262 95.8917 52.2864C96.5718 51.4906 97.4055 50.8401 98.3427 50.3737C99.4917 49.7625 100.766 49.4228 102.066 49.3808C102.759 49.3636 103.451 49.4492 104.118 49.6349C104.718 49.8095 105.293 50.0602 105.828 50.3809C106.146 50.597 106.516 50.7215 106.9 50.7408C107.27 50.7418 107.636 50.6671 107.976 50.5213C108.536 50.2623 109.054 49.9196 109.512 49.5049L110.063 49.0273Z" fill="#3C3C3B"/>
<path d="M76.4998 52.0026C76.4657 52.1642 76.4835 52.3325 76.5507 52.4834C76.6225 52.6477 76.7423 52.7865 76.8945 52.8815C77.0467 52.9764 77.224 53.023 77.4032 53.0151C77.6376 52.9995 77.8661 52.9349 78.0741 52.8257C78.3475 52.6791 78.6078 52.5093 78.8521 52.3181C79.2054 52.0436 79.5848 51.8044 79.9849 51.6041C80.686 51.2733 81.4556 51.1135 82.2305 51.1376C83.0054 51.1618 83.7636 51.3694 84.4427 51.7432C85.1444 52.1358 85.7325 52.7034 86.1497 53.3907C86.418 53.8285 86.6042 54.3115 86.6991 54.8161C86.7332 54.995 86.752 55.1763 86.7553 55.3584C86.7553 55.3584 86.6403 55.1996 86.4228 54.9468C86.1243 54.6081 85.7876 54.3051 85.4193 54.044C84.351 53.281 83.034 52.9493 81.7317 53.1151C81.3816 53.1565 81.0362 53.2311 80.7002 53.3378C80.386 53.4352 80.043 53.5991 79.655 53.7638C79.2722 53.9664 78.8519 54.0884 78.4201 54.1221C77.9883 54.1558 77.5541 54.1005 77.1445 53.9597C76.8094 53.8184 76.5356 53.5623 76.3724 53.2372C76.2614 53.0129 76.2174 52.7614 76.2456 52.5128C76.2647 52.3172 76.3552 52.1356 76.4998 52.0026Z" fill="#3C3C3B"/>
<defs>
<linearGradient id="paint0_linear_8345_2599" x1="149.185" y1="132.222" x2="223.224" y2="132.222" gradientUnits="userSpaceOnUse">
<stop stop-color="white"/>
<stop offset="0.999" stop-color="white" stop-opacity="0"/>
</linearGradient>
</defs>
</svg>
