<svg width="90" height="72" viewBox="0 0 90 72" fill="none" xmlns="http://www.w3.org/2000/svg">
<path opacity="0.15" d="M29.3706 33.6706C32.8671 35.2235 35.5944 37.5529 37.5525 40.6588C39.5105 43.7647 40.4895 47.4353 40.4895 51.6706C40.4895 57.7412 38.6014 62.6824 34.8252 66.4941C31.049 70.1647 26.2238 72 20.3497 72C14.4755 72 9.58042 70.0941 5.66434 66.2823C1.88811 62.4706 0 57.6 0 51.6706C0 48.8471 0.34965 46.0235 1.04895 43.2C1.74825 40.3765 3.28671 36.1412 5.66434 30.4941L17.8322 0H38.6014L29.3706 33.6706ZM78.8811 33.6706C82.3776 35.2235 85.1049 37.5529 87.0629 40.6588C89.021 43.7647 90 47.4353 90 51.6706C90 57.7412 88.1119 62.6824 84.3357 66.4941C80.5594 70.1647 75.7343 72 69.8601 72C63.986 72 59.0909 70.0941 55.1748 66.2823C51.3986 62.4706 49.5105 57.6 49.5105 51.6706C49.5105 48.8471 49.8601 46.0235 50.5594 43.2C51.2587 40.3765 52.7972 36.1412 55.1748 30.4941L67.3427 0H88.1119L78.8811 33.6706Z" fill="#0ec2f3"/>
</svg>
