<svg width="40" height="40" viewBox="0 0 40 40" fill="none" xmlns="http://www.w3.org/2000/svg">
<path d="M15 5C12.9438 5 11.25 6.69379 11.25 8.75C11.25 9.23543 11.5987 9.57248 11.77 10H5V11.25V18.75H6.25V35H33.75V18.75H35V10H28.23C28.4013 9.57248 28.75 9.23543 28.75 8.75C28.75 6.69379 27.0562 5 25 5C22.8139 5 21.3379 6.6468 20.3638 8.03223C20.1308 8.36351 20.1826 8.37856 20 8.68896C19.8174 8.37856 19.8692 8.36351 19.6362 8.03223C18.6621 6.6468 17.1861 5 15 5ZM15 7.5C15.7826 7.5 16.8066 8.3532 17.5903 9.46777C17.7754 9.73094 17.738 9.7496 17.8857 10H15C14.2937 10 13.75 9.45629 13.75 8.75C13.75 8.04371 14.2937 7.5 15 7.5ZM25 7.5C25.7063 7.5 26.25 8.04371 26.25 8.75C26.25 9.45629 25.7063 10 25 10H22.1143C22.262 9.7496 22.2246 9.73094 22.4097 9.46777C23.1934 8.3532 24.2174 7.5 25 7.5ZM7.5 12.5H15H18.1421H18.75V16.25H7.5V12.5ZM21.25 12.5H21.8579H25H32.5V16.25H21.25V12.5ZM8.75 18.75H18.75V32.5H8.75V18.75ZM21.25 18.75H31.25V32.5H21.25V18.75Z" fill="#0ec2f3"/>
</svg>