<svg width="28" height="28" viewBox="0 0 28 28" fill="none" xmlns="http://www.w3.org/2000/svg">
<circle cx="14" cy="14" r="14" fill="white"/>
<path d="M16.52 13.5201C16.6138 13.6137 16.6666 13.7408 16.6667 13.8734V14.1267C16.6652 14.259 16.6126 14.3856 16.52 14.4801L13.0934 17.9001C13.0308 17.9632 12.9456 17.9987 12.8567 17.9987C12.7678 17.9987 12.6826 17.9632 12.62 17.9001L12.1467 17.4267C12.084 17.3653 12.0486 17.2812 12.0486 17.1934C12.0486 17.1056 12.084 17.0215 12.1467 16.9601L15.1134 14.0001L12.1467 11.0401C12.0836 10.9775 12.0481 10.8923 12.0481 10.8034C12.0481 10.7145 12.0836 10.6293 12.1467 10.5667L12.62 10.1001C12.6826 10.037 12.7678 10.0015 12.8567 10.0015C12.9456 10.0015 13.0308 10.037 13.0934 10.1001L16.52 13.5201Z" fill="#0ec2f3"/>
</svg>
