<svg width="40" height="40" viewBox="0 0 40 40" fill="none" xmlns="http://www.w3.org/2000/svg">
<circle cx="20" cy="20" r="20" fill="#45B26B"/>
<path d="M25.8337 16.4538V22.1252C25.4249 22.4451 24.8837 22.5305 24.3999 22.3583L24.2412 22.2975C24.7324 21.2965 24.5499 20.0703 23.7749 19.2507L20.9662 16.3412L23.1999 15.5293L25.8337 16.4538Z" fill="white"/>
<path d="M19.0587 20.3197L22 23.3159V23.325C21.925 23.6008 21.7837 23.852 21.5837 24.0591C21.225 24.4217 20.75 24.603 20.2837 24.5771L17.15 21.3309C17.075 21.3996 17.0412 21.4954 17.0412 21.5899C17.0412 21.7026 17.0912 21.823 17.2 21.8916L20.175 24.9124C20.0912 25.1196 19.975 25.3099 19.8162 25.4731C19.475 25.8266 19.025 26.0001 18.575 26.0001C18.1412 26.0001 17.7087 25.8356 17.375 25.499L15.5412 23.7808C15.1412 23.4014 14.675 23.1333 14.1575 22.9689C14.1662 22.943 14.1662 22.9171 14.1662 22.8912V15.6402L16.3075 14.7247C16.9237 14.4567 17.6162 14.5085 18.1825 14.8283L18.05 14.8995C17.3337 15.2712 16.825 15.9781 16.6837 16.8249C16.5587 17.6446 16.825 18.4914 17.3925 19.087C17.8087 19.5182 18.3675 19.7862 18.9587 19.838C18.9175 19.8989 18.9 19.9584 18.9 20.0193C18.9 20.1384 18.95 20.2511 19.0587 20.3197Z" fill="white"/>
<path d="M23.45 22.0215C23.3837 22.16 23.3 22.2805 23.1912 22.3931C22.8662 22.7298 22.4825 22.9201 22.0825 22.9538L19.0737 19.8461H19.1737C19.5737 19.8461 19.9737 19.7425 20.3237 19.5612L20.59 19.4149L22.0237 18.6638L23.1825 19.8642C23.1825 19.8642 23.1825 19.8642 23.1912 19.8732C23.7412 20.4495 23.8337 21.3391 23.45 22.0215Z" fill="white"/>
<path opacity="0.7" d="M12.7088 23.5399H10.625C10.28 23.5399 10 23.2498 10 22.8924V15.5542C10 15.1968 10.28 14.9067 10.625 14.9067H12.7088C13.0538 14.9067 13.3338 15.1968 13.3338 15.5542V22.8924C13.3338 23.2498 13.0538 23.5399 12.7088 23.5399Z" fill="white"/>
<path opacity="0.7" d="M29.375 23.5399H27.2913C26.9463 23.5399 26.6663 23.2498 26.6663 22.8924V15.5542C26.6663 15.1968 26.9463 14.9067 27.2913 14.9067H29.375C29.72 14.9067 30 15.1968 30 15.5542V22.8924C30 23.2498 29.72 23.5399 29.375 23.5399Z" fill="white"/>
<path d="M24.95 14.9938C24.9412 14.9938 24.9337 14.9848 24.9162 14.9848L23.0087 14.1739C22.4175 13.9238 21.75 13.9407 21.175 14.2425L18.9 15.4252L18.425 15.6674C17.9412 15.9174 17.6 16.4019 17.5087 16.9537C17.425 17.5069 17.6 18.0768 17.9837 18.4732C18.3087 18.81 18.7425 18.9823 19.175 18.9823C19.4337 18.9823 19.7 18.9214 19.9412 18.7919L20.2162 18.6455L21.4075 18.0237L24.7237 16.297L25.8325 16.7724V15.5547C25.8325 15.4938 25.8325 15.4343 25.8487 15.3824L24.95 14.9938Z" fill="white"/>
</svg>
