<svg id="SvgjsSvg1013" width="288" height="288" xmlns="http://www.w3.org/2000/svg" version="1.1" xmlns:xlink="http://www.w3.org/1999/xlink" xmlns:svgjs="http://svgjs.com/svgjs"><defs id="SvgjsDefs1014"></defs><g id="SvgjsG1015"><svg xmlns="http://www.w3.org/2000/svg" viewBox="0 0 66 66" width="288" height="288"><path fill="#ffffff" d="M58.4 21.8c-1-3.5-4.5-5.7-8.1-5.1L46.6 3.2c-.2-.6-.8-.7-1.2-.3l-17 16.5L4 26.1c-2.7.7-4.3 3.6-3.6 6.3l2.7 9.8c.7 2.7 3.6 4.3 6.3 3.6l4.1-1.1 8.3 18.2c.1.3.5.5.9.4l9.6-2.6c.4-.1.7-.6.5-1L31 56l2.9-.8c.4-.1.7-.6.5-1L31 46.9c-.2-.3-.5-.5-.9-.4l-3.1.8-2.6-5.6 9.4-2.6 23 5.6c.6.1 1.1-.4.9-.9L54 30.4c3.5-1.3 5.4-5.1 4.4-8.6zM29.9 48.1l2.7 5.9-2.3.6-2.7-5.9 2.3-.6zM9 44.4c-2 .5-4-.6-4.5-2.6L1.8 32c-.5-1.9.6-3.9 2.5-4.4l24-6.6 4.6 16.8c-7.2 2-19.2 5.3-23.9 6.6zm21.9 15.1l-8.1 2.2-7.9-17.4c.7-.2 6.8-1.9 8.1-2.2l7.9 17.4zm3.5-21.8l-4.8-17.4L45.5 4.9 56 43l-21.6-5.3zm19.3-8.8l-3-10.8c2.8-.4 5.5 1.3 6.2 4.1.8 2.8-.6 5.7-3.2 6.7zM65.8 19.7c-.1-.4-.5-.6-.9-.5l-2.4.7c-.4.1-.6.5-.5.9.1.4.5.6.9.5l2.4-.7c.3-.1.6-.5.5-.9zM58.7 10.8c-.4-.2-.8-.1-1 .3l-1.2 2.2c-.2.4-.1.8.3 1 .4.2.8.1 1-.3l1.2-2.2c.2-.4.1-.8-.3-1zM64.1 30L62 28.8c-.4-.2-.8-.1-1 .3-.2.4-.1.8.3 1l2.2 1.2c.4.2.8.1 1-.3.1-.4 0-.8-.4-1z" class="color000100 svgShape"></path></svg></g></svg>