<svg id="SvgjsSvg1020" width="288" height="288" xmlns="http://www.w3.org/2000/svg" version="1.1" xmlns:xlink="http://www.w3.org/1999/xlink" xmlns:svgjs="http://svgjs.com/svgjs"><defs id="SvgjsDefs1021"></defs><g id="SvgjsG1022"><svg xmlns="http://www.w3.org/2000/svg" enable-background="new 0 0 64 64" viewBox="0 0 64 64" width="288" height="288"><path d="M63.77,53.02c-0.36-0.8-1.04-1.28-1.84-1.28H60.8V20.2c0-2.13-1.73-3.87-3.86-3.87h-7.41V6.62c0-1.07-0.87-1.94-1.94-1.94
		H16.41c-1.07,0-1.94,0.87-1.94,1.94v9.72h-7.4c-2.13,0-3.87,1.74-3.87,3.87v31.54H2.06c-0.78,0-1.46,0.47-1.82,1.26
		c-0.43,0.95-0.27,2.08,0.38,2.83l2.05,2.3c0.68,0.76,1.6,1.19,2.52,1.19h53.6c0.92,0,1.81-0.42,2.53-1.2l2.04-2.29
		C64.03,55.1,64.19,53.97,63.77,53.02z M56.94,18.27c1.06,0,1.92,0.87,1.92,1.93v1.63h-9.33v-3.56H56.94z M16.41,6.62h31.18v37.09
		H46l-5.97-6.8c3.12-3.74,3.33-9.28,0.22-13.27c-3.59-4.6-10.25-5.43-14.85-1.84c-4.6,3.58-5.43,10.24-1.84,14.84
		c2.08,2.67,5.2,4.07,8.36,4.07c1.56,0,3.12-0.35,4.57-1.05l2.78,4.04H16.41V6.62z M45.21,45.75c0.17,0.19,0.24,0.43,0.22,0.68
		c-0.02,0.25-0.15,0.47-0.34,0.63c-0.2,0.15-0.44,0.22-0.69,0.18c-0.25-0.04-0.46-0.17-0.61-0.38l-5.64-8.19
		c0.08-0.06,0.17-0.12,0.26-0.18c0.08-0.07,0.16-0.14,0.24-0.21l6.21,7.07c0.01,0.01,0.01,0.02,0.02,0.02L45.21,45.75z M37.22,36.96
		c-3.76,2.93-9.2,2.25-12.12-1.51c-2.93-3.76-2.25-9.2,1.5-12.12c1.57-1.23,3.44-1.82,5.3-1.82c2.57,0,5.12,1.14,6.82,3.33
		C41.65,28.59,40.97,34.03,37.22,36.96z M7.07,18.27h7.4v3.56H5.14V20.2C5.14,19.14,6,18.27,7.07,18.27z M5.14,23.77h9.33v19.94
		c0,1.07,0.87,1.94,1.94,1.94H40.6l1.59,2.31c0.44,0.64,1.14,1.08,1.91,1.2c0.14,0.02,0.29,0.03,0.43,0.03
		c0.63,0,1.25-0.21,1.75-0.6c0.61-0.48,1.01-1.2,1.08-1.98c0.03-0.33-0.01-0.65-0.09-0.97h0.32c1.07,0,1.94-0.87,1.94-1.94V23.77
		h9.33v27.97H39.59c-0.28,0-0.55,0.12-0.74,0.34l-1.33,1.56H26.47l-1.32-1.56c-0.18-0.22-0.46-0.34-0.74-0.34H5.14V23.77z
		 M61.93,54.53C61.92,54.54,61.92,54.54,61.93,54.53l-2.03,2.29c-0.33,0.36-0.72,0.56-1.09,0.56H5.2c-0.37,0-0.77-0.2-1.08-0.55
		l-2.05-2.29c-0.1-0.12-0.15-0.32-0.12-0.53c0.03-0.21,0.12-0.32,0.11-0.33h21.9l1.32,1.56c0.18,0.22,0.46,0.34,0.74,0.34h11.95
		c0.28,0,0.55-0.12,0.74-0.34l1.33-1.56l19.77-0.01c0.01,0,0.01,0,0.02,0s0.01,0,0.02,0l2.05,0c0.03,0.02,0.12,0.13,0.15,0.33
		C62.07,54.17,62.05,54.39,61.93,54.53z" fill="#ffffff" class="color000 svgShape"></path><path d="M36.07 25.85l-6.53 6.53-1.8-1.8c-.38-.38-.99-.38-1.37 0-.38.38-.38.99 0 1.37l2.48 2.48c.19.19.44.28.69.28.25 0 .5-.09.69-.28l7.21-7.21c.38-.38.38-.99 0-1.37C37.06 25.47 36.45 25.47 36.07 25.85zM20.2 11.71h22.67c.54 0 .97-.43.97-.97 0-.54-.43-.97-.97-.97H20.2c-.54 0-.97.43-.97.97C19.23 11.28 19.67 11.71 20.2 11.71zM20.2 16.19h14.91c.54 0 .97-.43.97-.97 0-.54-.43-.97-.97-.97H20.2c-.54 0-.97.43-.97.97C19.23 15.76 19.67 16.19 20.2 16.19z" fill="#ffffff" class="color000 svgShape"></path></svg></g></svg>