<svg id="SvgjsSvg1018" width="288" height="288" xmlns="http://www.w3.org/2000/svg" version="1.1" xmlns:xlink="http://www.w3.org/1999/xlink" xmlns:svgjs="http://svgjs.com/svgjs"><defs id="SvgjsDefs1019"></defs><g id="SvgjsG1020"><svg xmlns="http://www.w3.org/2000/svg" data-name="Layer 1" viewBox="0 0 512 512" width="288" height="288"><path d="M469.588,223.477A32.478,32.478,0,0,0,437.7,250H390.893a134.125,134.125,0,0,0-35.761-85.473l33.2-33.141a32.1,32.1,0,1,0-8.356-8.559l-33.356,33.362A134.22,134.22,0,0,0,261,121.291V74.439c15-2.406,27.418-15.851,27.418-32.027a32.412,32.412,0,1,0-64.823,0A31.971,31.971,0,0,0,249,74.052V121.37a133.442,133.442,0,0,0-84.511,35.658l-33.175-33.172a32.387,32.387,0,1,0-8.679,8.3l33.393,33.275A134.01,134.01,0,0,0,121.068,251h-46.6c-2.312-15-15.806-27.529-32.059-27.529a32.4,32.4,0,1,0,0,64.8A31.923,31.923,0,0,0,74,263h47.147a133.556,133.556,0,0,0,35.506,84.459L123.672,380.5a32.617,32.617,0,1,0,8.356,8.672l33.128-33.129A134.517,134.517,0,0,0,250,391.115v46.627a32.412,32.412,0,1,0,12,0V391.115a134.523,134.523,0,0,0,85.421-35.609l33.008,33.007a32.336,32.336,0,1,0,8.554-8.417l-33.1-33.209A133.81,133.81,0,0,0,390.893,262h46.888a32.4,32.4,0,1,0,31.807-38.523ZM392.6,90.536a20.411,20.411,0,1,1-5.979,14.435A20.35,20.35,0,0,1,392.6,90.536ZM235.588,42.412A20.412,20.412,0,1,1,256,62.824,20.435,20.435,0,0,1,235.588,42.412ZM90.536,119.4a20.411,20.411,0,1,1,14.435,5.979A20.436,20.436,0,0,1,90.536,119.4ZM42.412,276.412A20.412,20.412,0,1,1,62.824,256,20.435,20.435,0,0,1,42.412,276.412ZM119.4,421.464a20.431,20.431,0,1,1-.642-29.45,5.72,5.72,0,0,0,1.814,1.874,20.392,20.392,0,0,1-1.172,27.576Zm89.46-183.53a2.435,2.435,0,0,1,1.4-1.711c.134.009.269.02.406.02a29.322,29.322,0,0,0,25.439-14.8l2.466-4.371A71.055,71.055,0,0,0,276.382,228H295v1.973a6.126,6.126,0,0,0,5.593,5.974,2.7,2.7,0,0,1,2.471,1.985,5.52,5.52,0,0,1,.19,1.3,5.363,5.363,0,0,1-4.435,5.312A6.042,6.042,0,0,0,294.054,249l-2.3,7.918c-.053.186-.1.376-.132.567a36.25,36.25,0,0,1-71.251,0c-.036-.191-.08-.381-.134-.567l-2.231-7.672a6,6,0,0,0-4.845-4.707,5.379,5.379,0,0,1-4.453-5.312A5.46,5.46,0,0,1,208.864,237.934ZM303.907,216H276.382a58.935,58.935,0,0,1-36.074-12.356,6.013,6.013,0,0,0-8.9,1.795l-5.56,10.069A20.361,20.361,0,0,1,217,223.163V206.918a39.243,39.243,0,0,1,39.175-39.339c17.144,0,33.033,13.713,37.893,32.608a21.974,21.974,0,0,0,12.9,14.906A5.378,5.378,0,0,1,303.907,216ZM256,299.036a44.649,44.649,0,0,0,14-2.131v5.538a35.985,35.985,0,0,1-28,0V296.9A44.649,44.649,0,0,0,256,299.036Zm-20.7,13.639a48.836,48.836,0,0,0,41.4,0l31,10.05a17.636,17.636,0,0,1,11.742,11.989c.061.219.118.439.171.672a16.275,16.275,0,0,1,.386,3.725v22.15a122.813,122.813,0,0,1-128,0v-22.15a16.281,16.281,0,0,1,.389-3.737c.05-.221.107-.441.167-.656A17.638,17.638,0,0,1,204.3,322.725Zm41.114,156.913a20.412,20.412,0,1,1-21.724-20.346,5.851,5.851,0,0,0,2.624,0A20.423,20.423,0,0,1,276.412,469.588ZM421.464,392.6a20.411,20.411,0,1,1-14.435-5.979A20.436,20.436,0,0,1,421.464,392.6ZM332,352.91v-13.8a28.081,28.081,0,0,0-.7-6.44c-.088-.378-.184-.754-.286-1.131a29.718,29.718,0,0,0-19.7-20.229L282,301.831V291.307A47.376,47.376,0,0,0,303.279,260l1.431-4.777a17.469,17.469,0,0,0,10.072-20.141,14.464,14.464,0,0,0-5.134-8.006,17.32,17.32,0,0,0,11.56-16.3,6,6,0,0,0-6-6,9.979,9.979,0,0,1-9.6-7.575c-6.2-24.115-26.895-41.618-49.432-41.618A51.256,51.256,0,0,0,205,206.918v18.659a13.794,13.794,0,0,0-7.627,9.5,17.53,17.53,0,0,0-.581,4.145,17.327,17.327,0,0,0,10.5,15.994L208.741,260A47.349,47.349,0,0,0,230,291.307v10.524l-29.319,9.48a29.659,29.659,0,0,0-19.657,20.233c-.1.373-.218.749-.3,1.115a28.011,28.011,0,0,0-.721,6.452v13.8a123.033,123.033,0,1,1,152,0Zm137.588-76.5A20.412,20.412,0,1,1,490,256,20.435,20.435,0,0,1,469.588,276.412Z" fill="#ffffff" class="color000 svgShape"></path></svg></g></svg>