<svg id="SvgjsSvg1023" width="288" height="288" xmlns="http://www.w3.org/2000/svg" version="1.1" xmlns:xlink="http://www.w3.org/1999/xlink" xmlns:svgjs="http://svgjs.com/svgjs"><defs id="SvgjsDefs1024"></defs><g id="SvgjsG1025"><svg xmlns="http://www.w3.org/2000/svg" width="288" height="288" viewBox="0 0 16.933 16.933"><path style="line-height:normal;font-variant-ligatures:normal;font-variant-position:normal;font-variant-caps:normal;font-variant-numeric:normal;font-variant-alternates:normal;font-feature-settings:normal;text-indent:0;text-align:start;text-decoration-line:none;text-decoration-style:solid;text-decoration-color:#000;text-transform:none;text-orientation:mixed;shape-padding:0;isolation:auto;mix-blend-mode:normal" d="m 1.3224006,280.59633 c -0.4351613,0 -0.7932332,0.35756 -0.7932332,0.79272 v 14.28698 c 0,0.43516 0.3580725,0.7953 0.7932332,0.7953 H 15.611451 c 0.435161,0 0.792717,-0.36014 0.792717,-0.7953 v -14.28698 c 0,-0.43516 -0.357556,-0.79272 -0.792717,-0.79272 z m 0,0.52917 H 15.611451 c 0.151155,0 0.26355,0.1124 0.26355,0.26355 v 2.38073 H 1.0588508 v -2.38073 c 0,-0.15116 0.1123946,-0.26355 0.2635498,-0.26355 z m 1.0583334,0.52917 c -0.4352424,0 -0.7927167,0.35799 -0.7927165,0.79323 6e-7,0.43524 0.3574746,0.79271 0.7927165,0.79271 0.4352416,0 0.7952996,-0.35747 0.7953001,-0.79271 3e-7,-0.43524 -0.3600579,-0.79323 -0.7953001,-0.79323 z m 2.1171832,0 c -0.4352421,0 -0.7927167,0.35799 -0.7927164,0.79323 8e-7,0.43524 0.3574748,0.79271 0.7927164,0.79271 0.435242,0 0.793233,-0.35747 0.793233,-0.79271 1e-6,-0.43524 -0.357991,-0.79323 -0.793233,-0.79323 z m 2.117184,0 c -0.435243,0 -0.794784,0.35799 -0.794784,0.79323 1e-6,0.43524 0.359542,0.79271 0.794784,0.79271 0.435241,0 0.793232,-0.35747 0.793233,-0.79271 0,-0.43524 -0.357991,-0.79323 -0.793233,-0.79323 z m 3.161564,0 c -0.148006,0.0136 -0.251281,0.12752 -0.251148,0.26355 v 1.05885 c 5.82e-4,0.14531 0.118237,0.26296 0.26355,0.26354 h 5.2932168 c 0.145313,-5.8e-4 0.262969,-0.11823 0.26355,-0.26354 v -1.05885 c -5.82e-4,-0.14532 -0.118236,-0.26297 -0.26355,-0.26355 z m -7.3959312,0.52968 c 0.1492593,0 0.265617,0.11429 0.2656167,0.26355 -2e-7,0.14926 -0.1163576,0.26562 -0.2656167,0.26562 -0.1492591,0 -0.2635496,-0.11636 -0.2635498,-0.26562 -1e-7,-0.14926 0.1142905,-0.26355 0.2635498,-0.26355 z m 2.1171832,0 c 0.14926,0 0.26355,0.11429 0.26355,0.26355 0,0.14926 -0.114291,0.26562 -0.26355,0.26562 -0.149259,0 -0.265616,-0.11636 -0.265617,-0.26562 0,-0.14926 0.116358,-0.26355 0.265617,-0.26355 z m 2.117184,0 c 0.149259,0 0.263549,0.11429 0.263549,0.26355 0,0.14926 -0.11429,0.26562 -0.263549,0.26562 -0.14926,0 -0.265617,-0.11636 -0.265617,-0.26562 0,-0.14926 0.116357,-0.26355 0.265617,-0.26355 z m 3.4395828,0 h 4.761467 v 0.52917 h -4.761467 z m -8.9958332,2.11512 H 15.875001 v 11.37656 c 0,0.15116 -0.112394,0.26614 -0.26355,0.26614 H 1.3224006 c -0.1511558,0 -0.2635499,-0.11498 -0.2635498,-0.26614 z m 7.4078164,1.05885 c -1.264789,0 -2.478003,0.50304 -3.37137,1.39836 a 0.26473879,0.26473879 0 1 0 0.374654,0.37414 c 0.79424,-0.79597 1.872266,-1.24334 2.996716,-1.24334 2.3411398,0 4.2333338,1.8922 4.2333338,4.23334 0,2.34114 -1.892194,4.23333 -4.2333338,4.23333 -2.341139,0 -4.233333,-1.89219 -4.233333,-4.23333 0,-0.79346 0.222831,-1.57095 0.643372,-2.24379 a 0.26460979,0.26460979 0 1 0 -0.448552,-0.28061 c -0.4730867,0.75691 -0.7239869,1.6318 -0.7239869,2.5244 0,2.62712 2.1353779,4.7625 4.7624999,4.7625 2.6271228,0 4.7625008,-2.13538 4.7625008,-4.7625 0,-2.62713 -2.135378,-4.7625 -4.7625008,-4.7625 z m 0,1.05833 c -2.04262,0 -3.7052,1.66258 -3.7052,3.7052 0,2.04262 1.66258,3.70262 3.7052,3.70262 2.0426218,0 3.7031338,-1.66 3.7031338,-3.70262 0,-2.04262 -1.660513,-3.7052 -3.7031338,-3.7052 z m 0,0.52917 c 1.7566378,0 3.1760338,1.41939 3.1760338,3.17603 0,1.75664 -1.419395,3.17345 -3.1760338,3.17345 -1.756638,0 -3.175517,-1.41681 -3.175517,-3.17345 1e-6,-1.75664 1.41888,-3.17603 3.175517,-3.17603 z m -0.0036,0.52555 c -0.146174,0.002 -0.263647,0.12099 -0.261999,0.26716 v 0.56793 c -0.453481,0.11946 -0.792717,0.53092 -0.792717,1.02009 0,0.58137 0.476964,1.05885 1.058333,1.05885 0.295392,0 0.529684,0.23377 0.529684,0.52917 0,0.29539 -0.234292,0.52916 -0.529684,0.52916 -0.295391,0 -0.529167,-0.23377 -0.529167,-0.52916 a 0.26464845,0.26464845 0 0 0 -0.529166,0 c 0,0.48917 0.339236,0.90114 0.792716,1.02061 v 0.5674 c 0,0.35287 0.529167,0.35287 0.529167,0 v -0.56689 c 0.454585,-0.1187 0.7953,-0.53117 0.7953,-1.02112 0,-0.58137 -0.477481,-1.05885 -1.05885,-1.05885 -0.295391,0 -0.529167,-0.23378 -0.529167,-0.52917 0,-0.29539 0.233776,-0.52917 0.529167,-0.52917 0.295392,0 0.529684,0.23378 0.529684,0.52917 a 0.2646484,0.2646484 0 0 0 0.529166,0 c 0,-0.48996 -0.340715,-0.90191 -0.7953,-1.02061 v -0.56741 c 0.0017,-0.14847 -0.118699,-0.26884 -0.267167,-0.26716 z" color="#000" font-family="sans-serif" font-weight="400" overflow="visible" transform="translate(0 -280.067)" fill="#ffffff" class="color000 svgShape"></path></svg></g></svg>