<svg id="SvgjsSvg1001" width="288" height="288" xmlns="http://www.w3.org/2000/svg" version="1.1" xmlns:xlink="http://www.w3.org/1999/xlink" xmlns:svgjs="http://svgjs.com/svgjs"><defs id="SvgjsDefs1002"></defs><g id="SvgjsG1008"><svg xmlns="http://www.w3.org/2000/svg" enable-background="new 0 0 3873 3873" viewBox="0 0 3873 3873" width="288" height="288"><path d="M2701,3699H1172c-289.5,0-521-241.8-521-537.1V844.5c0-296.9,233.1-537.1,520.9-537.1h297.3c33.4,0,60.5,27.1,60.5,60.5
			s-27.1,60.5-60.5,60.5H1172c-224.2,0-400,189.7-400,416.1V3162c0,229.1,178.2,416,400,416h1529c221,0,400-186.1,400-416V844.5
			c0-230-179-416-400-416h-297.3c-33.4,0-60.5-27.1-60.5-60.5s27.1-60.5,60.5-60.5H2701c289,0,521,241.3,521,537V3162
			C3222,3458.6,2989.3,3699,2701,3699z" fill="#ffffff" class="color000 svgShape"></path><path d="M2691.4,3416.9H1181.6c-144.3,0-261.6-117.4-261.6-261.6V851.1c0-144.3,117.4-261.6,261.6-261.6h287.6
			c33.4,0,60.5,27.1,60.5,60.5s-27.1,60.5-60.5,60.5h-287.6c-77.5,0-140.6,63.1-140.6,140.6v2304.2c0,77.5,63.1,140.6,140.6,140.6
			h1509.8c77.5,0,140.6-63.1,140.6-140.6V851.1c0-77.5-63.1-140.6-140.6-140.6h-287.6c-33.4,0-60.5-27.1-60.5-60.5
			s27.1-60.5,60.5-60.5h287.6c144.2,0,261.6,117.4,261.6,261.6v2304.2C2953,3299.6,2835.6,3416.9,2691.4,3416.9z" fill="#ffffff" class="color000 svgShape"></path><path d="M2403.7 843.9h-934.5c-33.4 0-60.5-27.1-60.5-60.5V234.5c0-33.4 27.1-60.5 60.5-60.5h934.5c33.4 0 60.5 27.1 60.5 60.5v548.9C2464.3 816.8 2437.2 843.9 2403.7 843.9zM1529.8 722.9h813.5V295h-813.5V722.9zM1262.5 1343.5l-77.6-77.6c-23.6-23.6-23.6-61.9 0-85.6s61.9-23.6 85.6 0l34.8 34.8 170.5-170.5c23.6-23.6 61.9-23.6 85.6 0 23.6 23.6 23.6 61.9 0 85.6l-213.3 213.3C1324.7 1366.9 1286.5 1367.3 1262.5 1343.5zM2645.3 1124.4h-875c-33.4 0-60.5-27.1-60.5-60.5s27.1-60.5 60.5-60.5h875c33.4 0 60.5 27.1 60.5 60.5S2678.7 1124.4 2645.3 1124.4zM2519.9 1384.8h-749.6c-33.4 0-60.5-27.1-60.5-60.5s27.1-60.5 60.5-60.5h749.6c33.4 0 60.5 27.1 60.5 60.5C2580.4 1357.7 2553.3 1384.8 2519.9 1384.8zM1262.5 2180.1l-77.6-77.6c-23.6-23.6-23.6-61.9 0-85.6 23.6-23.6 61.9-23.6 85.6 0l34.8 34.8 170.5-170.5c23.6-23.6 61.9-23.6 85.6 0s23.6 61.9 0 85.6l-213.3 213.3C1324.7 2203.5 1286.5 2203.9 1262.5 2180.1zM2645.3 1961h-875c-33.4 0-60.5-27.1-60.5-60.5s27.1-60.5 60.5-60.5h875c33.4 0 60.5 27.1 60.5 60.5S2678.7 1961 2645.3 1961zM2519.9 2221.4h-749.6c-33.4 0-60.5-27.1-60.5-60.5s27.1-60.5 60.5-60.5h749.6c33.4 0 60.5 27.1 60.5 60.5S2553.3 2221.4 2519.9 2221.4zM1262.5 3016.7l-77.6-77.6c-23.6-23.6-23.6-61.9 0-85.6 23.6-23.6 61.9-23.6 85.6 0l34.8 34.8 170.5-170.5c23.6-23.6 61.9-23.6 85.6 0 23.6 23.6 23.6 62 0 85.6l-213.3 213.3C1324.7 3040.1 1286.5 3040.5 1262.5 3016.7zM2645.3 2797.6h-875c-33.4 0-60.5-27.1-60.5-60.5s27.1-60.5 60.5-60.5h875c33.4 0 60.5 27.1 60.5 60.5S2678.7 2797.6 2645.3 2797.6zM2519.9 3058h-749.6c-33.4 0-60.5-27.1-60.5-60.5s27.1-60.5 60.5-60.5h749.6c33.4 0 60.5 27.1 60.5 60.5S2553.3 3058 2519.9 3058z" fill="#ffffff" class="color000 svgShape"></path></svg></g></svg>