<svg id="SvgjsSvg1013" width="288" height="288" xmlns="http://www.w3.org/2000/svg" version="1.1" xmlns:xlink="http://www.w3.org/1999/xlink" xmlns:svgjs="http://svgjs.com/svgjs"><defs id="SvgjsDefs1014"></defs><g id="SvgjsG1015"><svg xmlns="http://www.w3.org/2000/svg" viewBox="0 0 64 64" width="288" height="288"><path d="M27.35,52.09A2.89,2.89,0,1,0,30.24,55,2.89,2.89,0,0,0,27.35,52.09Zm0,3.78a.89.89,0,1,1,.89-.89A.88.88,0,0,1,27.35,55.87Z" fill="#ffffff" class="color000 svgShape"></path><path d="M23.68,3H7.43A3.28,3.28,0,0,0,4.15,6.28V19.62A3.28,3.28,0,0,0,7.43,22.9h5.3V34.38h-.4a2,2,0,0,0-1.95-1.58H7.25a2,2,0,0,0-2,2V46.13a2,2,0,0,0,2,2h3.13a2,2,0,0,0,1.95-1.58h.4V56.69A4.32,4.32,0,0,0,17,61h20a4.32,4.32,0,0,0,4.31-4.31V53.77h6.43a2.71,2.71,0,0,0,2.71-2.71V39.4a2.71,2.71,0,0,0-2.71-2.71H41.36V31.12H56.17a3.69,3.69,0,0,0,3.68-3.69V11.72A3.68,3.68,0,0,0,56.17,8H37a3.69,3.69,0,0,0-3.69,3.68v5.16H27l-.05-.1V6.28A3.28,3.28,0,0,0,23.68,3ZM35.34,22.9V49H18.76V46.54h4.41a2.26,2.26,0,0,0,2.27-2.06l.67-7a2.81,2.81,0,0,0-2.81-3.08H20.17l-.66-2.45a2.94,2.94,0,0,0-.75-1.29V22.9h2.53c.57.27,1,.53,1.48.8a20.41,20.41,0,0,0,1.85,1A3.27,3.27,0,0,0,26,25a3,3,0,0,0,2.87-2.07ZM6.15,19.62V6.28A1.28,1.28,0,0,1,7.43,5H23.68A1.28,1.28,0,0,1,25,6.28V17a1,1,0,0,0,.09.41l.39.87h0l1.43,3.18a1,1,0,0,1-.18,1.23,1.06,1.06,0,0,1-1.24.17A18.42,18.42,0,0,1,23.77,22a20.26,20.26,0,0,0-1.85-1,1.16,1.16,0,0,0-.41-.09H7.43A1.28,1.28,0,0,1,6.15,19.62ZM16.76,22.9v6.89h0a2.61,2.61,0,0,0-2,.92V22.9ZM7.26,46.13V34.8h3.11c0,14.43,0,7.44,0,11.33Zm5.11-9.75h2.7a1,1,0,0,0,1-1v-3a.65.65,0,0,1,.65-.64.9.9,0,0,1,.86.66l.86,3.19a1,1,0,0,0,1,.74h3.9a.83.83,0,0,1,.61.26.86.86,0,0,1,.21.63l-.67,7a.27.27,0,0,1-.28.25H12.37Zm35.42,2.31a.7.7,0,0,1,.71.71V51.06a.7.7,0,0,1-.71.71H41.36v-2h3.72a1,1,0,0,0,0-2H41.36V46.23h2.26a1,1,0,0,0,0-2H41.36V42.66h3.72a1,1,0,0,0,0-2H41.36v-2Zm-12.45-27A1.68,1.68,0,0,1,37,10H56.17a1.68,1.68,0,0,1,1.68,1.68V27.43a1.69,1.69,0,0,1-1.68,1.69H41.36V21.19a4.31,4.31,0,0,0-4.31-4.31H35.34Zm1.71,7.16a2.31,2.31,0,0,1,2.31,2.31v35.5A2.31,2.31,0,0,1,37.05,59H17a2.32,2.32,0,0,1-2.31-2.31V46.54h2V50a1,1,0,0,0,1,1H36.34a1,1,0,0,0,1-1V21.9a1,1,0,0,0-1-1H28.8c0-.09-.06-.18-.1-.27l-.79-1.75Z" fill="#ffffff" class="color000 svgShape"></path><path d="M47.6 20.61a1.08 1.08 0 0 1 0 2.16 1.11 1.11 0 0 1-.77-.31 1 1 0 1 0-1.41 1.41 2.94 2.94 0 0 0 1.18.72V25a1 1 0 0 0 2 0v-.42a3.07 3.07 0 0 0-1-6 1.08 1.08 0 0 1 0-2.16 1.05 1.05 0 0 1 .76.32 1 1 0 0 0 1.41 0 1 1 0 0 0 0-1.42 3.1 3.1 0 0 0-1.17-.72v-.42a1 1 0 0 0-2 0v.42a3.07 3.07 0 0 0 1 6zM14.66 18.77a1 1 0 0 0 1-1v-.42a3.07 3.07 0 0 0-1-6 1.08 1.08 0 1 1 .77-1.84 1 1 0 0 0 1.41 0 1 1 0 0 0 0-1.42 3.13 3.13 0 0 0-1.18-.72V7a1 1 0 0 0-2 0v.41a3.07 3.07 0 0 0 1 6 1.08 1.08 0 0 1 0 2.16 1.07 1.07 0 0 1-.76-.31 1 1 0 0 0-1.42 0 1 1 0 0 0 0 1.41 3 3 0 0 0 1.18.73v.41A1 1 0 0 0 14.66 18.77z" fill="#ffffff" class="color000 svgShape"></path></svg></g></svg>