<svg id="SvgjsSvg1001" width="288" height="288" xmlns="http://www.w3.org/2000/svg" version="1.1" xmlns:xlink="http://www.w3.org/1999/xlink" xmlns:svgjs="http://svgjs.com/svgjs"><defs id="SvgjsDefs1002"></defs><g id="SvgjsG1008"><svg xmlns="http://www.w3.org/2000/svg" width="288" height="288" enable-background="new 0 0 100 100" viewBox="0 0 100 100"><path d="M53.672,80.901h-7.344c-1.104,0-2,0.896-2,2s0.896,2,2,2h7.344c1.104,0,2-0.896,2-2S54.776,80.901,53.672,80.901z" fill="#ffffff" class="color000 svgShape"></path><path d="M90.625,8.535H9.375c-1.104,0-2,0.896-2,2v14.263c0,0.001,0,0.002,0,0.003C7.378,30.381,11.919,34.92,17.5,34.92
		c0.027,0,0.053-0.004,0.08-0.004v49.479c0,3.898,3.171,7.07,7.07,7.07h50.7c3.898,0,7.07-3.172,7.07-7.07V34.916
		c0.027,0,0.053,0.004,0.08,0.004c5.581,0,10.122-4.539,10.125-10.119c0-0.001,0-0.002,0-0.003V10.535
		C92.625,9.431,91.729,8.535,90.625,8.535z M60.125,12.535h12.25v12.26c0,3.377-2.748,6.125-6.125,6.125s-6.125-2.748-6.125-6.125
		V12.535z M43.875,12.535h12.25v12.26c0,3.377-2.748,6.125-6.125,6.125c-3.377,0-6.125-2.748-6.125-6.125V12.535z M27.625,12.535
		h12.25v12.26c0,3.377-2.748,6.125-6.125,6.125s-6.125-2.748-6.125-6.125V12.535z M17.5,30.92c-3.377,0-6.125-2.748-6.125-6.125
		v-12.26h12.25v12.26C23.625,28.172,20.877,30.92,17.5,30.92z M78.42,84.395c0,1.693-1.377,3.07-3.07,3.07h-50.7
		c-1.693,0-3.07-1.377-3.07-3.07v-50.34c1.615-0.715,3.004-1.841,4.045-3.243c1.847,2.487,4.796,4.109,8.125,4.109
		s6.278-1.622,8.125-4.109c1.847,2.487,4.796,4.109,8.125,4.109s6.278-1.622,8.125-4.109c1.847,2.487,4.796,4.109,8.125,4.109
		s6.278-1.622,8.125-4.109c1.041,1.402,2.43,2.529,4.045,3.243V84.395z M88.625,24.795c0,3.377-2.748,6.125-6.125,6.125
		s-6.125-2.748-6.125-6.125v-12.26h12.25V24.795z" fill="#ffffff" class="color000 svgShape"></path><path d="M59.324,55.648H52v-7.324c0-1.104-0.896-2-2-2s-2,0.896-2,2v7.324h-7.324c-1.104,0-2,0.896-2,2s0.896,2,2,2H48v7.323
		c0,1.104,0.896,2,2,2s2-0.896,2-2v-7.323h7.324c1.104,0,2-0.896,2-2S60.429,55.648,59.324,55.648z" fill="#ffffff" class="color000 svgShape"></path></svg></g></svg>