<svg id="SvgjsSvg1026" width="288" height="288" xmlns="http://www.w3.org/2000/svg" version="1.1" xmlns:xlink="http://www.w3.org/1999/xlink" xmlns:svgjs="http://svgjs.com/svgjs"><defs id="SvgjsDefs1027"></defs><g id="SvgjsG1028"><svg xmlns="http://www.w3.org/2000/svg" fill-rule="evenodd" stroke-linejoin="round" stroke-miterlimit="2" clip-rule="evenodd" viewBox="0 0 64 64" width="288" height="288"><rect width="64" height="64" fill="none"></rect><path d="M432,112C427.585,112 424,115.585 424,120C424,124.415 427.585,128 432,128C436.415,128 440,124.415 440,120C440,115.585 436.415,112 432,112ZM432,116C434.208,116 436,117.792 436,120C436,122.208 434.208,124 432,124C429.792,124 428,122.208 428,120C428,117.792 429.792,116 432,116Z" transform="rotate(45 342.87 -404.918)" fill="#ffffff" class="color000 svgShape"></path><path d="M421.319,134L434.405,134C435.43,134 436.262,134.896 436.262,136C436.262,137.104 435.43,138 434.405,138L419.857,138C419.013,138 418.274,137.386 418.061,136.506C415.843,127.384 416.444,117.825 417.575,108.613C418.044,104.795 419.817,98.923 421.752,95.573C423.464,92.609 427.349,88.869 429.751,86.519C430.46,85.827 431.54,85.827 432.249,86.519C434.651,88.869 438.536,92.609 440.248,95.573C442.183,98.923 443.956,104.795 444.425,108.613C445.556,117.825 446.157,127.384 443.939,136.506C443.68,137.574 442.664,138.214 441.673,137.935C440.681,137.655 440.087,136.561 440.346,135.494C442.441,126.874 441.811,117.841 440.743,109.137C440.331,105.786 438.792,100.626 437.094,97.686C435.804,95.452 433.127,92.769 431,90.697C428.873,92.769 426.196,95.452 424.906,97.686C423.208,100.626 421.669,105.786 421.257,109.137C420.25,117.34 419.633,125.835 421.319,134Z" transform="rotate(45 358.949 -443.729) scale(1.07692 1)" fill="#ffffff" class="color000 svgShape"></path><path d="M420.569,118.602C420.612,117.826 420.202,117.096 419.518,116.729C418.833,116.361 417.998,116.424 417.375,116.889C414.098,119.338 409.638,122.938 408.336,124.891C407.656,125.911 407.134,127.389 406.784,128.976C406.062,132.241 406,135.968 406,135.968C405.989,136.667 406.343,137.321 406.935,137.693C407.527,138.065 408.269,138.101 408.894,137.789L419.826,132.323C420.591,131.941 421.028,131.115 420.914,130.268C420.397,126.41 420.353,122.5 420.569,118.602ZM416.448,122.639C414.371,124.287 412.413,125.986 411.664,127.109C411.037,128.05 410.699,129.584 410.455,131.066C410.366,131.604 410.295,132.138 410.238,132.645L416.779,129.374C416.541,127.139 416.441,124.891 416.448,122.639Z" transform="rotate(45 342.87 -404.918)" fill="#ffffff" class="color000 svgShape"></path><path d="M417.375,116.889C417.998,116.424 418.833,116.361 419.518,116.729C420.202,117.096 420.612,117.826 420.569,118.602C420.353,122.5 420.397,126.41 420.914,130.268C421.028,131.115 420.591,131.941 419.826,132.323L408.894,137.789C408.269,138.101 407.527,138.065 406.935,137.693C406.343,137.321 405.989,136.667 406,135.968C406,135.968 406.062,132.241 406.784,128.976C407.134,127.389 407.656,125.911 408.336,124.891C409.638,122.938 414.098,119.338 417.375,116.889ZM416.448,122.639C416.441,124.891 416.54,127.14 416.779,129.374L410.238,132.645C410.295,132.138 410.366,131.604 410.455,131.066C410.699,129.584 411.037,128.05 411.664,127.109C412.413,125.986 414.371,124.287 416.448,122.639Z" transform="scale(-1 1) rotate(-45 89.13 638.021)" fill="#ffffff" class="color000 svgShape"></path><path d="M418,138L418,140C418,140.748 418.896,141.355 420,141.355C421.104,141.355 422,140.748 422,140L422,138C422,137.252 421.104,136.645 420,136.645C418.896,136.645 418,137.252 418,138Z" transform="rotate(45 417.285 -374.095) scale(1 1.4757)" fill="#ffffff" class="color000 svgShape"></path><path d="M418,138L418,140C418,140.276 418.896,140.5 420,140.5C421.104,140.5 422,140.276 422,140L422,138C422,137.724 421.104,137.5 420,137.5C418.896,137.5 418,137.724 418,138Z" transform="rotate(45 833.784 -190.262) scale(1 4.00001)" fill="#ffffff" class="color000 svgShape"></path><path d="M418,138L418,140C418,140.276 418.896,140.5 420,140.5C421.104,140.5 422,140.276 422,140L422,138C422,137.724 421.104,137.5 420,137.5C418.896,137.5 418,137.724 418,138Z" transform="rotate(45 829.784 -180.605) scale(1 4.00001)" fill="#ffffff" class="color000 svgShape"></path><path d="M418,138L418,140C418,140.738 418.896,141.336 420,141.336C421.104,141.336 422,140.738 422,140L422,138C422,137.262 421.104,136.664 420,136.664C418.896,136.664 418,137.262 418,138Z" transform="matrix(.7071 .7071 -1.0582 1.0582 -123.303 -389.696)" fill="#ffffff" class="color000 svgShape"></path></svg></g></svg>