<svg version="1.0" xmlns="http://www.w3.org/2000/svg"
 width="24" height="24" viewBox="0 0 313.000000 313.000000"
 preserveAspectRatio="xMidYMid meet">
<metadata>
Created by potrace 1.16, written by Peter Selinger 2001-2019
</metadata>
<g transform="translate(0.000000,313.000000) scale(0.100000,-0.100000)"
fill="#000000" stroke="none">
<path d="M1390 3043 c-66 -7 -195 -35 -275 -60 -441 -137 -798 -481 -952 -918
-95 -270 -109 -595 -37 -872 215 -829 1089 -1303 1905 -1033 230 76 404 184
579 360 176 175 284 349 360 579 90 271 100 560 30 837 -145 576 -626 1010
-1215 1099 -90 13 -303 18 -395 8z m386 -208 c671 -117 1145 -748 1064 -1415
-73 -590 -540 -1057 -1130 -1130 -117 -14 -205 -13 -328 6 -552 82 -991 509
-1087 1058 -19 114 -19 318 0 432 92 524 518 953 1040 1047 110 20 331 21 441
2z" fill="#585860"/>
<path d="M2175 2258 c-16 -6 -392 -150 -834 -319 -598 -229 -811 -315 -832
-335 -46 -44 -37 -109 19 -138 15 -7 125 -43 244 -80 165 -51 222 -65 236 -57
10 5 196 121 413 256 217 136 385 238 374 227 -11 -10 -153 -138 -316 -284
l-295 -265 -12 -194 c-7 -107 -15 -213 -18 -236 l-6 -43 38 0 c51 0 79 19 195
128 l96 91 198 -145 c109 -80 209 -150 222 -155 65 -24 123 -4 152 55 21 39
301 1330 301 1383 0 92 -82 144 -175 111z" fill="#585860"/>
</g>
</svg>
