<svg width="32" height="34" viewBox="0 0 32 34" fill="none" xmlns="http://www.w3.org/2000/svg">
<path d="M16 0.515625C7.16342 0.515625 0 7.67904 0 16.5156C0 25.3522 7.16342 32.5156 16 32.5156C24.8366 32.5156 32 25.3522 32 16.5156C32 7.67904 24.8366 0.515625 16 0.515625ZM23.4163 11.3969C23.1755 13.9269 22.1336 20.0665 21.6034 22.9001C21.3791 24.0991 20.9374 24.5012 20.5099 24.5405C19.5809 24.626 18.8752 23.9265 17.9753 23.3365C16.5671 22.4134 15.7715 21.8388 14.4046 20.938C12.8249 19.897 13.849 19.3251 14.7492 18.3896C14.9848 18.1449 19.0787 14.4212 19.1579 14.0834C19.1678 14.0412 19.1773 13.8834 19.0835 13.8006C18.9897 13.7178 18.8519 13.7458 18.7522 13.7683C18.611 13.8004 16.3614 15.2873 12.0033 18.2291C11.3648 18.6676 10.7864 18.8812 10.2682 18.87C9.6969 18.8577 8.598 18.547 7.78103 18.2814C6.77903 17.9558 5.98264 17.7836 6.052 17.2304C6.08813 16.9422 6.4849 16.6476 7.24232 16.3465C11.9067 14.3144 15.0169 12.9746 16.5732 12.3272C21.0165 10.479 21.9398 10.1579 22.5416 10.1472C22.674 10.145 22.9699 10.1778 23.1616 10.3334C23.2891 10.4442 23.3704 10.5988 23.3894 10.7667C23.4218 10.9751 23.4309 11.1865 23.4163 11.3969V11.3969Z" fill="white"/>
</svg>
