<svg width="32" height="32" viewBox="0 0 32 32" fill="none" xmlns="http://www.w3.org/2000/svg">
<path d="M28.7106 9.48103C28.7309 9.76528 28.7309 10.0496 28.7309 10.3338C28.7309 19.0038 22.132 28.9937 10.0711 28.9937C6.35531 28.9937 2.90356 27.9175 0 26.0496C0.527937 26.1105 1.0355 26.1308 1.58375 26.1308C4.64969 26.1308 7.47206 25.0953 9.72587 23.3288C6.84262 23.2678 4.42637 21.3795 3.59387 18.7805C4 18.8414 4.40606 18.882 4.8325 18.882C5.42131 18.882 6.01019 18.8008 6.55837 18.6587C3.55331 18.0495 1.29944 15.41 1.29944 12.2222V12.141C2.1725 12.6283 3.18781 12.9328 4.26388 12.9734C2.49738 11.7957 1.34006 9.78559 1.34006 7.51147C1.34006 6.29322 1.66488 5.17647 2.23344 4.20184C5.46187 8.18153 10.3147 10.7805 15.7563 11.0648C15.6548 10.5775 15.5938 10.0699 15.5938 9.56228C15.5938 5.94803 18.5177 3.00391 22.1522 3.00391C24.0405 3.00391 25.7461 3.79578 26.9441 5.07497C28.4263 4.79072 29.8476 4.24247 31.1065 3.49122C30.6191 5.01409 29.5836 6.29328 28.2232 7.10541C29.5431 6.96334 30.8222 6.59778 31.9999 6.09022C31.1066 7.38966 29.9898 8.54697 28.7106 9.48103V9.48103Z" fill="white"/>
</svg>
